<?xml version="1.0" encoding="UTF-8"?>
<svg width="20px" height="20px" viewBox="0 0 20 20" version="1.1" xmlns="http://www.w3.org/2000/svg" xmlns:xlink="http://www.w3.org/1999/xlink">
    <!-- Generator: Sketch 51.3 (57544) - http://www.bohemiancoding.com/sketch -->
    <title>LinkedIn</title>
    <desc>Created with Sketch.</desc>
    <defs></defs>
    <g id="Website" stroke="none" stroke-width="1" fill="none" fill-rule="evenodd">
        <g id="About-/-grid" transform="translate(-270.000000, -697.000000)" fill="#B8BABB" fill-rule="nonzero">
            <g id="Group-20" transform="translate(234.000000, 409.000000)">
                <g id="Group-9">
                    <path d="M36,305.004911 L36,290.995089 C36,289.340784 37.3405012,288 38.9950893,288 L53.0049107,288 C54.6592161,288 56,289.340501 56,290.995089 L56,305.004911 C56,306.659216 54.6594988,308 53.0049107,308 L38.9950893,308 C37.3407839,308 36,306.659499 36,305.004911 Z M38.9950893,290 C38.4451651,290 38,290.445259 38,290.995089 L38,305.004911 C38,305.554835 38.445259,306 38.9950893,306 L53.0049107,306 C53.5548349,306 54,305.554741 54,305.004911 L54,290.995089 C54,290.445165 53.554741,290 53.0049107,290 L38.9950893,290 Z M41,297.002929 C41,296.449027 41.4438648,296 42,296 C42.5522847,296 43,296.44853 43,297.002929 L43,301.997071 C43,302.550973 42.5561352,303 42,303 C41.4477153,303 41,302.55147 41,301.997071 L41,297.002929 Z M42,295 C41.4477153,295 41,294.552285 41,294 C41,293.447715 41.4477153,293 42,293 C42.5522847,293 43,293.447715 43,294 C43,294.552285 42.5522847,295 42,295 Z M47.1538462,299.250247 L47.1538462,302 C47.1538462,302.552285 46.6716913,303 46.0769231,303 C45.4821549,303 45,302.552285 45,302 L45,299.250247 C45,297.455909 46.5689465,296 48.5,296 C50.4318295,296 52,297.458113 52,299.250247 L52,302 C52,302.552285 51.5178451,303 50.9230769,303 C50.3283087,303 49.8461538,302.552285 49.8461538,302 L49.8461538,299.250247 C49.8461538,298.562082 49.241646,298 48.5,298 C47.7581618,298 47.1538462,298.560777 47.1538462,299.250247 Z" id="LinkedIn"></path>
                </g>
            </g>
        </g>
    </g>
</svg>