<?xml version="1.0" encoding="UTF-8"?>
<svg width="700px" height="147px" viewBox="0 0 700 147" version="1.1" xmlns="http://www.w3.org/2000/svg" xmlns:xlink="http://www.w3.org/1999/xlink">
    <!-- Generator: Sketch 46.2 (44496) - http://www.bohemiancoding.com/sketch -->
    <title>Group 3</title>
    <desc>Created with Sketch.</desc>
    <defs></defs>
    <g id="September-10th---What's-New" stroke="none" stroke-width="1" fill="none" fill-rule="evenodd">
        <g id="About-Carrot-SL-Edits" transform="translate(-290.000000, 0.000000)">
            <g id="Window-BG" transform="translate(290.000000, 0.000000)">
                <g id="Group-3" transform="translate(-68.000000, -149.000000)">
                    <g id="Fill-1">
                        <path d="M542.195522,147.325304 C557.885534,75.4677889 615.633906,15.9669348 688.5,16.0000138 C761.366094,15.9669348 819.114466,75.4677889 834.804478,147.325304 C850.024748,216.640698 784.489261,287.877982 688.5,290 C592.510739,287.877982 526.975252,216.642352 542.195522,147.325304" fill="#FA5252"></path>
                        <path d="M465.249756,112.188305 C468.555872,65.8142808 502.937112,33.8524031 537.465402,39.6865736 C571.925238,45.5207441 605.896593,78.1479145 609.681048,111.447967 C613.484941,144.578533 582.899143,176.540411 537.465402,183.949698 C492.100117,191.359828 461.925048,158.732658 465.249756,112.188305" fill-opacity="0.899999976" fill="#C67DFF"></path>
                        <path d="M0.618185017,91.9977294 C-12.6216202,229.383907 190.842492,281.707384 224.081288,145.043877 C235.456536,85.8320739 195.052529,11.6317338 134.688951,1.0198811 C91.998595,-7.38067708 -6.68499454,37.1849071 1.8375716,95.2320427" fill="#FFD24A"></path>
                        <path d="M147.260231,256.383236 C149.297285,245.772486 159.487222,236.425577 169.960755,235.115907 C180.42358,233.829425 190.582495,243.391567 192.717284,256.863076 C194.853171,270.322309 184.653625,280.403572 170.006602,278.839934 C155.370286,277.277115 145.222627,266.981984 147.260231,256.383236" fill="#FA5252"></path>
                        <path d="M263.036172,195.527085 C263.514988,188.856849 268.49434,184.259592 273.494989,185.098754 C278.485724,185.937915 283.405714,190.630864 283.953807,195.420598 C284.504716,200.185953 280.075048,204.78321 273.494989,205.848929 C266.924844,206.91477 262.554662,202.221821 263.036172,195.527085" fill-opacity="0.899999976" fill="#C67DFF"></path>
                        <path d="M713.054707,284.177576 C711.883042,296.389681 729.888716,301.040656 732.830202,288.892789 C733.836862,283.629518 730.261286,277.033932 724.919376,276.090656 C721.141469,275.34394 712.408408,279.305325 713.162617,284.46507" fill="#FFD24A"></path>
                    </g>
                </g>
            </g>
        </g>
    </g>
</svg>