<?xml version="1.0" encoding="UTF-8"?>
<svg width="14px" height="14px" viewBox="0 0 14 14" version="1.1" xmlns="http://www.w3.org/2000/svg" xmlns:xlink="http://www.w3.org/1999/xlink">
    <!-- Generator: Sketch 52.6 (67491) - http://www.bohemiancoding.com/sketch -->
    <title>Combined Shape</title>
    <desc>Created with Sketch.</desc>
    <g id="New-post-options" stroke="none" stroke-width="1" fill="none" fill-rule="evenodd">
        <g id="New-post:-A" transform="translate(-1161.000000, -21.000000)" fill="#6833F1">
            <g id="Primary-nav">
                <g id="Group-3">
                    <g transform="translate(1152.000000, 12.000000)">
                        <g id="Group-2">
                            <g id="Group-27">
                                <path d="M14.6,14.6 L14.6,10.3935566 C14.6,9.62391654 15.2214108,9 16,9 C16.7731986,9 17.4,9.62874867 17.4,10.3935566 L17.4,14.6 L21.6064434,14.6 C22.3760835,14.6 23,15.2214108 23,16 C23,16.7731986 22.3712513,17.4 21.6064434,17.4 L17.4,17.4 L17.4,21.6064434 C17.4,22.3760835 16.7785892,23 16,23 C15.2268014,23 14.6,22.3712513 14.6,21.6064434 L14.6,17.4 L10.3935566,17.4 C9.62391654,17.4 9,16.7785892 9,16 C9,15.2268014 9.62874867,14.6 10.3935566,14.6 L14.6,14.6 Z" id="Combined-Shape"></path>
                            </g>
                        </g>
                    </g>
                </g>
            </g>
        </g>
    </g>
</svg>