<?xml version="1.0" encoding="UTF-8"?>
<svg width="18px" height="17px" viewBox="0 0 18 17" version="1.1" xmlns="http://www.w3.org/2000/svg" xmlns:xlink="http://www.w3.org/1999/xlink">
    <!-- Generator: Sketch 52.6 (67491) - http://www.bohemiancoding.com/sketch -->
    <title>Combined Shape Copy 4</title>
    <desc>Created with Sketch.</desc>
    <g id="Mobile" stroke="none" stroke-width="1" fill="none" fill-rule="evenodd">
        <g id="Inbox-(m):-Empty" transform="translate(-38.000000, -746.000000)" fill="#6833F1">
            <g id="Group-21" transform="translate(0.000000, 734.000000)">
                <g id="Group-19" transform="translate(38.000000, 12.000000)">
                    <path d="M0.819619733,14.2311872 L0.010209778,5.91393595 C-0.104911914,4.73098036 0.76737157,3.73846154 1.9266797,3.73846154 L16.0733129,3.73846154 C17.2302255,3.73846154 18.1051032,4.72893786 17.9897828,5.91393595 L17.1803728,14.2311872 C17.0733359,15.3310656 16.1405014,16.2 15.0680184,16.2 L2.93197419,16.2 C1.85549096,16.2 0.926989992,15.3344914 0.819619733,14.2311872 Z M2.25,1.24615385 C2.25,0.557922081 2.68387916,2.30926389e-14 3.21006422,2.30926389e-14 L14.7899358,2.30926389e-14 C15.3201646,2.30926389e-14 15.75,0.553123856 15.75,1.24615385 C15.75,1.93438561 15.3161208,2.49230769 14.7899358,2.49230769 L3.21006422,2.49230769 C2.67983539,2.49230769 2.25,1.93918384 2.25,1.24615385 Z" id="Combined-Shape-Copy-4" transform="translate(9.000000, 8.100000) scale(1, -1) translate(-9.000000, -8.100000) "></path>
                </g>
            </g>
        </g>
    </g>
</svg>