<?xml version="1.0" encoding="UTF-8"?>
<svg width="14px" height="14px" viewBox="0 0 14 14" version="1.1" xmlns="http://www.w3.org/2000/svg" xmlns:xlink="http://www.w3.org/1999/xlink">
    <!-- Generator: Sketch 50.2 (55047) - http://www.bohemiancoding.com/sketch -->
    <title>Combined Shape</title>
    <desc>Created with Sketch.</desc>
    <defs></defs>
    <g id="Nav-updates" stroke="none" stroke-width="1" fill="none" fill-rule="evenodd">
        <g transform="translate(-138.000000, -396.000000)" fill="#6833F1" id="Group" stroke="#6833F1" stroke-width="0.2">
            <g transform="translate(120.000000, 107.000000)">
                <g id="Group-15">
                    <g id="Group-19" transform="translate(0.000000, 170.000000)">
                        <path d="M25,132.1 C21.631063,132.1 18.9,129.368937 18.9,126 C18.9,122.631063 21.631063,119.9 25,119.9 C28.368937,119.9 31.1,122.631063 31.1,126 C31.1,129.368937 28.368937,132.1 25,132.1 Z M22.8589544,130.185196 C22.359332,129.193101 22.0204283,127.946756 21.9265906,126.7 L20.3517663,126.7 C20.5765365,128.20441 21.5208194,129.499659 22.8589544,130.185196 Z M20.3517663,125.3 L21.9259637,125.3 C22.0178625,124.051121 22.3504857,122.809994 22.8435063,121.822759 C21.5132974,122.510476 20.5756354,123.801622 20.3517663,125.3 Z M29.6482337,125.3 C29.4243646,123.801622 28.4867026,122.510476 27.1564937,121.822759 C27.6495143,122.809994 27.9821375,124.051121 28.0740357,125.3 L29.6482337,125.3 Z M27.1410456,130.185196 C28.4791806,129.499659 29.4234635,128.20441 29.6482337,126.7 L28.0734093,126.7 C27.9795717,127.946756 27.640668,129.193101 27.1410456,130.185196 Z M26.6704192,126.7 L23.3295801,126.7 C23.4147905,127.711685 23.6812903,128.694997 24.0850129,129.506618 C24.4155271,130.171065 24.8661874,130.7 25,130.7 C25.1338126,130.7 25.5844729,130.171065 25.9149871,129.506618 C26.3187097,128.694997 26.5852095,127.711685 26.6704192,126.7 Z M23.3289706,125.3 L26.6710301,125.3 C26.5871562,124.283809 26.3239534,123.299136 25.9252896,122.491448 C25.5929041,121.818039 25.1474028,121.3 25,121.3 C24.8525972,121.3 24.4070959,121.818039 24.0747104,122.491448 C23.6760466,123.299136 23.4128438,124.283809 23.3289706,125.3 Z" id="Combined-Shape"></path>
                    </g>
                </g>
            </g>
        </g>
    </g>
</svg>