<?xml version="1.0" encoding="UTF-8"?>
<svg width="10px" height="12px" viewBox="0 0 10 12" version="1.1" xmlns="http://www.w3.org/2000/svg" xmlns:xlink="http://www.w3.org/1999/xlink">
    <!-- Generator: Sketch 52.6 (67491) - http://www.bohemiancoding.com/sketch -->
    <title>Combined Shape</title>
    <desc>Created with Sketch.</desc>
    <g id="Post-authoring" stroke="none" stroke-width="1" fill="none" fill-rule="evenodd">
        <g id="Desktop:-section-picker" transform="translate(-693.000000, -105.000000)" fill="#6833F1">
            <g id="Group-29" transform="translate(560.000000, 52.000000)">
                <g id="Group-31" transform="translate(1.000000, 42.000000)">
                    <path d="M133.25,14.6000949 C133.25,12.611707 134.928668,11 137,11 C139.070686,11 140.75,12.6126661 140.75,14.6001538 L140.75,16.1000006 C141.440479,16.1006877 142,16.6361175 142,17.3018883 L142,21.7981117 C142,22.4618963 141.440929,23 140.748669,23 L133.251331,23 C132.56024,23 132,22.4643101 132,21.7981117 L132,17.3018883 C132,16.638529 132.558355,16.1006896 133.25,16.1000007 L133.25,14.6000949 Z M134.5,16.1 L139.5,16.1 L139.5,14.6001538 C139.5,13.2753205 138.380239,12.2 137,12.2 C135.619056,12.2 134.5,13.2744177 134.5,14.6000949 L134.5,16.1 Z" id="Combined-Shape"></path>
                </g>
            </g>
        </g>
    </g>
</svg>