<?xml version="1.0" encoding="UTF-8"?>
<svg width="13px" height="13px" viewBox="0 0 13 13" version="1.1" xmlns="http://www.w3.org/2000/svg" xmlns:xlink="http://www.w3.org/1999/xlink">
    <!-- Generator: Sketch 52.6 (67491) - http://www.bohemiancoding.com/sketch -->
    <title>Combined Shape</title>
    <desc>Created with Sketch.</desc>
    <g id="Inbox/unread" stroke="none" stroke-width="1" fill="none" fill-rule="evenodd">
        <g id="Inbox:-Action-bar-states" transform="translate(-668.000000, -495.000000)" fill="#242D42" fill-rule="nonzero">
            <path d="M674.25,495 C677.70178,495 680.5,497.79822 680.5,501.25 C680.5,504.70178 677.70178,507.5 674.25,507.5 C670.79822,507.5 668,504.70178 668,501.25 C668,497.79822 670.79822,495 674.25,495 Z M671.038449,502.1 L669.779253,502.1 C670.011447,503.327541 670.741098,504.396864 671.772635,505.067326 C671.392338,504.180093 671.131897,503.143387 671.038449,502.1 Z M678.720747,502.1 L677.461551,502.1 C677.368103,503.143387 677.107662,504.180093 676.727365,505.067326 C677.690133,504.441562 678.389924,503.468345 678.667734,502.343327 L678.720747,502.1 Z M676.741403,497.44184 L676.870635,497.765145 C677.118635,498.423895 677.302889,499.152665 677.406034,499.900642 L677.450767,500.275996 L677.460963,500.4 L678.720747,500.4 C678.489638,499.178194 677.765682,498.11296 676.741403,497.44184 Z M671.758482,497.441958 L671.557696,497.581366 C670.705348,498.207668 670.086763,499.118541 669.831468,500.15793 L669.779062,500.4 L671.037575,500.4 C671.129033,499.356572 671.384233,498.324557 671.758482,497.441958 Z M675.755644,502.1 L672.744356,502.1 C672.84169,503.035568 673.095798,503.938915 673.469315,504.689812 C673.774077,505.302488 674.197964,505.8 674.25,505.8 C674.302036,505.8 674.725923,505.302488 675.030685,504.689812 C675.404202,503.938915 675.65831,503.035568 675.755644,502.1 Z M674.25,496.7 C674.183952,496.7 673.766345,497.185604 673.459218,497.807839 C673.136414,498.461835 672.903873,499.236309 672.786578,500.049405 L672.743437,500.4 L675.756563,500.4 L675.713422,500.049405 C675.596127,499.236309 675.363586,498.461835 675.040782,497.807839 C674.733655,497.185604 674.316048,496.7 674.25,496.7 Z" id="Combined-Shape"></path>
        </g>
    </g>
</svg>