<?xml version="1.0" encoding="UTF-8"?>
<svg width="13px" height="13px" viewBox="0 0 13 13" version="1.1" xmlns="http://www.w3.org/2000/svg" xmlns:xlink="http://www.w3.org/1999/xlink">
    <!-- Generator: Sketch 52.6 (67491) - http://www.bohemiancoding.com/sketch -->
    <title>Combined Shape</title>
    <desc>Created with Sketch.</desc>
    <g id="Inbox/unread" stroke="none" stroke-width="1" fill="none" fill-rule="evenodd">
        <g id="Inbox:-Action-bar-states" transform="translate(-668.000000, -557.000000)" fill="#FFFFFF" fill-rule="nonzero">
            <path d="M674.25,557 C677.70178,557 680.5,559.79822 680.5,563.25 C680.5,566.70178 677.70178,569.5 674.25,569.5 C670.79822,569.5 668,566.70178 668,563.25 C668,559.79822 670.79822,557 674.25,557 Z M671.038449,564.1 L669.779253,564.1 C670.011447,565.327541 670.741098,566.396864 671.772635,567.067326 C671.392338,566.180093 671.131897,565.143387 671.038449,564.1 Z M678.720747,564.1 L677.461551,564.1 C677.368103,565.143387 677.107662,566.180093 676.727365,567.067326 C677.690133,566.441562 678.389924,565.468345 678.667734,564.343327 L678.720747,564.1 Z M676.741403,559.44184 L676.870635,559.765145 C677.118635,560.423895 677.302889,561.152665 677.406034,561.900642 L677.450767,562.275996 L677.460963,562.4 L678.720747,562.4 C678.489638,561.178194 677.765682,560.11296 676.741403,559.44184 Z M671.758482,559.441958 L671.557696,559.581366 C670.705348,560.207668 670.086763,561.118541 669.831468,562.15793 L669.779062,562.4 L671.037575,562.4 C671.129033,561.356572 671.384233,560.324557 671.758482,559.441958 Z M675.755644,564.1 L672.744356,564.1 C672.84169,565.035568 673.095798,565.938915 673.469315,566.689812 C673.774077,567.302488 674.197964,567.8 674.25,567.8 C674.302036,567.8 674.725923,567.302488 675.030685,566.689812 C675.404202,565.938915 675.65831,565.035568 675.755644,564.1 Z M674.25,558.7 C674.183952,558.7 673.766345,559.185604 673.459218,559.807839 C673.136414,560.461835 672.903873,561.236309 672.786578,562.049405 L672.743437,562.4 L675.756563,562.4 L675.713422,562.049405 C675.596127,561.236309 675.363586,560.461835 675.040782,559.807839 C674.733655,559.185604 674.316048,558.7 674.25,558.7 Z" id="Combined-Shape"></path>
        </g>
    </g>
</svg>