<?xml version="1.0" encoding="UTF-8"?>
<svg width="14px" height="14px" viewBox="0 0 14 14" version="1.1" xmlns="http://www.w3.org/2000/svg" xmlns:xlink="http://www.w3.org/1999/xlink">
    <!-- Generator: Sketch 52.6 (67491) - http://www.bohemiancoding.com/sketch -->
    <title>Combined Shape</title>
    <desc>Created with Sketch.</desc>
    <g id="Styles-&amp;-states" stroke="none" stroke-width="1" fill="none" fill-rule="evenodd">
        <g id="Section-settings" transform="translate(-403.000000, -404.000000)" fill="#242D42" stroke="#242D42" stroke-width="0.5">
            <g id="Group" transform="translate(280.000000, 175.000000)">
                <g id="Group-8" transform="translate(0.000000, 224.000000)">
                    <path d="M130,18 C126.686292,18 124,15.3137085 124,12 C124,8.6862915 126.686292,6 130,6 C133.313708,6 136,8.6862915 136,12 C136,15.3137085 133.313708,18 130,18 Z M125.237136,12.6 C125.450451,14.310646 126.56392,15.7417453 128.088586,16.4043396 C127.522852,15.3950536 127.112485,14.0170524 127.019802,12.6 L125.237136,12.6 Z M125.237136,11.4 L127.019324,11.4 C127.109977,9.98133964 127.512331,8.60890903 128.072584,7.60264978 C126.556133,8.26828145 125.449704,9.69534459 125.237136,11.4 Z M134.762864,11.4 C134.550296,9.69534459 133.443867,8.26828145 131.927416,7.60264978 C132.487669,8.60890903 132.890023,9.98133964 132.980676,11.4 L134.762864,11.4 Z M131.911414,16.4043396 C133.43608,15.7417453 134.549549,14.310646 134.762864,12.6 L132.980198,12.6 C132.887515,14.0170524 132.477148,15.3950536 131.911414,16.4043396 Z M128.995478,15.5511546 C129.384904,16.3340331 129.841426,16.8 130,16.8 C130.158574,16.8 130.615096,16.3340331 131.004522,15.5511546 C131.421454,14.7129786 131.701462,13.6788996 131.778501,12.6 L128.221499,12.6 C128.298538,13.6788996 128.578546,14.7129786 128.995478,15.5511546 Z M128.985039,8.4471874 C128.573091,9.28178824 128.296826,10.3171403 128.221057,11.4 L131.778943,11.4 C131.703174,10.3171403 131.426909,9.28178824 131.014961,8.4471874 C130.626945,7.6610708 130.172844,7.2 130,7.2 C129.827156,7.2 129.373055,7.6610708 128.985039,8.4471874 Z" id="Combined-Shape"></path>
                </g>
            </g>
        </g>
    </g>
</svg>