<?xml version="1.0" encoding="UTF-8"?>
<svg width="115px" height="28px" viewBox="0 0 115 28" version="1.1" xmlns="http://www.w3.org/2000/svg" xmlns:xlink="http://www.w3.org/1999/xlink">
    <!-- Generator: Sketch 48.2 (47327) - http://www.bohemiancoding.com/sketch -->
    <title>Group 7</title>
    <desc>Created with Sketch.</desc>
    <defs></defs>
    <g id="Home-V3" stroke="none" stroke-width="1" fill="none" fill-rule="evenodd" transform="translate(-40.000000, -22.000000)">
        <g id="Group-7" transform="translate(40.000000, 22.000000)">
            <g id="Carrot">
                <g id="Group-3">
                    <path d="M5.56664158,0.162211653 C5.13241656,-0.0337922351 4.65108664,-0.0528272281 4.21106697,0.108687515 C3.73665325,0.282640965 3.3530847,0.657121471 3.15830964,1.13638867 L3.00746178,1.5080422 L2.65454881,1.32089618 C2.20013597,1.08022602 1.66740188,1.04196757 1.19317508,1.21610948 C0.753155415,1.37762423 0.396317036,1.70423455 0.188644203,2.1360085 C-0.259226282,3.06853469 0.117799915,4.22043447 1.02942945,4.70365944 C1.03185946,4.7049787 1.0344764,4.70629795 1.03709334,4.70761721 L4.58884087,6.44432474 C4.65557282,6.47692923 4.72847328,6.47881389 4.79202752,6.45544419 C4.85576869,6.43226296 4.91016364,6.38345046 4.94063229,6.31522602 L6.55584467,2.68236934 C6.55715314,2.67973083 6.55827468,2.67690385 6.55939623,2.67426533 C6.94988097,1.71365782 6.50462743,0.587012388 5.56664158,0.162211653" id="Fill-2" fill="#69E993"></path>
                    <path d="M14.697466,9.33707291 C13.5609535,7.05347073 11.06579,5.81498716 8.09008646,6.38655121 C8.09008646,6.38655121 6.83263193,6.53138535 5.6065046,6.97707261 C4.3801874,7.4225703 3.3237965,8.11868413 3.3237965,8.11868413 C-0.430340354,10.1821915 -1.10169159,14.4419077 1.80831982,17.5888275 L9.19489212,25.5772645 C12.1020556,28.7213407 14.6285462,27.8072174 14.8316983,23.5287334 L15.1888283,16.0094908 L11.3689993,17.3994436 C11.3689993,17.3994436 14.2205333,14.4965048 14.8013204,12.4396325 C15.2085739,10.997547 14.9114403,9.87773648 14.697466,9.33707291" id="Fill-4" fill="#ED5850"></path>
                </g>
                <g id="Group-3">
                    <path d="M5.56664158,0.162211653 C5.13241656,-0.0337922351 4.65108664,-0.0528272281 4.21106697,0.108687515 C3.73665325,0.282640965 3.3530847,0.657121471 3.15830964,1.13638867 L3.00746178,1.5080422 L2.65454881,1.32089618 C2.20013597,1.08022602 1.66740188,1.04196757 1.19317508,1.21610948 C0.753155415,1.37762423 0.396317036,1.70423455 0.188644203,2.1360085 C-0.259226282,3.06853469 0.117799915,4.22043447 1.02942945,4.70365944 C1.03185946,4.7049787 1.0344764,4.70629795 1.03709334,4.70761721 L4.58884087,6.44432474 C4.65557282,6.47692923 4.72847328,6.47881389 4.79202752,6.45544419 C4.85576869,6.43226296 4.91016364,6.38345046 4.94063229,6.31522602 L6.55584467,2.68236934 C6.55715314,2.67973083 6.55827468,2.67690385 6.55939623,2.67426533 C6.94988097,1.71365782 6.50462743,0.587012388 5.56664158,0.162211653" id="Fill-2" fill="#69E993"></path>
                    <path d="M8.09008646,6.38655121 C8.09008646,6.38655121 6.83263193,6.53138535 5.6065046,6.97707261 C4.3801874,7.4225703 3.3237965,8.11868413 3.3237965,8.11868413 C-0.430340354,10.1821915 -1.10169159,14.4419077 1.80831982,17.5888275 L9.19489212,25.5772645 C12.1020556,28.7213407 14.6285462,27.8072174 14.8316983,23.5287334 L15.1888283,16.0094908 L11.3689993,17.3994436 C11.3689993,17.3994436 14.2205333,14.4965048 14.8013204,12.4396325 C15.2085739,10.997547 14.9114403,9.87773648 14.697466,9.33707291 C13.5609535,7.05347073 11.06579,5.81498716 8.09008646,6.38655121 Z" id="Fill-4" fill="#FA6452"></path>
                </g>
            </g>
            <path d="M46.1050103,8.19354839 C45.3555213,7.40322185 44.6300653,6.8763454 43.9286205,6.61290323 C43.2271756,6.34946105 42.520937,6.21774194 41.8098833,6.21774194 C40.7529117,6.21774194 39.7968471,6.40120784 38.9416609,6.76814516 C38.0864748,7.13508248 37.3514101,7.64314192 36.7364447,8.29233871 C36.1214794,8.9415355 35.6458493,9.6989204 35.3095402,10.5645161 C34.973231,11.4301119 34.8050789,12.3615542 34.8050789,13.358871 C34.8050789,14.431457 34.973231,15.4193503 35.3095402,16.3225806 C35.6458493,17.225811 36.1214794,18.0067171 36.7364447,18.6653226 C37.3514101,19.323928 38.0864748,19.841396 38.9416609,20.2177419 C39.7968471,20.5940879 40.7529117,20.7822581 41.8098833,20.7822581 C42.636243,20.7822581 43.4385685,20.5893836 44.216884,20.203629 C44.9951995,19.8178744 45.7206555,19.2016171 46.3932739,18.3548387 L49.3912148,20.4435484 C48.4687668,21.6854901 47.3445502,22.5887069 46.0185312,23.1532258 C44.6925122,23.7177448 43.2800349,24 41.781057,24 C40.2052083,24 38.7591006,23.7506745 37.4426905,23.2520161 C36.1262803,22.7533577 34.992455,22.0477196 34.0411805,21.1350806 C33.089906,20.2224417 32.3452326,19.1263505 31.807138,17.8467742 C31.2690433,16.5671979 31,15.1465132 31,13.5846774 C31,11.9852071 31.2690433,10.5315926 31.807138,9.22379032 C32.3452326,7.91598808 33.089906,6.80107988 34.0411805,5.87903226 C34.992455,4.95698464 36.1262803,4.24664228 37.4426905,3.74798387 C38.7591006,3.24932546 40.2052083,3 41.781057,3 C43.1647289,3 44.4474889,3.23991696 45.6293754,3.71975806 C46.8112619,4.19959917 47.9114568,5.01343512 48.9299931,6.16129032 L46.1050103,8.19354839 Z M60.1722718,21.6290323 L60.0857927,21.6290323 C59.5861334,22.4005415 58.9519599,22.9603477 58.1832533,23.3084677 C57.4145466,23.6565878 56.568982,23.8306452 55.646534,23.8306452 C55.012351,23.8306452 54.3925905,23.7459686 53.787234,23.5766129 C53.1818775,23.4072572 52.643791,23.1532275 52.1729581,22.8145161 C51.7021253,22.4758048 51.3225821,22.0524219 51.0343171,21.5443548 C50.7460521,21.0362878 50.6019218,20.4435518 50.6019218,19.766129 C50.6019218,19.0322544 50.7364434,18.4065886 51.0054907,17.8891129 C51.2745381,17.3716372 51.6348639,16.9388458 52.0864791,16.5907258 C52.5380942,16.2426058 53.0617678,15.9650548 53.6575154,15.7580645 C54.2532631,15.5510742 54.8730235,15.3958339 55.5168154,15.2923387 C56.1606072,15.1888436 56.8091937,15.122984 57.4625944,15.0947581 C58.115995,15.0665321 58.7309511,15.0524194 59.3074811,15.0524194 L60.1722718,15.0524194 L60.1722718,14.6854839 C60.1722718,13.8387054 59.8744024,13.2036311 59.2786548,12.7802419 C58.6829071,12.3568527 57.9238207,12.1451613 57.0013727,12.1451613 C56.2711014,12.1451613 55.5888844,12.2721761 54.9547014,12.5262097 C54.3205184,12.7802432 53.7728232,13.1236538 53.3115992,13.5564516 L51.4955388,11.7782258 C52.2642454,11.0067166 53.1626579,10.4516146 54.190803,10.1129032 C55.2189482,9.77419185 56.2807083,9.60483871 57.3761153,9.60483871 C58.3562163,9.60483871 59.1825636,9.71303655 59.8551819,9.92943548 C60.5278002,10.1458344 61.0851042,10.4233854 61.5271105,10.7620968 C61.9691168,11.1008081 62.3102253,11.4912612 62.5504461,11.9334677 C62.790667,12.3756743 62.9636234,12.8225784 63.0693205,13.2741935 C63.1750177,13.7258087 63.2374742,14.1633043 63.2566918,14.5866935 C63.2759095,15.0100828 63.2855182,15.3817188 63.2855182,15.7016129 L63.2855182,23.4919355 L60.1722718,23.4919355 L60.1722718,21.6290323 Z M59.9704873,17.4233871 L59.2498284,17.4233871 C58.7693868,17.4233871 58.2313002,17.4422041 57.6355525,17.4798387 C57.0398048,17.5174733 56.4776965,17.6068541 55.9492107,17.7479839 C55.4207249,17.8891136 54.9739208,18.0961008 54.6087852,18.3689516 C54.2436495,18.6418024 54.0610844,19.022847 54.0610844,19.5120968 C54.0610844,19.8319908 54.1331496,20.1001333 54.2772821,20.3165323 C54.4214146,20.5329312 54.608784,20.7163971 54.839396,20.8669355 C55.070008,21.0174739 55.3294426,21.1256717 55.6177076,21.1915323 C55.9059726,21.2573928 56.1942333,21.2903226 56.4824983,21.2903226 C57.6739936,21.2903226 58.5531887,21.0127716 59.1201098,20.4576613 C59.687031,19.902551 59.9704873,19.1451661 59.9704873,18.1854839 L59.9704873,17.4233871 Z M67.0041181,9.94354839 L70.4632807,9.94354839 L70.4632807,12.0887097 L70.5209334,12.0887097 C70.9052868,11.2983831 71.452982,10.6868301 72.1640357,10.2540323 C72.8750893,9.8212344 73.6918279,9.60483871 74.6142759,9.60483871 C74.8256702,9.60483871 75.0322571,9.62365573 75.2340426,9.66129032 C75.4358281,9.69892492 75.6424149,9.74596746 75.8538092,9.80241935 L75.8538092,13.0766129 C75.5655442,13.0013437 75.2820879,12.9401884 75.0034317,12.8931452 C74.7247755,12.8461019 74.4509279,12.8225806 74.1818806,12.8225806 C73.3747386,12.8225806 72.7261521,12.9684125 72.2361016,13.2600806 C71.7460511,13.5517488 71.3713122,13.8857508 71.1118737,14.2620968 C70.8524352,14.6384427 70.6794788,15.0147831 70.5929993,15.391129 C70.5065198,15.767475 70.4632807,16.0497302 70.4632807,16.2379032 L70.4632807,23.4919355 L67.0041181,23.4919355 L67.0041181,9.94354839 Z M78.2175704,9.94354839 L81.676733,9.94354839 L81.676733,12.0887097 L81.7343857,12.0887097 C82.1187391,11.2983831 82.6664343,10.6868301 83.377488,10.2540323 C84.0885416,9.8212344 84.9052802,9.60483871 85.8277282,9.60483871 C86.0391225,9.60483871 86.2457094,9.62365573 86.4474949,9.66129032 C86.6492804,9.69892492 86.8558672,9.74596746 87.0672615,9.80241935 L87.0672615,13.0766129 C86.7789965,13.0013437 86.4955402,12.9401884 86.216884,12.8931452 C85.9382278,12.8461019 85.6643802,12.8225806 85.3953329,12.8225806 C84.5881909,12.8225806 83.9396044,12.9684125 83.4495539,13.2600806 C82.9595034,13.5517488 82.5847645,13.8857508 82.325326,14.2620968 C82.0658875,14.6384427 81.8929311,15.0147831 81.8064516,15.391129 C81.7199721,15.767475 81.676733,16.0497302 81.676733,16.2379032 L81.676733,23.4919355 L78.2175704,23.4919355 L78.2175704,9.94354839 Z M88.2203157,16.7177419 C88.2203157,15.6451559 88.4172938,14.6713753 88.811256,13.796371 C89.2052182,12.9213666 89.7385004,12.1733902 90.4111187,11.5524194 C91.0837371,10.9314485 91.8812583,10.4516146 92.8037062,10.1129032 C93.7261542,9.77419185 94.7062405,9.60483871 95.7439945,9.60483871 C96.7817485,9.60483871 97.7618348,9.77419185 98.6842828,10.1129032 C99.6067308,10.4516146 100.404252,10.9314485 101.07687,11.5524194 C101.749489,12.1733902 102.282771,12.9213666 102.676733,13.796371 C103.070695,14.6713753 103.267673,15.6451559 103.267673,16.7177419 C103.267673,17.7903279 103.070695,18.7641085 102.676733,19.6391129 C102.282771,20.5141173 101.749489,21.2620937 101.07687,21.8830645 C100.404252,22.5040354 99.6067308,22.9838693 98.6842828,23.3225806 C97.7618348,23.661292 96.7817485,23.8306452 95.7439945,23.8306452 C94.7062405,23.8306452 93.7261542,23.661292 92.8037062,23.3225806 C91.8812583,22.9838693 91.0837371,22.5040354 90.4111187,21.8830645 C89.7385004,21.2620937 89.2052182,20.5141173 88.811256,19.6391129 C88.4172938,18.7641085 88.2203157,17.7903279 88.2203157,16.7177419 Z M91.6794784,16.7177419 C91.6794784,17.2446263 91.7707609,17.7526857 91.9533288,18.2419355 C92.1358966,18.7311852 92.4049399,19.1639766 92.7604667,19.5403226 C93.1159935,19.9166685 93.5435802,20.2177408 94.0432395,20.4435484 C94.5428989,20.669356 95.1098115,20.7822581 95.7439945,20.7822581 C96.3781775,20.7822581 96.9450902,20.669356 97.4447495,20.4435484 C97.9444088,20.2177408 98.3719955,19.9166685 98.7275223,19.5403226 C99.0830491,19.1639766 99.3520924,18.7311852 99.5346603,18.2419355 C99.7172281,17.7526857 99.8085106,17.2446263 99.8085106,16.7177419 C99.8085106,16.1908576 99.7172281,15.6827981 99.5346603,15.1935484 C99.3520924,14.7042986 99.0830491,14.2715073 98.7275223,13.8951613 C98.3719955,13.5188153 97.9444088,13.2177431 97.4447495,12.9919355 C96.9450902,12.7661279 96.3781775,12.6532258 95.7439945,12.6532258 C95.1098115,12.6532258 94.5428989,12.7661279 94.0432395,12.9919355 C93.5435802,13.2177431 93.1159935,13.5188153 92.7604667,13.8951613 C92.4049399,14.2715073 92.1358966,14.7042986 91.9533288,15.1935484 C91.7707609,15.6827981 91.6794784,16.1908576 91.6794784,16.7177419 Z M104.881949,12.8225806 L104.881949,9.94354839 L107.735758,9.94354839 L107.735758,6.02016129 L111.194921,6.02016129 L111.194921,9.94354839 L115,9.94354839 L115,12.8225806 L111.194921,12.8225806 L111.194921,18.75 C111.194921,19.4274227 111.324638,19.9637077 111.584077,20.358871 C111.843515,20.7540342 112.35758,20.9516129 113.126287,20.9516129 C113.43377,20.9516129 113.770074,20.9186831 114.135209,20.8528226 C114.500345,20.786962 114.788606,20.6787642 115,20.5282258 L115,23.3790323 C114.634864,23.5483879 114.18806,23.6659943 113.659574,23.7318548 C113.131089,23.7977154 112.665067,23.8306452 112.261496,23.8306452 C111.339048,23.8306452 110.584766,23.7318558 109.998627,23.5342742 C109.412488,23.3366926 108.951271,23.0356203 108.614962,22.6310484 C108.278653,22.2264765 108.048045,21.7231213 107.92313,21.1209677 C107.798215,20.5188142 107.735758,19.8225846 107.735758,19.0322581 L107.735758,12.8225806 L104.881949,12.8225806 Z" id="Carrot" fill="#373F4F"></path>
        </g>
    </g>
</svg>