<?xml version="1.0" encoding="UTF-8"?>
<svg width="32px" height="32px" viewBox="0 0 32 32" version="1.1" xmlns="http://www.w3.org/2000/svg" xmlns:xlink="http://www.w3.org/1999/xlink">
    <!-- Generator: Sketch 52.6 (67491) - http://www.bohemiancoding.com/sketch -->
    <title>Group</title>
    <desc>Created with Sketch.</desc>
    <g id="Megaflow" stroke="none" stroke-width="1" fill="none" fill-rule="evenodd">
        <g id="User-menu" transform="translate(-912.000000, -12.000000)">
            <g id="Group" transform="translate(912.000000, 12.000000)">
                <rect id="Rectangle" fill="#34414F" x="0" y="0" width="32" height="32" rx="4"></rect>
                <path d="M21.7803208,11.2803393 C22.0732192,10.9874512 22.0732274,10.5125775 21.7803393,10.2196792 C21.4874512,9.92678084 21.0125775,9.92677255 20.7196792,10.2196607 L16,14.9391752 L11.2803208,10.2196607 C10.9874225,9.92677255 10.5125488,9.92678084 10.2196607,10.2196792 C9.92677255,10.5125775 9.92678084,10.9874512 10.2196792,11.2803393 L14.9393213,15.9998169 L10.2196792,20.7192945 C9.92678084,21.0121826 9.92677255,21.4870563 10.2196607,21.7799546 C10.5125488,22.072853 10.9874225,22.0728612 11.2803208,21.7799731 L16,17.0604586 L20.7196792,21.7799731 C21.0125775,22.0728612 21.4874512,22.072853 21.7803393,21.7799546 C22.0732274,21.4870563 22.0732192,21.0121826 21.7803208,20.7192945 L17.0606787,15.9998169 L21.7803208,11.2803393 Z" id="Combined-Shape" fill="#FFFFFF" fill-rule="nonzero"></path>
            </g>
        </g>
    </g>
</svg>