<?xml version="1.0" encoding="UTF-8"?>
<svg width="23px" height="23px" viewBox="0 0 23 23" version="1.1" xmlns="http://www.w3.org/2000/svg" xmlns:xlink="http://www.w3.org/1999/xlink">
    <!-- Generator: Sketch 44.1 (41455) - http://www.bohemiancoding.com/sketch -->
    <title>Fill 40</title>
    <desc>Created with Sketch.</desc>
    <defs></defs>
    <g id="Page-1" stroke="none" stroke-width="1" fill="none" fill-rule="evenodd">
        <g id="Loader" transform="translate(-70.000000, -48.000000)" fill="#D6D6D6">
            <g id="Carrot" transform="translate(70.000000, 48.000000)">
                <path d="M19.1057555,0.575116507 C17.6151485,-0.120139533 15.9631873,-0.186991075 14.4520909,0.385258127 C12.8257414,1.00296638 11.5092947,2.3346491 10.8382655,4.0380264 L10.3209071,5.35901287 L9.11203001,4.69584557 C7.55227122,3.84014583 5.7235885,3.70376868 4.09467784,4.32147694 C2.58358148,4.8964002 1.3593373,6.05694297 0.647329188,7.59185438 C-0.889378979,10.9050168 0.404017061,15.0016793 3.53121818,16.7157529 C3.5414629,16.721101 3.55170762,16.7264491 3.55939116,16.7317972 L15.7506093,22.9062057 C15.9785543,23.0211903 16.22955,23.0265385 16.4472503,22.9436425 C16.6649506,22.8607466 16.854478,22.6896067 16.9569252,22.4462671 L22.5018805,9.53322317 C22.5070029,9.52520099 22.509564,9.51450474 22.5146864,9.50380849 C23.8541837,6.09170577 22.3251591,2.08596136 19.1057555,0.575116507" id="Fill-40"></path>
            </g>
        </g>
    </g>
</svg>