<?xml version="1.0" encoding="UTF-8"?>
<svg width="29px" height="51px" viewBox="0 0 29 51" version="1.1" xmlns="http://www.w3.org/2000/svg" xmlns:xlink="http://www.w3.org/1999/xlink">
    <!-- Generator: Sketch 52.5 (67469) - http://www.bohemiancoding.com/sketch -->
    <title>Carrot</title>
    <desc>Created with Sketch.</desc>
    <g id="Website" stroke="none" stroke-width="1" fill="none" fill-rule="evenodd">
        <g id="Pricing-(Dec.-20)" transform="translate(-1240.000000, -711.000000)" fill="#314150">
            <g id="Group-5" transform="translate(1063.000000, 558.000000)">
                <g id="Group-6" transform="translate(141.000000, 128.000000)">
                    <g id="Carrot" transform="translate(36.000000, 25.000000)">
                        <g id="Group-3">
                            <path d="M10.3380486,0.301250213 C9.53163076,-0.062757008 8.63773233,-0.0981077093 7.82055295,0.201848241 C6.93949889,0.52490465 6.2271573,1.22036845 5.86543219,2.1104361 L5.58528616,2.8006498 L4.92987636,2.4530929 C4.08596681,2.00613403 3.0966035,1.93508263 2.21589658,2.25848904 C1.3987172,2.55844499 0.736017353,3.16500702 0.350339234,3.96687293 C-0.481420237,5.69870729 0.218771271,7.83794973 1.91179754,8.73536753 C1.91631043,8.73781758 1.92117046,8.74026763 1.92603049,8.74271768 L8.52213304,11.9680317 C8.64606381,12.0285829 8.78145037,12.0320829 8.89947968,11.9886821 C9.01785613,11.9456312 9.11887533,11.8549794 9.17545997,11.7282769 L12.1751401,4.98154306 C12.1775701,4.97664296 12.179653,4.97139286 12.1817359,4.96649276 C12.9069218,3.18250737 12.0800224,1.09016586 10.3380486,0.301250213" id="Fill-2"></path>
                            <path d="M15.0244463,11.860738 C15.0244463,11.860738 12.6891736,12.1297157 10.41208,12.9574206 C8.13463375,13.7847734 6.17276492,15.0775562 6.17276492,15.0775562 C-0.799203514,18.9097842 -2.04599866,26.8206857 3.35830823,32.6649653 L17.0762282,47.5006341 C22.4752461,53.3396328 27.1673001,51.6419752 27.5445826,43.6962193 L28.207824,29.7319115 L21.1138558,32.3132524 C21.1138558,32.3132524 26.4095618,26.9220804 27.4881665,23.1021747 C28.2444945,20.4240159 27.6926748,18.3443678 27.2952941,17.3402783 C25.1846279,13.0993028 20.5507529,10.7992619 15.0244463,11.860738 Z" id="Fill-4"></path>
                        </g>
                    </g>
                </g>
            </g>
        </g>
    </g>
</svg>