<?xml version="1.0" encoding="UTF-8"?>
<svg width="45px" height="80px" viewBox="0 0 45 80" version="1.1" xmlns="http://www.w3.org/2000/svg" xmlns:xlink="http://www.w3.org/1999/xlink">
    <!-- Generator: Sketch 49.3 (51167) - http://www.bohemiancoding.com/sketch -->
    <title>Carrot</title>
    <desc>Created with Sketch.</desc>
    <defs></defs>
    <g id="👋-Onboarding" stroke="none" stroke-width="1" fill="none" fill-rule="evenodd">
        <g id="5:-Done:-Welcome" transform="translate(-618.000000, -224.000000)">
            <g id="Carrot" transform="translate(618.000000, 224.000000)">
                <path d="M16.2092445,0.472805856 C14.9448449,-0.0984958004 13.5432827,-0.15397798 12.2620099,0.316796557 C10.8805867,0.823826777 9.76369129,1.91534254 9.19653486,3.31228495 L8.75728798,4.39556078 L7.72965713,3.85007757 C6.40647355,3.14858505 4.85522995,3.03707137 3.47435099,3.54465091 C2.1930782,4.01542545 1.15401713,4.96741177 0.549304276,6.2259234 C-0.754828945,8.94400089 0.343016091,12.3014968 2.99754769,13.7099751 C3.00462354,13.7138204 3.01224368,13.7176657 3.01986383,13.721511 L13.3620322,18.7835733 C13.5563458,18.8786071 13.7686213,18.8841004 13.9536819,18.8159836 C14.1392868,18.7484162 14.297677,18.6061402 14.3863972,18.4072832 L19.089659,7.81842676 C19.0934691,7.81073617 19.0967348,7.80249624 19.1000006,7.79480564 C20.237035,4.9948782 18.9405219,1.71099233 16.2092445,0.472805856" id="Fill-2" fill="#52DE96"></path>
                <path d="M42.7968674,27.215201 C39.4875093,20.5590794 32.221959,16.9492137 23.5571463,18.6151781 C23.5571463,18.6151781 19.8956229,19.0373329 16.3253198,20.3363983 C12.7544638,21.6349111 9.67840833,23.6639065 9.67840833,23.6639065 C-1.25308805,29.6785075 -3.20796445,42.0945005 5.26556232,51.2669741 L26.7741784,74.5512433 C35.2394125,83.7154286 42.5961829,81.0509908 43.1877321,68.5802945 L44.2276423,46.663608 L33.1048599,50.714968 C33.1048599,50.714968 41.408109,42.2536374 43.0992761,36.2583759 C44.2851386,32.0550623 43.4199289,28.7910983 42.7968674,27.215201" id="Fill-4" fill="#FA6452"></path>
            </g>
        </g>
    </g>
</svg>