<?xml version="1.0" encoding="UTF-8"?>
<svg width="99px" height="24px" viewBox="0 0 99 24" version="1.1" xmlns="http://www.w3.org/2000/svg" xmlns:xlink="http://www.w3.org/1999/xlink">
    <!-- Generator: Sketch 47.1 (45422) - http://www.bohemiancoding.com/sketch -->
    <title>Group 7</title>
    <desc>Created with Sketch.</desc>
    <defs></defs>
    <g id="Symbols" stroke="none" stroke-width="1" fill="none" fill-rule="evenodd" opacity="0.400000006">
        <g id="asd" fill="#373F4F">
            <g id="Group-7">
                <g id="Carrot">
                    <g id="Group-3">
                        <path d="M4.77140707,0.13903856 C4.3992142,-0.0289647729 3.98664569,-0.0452804812 3.60948598,0.0931607267 C3.20284564,0.242263685 2.8740726,0.563246975 2.70712255,0.974047433 L2.57782438,1.2926076 L2.27532755,1.13219672 C1.88583084,0.925908016 1.42920162,0.893115058 1.0227215,1.04237956 C0.645561784,1.18082077 0.339700317,1.46077247 0.161695031,1.83086443 C-0.222193956,2.63017259 0.100971356,3.61751526 0.882368096,4.03170809 C0.884450966,4.03283888 0.886694057,4.03396967 0.888937148,4.03510047 L3.93329217,5.52370692 C3.99049099,5.55165363 4.05297709,5.55326904 4.10745216,5.53323788 C4.16208744,5.51336825 4.20871169,5.47152896 4.23482768,5.41305088 L5.61929543,2.29917372 C5.62041698,2.29691214 5.6213783,2.29448901 5.62233963,2.29222743 C5.95704083,1.46884956 5.57539494,0.503153476 4.77140707,0.13903856" id="Fill-2"></path>
                        <path d="M6.93435982,5.47418675 C6.93435982,5.47418675 5.85654166,5.5983303 4.80557537,5.98034795 C3.75444635,6.36220311 2.84896842,6.95887211 2.84896842,6.95887211 C-0.36886316,8.72759271 -0.944307073,12.378778 1.54998842,15.0761379 L7.8813361,21.9233696 C10.3731905,24.6182921 12.5387539,23.8347578 12.7128843,20.1674858 L13.0189957,13.7224207 L9.74485653,14.9138088 C9.74485653,14.9138088 12.1890285,12.4255756 12.6868461,10.6625422 C13.0359205,9.4264689 12.7812345,8.46663127 12.597828,8.00320535 C11.6236744,6.04583205 9.48496289,4.98427471 6.93435982,5.47418675 Z" id="Fill-4"></path>
                    </g>
                </g>
                <path d="M39.4013127,6.94468085 C38.7584883,6.25309552 38.1362766,5.79204556 37.5346589,5.56151711 C36.9330411,5.33098867 36.3273118,5.21572618 35.7174528,5.21572618 C34.8109055,5.21572618 33.9909046,5.37627036 33.2574254,5.69736355 C32.5239463,6.01845674 31.8934933,6.46304064 31.3660477,7.03112858 C30.838602,7.59921653 30.4306618,8.26197586 30.142215,9.01942646 C29.8537681,9.77687705 29.7095469,10.5919475 29.7095469,11.4646623 C29.7095469,12.4032424 29.8537681,13.2677111 30.142215,14.0580944 C30.4306618,14.8484776 30.838602,15.5318195 31.3660477,16.1081406 C31.8934933,16.6844617 32.5239463,17.1372786 33.2574254,17.466605 C33.9909046,17.7959313 34.8109055,17.960592 35.7174528,17.960592 C36.4262079,17.960592 37.1143493,17.7918148 37.7818978,17.4542553 C38.4494462,17.1166958 39.071658,16.577432 39.6485517,15.8364477 L42.2198365,17.6641998 C41.428668,18.7509768 40.4644458,19.5413481 39.3271411,20.0353377 C38.1898363,20.5293272 36.9783777,20.7763182 35.6927289,20.7763182 C34.3411493,20.7763182 33.1008464,20.5581428 31.971783,20.1217854 C30.8427196,19.685428 29.8702562,19.0679503 29.0543637,18.269334 C28.2384712,17.4707176 27.599777,16.511569 27.138262,15.3918594 C26.6767471,14.2721498 26.445993,13.0289615 26.445993,11.6622572 C26.445993,10.2626202 26.6767471,8.99061627 27.138262,7.84620722 C27.599777,6.70179816 28.2384712,5.7261835 29.0543637,4.91933395 C29.8702562,4.1124844 30.8427196,3.49089025 31.971783,3.05453284 C33.1008464,2.61817543 34.3411493,2.4 35.6927289,2.4 C36.8794816,2.4 37.9796839,2.6099424 38.9933685,3.02983349 C40.0070532,3.44972458 40.9506723,4.16188212 41.8242542,5.16632747 L39.4013127,6.94468085 Z M51.4665723,18.7015726 L51.3924007,18.7015726 C50.963851,19.3766916 50.4199308,19.8665572 49.7606237,20.1711841 C49.1013166,20.475811 48.3760897,20.6281221 47.5849212,20.6281221 C47.0409928,20.6281221 46.5094345,20.5540248 45.9902301,20.4058279 C45.4710258,20.2576311 45.0095177,20.0353391 44.6056921,19.7389454 C44.2018665,19.4425517 43.8763385,19.0720651 43.6290984,18.6274746 C43.3818582,18.182884 43.25824,17.6642028 43.25824,17.0714154 C43.25824,16.429229 43.373617,15.8817321 43.6043745,15.4289084 C43.835132,14.9760847 44.1441775,14.5973651 44.5315205,14.2927382 C44.9188634,13.9881113 45.3680096,13.7452368 45.8789726,13.5641073 C46.3899356,13.3829778 46.921494,13.2471327 47.4736637,13.156568 C48.0258334,13.0660032 48.5821154,13.008372 49.1425264,12.9836725 C49.7029375,12.958973 50.2303752,12.9466235 50.7248556,12.9466235 L51.4665723,12.9466235 L51.4665723,12.6255319 C51.4665723,11.8845476 51.2110947,11.3288178 50.7001317,10.9583256 C50.1891687,10.5878335 49.5381127,10.4025902 48.7469441,10.4025902 C48.1206024,10.4025902 47.5354761,10.5137362 46.9915478,10.7360315 C46.4476194,10.9583267 45.9778702,11.2588325 45.5822859,11.6375578 L44.0246807,10.0814986 C44.6839878,9.4063796 45.4545414,8.92063053 46.3363646,8.62423682 C47.2181879,8.32784311 48.1288421,8.17964847 49.0683548,8.17964847 C49.9089713,8.17964847 50.6177158,8.27432838 51.1946095,8.46369103 C51.7715032,8.65305368 52.2494937,8.89592821 52.6285953,9.19232192 C53.0076969,9.48871564 53.30026,9.83038659 53.5062935,10.2173451 C53.7123269,10.6043035 53.8606688,10.9953727 53.9513235,11.3905643 C54.0419783,11.7857559 54.0955462,12.168592 54.1120288,12.5390842 C54.1285115,12.9095763 54.1367527,13.2347812 54.1367527,13.5147086 L54.1367527,20.3317299 L51.4665723,20.3317299 L51.4665723,18.7015726 Z M51.2935051,15.0213691 L50.6754078,15.0213691 C50.2633408,15.0213691 49.8018328,15.0378352 49.2908698,15.0707678 C48.7799068,15.1037004 48.2977957,15.1819143 47.8445221,15.3054117 C47.3912484,15.428909 47.0080319,15.6100358 46.6948611,15.8487974 C46.3816902,16.087559 46.2251071,16.4209969 46.2251071,16.8491212 C46.2251071,17.1290486 46.2869162,17.3636901 46.4105363,17.5530527 C46.5341564,17.7424154 46.6948601,17.9029596 46.8926522,18.0346901 C47.0904443,18.1664206 47.3129571,18.2611005 47.5601973,18.3187327 C47.8074375,18.3763648 48.0546739,18.4051804 48.3019141,18.4051804 C49.3238401,18.4051804 50.0779113,18.1623059 50.5641503,17.6765495 C51.0503892,17.1907931 51.2935051,16.5280338 51.2935051,15.6882516 L51.2935051,15.0213691 Z M57.3261349,8.4760407 L60.293002,8.4760407 L60.293002,10.3531915 L60.3424498,10.3531915 C60.6721033,9.66160616 61.1418526,9.12645888 61.7517117,8.74773358 C62.3615707,8.36900828 63.062074,8.17964847 63.8532425,8.17964847 C64.034552,8.17964847 64.2117381,8.19611454 64.3848062,8.22904718 C64.5578743,8.26197981 64.7350605,8.30314499 64.9163699,8.35254394 L64.9163699,11.2176688 C64.6691297,11.1518036 64.4260139,11.0982888 64.1870151,11.057123 C63.9480162,11.0159572 63.7131416,10.9953747 63.4823841,10.9953747 C62.7901117,10.9953747 62.2338297,11.1229867 61.8135214,11.3782146 C61.3932131,11.6334425 61.0718057,11.9257153 60.8492896,12.2550416 C60.6267734,12.584368 60.4784316,12.9136894 60.4042595,13.2430157 C60.3300875,13.5723421 60.293002,13.8193331 60.293002,13.9839963 L60.293002,20.3317299 L57.3261349,20.3317299 L57.3261349,8.4760407 Z M66.9437291,8.4760407 L69.9105962,8.4760407 L69.9105962,10.3531915 L69.960044,10.3531915 C70.2896975,9.66160616 70.7594468,9.12645888 71.3693059,8.74773358 C71.9791649,8.36900828 72.6796682,8.17964847 73.4708367,8.17964847 C73.6521462,8.17964847 73.8293323,8.19611454 74.0024004,8.22904718 C74.1754685,8.26197981 74.3526547,8.30314499 74.5339641,8.35254394 L74.5339641,11.2176688 C74.286724,11.1518036 74.0436081,11.0982888 73.8046093,11.057123 C73.5656105,11.0159572 73.3307358,10.9953747 73.0999784,10.9953747 C72.4077059,10.9953747 71.8514239,11.1229867 71.4311156,11.3782146 C71.0108073,11.6334425 70.6893999,11.9257153 70.4668838,12.2550416 C70.2443676,12.584368 70.0960258,12.9136894 70.0218537,13.2430157 C69.9476817,13.5723421 69.9105962,13.8193331 69.9105962,13.9839963 L69.9105962,20.3317299 L66.9437291,20.3317299 L66.9437291,8.4760407 Z M75.5229198,14.4038853 C75.5229198,13.4653052 75.6918647,12.6131861 76.0297596,11.8475023 C76.3676545,11.0818186 76.825042,10.4272923 77.4019357,9.88390379 C77.9788294,9.34051532 78.6628502,8.92063053 79.4540187,8.62423682 C80.2451873,8.32784311 81.0857912,8.17964847 81.9758558,8.17964847 C82.8659204,8.17964847 83.7065243,8.32784311 84.4976928,8.62423682 C85.2888614,8.92063053 85.9728822,9.34051532 86.5497759,9.88390379 C87.1266696,10.4272923 87.5840571,11.0818186 87.921952,11.8475023 C88.2598468,12.6131861 88.4287918,13.4653052 88.4287918,14.4038853 C88.4287918,15.3424654 88.2598468,16.1945845 87.921952,16.9602683 C87.5840571,17.725952 87.1266696,18.3804783 86.5497759,18.9238668 C85.9728822,19.4672553 85.2888614,19.8871401 84.4976928,20.1835338 C83.7065243,20.4799275 82.8659204,20.6281221 81.9758558,20.6281221 C81.0857912,20.6281221 80.2451873,20.4799275 79.4540187,20.1835338 C78.6628502,19.8871401 77.9788294,19.4672553 77.4019357,18.9238668 C76.825042,18.3804783 76.3676545,17.725952 76.0297596,16.9602683 C75.6918647,16.1945845 75.5229198,15.3424654 75.5229198,14.4038853 Z M78.4897869,14.4038853 C78.4897869,14.8649422 78.5680785,15.3095261 78.7246639,15.7376503 C78.8812494,16.1657746 79.1120034,16.5444942 79.4169329,16.8738205 C79.7218624,17.2031469 80.0885965,17.466604 80.5171461,17.6641998 C80.9456957,17.8617956 81.4319274,17.960592 81.9758558,17.960592 C82.5197841,17.960592 83.0060158,17.8617956 83.4345655,17.6641998 C83.8631151,17.466604 84.2298491,17.2031469 84.5347787,16.8738205 C84.8397082,16.5444942 85.0704622,16.1657746 85.2270477,15.7376503 C85.3836331,15.3095261 85.4619246,14.8649422 85.4619246,14.4038853 C85.4619246,13.9428284 85.3836331,13.4982445 85.2270477,13.0701203 C85.0704622,12.641996 84.8397082,12.2632764 84.5347787,11.93395 C84.2298491,11.6046237 83.8631151,11.3411666 83.4345655,11.1435708 C83.0060158,10.945975 82.5197841,10.8471785 81.9758558,10.8471785 C81.4319274,10.8471785 80.9456957,10.945975 80.5171461,11.1435708 C80.0885965,11.3411666 79.7218624,11.6046237 79.4169329,11.93395 C79.1120034,12.2632764 78.8812494,12.641996 78.7246639,13.0701203 C78.5680785,13.4982445 78.4897869,13.9428284 78.4897869,14.4038853 Z M89.8133297,10.9953747 L89.8133297,8.4760407 L92.2609951,8.4760407 L92.2609951,5.04283071 L95.2278622,5.04283071 L95.2278622,8.4760407 L98.491416,8.4760407 L98.491416,10.9953747 L95.2278622,10.9953747 L95.2278622,16.1822387 C95.2278622,16.7750261 95.3391186,17.2443091 95.5616348,17.5901018 C95.7841509,17.9358944 96.2250559,18.1087882 96.884363,18.1087882 C97.1480859,18.1087882 97.4365284,18.0799725 97.7496993,18.0223404 C98.0628701,17.9647083 98.3101066,17.8700284 98.491416,17.7382979 L98.491416,20.2329325 C98.1782452,20.3811293 97.7950287,20.4840423 97.341755,20.5416744 C96.8884814,20.5993065 96.4887825,20.6281221 96.1426462,20.6281221 C95.3514777,20.6281221 94.7045423,20.5416752 94.2018207,20.3687789 C93.699099,20.1958826 93.3035207,19.9324255 93.0150738,19.5783996 C92.726627,19.2243738 92.5288378,18.7839064 92.4217004,18.2569843 C92.314563,17.7300621 92.2609951,17.1208175 92.2609951,16.4292322 L92.2609951,10.9953747 L89.8133297,10.9953747 Z" id="Carrot"></path>
            </g>
        </g>
    </g>
</svg>