<?xml version="1.0" encoding="UTF-8"?>
<svg width="338px" height="189px" viewBox="0 0 338 189" version="1.1" xmlns="http://www.w3.org/2000/svg" xmlns:xlink="http://www.w3.org/1999/xlink">
    <!-- Generator: Sketch 45.1 (43504) - http://www.bohemiancoding.com/sketch -->
    <title>404</title>
    <desc>Created with Sketch.</desc>
    <defs></defs>
    <g id="404" stroke="none" stroke-width="1" fill="none" fill-rule="evenodd">
        <g id="Error,-desktop,-marketing-site" transform="translate(-531.000000, -232.000000)">
            <g id="Illustration" transform="translate(531.000000, 232.000000)">
                <g id="404">
                    <path d="M259.737693,88.6557377 C254.28398,44.922832 216.980693,11.0819672 171.770423,11.0819672 C126.560845,11.0819672 89.2568652,44.922832 83.803152,88.6557377 L83.1146848,88.6557377 L83.1146848,99.7377049 C83.1146848,148.700607 122.807521,188.393443 171.770423,188.393443 C220.734017,188.393443 260.42616,148.700607 260.42616,99.7377049 L260.42616,88.6557377 L259.737693,88.6557377 Z" id="Plate-Shadow" fill="#F3F2EE"></path>
                    <g id="4s" transform="translate(0.000000, 36.709016)">
                        <path d="M49.2249209,31.3344008 L48.9063143,31.3344008 L23.8956996,70.2044008 L49.2249209,70.2044008 L49.2249209,31.3344008 Z M49.2249209,90.2766139 L0.000207786885,90.2766139 L0.000207786885,70.2044008 L46.0388553,0.110958197 L72.164593,0.110958197 L72.164593,70.2044008 L86.6611914,70.2044008 L86.6611914,90.2766139 L72.164593,90.2766139 L72.164593,112.89768 L49.2249209,112.89768 L49.2249209,90.2766139 Z" id="Fill-4" fill="#D6D6D6"></path>
                        <path d="M300.563868,31.3344008 L300.245261,31.3344008 L275.234647,70.2044008 L300.563868,70.2044008 L300.563868,31.3344008 Z M300.563868,90.2766139 L251.339155,90.2766139 L251.339155,70.2044008 L297.377802,0.110958197 L323.50354,0.110958197 L323.50354,70.2044008 L338.000139,70.2044008 L338.000139,90.2766139 L323.50354,90.2766139 L323.50354,112.89768 L300.563868,112.89768 L300.563868,90.2766139 Z" id="Fill-6" fill="#D6D6D6"></path>
                        <path d="M251.338947,70.2045393 L251.338947,90.2760598 L256.153369,90.2760598 C258.923168,81.6909984 260.42616,72.5359082 260.42616,63.0289656 L260.42616,56.3687033 L251.338947,70.2045393 Z" id="Fill-8" fill="#BCBCBB"></path>
                        <path d="M86.6610529,87.915116 L86.6610529,70.2047471 L83.4050324,70.2047471 C83.8933316,76.3032922 85.0008357,82.2266037 86.6610529,87.915116" id="Fill-10" fill="#BCBCBB"></path>
                    </g>
                    <g id="Plate" transform="translate(83.114754, 0.000000)">
                        <path d="M0,88.6557377 C0,39.6928361 39.6928361,0 88.6557377,0 C137.618639,0 177.311475,39.6928361 177.311475,88.6557377 C177.311475,137.618639 137.618639,177.311475 88.6557377,177.311475 C39.6928361,177.311475 0,137.618639 0,88.6557377" id="Fill-12" fill="#FFFFFF"></path>
                        <path d="M88.6557377,44.3278689 C115.267697,44.3278689 137.006361,65.1737418 138.444246,91.4262295 C138.494807,90.5091967 138.52459,89.5859303 138.52459,88.6557377 C138.52459,61.1135861 116.197889,38.7868852 88.6557377,38.7868852 C61.1135861,38.7868852 38.7868852,61.1135861 38.7868852,88.6557377 C38.7868852,89.5859303 38.816668,90.5091967 38.8672295,91.4262295 C40.3051148,65.1737418 62.0437787,44.3278689 88.6557377,44.3278689" id="Fill-14" fill="#F3F2EE"></path>
                    </g>
                    <g id="Carrot" transform="translate(137.139344, 33.938525)">
                        <path d="M5.70194918,28.3332656 C5.71510902,28.3401918 5.72757623,28.347118 5.74142869,28.3533516 L23.6207975,37.0242984 C23.9574123,37.1877574 24.3238098,37.1974541 24.6444943,37.0804008 C24.9644861,36.9640402 25.2387648,36.7209295 25.3918344,36.380159 L33.5232279,18.2417492 C33.5294615,18.2278967 33.5356951,18.2147369 33.5405434,18.2008844 C35.5062074,13.4051631 33.2648795,7.77967951 28.5432689,5.65886803 C26.3573508,4.67949918 23.9338631,4.58460984 21.7188549,5.39082295 C19.3313836,6.26006475 17.3996582,8.13014672 16.4189041,10.5224664 L15.6597893,12.3780033 L13.8839041,11.4443475 C11.5961705,10.2426467 8.91433443,10.0507902 6.52617049,10.920032 C4.3111623,11.7262451 2.51519098,13.3573721 1.46933033,15.5128148 C-0.785157377,20.1700115 1.11332213,25.9215525 5.70194918,28.3332656" id="Fill-16" fill="#F3F2EE"></path>
                        <path d="M72.9553607,51.705273 C67.3222582,40.3698057 54.9554754,34.222777 40.2074549,37.059068 C40.2074549,37.059068 33.9752336,37.7787033 27.8974672,39.990941 C21.8203934,42.2024861 16.5834713,45.657982 16.5834713,45.657982 C4.21461066,52.4671582 -1.39217213,64.0942197 0.469598361,75.7136623 C2.17760656,74.2688508 4.20352869,73.1447238 6.48641393,72.470109 C9.32893852,71.63065 12.2171762,71.5897852 14.9128648,72.2103754 C16.4366352,66.946441 20.5258811,62.5434369 26.1714508,60.8749082 C30.2551557,59.668359 34.4330574,60.1054041 37.999373,61.7967893 C40.0737787,58.4389533 43.342959,55.8007525 47.4273566,54.5942033 C53.0729262,52.9263672 58.8971926,54.3988836 63.0383852,57.989441 C64.963877,56.0023057 67.4095287,54.4667607 70.2527459,53.626609 C71.3048402,53.3156213 72.3638607,53.1168385 73.4180328,53.0177934 C73.2621926,52.5274164 73.1049672,52.0848303 72.9553607,51.705273" id="Fill-18" fill="#F3F2EE"></path>
                        <path d="M56.795082,70.172748 C53.7350738,70.172748 51.2540984,72.6530307 51.2540984,75.7137316 C51.2540984,78.7737398 53.7350738,81.2547152 56.795082,81.2547152 C59.8550902,81.2547152 62.3360656,78.7737398 62.3360656,75.7137316 C62.3360656,72.6530307 59.8550902,70.172748 56.795082,70.172748" id="Fill-20" fill="#F3F2EE"></path>
                        <path d="M51.2540984,93.9592902 C49.0903443,93.9592902 47.3359303,95.7130115 47.3359303,97.8774582 C47.3359303,100.041212 49.0903443,101.794934 51.2540984,101.794934 C53.4178525,101.794934 55.1722664,100.041212 55.1722664,97.8774582 C55.1722664,95.7130115 53.4178525,93.9592902 51.2540984,93.9592902" id="Fill-22" fill="#F3F2EE"></path>
                        <path d="M29.0901639,72.5752492 C27.3572213,72.5752492 25.952582,73.9798885 25.952582,75.7135238 C25.952582,77.4464664 27.3572213,78.8511057 29.0901639,78.8511057 C30.8231066,78.8511057 32.2277459,77.4464664 32.2277459,75.7135238 C32.2277459,73.9798885 30.8231066,72.5752492 29.0901639,72.5752492" id="Fill-24" fill="#F3F2EE"></path>
                        <path d="M28.5429918,1.2855082 C26.3577664,0.306139344 23.9342787,0.21125 21.7185779,1.01746311 C19.3311066,1.88670492 17.3993811,3.75678689 16.4193197,6.14910656 L15.6595123,8.00464344 L13.8843197,7.0709877 C11.5958934,5.86928689 8.91405738,5.67812295 6.52658607,6.54736475 C4.31157787,7.35357787 2.51560656,8.98470492 1.46905328,11.1401475 C-0.785434426,15.7973443 1.11304508,21.5481926 5.70167213,23.9605984 C5.71483197,23.966832 5.72868443,23.9737582 5.74115164,23.9799918 L23.6212131,32.6516311 C23.9578279,32.8143975 24.3235328,32.8240943 24.6442172,32.7077336 C24.964209,32.5906803 25.2384877,32.3475697 25.3915574,32.0074918 L33.5229508,13.8683893 C33.5291844,13.8552295 33.535418,13.8406844 33.540959,13.8275246 C35.506623,9.03180328 33.2646025,3.40631967 28.5429918,1.2855082" id="Fill-26" fill="#52DE96"></path>
                        <path d="M6.48655246,68.0968877 C9.32907705,67.2567361 12.2166221,67.2165639 14.9130033,67.8378467 C16.4367738,62.572527 20.5260197,58.1702156 26.1715893,56.5023795 C30.2546016,55.2958303 34.4331959,55.7321828 37.9995115,57.4242607 C40.0739172,54.0650393 43.3430975,51.4282238 47.4268025,50.220982 C53.0730648,48.5524533 58.8973311,50.0256623 63.0378311,53.6162197 C64.9640156,51.629777 67.4096672,50.094232 70.2521918,49.2540803 C71.3049787,48.9430926 72.3639992,48.7436172 73.4181713,48.6438795 C73.2623311,48.1541951 73.1051057,47.7109164 72.9554992,47.3327443 C67.3223967,35.9965844 54.9556139,29.8488631 40.2075934,32.6865393 C40.2075934,32.6865393 33.9753721,33.405482 27.8976057,35.617027 C21.820532,37.8292648 16.5836098,41.284068 16.5836098,41.284068 C4.21474918,48.0939369 -1.39203361,59.7209984 0.469044262,71.340441 C2.17705246,69.8956295 4.20366721,68.7715025 6.48655246,68.0968877" id="Fill-28" fill="#FA6452"></path>
                        <path d="M51.2540984,71.3401639 C51.2540984,68.2801557 53.7350738,65.7991803 56.795082,65.7991803 C59.8550902,65.7991803 62.3360656,68.2801557 62.3360656,71.3401639 C62.3360656,74.4001721 59.8550902,76.8811475 56.795082,76.8811475 C53.7350738,76.8811475 51.2540984,74.4001721 51.2540984,71.3401639" id="Fill-30" fill="#FA6452"></path>
                        <path d="M47.3357918,93.5040984 C47.3357918,91.3403443 49.0902057,89.5859303 51.2539598,89.5859303 C53.4177139,89.5859303 55.1721279,91.3403443 55.1721279,93.5040984 C55.1721279,95.6678525 53.4177139,97.4222664 51.2539598,97.4222664 C49.0902057,97.4222664 47.3357918,95.6678525 47.3357918,93.5040984" id="Fill-32" fill="#FA6452"></path>
                        <path d="M25.9523742,71.3401639 C25.9523742,69.6072213 27.3570135,68.202582 29.0899561,68.202582 C30.8228988,68.202582 32.2282307,69.6072213 32.2282307,71.3401639 C32.2282307,73.0731066 30.8228988,74.4777459 29.0899561,74.4777459 C27.3570135,74.4777459 25.9523742,73.0731066 25.9523742,71.3401639" id="Fill-34" fill="#FA6452"></path>
                    </g>
                </g>
            </g>
        </g>
    </g>
</svg>