<?xml version="1.0" encoding="UTF-8"?>
<svg width="10px" height="10px" viewBox="0 0 10 10" version="1.1" xmlns="http://www.w3.org/2000/svg" xmlns:xlink="http://www.w3.org/1999/xlink">
    <!-- Generator: Sketch 52.6 (67491) - http://www.bohemiancoding.com/sketch -->
    <title>Combined Shape</title>
    <desc>Created with Sketch.</desc>
    <g id="Polls" stroke="none" stroke-width="1" fill="none" fill-rule="evenodd">
        <g id="Poll:-Blank-poll-Copy" transform="translate(-915.000000, -426.000000)" fill="#34414F" fill-rule="nonzero" stroke="#34414F" stroke-width="0.5">
            <g id="Group-14-Copy" transform="translate(344.000000, 389.000000)">
                <g id="Group-5" transform="translate(0.000000, 26.000000)">
                    <path d="M579.853547,12.8535596 C580.048813,12.6583008 580.048818,12.3417183 579.85356,12.1464528 C579.658301,11.9511872 579.341718,11.9511817 579.146453,12.1464404 L576,15.2927835 L572.853547,12.1464404 C572.658282,11.9511817 572.341699,11.9511872 572.14644,12.1464528 C571.951182,12.3417183 571.951187,12.6583008 572.146453,12.8535596 L575.292881,15.9998779 L572.146453,19.1461963 C571.951187,19.341455 571.951182,19.6580375 572.14644,19.8533031 C572.341699,20.0485686 572.658282,20.0485742 572.853547,19.8533154 L576,16.7069724 L579.146453,19.8533154 C579.341718,20.0485742 579.658301,20.0485686 579.85356,19.8533031 C580.048818,19.6580375 580.048813,19.341455 579.853547,19.1461963 L576.707119,15.9998779 L579.853547,12.8535596 Z" id="Combined-Shape"></path>
                </g>
            </g>
        </g>
    </g>
</svg>