<?xml version="1.0" encoding="UTF-8"?>
<svg width="12px" height="12px" viewBox="0 0 12 12" version="1.1" xmlns="http://www.w3.org/2000/svg" xmlns:xlink="http://www.w3.org/1999/xlink">
    <!-- Generator: Sketch 52.6 (67491) - http://www.bohemiancoding.com/sketch -->
    <title>Combined Shape</title>
    <desc>Created with Sketch.</desc>
    <g id="Quick-post" stroke="none" stroke-width="1" fill="none" fill-rule="evenodd">
        <g id="Quick-post:-expanded" transform="translate(-398.000000, -266.000000)" fill="#34414F" fill-rule="nonzero">
            <g id="Group-18" transform="translate(388.000000, 256.000000)">
                <g id="Group-30">
                    <g id="Group-17">
                        <path d="M19.4393398,11.5 L16.75,11.5 C16.3357864,11.5 16,11.1642136 16,10.75 C16,10.3357864 16.3357864,10 16.75,10 L21.25,10 C21.6642136,10 22,10.3357864 22,10.75 L22,15.25 C22,15.6642136 21.6642136,16 21.25,16 C20.8357864,16 20.5,15.6642136 20.5,15.25 L20.5,12.5606602 L12.5606602,20.5 L15.25,20.5 C15.6642136,20.5 16,20.8357864 16,21.25 C16,21.6642136 15.6642136,22 15.25,22 L10.75,22 C10.3357864,22 10,21.6642136 10,21.25 L10,16.75 C10,16.3357864 10.3357864,16 10.75,16 C11.1642136,16 11.5,16.3357864 11.5,16.75 L11.5,19.4393398 L19.4393398,11.5 Z" id="Combined-Shape"></path>
                    </g>
                </g>
            </g>
        </g>
    </g>
</svg>