<?xml version="1.0" encoding="UTF-8"?>
<svg width="12px" height="12px" viewBox="0 0 12 12" version="1.1" xmlns="http://www.w3.org/2000/svg" xmlns:xlink="http://www.w3.org/1999/xlink">
    <!-- Generator: Sketch 52.6 (67491) - http://www.bohemiancoding.com/sketch -->
    <title>Combined Shape</title>
    <desc>Created with Sketch.</desc>
    <g id="Post-authoring" stroke="none" stroke-width="1" fill="none" fill-rule="evenodd">
        <g id="Alt-compose-(cmail-section-picker)-Copy" transform="translate(-1202.000000, -318.000000)" fill="#FFFFFF" fill-rule="nonzero">
            <g id="Group-11" transform="translate(632.000000, 296.000000)">
                <g id="Group-14" transform="translate(520.000000, 12.000000)">
                    <path d="M61.7803208,11.2803393 C62.0732192,10.9874512 62.0732274,10.5125775 61.7803393,10.2196792 C61.4874512,9.92678084 61.0125775,9.92677255 60.7196792,10.2196607 L56,14.9391752 L51.2803208,10.2196607 C50.9874225,9.92677255 50.5125488,9.92678084 50.2196607,10.2196792 C49.9267726,10.5125775 49.9267808,10.9874512 50.2196792,11.2803393 L54.9393213,15.9998169 L50.2196792,20.7192945 C49.9267808,21.0121826 49.9267726,21.4870563 50.2196607,21.7799546 C50.5125488,22.072853 50.9874225,22.0728612 51.2803208,21.7799731 L56,17.0604586 L60.7196792,21.7799731 C61.0125775,22.0728612 61.4874512,22.072853 61.7803393,21.7799546 C62.0732274,21.4870563 62.0732192,21.0121826 61.7803208,20.7192945 L57.0606787,15.9998169 L61.7803208,11.2803393 Z" id="Combined-Shape"></path>
                </g>
            </g>
        </g>
    </g>
</svg>