<?xml version="1.0" encoding="UTF-8"?>
<svg width="12px" height="14px" viewBox="0 0 12 14" version="1.1" xmlns="http://www.w3.org/2000/svg" xmlns:xlink="http://www.w3.org/1999/xlink">
    <!-- Generator: Sketch 52.6 (67491) - http://www.bohemiancoding.com/sketch -->
    <title>Combined Shape</title>
    <desc>Created with Sketch.</desc>
    <g id="Post-consumption" stroke="none" stroke-width="1" fill="none" fill-rule="evenodd" opacity="0.98999995">
        <g id="1.99-commenting-(comment-share-hover)" transform="translate(-975.000000, -483.000000)" fill="#FFFFFF" fill-rule="nonzero">
            <g id="Group-3" transform="translate(929.000000, 477.000000)">
                <g id="Group-11">
                    <g id="Group">
                        <path d="M48.25,18.526583 C48.25,18.5273256 55.7511854,18.5263158 55.7511854,18.5263158 C55.7497335,18.5263158 55.7498812,11.3074629 55.7499683,8.94736842 L48.25,8.94736842 L48.25,18.526583 Z M57.25,18.526583 C57.25,19.3403287 56.5772049,20 55.7511854,20 L48.2488146,20 C47.4210421,20 46.75,19.3417072 46.75,18.526583 L46.75,8.94736815 C46.3357259,8.94702454 46,8.62009471 46,8.21052632 C46,7.80357966 46.3334731,7.47368421 46.7506537,7.47368421 L50.5,7.47368421 C50.5,6.6597909 51.1715729,6 52,6 C52.8284271,6 53.5,6.6597909 53.5,7.47368421 L57.2493463,7.47368421 C57.6639209,7.47368421 58,7.8007425 58,8.21052632 C58,8.61726038 57.6668752,8.94702372 57.25,8.94736815 L57.25,18.526583 Z M52.75,11.1560855 C52.75,10.7501381 53.0828986,10.4210526 53.5,10.4210526 C53.9142136,10.4210526 54.25,10.7499137 54.25,11.1560855 L54.25,16.3175987 C54.25,16.7235461 53.9171014,17.0526316 53.5,17.0526316 C53.0857864,17.0526316 52.75,16.7237705 52.75,16.3175987 L52.75,11.1560855 Z M49.75,11.1560855 C49.75,10.7501381 50.0828986,10.4210526 50.5,10.4210526 C50.9142136,10.4210526 51.25,10.7499137 51.25,11.1560855 L51.25,16.3175987 C51.25,16.7235461 50.9171014,17.0526316 50.5,17.0526316 C50.0857864,17.0526316 49.75,16.7237705 49.75,16.3175987 L49.75,11.1560855 Z" id="Combined-Shape"></path>
                    </g>
                </g>
            </g>
        </g>
    </g>
</svg>