<?xml version="1.0" encoding="UTF-8"?>
<svg width="12px" height="12px" viewBox="0 0 12 12" version="1.1" xmlns="http://www.w3.org/2000/svg" xmlns:xlink="http://www.w3.org/1999/xlink">
    <!-- Generator: Sketch 52.6 (67491) - http://www.bohemiancoding.com/sketch -->
    <title>Combined Shape</title>
    <desc>Created with Sketch.</desc>
    <g id="Responsive-web" stroke="none" stroke-width="1" fill="none" fill-rule="evenodd">
        <g id="Mobile-MVP---Section-nav" transform="translate(-90.000000, -184.000000)" fill="#242D42">
            <g id="Group-3" transform="translate(72.000000, 165.000000)">
                <g id="Group-2" transform="translate(1.000000, 8.000000)">
                    <path d="M17.8571429,20.4726448 L17.8580123,21.0215832 C18.1657858,20.9162774 18.5204212,20.9861691 18.7659899,21.2312585 C19.0126268,21.4774139 19.082193,21.8333722 18.9746885,22.1414695 L19.519044,22.1428571 L20.4285714,21.235105 L18.7616411,19.5714286 C18.2142212,20.1168585 17.8571429,20.4726448 17.8571429,20.4726448 Z M26.9484568,11.3518961 L28.6483063,13.0524002 C29.1168164,13.5210908 29.1173783,14.2804262 28.649108,14.7488768 L20.6126015,22.7884787 C20.4958265,22.9052987 20.2678321,23 20.0993313,23 L17.6002303,23 C17.2687322,23 17,22.7330462 17,22.3996116 L17,19.8998523 C17,19.7331121 17.0960416,19.5019584 17.2115488,19.3865204 L25.2521966,11.3506958 C25.7205052,10.8826681 26.4798766,10.8831353 26.9484568,11.3518961 Z" id="Combined-Shape"></path>
                </g>
            </g>
        </g>
    </g>
</svg>