<?xml version="1.0" encoding="UTF-8"?>
<svg width="22px" height="20px" viewBox="0 0 22 20" version="1.1" xmlns="http://www.w3.org/2000/svg" xmlns:xlink="http://www.w3.org/1999/xlink">
    <!-- Generator: Sketch 52.6 (67491) - http://www.bohemiancoding.com/sketch -->
    <title>Combined Shape</title>
    <desc>Created with Sketch.</desc>
    <g id="Polls" stroke="none" stroke-width="1" fill="none" fill-rule="evenodd">
        <g id="Poll:-Start" transform="translate(-833.000000, -258.000000)" fill="#34414F" fill-rule="nonzero" stroke="#34414F">
            <g id="Group-2" transform="translate(320.000000, 40.000000)">
                <path d="M514.267309,227.350942 L517.903672,223.762665 C518.259269,223.41177 518.834873,223.412693 519.189319,223.764726 C519.543766,224.11676 519.542833,224.686595 519.187237,225.03749 L516.193286,228 L519.189316,230.964569 C519.543764,231.3166 519.542835,231.886436 519.18724,232.237332 C518.831645,232.588228 518.256041,232.587308 517.901593,232.235277 L514.265229,228.623709 C513.91078,228.271676 513.911711,227.701838 514.267309,227.350942 Z M533.732691,227.350942 C534.088289,227.701838 534.08922,228.271676 533.734771,228.623709 L530.098407,232.235277 C529.743959,232.587308 529.168355,232.588228 528.81276,232.237332 C528.457165,231.886436 528.456236,231.3166 528.810684,230.964569 L531.806714,228 L528.812763,225.03749 C528.457167,224.686595 528.456234,224.11676 528.810681,223.764726 C529.165127,223.412693 529.740731,223.41177 530.096328,223.762665 L533.732691,227.350942 Z M526.705625,220.095407 L523.069261,236.29506 C522.960345,236.780269 522.47473,237.0862 521.984609,236.978376 C521.494488,236.870552 521.18546,236.389803 521.294375,235.904593 L524.930739,219.70494 C525.039655,219.219731 525.52527,218.9138 526.015391,219.021624 C526.505512,219.129448 526.81454,219.610197 526.705625,220.095407 Z" id="Combined-Shape"></path>
            </g>
        </g>
    </g>
</svg>