<?xml version="1.0" encoding="UTF-8"?>
<svg width="10px" height="8px" viewBox="0 0 10 8" version="1.1" xmlns="http://www.w3.org/2000/svg" xmlns:xlink="http://www.w3.org/1999/xlink">
    <!-- Generator: Sketch 52.6 (67491) - http://www.bohemiancoding.com/sketch -->
    <title>“”</title>
    <desc>Created with Sketch.</desc>
    <g id="Future-editor" stroke="none" stroke-width="1" fill="none" fill-rule="evenodd">
        <g id="Future-editor:-Toolbar-screens" transform="translate(-413.000000, -145.000000)" fill="#FFFFFF" fill-rule="nonzero">
            <g id="Group-7" transform="translate(201.000000, 50.000000)">
                <g id="Group-5">
                    <g id="Group-6" transform="translate(0.000000, 83.000000)">
                        <path d="M222,18.1538462 C222,18.6666692 221.800433,19.1025623 221.401294,19.4615385 C221.002156,19.8205146 220.500542,20 219.89644,20 C219.270763,20 218.720606,19.7846175 218.245955,19.3538462 C217.771303,18.9230748 217.533981,18.2666711 217.533981,17.3846154 C217.533981,16.4820468 217.674217,15.7025674 217.954693,15.0461538 C218.235169,14.3897403 218.585758,13.8410278 219.006472,13.4 C219.427187,12.9589722 219.891044,12.6256422 220.398058,12.4 C220.905073,12.1743578 221.385111,12.0410258 221.838188,12 L221.838188,13.4461538 C221.12621,13.6102572 220.549085,13.9897406 220.106796,14.5846154 C219.664507,15.1794902 219.432578,15.7948686 219.411003,16.4307692 C219.454153,16.3897434 219.529665,16.3538463 219.63754,16.3230769 C219.745416,16.2923075 219.885652,16.2769231 220.058252,16.2769231 C220.597629,16.2769231 221.056093,16.441024 221.433657,16.7692308 C221.811221,17.0974375 222,17.5589714 222,18.1538462 Z M216.466019,18.1538462 C216.466019,18.6666692 216.266453,19.1025623 215.867314,19.4615385 C215.468175,19.8205146 214.966562,20 214.36246,20 C213.736782,20 213.186626,19.7846175 212.711974,19.3538462 C212.237322,18.9230748 212,18.2666711 212,17.3846154 C212,16.4820468 212.140236,15.7025674 212.420712,15.0461538 C212.701188,14.3897403 213.051778,13.8410278 213.472492,13.4 C213.893206,12.9589722 214.357063,12.6256422 214.864078,12.4 C215.371092,12.1743578 215.85113,12.0410258 216.304207,12 L216.304207,13.4461538 C215.592229,13.6102572 215.015105,13.9897406 214.572816,14.5846154 C214.130526,15.1794902 213.898598,15.7948686 213.877023,16.4307692 C213.920173,16.3897434 213.995684,16.3538463 214.10356,16.3230769 C214.211435,16.2923075 214.351671,16.2769231 214.524272,16.2769231 C215.063649,16.2769231 215.522112,16.441024 215.899676,16.7692308 C216.27724,17.0974375 216.466019,17.5589714 216.466019,18.1538462 Z" id="“”"></path>
                    </g>
                </g>
            </g>
        </g>
    </g>
</svg>