<?xml version="1.0" encoding="UTF-8"?>
<svg width="24px" height="24px" viewBox="0 0 24 24" version="1.1" xmlns="http://www.w3.org/2000/svg" xmlns:xlink="http://www.w3.org/1999/xlink">
    <!-- Generator: Sketch 51.3 (57544) - http://www.bohemiancoding.com/sketch -->
    <title>Combined Shape</title>
    <desc>Created with Sketch.</desc>
    <defs></defs>
    <g id="Post-creation" stroke="none" stroke-width="1" fill="none" fill-rule="evenodd">
        <g id="Create-(bottom-full)" transform="translate(-664.000000, -339.000000)">
            <g id="Group-13" transform="translate(605.000000, 330.000000)">
                <g id="Combined-Shape" transform="translate(59.000000, 9.000000)">
                    <path d="M0,2.66011906 C0,1.19097587 0.978049764,0 2.18280545,0 L21.8171945,0 C23.0227247,0 24,1.19016373 24,2.66011906 L24,21.3398809 C24,22.8090241 23.0219502,24 21.8171945,24 L2.18280545,24 C0.977275288,24 0,22.8098363 0,21.3398809 L0,2.66011906 Z" fill="#34414F" fill-rule="nonzero"></path>
                    <path d="M9.66666667,12.125 C9.66666667,11.6954452 10.0155102,11.3472222 10.4463681,11.3472222 L18.2202985,11.3472222 C18.6509158,11.3472222 19,11.6924504 19,12.125 C19,12.5545548 18.6511565,12.9027778 18.2202985,12.9027778 L10.4463681,12.9027778 C10.0157509,12.9027778 9.66666667,12.5575496 9.66666667,12.125 Z M9.66666667,7.55555556 C9.66666667,7.12600075 10.0155102,6.77777778 10.4463681,6.77777778 L18.2202985,6.77777778 C18.6509158,6.77777778 19,7.12300597 19,7.55555556 C19,7.98511036 18.6511565,8.33333333 18.2202985,8.33333333 L10.4463681,8.33333333 C10.0157509,8.33333333 9.66666667,7.98810514 9.66666667,7.55555556 Z M9.66666667,16.6944444 C9.66666667,16.2648896 10.0155102,15.9166667 10.4463681,15.9166667 L18.2202985,15.9166667 C18.6509158,15.9166667 19,16.2618949 19,16.6944444 C19,17.1239992 18.6511565,17.4722222 18.2202985,17.4722222 L10.4463681,17.4722222 C10.0157509,17.4722222 9.66666667,17.126994 9.66666667,16.6944444 Z M6.55555556,13.6805556 C5.69644594,13.6805556 5,12.9841096 5,12.125 C5,11.2658904 5.69644594,10.5694444 6.55555556,10.5694444 C7.41466517,10.5694444 8.11111111,11.2658904 8.11111111,12.125 C8.11111111,12.9841096 7.41466517,13.6805556 6.55555556,13.6805556 Z M6.55555556,9.11111111 C5.69644594,9.11111111 5,8.41466517 5,7.55555556 C5,6.69644594 5.69644594,6 6.55555556,6 C7.41466517,6 8.11111111,6.69644594 8.11111111,7.55555556 C8.11111111,8.41466517 7.41466517,9.11111111 6.55555556,9.11111111 Z M6.55555556,18.25 C5.69644594,18.25 5,17.5535541 5,16.6944444 C5,15.8353348 5.69644594,15.1388889 6.55555556,15.1388889 C7.41466517,15.1388889 8.11111111,15.8353348 8.11111111,16.6944444 C8.11111111,17.5535541 7.41466517,18.25 6.55555556,18.25 Z" fill="#FFFFFF" fill-rule="evenodd"></path>
                </g>
            </g>
        </g>
    </g>
</svg>