<?xml version="1.0" encoding="UTF-8"?>
<svg width="209px" height="17px" viewBox="0 0 209 17" version="1.1" xmlns="http://www.w3.org/2000/svg" xmlns:xlink="http://www.w3.org/1999/xlink">
    <!-- Generator: Sketch 52.6 (67491) - http://www.bohemiancoding.com/sketch -->
    <title>Group 2</title>
    <desc>Created with Sketch.</desc>
    <g id="Website" stroke="none" stroke-width="1" fill="none" fill-rule="evenodd">
        <g id="Home-(Slack-sign-in)" transform="translate(-736.000000, -416.000000)" fill="#FFFFFF">
            <g id="Group" transform="translate(680.000000, 393.000000)">
                <g id="Group-2" transform="translate(56.000000, 19.000000)">
                    <path d="M3.36156352,15.1107492 C3.36156352,16.0358306 2.60586319,16.7915309 1.68078176,16.7915309 C0.755700326,16.7915309 3.04201109e-13,16.0358306 3.04201109e-13,15.1107492 C3.04201109e-13,14.1856678 0.755700326,13.4299674 1.68078176,13.4299674 L3.36156352,13.4299674 L3.36156352,15.1107492 Z M4.20846906,15.1107492 C4.20846906,14.1856678 4.96416938,13.4299674 5.88925081,13.4299674 C6.81433225,13.4299674 7.57003257,14.1856678 7.57003257,15.1107492 L7.57003257,19.3192182 C7.57003257,20.2442997 6.81433225,21 5.88925081,21 C4.96416938,21 4.20846906,20.2442997 4.20846906,19.3192182 L4.20846906,15.1107492 Z M5.88925081,8.36156352 C4.96416938,8.36156352 4.20846906,7.60586319 4.20846906,6.68078176 C4.20846906,5.75570033 4.96416938,5 5.88925081,5 C6.81433225,5 7.57003257,5.75570033 7.57003257,6.68078176 L7.57003257,8.36156352 L5.88925081,8.36156352 Z M5.88925081,9.20846906 C6.81433225,9.20846906 7.57003257,9.96416938 7.57003257,10.8892508 C7.57003257,11.8143322 6.81433225,12.5700326 5.88925081,12.5700326 L1.68078176,12.5700326 C0.755700326,12.5700326 -6.80788759e-13,11.8143322 -6.80788759e-13,10.8892508 C-6.80788759e-13,9.96416938 0.755700326,9.20846906 1.68078176,9.20846906 L5.88925081,9.20846906 Z M12.6384365,10.8892508 C12.6384365,9.96416938 13.3941368,9.20846906 14.3192182,9.20846906 C15.2442997,9.20846906 16,9.96416938 16,10.8892508 C16,11.8143322 15.2442997,12.5700326 14.3192182,12.5700326 L12.6384365,12.5700326 L12.6384365,10.8892508 Z M11.7915309,10.8892508 C11.7915309,11.8143322 11.0358306,12.5700326 10.1107492,12.5700326 C9.18566775,12.5700326 8.42996743,11.8143322 8.42996743,10.8892508 L8.42996743,6.68078176 C8.42996743,5.75570033 9.18566775,5 10.1107492,5 C11.0358306,5 11.7915309,5.75570033 11.7915309,6.68078176 L11.7915309,10.8892508 Z M10.1107492,17.6384365 C11.0358306,17.6384365 11.7915309,18.3941368 11.7915309,19.3192182 C11.7915309,20.2442997 11.0358306,21 10.1107492,21 C9.18566775,21 8.42996743,20.2442997 8.42996743,19.3192182 L8.42996743,17.6384365 L10.1107492,17.6384365 Z M10.1107492,16.7915309 C9.18566775,16.7915309 8.42996743,16.0358306 8.42996743,15.1107492 C8.42996743,14.1856678 9.18566775,13.4299674 10.1107492,13.4299674 L14.3192182,13.4299674 C15.2442997,13.4299674 16,14.1856678 16,15.1107492 C16,16.0358306 15.2442997,16.7915309 14.3192182,16.7915309 L10.1107492,16.7915309 Z" id="Combined-Shape"></path>
                    <text id="Button-Label" font-family="Avenir-Heavy, Avenir" font-size="20" font-weight="600">
                        <tspan x="24.09" y="20">Continue with Slack</tspan>
                    </text>
                </g>
            </g>
        </g>
    </g>
</svg>