<?xml version="1.0" encoding="UTF-8"?>
<svg width="16px" height="8px" viewBox="0 0 16 8" version="1.1" xmlns="http://www.w3.org/2000/svg" xmlns:xlink="http://www.w3.org/1999/xlink">
    <!-- Generator: Sketch 52.6 (67491) - http://www.bohemiancoding.com/sketch -->
    <title>Combined Shape</title>
    <desc>Created with Sketch.</desc>
    <g id="Website" stroke="none" stroke-width="1" fill="none" fill-rule="evenodd">
        <g id="Home-(Feb-26)" transform="translate(-477.000000, -2176.000000)" fill="#32C97B" fill-rule="nonzero">
            <g id="Group-18" transform="translate(236.000000, 1710.000000)">
                <g id="Group-49" transform="translate(0.000000, 436.000000)">
                    <path d="M249.8,29.0348565 L249.8,41.1606167 C249.8,41.6241953 249.444908,42 249,42 C248.558172,42 248.2,41.6264648 248.2,41.1606167 L248.2,29.0348565 L246.365685,31.0729838 C246.053266,31.4201165 245.546734,31.4201165 245.234315,31.0729838 C244.921895,30.7258511 244.921895,30.1630378 245.234315,29.8159051 L248.434315,26.2603495 C248.746734,25.9132168 249.253266,25.9132168 249.565685,26.2603495 L252.765685,29.8159051 C253.078105,30.1630378 253.078105,30.7258511 252.765685,31.0729838 C252.453266,31.4201165 251.946734,31.4201165 251.634315,31.0729838 L249.8,29.0348565 Z" id="Combined-Shape" transform="translate(249.000000, 34.000000) scale(1, -1) rotate(90.000000) translate(-249.000000, -34.000000) "></path>
                </g>
            </g>
        </g>
    </g>
</svg>