<?xml version="1.0" encoding="UTF-8"?>
<svg width="18px" height="18px" viewBox="0 0 18 18" version="1.1" xmlns="http://www.w3.org/2000/svg" xmlns:xlink="http://www.w3.org/1999/xlink">
    <!-- Generator: Sketch 49 (51002) - http://www.bohemiancoding.com/sketch -->
    <title>All posts icon</title>
    <desc>Created with Sketch.</desc>
    <defs></defs>
    <g id="ðŸ -Highlevel-Pages" stroke="none" stroke-width="1" fill="none" fill-rule="evenodd">
        <g id="Home-(logged-in)" transform="translate(-1219.000000, -27.000000)" fill="#FFFFFF">
            <g id="Group" transform="translate(1219.000000, 25.000000)">
                <path d="M0.81102318,18.1041062 L0.0101026931,10.0949013 C-0.103811549,8.95575886 0.759323019,8 1.90647178,8 L15.9047285,8 C17.0495068,8 17.9152085,8.95379202 17.8010976,10.0949013 L17.0001771,18.1041062 C16.8942628,19.1632484 15.9712123,20 14.909978,20 L2.90122228,20 C1.83602971,20 0.917267289,19.1665472 0.81102318,18.1041062 Z M15.7998222,10.0079037 L2.01100882,10.0042113 L2.90560013,18 L14.9056001,18 L15.7998222,10.0079037 Z M3.90560013,3 C3.90560013,2.44771525 4.35470632,2 4.90099769,2 L12.9102026,2 C13.4599455,2 13.9056001,2.44386482 13.9056001,3 C13.9056001,3.55228475 13.4564939,4 12.9102026,4 L4.90099769,4 C4.3512548,4 3.90560013,3.55613518 3.90560013,3 Z M1.90560013,6 C1.90560013,5.44771525 2.35554888,5 2.90122228,5 L14.909978,5 C15.4598449,5 15.9056001,5.44386482 15.9056001,6 C15.9056001,6.55228475 15.4556514,7 14.909978,7 L2.90122228,7 C2.35135535,7 1.90560013,6.55613518 1.90560013,6 Z" id="All-posts-icon"></path>
            </g>
        </g>
    </g>
</svg>