<?xml version="1.0" encoding="UTF-8"?>
<svg width="16px" height="16px" viewBox="0 0 16 16" version="1.1" xmlns="http://www.w3.org/2000/svg" xmlns:xlink="http://www.w3.org/1999/xlink">
    <!-- Generator: Sketch 49 (51002) - http://www.bohemiancoding.com/sketch -->
    <title>Group</title>
    <desc>Created with Sketch.</desc>
    <defs></defs>
    <g id="➡️-Boards-&amp;-Posts" stroke="none" stroke-width="1" fill="none" fill-rule="evenodd">
        <g id="Full-screen-Post-(edit)" transform="translate(-588.000000, -24.000000)" fill="#34414F">
            <g id="Group-11" transform="translate(588.000000, 20.000000)">
                <g id="Group" transform="translate(0.000000, 4.000000)">
                    <path d="M13.7927619,5.7824 L14.3405714,5.23459048 C15.5375238,4.03992381 15.5367619,2.09249524 14.3405714,0.897066667 C13.1451429,-0.29912381 11.1984762,-0.298361905 10.0038095,0.897066667 L9.456,1.4456381 L13.7927619,5.7824 Z" id="Fill-31"></path>
                    <polygon id="Fill-32" points="8.3783619 2.52266667 1.5943619 9.30666667 4.31512381 9.84609524 10.0080762 4.15238095"></polygon>
                    <path d="M0.224685714,15.0141714 C0.41287619,15.2031238 0.68792381,15.2785524 0.947733333,15.2145524 L4.51268571,14.3231238 L3.9176381,11.3204571 L0.914971429,10.7261714 L0.0235428571,14.2896 C-0.0404571429,14.5509333 0.0349714286,14.8244571 0.224685714,15.0141714" id="Fill-33"></path>
                    <polygon id="Fill-34" points="11.0855619 5.2295619 5.39260952 10.9240381 5.93127619 13.6440381 12.7160381 6.8600381"></polygon>
                </g>
            </g>
        </g>
    </g>
</svg>