<?xml version="1.0" encoding="UTF-8"?>
<svg width="14px" height="14px" viewBox="0 0 14 14" version="1.1" xmlns="http://www.w3.org/2000/svg" xmlns:xlink="http://www.w3.org/1999/xlink">
    <!-- Generator: Sketch 51.3 (57544) - http://www.bohemiancoding.com/sketch -->
    <title>Combined Shape</title>
    <desc>Created with Sketch.</desc>
    <defs></defs>
    <g id="Post-creation" stroke="none" stroke-width="1" fill="none" fill-rule="evenodd">
        <g id="Window-variants-(editing-a-post" transform="translate(-196.000000, -56.000000)" fill="#FFFFFF">
            <g id="Group-13" transform="translate(180.000000, 40.000000)">
                <g id="Group-12">
                    <g id="Group-15" transform="translate(16.000000, 15.000000)">
                        <path d="M1,12.0514189 L1.00101432,12.6918471 C1.36008341,12.5689902 1.77382476,12.6505306 2.06032159,12.9364682 C2.34806462,13.2236496 2.42922517,13.6389343 2.30380324,13.9983811 L2.93888465,14 L4,12.9409559 L2.05524798,11 C1.41659138,11.6363349 1,12.0514189 1,12.0514189 Z M11.606533,1.4105454 L13.5896907,3.39446692 C14.1362858,3.94127254 14.1369413,4.82716391 13.590626,5.37368964 L4.2147018,14.7532251 C4.07846428,14.8895151 3.81247078,15 3.61588647,15 L0.70026863,15 C0.313520945,15 1.98903004e-14,14.688554 1.98903004e-14,14.2995469 L0,11.383161 C0,11.1886307 0.112048502,10.9189515 0.24680697,10.7842739 L9.62756272,1.40914507 C10.1739227,0.863112825 11.059856,0.863657885 11.606533,1.4105454 Z" id="Combined-Shape"></path>
                    </g>
                </g>
            </g>
        </g>
    </g>
</svg>