<?xml version="1.0" encoding="UTF-8"?>
<svg width="16px" height="12px" viewBox="0 0 16 12" version="1.1" xmlns="http://www.w3.org/2000/svg" xmlns:xlink="http://www.w3.org/1999/xlink">
    <!-- Generator: Sketch 52.6 (67491) - http://www.bohemiancoding.com/sketch -->
    <title>Combined Shape</title>
    <desc>Created with Sketch.</desc>
    <g id="Profiles" stroke="none" stroke-width="1" fill="none" fill-rule="evenodd">
        <g id="Profile:-Panel-open" transform="translate(-984.000000, -429.000000)" fill="#6833F1" fill-rule="nonzero">
            <g id="Group-34" transform="translate(984.000000, 426.000000)">
                <path d="M7.40933295,10.9170007 L0.953333284,3.65250206 C0.863918447,3.55227671 0.832493853,3.4038308 0.872154493,3.26902345 C0.911815134,3.13421611 1.01575711,3.03617391 1.14066661,3.01575218 C1.20445703,3.00517774 1.26885411,2.99991344 1.33333326,3.00000218 L14.6666659,3.00000218 C14.7307,2.99998699 14.7946491,3.00525108 14.8579992,3.01575218 C14.9829087,3.03617391 15.0868507,3.13421611 15.1265113,3.26902345 C15.166172,3.4038308 15.1347474,3.55227671 15.0453326,3.65250206 L8.58799956,10.9170007 C8.26224086,11.2824072 7.73509164,11.2824072 7.40933295,10.9170007 Z M15.9253325,4.37400193 C15.9706669,4.39503204 16.00018,4.44483536 15.9999992,4.50000191 L15.9999992,13.5000003 C15.9999992,14.3284272 15.4030455,15 14.6666659,15 L1.33333326,15 C0.596953636,15 1.03651201e-16,14.3284272 0,13.5000003 L0,4.50000191 C0.000534185624,4.44544345 0.0298968026,4.39648391 0.0746666628,4.37550193 C0.120210758,4.35328833 0.173211264,4.36491532 0.207999989,4.40475192 L4.34133311,9.05475108 C4.40625196,9.12818349 4.40625196,9.24681862 4.34133311,9.32025103 L0.979333283,13.1025003 C0.789752591,13.3231125 0.792314494,13.6739504 0.98509131,13.8910289 C1.17786812,14.1081074 1.48972148,14.1113203 1.68599991,13.8982502 L5.04799974,10.1160009 C5.113273,10.0429672 5.21872647,10.0429672 5.28399973,10.1160009 L6.70466632,11.7112506 C7.42054449,12.5161633 8.58078801,12.5161633 9.29666619,11.7112506 L10.7159994,10.1145009 C10.7472675,10.0792353 10.7897237,10.0594157 10.8339994,10.0594157 C10.8782752,10.0594157 10.9207313,10.0792353 10.9519994,10.1145009 L14.3139993,13.8967502 C14.4395981,14.0429076 14.6255237,14.1014518 14.8003159,14.0498815 C14.9751082,13.9983112 15.1115657,13.8446517 15.1572411,13.6479619 C15.2029166,13.4512721 15.150702,13.2421611 15.0206659,13.1010003 L11.6586661,9.31875103 C11.5937472,9.24531862 11.5937472,9.12668349 11.6586661,9.05325108 L15.7919992,4.40325192 C15.8269722,4.36380258 15.879747,4.35222511 15.9253325,4.37400193 Z" id="Combined-Shape"></path>
            </g>
        </g>
    </g>
</svg>