<?xml version="1.0" encoding="UTF-8"?>
<svg width="14px" height="16px" viewBox="0 0 14 16" version="1.1" xmlns="http://www.w3.org/2000/svg" xmlns:xlink="http://www.w3.org/1999/xlink">
    <!-- Generator: Sketch 52.6 (67491) - http://www.bohemiancoding.com/sketch -->
    <title>Combined Shape</title>
    <desc>Created with Sketch.</desc>
    <g id="Inbox/unread" stroke="none" stroke-width="1" fill="none" fill-rule="evenodd">
        <g id="Inbox:-List" transform="translate(-1094.000000, -164.000000)" fill="#242D42">
            <path d="M1107.22234,164 C1107.65183,164 1108,164.39135 1108,164.872401 L1108,170.127599 C1108,170.609413 1107.65393,171 1107.22234,171 L1094.77766,171 C1094.34817,171 1094,170.60865 1094,170.127599 L1094,164.872401 C1094,164.390587 1094.34607,164 1094.77766,164 L1107.22234,164 Z M1107.22234,173 C1107.65183,173 1108,173.39135 1108,173.872401 L1108,179.127599 C1108,179.609413 1107.65393,180 1107.22234,180 L1094.77766,180 C1094.34817,180 1094,179.60865 1094,179.127599 L1094,173.872401 C1094,173.390587 1094.34607,173 1094.77766,173 L1107.22234,173 Z M1097.5,166 C1096.67157,166 1096,166.671573 1096,167.5 C1096,168.328427 1096.67157,169 1097.5,169 C1098.32843,169 1099,168.328427 1099,167.5 C1099,166.671573 1098.32843,166 1097.5,166 Z M1097.5,175 C1096.67157,175 1096,175.671573 1096,176.5 C1096,177.328427 1096.67157,178 1097.5,178 C1098.32843,178 1099,177.328427 1099,176.5 C1099,175.671573 1098.32843,175 1097.5,175 Z" id="Combined-Shape"></path>
        </g>
    </g>
</svg>