<svg width="12" height="13" viewBox="0 0 12 13" fill="none" xmlns="http://www.w3.org/2000/svg">
<path fill-rule="evenodd" clip-rule="evenodd" d="M10.5776 5.15641L11.2107 5.38092C11.6839 5.54936 12 5.99736 12 6.49971C12 7.00205 11.6839 7.45005 11.2107 7.61849L10.5776 7.844C10.3945 7.90918 10.2475 8.04892 10.1731 8.22858C10.0988 8.40823 10.1041 8.61097 10.1876 8.78653L10.4756 9.39305C10.6909 9.84689 10.5975 10.3871 10.2423 10.7423C9.88712 11.0974 9.34693 11.1909 8.89309 10.9756L8.28657 10.6876C8.11102 10.604 7.90828 10.5988 7.72862 10.6731C7.54897 10.7474 7.40922 10.8944 7.34404 11.0776L7.11904 11.7106C6.95034 12.1838 6.50231 12.4997 6 12.4997C5.49769 12.4997 5.04966 12.1838 4.88096 11.7106L4.65596 11.0781C4.59101 10.8947 4.45132 10.7475 4.27161 10.6731C4.09189 10.5986 3.88903 10.6039 3.71343 10.6876L3.10691 10.9756C2.65307 11.1909 2.11288 11.0974 1.7577 10.7423C1.40252 10.3871 1.30909 9.84689 1.52436 9.39305L1.81237 8.78653C1.89593 8.61097 1.90119 8.40823 1.82685 8.22858C1.75251 8.04892 1.60553 7.90918 1.42236 7.844L0.789336 7.61899C0.316078 7.45055 0 7.00255 0 6.50021C0 5.99786 0.316078 5.54986 0.789336 5.38142L1.42236 5.15641C1.60556 5.09112 1.75254 4.95128 1.82688 4.77155C1.90121 4.59182 1.89594 4.38901 1.81237 4.21338L1.52436 3.60686C1.30909 3.15302 1.40252 2.61284 1.7577 2.25766C2.11288 1.90247 2.65307 1.80905 3.10691 2.02431L3.71343 2.31282C3.88907 2.3962 4.0918 2.40131 4.27142 2.32689C4.45104 2.25247 4.59075 2.10548 4.65596 1.92231L4.88096 1.28929C5.04966 0.816155 5.49769 0.500244 6 0.500244C6.50231 0.500244 6.95034 0.816155 7.11904 1.28929L7.34404 1.92181C7.40915 2.10507 7.54881 2.25218 7.72845 2.3267C7.90808 2.40122 8.11087 2.39618 8.28657 2.31282L8.89309 2.02431C9.34693 1.80905 9.88712 1.90247 10.2423 2.25766C10.5975 2.61284 10.6909 3.15302 10.4756 3.60686L10.1876 4.21338C10.1039 4.38899 10.0985 4.59186 10.1729 4.77164C10.2472 4.95142 10.3943 5.09125 10.5776 5.15641ZM3.77915 7.41999C4.1676 8.30285 5.03528 8.87804 5.99972 8.89203C6.31495 8.89852 6.62814 8.83997 6.91975 8.72003C8.14469 8.21047 8.7262 6.80568 8.21979 5.57943C7.69893 4.36586 6.30538 3.78901 5.07919 4.27939C3.85424 4.78895 3.27273 6.19374 3.77915 7.41999Z" fill="#242D42"/>
</svg>
