<?xml version="1.0" encoding="UTF-8"?>
<svg width="16px" height="16px" viewBox="0 0 16 16" version="1.1" xmlns="http://www.w3.org/2000/svg" xmlns:xlink="http://www.w3.org/1999/xlink">
    <!-- Generator: Sketch 49 (51002) - http://www.bohemiancoding.com/sketch -->
    <title>Combined Shape</title>
    <desc>Created with Sketch.</desc>
    <defs></defs>
    <g id="➡️-Boards-&amp;-Posts" stroke="none" stroke-width="1" fill="none" fill-rule="evenodd">
        <g id="Grid" transform="translate(-1015.000000, -116.000000)" fill="#34414F">
            <path d="M1030.11375,116 C1030.60321,116 1031,116.397562 1031,116.886249 L1031,122.224862 C1031,122.714324 1030.60244,123.111111 1030.11375,123.111111 L1024.77514,123.111111 C1024.28568,123.111111 1023.88889,122.713549 1023.88889,122.224862 L1023.88889,116.886249 C1023.88889,116.396787 1024.28645,116 1024.77514,116 L1030.11375,116 Z M1029.22222,117.777778 L1025.66667,117.777778 L1025.66667,121.333333 L1029.22222,121.333333 L1029.22222,117.777778 Z M1021.22486,116 C1021.71432,116 1022.11111,116.397562 1022.11111,116.886249 L1022.11111,122.224862 C1022.11111,122.714324 1021.71355,123.111111 1021.22486,123.111111 L1015.88625,123.111111 C1015.39679,123.111111 1015,122.713549 1015,122.224862 L1015,116.886249 C1015,116.396787 1015.39756,116 1015.88625,116 L1021.22486,116 Z M1020.33333,117.777778 L1016.77778,117.777778 L1016.77778,121.333333 L1020.33333,121.333333 L1020.33333,117.777778 Z M1015,125.775138 C1015,125.285676 1015.39756,124.888889 1015.88625,124.888889 L1021.22486,124.888889 C1021.71432,124.888889 1022.11111,125.286451 1022.11111,125.775138 L1022.11111,131.113751 C1022.11111,131.603213 1021.71355,132 1021.22486,132 L1015.88625,132 C1015.39679,132 1015,131.602438 1015,131.113751 L1015,125.775138 Z M1016.77778,126.666667 L1016.77778,130.222222 L1020.33333,130.222222 L1020.33333,126.666667 L1016.77778,126.666667 Z M1023.88889,125.775138 C1023.88889,125.285676 1024.28645,124.888889 1024.77514,124.888889 L1030.11375,124.888889 C1030.60321,124.888889 1031,125.286451 1031,125.775138 L1031,131.113751 C1031,131.603213 1030.60244,132 1030.11375,132 L1024.77514,132 C1024.28568,132 1023.88889,131.602438 1023.88889,131.113751 L1023.88889,125.775138 Z M1025.66667,126.666667 L1025.66667,130.222222 L1029.22222,130.222222 L1029.22222,126.666667 L1025.66667,126.666667 Z" id="Combined-Shape"></path>
        </g>
    </g>
</svg>