<?xml version="1.0" encoding="UTF-8"?>
<svg width="44px" height="43px" viewBox="0 0 44 43" version="1.1" xmlns="http://www.w3.org/2000/svg" xmlns:xlink="http://www.w3.org/1999/xlink">
    <!-- Generator: Sketch 44.1 (41455) - http://www.bohemiancoding.com/sketch -->
    <title>2</title>
    <desc>Created with Sketch.</desc>
    <defs></defs>
    <g id="Page-1" stroke="none" stroke-width="1" fill="none" fill-rule="evenodd">
        <g id="Users" transform="translate(-145.000000, -50.000000)">
            <g id="2" transform="translate(144.000000, 48.000000)">
                <path d="M48,24 C48,37.255 37.255,48 24,48 C10.745,48 0,37.255 0,24 C0,10.745 10.745,0 24,0 C37.255,0 48,10.745 48,24" id="Fill-1"></path>
                <path d="M2.04505,19.564825 C-0.47395,45.752325 38.23705,55.725825 44.56105,29.676075 C46.7253,18.389575 39.03805,4.246075 27.5533,2.223325 C19.43105,0.622075 0.65555,9.116825 2.27705,20.181325" id="Fill-3" fill="#FFD24A"></path>
                <path d="M28,26 C28,28.211 26.211,30 24,30 C21.789,30 20,28.211 20,26 L28,26 Z" id="Fill-5" fill="#34414F"></path>
                <path d="M21.171375,27 C21.584125,28.164 22.696375,29 23.999875,29 C25.303625,29 26.415875,28.164 26.828625,27 L21.171375,27 Z M23.999875,31 C21.243125,31 18.999875,28.757 18.999875,26 C18.999875,25.44775 19.447625,25 19.999875,25 L27.999875,25 C28.552125,25 28.999875,25.44775 28.999875,26 C28.999875,28.757 26.756875,31 23.999875,31 L23.999875,31 Z" id="Fill-7" fill="#34414F"></path>
                <path d="M12,22 C12,20.8955 12.8955,20 14,20 C15.1045,20 16,20.8955 16,22 C16,23.1045 15.1045,24 14,24 C12.8955,24 12,23.1045 12,22" id="Fill-9" fill="#34414F"></path>
                <path d="M32,22 C32,20.8955 32.8955,20 34,20 C35.1045,20 36,20.8955 36,22 C36,23.1045 35.1045,24 34,24 C32.8955,24 32,23.1045 32,22" id="Fill-11" fill="#34414F"></path>
            </g>
        </g>
    </g>
</svg>