<?xml version="1.0" encoding="UTF-8"?>
<svg width="44px" height="42px" viewBox="0 0 44 42" version="1.1" xmlns="http://www.w3.org/2000/svg" xmlns:xlink="http://www.w3.org/1999/xlink">
    <!-- Generator: Sketch 44.1 (41455) - http://www.bohemiancoding.com/sketch -->
    <title>4</title>
    <desc>Created with Sketch.</desc>
    <defs></defs>
    <g id="Page-1" stroke="none" stroke-width="1" fill="none" fill-rule="evenodd">
        <g id="Users" transform="translate(-338.000000, -51.000000)">
            <g id="4" transform="translate(336.000000, 48.000000)">
                <path d="M48,24 C48,37.255 37.255,48 24,48 C10.745,48 0,37.255 0,24 C0,10.745 10.745,0 24,0 C37.255,0 48,10.745 48,24" id="Fill-1"></path>
                <path d="M3.00635,24.03075 C2.2226,17.99325 4.48035,12.57025 8.7116,8.775 C12.8596,4.96875 18.98085,2.79075 24.0001,3 C29.24885,3.20925 32.66735,5.73225 36.1871,9.52675 C39.5596,13.33175 43.03335,18.40875 44.9936,23.96925 C46.95335,29.53275 45.73135,34.57875 41.50685,38.3865 C37.4296,42.18025 30.3496,44.73525 24.0001,45 C17.4206,45.26475 13.0431,43.119 9.59435,39.312 C6.22835,35.519 3.7906,30.06525 3.00635,24.03075" id="Fill-3" fill="#7394FF"></path>
                <path d="M28,26 C28,28.211 26.211,30 24,30 C21.789,30 20,28.211 20,26 L28,26 Z" id="Fill-5" fill="#34414F"></path>
                <path d="M21.171375,27 C21.583875,28.164 22.696375,29 23.999875,29 C25.303625,29 26.416125,28.164 26.828625,27 L21.171375,27 Z M23.999875,31 C21.242875,31 18.999875,28.757 18.999875,26 C18.999875,25.44775 19.447625,25 19.999875,25 L27.999875,25 C28.552125,25 28.999875,25.44775 28.999875,26 C28.999875,28.757 26.757125,31 23.999875,31 L23.999875,31 Z" id="Fill-7" fill="#34414F"></path>
                <path d="M16,23 C15.44775,23 15,22.55225 15,22 C15,21.4485 14.5515,21 14,21 C13.4485,21 13,21.4485 13,22 C13,22.55225 12.55225,23 12,23 C11.44775,23 11,22.55225 11,22 C11,20.34575 12.34575,19 14,19 C15.65425,19 17,20.34575 17,22 C17,22.55225 16.55225,23 16,23" id="Fill-9" fill="#34414F"></path>
                <path d="M36,23 C35.44775,23 35,22.55225 35,22 C35,21.4485 34.5515,21 34,21 C33.4485,21 33,21.4485 33,22 C33,22.55225 32.55225,23 32,23 C31.44775,23 31,22.55225 31,22 C31,20.34575 32.34575,19 34,19 C35.65425,19 37,20.34575 37,22 C37,22.55225 36.55225,23 36,23" id="Fill-11" fill="#34414F"></path>
            </g>
        </g>
    </g>
</svg>