<?xml version="1.0" encoding="UTF-8"?>
<svg width="20px" height="4px" viewBox="0 0 20 4" version="1.1" xmlns="http://www.w3.org/2000/svg" xmlns:xlink="http://www.w3.org/1999/xlink">
    <!-- Generator: Sketch 49.3 (51167) - http://www.bohemiancoding.com/sketch -->
    <title>Combined Shape</title>
    <desc>Created with Sketch.</desc>
    <defs></defs>
    <g id="Redlines" stroke="none" stroke-width="1" fill="none" fill-rule="evenodd">
        <g id="Comment-box-states" transform="translate(-758.000000, -495.000000)" fill="#898D93">
            <g id="Group-2" transform="translate(129.000000, 470.000000)">
                <path d="M639,21 C637.895431,21 637,20.1045695 637,19 C637,17.8954305 637.895431,17 639,17 C640.104569,17 641,17.8954305 641,19 C641,20.1045695 640.104569,21 639,21 Z M639,29 C637.895431,29 637,28.1045695 637,27 C637,25.8954305 637.895431,25 639,25 C640.104569,25 641,25.8954305 641,27 C641,28.1045695 640.104569,29 639,29 Z M639,37 C637.895431,37 637,36.1045695 637,35 C637,33.8954305 637.895431,33 639,33 C640.104569,33 641,33.8954305 641,35 C641,36.1045695 640.104569,37 639,37 Z" id="Combined-Shape" transform="translate(639.000000, 27.000000) rotate(90.000000) translate(-639.000000, -27.000000) "></path>
            </g>
        </g>
    </g>
</svg>