<?xml version="1.0" encoding="UTF-8"?>
<svg width="18px" height="17px" viewBox="0 0 18 17" version="1.1" xmlns="http://www.w3.org/2000/svg" xmlns:xlink="http://www.w3.org/1999/xlink">
    <!-- Generator: Sketch 52.6 (67491) - http://www.bohemiancoding.com/sketch -->
    <title>Shape</title>
    <desc>Created with Sketch.</desc>
    <g id="Mobile" stroke="none" stroke-width="1" fill="none" fill-rule="evenodd">
        <g id="Inbox-(m):-Empty" transform="translate(-132.000000, -746.000000)" fill="#6833F1" fill-rule="nonzero">
            <g id="Group-21" transform="translate(0.000000, 734.000000)">
                <g id="Group-19" transform="translate(38.000000, 12.000000)">
                    <path d="M96.995622,10.1298701 C96.449949,10.1298701 96,9.66685247 96,9.09569091 L96,3.1121013 C96,2.54452571 96.445755,2.07792208 96.995622,2.07792208 L109.004378,2.07792208 C109.550051,2.07792208 110,2.54093974 110,3.1121013 L110,9.09569091 C110,9.66326649 109.554245,10.1298701 109.004378,10.1298701 L106,10.1298701 C106,11.8512769 104.656854,13.2467532 103,13.2467532 C101.343146,13.2467532 100,11.8512769 100,10.1298701 L96.995622,10.1298701 Z M94,2.07282026 L94,14.2908161 C94,15.4356031 94.892623,16.3636364 95.9950895,16.3636364 L110.00491,16.3636364 C111.106768,16.3636364 112,15.4362358 112,14.2908161 L112,2.07282026 C112,0.928033247 111.107377,-1.17824942e-13 110.004911,-1.17824942e-13 L95.9950895,-1.17824942e-13 C94.893232,-1.17824942e-13 94,0.927400519 94,2.07282026 Z" id="Shape"></path>
                </g>
            </g>
        </g>
    </g>
</svg>