<?xml version="1.0" encoding="UTF-8"?>
<svg width="14px" height="13px" viewBox="0 0 14 13" version="1.1" xmlns="http://www.w3.org/2000/svg" xmlns:xlink="http://www.w3.org/1999/xlink">
    <!-- Generator: Sketch 52.6 (67491) - http://www.bohemiancoding.com/sketch -->
    <title>Shape</title>
    <desc>Created with Sketch.</desc>
    <g id="Inbox/unread" stroke="none" stroke-width="1" fill="none" fill-rule="evenodd">
        <g id="Inbox:-FoC" transform="translate(-188.000000, -90.000000)" fill="#34414F" fill-rule="nonzero">
            <g id="Group-18">
                <g id="Group-16" transform="translate(172.000000, 80.000000)">
                    <g id="Group-30">
                        <g id="Group-5">
                            <path d="M18.3299282,17.5833333 C17.9055159,17.5833333 17.5555556,17.2367132 17.5555556,16.8091353 L17.5555556,12.3297536 C17.5555556,11.9048602 17.9022539,11.5555556 18.3299282,11.5555556 L27.6700718,11.5555556 C28.0944841,11.5555556 28.4444444,11.9021757 28.4444444,12.3297536 L28.4444444,16.8091353 C28.4444444,17.2340287 28.0977461,17.5833333 27.6700718,17.5833333 L25.3333333,17.5833333 C25.3333333,18.8719976 24.2886642,19.9166667 23,19.9166667 C21.7113358,19.9166667 20.6666667,18.8719976 20.6666667,17.5833333 L18.3299282,17.5833333 Z M16,11.5517363 L16,20.6982637 C16,21.555264 16.6942623,22.25 17.5517363,22.25 L28.4482637,22.25 C29.305264,22.25 30,21.5557377 30,20.6982637 L30,11.5517363 C30,10.694736 29.3057377,10 28.4482637,10 L17.5517363,10 C16.694736,10 16,10.6942623 16,11.5517363 Z" id="Shape"></path>
                        </g>
                    </g>
                </g>
            </g>
        </g>
    </g>
</svg>