<?xml version="1.0" encoding="UTF-8"?>
<svg width="16px" height="16px" viewBox="0 0 16 16" version="1.1" xmlns="http://www.w3.org/2000/svg" xmlns:xlink="http://www.w3.org/1999/xlink">
    <!-- Generator: Sketch 52.6 (67491) - http://www.bohemiancoding.com/sketch -->
    <title>Combined Shape</title>
    <desc>Created with Sketch.</desc>
    <g id="Unread" stroke="none" stroke-width="1" fill="none" fill-rule="evenodd">
        <g id="Unread:-FoC" transform="translate(-1053.000000, -164.000000)" fill="#242D42">
            <g id="Group-18" transform="translate(1053.000000, 164.000000)">
                <path d="M0,14.4001171 L0,1.59988291 C0,0.715878065 0.714541054,0 1.59988291,0 L14.4001171,0 C15.2841219,0 16,0.714541054 16,1.59988291 L16,14.4001171 C16,15.2841219 15.2854589,16 14.4001171,16 L1.59988291,16 C0.715878065,16 0,15.2854589 0,14.4001171 Z M6.13608878,11.726633 C6.50801668,12.0911223 7.11103094,12.0911223 7.48295884,11.726633 L12.7210541,6.59329966 C13.092982,6.22881032 13.092982,5.63785634 12.7210541,5.273367 C12.3491262,4.90887767 11.7461119,4.90887767 11.374184,5.273367 L6.80952381,9.75987823 L4.62581598,7.60670034 C4.25388809,7.242211 3.65087382,7.242211 3.27894592,7.60670034 C2.90701803,7.97118968 2.90701803,8.56214366 3.27894592,8.926633 L6.13608878,11.726633 Z" id="Combined-Shape"></path>
            </g>
        </g>
    </g>
</svg>