<?xml version="1.0" encoding="UTF-8"?>
<svg width="16px" height="16px" viewBox="0 0 16 16" version="1.1" xmlns="http://www.w3.org/2000/svg" xmlns:xlink="http://www.w3.org/1999/xlink">
    <!-- Generator: Sketch 52.3 (67297) - http://www.bohemiancoding.com/sketch -->
    <title>Combined Shape</title>
    <desc>Created with Sketch.</desc>
    <g id="Archiving" stroke="none" stroke-width="1" fill="none" fill-rule="evenodd">
        <g id="New-post-(archivable-in-new-post)" transform="translate(-85.000000, -674.000000)" fill="#898D93">
            <g id="Group-5" transform="translate(68.000000, 93.000000)">
                <g id="Group-8" transform="translate(0.000000, 546.000000)">
                    <path d="M26.9999867,35 C28.7673009,35 30.1999921,36.410129 30.1999921,38.1496113 C30.1999921,38.8116434 30.0798935,39.730116 29.8004099,40.6139356 C30.7674143,40.9665299 31.5185832,41.5358832 32.0591424,42.290528 C32.7359895,43.2354367 33,44.3327837 33,45.3987166 C33,45.6898721 32.8417786,45.9580333 32.5869069,46.0988462 C32.2751884,46.2710661 31.7352619,46.5158486 31.0112332,46.7574155 C30.4792785,46.9348984 29.9293835,47.0809587 29.365358,47.1885967 C29.6508836,47.8145841 29.7999925,48.451513 29.7999925,48.9982723 C29.7999925,49.3071412 29.6221442,49.5884116 29.3430875,49.7208762 C28.9912453,49.887891 28.3826751,50.1282311 27.5773333,50.3662825 C26.2379445,50.7621931 24.8261922,51.0000272 23.3999962,51.0000272 C21.9738003,51.0000272 20.562048,50.7621931 19.2226592,50.3662825 C18.4173174,50.1282311 17.8087472,49.887891 17.456905,49.7208762 C17.1778482,49.5884116 17,49.3071412 17,48.9982723 C17,48.0281093 17.4600638,46.7882265 18.3148819,45.8194158 C18.8504204,45.2124617 19.5144708,44.7272826 20.3039409,44.3846011 C19.9506186,43.3238135 19.7999744,42.1981276 19.7999744,41.3992102 C19.7999744,39.4112305 21.4117521,37.7996545 23.3999806,37.7996545 C23.541002,37.7996545 23.6801296,37.807762 23.8169226,37.8235363 C23.9826896,36.2372671 25.3445367,35 26.9999867,35 Z M26.4952649,44.3868678 C27.2395189,44.711094 27.8725115,45.1623238 28.3916608,45.7229697 C29.1196358,45.6327965 29.8284681,45.4655188 30.5047882,45.2398695 C30.8237832,45.1334392 31.1146406,45.0207065 31.3732473,44.9077577 C31.3070116,44.3088351 31.114418,43.7191353 30.7583577,43.2220593 C30.3896717,42.7073572 29.8618105,42.3148355 29.1367604,42.0737481 C28.6370963,42.8476558 27.939626,43.3989634 26.9999867,43.3989634 C26.9211265,43.3989634 26.8439721,43.3950802 26.7684972,43.3875082 C26.6960778,43.719049 26.6055262,44.056127 26.4952649,44.3868678 Z M26.9999867,41.7991608 C27.7552271,41.7991608 28.5999894,39.9626701 28.5999894,38.1496113 C28.5999894,37.2993641 27.8892348,36.5998025 26.9999867,36.5998025 C26.1107386,36.5998025 25.399984,37.2993641 25.399984,38.1496113 C25.399984,38.2362937 25.4019149,38.3230296 25.4056747,38.4096159 C26.3672713,39.0558564 26.9999867,40.1536532 26.9999867,41.3992102 C26.9999867,41.5249011 26.996258,41.6586801 26.988598,41.799022 C26.9923964,41.7991145 26.9961927,41.7991608 26.9999867,41.7991608 Z M19.5146994,46.877795 C19.0755614,47.3754934 18.7861316,47.9762364 18.6648181,48.4915539 C18.968566,48.6075305 19.3075392,48.7231259 19.6762579,48.8321157 C20.8780823,49.1873636 22.1415982,49.4002246 23.3999962,49.4002246 C24.6583943,49.4002246 25.9219102,49.1873636 27.1237346,48.8321157 C27.4919514,48.7232743 27.8305035,48.6078452 28.1339337,48.4920275 C28.0117182,47.9808026 27.7222136,47.3812544 27.2846451,46.8841084 C26.8997212,46.4467748 26.4181004,46.0935144 25.8306243,45.8413507 C25.2667326,46.7481097 24.4739643,47.3984697 23.3999806,47.3984697 C22.3251995,47.3984697 21.5320516,46.7471436 20.9680813,45.8393307 C20.380432,46.0904228 19.8990209,46.442223 19.5146994,46.877795 Z M23.3999806,45.7986672 C24.3954455,45.7986672 25.399984,43.5801631 25.399984,41.3992102 C25.399984,40.294777 24.5045519,39.399457 23.3999806,39.399457 C22.2954092,39.399457 21.3999772,40.294777 21.3999772,41.3992102 C21.3999772,43.5801631 22.4045156,45.7986672 23.3999806,45.7986672 Z" id="Combined-Shape"></path>
                </g>
            </g>
        </g>
    </g>
</svg>