<svg width="16" height="16" viewBox="0 0 16 16" fill="none" xmlns="http://www.w3.org/2000/svg">
<path fill-rule="evenodd" clip-rule="evenodd" d="M7.26267 0.666667L15.6507 9.05867H15.648C15.9379 9.31237 16.0614 9.70701 15.9678 10.0807C15.8742 10.4544 15.5793 10.7442 15.204 10.8313L12.0213 11.8027C11.9153 11.8351 11.8324 11.918 11.8 12.024L10.8307 15.208C10.7352 15.5786 10.4485 15.8696 10.0793 15.9707C10.0019 15.99 9.92245 15.9998 9.84267 16C9.54475 15.9931 9.26197 15.8673 9.05733 15.6507L0.671333 7.26467C0.263244 6.82637 0.0265915 6.2558 0.00466667 5.65733L0 1.33333C0 0.596954 0.596954 0 1.33333 0H5.65533C6.2514 0.032668 6.81846 0.267862 7.26267 0.666667ZM2.99531 3.99466C2.99531 4.54695 3.44303 4.99466 3.99531 4.99466C4.5476 4.99466 4.99531 4.54695 4.99531 3.99466C4.99531 3.44238 4.5476 2.99466 3.99531 2.99466C3.44303 2.99466 2.99531 3.44238 2.99531 3.99466Z" fill="white"/>
</svg>
