<?xml version="1.0" encoding="UTF-8"?>
<svg width="65px" height="32px" viewBox="0 0 65 32" version="1.1" xmlns="http://www.w3.org/2000/svg" xmlns:xlink="http://www.w3.org/1999/xlink">
    <!-- Generator: Sketch 52.5 (67469) - http://www.bohemiancoding.com/sketch -->
    <title>Combined Shape</title>
    <desc>Created with Sketch.</desc>
    <g id="Website" stroke="none" stroke-width="1" fill="none" fill-rule="evenodd" opacity="0.5">
        <g id="Home-(Slack-lander)" transform="translate(-291.000000, -1516.000000)" fill="#34414F">
            <g id="Group-55" transform="translate(235.000000, 1499.000000)">
                <path d="M58.3335197,31.5558662 L58.3335197,40.2994072 L56,40.2994072 L56,26.0549156 L57.388659,26.0549156 C57.5067666,26.0549156 57.6069791,26.0584946 57.6857175,26.0692316 C57.7644559,26.0799687 57.8324572,26.1014428 57.8968795,26.1300749 C57.9613019,26.1587071 58.0221452,26.2016553 58.0794095,26.2589196 C58.1366738,26.3161839 58.2046751,26.3877642 58.2762555,26.4808187 L65.7564031,36.0117437 C65.73135,35.7791075 65.7134549,35.5536293 65.7027178,35.3353092 C65.6919808,35.1169892 65.6884017,34.9094061 65.6884017,34.7197182 L65.6884017,26.0620736 L68.0219215,26.0620736 L68.0219215,40.3065653 L66.6511576,40.3065653 C66.4399955,40.3065653 66.2682027,40.2707751 66.128621,40.2063528 C65.9890393,40.1419304 65.8566156,40.0238228 65.7241919,39.85203 L58.2762555,30.3640532 C58.2941505,30.5752153 58.3084666,30.7827983 58.3192037,30.9903814 C58.3299407,31.1979644 58.3335197,31.3840734 58.3335197,31.5558662 Z M74.9687954,39.9128733 C74.07762,39.5478134 73.3152891,39.0431719 72.6818029,38.3917906 C72.0447377,37.7439884 71.5544123,36.9744995 71.2072475,36.083324 C70.8600828,35.1921485 70.6847109,34.2258137 70.6847109,33.1807404 C70.6847109,32.1356672 70.8600828,31.1693323 71.2072475,30.2781568 C71.5579913,29.3905603 72.0483167,28.6210715 72.6818029,27.9696902 C73.3152891,27.3218879 74.07762,26.8136674 74.9687954,26.4486075 C75.8563919,26.0835477 76.8406219,25.9010178 77.9179063,25.9010178 C78.9951907,25.9010178 79.9758416,26.0835477 80.8634381,26.4521866 C81.7510346,26.8208254 82.5097864,27.325467 83.1396935,27.9732692 C83.7696007,28.6210715 84.2599262,29.3869813 84.6070909,30.2781568 C84.9542557,31.1693323 85.1296276,32.1356672 85.1296276,33.1807404 C85.1296276,34.2258137 84.9542557,35.1921485 84.6070909,36.083324 C84.2599262,36.9709205 83.7696007,37.7404094 83.1396935,38.3917906 C82.5097864,39.0395929 81.7510346,39.5478134 80.8634381,39.9128733 C79.9758416,40.2779331 78.9951907,40.460463 77.9179063,40.460463 C76.8406219,40.460463 75.8599709,40.2779331 74.9687954,39.9128733 Z M73.7125601,31.0762778 C73.5013981,31.699027 73.3976065,32.4005145 73.3976065,33.1807404 C73.3976065,33.9645454 73.5013981,34.6660329 73.7125601,35.285203 C73.9237222,35.9043731 74.2243597,36.4304888 74.6144727,36.8599709 C75.0045856,37.2930321 75.480595,37.6223018 76.0389218,37.8513589 C76.5972486,38.0804161 77.2271558,38.1949446 77.9214853,38.1949446 C78.6158148,38.1949446 79.2421429,38.0804161 79.7968907,37.8513589 C80.3516385,37.6187227 80.8240689,37.2894531 81.2106028,36.8599709 C81.5971368,36.4304888 81.8941953,35.9043731 82.1017783,35.285203 C82.3093614,34.6624539 82.4131529,33.9609663 82.4131529,33.1807404 C82.4131529,32.3969355 82.3093614,31.6954479 82.1017783,31.0762778 C81.8941953,30.4535287 81.5971368,29.927413 81.2106028,29.4943519 C80.8240689,29.0612907 80.3516385,28.728442 79.7968907,28.4993849 C79.2421429,28.2703277 78.6193938,28.1557991 77.9214853,28.1557991 C77.2235768,28.1557991 76.5972486,28.2703277 76.0389218,28.4993849 C75.480595,28.728442 75.0045856,29.0612907 74.6144727,29.4943519 C74.2243597,29.927413 73.9237222,30.4571077 73.7125601,31.0762778 Z M99.7391791,26.0584946 L93.9841181,40.3029862 L91.5897551,40.3029862 L85.8382731,26.0584946 L87.9749469,26.0584946 C88.204004,26.0584946 88.393692,26.1157589 88.5368527,26.2267084 C88.6835924,26.337658 88.790963,26.4808187 88.8625433,26.6597696 L92.2160832,35.3496253 C92.3270328,35.6323677 92.4344033,35.9437423 92.5346158,36.28017 C92.6348283,36.6201767 92.7314618,36.9744995 92.8245163,37.3502964 C92.974835,36.5951236 93.164523,35.9258472 93.3864221,35.3496253 L96.7256459,26.6597696 C96.7829102,26.5058718 96.8902807,26.3698691 97.0405995,26.2446035 C97.1909182,26.1193379 97.3806062,26.0584946 97.6025053,26.0584946 L99.7391791,26.0584946 Z M104.746225,39.9128733 C103.85505,39.5478134 103.096298,39.0431719 102.459233,38.3917906 C101.822168,37.7439884 101.331842,36.9744995 100.984677,36.083324 C100.637513,35.1921485 100.462141,34.2258137 100.462141,33.1807404 C100.462141,32.1356672 100.637513,31.1693323 100.984677,30.2781568 C101.335421,29.3905603 101.825747,28.6210715 102.459233,27.9696902 C103.092719,27.3218879 103.85505,26.8136674 104.746225,26.4486075 C105.633822,26.0835477 106.618052,25.9010178 107.695336,25.9010178 C108.772621,25.9010178 109.753271,26.0835477 110.640868,26.4521866 C111.528464,26.8208254 112.287216,27.325467 112.917123,27.9732692 C113.547031,28.6210715 114.037356,29.3869813 114.384521,30.2781568 C114.731685,31.1693323 114.907057,32.1356672 114.907057,33.1807404 C114.907057,34.2258137 114.731685,35.1921485 114.384521,36.083324 C114.037356,36.9709205 113.547031,37.7404094 112.917123,38.3917906 C112.287216,39.0395929 111.528464,39.5478134 110.640868,39.9128733 C109.753271,40.2779331 108.772621,40.460463 107.695336,40.460463 C106.618052,40.460463 105.637401,40.2779331 104.746225,39.9128733 Z M103.48999,31.0762778 C103.278828,31.699027 103.175036,32.4005145 103.175036,33.1807404 C103.175036,33.9645454 103.278828,34.6660329 103.48999,35.285203 C103.701152,35.9043731 104.00179,36.4304888 104.391902,36.8599709 C104.782015,37.2930321 105.258025,37.6223018 105.816352,37.8513589 C106.374678,38.0804161 107.004586,38.1949446 107.698915,38.1949446 C108.393245,38.1949446 109.019573,38.0804161 109.574321,37.8513589 C110.129068,37.6187227 110.601499,37.2894531 110.988033,36.8599709 C111.374567,36.4304888 111.671625,35.9043731 111.879208,35.285203 C112.086791,34.6624539 112.190583,33.9609663 112.190583,33.1807404 C112.190583,32.3969355 112.086791,31.6954479 111.879208,31.0762778 C111.671625,30.4535287 111.374567,29.927413 110.988033,29.4943519 C110.601499,29.0612907 110.129068,28.728442 109.574321,28.4993849 C109.019573,28.2703277 108.396824,28.1557991 107.698915,28.1557991 C107.001007,28.1557991 106.374678,28.2703277 105.816352,28.4993849 C105.258025,28.728442 104.782015,29.0612907 104.391902,29.4943519 C104.00179,29.927413 103.701152,30.4571077 103.48999,31.0762778 Z M56.007158,17 L120.518958,17 L120.518958,17.1825299 L120.518958,19.0114081 L120.518958,46.9921709 L120.518958,47.9942959 L120.518958,49 L58.3335197,49 L56.007158,49 L56.007158,46.9921709 L56.007158,43.3880998 L58.3335197,43.3880998 L58.3335197,46.9921709 L118.196175,46.9921709 L118.196175,19.0114081 L58.3335197,19.0114081 L58.3335197,22.7013757 L56.007158,22.7013757 L56.007158,19.0114081 L56.007158,17.0644223 L56.007158,17 Z" id="Combined-Shape"></path>
            </g>
        </g>
    </g>
</svg>