<?xml version="1.0" encoding="UTF-8"?>
<svg width="127px" height="30px" viewBox="0 0 127 30" version="1.1" xmlns="http://www.w3.org/2000/svg" xmlns:xlink="http://www.w3.org/1999/xlink">
    <!-- Generator: Sketch 52.5 (67469) - http://www.bohemiancoding.com/sketch -->
    <title>Combined Shape</title>
    <desc>Created with Sketch.</desc>
    <g id="Website" stroke="none" stroke-width="1" fill="none" fill-rule="evenodd" opacity="0.5">
        <g id="Home-(Slack-lander)" transform="translate(-674.000000, -1517.000000)" fill="#34414F">
            <g id="Group-55" transform="translate(235.000000, 1499.000000)">
                <path d="M488.713338,25.5386048 C488.622915,25.683227 488.54611,25.8365647 488.518602,25.9114632 C488.491366,25.9863618 485.336095,34.7881642 485.336095,34.7881642 L482.957591,28.4291432 L480.631106,34.8355546 C480.631106,34.8355546 477.445876,26.2674355 477.32849,25.9495934 C477.211376,25.6317513 477.026989,25.3855394 476.797119,25.1834496 C476.567521,24.9813597 476.216996,24.8394611 476.216996,24.8394611 L478.97544,24.8394611 L478.765997,25.1526731 C478.709618,25.2371042 478.638261,25.3659296 478.68674,25.5162714 C478.73522,25.6668855 480.707911,31.2782831 480.707911,31.2782831 L482.370931,26.8309448 L481.962666,25.7543125 C481.953133,25.7276214 481.810962,25.4936657 481.624397,25.2918482 C481.402425,25.0516282 481.130339,24.8394611 481.130339,24.8394611 L483.642299,24.8394611 C483.642299,24.8394611 483.493592,25.0519005 483.455461,25.1529454 C483.416787,25.2561692 483.369396,25.4882185 483.424957,25.6450969 C483.450014,25.7156376 485.451031,31.2739254 485.451031,31.2739254 C485.451031,31.2739254 487.362713,25.5767349 487.38314,25.5105519 C487.39812,25.4620721 487.406018,25.4135923 487.405746,25.3667467 C487.405746,25.2700595 487.349368,25.1725552 487.332482,25.14423 L487.150002,24.8394611 L489.243075,24.8394611 C489.243075,24.8394611 488.803489,25.3939825 488.713338,25.5386048 Z M532.164288,29.6950644 C532.546407,29.9423658 532.817948,30.2051915 532.982725,30.4824522 C533.190262,30.8250789 533.296209,31.262214 533.296209,31.7805118 C533.296209,32.7536479 532.881408,33.4873811 532.049898,33.9378617 C530.758375,34.6375501 528.398118,34.6171232 527.374051,34.1116263 L527.374051,32.6011273 L527.703604,32.8721237 C527.984678,33.1036283 528.272833,33.2583278 528.559354,33.3324092 C528.857586,33.4094866 529.236981,33.4484339 529.68719,33.4484339 C530.354467,33.4484339 530.87903,33.3122547 531.246986,33.0434371 C531.59969,32.7852415 531.771275,32.4230049 531.771275,31.9360283 C531.771275,31.5980317 531.655251,31.3090596 531.416937,31.0527705 C531.227103,30.844144 530.918521,30.6210826 530.497728,30.3879439 L528.852139,29.4371412 C528.359988,29.1522544 527.992576,28.8450343 527.759438,28.5241962 C527.483539,28.1521548 527.343274,27.7033084 527.343274,27.1918195 C527.343274,26.4455578 527.685901,25.8627111 528.305788,25.3847223 C529.33149,24.5937939 530.842806,24.7446804 531.156563,24.7762739 C531.470047,24.8078675 531.942589,24.8925709 532.335874,25.0573477 L532.459797,25.1090958 L532.459797,26.64792 L532.117987,26.3159153 C531.90228,26.1064718 531.671592,25.9591259 531.433006,25.8776908 C531.186794,25.7932598 530.887745,25.7504995 530.544301,25.7504995 C530.060048,25.7504995 529.645519,25.8828656 529.276201,26.1549515 C528.926221,26.4128748 528.756269,26.735347 528.756269,27.1403438 C528.778602,27.3789296 528.872021,27.5940927 529.040883,27.7803857 C529.182237,27.9337235 529.410474,28.1028579 529.717694,28.2820697 L531.158197,29.1141242 C531.486933,29.3091328 531.824657,29.5041413 532.164288,29.6950644 Z M512.58772,24.8402781 L514.256187,24.8402781 C514.256187,24.8402781 514.117829,25.1611162 514.051918,25.4528119 C514.012154,25.6290277 513.994995,25.7608491 513.990093,25.8556298 C513.988731,25.9125527 513.990093,34.8864856 513.990093,34.8864856 L506.715675,26.8393879 L506.715675,33.0175631 C506.715675,33.0943681 506.709956,33.267588 506.776684,33.5641861 C506.842594,33.8558818 506.980952,34.2715006 506.980952,34.2715006 L505.176851,34.2715006 C505.176851,34.2715006 505.327193,34.0705002 505.447303,33.8449875 C505.559515,33.6344546 505.55788,33.3955964 505.55788,33.3098035 C505.55788,33.2240106 505.558153,25.8343859 505.558153,25.8343859 C505.558153,25.7229913 505.546986,25.5764626 505.493332,25.4443688 C505.439949,25.3120027 505.088607,25.0448192 504.780842,24.8402781 L506.816176,24.8402781 L512.852725,31.7363897 C512.852725,31.7363897 512.851907,25.9125527 512.850273,25.8556298 C512.845371,25.7608491 512.831481,25.6290277 512.791989,25.4528119 C512.726078,25.1611162 512.58772,24.8402781 512.58772,24.8402781 Z M520.75057,33.195413 C520.854883,33.195413 521.192063,33.1913277 521.458974,33.1281405 C521.756389,33.0575997 521.983263,32.9246889 522.046178,32.882201 L522.519537,32.5654483 L521.990345,34.2715006 L516.290158,34.2715006 C516.290158,34.2715006 516.621346,33.8441704 516.621346,33.5285072 L516.621346,25.7148206 C516.621346,25.6105074 516.604732,25.5138202 516.572866,25.4280273 C516.541817,25.3455027 516.462834,25.2395554 516.434781,25.2019699 C516.406455,25.1643845 516.101959,24.8402781 516.101959,24.8402781 L521.380535,24.8402781 L521.380535,26.4439237 L521.065144,26.1484149 C520.906631,25.9901748 520.760919,25.9258982 520.491012,25.9258982 L518.023991,25.9258982 L518.023991,28.4917856 L521.380535,28.4917856 L521.380535,29.8641989 L521.095103,29.733467 C520.947485,29.6659221 520.629643,29.5580682 520.373081,29.5580682 L518.064573,29.5580682 L518.064573,33.195413 L520.75057,33.195413 Z M541.374628,24.8394611 L541.695466,26.4134196 C541.695466,26.4134196 541.292104,26.1661182 541.177168,26.0972116 C541.062506,26.0283049 540.917066,25.9517723 540.618562,25.9564024 C540.495728,25.9583089 538.578598,25.9643008 538.578598,25.9643008 C538.578598,25.9643008 538.578598,33.370267 538.578598,33.4653201 C538.578598,33.7262393 538.770066,34.0669595 538.876286,34.2715006 L536.795468,34.2715006 C536.901688,34.0669595 537.093156,33.7262393 537.093156,33.4653201 C537.093156,33.370267 537.093156,25.9643008 537.093156,25.9643008 L537.093973,25.9643008 C537.093973,25.9643008 535.15342,25.9585812 535.020509,25.9564024 C534.722277,25.9517723 534.576565,26.0283049 534.461903,26.0972116 C534.34724,26.1661182 533.943605,26.4134196 533.943605,26.4134196 L534.264715,24.8394611 L541.374628,24.8394611 Z M557.548624,24.8394611 L557.869735,26.4134196 C557.869735,26.4134196 557.4661,26.1661182 557.351165,26.0972116 C557.236502,26.0283049 557.091062,25.9517723 556.79283,25.9564024 C556.669724,25.9583089 555.006432,25.9645731 554.752594,25.9643008 C554.752594,25.9643008 554.752594,33.370267 554.752594,33.4653201 C554.752594,33.7262393 554.944062,34.0669595 555.050554,34.2715006 L552.969465,34.2715006 C553.075957,34.0669595 553.267152,33.7262393 553.267152,33.4653201 C553.267152,33.370267 553.267152,25.9643008 553.267152,25.9643008 L553.267969,25.9643008 C553.267969,25.9643008 551.327689,25.9585812 551.194506,25.9564024 C550.896001,25.9517723 550.750834,26.0283049 550.635899,26.0972116 C550.521236,26.1661182 550.117874,26.4134196 550.117874,26.4134196 L550.438984,24.8394611 L557.548624,24.8394611 Z M563.654897,33.1943236 C563.759483,33.1943236 564.09639,33.1905106 564.363573,33.1273235 C564.660716,33.0565103 564.887591,32.9235995 564.950778,32.8813839 L565.423864,32.5643589 L564.895217,34.2704111 L559.194485,34.2704111 C559.194485,34.2704111 559.525673,33.8433534 559.525673,33.5276901 L559.525673,25.7140035 C559.525673,25.6094179 559.509059,25.5127307 559.477193,25.4269379 C559.446417,25.3446857 559.367433,25.2384659 559.339108,25.2011529 C559.311055,25.1635674 559.006558,24.8394611 559.006558,24.8394611 L564.284862,24.8394611 L564.284862,26.4431066 L563.969471,26.1475979 C563.810958,25.9890854 563.665247,25.9248088 563.39534,25.9248088 L560.928318,25.9248088 L560.928318,28.4909685 L564.284862,28.4909685 L564.284862,29.8631095 L563.999703,29.7323775 C563.852357,29.6648327 563.534242,29.5569788 563.277408,29.5569788 L560.969172,29.5569788 L560.969172,33.1943236 L563.654897,33.1943236 Z M496.498972,32.9630914 C496.540915,33.0499737 496.696432,33.3552873 496.887899,33.6390847 C497.108782,33.9667317 497.365888,34.2715006 497.365888,34.2715006 L495.077534,34.2715006 L495.191924,33.9934228 C495.208266,33.9533861 495.246396,33.8035891 495.23305,33.6717677 C495.216437,33.5045397 495.143989,33.3506572 495.132006,33.3141612 L494.025414,30.8128228 L490.536504,30.8128228 C490.536504,30.8128228 489.352018,33.7186133 489.320152,33.7913329 C489.288559,33.864325 489.326961,33.9964187 489.342486,34.0617847 C489.35801,34.1274231 489.398319,34.2715006 489.398319,34.2715006 L487.330575,34.2715006 C487.330575,34.2715006 487.689816,33.9803496 487.960812,33.6529749 C488.185235,33.3822508 488.324955,33.0769372 488.36826,32.9788882 C488.36826,32.9788882 491.445909,25.8030647 491.499836,25.675601 C491.55349,25.5484097 491.530612,25.1872626 491.508279,25.0832217 C491.485945,24.9789085 491.455986,24.8394611 491.455986,24.8394611 L492.928627,24.8394611 C492.928627,24.8394611 496.431427,32.8214651 496.498972,32.9630914 Z M490.959749,29.7873939 L493.57684,29.7873939 L492.240378,26.7168267 L490.959749,29.7873939 Z M549.978426,32.9630914 C550.020369,33.0499737 550.176158,33.3552873 550.367626,33.6390847 C550.588236,33.9667317 550.845615,34.2715006 550.845615,34.2715006 L548.557261,34.2715006 L548.671379,33.9934228 C548.687993,33.9533861 548.726123,33.8035891 548.712777,33.6717677 C548.695891,33.5045397 548.623716,33.3506572 548.611732,33.3141612 L547.505141,30.8128228 L544.016231,30.8128228 C544.016231,30.8128228 542.831473,33.7186133 542.799879,33.7913329 C542.768285,33.864325 542.806416,33.9964187 542.822212,34.0617847 C542.837737,34.1274231 542.878046,34.2715006 542.878046,34.2715006 L540.810029,34.2715006 C540.810029,34.2715006 541.16927,33.9803496 541.440539,33.6529749 C541.664962,33.3822508 541.804409,33.0769372 541.847987,32.9788882 C541.847987,32.9788882 544.925363,25.8030647 544.979562,25.675601 C545.033217,25.5484097 545.010339,25.1872626 544.988005,25.0832217 C544.965672,24.9789085 544.935713,24.8394611 544.935713,24.8394611 L546.408354,24.8394611 C546.408354,24.8394611 549.910881,32.8214651 549.978426,32.9630914 Z M544.439476,29.7873939 L547.056566,29.7873939 L545.720104,26.7168267 L544.439476,29.7873939 Z M503.344425,25.4372875 C503.249372,25.5726496 500.616757,29.5640601 500.616757,29.5640601 L500.616757,33.6763977 C500.616757,33.726784 500.620842,33.744215 500.620842,33.7447597 L500.625744,33.7717231 C500.627923,33.7913329 500.63909,33.8526135 500.694923,33.9966911 L500.801688,34.2712282 L499.057778,34.2712282 L499.16427,33.9966911 C499.220103,33.8526135 499.23127,33.7913329 499.233449,33.7717231 L499.238351,33.7447597 C499.238351,33.744215 499.242437,33.726784 499.242437,33.6763977 L499.242437,29.5626983 C499.242437,29.5626983 496.70324,25.5778244 496.606826,25.4372875 C496.510411,25.2967506 495.973048,24.8394611 495.973048,24.8394611 L498.157906,24.8394611 C498.157906,24.8394611 498.108609,25.1180836 498.157906,25.2673359 C498.206931,25.4165883 498.274475,25.5296169 498.341203,25.6470034 L500.045621,28.427509 L501.855442,25.5628447 C501.905556,25.4735111 501.953763,25.3809093 501.991076,25.2673359 C501.993528,25.260527 501.995162,25.2531733 501.997068,25.2455473 C502.00878,25.1869902 502.013682,25.1235308 502.00878,25.0551688 L501.995979,24.871327 C501.993255,24.8514448 501.991076,24.8394611 501.991076,24.8394611 L503.978202,24.8394611 C503.978202,24.8394611 503.438933,25.3019254 503.344425,25.4372875 Z M506.298695,43.3840638 C506.314764,43.4072143 506.335191,43.4360843 506.357797,43.4665884 L506.598834,43.7879712 L504.956786,43.7879712 L505.164867,43.4755762 C505.205449,43.4140232 505.225059,43.3726248 505.234046,43.3483849 C505.246303,43.3154295 505.253929,43.2849254 505.25638,43.2571449 C505.25992,43.2173806 505.261827,43.1691732 505.261827,43.1136121 L505.261827,38.6414891 C505.261827,38.5913752 505.260193,38.549432 505.256652,38.5156596 C505.255018,38.501497 505.249299,38.465001 505.226965,38.3914642 C505.211713,38.3413503 505.182298,38.2819762 505.138449,38.2149761 L504.937448,37.9050324 L506.534285,37.9050324 L506.389118,38.1956386 C506.357252,38.2593705 506.333284,38.3176552 506.31776,38.3691309 C506.301691,38.4238749 506.288618,38.4758953 506.27963,38.5251922 C506.272004,38.5660459 506.267374,38.5987289 506.267374,38.6226964 L506.267374,42.665038 C506.267374,42.7968594 506.268191,42.9229613 506.27037,43.0447054 C506.272276,43.1610024 506.277179,43.2514254 506.284532,43.3137954 C506.290797,43.3658158 506.298423,43.3835191 506.298695,43.3840638 Z M501.525071,37.9058494 L502.663529,37.9058494 L502.576374,38.1659516 C502.5712,38.1822931 502.542057,38.2738055 502.526805,38.3685861 C502.512643,38.4546514 502.512098,38.5439849 502.512098,38.5693142 L502.512098,44.2901998 L498.075109,39.3823037 L498.075109,42.9564613 C498.075109,43.0498802 498.097442,43.2386245 498.143199,43.4091208 C498.18841,43.5777106 498.263581,43.7958695 498.263581,43.7958695 L496.917586,43.7958695 C496.917586,43.7958695 497.05894,43.5948691 497.13738,43.4842917 C497.215819,43.3734419 497.214729,43.2778441 497.216363,43.2350839 C497.21827,43.1844252 497.219359,43.1413926 497.219359,43.1057137 L497.219632,38.5753061 C497.219632,38.501497 497.20438,38.4023586 497.188311,38.3713097 C497.171969,38.3394438 497.107148,38.2759843 497.049953,38.235403 L496.585854,37.9066665 L498.105069,37.9050324 L501.668604,41.9759715 L501.668604,38.7504325 C501.668604,38.664912 501.666698,38.5951882 501.663157,38.5439849 C501.659889,38.4998628 501.648994,38.4407611 501.631019,38.3688585 L501.630746,38.3674967 L501.525071,37.9058494 Z M533.395892,41.3577182 C533.529893,41.5786008 533.597982,41.8585851 533.597982,42.1895004 C533.597982,42.8208269 533.328347,43.2865596 532.797249,43.5747146 C532.368285,43.807581 531.750031,43.9127112 531.169091,43.9127112 C530.656785,43.9127112 530.172804,43.8310038 529.872121,43.6825685 L529.830722,43.6615969 L529.830722,42.5326719 L530.154284,42.7993106 C530.317699,42.9338556 530.483565,43.0237338 530.648342,43.0662217 C530.824558,43.1117056 531.049798,43.134856 531.318343,43.134856 C531.709722,43.134856 532.015308,43.0564168 532.226658,42.901445 C532.421667,42.7587292 532.516447,42.5571841 532.516447,42.2848258 C532.516447,42.0977157 532.452443,41.9378414 532.320077,41.7956704 C532.2095,41.6739262 532.02702,41.5421048 531.777267,41.4034744 L530.770903,40.8214448 C530.46096,40.6419607 530.228638,40.4469522 530.080203,40.2424111 C529.90208,40.0019187 529.811657,39.7126742 529.811657,39.3833931 C529.811657,38.920384 530.013475,38.5396271 530.428821,38.2190615 C531.071587,37.7228247 532.176544,37.8271379 532.22339,37.831768 C532.466334,37.8453859 532.717176,37.9050324 532.965294,38.0090732 L533.087038,38.0597319 L533.087038,39.2281489 L532.750948,38.9015913 C532.627297,38.7812089 532.496021,38.6970502 532.360659,38.650477 C532.217943,38.6017248 532.043633,38.5769402 531.841816,38.5769402 C531.562921,38.5769402 531.324063,38.6532005 531.112168,38.8098066 C530.91607,38.9544288 530.824558,39.1268316 530.824558,39.3520719 C530.836542,39.4759949 530.888834,39.593109 530.978985,39.6930645 C531.060148,39.7810362 531.193331,39.8799022 531.374722,39.9853049 L532.254439,40.4943425 C532.456256,40.6141801 532.662432,40.7332007 532.868334,40.848953 L532.87242,40.8514042 C533.112912,41.0074655 533.2894,41.1776894 533.395892,41.3577182 Z M544.560403,37.966313 L544.790001,39.0778071 L544.645923,38.9892907 C544.645923,38.9892907 544.399984,38.8384042 544.329988,38.796461 C544.261353,38.7553349 544.186727,38.7182942 544.02767,38.7212901 C543.955223,38.7223796 542.853534,38.7259202 542.853534,38.7259202 L542.853534,43.2348115 C542.853534,43.363637 542.948042,43.5431211 543.010684,43.6618693 L543.082859,43.8002273 L541.570181,43.8002273 L541.642901,43.6613246 C541.705271,43.5428487 541.799779,43.3633646 541.799779,43.2348115 L541.799779,38.7256479 C541.537771,38.7248308 540.675484,38.7223796 540.605488,38.7212901 C540.445886,38.7180218 540.372077,38.7553349 540.303443,38.796461 C540.233175,38.8384042 539.987235,38.9892907 539.987235,38.9892907 L539.843157,39.0778071 L540.085556,37.9050324 L544.552232,37.9050324 L544.560403,37.966313 Z M550.456142,37.9050324 L551.948666,37.9050324 L551.793694,38.0363091 C551.670043,38.1417117 551.459783,38.3296389 551.420836,38.3860171 C551.365819,38.4660904 549.921776,40.6539445 549.772251,40.8802742 L549.772251,43.3633646 C549.772251,43.3775272 549.772796,43.3859703 549.77334,43.3897834 L549.776609,43.4083037 C549.777426,43.4142956 549.780966,43.444255 549.815011,43.5314097 L549.919324,43.8002273 L548.638423,43.8002273 L548.743009,43.5314097 C548.776781,43.444255 548.780594,43.4142956 548.780594,43.4129338 L548.784407,43.3892386 C548.784952,43.3854256 548.785497,43.3769825 548.785497,43.3633646 L548.785497,40.8791848 C548.642781,40.6544892 547.247762,38.4658181 547.193018,38.3860171 C547.154343,38.3296389 546.94381,38.1417117 546.819887,38.0363091 L546.66546,37.9050324 L548.279727,37.9050324 L548.264748,38.11611 C548.262024,38.155602 548.264475,38.1910086 548.272101,38.2228745 C548.28,38.2541957 548.291167,38.2852445 548.306146,38.3152039 C548.317585,38.3329072 548.337195,38.3658626 548.376142,38.4344969 L549.350368,40.0242521 L550.414744,38.3399885 C550.420464,38.3299113 550.425911,38.3214682 550.429996,38.3149316 C550.444703,38.2855169 550.456142,38.254468 550.463769,38.2226021 C550.471667,38.1912809 550.473846,38.155602 550.471122,38.11611 L550.456142,37.9050324 Z M537.271823,38.425509 C537.271823,38.5714931 537.271823,43.2067586 537.271823,43.2672221 C537.271823,43.4358119 537.395474,43.6558774 537.46438,43.7879712 L536.072357,43.7879712 C536.140991,43.6558774 536.264642,43.4358119 536.264642,43.2672221 C536.264642,43.2067586 536.264642,38.5714931 536.264642,38.425509 C536.264642,38.2569193 536.140991,38.0368538 536.072357,37.9050324 L537.46438,37.9050324 C537.395474,38.0368538 537.271823,38.2569193 537.271823,38.425509 Z M511.91091,42.0655774 L513.606885,38.4347692 C513.646104,38.3658626 513.681783,38.305399 513.680694,38.2438461 C513.679332,38.1817484 513.525177,37.9050324 513.525177,37.9050324 L514.991826,37.9050324 C514.991826,37.9050324 514.59146,38.4483871 514.545704,38.5415337 C514.499947,38.6335908 511.89484,44.1719963 511.89484,44.1719963 C511.89484,44.1719963 509.108615,38.4758953 509.063131,38.3835659 C509.017103,38.290964 508.760541,38.1231913 508.655411,38.0534676 L508.459313,37.9050324 L510.262325,37.9050324 C510.262325,37.9050324 510.107898,38.181476 510.107081,38.2435737 C510.105991,38.305399 510.14167,38.3658626 510.180617,38.4344969 L511.91091,42.0655774 Z M526.408268,43.8067639 L524.263175,41.0191769 L524.263175,43.1762545 C524.263175,43.2124781 524.265898,43.2462505 524.27189,43.2778441 C524.279788,43.3181531 524.316829,43.4317265 524.352236,43.5128893 L524.474797,43.7942354 L523.009237,43.7942354 C523.009237,43.7942354 523.263892,43.3609134 523.263892,43.2710351 L523.263892,38.4919644 C523.263892,38.4369481 523.260079,38.3887407 523.243193,38.3443463 C523.228485,38.3048543 523.208876,38.2732608 523.183546,38.2476591 L522.841192,37.9050324 L524.970489,37.9050324 C525.396457,37.9050324 525.763324,38.0371261 526.061284,38.2983177 C526.36687,38.5660459 526.521842,38.9263759 526.521842,39.3689581 C526.521842,39.7720484 526.375858,40.1266588 526.088247,40.4224399 C525.865186,40.6520379 525.600998,40.7939366 525.300587,40.8467741 L526.793928,42.7200544 C526.917851,42.8785669 526.993839,42.9741646 527.021619,43.0065753 C527.106323,43.1043519 527.225343,43.2364456 527.374596,43.3541044 C527.523031,43.4706738 528.059849,43.8067639 528.059849,43.8067639 L526.408268,43.8067639 Z M524.263175,38.6793469 L524.263175,40.2467688 C524.267532,40.2467688 524.271618,40.2470412 524.275975,40.2473135 C524.363947,40.2492201 524.453008,40.2503095 524.543159,40.2503095 C524.862363,40.2503095 525.10803,40.1707809 525.27199,40.0136301 C525.436222,39.8567518 525.516023,39.6519384 525.516023,39.3874785 C525.516023,39.1646894 525.465364,38.993376 525.365409,38.8784408 C525.230591,38.7218348 524.987648,38.6428509 524.643114,38.6428509 C524.520281,38.6428509 524.30539,38.6660014 524.263175,38.6793469 Z M494.585927,38.8958718 L494.586744,41.8220891 C494.586744,42.4095659 494.365317,42.905258 493.928727,43.2958197 C493.498401,43.6801173 492.96594,43.8751258 492.345236,43.8751258 C491.677958,43.8751258 491.108184,43.6839303 490.652257,43.3069864 C490.18489,42.9207824 489.947938,42.4125619 489.947938,41.7973045 L489.947666,38.8958718 L489.947666,38.4279603 C489.947666,38.338082 489.692466,37.9050324 489.692466,37.9050324 L491.157209,37.9050324 C491.157209,37.9050324 490.961928,38.3808423 490.95403,38.4208789 C490.948038,38.4524725 490.945314,38.4865173 490.945314,38.5227409 L490.947221,41.7286702 C490.947221,42.0821913 491.082038,42.3747041 491.359299,42.6228224 C491.643096,42.8769327 491.965568,43.000311 492.345236,43.000311 C492.71074,43.000311 493.00053,42.8851035 493.230672,42.6478794 C493.462177,42.4092936 493.574933,42.1227726 493.574933,41.7719752 L493.575206,38.5227409 C493.575206,38.4865173 493.572482,38.4524725 493.56649,38.4208789 C493.558592,38.3808423 493.363311,37.9050324 493.363311,37.9050324 L494.840855,37.9050324 C494.840855,37.9050324 494.585927,38.338082 494.585927,38.4279603 L494.585927,38.8958718 Z M520.428915,42.8028513 L520.893558,42.4915458 L520.491557,43.7879712 L516.803554,43.7879712 L516.896973,43.6673164 C516.948993,43.6003163 517.083538,43.39632 517.083538,43.2595961 L517.083538,38.4892409 C517.083538,38.4344969 517.075367,38.3841106 517.058753,38.3402609 C517.043501,38.3004966 517.023892,38.2683583 516.998018,38.2424843 L516.660838,37.9050324 L520.139126,37.9050324 L520.139126,39.1069494 L519.820466,38.8084448 C519.732222,38.7207454 519.660047,38.6926925 519.520872,38.6926925 L518.08963,38.6926925 L518.08963,40.1097726 L520.139126,40.1097726 L520.139126,41.1390145 L519.858597,41.0107338 C519.770625,40.9704248 519.588689,40.9102336 519.44897,40.9102336 L518.114414,40.9102336 L518.114414,42.9812459 L519.679385,42.9812459 C519.754828,42.9812459 519.946841,42.9774329 520.094459,42.9422987 C520.287833,42.8965425 520.423195,42.8066643 520.428915,42.8028513 Z M471.5771,21.0169126 C471.5771,21.0169126 473.832771,36.5091962 455.332018,47.6543693 C436.831265,36.5091962 439.086664,21.0169126 439.086664,21.0169126 C439.086664,21.0169126 447.196132,18 455.332018,18 C463.467905,18 471.5771,21.0169126 471.5771,21.0169126 Z M455.332018,20.3218543 C449.028013,20.3218543 441.425404,22.7147941 441.425404,22.7147941 C441.425404,22.7147941 440.996985,35.9835447 455.332018,44.6192086 C469.667051,35.9835447 469.238359,22.7147941 469.238359,22.7147941 C469.238359,22.7147941 461.63575,20.3218543 455.332018,20.3218543 Z M458.211662,27.6956823 L457.179424,30.0112724 L458.211662,32.2898218 C461.778466,29.7585239 462.412516,27.1444292 462.412516,27.1444292 L460.370919,24.8288391 L466.111142,24.8288391 C466.111142,28.7753105 463.544437,33.4056736 457.400035,38.3546959 L455.331473,33.0750307 L453.264002,38.3546959 C447.119599,33.4056736 444.552895,28.7753105 444.552895,24.8288391 L450.293118,24.8288391 L448.25152,27.1444292 C448.25152,27.1444292 448.885298,29.7585239 452.452102,32.2898218 L453.484612,30.0112724 L452.452102,27.6956823 L458.211662,27.6956823 Z" id="Combined-Shape"></path>
            </g>
        </g>
    </g>
</svg>