<?xml version="1.0" encoding="UTF-8"?>
<svg width="79px" height="32px" viewBox="0 0 79 32" version="1.1" xmlns="http://www.w3.org/2000/svg" xmlns:xlink="http://www.w3.org/1999/xlink">
    <!-- Generator: Sketch 52.5 (67469) - http://www.bohemiancoding.com/sketch -->
    <title>Combined Shape</title>
    <desc>Created with Sketch.</desc>
    <g id="Website" stroke="none" stroke-width="1" fill="none" fill-rule="evenodd" opacity="0.5">
        <g id="Home-(Slack-lander)" transform="translate(-905.000000, -1516.000000)" fill="#34414F" fill-rule="nonzero">
            <g id="Group-55" transform="translate(235.000000, 1499.000000)">
                <path d="M679.703605,17 C685.061451,17 689.406121,21.2978245 689.407211,26.5995642 L689.407211,39.4004358 C689.407211,44.7021755 685.06254,49 679.703605,49 C674.34467,49 670,44.7021755 670,39.4004358 L670,26.5995642 C670,21.2978245 674.34467,17 679.703605,17 Z M682.964832,39.3988016 L682.964832,26.5979301 C682.964832,24.8308651 681.516971,23.3982569 679.730297,23.3982569 C677.943622,23.3982569 676.495761,24.8308651 676.495761,26.5979301 L676.495761,39.3988016 C676.495761,41.1658666 677.943622,42.5984748 679.730297,42.5984748 C681.516971,42.5984748 682.964832,41.1658666 682.964832,39.3988016 Z M700.807612,17 C706.166548,17 710.511218,21.2978245 710.511218,26.5995642 L710.511218,39.4004358 C710.511218,44.7021755 706.166548,49 700.807612,49 C695.448677,49 691.104007,44.7021755 691.104007,39.4004358 L691.104007,26.5995642 C691.104007,21.2978245 695.448677,17 700.807612,17 Z M704.069383,39.3988016 L704.069383,26.5979301 C704.069383,24.8308651 702.621523,23.3982569 700.834848,23.3982569 C699.048173,23.3982569 697.600313,24.8308651 697.600313,26.5979301 L697.600313,39.3988016 C697.600313,41.1658666 699.048173,42.5984748 700.834848,42.5984748 C702.621523,42.5984748 704.069383,41.1658666 704.069383,39.3988016 Z M724.47942,34.6330644 C724.47942,37.5745412 722.804412,39.6766078 719.84496,39.6766078 C716.923093,39.6766078 715.210499,37.497736 715.210499,34.6330644 C715.210499,31.7297178 716.960133,29.5704559 719.84496,29.5704559 C722.6922,29.5671876 724.47942,31.8206857 724.47942,34.6330644 Z M716.792905,34.5960236 C716.792905,36.9225139 717.909577,38.3741872 719.843326,38.3741872 C721.777074,38.3741872 722.893746,36.9410343 722.893746,34.5960236 C722.893746,32.3250945 721.702448,30.8734212 719.843326,30.8734212 C717.984203,30.8734212 716.79236,32.3043952 716.79236,34.5938447 L716.792905,34.5960236 Z M729.000579,39.4701597 L725.575937,29.7741804 L727.232424,29.7741804 L729.912437,37.926429 L732.650189,29.7730909 L734.229871,29.7730909 L730.786709,39.4690702 L729.000579,39.4701597 Z M742.605999,39.4701597 L742.605999,37.9809008 C741.952337,39.0420114 740.819324,39.6744289 739.534879,39.6744289 C736.910428,39.6744289 735.328567,37.5897933 735.328567,34.6679263 C735.328567,31.7460593 736.948013,29.5671876 739.590985,29.5671876 C740.8238,29.5625013 741.968531,30.2054946 742.605999,31.2607156 L742.605999,29.7730909 L744.131209,29.7730909 L744.131209,39.4690702 L742.605999,39.4701597 Z M736.910428,34.6330644 C736.910428,36.9595547 737.878392,38.3741872 739.797433,38.3741872 C741.472441,38.3741872 742.663739,37.0897423 742.663739,34.5960236 C742.663739,32.1023048 741.416879,30.8734212 739.815953,30.8734212 C737.971538,30.8712423 736.910428,32.3229156 736.910428,34.6330644 Z M747.165288,39.4701597 L747.165288,26.441596 L748.690498,26.441596 L748.690498,39.4701597 L747.165288,39.4701597 Z" id="Combined-Shape"></path>
            </g>
        </g>
    </g>
</svg>