<?xml version="1.0" encoding="UTF-8"?>
<svg width="97px" height="26px" viewBox="0 0 97 26" version="1.1" xmlns="http://www.w3.org/2000/svg" xmlns:xlink="http://www.w3.org/1999/xlink">
    <!-- Generator: Sketch 52.5 (67469) - http://www.bohemiancoding.com/sketch -->
    <title>Combined Shape</title>
    <desc>Created with Sketch.</desc>
    <g id="Website" stroke="none" stroke-width="1" fill="none" fill-rule="evenodd" opacity="0.5">
        <g id="Home-(Slack-lander)" transform="translate(-1310.000000, -1519.000000)" fill="#34414F">
            <g id="Group-55" transform="translate(235.000000, 1499.000000)">
                <path d="M1095.60541,30.4787629 C1095.03758,28.7640244 1093.89356,27.2344981 1092.26325,26.211818 L1094.71049,21.868156 C1097.53907,23.5716599 1099.49519,26.1954474 1100.41034,29.1370169 L1095.60541,30.4787629 Z M1085.47908,25.3948937 C1083.7637,25.9624073 1082.2345,27.1067433 1081.21182,28.737061 L1076.86816,26.289819 C1078.57134,23.4605967 1081.19513,21.5047932 1084.13702,20.5896454 L1085.47908,25.3948937 Z M1095.16341,36.596868 C1096.02784,34.8776355 1096.21402,32.9767217 1095.81085,31.2154393 L1100.6161,29.8736933 C1101.35759,32.8637325 1101.04398,36.121479 1099.50707,39.04411 L1095.16341,36.596868 Z M1091.59655,25.8365785 C1089.87731,24.9718264 1087.9764,24.7859721 1086.21544,25.1891379 L1084.87337,20.3838896 C1087.86373,19.6423984 1091.12116,19.9556865 1094.04411,21.4929165 L1091.59655,25.8365785 Z M1094.78817,37.2632471 L1099.13183,39.7101681 C1097.42833,42.5393905 1094.80486,44.4951939 1091.86297,45.4103417 L1090.5209,40.6054144 C1092.23596,40.0379008 1093.76517,38.8935648 1094.78817,37.2632471 Z M1080.83658,29.4031192 C1079.97215,31.1226726 1079.78597,33.0235865 1080.18882,34.7842269 L1075.38389,36.1262939 C1074.6424,33.1362546 1074.95569,29.8785081 1076.49292,26.9561982 L1080.83658,29.4031192 Z M1084.40312,40.1634086 C1086.12267,41.0281607 1088.02359,41.214336 1089.78455,40.8111702 L1091.12629,45.6160975 C1088.13625,46.3575887 1084.87851,46.0443007 1081.95588,44.5073916 L1084.40312,40.1634086 Z M1080.39457,35.5209032 C1080.96241,37.2359628 1082.10642,38.765489 1083.73674,39.7881691 L1081.2895,44.1318311 C1078.46092,42.4286483 1076.50479,39.8045397 1075.58965,36.8629702 L1080.39457,35.5209032 Z M1114.68967,33.278775 C1115.10021,33.8478936 1115.30469,34.6317557 1115.30469,35.6345343 C1115.30469,36.3619019 1115.16794,37.0070956 1114.89574,37.5688314 C1114.62194,38.1305671 1114.25376,38.6037091 1113.79185,38.9911463 C1113.3277,39.3789045 1112.7926,39.6703651 1112.18625,39.8674541 C1111.5799,40.0651851 1110.94915,40.1646926 1110.29625,40.1646926 C1109.23505,40.1646926 1108.25538,39.9778753 1107.3611,39.6064877 C1106.46521,39.2347792 1105.69868,38.609166 1105.06248,37.7286853 L1106.49538,36.7724505 C1106.88988,37.4552002 1107.40219,37.9636514 1108.03326,38.2978039 C1108.66272,38.6303515 1109.37918,38.7972672 1110.18262,38.7972672 C1110.68401,38.7972672 1111.15522,38.7227971 1111.59402,38.569684 C1112.03506,38.4188178 1112.41768,38.2053582 1112.74445,37.9334781 C1113.06994,37.6596721 1113.3277,37.3287294 1113.51804,36.9432182 C1113.70807,36.55546 1113.80244,36.120195 1113.80244,35.6345343 C1113.80244,35.0727986 1113.68496,34.6089653 1113.45064,34.2462445 C1113.21374,33.8815977 1112.89949,33.5811494 1112.50435,33.3465043 C1112.10985,33.1118592 1111.66721,32.9109183 1111.17288,32.7436816 C1110.68048,32.5767658 1110.17203,32.409529 1109.64945,32.2426133 C1109.12495,32.0753765 1108.6165,31.8866333 1108.12378,31.6734947 C1107.62977,31.4600351 1107.1868,31.1846241 1106.79198,30.8430887 C1106.39748,30.5018743 1106.08259,30.0733502 1105.84634,29.5559113 C1105.61169,29.0403984 1105.49421,28.4041925 1105.49421,27.6447257 C1105.49421,26.9321238 1105.63481,26.2972018 1105.91567,25.7441329 C1106.19654,25.1894589 1106.57531,24.7272306 1107.05359,24.355522 C1107.53187,23.9841344 1108.08108,23.7032665 1108.70317,23.5129184 C1109.32557,23.3225702 1109.97815,23.2285196 1110.6609,23.2285196 C1111.54073,23.2285196 1112.35702,23.3851636 1113.1091,23.6942788 C1113.85926,24.0072458 1114.50798,24.5262897 1115.05431,25.2533363 L1113.75815,26.1867806 C1113.37745,25.6571441 1112.93288,25.2587931 1112.42635,24.9923699 C1111.91597,24.7272306 1111.31315,24.593698 1110.61628,24.593698 C1110.12933,24.593698 1109.66678,24.6598223 1109.22799,24.7875771 C1108.78695,24.9175788 1108.40497,25.106001 1108.07755,25.3563747 C1107.75239,25.6073903 1107.48918,25.9219624 1107.29177,26.3007328 C1107.09468,26.6811081 1106.99677,27.1292128 1106.99677,27.6447257 C1106.99677,28.4481684 1107.20125,29.0670407 1107.61179,29.4990957 C1108.02074,29.9327558 1108.53272,30.2742911 1109.14774,30.5230598 C1109.76308,30.7737545 1110.42978,30.9942759 1111.15137,31.1846241 C1111.87168,31.3730463 1112.5403,31.6272718 1113.15372,31.9473007 C1113.76874,32.2654037 1114.2804,32.7083725 1114.68967,33.278775 Z M1120.07141,34.0629582 L1126.125,39.754144 L1124.05364,39.754144 L1118.29505,34.1997007 L1118.29505,39.754144 L1116.92955,39.754144 L1116.92955,23.2285196 L1118.29505,23.2285196 L1118.29505,34.0186613 L1123.48484,29.2605988 L1124.11078,29.2605988 L1124.46997,30.1641909 L1120.07141,34.0629582 Z M1130.24975,38.0914061 L1133.64199,29.2378084 L1135.09801,29.2378084 L1129.68063,43.0093226 C1129.42287,43.6917513 1129.06753,44.2306966 1128.61237,44.6255166 C1128.15527,45.0200156 1127.54892,45.2174256 1126.78977,45.2174256 C1126.56219,45.2174256 1126.33461,45.1978451 1126.10702,45.1606101 C1125.87944,45.1214491 1125.65924,45.0733003 1125.44771,45.0129538 L1125.58445,43.7382951 C1125.78186,43.7989626 1125.9828,43.8554571 1126.18727,43.9087418 C1126.39174,43.9604215 1126.59943,43.9870638 1126.81289,43.9870638 C1127.05652,43.9870638 1127.27158,43.9337791 1127.46193,43.8288148 C1127.65228,43.7222455 1127.81406,43.585182 1127.9508,43.4182662 C1128.08787,43.2510294 1128.20503,43.0661381 1128.30454,42.8619873 C1128.40244,42.6555895 1128.48943,42.4472658 1128.56582,42.2357321 L1129.5227,39.8000458 L1125.37099,29.5527014 L1125.2519,29.2605988 L1125.24324,29.2378084 L1126.76666,29.2378084 L1130.24975,38.0914061 Z M1136.72319,39.754144 L1136.72319,23.2285196 L1138.08837,23.2285196 L1138.08837,39.754144 L1136.72319,39.754144 Z M1140.52566,39.754144 L1140.52566,29.2378084 L1141.89116,29.2378084 L1141.89116,39.754144 L1140.52566,39.754144 Z M1140.52566,27.5760335 L1140.52566,26.210534 L1141.89116,26.210534 L1141.89116,27.5760335 L1140.52566,27.5760335 Z M1152.88385,35.9866624 C1153.10469,35.4782113 1153.21447,34.935735 1153.21447,34.3598756 C1153.21447,33.7817693 1153.10469,33.239935 1152.88385,32.7311629 C1152.66365,32.2227118 1152.36833,31.7835949 1151.99695,31.4122073 C1151.62331,31.0404987 1151.18419,30.7439022 1150.67574,30.5230598 C1150.16729,30.3044643 1149.62514,30.1943641 1149.04896,30.1943641 C1148.47117,30.1943641 1147.92902,30.3044643 1147.42056,30.5230598 C1146.91211,30.7439022 1146.473,31.0404987 1146.10129,31.4122073 C1145.72797,31.7835949 1145.43266,32.2227118 1145.21246,32.7311629 C1144.99194,33.239935 1144.88344,33.7817693 1144.88344,34.3598756 C1144.88344,34.935735 1144.99194,35.4782113 1145.21246,35.9866624 C1145.43266,36.4951135 1145.72797,36.9361564 1146.10129,37.307544 C1146.473,37.6792526 1146.91211,37.9742441 1147.42056,38.1947655 C1147.92902,38.4152869 1148.47117,38.5253871 1149.04896,38.5253871 C1149.62514,38.5253871 1150.16729,38.4152869 1150.67574,38.1947655 C1151.18419,37.9742441 1151.62331,37.6792526 1151.99695,37.307544 C1152.36833,36.9361564 1152.66365,36.4951135 1152.88385,35.9866624 Z M1153.16857,31.0138564 L1153.16857,29.2378084 L1154.53406,29.2378084 L1154.53406,39.0713943 C1154.53406,40.3762262 1154.34372,41.4306845 1153.96495,42.2357321 C1153.5865,43.0394958 1153.11143,43.661899 1152.54263,44.1010159 C1151.97351,44.5417377 1151.36202,44.8370503 1150.70977,44.9898424 C1150.05719,45.1410296 1149.46528,45.2174256 1148.935,45.2174256 C1148.40376,45.2174256 1147.88279,45.1676719 1147.37595,45.0681644 C1146.8675,44.9702619 1146.38569,44.8264575 1145.93052,44.6361093 C1145.47535,44.4457612 1145.06127,44.214647 1144.68989,43.9427669 C1144.31818,43.6686399 1143.99462,43.3575987 1143.72242,43.0093226 L1144.791,42.0081489 C1145.27634,42.6908986 1145.88462,43.190683 1146.61327,43.5107119 C1147.34064,43.8288148 1148.11583,43.9870638 1148.935,43.9870638 C1149.6322,43.9870638 1150.22058,43.8962231 1150.69917,43.7151837 C1151.17713,43.5318973 1151.57195,43.2937213 1151.88299,42.9968039 C1152.19243,42.7018123 1152.43606,42.3747216 1152.61036,42.0187416 C1152.78466,41.6614777 1152.91434,41.3061397 1152.9978,40.9485547 C1153.08126,40.5932167 1153.13133,40.2552123 1153.14545,39.9351834 C1153.16118,39.6170805 1153.16857,39.359003 1153.16857,39.161914 L1153.16857,37.7058949 L1153.12202,37.7058949 C1152.72752,38.3421008 1152.19243,38.8438111 1151.51835,39.2081368 C1150.84298,39.5724626 1150.05013,39.754144 1149.1398,39.754144 C1148.3646,39.754144 1147.63723,39.6132286 1146.9548,39.3323607 C1146.27206,39.0514928 1145.67629,38.6656606 1145.16784,38.1716541 C1144.65939,37.6792526 1144.25751,37.1066031 1143.96059,36.4543476 C1143.6656,35.8014501 1143.51634,35.1029718 1143.51634,34.3598756 C1143.51634,33.6167795 1143.6656,32.9179802 1143.96059,32.2654037 C1144.25751,31.6131482 1144.65939,31.0440296 1145.16784,30.5586899 C1145.67629,30.0733502 1146.27206,29.685913 1146.9548,29.3976623 C1147.63723,29.1097326 1148.3646,28.9640023 1149.1398,28.9640023 C1150.05013,28.9640023 1150.84298,29.1469677 1151.51835,29.5116144 C1152.19243,29.8743352 1152.72752,30.3757245 1153.12202,31.0138564 L1153.16857,31.0138564 Z M1164.38691,30.3648108 C1164.68383,30.7827422 1164.8883,31.2629461 1165.00193,31.8105582 C1165.11588,32.3562444 1165.1727,32.9179802 1165.1727,33.4941606 L1165.1727,39.754144 L1163.8072,39.754144 L1163.8072,33.5634948 C1163.8072,33.1385016 1163.76804,32.7244221 1163.69357,32.3225402 C1163.61717,31.9206584 1163.48396,31.5598635 1163.29522,31.2414396 C1163.10519,30.9214107 1162.84005,30.6687901 1162.49884,30.4784419 C1162.15762,30.2887357 1161.71305,30.1943641 1161.16704,30.1943641 C1160.66565,30.1943641 1160.19123,30.2813529 1159.7428,30.4556515 C1159.29694,30.6299501 1158.90918,30.8963734 1158.58209,31.2523533 C1158.25661,31.6096173 1157.99917,32.0574009 1157.80882,32.5944203 C1157.61848,33.1330447 1157.5241,33.7679666 1157.5241,34.4966182 L1157.5241,39.754144 L1156.1586,39.754144 L1156.1586,23.250026 L1157.5241,23.250026 L1157.5241,31.0812647 L1157.57065,31.0812647 C1157.84221,30.5054053 1158.29737,30.0075469 1158.93615,29.5899364 C1159.57235,29.17361 1160.31577,28.9640023 1161.16704,28.9640023 C1161.98685,28.9640023 1162.65355,29.093683 1163.16907,29.3517605 C1163.6849,29.609196 1164.0916,29.9472004 1164.38691,30.3648108 Z M1168.16498,30.4665652 L1168.16498,37.4552002 C1168.16498,37.9264163 1168.29306,38.2907421 1168.55082,38.5484985 C1168.80857,38.806576 1169.16584,38.9343308 1169.621,38.9343308 C1169.87908,38.9343308 1170.14005,38.9006266 1170.40679,38.8332183 C1170.65556,38.767415 1171.05038,38.6197587 1171.29754,38.5147944 L1171.29754,39.7968359 C1171.04171,39.8838247 1170.71815,39.9759494 1170.39427,40.0510615 C1170.06205,40.1255316 1169.76513,40.1646926 1169.50705,40.1646926 C1169.02203,40.1646926 1168.6041,40.0918274 1168.2555,39.9477021 C1167.9053,39.8035767 1167.62636,39.6100187 1167.4129,39.3663858 C1167.20137,39.1246789 1167.04472,38.8399592 1166.94714,38.5131894 C1166.84731,38.1877037 1166.79788,37.8336496 1166.79788,37.4552002 L1166.79788,26.210534 L1168.16498,26.210534 L1168.16498,29.2381294 L1171.29754,29.2381294 L1171.29754,30.4665652 L1168.16498,30.4665652 Z" id="Combined-Shape"></path>
            </g>
        </g>
    </g>
</svg>