<?xml version="1.0" encoding="UTF-8"?>
<svg width="67px" height="30px" viewBox="0 0 67 30" version="1.1" xmlns="http://www.w3.org/2000/svg" xmlns:xlink="http://www.w3.org/1999/xlink">
    <!-- Generator: Sketch 52.5 (67469) - http://www.bohemiancoding.com/sketch -->
    <title>mio-logo</title>
    <desc>Created with Sketch.</desc>
    <g id="Website" stroke="none" stroke-width="1" fill="none" fill-rule="evenodd" opacity="0.5">
        <g id="Home-(Slack-lander)" transform="translate(-1118.000000, -1518.000000)">
            <g id="Group-55" transform="translate(235.000000, 1499.000000)">
                <g id="mio-logo" transform="translate(883.000000, 19.000000)">
                    <polyline id="Path" fill="#34414F" opacity="0.400000006" points="20.5 2 20.5 30 15.3531036 24.6542812 0.5 24.6542812 0.5 2 20.4440395 2"></polyline>
                    <polygon id="Path" fill="#34414F" opacity="0.400000006" points="22.5 0 22.5 28 17.3531036 22.6527512 2.5 22.6527512 2.5 0"></polygon>
                    <polygon id="Path" fill="#34414F" points="2.5 2 2.5 22.100853 17.6246773 22.100853 20.5 25 20.5 2.05433071"></polygon>
                    <path d="M6.5,12.4991182 C6.5,13.3280423 6.05274795,14 5.49936829,14 C4.94598863,14 4.5,13.3280423 4.5,12.4991182 C4.5,11.670194 4.94725205,11 5.49936829,11 C6.05148452,11 6.5,11.670194 6.5,12.4991182" id="Path" fill="#FFFFFF"></path>
                    <path d="M30.0039842,6.63581316 C30.150787,6.64184589 30.2917832,6.69553485 30.4061525,6.78895192 C30.5980153,6.94553266 30.7710549,7.12439923 30.9217141,7.32187481 L37.2717396,14.6189368 L43.5597767,7.32187481 C43.7277021,7.13322909 43.9069517,6.95525044 44.0965051,6.78895192 C44.2011579,6.69408248 44.3356052,6.63982778 44.4759947,6.63581316 C44.6313706,6.6224959 44.7801765,6.70204408 44.8569962,6.83948771 C44.9426308,7.0315094 44.9810213,7.24169907 44.9688776,7.45204275 L44.9688776,22.1839916 C45.0001643,22.3357114 44.953814,22.493182 44.8456106,22.6027792 C44.7374072,22.7123765 44.5819394,22.759324 44.4321493,22.7276342 L42.401653,22.7276342 C42.2494599,22.7416496 42.097671,22.6967847 41.9768061,22.6020604 C41.8761604,22.4879221 41.8273532,22.3362815 41.842246,22.1839916 L41.842246,13.6388487 L38.0624689,18.1947269 C37.9179242,18.3722297 37.7569266,18.5353013 37.5816813,18.6817081 C37.4820459,18.7600279 37.3600427,18.8035478 37.2339418,18.8057505 C37.11228,18.7995855 36.995292,18.7563509 36.8982976,18.6817081 C36.7211828,18.5409399 36.5630952,18.3772116 36.4280933,18.1947269 L32.6483163,13.6388487 L32.6483163,22.1839916 C32.6639745,22.3363647 32.6150687,22.4883119 32.5137562,22.6020604 C32.3928913,22.6967847 32.2411024,22.7416496 32.0889092,22.7276342 L30.0463177,22.7276342 C29.8965276,22.759324 29.7410597,22.7123765 29.6328564,22.6027792 C29.524653,22.493182 29.4783026,22.3357114 29.5095894,22.1839916 L29.5095894,7.45510553 C29.5095894,6.90686876 29.6743876,6.63581316 30.0039842,6.63581316 Z M48.6639877,6.91911986 C48.8113461,6.64048513 49.0322356,6.40879736 49.3020141,6.24990348 C49.5831655,6.08245388 49.9041986,5.99613057 50.2303273,6.0002873 C50.5638375,5.99434622 50.8926323,6.08064819 51.1813192,6.24990348 C51.4504138,6.40967947 51.6710929,6.64114655 51.8193456,6.91911986 C52.1182761,7.49425927 52.1182761,8.1816456 51.8193456,8.756785 C51.6723476,9.03252627 51.4510985,9.2603429 51.1813192,9.41375029 C50.8901896,9.57553745 50.5623392,9.6573681 50.2303273,9.65111537 C49.9057066,9.6557017 49.5855899,9.57384945 49.3020141,9.41375029 C49.0316176,9.26116214 48.8101668,9.0331378 48.6639877,8.756785 C48.3650572,8.1816456 48.3650572,7.49425927 48.6639877,6.91911986 Z M48.8318098,11.7429908 C48.9486332,11.6484862 49.0972968,11.603972 49.2460734,11.6189484 L51.1919026,11.6189484 C51.3462419,11.6045043 51.5003687,11.6487179 51.6243091,11.7429908 C51.7241616,11.8581324 51.7723451,12.0100913 51.7573573,12.1625911 L51.7573573,22.1809288 C51.7726595,22.3329967 51.7244098,22.4846085 51.6243091,22.5989976 C51.502505,22.6930086 51.3505318,22.7377686 51.1979502,22.7245714 L49.2460734,22.7245714 C49.0962832,22.7562612 48.9408154,22.7093138 48.832612,22.5997165 C48.7244086,22.4901192 48.6780583,22.3326486 48.709345,22.1809288 L48.709345,12.1656538 C48.6942386,12.0139858 48.7381787,11.8623356 48.8318098,11.7429908 Z M55.3315145,14.1717716 C55.8326202,13.2944002 56.5657249,12.5762494 57.4481896,12.0982728 C59.3846154,11.0996935 61.6758243,11.0996935 63.6122501,12.0982728 C64.4990652,12.5734573 65.2357842,13.292069 65.7379967,14.1717716 C66.7540011,16.0415611 66.7540011,18.3080843 65.7379967,20.1778738 C65.2353307,21.0572167 64.4987273,21.7757154 63.6122501,22.2513727 C62.6543227,22.761954 61.5845277,23.0190202 60.5022495,22.9986898 C59.4270157,23.0207683 58.3641235,22.7634846 57.4149276,22.2513727 C56.5394948,21.7723148 55.8144762,21.0538746 55.322443,20.1778738 C54.3190535,18.3038503 54.3230389,16.0421553 55.3330264,14.1717716 L55.3315145,14.1717716 Z M61.9672911,19.8256547 C62.4072753,19.5836751 62.7685837,19.2177122 63.0074858,18.77206 C63.5133749,17.7683391 63.5133749,16.5797749 63.0074858,15.576054 C62.7677493,15.1310336 62.4066516,14.7652841 61.9672911,14.5224594 C61.5162456,14.2787673 61.0119095,14.1539554 60.5007376,14.1595205 C59.9970259,14.1518877 59.4999994,14.2769534 59.0583747,14.5224594 C58.6311096,14.7653114 58.2816312,15.1272643 58.051442,15.5653343 C57.5585934,16.5791889 57.5585934,17.7673938 58.051442,18.7812483 C58.2812387,19.2192168 58.6308498,19.5807755 59.0583747,19.8225919 C59.4997435,20.0687602 59.9969461,20.1938702 60.5007376,20.1855308 C61.0117592,20.193032 61.5163208,20.0692182 61.9672911,19.8256547 Z" id="Combined-Shape" fill="#34414F"></path>
                    <path d="M12.4999483,12.5231308 C12.4872192,13.3484265 11.8100866,14.0083728 10.9847009,13.9999197 C10.1593152,13.9914666 9.4958419,13.3177905 9.50001962,12.4924073 C9.50419736,11.667024 10.1744562,11.0000981 10.9998852,11 C11.4008721,11.0028201 11.7842871,11.1649371 12.0656568,11.4506337 C12.3470266,11.7363303 12.5032644,12.1221648 12.4999483,12.5231308" id="Path" fill="#FFFFFF"></path>
                    <path d="M18.4999481,12.5249397 C18.4862274,13.3499803 17.8086662,14.0090155 16.9835187,13.9999067 C16.1583711,13.9907979 15.495525,13.3169659 15.5000228,12.4918234 C15.5045205,11.6666809 16.1746728,11.0001141 16.9998706,11 C17.4010277,11.0032937 17.7844444,11.1658103 18.0657663,11.4517949 C18.3470884,11.7377796 18.5032693,12.1238038 18.4999481,12.5249397" id="Path" fill="#FFFFFF"></path>
                </g>
            </g>
        </g>
    </g>
</svg>