<?xml version="1.0" encoding="UTF-8"?>
<svg width="600px" height="199px" viewBox="0 0 600 199" version="1.1" xmlns="http://www.w3.org/2000/svg" xmlns:xlink="http://www.w3.org/1999/xlink">
    <!-- Generator: Sketch 47 (45396) - http://www.bohemiancoding.com/sketch -->
    <title>Group 3</title>
    <desc>Created with Sketch.</desc>
    <defs></defs>
    <g id="September-6th---Private-Board" stroke="none" stroke-width="1" fill="none" fill-rule="evenodd">
        <g id="About-Carrot-Modal" transform="translate(-338.000000, -205.000000)">
            <g id="Group-3" transform="translate(338.000000, 205.000000)">
                <g transform="translate(-66.000000, -94.000000)" id="Fill-1">
                    <g>
                        <path d="M470.975785,127.750132 C484.601842,65.3426143 534.753665,13.6667306 598.034537,13.6954594 C661.315409,13.6667306 711.467231,65.3426143 725.093289,127.750132 C738.311398,187.949843 681.396823,249.818696 598.034537,251.661647 C514.672251,249.818696 457.757675,187.951279 470.975785,127.750132" fill="#FA5252"></path>
                        <path d="M404.232208,97.8280334 C407.098218,57.5361171 436.902676,29.7661462 466.834609,34.8351457 C496.7072,39.9041453 526.156336,68.2521536 529.43701,97.1847928 C532.734534,125.970175 506.220274,153.740146 466.834609,160.177681 C427.508286,166.615947 401.35008,138.267939 404.232208,97.8280334" fill-opacity="0.899999976" fill="#C67DFF"></path>
                        <path d="M0.536932903,80.0540075 C-10.9626778,199.603851 165.75881,245.134365 194.628814,126.213372 C204.508938,74.688816 169.415495,10.1216292 116.985898,0.887473744 C79.9066158,-6.42247131 -5.80634182,32.3573293 1.5960475,82.8684219" fill="#FFD24A"></path>
                        <path d="M128.049963,222.953375 C129.817396,213.69248 138.658609,205.534645 147.745881,204.391586 C156.823864,203.268764 165.638161,211.614451 167.490392,223.372172 C169.343576,235.119178 160.494026,243.917945 147.78566,242.553227 C135.086584,241.189223 126.282054,232.203795 128.049963,222.953375" fill="#FA5252"></path>
                        <path d="M130.137992,283.356449 C130.551552,277.545115 134.852273,273.539831 139.171388,274.270937 C143.481941,275.002042 147.73139,279.090697 148.204784,283.263674 C148.68061,287.415412 144.854657,291.420696 139.171388,292.349187 C133.496682,293.277783 129.722107,289.189128 130.137992,283.356449" fill-opacity="0.899999976" fill="#C67DFF"></path>
                        <path d="M619.060956,247.158955 C618.058052,257.580285 633.470286,261.549245 635.988097,251.182733 C636.849763,246.691264 633.789193,241.062851 629.216703,240.257896 C625.982945,239.620678 618.507746,243.001168 619.153323,247.404292" fill="#FFD24A"></path>
                    </g>
                </g>
            </g>
        </g>
    </g>
</svg>