<svg width="20" height="12" viewBox="0 0 20 12" fill="none" xmlns="http://www.w3.org/2000/svg">
<path fill-rule="evenodd" clip-rule="evenodd" d="M8.97535 12C8.88156 12.0002 8.78802 11.9901 8.69638 11.9697C8.36368 11.8954 8.07366 11.6896 7.89016 11.3977C7.70665 11.1057 7.6447 10.7516 7.71794 10.4132L9.76918 1.02399C9.92297 0.319335 10.6092 -0.125089 11.302 0.0313407C11.9947 0.187771 12.4316 0.885819 12.2779 1.59047L10.2266 10.9797C10.0952 11.5755 9.57562 11.9992 8.97535 12ZM19.6246 6.92355C19.865 6.67916 20.0001 6.34759 20.0001 6.00184C20.0001 5.65609 19.865 5.32452 19.6246 5.08013L15.5221 0.907139C15.2003 0.568049 14.7237 0.431957 14.2754 0.55117C13.8271 0.670383 13.477 1.02635 13.3595 1.48225C13.2421 1.93815 13.3756 2.42305 13.7088 2.75056L16.5385 5.63305C16.7387 5.83674 16.7387 6.16693 16.5385 6.37063L13.7088 9.25312C13.2231 9.76494 13.2302 10.5783 13.7249 11.0812C14.2196 11.5841 15.0192 11.5909 15.5221 11.0965L19.6246 6.92355ZM6.29132 0.907153C6.05101 0.662264 5.72482 0.524649 5.38467 0.524649C5.04451 0.524649 4.71832 0.662264 4.47802 0.907153L0.375529 5.08014C0.135091 5.32453 0 5.65611 0 6.00185C0 6.3476 0.135091 6.67917 0.375529 6.92356L4.47802 11.0966C4.79981 11.4356 5.27643 11.5717 5.7247 11.4525C6.17296 11.3333 6.52311 10.9773 6.64057 10.5214C6.75802 10.0655 6.62449 9.58064 6.29132 9.25313L3.45752 6.37064C3.25733 6.16695 3.25733 5.83676 3.45752 5.63306L6.29132 2.75057C6.53175 2.50618 6.66684 2.17461 6.66684 1.82886C6.66684 1.48312 6.53175 1.15154 6.29132 0.907153Z" fill="#34414F"/>
</svg>
