<?xml version="1.0" encoding="UTF-8"?>
<svg width="16px" height="14px" viewBox="0 0 16 14" version="1.1" xmlns="http://www.w3.org/2000/svg" xmlns:xlink="http://www.w3.org/1999/xlink">
    <!-- Generator: Sketch 52.6 (67491) - http://www.bohemiancoding.com/sketch -->
    <title>Combined Shape</title>
    <desc>Created with Sketch.</desc>
    <g id="Post-authoring" stroke="none" stroke-width="1" fill="none" fill-rule="evenodd">
        <g id="Full-screen-post-(start)" transform="translate(-944.000000, -281.000000)" fill="#34414F">
            <g id="Group-7" transform="translate(320.000000, 186.000000)">
                <g id="Group-6" transform="translate(0.000000, 89.000000)">
                    <g id="Group-34" transform="translate(0.000000, 4.000000)">
                        <g id="Group-9" transform="translate(550.000000, 2.000000)">
                            <path d="M74,1.55173612 C74,0.694735924 74.6520332,0 75.4552036,0 L88.5447964,0 C89.3484831,0 90,0.694262177 90,1.55173612 L90,12.4482639 C90,13.3052641 89.3479668,14 88.5447964,14 L75.4552036,14 C74.6515169,14 74,13.3057378 74,12.4482639 L74,1.55173612 Z M78.5088739,4.29170283 C78.7217148,3.79659816 79.1018253,3.77460119 79.3543034,4.23604442 L80.8202209,6.91523793 C81.0742979,7.3796033 81.6083226,7.51966091 82.0156214,7.22617541 L82.8689947,6.61126408 C83.2751192,6.31862473 83.8265657,6.44273716 84.1058769,6.89691967 L86.0593124,10.0733627 C86.336299,10.5237653 86.1733301,10.8888887 85.6973743,10.8888887 L76.536272,10.8888889 C76.0593924,10.8888889 75.8460044,10.4859976 76.0581877,9.99242261 L78.5088739,4.29170283 Z M85.8876623,5.88888889 C85.0592352,5.88888889 84.3876623,5.21731601 84.3876623,4.38888889 C84.3876623,3.56046176 85.0592352,2.88888889 85.8876623,2.88888889 C86.7160894,2.88888889 87.3876623,3.56046176 87.3876623,4.38888889 C87.3876623,5.21731601 86.7160894,5.88888889 85.8876623,5.88888889 Z" id="Combined-Shape"></path>
                        </g>
                    </g>
                </g>
            </g>
        </g>
    </g>
</svg>