<?xml version="1.0" encoding="UTF-8"?>
<svg width="24px" height="14px" viewBox="0 0 24 14" version="1.1" xmlns="http://www.w3.org/2000/svg" xmlns:xlink="http://www.w3.org/1999/xlink">
    <!-- Generator: Sketch 52.6 (67491) - http://www.bohemiancoding.com/sketch -->
    <title>Gif-icon</title>
    <desc>Created with Sketch.</desc>
    <g id="Post-authoring" stroke="none" stroke-width="1" fill="none" fill-rule="evenodd">
        <g id="Full-screen-post-(start)" transform="translate(-870.000000, -281.000000)" fill="#34414F">
            <g id="Group-7" transform="translate(320.000000, 186.000000)">
                <g id="Group-6" transform="translate(0.000000, 89.000000)">
                    <g id="Group-34" transform="translate(0.000000, 4.000000)">
                        <g id="Group-9" transform="translate(550.000000, 2.000000)">
                            <path d="M2,0 L22,0 C23.1045695,-2.02906125e-16 24,0.8954305 24,2 L24,12 C24,13.1045695 23.1045695,14 22,14 L2,14 C0.8954305,14 1.3527075e-16,13.1045695 0,12 L0,2 C-1.3527075e-16,0.8954305 0.8954305,2.02906125e-16 2,0 Z M9.39399625,10.8376184 L10.8348968,10.8376184 L10.8348968,6.73477673 L6.77110694,6.73477673 L6.77110694,8.18538566 L9.16885553,8.18538566 C9.14634135,8.2936406 9.09193289,8.41993613 9.00562852,8.56427605 C8.91932415,8.70861597 8.79737415,8.84573683 8.63977486,8.97564276 C8.48217557,9.10554869 8.28517942,9.21560622 8.04878049,9.30581867 C7.81238156,9.39603112 7.52908233,9.44113667 7.1988743,9.44113667 C6.87617099,9.44113667 6.57035792,9.38881424 6.28142589,9.28416779 C5.99249386,9.17952135 5.73733694,9.02616249 5.51594747,8.8240866 C5.29455799,8.62201072 5.12007568,8.36941965 4.99249531,8.06630582 C4.86491493,7.76319199 4.8011257,7.40956449 4.8011257,7.00541272 C4.8011257,6.57960996 4.87241955,6.21515713 5.01500938,5.9120433 C5.15759921,5.60892947 5.34333844,5.35994685 5.57223265,5.16508796 C5.80112685,4.97022907 6.05440762,4.82769553 6.33208255,4.73748309 C6.60975749,4.64727064 6.88367595,4.60216509 7.15384615,4.60216509 C7.48405418,4.60216509 7.76735341,4.64907486 8.00375235,4.74289581 C8.24015128,4.83671675 8.43714743,4.95399118 8.59474672,5.0947226 C8.752346,5.23545402 8.874296,5.38340022 8.96060038,5.53856563 C9.04690475,5.69373104 9.10506552,5.82904769 9.13508443,5.94451962 L10.8461538,5.37077131 C10.7560971,5.10374246 10.621014,4.82950073 10.4409006,4.54803789 C10.2607871,4.26657505 10.0225156,4.01217976 9.7260788,3.78484438 C9.42964205,3.55750901 9.06942051,3.36986993 8.64540338,3.22192152 C8.22138625,3.0739731 7.72420548,3 7.15384615,3 C6.59099156,3 6.05816386,3.09562376 5.55534709,3.28687415 C5.05253032,3.47812455 4.61163417,3.74875783 4.2326454,4.09878214 C3.85365664,4.44880644 3.55347203,4.86919015 3.33208255,5.35994587 C3.11069308,5.8507016 3,6.39918506 3,7.00541272 C3,7.61164038 3.10694077,8.16012384 3.32082552,8.65087957 C3.53471026,9.14163529 3.82363795,9.562019 4.18761726,9.9120433 C4.55159657,10.2620676 4.97935964,10.5308967 5.47091932,10.7185386 C5.96247901,10.9061805 6.48592593,11 7.0412758,11 C7.61163512,11 8.08442589,10.9043762 8.45966229,10.7131258 C8.83489869,10.5218755 9.10881715,10.3035646 9.28142589,10.0581867 L9.39399625,10.8376184 Z M12.3320826,10.8376184 L14.1332083,10.8376184 L14.1332083,3.1623816 L12.3320826,3.1623816 L12.3320826,10.8376184 Z M15.8555347,10.8376184 L17.6454034,10.8376184 L17.6454034,7.96887686 L20.5947467,7.96887686 L20.5947467,6.41001353 L17.6341463,6.41001353 L17.6341463,4.78619756 L21,4.78619756 L21,3.1623816 L15.8555347,3.1623816 L15.8555347,10.8376184 Z" id="Gif-icon"></path>
                        </g>
                    </g>
                </g>
            </g>
        </g>
    </g>
</svg>