<svg width="10" height="10" viewBox="0 0 10 10" fill="none" xmlns="http://www.w3.org/2000/svg">
<path fill-rule="evenodd" clip-rule="evenodd" d="M6.28013 8.79956C6.08137 8.88275 5.85229 8.84017 5.69657 8.69108L4.1032 7.09647L0.844842 9.87996C0.7492 9.96026 0.627613 10.0029 0.502852 9.99985C0.304462 9.99592 0.126126 9.87775 0.0449254 9.69641C-0.0362748 9.51507 -0.00577443 9.30309 0.123243 9.1521L2.90188 5.8942L1.31226 4.30333C1.16064 4.14717 1.11689 3.91538 1.20111 3.71457C1.28534 3.51375 1.48124 3.3828 1.69871 3.38193H3.54887L5.39904 0.342014C5.49562 0.174798 5.65821 0.0561979 5.84675 0.0154312C6.03528 -0.0253355 6.23224 0.0155208 6.3891 0.127935L9.87227 3.61142C9.9845 3.76853 10.0253 3.9658 9.98459 4.15463C9.94389 4.34346 9.82548 4.5063 9.65852 4.60304L6.6131 6.45268V8.30746C6.6096 8.52318 6.47889 8.71636 6.28013 8.79956Z" fill="#242D42" />
</svg>
