<?xml version="1.0" encoding="UTF-8"?>
<svg width="18px" height="18px" viewBox="0 0 18 18" version="1.1" xmlns="http://www.w3.org/2000/svg" xmlns:xlink="http://www.w3.org/1999/xlink">
    <!-- Generator: Sketch 52.6 (67491) - http://www.bohemiancoding.com/sketch -->
    <title>Combined Shape</title>
    <desc>Created with Sketch.</desc>
    <g id="Mobile" stroke="none" stroke-width="1" fill="none" fill-rule="evenodd">
        <g id="Action-sheet-(m)" transform="translate(-31.000000, -553.000000)" fill="#34414F" stroke="#34414F" stroke-width="0.5">
            <g id="Group-10" transform="translate(0.000000, 336.000000)">
                <g id="Group-9" transform="translate(16.000000, 202.000000)">
                    <g id="Group-6">
                        <g id="Group-3">
                            <path d="M26.9293585,21.0708422 C27.2529154,21.3943991 27.2521005,21.9198034 26.9320548,22.2398491 L22.2398491,26.9320548 C21.9177813,27.2541226 21.3966549,27.2551712 21.0708422,26.9293585 C20.7472852,26.6058016 20.7481001,26.0803973 21.0681458,25.7603516 L25.7603516,21.0681458 C26.0824193,20.746078 26.6035458,20.7450295 26.9293585,21.0708422 Z M21.8993733,29.6159371 C20.929706,30.5856045 19.3532995,30.5849968 18.3842517,29.615949 C17.4143869,28.6460842 17.414878,27.0702129 18.3842635,26.1008273 L20.7276582,23.7574326 C21.0512151,23.4338757 21.0512151,22.9092863 20.7276582,22.5857294 C20.4041013,22.2621724 19.8795119,22.2621724 19.555955,22.5857294 L17.2125603,24.929124 C15.5962243,26.54546 15.5954062,29.17051 17.2125484,30.7876522 C18.828508,32.4036118 21.4540931,32.4046239 23.0710766,30.7876404 L25.4144713,28.4442457 C25.7380282,28.1206888 25.7380282,27.5960994 25.4144713,27.2725424 C25.0909144,26.9489855 24.5663249,26.9489855 24.242768,27.2725424 L21.8993733,29.6159371 Z M30.7876404,23.0710766 C32.4046239,21.4540931 32.4036118,18.828508 30.7876522,17.2125484 C29.17051,15.5954062 26.54546,15.5962243 24.929124,17.2125603 L22.5857294,19.555955 C22.2621724,19.8795119 22.2621724,20.4041013 22.5857294,20.7276582 C22.9092863,21.0512151 23.4338757,21.0512151 23.7574326,20.7276582 L26.1008273,18.3842635 C27.0702129,17.414878 28.6460842,17.4143869 29.615949,18.3842517 C30.5849968,19.3532995 30.5856045,20.929706 29.6159371,21.8993733 L27.2725424,24.242768 C26.9489855,24.5663249 26.9489855,25.0909144 27.2725424,25.4144713 C27.5960994,25.7380282 28.1206888,25.7380282 28.4442457,25.4144713 L30.7876404,23.0710766 Z" id="Combined-Shape"></path>
                        </g>
                    </g>
                </g>
            </g>
        </g>
    </g>
</svg>