<?xml version="1.0" encoding="UTF-8"?>
<svg width="14px" height="14px" viewBox="0 0 14 14" version="1.1" xmlns="http://www.w3.org/2000/svg" xmlns:xlink="http://www.w3.org/1999/xlink">
    <!-- Generator: Sketch 52.6 (67491) - http://www.bohemiancoding.com/sketch -->
    <title>Combined Shape</title>
    <desc>Created with Sketch.</desc>
    <g id="All-posts" stroke="none" stroke-width="1" fill="none" fill-rule="evenodd">
        <g id="Mobile-nav-headers" transform="translate(-50.000000, -393.000000)" fill="#34414F" stroke="#34414F" stroke-width="0.2">
            <g id="Group" transform="translate(0.000000, 174.000000)">
                <g id="Group-2" transform="translate(0.000000, 198.000000)">
                    <path d="M57,34.1 C53.631063,34.1 50.9,31.368937 50.9,28 C50.9,24.631063 53.631063,21.9 57,21.9 C60.368937,21.9 63.1,24.631063 63.1,28 C63.1,31.368937 60.368937,34.1 57,34.1 Z M54.8589544,32.185196 C54.359332,31.1931012 54.0204283,29.9467562 53.9265906,28.7 L52.3517663,28.7 C52.5765365,30.2044099 53.5208194,31.4996587 54.8589544,32.185196 Z M52.3517663,27.3 L53.9259637,27.3 C54.0178625,26.0511213 54.3504857,24.8099941 54.8435063,23.8227591 C53.5132974,24.5104758 52.5756354,25.8016223 52.3517663,27.3 Z M61.6482337,27.3 C61.4243646,25.8016223 60.4867026,24.5104758 59.1564937,23.8227591 C59.6495143,24.8099941 59.9821375,26.0511213 60.0740357,27.3 L61.6482337,27.3 Z M59.1410456,32.185196 C60.4791806,31.4996587 61.4234635,30.2044099 61.6482337,28.7 L60.0734093,28.7 C59.9795717,29.9467562 59.640668,31.1931012 59.1410456,32.185196 Z M58.6704192,28.7 L55.3295801,28.7 C55.4147905,29.7116847 55.6812903,30.6949967 56.0850129,31.5066176 C56.4155271,32.1710646 56.8661874,32.7 57,32.7 C57.1338126,32.7 57.5844729,32.1710646 57.9149871,31.5066176 C58.3187097,30.6949967 58.5852095,29.7116847 58.6704192,28.7 Z M55.3289706,27.3 L58.6710301,27.3 C58.5871562,26.283809 58.3239534,25.2991361 57.9252896,24.4914481 C57.5929041,23.818039 57.1474028,23.3 57,23.3 C56.8525972,23.3 56.4070959,23.818039 56.0747104,24.4914481 C55.6760466,25.2991361 55.4128438,26.283809 55.3289706,27.3 Z" id="Combined-Shape"></path>
                </g>
            </g>
        </g>
    </g>
</svg>