<?xml version="1.0" encoding="UTF-8"?>
<svg width="16px" height="16px" viewBox="0 0 16 16" version="1.1" xmlns="http://www.w3.org/2000/svg" xmlns:xlink="http://www.w3.org/1999/xlink">
    <!-- Generator: Sketch 52.6 (67491) - http://www.bohemiancoding.com/sketch -->
    <title>Combined Shape</title>
    <desc>Created with Sketch.</desc>
    <g id="Mobile-MVP" stroke="none" stroke-width="1" fill="none" fill-rule="evenodd">
        <g id="MVP---Pull-down-to-reveal-filter-(July-17)" transform="translate(-16.000000, -105.000000)" fill="#34414F">
            <path d="M31.7441159,119.502521 C32.0854566,119.843862 32.0866177,120.396123 31.7413705,120.74137 C31.3985135,121.084227 30.8444194,121.086014 30.5025211,120.744116 L26.5784079,116.820003 C25.4706241,117.666361 24.086298,118.169101 22.5845507,118.169101 C18.9480037,118.169101 16,115.221098 16,111.584551 C16,107.948004 18.9480037,105 22.5845507,105 C26.2210976,105 29.1691013,107.948004 29.1691013,111.584551 C29.1691013,113.086298 28.6663614,114.470624 27.8200027,115.578408 L31.7441159,119.502521 Z M22.5845507,116.413221 C25.2513517,116.413221 27.4132212,114.251352 27.4132212,111.584551 C27.4132212,108.91775 25.2513517,106.75588 22.5845507,106.75588 C19.9177496,106.75588 17.7558802,108.91775 17.7558802,111.584551 C17.7558802,114.251352 19.9177496,116.413221 22.5845507,116.413221 Z" id="Combined-Shape"></path>
        </g>
    </g>
</svg>