<?xml version="1.0" encoding="UTF-8"?>
<svg width="10px" height="13px" viewBox="0 0 10 13" version="1.1" xmlns="http://www.w3.org/2000/svg" xmlns:xlink="http://www.w3.org/1999/xlink">
    <!-- Generator: Sketch 52.6 (67491) - http://www.bohemiancoding.com/sketch -->
    <title>Group 4</title>
    <desc>Created with Sketch.</desc>
    <g id="All-posts" stroke="none" stroke-width="1" fill="none" fill-rule="evenodd">
        <g id="Mobile-nav-headers" transform="translate(-53.000000, -459.000000)" stroke="#34414F" stroke-width="1.5">
            <g id="Group" transform="translate(0.000000, 174.000000)">
                <g id="Group-2" transform="translate(0.000000, 264.000000)">
                    <g id="Group-4" transform="translate(53.000000, 21.000000)">
                        <path d="M1.75,1.99810135 L1.75,6.00189865 C1.75,6.69590227 2.30561015,7.25 2.99810135,7.25 L7.00189865,7.25 C7.69590227,7.25 8.25,6.69438985 8.25,6.00189865 L8.25,1.99810135 C8.25,1.30409773 7.69438985,0.75 7.00189865,0.75 L2.99810135,0.75 C2.30409773,0.75 1.75,1.30561015 1.75,1.99810135 Z" id="Rectangle-18"></path>
                        <path d="M0.75,6.50473881 L0.75,11.4952612 C0.75,11.9160518 1.08307556,12.25 1.49710104,12.25 L8.50289896,12.25 C8.91385817,12.25 9.25,11.9123584 9.25,11.4952612 L9.25,6.50473881 C9.25,6.08394819 8.91692444,5.75 8.50289896,5.75 L1.49710104,5.75 C1.08614183,5.75 0.75,6.08764159 0.75,6.50473881 Z" id="Rectangle-19" fill="#34414F"></path>
                    </g>
                </g>
            </g>
        </g>
    </g>
</svg>