<?xml version="1.0" encoding="UTF-8"?>
<svg width="40px" height="40px" viewBox="0 0 40 40" version="1.1" xmlns="http://www.w3.org/2000/svg" xmlns:xlink="http://www.w3.org/1999/xlink">
    <!-- Generator: Sketch 50.2 (55047) - http://www.bohemiancoding.com/sketch -->
    <title>Group</title>
    <desc>Created with Sketch.</desc>
    <defs></defs>
    <g id="⚙️-Settings-/-modals" stroke="none" stroke-width="1" fill="none" fill-rule="evenodd">
        <g id="Billing-modal" transform="translate(-951.000000, -72.000000)" fill="#FFFFFF" fill-rule="nonzero">
            <g id="Group" transform="translate(951.000000, 72.000000)">
                <path d="M20,40 C8.954305,40 0,31.045695 0,20 C0,8.954305 8.954305,0 20,0 C31.045695,0 40,8.954305 40,20 C40,31.045695 31.045695,40 20,40 Z" id="Combined-Shape" opacity="0.200000003"></path>
                <path d="M26.7437076,14.4937292 C27.0854224,14.1520264 27.085432,13.5980071 26.7437292,13.2562924 C26.4020264,12.9145776 25.8480071,12.914568 25.5062924,13.2562708 L20,18.7623711 L14.4937076,13.2562708 C14.1519929,12.914568 13.5979736,12.9145776 13.2562708,13.2562924 C12.914568,13.5980071 12.9145776,14.1520264 13.2562924,14.4937292 L18.7625416,19.9997864 L13.2562924,25.5058435 C12.9145776,25.8475463 12.914568,26.4015657 13.2562708,26.7432804 C13.5979736,27.0849951 14.1519929,27.0850048 14.4937076,26.743302 L20,21.2372017 L25.5062924,26.743302 C25.8480071,27.0850048 26.4020264,27.0849951 26.7437292,26.7432804 C27.085432,26.4015657 27.0854224,25.8475463 26.7437076,25.5058435 L21.2374584,19.9997864 L26.7437076,14.4937292 Z" id="Combined-Shape"></path>
            </g>
        </g>
    </g>
</svg>