<?xml version="1.0" encoding="UTF-8"?>
<svg width="14px" height="14px" viewBox="0 0 14 14" version="1.1" xmlns="http://www.w3.org/2000/svg" xmlns:xlink="http://www.w3.org/1999/xlink">
    <!-- Generator: Sketch 52.6 (67491) - http://www.bohemiancoding.com/sketch -->
    <title>Combined Shape</title>
    <desc>Created with Sketch.</desc>
    <g id="Expanded-post-view" stroke="none" stroke-width="1" fill="none" fill-rule="evenodd">
        <g id="Post:-Mute-post" transform="translate(-986.000000, -89.000000)" fill="#34414F" stroke="#34414F" stroke-width="0.5">
            <g id="Group-26" transform="translate(388.000000, 56.000000)">
                <g id="Group-24" transform="translate(464.000000, 24.000000)">
                    <g id="Group-Copy-2" transform="translate(74.000000, 0.000000)">
                        <path d="M69.1970189,13.8031316 C69.4396866,14.0457993 69.4390754,14.4398525 69.1990411,14.6798868 L65.6798868,18.1990411 C65.438336,18.440592 65.0474911,18.4413784 64.8031316,18.1970189 C64.5604639,17.9543512 64.5610751,17.560298 64.8011094,17.3202637 L68.3202637,13.8011094 C68.5618145,13.5595585 68.9526593,13.5587721 69.1970189,13.8031316 Z M65.42453,20.2119528 C64.6972795,20.9392033 63.5149747,20.9387476 62.7881888,20.2119617 C62.0607901,19.4845631 62.0611585,18.3026597 62.7881977,17.5756205 L64.5457437,15.8180745 C64.7884114,15.5754068 64.7884114,15.1819647 64.5457437,14.939297 C64.303076,14.6966293 63.9096339,14.6966293 63.6669662,14.939297 L61.9094202,16.696843 C60.6971682,17.909095 60.6965546,19.8778825 61.9094113,21.0907392 C63.121381,22.3027089 65.0905699,22.3034679 66.3033075,21.0907303 L68.0608535,19.3331843 C68.3035212,19.0905166 68.3035212,18.6970745 68.0608535,18.4544068 C67.8181858,18.2117391 67.4247437,18.2117391 67.182076,18.4544068 L65.42453,20.2119528 Z M72.0907303,15.3033075 C73.3034679,14.0905699 73.3027089,12.121381 72.0907392,10.9094113 C70.8778825,9.69655465 68.909095,9.69716822 67.696843,10.9094202 L65.939297,12.6669662 C65.6966293,12.9096339 65.6966293,13.303076 65.939297,13.5457437 C66.1819647,13.7884114 66.5754068,13.7884114 66.8180745,13.5457437 L68.5756205,11.7881977 C69.3026597,11.0611585 70.4845631,11.0607901 71.2119617,11.7881888 C71.9387476,12.5149747 71.9392033,13.6972795 71.2119528,14.42453 L69.4544068,16.182076 C69.2117391,16.4247437 69.2117391,16.8181858 69.4544068,17.0608535 C69.6970745,17.3035212 70.0905166,17.3035212 70.3331843,17.0608535 L72.0907303,15.3033075 Z" id="Combined-Shape"></path>
                    </g>
                </g>
            </g>
        </g>
    </g>
</svg>