<?xml version="1.0" encoding="UTF-8"?>
<svg width="16px" height="14px" viewBox="0 0 16 14" version="1.1" xmlns="http://www.w3.org/2000/svg" xmlns:xlink="http://www.w3.org/1999/xlink">
    <!-- Generator: Sketch 52.6 (67491) - http://www.bohemiancoding.com/sketch -->
    <title>Path</title>
    <desc>Created with Sketch.</desc>
    <g id="Follow-ups" stroke="none" stroke-width="1" fill="none" fill-rule="evenodd">
        <g id="Follow-up-icons" transform="translate(-343.000000, -336.000000)" fill="#34414F" fill-rule="nonzero">
            <g id="Group-3" transform="translate(128.000000, 326.000000)">
                <g id="Group-2" transform="translate(181.000000, 10.000000)">
                    <path d="M34.0015837,13.5089952 C34.0222018,13.7464553 34.1828528,13.9418146 34.3981337,13.9912193 C34.6491215,14.0404583 34.8943751,13.8782613 34.9687788,13.6138265 C35.499325,12.3970015 36.2723041,11.3228882 37.2320153,10.4688869 C38.7474319,9.12516599 40.6420636,8.38515398 42.5999482,8.37226055 L44.6407299,8.37226055 L44.6407299,10.2906737 C44.6438474,10.4142936 44.6926332,10.5313792 44.7761372,10.6156508 C44.8506541,10.6881773 44.9468148,10.7291231 45.0469518,10.7309652 C45.147443,10.7311076 45.2442363,10.6898924 45.3177664,10.6156508 L49.8829273,5.66761251 C50.0390242,5.49615473 50.0390242,5.22056551 49.8829273,5.04910773 L45.3274384,0.122035712 C45.2116009,0.00201568292 45.0414884,-0.0329761739 44.8931361,0.0327004553 C44.7447838,0.0983770845 44.6459184,0.252447385 44.6407299,0.426046538 L44.6407299,2.34445968 L43.818614,2.34445968 C40.7841678,2.38910338 37.9346722,3.93334391 36.0810531,6.53771246 C34.6928603,8.54669561 33.961236,10.9994173 34.0015837,13.5089952 Z" id="Path"></path>
                </g>
            </g>
        </g>
    </g>
</svg>