<?xml version="1.0" encoding="UTF-8"?>
<svg width="16px" height="19px" viewBox="0 0 16 19" version="1.1" xmlns="http://www.w3.org/2000/svg" xmlns:xlink="http://www.w3.org/1999/xlink">
    <!-- Generator: Sketch 49 (51002) - http://www.bohemiancoding.com/sketch -->
    <title>Combined Shape</title>
    <desc>Created with Sketch.</desc>
    <defs></defs>
    <g id="➡️-Boards-&amp;-Posts" stroke="none" stroke-width="1" fill="none" fill-rule="evenodd">
        <g id="All-Posts-Mobile" transform="translate(-250.000000, -258.000000)" fill="#34414F" fill-rule="nonzero">
            <g id="Group-20" transform="translate(223.000000, 187.000000)">
                <path d="M30,88.0003626 C30,88.0013704 40.0015806,88 40.0015806,88 C39.9996447,88 39.9998416,78.2029854 39.9999577,75 L30,75 L30,88.0003626 Z M42,88.0003626 C42,89.1047318 41.1029399,90 40.0015806,90 L29.9984194,90 C28.8947229,90 28,89.1066027 28,88.0003626 L28,74.9999996 C27.4476345,74.9995333 27,74.5558428 27,74 C27,73.4477153 27.4446309,73 28.0008717,73 L33,73 C33,71.8954305 33.8954305,71 35,71 C36.1045695,71 37,71.8954305 37,73 L41.9991283,73 C42.5518945,73 43,73.4438648 43,74 C43,74.5519962 42.5558336,74.9995322 42,74.9999996 L42,88.0003626 Z M36,77.9975446 C36,77.446616 36.4438648,77 37,77 C37.5522847,77 38,77.4463114 38,77.9975446 L38,85.0024554 C38,85.553384 37.5561352,86 37,86 C36.4477153,86 36,85.5536886 36,85.0024554 L36,77.9975446 Z M32,77.9975446 C32,77.446616 32.4438648,77 33,77 C33.5522847,77 34,77.4463114 34,77.9975446 L34,85.0024554 C34,85.553384 33.5561352,86 33,86 C32.4477153,86 32,85.5536886 32,85.0024554 L32,77.9975446 Z" id="Combined-Shape"></path>
            </g>
        </g>
    </g>
+</svg> 
