<?xml version="1.0" encoding="UTF-8"?>
<svg width="14px" height="16px" viewBox="0 0 14 16" version="1.1" xmlns="http://www.w3.org/2000/svg" xmlns:xlink="http://www.w3.org/1999/xlink">
    <!-- Generator: Sketch 50.2 (55047) - http://www.bohemiancoding.com/sketch -->
    <title>Group 9</title>
    <desc>Created with Sketch.</desc>
    <defs></defs>
    <g id="Misc-updates" stroke="none" stroke-width="1" fill="none" fill-rule="evenodd">
        <g id="Grid-data-update" transform="translate(-728.000000, -413.000000)" fill="#FFFFFF">
            <g id="Group-14" transform="translate(710.000000, 350.000000)">
                <g id="Group-9" transform="translate(17.000000, 63.000000)">
                    <rect id="Rectangle" opacity="0" x="0" y="0" width="16" height="16"></rect>
                    <path d="M3.625,14.3160948 C3.625,14.3169435 12.376383,14.3157895 12.376383,14.3157895 C12.3746891,14.3157895 12.3748614,6.06567192 12.374963,3.36842105 L3.625,3.36842105 L3.625,14.3160948 Z M14.125,14.3160948 C14.125,15.24609 13.3400724,16 12.376383,16 L3.623617,16 C2.6578825,16 1.875,15.2476654 1.875,14.3160948 L1.875,3.36842074 C1.39168019,3.36802804 1,2.99439396 1,2.52631579 C1,2.06123389 1.389052,1.68421053 1.8757627,1.68421053 L6.25,1.68421053 C6.25,0.754046737 7.03350169,0 8,0 C8.96649831,0 9.75,0.754046737 9.75,1.68421053 L14.1242373,1.68421053 C14.6079077,1.68421053 15,2.05799143 15,2.52631579 C15,2.99115472 14.6113544,3.36802711 14.125,3.36842074 L14.125,14.3160948 Z M8.875,5.89266918 C8.875,5.42872922 9.26338172,5.05263158 9.75,5.05263158 C10.2332492,5.05263158 10.625,5.42847276 10.625,5.89266918 L10.625,11.7915414 C10.625,12.2554813 10.2366183,12.6315789 9.75,12.6315789 C9.26675084,12.6315789 8.875,12.2557378 8.875,11.7915414 L8.875,5.89266918 Z M5.375,5.89266918 C5.375,5.42872922 5.76338172,5.05263158 6.25,5.05263158 C6.73324916,5.05263158 7.125,5.42847276 7.125,5.89266918 L7.125,11.7915414 C7.125,12.2554813 6.73661828,12.6315789 6.25,12.6315789 C5.76675084,12.6315789 5.375,12.2557378 5.375,11.7915414 L5.375,5.89266918 Z" id="Combined-Shape" fill-rule="nonzero"></path>
                </g>
            </g>
        </g>
    </g>
</svg>