<?xml version="1.0" encoding="UTF-8"?>
<svg width="18px" height="4px" viewBox="0 0 18 4" version="1.1" xmlns="http://www.w3.org/2000/svg" xmlns:xlink="http://www.w3.org/1999/xlink">
    <!-- Generator: Sketch 52.6 (67491) - http://www.bohemiancoding.com/sketch -->
    <title>Combined Shape</title>
    <desc>Created with Sketch.</desc>
    <g id="Follow-ups" stroke="none" stroke-width="1" fill="none" fill-rule="evenodd">
        <g id="MVP---Remove-follow-up-mobile" transform="translate(-341.000000, -175.000000)" fill="#FFFFFF">
            <path d="M350,172 C348.895431,172 348,171.104569 348,170 C348,168.895431 348.895431,168 350,168 C351.104569,168 352,168.895431 352,170 C352,171.104569 351.104569,172 350,172 Z M350,179 C348.895431,179 348,178.104569 348,177 C348,175.895431 348.895431,175 350,175 C351.104569,175 352,175.895431 352,177 C352,178.104569 351.104569,179 350,179 Z M350,186 C348.895431,186 348,185.104569 348,184 C348,182.895431 348.895431,182 350,182 C351.104569,182 352,182.895431 352,184 C352,185.104569 351.104569,186 350,186 Z" id="Combined-Shape" transform="translate(350.000000, 177.000000) rotate(90.000000) translate(-350.000000, -177.000000) "></path>
        </g>
    </g>
</svg>