<?xml version="1.0" encoding="UTF-8"?>
<svg width="12px" height="12px" viewBox="0 0 12 12" version="1.1" xmlns="http://www.w3.org/2000/svg" xmlns:xlink="http://www.w3.org/1999/xlink">
    <!-- Generator: Sketch 50.2 (55047) - http://www.bohemiancoding.com/sketch -->
    <title>Group 10</title>
    <desc>Created with Sketch.</desc>
    <defs></defs>
    <g id="Misc-updates" stroke="none" stroke-width="1" fill="none" fill-rule="evenodd">
        <g id="Grid-data-update" transform="translate(-729.000000, -462.000000)" fill="#FFFFFF">
            <g id="Group-14" transform="translate(710.000000, 350.000000)">
                <g id="Group-10" transform="translate(17.000000, 110.000000)">
                    <rect id="Rectangle" opacity="0" x="0" y="0" width="16" height="16"></rect>
                    <path d="M12.5004677,4.52128308 L12.4965392,6.50373095 C12.4957175,6.9184246 12.8299467,7.25526894 13.2430611,7.25609384 C13.6561755,7.25691874 13.9917371,6.92141183 13.9925589,6.50671818 L13.9999985,2.75236437 C14.0008214,2.33708731 13.6656851,2 13.2519887,2 L9.50449262,2 C9.0913774,2 8.75648134,2.33617629 8.75648134,2.75087076 C8.75648134,3.16556523 9.0913774,3.50174152 9.50449262,3.50174152 L11.4004312,3.50174152 L7.97715073,6.93810839 L3.27693514,2.21992495 C2.98481856,1.92669168 2.51120401,1.92669168 2.21908743,2.21992495 C1.92697086,2.51315823 1.92697086,2.9885833 2.21908743,3.28181657 L6.91930302,8 L2.21908743,12.7181834 C1.92697086,13.0114167 1.92697086,13.4868418 2.21908743,13.780075 C2.51120401,14.0733083 2.98481856,14.0733083 3.27693514,13.780075 L7.97715073,9.06189161 L11.4004312,12.4982585 L9.50449262,12.4982585 C9.0913774,12.4982585 8.75648134,12.8344348 8.75648134,13.2491292 C8.75648134,13.6638237 9.0913774,14 9.50449262,14 L13.2519887,14 C13.6656851,14 14.0008214,13.6629127 13.9999985,13.2476356 L13.9925589,9.49328182 C13.9917371,9.07858817 13.6561755,8.74308126 13.2430611,8.74390616 C12.8299467,8.74473106 12.4957175,9.0815754 12.4965392,9.49626905 L12.5004677,11.4787169 L9.03499844,8 L12.5004677,4.52128308 Z" id="Combined-Shape" fill-rule="nonzero"></path>
                </g>
            </g>
        </g>
    </g>
</svg>