<?xml version="1.0" encoding="UTF-8"?>
<svg width="14px" height="16px" viewBox="0 0 14 16" version="1.1" xmlns="http://www.w3.org/2000/svg" xmlns:xlink="http://www.w3.org/1999/xlink">
    <!-- Generator: Sketch 51.2 (57519) - http://www.bohemiancoding.com/sketch -->
    <title>Combined Shape</title>
    <desc>Created with Sketch.</desc>
    <defs></defs>
    <g id="Video" stroke="none" stroke-width="1" fill="none" fill-rule="evenodd">
        <g id="Video-2.0-(recording)" transform="translate(-252.000000, -600.000000)" fill="#34414F" fill-rule="nonzero">
            <g id="Group" transform="translate(220.000000, 600.000000)">
                <path d="M37.9883996,10.9162503 C37.7016568,11.2110051 37.2338766,11.2110092 36.9463056,10.9154031 C36.6588963,10.6199631 36.6585299,10.1391609 36.9454814,9.84419149 L40.5965192,6.0911384 C40.8845131,5.79509753 40.8845131,5.31512045 40.5965192,5.01907958 C40.3085253,4.72303871 39.8415949,4.72303871 39.553601,5.01907958 L35.9025633,8.77213267 C35.0392579,9.65956006 35.0403557,11.1003158 35.9033875,11.9874619 C36.7669502,12.8751538 38.1685911,12.8751416 39.0313177,11.9883091 L41.6394373,9.30731485 L45.0284716,5.823586 C46.3240463,4.49181098 46.3234894,2.32959921 45.0289213,0.998859008 C43.7330321,-0.333239209 41.6312718,-0.332820828 40.3353399,0.999321321 L36.9463056,4.48305017 L33.2960893,8.23525892 C31.5680278,10.011605 31.5679118,12.8911407 33.2960921,14.6676089 C35.0242236,16.444027 37.8252694,16.4442327 39.5535982,14.6676118 L44.2467327,9.84334426 C44.5347266,9.54730339 44.5347266,9.06732631 44.2467327,8.77128544 C43.9587388,8.47524457 43.4918084,8.47524457 43.2038145,8.77128544 L38.51068,13.595553 C37.3583724,14.7800579 35.4911874,14.7799208 34.3390102,13.5955501 C33.1868371,12.4111835 33.1869144,10.491602 34.3390074,9.30731774 L37.9892238,5.55510899 L41.378258,2.07138014 C42.0982925,1.3312268 43.2661922,1.33099431 43.9860032,2.07091783 C44.704707,2.80970334 44.7050167,4.01196103 43.9855534,4.75152719 L40.5965192,8.23525603 L37.9883996,10.9162503 Z" id="Combined-Shape"></path>
            </g>
        </g>
    </g>
</svg>