<?xml version="1.0" encoding="UTF-8"?>
<svg width="16px" height="14px" viewBox="0 0 16 14" version="1.1" xmlns="http://www.w3.org/2000/svg" xmlns:xlink="http://www.w3.org/1999/xlink">
    <!-- Generator: Sketch 51.2 (57519) - http://www.bohemiancoding.com/sketch -->
    <title>Combined Shape</title>
    <desc>Created with Sketch.</desc>
    <defs></defs>
    <g id="Video" stroke="none" stroke-width="1" fill="none" fill-rule="evenodd">
        <g id="Video-2.0-(recording)" transform="translate(-220.000000, -601.000000)" fill="#34414F">
            <g id="Group" transform="translate(220.000000, 600.000000)">
                <path d="M0,2.45097403 C0,1.6496232 0.652033176,1 1.45520363,1 L14.5447964,1 C15.3484831,1 16,1.64918022 16,2.45097403 L16,12.6399351 C16,13.4412859 15.3479668,14.0909091 14.5447964,14.0909091 L1.45520363,14.0909091 C0.651516859,14.0909091 0,13.4417289 0,12.6399351 L0,2.45097403 Z M1.45454545,12.6399351 L14.5447964,12.6363636 C14.5458476,12.6363636 14.5454545,2.45097403 14.5454545,2.45097403 L1.45520363,2.45454545 C1.45415235,2.45454545 1.45454545,12.6399351 1.45454545,12.6399351 Z M5.11097514,5.65659196 C5.29037825,5.29651584 5.6107726,5.28051804 5.82358585,5.61611312 L7.0592045,7.56461748 C7.27336541,7.90233775 7.72349372,8.00419783 8.06680501,7.79075384 L8.78611143,7.34354559 C9.12843292,7.13071698 9.59324595,7.22098056 9.82867678,7.55129511 L11.4752233,9.86143548 C11.7086948,10.189001 11.5713286,10.4545453 11.1701465,10.4545453 L3.44827329,10.4545455 C3.04631254,10.4545455 2.86644821,10.1615336 3.04529704,9.80256997 L5.11097514,5.65659196 Z M12,6.81818182 C11.3975075,6.81818182 10.9090909,6.32976518 10.9090909,5.72727273 C10.9090909,5.12478027 11.3975075,4.63636364 12,4.63636364 C12.6024925,4.63636364 13.0909091,5.12478027 13.0909091,5.72727273 C13.0909091,6.32976518 12.6024925,6.81818182 12,6.81818182 Z" id="Combined-Shape"></path>
            </g>
        </g>
    </g>
</svg>