<svg width="12" height="14" viewBox="0 0 12 14" fill="none" xmlns="http://www.w3.org/2000/svg">
<path fill-rule="evenodd" clip-rule="evenodd" d="M9.60486 3.49999C9.60486 5.43297 7.99084 6.99997 5.99984 6.99997C4.00883 6.99997 2.39481 5.43297 2.39481 3.49999C2.39481 1.567 4.00883 0 5.99984 0C7.99084 0 9.60486 1.567 9.60486 3.49999ZM0.0625542 12.8047C1.00262 10.4024 3.3535 8.79698 6.00003 8.75C8.64656 8.79698 10.9974 10.4024 11.9375 12.8047C12.0473 13.0757 12.011 13.382 11.8408 13.6218C11.6705 13.8615 11.3885 14.0033 11.0885 14H0.909735C0.610108 14.0027 0.328673 13.8607 0.15881 13.621C-0.0110523 13.3814 -0.0471275 13.0755 0.0625542 12.8047Z" fill="white"/>
</svg>
