<svg width="16" height="17" viewBox="0 0 16 17" fill="none" xmlns="http://www.w3.org/2000/svg">
<path d="M3.33333 7.16667C5.17428 7.16667 6.66667 5.67428 6.66667 3.83333C6.66667 1.99238 5.17428 0.5 3.33333 0.5C1.49238 0.5 0 1.99238 0 3.83333C0 5.67428 1.49238 7.16667 3.33333 7.16667Z" fill="#6833F1"/>
<path d="M12.6666 7.16667C14.5075 7.16667 15.9999 5.67428 15.9999 3.83333C15.9999 1.99238 14.5075 0.5 12.6666 0.5C10.8256 0.5 9.33325 1.99238 9.33325 3.83333C9.33325 5.67428 10.8256 7.16667 12.6666 7.16667Z" fill="#6833F1"/>
<path d="M3.33333 16.5C5.17428 16.5 6.66667 15.0076 6.66667 13.1666C6.66667 11.3257 5.17428 9.83331 3.33333 9.83331C1.49238 9.83331 0 11.3257 0 13.1666C0 15.0076 1.49238 16.5 3.33333 16.5Z" fill="#6833F1"/>
<path d="M12.6666 16.5C14.5075 16.5 15.9999 15.0076 15.9999 13.1666C15.9999 11.3257 14.5075 9.83331 12.6666 9.83331C10.8256 9.83331 9.33325 11.3257 9.33325 13.1666C9.33325 15.0076 10.8256 16.5 12.6666 16.5Z" fill="#6833F1"/>
</svg>
