<svg width="14" height="14" viewBox="0 0 14 14" fill="none" xmlns="http://www.w3.org/2000/svg">
<path d="M5.54166 7.29167C5.54206 7.09083 5.57841 6.89169 5.649 6.70367C5.677 6.62865 5.67293 6.54542 5.63774 6.47349C5.60254 6.40156 5.53933 6.34726 5.46291 6.32333C5.05562 6.19362 4.63094 6.12674 4.2035 6.125C2.27196 6.13379 0.572001 7.40125 0.0122465 9.24992C-0.014098 9.33818 0.00280169 9.43371 0.0578306 9.50758C0.112859 9.58145 0.19955 9.62498 0.291663 9.625H5.25C5.41108 9.625 5.54166 9.49442 5.54166 9.33333V7.29167Z" fill="#FFFFFF"/>
<path d="M4.08333 5.54167C5.61362 5.54167 6.85417 4.30112 6.85417 2.77083C6.85417 1.24054 5.61362 0 4.08333 0C2.55304 0 1.3125 1.24054 1.3125 2.77083C1.3125 4.30112 2.55304 5.54167 4.08333 5.54167Z" fill="#FFFFFF"/>
<path fill-rule="evenodd" clip-rule="evenodd" d="M7.58335 6.41669H12.8334C13.4777 6.41669 14 6.93902 14 7.58335V12.8334C14 13.4777 13.4777 14 12.8334 14H7.58335C6.93902 14 6.41669 13.4777 6.41669 12.8334V7.58335C6.41669 6.93902 6.93902 6.41669 7.58335 6.41669ZM7.72919 7.58335C7.64865 7.58335 7.58335 7.64865 7.58335 7.72919V12.6875C7.58335 12.7681 7.64865 12.8334 7.72919 12.8334H12.6875C12.7262 12.8335 12.7634 12.8182 12.7908 12.7908C12.8182 12.7634 12.8335 12.7262 12.8334 12.6875V7.72919C12.8334 7.64865 12.7681 7.58335 12.6875 7.58335H7.72919Z" fill="#FFFFFF"/>
<path d="M11.6667 8.75H8.89584C8.65422 8.75 8.45834 8.94588 8.45834 9.1875C8.45834 9.42912 8.65422 9.625 8.89584 9.625H11.6667C11.9083 9.625 12.1042 9.42912 12.1042 9.1875C12.1042 8.94588 11.9083 8.75 11.6667 8.75Z" fill="#FFFFFF"/>
<path d="M10.2083 11.375C10.45 11.375 10.6458 11.1791 10.6458 10.9375C10.6458 10.6959 10.45 10.5 10.2083 10.5H8.89584C8.65422 10.5 8.45834 10.6959 8.45834 10.9375C8.45834 11.1791 8.65422 11.375 8.89584 11.375H10.2083Z" fill="#FFFFFF"/>
</svg>
