<svg width="14" height="14" viewBox="0 0 14 14" fill="none" xmlns="http://www.w3.org/2000/svg">
<path d="M2.81281 5.62563C4.36629 5.62563 5.62563 4.36629 5.62563 2.81281C5.62563 1.25934 4.36629 0 2.81281 0C1.25934 0 0 1.25934 0 2.81281C0 4.36629 1.25934 5.62563 2.81281 5.62563Z" fill="#242D42"/>
<path d="M11.1873 5.62563C12.7408 5.62563 14.0001 4.36629 14.0001 2.81281C14.0001 1.25934 12.7408 0 11.1873 0C9.63385 0 8.37451 1.25934 8.37451 2.81281C8.37451 4.36629 9.63385 5.62563 11.1873 5.62563Z" fill="#242D42"/>
<path d="M2.81281 14C4.36629 14 5.62563 12.7406 5.62563 11.1872C5.62563 9.6337 4.36629 8.37436 2.81281 8.37436C1.25934 8.37436 0 9.6337 0 11.1872C0 12.7406 1.25934 14 2.81281 14Z" fill="#242D42"/>
<path d="M11.1873 14C12.7408 14 14.0001 12.7406 14.0001 11.1872C14.0001 9.6337 12.7408 8.37436 11.1873 8.37436C9.63385 8.37436 8.37451 9.6337 8.37451 11.1872C8.37451 12.7406 9.63385 14 11.1873 14Z" fill="#242D42"/>
</svg>
