<svg width="14" height="14" viewBox="0 0 14 14" fill="none" xmlns="http://www.w3.org/2000/svg">
<path d="M14 5.54175C13.9999 5.36111 13.9161 5.19071 13.7731 5.08033L7.35642 0.122C7.14621 -0.0406665 6.85262 -0.0406665 6.64242 0.122L0.22575 5.08033C0.0831852 5.19095 -0.000165178 5.36131 2.45772e-07 5.54175V13.4168C2.45772e-07 13.7389 0.261167 14.0001 0.583334 14.0001H5.25C5.41108 14.0001 5.54167 13.8695 5.54167 13.7084V11.0834C5.54167 10.278 6.19458 9.62508 7 9.62508C7.80542 9.62508 8.45833 10.278 8.45833 11.0834V13.7084C8.45833 13.8695 8.58892 14.0001 8.75 14.0001H13.4167C13.7388 14.0001 14 13.7389 14 13.4168V5.54175Z" fill="#6833F1"/>
</svg>
