<?xml version="1.0" encoding="UTF-8"?>
<svg width="16px" height="16px" viewBox="0 0 16 16" version="1.1" xmlns="http://www.w3.org/2000/svg" xmlns:xlink="http://www.w3.org/1999/xlink">
    <!-- Generator: Sketch 50.2 (55047) - http://www.bohemiancoding.com/sketch -->
    <title>All posts icon</title>
    <desc>Created with Sketch.</desc>
    <defs></defs>
    <g id="Post-action" stroke="none" stroke-width="1" fill="none" fill-rule="evenodd">
        <g id="Must-see-/-June-19" transform="translate(-185.000000, -103.000000)" fill="#FA6654">
            <path d="M185.728551,117.314761 L185.009075,110.195468 C184.906745,109.182897 185.682108,108.333333 186.712604,108.333333 L199.287389,108.333333 C200.315756,108.333333 201.093425,109.181148 200.990918,110.195468 L200.271443,117.314761 C200.176299,118.256221 199.347112,119 198.393794,119 L187.606199,119 C186.649325,119 185.823991,118.259153 185.728551,117.314761 Z M199.193151,110.118137 L186.806511,110.114855 L187.610132,117.222222 L198.389861,117.222222 L199.193151,110.118137 Z M188.508443,103.888889 C188.508443,103.397969 188.91188,103 189.402619,103 L196.597374,103 C197.091214,103 197.491551,103.394547 197.491551,103.888889 C197.491551,104.379809 197.088114,104.777778 196.597374,104.777778 L189.402619,104.777778 C188.908779,104.777778 188.508443,104.383231 188.508443,103.888889 Z M186.711821,106.555556 C186.711821,106.064636 187.116015,105.666667 187.606199,105.666667 L198.393794,105.666667 C198.887745,105.666667 199.288172,106.061213 199.288172,106.555556 C199.288172,107.046475 198.883978,107.444444 198.393794,107.444444 L187.606199,107.444444 C187.112248,107.444444 186.711821,107.049898 186.711821,106.555556 Z" id="All-posts-icon" transform="translate(193.000000, 111.000000) scale(1, -1) translate(-193.000000, -111.000000) "></path>
        </g>
    </g>
</svg>