<svg width="14" height="14" viewBox="0 0 14 14" fill="none" xmlns="http://www.w3.org/2000/svg">
<path fill-rule="evenodd" clip-rule="evenodd" d="M1.39997 6.99997C1.39997 10.0877 3.91227 12.6 6.99997 12.6C10.0877 12.6 12.6 10.0877 12.6 6.99997C12.6 3.91227 10.0877 1.39997 6.99997 1.39997C3.91227 1.39997 1.39997 3.91227 1.39997 6.99997ZM0 7C0 3.1402 3.1402 0 7 0C10.8598 0 14 3.1402 14 7C14 10.8605 10.8598 14 7 14C3.1402 14 0 10.8605 0 7ZM4.29167 7.70004H9.71755C10.0171 7.70004 10.2601 7.94277 10.2601 8.24184C10.2601 9.65973 8.70833 10.9508 7.00461 10.9508C5.30088 10.9508 3.74908 9.65973 3.74908 8.24184C3.74908 7.94277 3.99216 7.70004 4.29167 7.70004ZM5.5999 3.49968H4.1999V6.29968H5.5999V3.49968ZM8.40003 3.49968H9.80002V6.29968H8.40003V3.49968Z" fill="white"/>
</svg>
