<?xml version="1.0" encoding="UTF-8"?>
<svg width="15px" height="16px" viewBox="0 0 15 16" version="1.1" xmlns="http://www.w3.org/2000/svg" xmlns:xlink="http://www.w3.org/1999/xlink">
    <!-- Generator: Sketch 52.6 (67491) - http://www.bohemiancoding.com/sketch -->
    <title>Combined Shape</title>
    <desc>Created with Sketch.</desc>
    <g id="Notifications" stroke="none" stroke-width="1" fill="none" fill-rule="evenodd">
        <g id="Notification-pop-down-(open)" transform="translate(-1241.000000, -63.000000)" fill="#848D95">
            <g id="Group-15" transform="translate(897.000000, 47.000000)">
                <path d="M354.205612,18.6370361 L354.801377,18.98387 C354.801377,18.98387 356.580059,18.6742066 356.683399,18.6647772 C357.221623,18.5989154 357.801296,18.8872645 358.072044,19.3550569 L358.818602,20.6449431 C359.09049,21.1147052 359.051481,21.7620356 358.736887,22.1716135 C358.663855,22.2741592 357.507599,23.6556125 357.507599,23.6556125 C357.507599,23.6556125 357.514825,23.7576356 357.514825,24 C357.514825,24.1167955 357.504786,24.3491753 357.504786,24.3491753 C357.504786,24.3491753 358.663855,25.7258408 358.723691,25.8103934 C359.049906,26.2424166 359.089323,26.8873099 358.818602,27.3550569 L358.072044,28.6449431 C357.800131,29.1147491 357.218545,29.4046679 356.70047,29.3371339 C356.696188,29.3367144 354.791811,29.015173 354.791811,29.015173 L354.205612,29.3599613 C354.205612,29.3599613 353.583577,31.0517673 353.540116,31.1456756 C353.328156,31.6435014 352.78799,32 352.246546,32 L350.753431,32 C350.209604,32 349.667114,31.6425338 349.468844,31.1658852 C349.416381,31.0515898 348.792635,29.3536905 348.792635,29.3536905 L348.195009,29.0137718 C348.195009,29.0137718 346.419755,29.3258657 346.316414,29.3352822 C345.778238,29.4010848 345.198655,29.1126901 344.927933,28.6449431 L344.181376,27.3550569 C343.909462,26.8852509 343.948557,26.2378659 344.263233,25.8282581 C344.336267,25.7257357 345.493665,24.343179 345.493665,24.343179 C345.493665,24.343179 345.485153,24.2424332 345.485153,24 C345.485153,23.8854866 345.494804,23.6576221 345.494804,23.6576221 C345.494804,23.6576221 344.336267,22.2742643 344.27642,22.1897189 C343.950129,21.7576836 343.910628,21.1127355 344.181376,20.6449431 L344.927933,19.3550569 C345.199821,18.8852948 345.781316,18.595329 346.294195,18.662314 C346.419755,18.6741343 348.212579,18.9856613 348.212579,18.9856613 L348.801223,18.6365938 C348.801223,18.6365938 349.416381,16.9484102 349.45983,16.8544961 C349.671764,16.356599 350.211935,16 350.753431,16 L352.246546,16 C352.790322,16 353.332808,16.3573646 353.531094,16.8339275 C353.583577,16.9482327 354.205612,18.6370361 354.205612,18.6370361 Z M352.883199,19.8035117 L352.775478,19.4440258 C352.618842,18.9213049 352.174801,17.7362371 352.127496,17.6253134 C352.100075,17.5610145 350.899945,17.5610398 350.872528,17.6253443 C350.825233,17.7362736 350.381279,18.9213025 350.224663,19.4439573 L350.116936,19.8034585 L349.770955,19.9506853 C349.44402,20.0898072 349.135243,20.2681399 348.851139,20.4813612 L348.550135,20.7072654 L348.183651,20.620431 C347.651228,20.4942793 346.399584,20.2851785 346.279549,20.2705718 C346.209968,20.2621046 345.609899,21.2989232 345.652041,21.3547907 C345.724739,21.4511645 346.531991,22.4276763 346.907625,22.8244627 L347.165591,23.0969555 L347.120812,23.4690788 C347.099742,23.6441733 347.089109,23.8213365 347.089109,24 C347.089109,24.1786635 347.099742,24.3558267 347.120812,24.5309212 L347.165591,24.9030445 L346.907625,25.1755373 C346.531991,25.5723237 345.724739,26.5488355 345.652041,26.6452093 C345.609899,26.7010768 346.209968,27.7378954 346.279549,27.7294282 C346.399584,27.7148215 347.651228,27.5057207 348.183651,27.379569 L348.550135,27.2927346 L348.851139,27.5186388 C349.135243,27.7318601 349.44402,27.9101928 349.770955,28.0493147 L350.116936,28.1965415 L350.224663,28.5560427 C350.381279,29.0786975 350.825233,30.2637264 350.872528,30.3746557 C350.899945,30.4389602 352.100075,30.4389855 352.127496,30.3746866 C352.174801,30.2637629 352.618842,29.0786951 352.775478,28.5559742 L352.883199,28.1964883 L353.22916,28.0492561 C353.55609,27.910123 353.864862,27.7317798 354.148959,27.5185488 L354.449967,27.2926248 L354.816467,27.3794625 C355.348823,27.5055977 356.60039,27.7147539 356.720425,27.729372 C356.761533,27.7343783 357.390122,26.7010528 357.347987,26.645184 C357.275299,26.5488043 356.468056,25.5721982 356.092375,25.1753623 L355.834419,24.9028814 L355.879183,24.5307724 C355.900241,24.3557263 355.910868,24.1786129 355.910868,24 C355.910868,23.8213871 355.900241,23.6442737 355.879183,23.4692276 L355.834419,23.0971186 L356.092375,22.8246377 C356.468056,22.4278018 357.275299,21.4511957 357.347987,21.354816 C357.390122,21.2989472 356.790008,20.2621539 356.720425,20.270628 C356.60039,20.2852461 355.348823,20.4944023 354.816467,20.6205375 L354.449967,20.7073752 L354.148959,20.4814512 C353.864862,20.2682202 353.55609,20.089877 353.22916,19.9507439 L352.883199,19.8035117 Z M351.499989,26.4 C350.171228,26.4 349.094054,25.3254834 349.094054,24 C349.094054,22.6745166 350.171228,21.6 351.499989,21.6 C352.82875,21.6 353.905923,22.6745166 353.905923,24 C353.905923,25.3254834 352.82875,26.4 351.499989,26.4 Z M351.499989,24.8 C351.942909,24.8 352.301967,24.4418278 352.301967,24 C352.301967,23.5581722 351.942909,23.2 351.499989,23.2 C351.057068,23.2 350.698011,23.5581722 350.698011,24 C350.698011,24.4418278 351.057068,24.8 351.499989,24.8 Z" id="Combined-Shape"></path>
            </g>
        </g>
    </g>
</svg>