<?xml version="1.0" encoding="UTF-8"?>
<svg width="80px" height="80px" viewBox="0 0 80 80" version="1.1" xmlns="http://www.w3.org/2000/svg" xmlns:xlink="http://www.w3.org/1999/xlink">
    <!-- Generator: Sketch 49.3 (51167) - http://www.bohemiancoding.com/sketch -->
    <title>Combined Shape</title>
    <desc>Created with Sketch.</desc>
    <defs></defs>
    <g id="Page-1" stroke="none" stroke-width="1" fill="none" fill-rule="evenodd">
        <path d="M42,38 L46.0059397,38 C47.1072288,38 48,38.8877296 48,40 C48,41.1045695 47.1054862,42 46.0059397,42 L42,42 L42,46.0059397 C42,47.1072288 41.1122704,48 40,48 C38.8954305,48 38,47.1054862 38,46.0059397 L38,42 L33.9940603,42 C32.8927712,42 32,41.1122704 32,40 C32,38.8954305 32.8945138,38 33.9940603,38 L38,38 L38,33.9940603 C38,32.8927712 38.8877296,32 40,32 C41.1045695,32 42,32.8945138 42,33.9940603 L42,38 Z M40,80 C17.90861,80 0,62.09139 0,40 C0,17.90861 17.90861,0 40,0 C62.09139,0 80,17.90861 80,40 C80,62.09139 62.09139,80 40,80 Z M40,78 C60.9868205,78 78,60.9868205 78,40 C78,19.0131795 60.9868205,2 40,2 C19.0131795,2 2,19.0131795 2,40 C2,60.9868205 19.0131795,78 40,78 Z" id="Combined-Shape" fill="#6187F8"></path>
    </g>
</svg>