<?xml version="1.0" encoding="UTF-8"?>
<svg width="16px" height="16px" viewBox="0 0 16 16" version="1.1" xmlns="http://www.w3.org/2000/svg" xmlns:xlink="http://www.w3.org/1999/xlink">
    <!-- Generator: Sketch 52.6 (67491) - http://www.bohemiancoding.com/sketch -->
    <title>Group 4</title>
    <desc>Created with Sketch.</desc>
    <g id="Dark-mode" stroke="none" stroke-width="1" fill="none" fill-rule="evenodd">
        <g id="Dark-mode:-Inbox" transform="translate(-317.000000, -232.000000)" fill="#FFFFFF">
            <g id="Group-30" transform="translate(172.000000, 80.000000)">
                <g id="Group-29" transform="translate(0.000000, 144.000000)">
                    <g id="Group-3" transform="translate(145.000000, 8.000000)">
                        <g id="Group-4">
                            <g>
                                <rect id="Rectangle-13-Copy" opacity="0.0899999961" x="0" y="0" width="16" height="16" rx="4"></rect>
                                <path d="M7.9,4.59723854 L7.9,7.9 L4.59723854,7.9 C4.54513973,7.9 4.5,7.94524009 4.5,8 C4.5,8.05695884 4.54295731,8.1 4.59723854,8.1 L7.9,8.1 L7.9,11.4027615 C7.9,11.4548603 7.94524009,11.5 8,11.5 C8.05695884,11.5 8.1,11.4570427 8.1,11.4027615 L8.1,8.1 L11.4027615,8.1 C11.4548603,8.1 11.5,8.05475991 11.5,8 C11.5,7.94304116 11.4570427,7.9 11.4027615,7.9 L8.1,7.9 L8.1,4.59723854 C8.1,4.54513973 8.05475991,4.5 8,4.5 C7.94304116,4.5 7.9,4.54295731 7.9,4.59723854 Z" id="Combined-Shape" stroke="#FFFFFF"></path>
                            </g>
                        </g>
                    </g>
                </g>
            </g>
        </g>
    </g>
</svg>