<svg width="16" height="12" viewBox="0 0 16 12" fill="none" xmlns="http://www.w3.org/2000/svg">
<path fill-rule="evenodd" clip-rule="evenodd" d="M8.588 7.917C8.26224 8.28241 7.73509 8.28241 7.40933 7.917L0.953333 0.652501C0.863918 0.552276 0.832494 0.40383 0.872155 0.269022C0.911815 0.134215 1.01576 0.0361728 1.14067 0.0157511C1.20446 0.00517666 1.26885 -8.76318e-05 1.33333 1.10322e-06H14.6667C14.7307 -1.409e-05 14.7946 0.00525001 14.858 0.0157511C14.9829 0.0361728 15.0869 0.134215 15.1265 0.269022C15.1662 0.40383 15.1347 0.552276 15.0453 0.652501L8.588 7.917ZM15.792 1.40325C15.827 1.3638 15.8797 1.35222 15.9253 1.374C15.9707 1.39503 16.0002 1.44483 16 1.5V10.5C16 11.3284 15.403 12 14.6667 12H1.33333C0.596954 12 0 11.3284 0 10.5V1.5C0.000534186 1.44544 0.0298968 1.39648 0.0746667 1.3755C0.120211 1.35329 0.173211 1.36491 0.208 1.40475L4.34133 6.05475C4.40625 6.12818 4.40625 6.24682 4.34133 6.32025L0.979333 10.1025C0.789753 10.3231 0.792315 10.6739 0.985091 10.891C1.17787 11.1081 1.48972 11.1113 1.686 10.8982L5.048 7.116C5.11327 7.04297 5.21873 7.04297 5.284 7.116L6.70467 8.71125C7.42054 9.51616 8.58079 9.51616 9.29667 8.71125L10.716 7.1145C10.7473 7.07923 10.7897 7.05941 10.834 7.05941C10.8783 7.05941 10.9207 7.07923 10.952 7.1145L14.314 10.8967C14.4396 11.0429 14.6255 11.1015 14.8003 11.0499C14.9751 10.9983 15.1116 10.8447 15.1572 10.648C15.2029 10.4513 15.1507 10.2422 15.0207 10.101L11.6587 6.31875C11.5937 6.24532 11.5937 6.12668 11.6587 6.05325L15.792 1.40325Z" fill="white"/>
</svg>
