<svg width="16" height="16" viewBox="0 0 16 16" fill="none" xmlns="http://www.w3.org/2000/svg">
<path fill-rule="evenodd" clip-rule="evenodd" d="M5.88925 3.36156C4.96417 3.36156 4.20847 2.60586 4.20847 1.68078C4.20847 0.7557 4.96417 0 5.88925 0C6.81433 0 7.57003 0.7557 7.57003 1.68078V3.36156H5.88925ZM1.68078 11.7915C2.60586 11.7915 3.36156 11.0358 3.36156 10.1107V8.42997H1.68078C0.7557 8.42997 0 9.18567 0 10.1107C0 11.0358 0.7557 11.7915 1.68078 11.7915ZM5.88925 8.42997C4.96417 8.42997 4.20847 9.18567 4.20847 10.1107V14.3192C4.20847 15.2443 4.96417 16 5.88925 16C6.81433 16 7.57003 15.2443 7.57003 14.3192V10.1107C7.57003 9.18567 6.81433 8.42997 5.88925 8.42997ZM7.57003 5.88925C7.57003 4.96417 6.81433 4.20847 5.88925 4.20847H1.68078C0.7557 4.20847 0 4.96417 0 5.88925C0 6.81433 0.7557 7.57003 1.68078 7.57003H5.88925C6.81433 7.57003 7.57003 6.81433 7.57003 5.88925ZM12.6384 5.88925C12.6384 4.96417 13.3941 4.20847 14.3192 4.20847C15.2443 4.20847 16 4.96417 16 5.88925C16 6.81433 15.2443 7.57003 14.3192 7.57003H12.6384V5.88925ZM10.1107 7.57003C11.0358 7.57003 11.7915 6.81433 11.7915 5.88925V1.68078C11.7915 0.7557 11.0358 0 10.1107 0C9.18567 0 8.42997 0.7557 8.42997 1.68078V5.88925C8.42997 6.81433 9.18567 7.57003 10.1107 7.57003ZM10.1107 12.6384C11.0358 12.6384 11.7915 13.3941 11.7915 14.3192C11.7915 15.2443 11.0358 16 10.1107 16C9.18567 16 8.42997 15.2443 8.42997 14.3192V12.6384H10.1107ZM8.42997 10.1107C8.42997 11.0358 9.18567 11.7915 10.1107 11.7915H14.3192C15.2443 11.7915 16 11.0358 16 10.1107C16 9.18567 15.2443 8.42997 14.3192 8.42997H10.1107C9.18567 8.42997 8.42997 9.18567 8.42997 10.1107Z" fill="#242D42"/>
</svg>
