<svg width="14" height="14" viewBox="0 0 14 14" fill="none" xmlns="http://www.w3.org/2000/svg">
<path d="M13.9295 7.10644C14.0793 6.59372 13.9874 6.03722 13.6817 5.60645C13.376 5.17569 12.8927 4.92168 12.3791 4.92179H9.0898C8.83688 4.92185 8.60164 4.78642 8.46677 4.56312C8.33191 4.33982 8.31631 4.0599 8.42545 3.82178L9.26724 1.98042C9.42415 1.49417 9.33064 0.957877 9.01965 0.560489C8.73305 0.192024 8.29764 -0.0150898 7.84316 0.000857977C7.38868 0.0168057 6.96759 0.253974 6.70534 0.641698L3.82277 4.90395C3.68451 5.10778 3.4602 5.22907 3.22091 5.2294C3.06985 5.2294 2.94739 5.35721 2.94739 5.51487V12.4749C2.94738 12.5928 3.01195 12.7003 3.11362 12.7517C5.29471 13.8542 6.01918 14 7.7953 14C7.99985 14 9.1629 13.9877 9.58791 13.9877C11.1677 13.9877 12.2188 13.031 12.8041 11.0476L13.9242 7.12921L13.9295 7.10644Z" fill="#FFFFFF"/>
<path d="M2.06319 5.22935H2.04786C1.97614 4.78649 1.60932 4.46183 1.17897 4.46033H0.294742C0.13196 4.46033 0 4.59805 0 4.76794V13.381C0 13.5509 0.13196 13.6886 0.294742 13.6886H1.17897C1.66731 13.6886 2.06319 13.2755 2.06319 12.7658V5.22935Z" fill="#FFFFFF"/>
</svg>
