<svg width="23" height="16" viewBox="0 0 23 16" fill="none" xmlns="http://www.w3.org/2000/svg">
<path fill-rule="evenodd" clip-rule="evenodd" d="M1.48148 8.00006C1.48148 11.2675 4.14 13.926 7.40741 13.926C10.6748 13.926 13.3333 11.2675 13.3333 8.00006C13.3333 4.73265 10.6748 2.07413 7.40741 2.07413C4.14 2.07413 1.48148 4.73265 1.48148 8.00006ZM0 8.00006C0 3.91561 3.32296 0.592651 7.40741 0.592651C11.4919 0.592651 14.8148 3.91561 14.8148 8.00006C14.8148 12.0852 11.4919 15.4075 7.40741 15.4075C3.32296 15.4075 0 12.0852 0 8.00006ZM4.54157 8.7408H10.2832C10.6002 8.7408 10.8574 8.99765 10.8574 9.31413C10.8574 10.8145 9.21529 12.1808 7.41241 12.1808C5.60952 12.1808 3.96741 10.8145 3.96741 9.31413C3.96741 8.99765 4.22463 8.7408 4.54157 8.7408ZM5.92593 4.29598H4.44444V7.25895H5.92593V4.29598ZM8.88889 4.29598H10.3704V7.25895H8.88889V4.29598ZM19.4074 5.99969H20.4074V7.99969H22.4074V8.99969H20.4074V10.9997H19.4074V8.99969H17.4074V7.99969H19.4074V5.99969Z" fill="#242D42"/>
</svg>
