<svg width="14" height="12" viewBox="0 0 14 12" fill="none" xmlns="http://www.w3.org/2000/svg">
<path fill-rule="evenodd" clip-rule="evenodd" d="M10.3012 3.04375C9.22299 1.81175 7.55945 1.27948 5.97441 1.65934C4.45261 2.04863 3.22462 3.17986 2.7025 4.67344C2.6868 4.717 2.69142 4.76537 2.71507 4.8051C2.73873 4.84483 2.77889 4.87168 2.82439 4.87815L3.96885 5.02077C4.08377 5.03466 4.18096 5.11302 4.21972 5.22302C4.25849 5.33303 4.23212 5.45569 4.15168 5.53962L2.03277 7.7484C1.97538 7.80813 1.89644 7.84184 1.81399 7.84184C1.80141 7.84276 1.78878 7.84276 1.7762 7.84184C1.68085 7.83002 1.5966 7.77352 1.5489 7.68939L0.0400024 5.02016C-0.0172409 4.91888 -0.0127566 4.79365 0.0515811 4.6968C0.114272 4.59972 0.22652 4.5474 0.34044 4.56217L0.969958 4.64209C1.04423 4.65172 1.11437 4.60525 1.13511 4.53267C1.75335 2.3737 3.46273 0.70905 5.62339 0.161821C7.75521 -0.348348 9.99223 0.368013 11.442 2.02512C11.7209 2.3429 11.6915 2.82855 11.3765 3.10984C11.0615 3.39112 10.5801 3.36154 10.3012 3.04375ZM13.9589 6.96934C14.0168 7.07016 14.0133 7.19538 13.9497 7.2927C13.8929 7.37841 13.7972 7.42967 13.695 7.42917C13.6828 7.43004 13.6706 7.43004 13.6584 7.42917L13.0137 7.3511C12.9396 7.34239 12.87 7.38888 12.8491 7.46114C12.2332 9.62364 10.522 11.2915 8.35841 11.8381C6.22653 12.3483 3.98944 11.6322 2.53917 9.97545C2.3514 9.77096 2.28813 9.47994 2.37381 9.21495C2.4595 8.94996 2.68072 8.75255 2.9519 8.69909C3.22308 8.64562 3.5017 8.74448 3.67999 8.95743C4.75837 10.1892 6.42166 10.7216 8.00678 10.3425C9.52881 9.95472 10.7572 8.82382 11.2787 7.3302C11.2941 7.28606 11.2889 7.23729 11.2647 7.19741C11.2404 7.15748 11.1993 7.13098 11.1532 7.12548L10.027 6.98963C9.91256 6.9754 9.81591 6.89726 9.77722 6.78773C9.73853 6.67819 9.76443 6.55601 9.84414 6.47201L11.9503 4.25032C12.0159 4.17942 12.1115 4.14486 12.2068 4.15749C12.3023 4.16854 12.387 4.22436 12.4353 4.3081L13.9589 6.96934Z" fill="white"/>
</svg>
