<?xml version="1.0" encoding="UTF-8"?>
<svg width="24px" height="24px" viewBox="0 0 24 24" version="1.1" xmlns="http://www.w3.org/2000/svg" xmlns:xlink="http://www.w3.org/1999/xlink">
    <!-- Generator: Sketch 52.5 (67469) - http://www.bohemiancoding.com/sketch -->
    <title>Combined Shape</title>
    <desc>Created with Sketch.</desc>
    <g id="Reminders" stroke="none" stroke-width="1" fill="none" fill-rule="evenodd">
        <g id="Post-reminder:-Empty-state" transform="translate(-528.000000, -313.000000)" fill="#FFFFFF">
            <g id="Group-8" transform="translate(245.000000, 137.000000)">
                <g id="Group-5" transform="translate(122.000000, 160.000000)">
                    <path d="M168.518412,18.1563363 C168.048846,17.6630375 168.048853,16.8632501 168.518429,16.3699613 C168.988004,15.8766725 169.749329,15.8766806 170.218895,16.3699795 L173.826129,20.1595302 C174.295695,20.6528291 174.295687,21.4526165 173.826112,21.9459053 L170.218878,25.7353019 C169.749302,26.2285907 168.987978,26.2285826 168.518412,25.7352837 C168.048846,25.2419848 168.048853,24.4421975 168.518429,23.9489087 L170.065483,22.3157895 L168.813749,22.3157895 C165.829094,22.3157895 163.404823,24.8622017 163.404823,28 C163.404823,30.9454827 165.92167,33.6842105 168.211217,33.6842105 C168.875291,33.6842105 169.413629,34.2497456 169.413629,34.9473684 C169.413629,35.6449913 168.875291,36.2105263 168.211217,36.2105263 C164.574213,36.2105263 161,32.3212176 161,28 C161,23.4668817 164.501018,19.7894737 168.813749,19.7894737 L170.065483,19.7894737 L168.518412,18.1563363 Z M177.433363,37.8436637 C177.902929,38.3369625 177.902921,39.1367499 177.433346,39.6300387 C176.96377,40.1233275 176.202445,40.1233194 175.732879,39.6300205 L172.125645,35.8404698 C171.656079,35.3471709 171.656087,34.5473835 172.125663,34.0540947 L175.732897,30.2646981 C176.202472,29.7714093 176.963797,29.7714174 177.433363,30.2647163 C177.902929,30.7580152 177.902921,31.5578025 177.433346,32.0510913 L175.886291,33.6842105 L177.186251,33.6842105 C180.170906,33.6842105 182.595177,31.1377983 182.595177,28 C182.595177,25.0545173 180.07833,22.3157895 177.788783,22.3157895 C177.124709,22.3157895 176.586371,21.7502544 176.586371,21.0526316 C176.586371,20.3550087 177.124709,19.7894737 177.788783,19.7894737 C181.425787,19.7894737 185,23.6787824 185,28 C185,32.5331183 181.498982,36.2105263 177.186251,36.2105263 L175.886291,36.2105263 L177.433363,37.8436637 Z" id="Combined-Shape"></path>
                </g>
            </g>
        </g>
    </g>
</svg>