<?xml version="1.0" encoding="UTF-8"?>
<svg width="16px" height="12px" viewBox="0 0 16 12" version="1.1" xmlns="http://www.w3.org/2000/svg" xmlns:xlink="http://www.w3.org/1999/xlink">
    <!-- Generator: Sketch 52.6 (67491) - http://www.bohemiancoding.com/sketch -->
    <title>Combined Shape</title>
    <desc>Created with Sketch.</desc>
    <g id="Reminders" stroke="none" stroke-width="1" fill="none" fill-rule="evenodd">
        <g id="Reminders:-New-reminder" transform="translate(-16.000000, -22.000000)" fill="#898D93" fill-rule="nonzero">
            <path d="M25.2,23.4684074 L25.2,35.0407048 C25.2,35.5705089 24.6673622,36 24,36 C23.3372583,36 22.8,35.5731027 22.8,35.0407048 L22.8,23.4684074 L20.0485281,25.7976958 C19.579899,26.1944189 18.820101,26.1944189 18.3514719,25.7976958 C17.8828427,25.4009727 17.8828427,24.7577575 18.3514719,24.3610344 L23.1514719,20.2975423 C23.620101,19.9008192 24.379899,19.9008192 24.8485281,20.2975423 L29.6485281,24.3610344 C30.1171573,24.7577575 30.1171573,25.4009727 29.6485281,25.7976958 C29.179899,26.1944189 28.420101,26.1944189 27.9514719,25.7976958 L25.2,23.4684074 Z" id="Combined-Shape" transform="translate(24.000000, 28.000000) rotate(-90.000000) translate(-24.000000, -28.000000) "></path>
        </g>
    </g>
</svg>