<?xml version="1.0" encoding="UTF-8"?>
<svg width="16px" height="16px" viewBox="0 0 16 16" version="1.1" xmlns="http://www.w3.org/2000/svg" xmlns:xlink="http://www.w3.org/1999/xlink">
    <!-- Generator: Sketch 52.5 (67469) - http://www.bohemiancoding.com/sketch -->
    <title>Combined Shape</title>
    <desc>Created with Sketch.</desc>
    <g id="Reminders" stroke="none" stroke-width="1" fill="none" fill-rule="evenodd">
        <g id="Reminder:-Compose-draft" transform="translate(-85.000000, -616.000000)" fill="#34414F">
            <g id="Group-15" transform="translate(68.000000, 610.000000)">
                <g id="Group-13">
                    <g id="Group-7">
                        <path d="M22.0122744,7.43755755 C21.6992304,7.10869164 21.6992355,6.57550008 22.0122859,6.24664086 C22.3253363,5.91778165 22.8328861,5.91778707 23.1459301,6.24665298 L25.5507527,8.77302017 C25.8637967,9.10188607 25.8637916,9.63507763 25.5507412,9.96393685 L23.1459186,12.4902012 C22.8328682,12.8190605 22.3253184,12.819055 22.0122744,12.4901891 C21.6992304,12.1613232 21.6992355,11.6281317 22.0122859,11.2992724 L23.0436553,10.2105263 L22.2091661,10.2105263 C20.2193959,10.2105263 18.603215,11.9081345 18.603215,14 C18.603215,15.9636551 20.2811135,17.7894737 21.8074782,17.7894737 C22.2501938,17.7894737 22.6090857,18.1664971 22.6090857,18.6315789 C22.6090857,19.0966608 22.2501938,19.4736842 21.8074782,19.4736842 C19.3828089,19.4736842 17,16.8808117 17,14 C17,10.9779211 19.3340119,8.52631579 22.2091661,8.52631579 L23.0436553,8.52631579 L22.0122744,7.43755755 Z M27.9555753,20.5624425 C28.2686193,20.8913084 28.2686141,21.4244999 27.9555637,21.7533591 C27.6425133,22.0822184 27.1349635,22.0822129 26.8219195,21.753347 L24.4170969,19.2269798 C24.1040529,18.8981139 24.1040581,18.3649224 24.4171085,18.0360631 L26.821931,15.5097988 C27.1349814,15.1809395 27.6425312,15.180945 27.9555753,15.5098109 C28.2686193,15.8386768 28.2686141,16.3718683 27.9555637,16.7007276 L26.9241943,17.7894737 L27.7908339,17.7894737 C29.7806041,17.7894737 31.396785,16.0918655 31.396785,14 C31.396785,12.0363449 29.7188865,10.2105263 28.1925218,10.2105263 C27.7498062,10.2105263 27.3909143,9.83350295 27.3909143,9.36842105 C27.3909143,8.90333916 27.7498062,8.52631579 28.1925218,8.52631579 C30.6171911,8.52631579 33,11.1191883 33,14 C33,17.0220789 30.6659881,19.4736842 27.7908339,19.4736842 L26.9241943,19.4736842 L27.9555753,20.5624425 Z" id="Combined-Shape"></path>
                    </g>
                </g>
            </g>
        </g>
    </g>
</svg>