<?xml version="1.0" encoding="UTF-8"?>
<svg width="16px" height="14px" viewBox="0 0 16 14" version="1.1" xmlns="http://www.w3.org/2000/svg" xmlns:xlink="http://www.w3.org/1999/xlink">
    <!-- Generator: Sketch 50.2 (55047) - http://www.bohemiancoding.com/sketch -->
    <title>Combined Shape</title>
    <desc>Created with Sketch.</desc>
    <defs></defs>
    <g id="Who-saw-this" stroke="none" stroke-width="1" fill="none" fill-rule="evenodd">
        <g id="WST:-2.0" transform="translate(-1202.000000, -419.000000)" fill="#34414F">
            <path d="M1211.45455,426.573973 L1210.51426,427.514259 C1210.23024,427.798277 1209.76976,427.798277 1209.48574,427.514259 L1208.54545,426.573973 L1204.48073,430.6387 L1215.51702,430.636446 L1211.45455,426.573973 Z M1216.54549,421.483033 L1212.48306,425.545455 L1216.54526,429.607653 L1216.54549,421.483033 Z M1207.51694,425.545455 L1203.45474,421.483256 L1203.45451,429.607876 L1207.51694,425.545455 Z M1210,425.995506 L1215.52255,420.452207 L1204.4797,420.454464 L1210,425.995506 Z M1203.4552,419 L1216.5448,419 C1217.34848,419 1218,419.64918 1218,420.450974 L1218,430.639935 C1218,431.441286 1217.34797,432.090909 1216.5448,432.090909 L1203.4552,432.090909 C1202.65152,432.090909 1202,431.441729 1202,430.639935 L1202,420.450974 C1202,419.649623 1202.65203,419 1203.4552,419 Z" id="Combined-Shape"></path>
        </g>
    </g>
</svg>