<?xml version="1.0" encoding="UTF-8"?>
<svg width="12px" height="14px" viewBox="0 0 12 14" version="1.1" xmlns="http://www.w3.org/2000/svg" xmlns:xlink="http://www.w3.org/1999/xlink">
    <!-- Generator: Sketch 52.6 (67491) - http://www.bohemiancoding.com/sketch -->
    <title>Path</title>
    <desc>Created with Sketch.</desc>
    <g id="Styles-&amp;-states" stroke="none" stroke-width="1" fill="none" fill-rule="evenodd">
        <g id="Stream-states" transform="translate(-572.000000, -850.000000)" fill="#242D42" fill-rule="nonzero">
            <g id="Group-21" transform="translate(320.000000, 735.000000)">
                <g id="Group-17">
                    <g id="Group-14" transform="translate(0.000000, 26.000000)">
                        <g id="Group-11">
                            <path d="M254.25,101.526583 C254.25,101.527326 261.751185,101.526316 261.751185,101.526316 C261.749733,101.526316 261.749881,94.3074629 261.749968,91.9473684 L254.25,91.9473684 L254.25,101.526583 Z M263.25,101.526583 C263.25,102.340329 262.577205,103 261.751185,103 L254.248815,103 C253.421042,103 252.75,102.341707 252.75,101.526583 L252.75,91.9473681 C252.335726,91.9470245 252,91.6200947 252,91.2105263 C252,90.8035797 252.333473,90.4736842 252.750654,90.4736842 L256.5,90.4736842 C256.5,89.6597909 257.171573,89 258,89 C258.828427,89 259.5,89.6597909 259.5,90.4736842 L263.249346,90.4736842 C263.663921,90.4736842 264,90.8007425 264,91.2105263 C264,91.6172604 263.666875,91.9470237 263.25,91.9473682 L263.25,101.526583 Z M258.75,94.1560855 C258.75,93.7501381 259.082899,93.4210526 259.5,93.4210526 C259.914214,93.4210526 260.25,93.7499137 260.25,94.1560855 L260.25,99.3175987 C260.25,99.7235461 259.917101,100.052632 259.5,100.052632 C259.085786,100.052632 258.75,99.7237705 258.75,99.3175987 L258.75,94.1560855 Z M255.75,94.1560855 C255.75,93.7501381 256.082899,93.4210526 256.5,93.4210526 C256.914214,93.4210526 257.25,93.7499137 257.25,94.1560855 L257.25,99.3175987 C257.25,99.7235461 256.917101,100.052632 256.5,100.052632 C256.085786,100.052632 255.75,99.7237705 255.75,99.3175987 L255.75,94.1560855 Z" id="Combined-Shape"></path>
                        </g>
                    </g>
                </g>
            </g>
        </g>
    </g>
</svg>