<?xml version="1.0" encoding="UTF-8"?>
<svg width="12px" height="12px" viewBox="0 0 12 12" version="1.1" xmlns="http://www.w3.org/2000/svg" xmlns:xlink="http://www.w3.org/1999/xlink">
    <!-- Generator: Sketch 51.2 (57519) - http://www.bohemiancoding.com/sketch -->
    <title>Combined Shape</title>
    <desc>Created with Sketch.</desc>
    <defs></defs>
    <g id="Video" stroke="none" stroke-width="1" fill="none" fill-rule="evenodd">
        <g id="Video-2.0-assets" transform="translate(-143.000000, -704.000000)" fill="#FFFFFF" fill-rule="nonzero">
            <g id="Group-13" transform="translate(129.000000, 690.000000)">
                <g id="Close-button">
                    <path d="M25.7803208,15.2803393 C26.0732192,14.9874512 26.0732274,14.5125775 25.7803393,14.2196792 C25.4874512,13.9267808 25.0125775,13.9267726 24.7196792,14.2196607 L20,18.9391752 L15.2803208,14.2196607 C14.9874225,13.9267726 14.5125488,13.9267808 14.2196607,14.2196792 C13.9267726,14.5125775 13.9267808,14.9874512 14.2196792,15.2803393 L18.9393213,19.9998169 L14.2196792,24.7192945 C13.9267808,25.0121826 13.9267726,25.4870563 14.2196607,25.7799546 C14.5125488,26.072853 14.9874225,26.0728612 15.2803208,25.7799731 L20,21.0604586 L24.7196792,25.7799731 C25.0125775,26.0728612 25.4874512,26.072853 25.7803393,25.7799546 C26.0732274,25.4870563 26.0732192,25.0121826 25.7803208,24.7192945 L21.0606787,19.9998169 L25.7803208,15.2803393 Z" id="Combined-Shape"></path>
                </g>
            </g>
        </g>
    </g>
</svg>