<?xml version="1.0" encoding="UTF-8"?>
<svg width="14px" height="12px" viewBox="0 0 14 12" version="1.1" xmlns="http://www.w3.org/2000/svg" xmlns:xlink="http://www.w3.org/1999/xlink">
    <!-- Generator: Sketch 51.1 (57501) - http://www.bohemiancoding.com/sketch -->
    <title>Combined Shape</title>
    <desc>Created with Sketch.</desc>
    <defs></defs>
    <g id="Video" stroke="none" stroke-width="1" fill="none" fill-rule="evenodd" opacity="0.5">
        <g id="June-29:-Covershot-selected" transform="translate(-282.000000, -184.000000)" fill="#FFFFFF" fill-rule="nonzero">
            <g id="Group-7" transform="translate(260.000000, 165.000000)">
                <g id="Group">
                    <g id="Group-Copy-2" transform="translate(21.000000, 16.000000)">
                        <g id="Group-9" transform="translate(0.000000, 1.000000)">
                            <path d="M10.5813894,6.5 C12.2078862,6.5 13.5263158,7.84275044 13.5263158,9.5 C13.5263158,11.1556994 12.2056563,12.5 10.5813894,12.5 L1.73684211,12.5 C1.32989545,12.5 1,12.8357864 1,13.25 C1,13.6642136 1.32989545,14 1.73684211,14 L10.5813894,14 C13.0195638,14 15,11.9841121 15,9.5 C15,7.01451773 13.0219706,5 10.5813894,5 L3.51573631,5 L5.20523658,3.28033009 C5.49299132,2.98743687 5.49299132,2.51256313 5.20523658,2.21966991 C4.91748183,1.9267767 4.45093922,1.9267767 4.16318448,2.21966991 L1.21581606,5.21966991 C0.928061315,5.51256313 0.928061315,5.98743687 1.21581606,6.28033009 L4.16318448,9.28033009 C4.45093922,9.5732233 4.91748183,9.5732233 5.20523658,9.28033009 C5.49299132,8.98743687 5.49299132,8.51256313 5.20523658,8.21966991 L3.51573631,6.5 L10.5813894,6.5 Z" id="Combined-Shape" transform="translate(8.000000, 8.000000) scale(1, -1) translate(-8.000000, -8.000000) "></path>
                        </g>
                    </g>
                </g>
            </g>
        </g>
    </g>
</svg>