<?xml version="1.0" encoding="UTF-8"?>
<svg width="240px" height="240px" viewBox="0 0 240 240" version="1.1" xmlns="http://www.w3.org/2000/svg" xmlns:xlink="http://www.w3.org/1999/xlink">
    <!-- Generator: Sketch 50.2 (55047) - http://www.bohemiancoding.com/sketch -->
    <title>Loupe</title>
    <desc>Created with Sketch.</desc>
    <defs></defs>
    <g id="➡️-Boards-&amp;-Posts" stroke="none" stroke-width="1" fill="none" fill-rule="evenodd">
        <g id="Post-deleted" transform="translate(-191.000000, -280.000000)">
            <g id="Loupe" transform="translate(191.000000, 280.000000)">
                <path d="M10.1587302,81.2698413 C10.1587302,41.9961905 41.9961905,10.1587302 81.2698413,10.1587302 C120.543492,10.1587302 152.380952,41.9961905 152.380952,81.2698413 C152.380952,120.543492 120.543492,152.380952 81.2698413,152.380952 C41.9961905,152.380952 10.1587302,120.543492 10.1587302,81.2698413" id="Fill-2" fill="#FFFFFF"></path>
                <path d="M236.625778,206.149587 L172.698159,142.221968 L142.221968,172.698159 L206.149587,236.625778 C210.117841,240.594032 216.548317,240.594032 220.516571,236.625778 L236.625778,220.516571 C240.594032,216.548317 240.594032,210.117841 236.625778,206.149587" id="Fill-4" fill="#D6D6D6"></path>
                <polyline id="Fill-6" fill="#BCBCBB" points="132.063492 121.904762 162.539683 152.380952 152.380952 162.539683 121.904762 132.063492"></polyline>
                <path d="M81.2698413,142.222222 C47.6063492,142.222222 20.3174603,114.933333 20.3174603,81.2698413 C20.3174603,47.6063492 47.6063492,20.3174603 81.2698413,20.3174603 C114.933333,20.3174603 142.222222,47.6063492 142.222222,81.2698413 C142.222222,114.933333 114.933333,142.222222 81.2698413,142.222222 M81.2698413,0 C36.3860317,0 0,36.3860317 0,81.2698413 C0,126.153651 36.3860317,162.539683 81.2698413,162.539683 C126.153651,162.539683 162.539683,126.153651 162.539683,81.2698413 C162.539683,36.3860317 126.153651,0 81.2698413,0" id="Fill-8" fill="#D6D6D6"></path>
                <path d="M221.387683,221.387683 L164.643556,164.643556 C160.676571,160.675302 154.243556,160.675302 150.276571,164.643556 L142.221968,172.698159 L206.149587,236.625778 C210.116571,240.594032 216.549587,240.594032 220.516571,236.625778 L235.754667,221.387683 C231.787683,225.355937 225.354667,225.355937 221.387683,221.387683" id="Fill-10" fill="#BCBCBB"></path>
                <path d="M81.2698413,20.3174603 C113.367619,20.3174603 139.669841,45.127619 142.046984,76.6171429 C142.246349,79.248254 144.463492,81.2698413 147.102222,81.2698413 C150.07619,81.2698413 152.39873,78.7263492 152.170159,75.7612698 C149.35873,39.0615873 118.689524,10.1587302 81.2698413,10.1587302 C43.8501587,10.1587302 13.1809524,39.0615873 10.3695238,75.7612698 C10.1409524,78.7263492 12.4634921,81.2698413 15.4374603,81.2698413 C18.0761905,81.2698413 20.2933333,79.248254 20.4926984,76.6171429 C22.8698413,45.127619 49.1720635,20.3174603 81.2698413,20.3174603" id="Fill-12" fill="#BCBCBB"></path>
                <path d="M81.2698413,152.380952 C43.6177778,152.380952 12.7987302,123.11619 10.32,86.0914286 C10.1384127,83.3930159 7.95301587,81.2698413 5.24825397,81.2698413 C2.34285714,81.2698413 -0.0165079365,83.7066667 0.172698413,86.6069841 C2.92063492,129.003175 38.1777778,162.539683 81.2698413,162.539683 C124.361905,162.539683 159.619048,129.003175 162.366984,86.6069841 C162.55619,83.7066667 160.196825,81.2698413 157.291429,81.2698413 C154.586667,81.2698413 152.40127,83.3930159 152.219683,86.0914286 C149.740952,123.11619 118.921905,152.380952 81.2698413,152.380952" id="Fill-14" fill="#BCBCBB"></path>
                <path d="M36.8389841,81.3349841 C32.4034286,55.6384762 58.9050159,35.7984762 81.2694603,36.8257778 C101.51073,37.8518095 115.42819,57.8099048 125.701206,81.2041905 C135.976762,104.57054 110.126603,124.41054 81.2694603,125.714667 C54.5342222,127.018794 41.272,107.061968 36.8389841,81.3349841" id="Fill-16" fill="#D6D6D6"></path>
                <path d="M97.3549206,72.5396825 C97.3549206,69.7346032 99.6292063,67.4603175 102.434286,67.4603175 C105.239365,67.4603175 107.513651,69.7346032 107.513651,72.5396825 C107.513651,75.3447619 105.239365,77.6190476 102.434286,77.6190476 C99.6292063,77.6190476 97.3549206,75.3447619 97.3549206,72.5396825" id="Fill-18" fill="#34414F"></path>
                <path d="M55.0260317,72.5396825 C55.0260317,69.7346032 57.3003175,67.4603175 60.1053968,67.4603175 C62.9104762,67.4603175 65.1847619,69.7346032 65.1847619,72.5396825 C65.1847619,75.3447619 62.9104762,77.6190476 60.1053968,77.6190476 C57.3003175,77.6190476 55.0260317,75.3447619 55.0260317,72.5396825" id="Fill-20" fill="#34414F"></path>
                <path d="M71.1111111,91.4285714 C81.2698413,86.9130159 91.4285714,91.4285714 91.4285714,91.4285714" id="Stroke-22" stroke="#34414F" stroke-width="4" stroke-linecap="round" stroke-linejoin="round"></path>
            </g>
        </g>
    </g>
</svg>