<?xml version="1.0" encoding="UTF-8"?>
<svg width="14px" height="14px" viewBox="0 0 14 14" version="1.1" xmlns="http://www.w3.org/2000/svg" xmlns:xlink="http://www.w3.org/1999/xlink">
    <!-- Generator: Sketch 52.6 (67491) - http://www.bohemiancoding.com/sketch -->
    <title>Combined Shape Copy</title>
    <desc>Created with Sketch.</desc>
    <g id="Mobile-MVP" stroke="none" stroke-width="1" fill="none" fill-rule="evenodd">
        <g id="App-MVP---Search" transform="translate(-16.000000, -206.000000)" fill="#242D42">
            <g id="Group-2" transform="translate(16.000000, 162.000000)">
                <path d="M6.22222222,48.6665169 C6.22222222,48.2370448 6.56745042,47.8888889 7,47.8888889 C7.42955481,47.8888889 7.77777778,48.2340018 7.77777778,48.6665169 L7.77777778,51.7777778 C7.77777778,52.2073326 7.43294753,52.5555556 7.00073836,52.5555556 L5.44370608,52.5555556 C5.01455906,52.5555556 4.66666667,52.2103274 4.66666667,51.7777778 C4.66666667,51.348223 5.01149691,51 5.44370608,51 L6.22222222,51 L6.22222222,48.6665169 Z M10.1144284,49.4444444 C9.68409181,49.4444444 9.33333333,49.0962215 9.33333333,48.6666667 C9.33333333,48.2341171 9.68304151,47.8888889 10.1144284,47.8888889 L11.4220186,47.8888889 C10.2347766,46.3075706 8.81486729,45.5555556 7,45.5555556 C3.99311636,45.5555556 1.55555556,47.9931164 1.55555556,51 C1.55555556,54.0068836 3.99311636,56.4444444 7,56.4444444 C9.75358273,56.4444444 12.0650048,54.3885711 12.4023522,51.6809749 C12.4554611,51.2547159 12.8440656,50.9522179 13.2703246,51.0053267 C13.6965837,51.0584356 13.9990817,51.4470401 13.9459728,51.8732991 C13.5118922,55.3572889 10.5406874,58 7,58 C3.13400675,58 0,54.8659932 0,51 C0,47.1340068 3.13400675,44 7,44 C9.22521503,44 11.0098362,44.9030066 12.4444444,46.6729144 L12.4444444,45.5588729 C12.4444444,45.1285363 12.7926674,44.7777778 13.2222222,44.7777778 C13.6547718,44.7777778 14,45.127486 14,45.5588729 C14,45.5588729 13.9999994,48.6644555 14,48.6666667 C14,48.8823878 13.91302,49.0763901 13.7711081,49.2163627 C13.6304447,49.3572049 13.4364477,49.4444444 13.2189049,49.4444444 L10.1144284,49.4444444 Z" id="Combined-Shape-Copy"></path>
            </g>
        </g>
    </g>
</svg>