<?xml version="1.0" encoding="UTF-8"?>
<svg width="14px" height="14px" viewBox="0 0 14 14" version="1.1" xmlns="http://www.w3.org/2000/svg" xmlns:xlink="http://www.w3.org/1999/xlink">
    <!-- Generator: Sketch 51.3 (57544) - http://www.bohemiancoding.com/sketch -->
    <title>Combined Shape</title>
    <desc>Created with Sketch.</desc>
    <defs></defs>
    <g id="Section-management" stroke="none" stroke-width="1" fill="none" fill-rule="evenodd" opacity="0.800000012">
        <g id="Create-section-(mobile)" transform="translate(-24.000000, -21.000000)" fill="#898D93" fill-rule="nonzero">
            <path d="M37.7437076,22.4937748 C38.0854224,22.1520616 38.085432,21.5980253 37.7437292,21.2563002 C37.4020264,20.914575 36.8480071,20.9145654 36.5062924,21.2562786 L31,26.7625469 L25.4937076,21.2562786 C25.1519929,20.9145654 24.5979736,20.914575 24.2562708,21.2563002 C23.914568,21.5980253 23.9145776,22.1520616 24.2562924,22.4937748 L29.7625416,28 L24.2562924,33.5062252 C23.9145776,33.8479384 23.914568,34.4019747 24.2562708,34.7436998 C24.5979736,35.085425 25.1519929,35.0854346 25.4937076,34.7437214 L31,29.2374531 L36.5062924,34.7437214 C36.8480071,35.0854346 37.4020264,35.085425 37.7437292,34.7436998 C38.085432,34.4019747 38.0854224,33.8479384 37.7437076,33.5062252 L32.2374584,28 L37.7437076,22.4937748 Z" id="Combined-Shape"></path>
        </g>
    </g>
</svg>