<?xml version="1.0" encoding="UTF-8"?>
<svg width="17px" height="17px" viewBox="0 0 17 17" version="1.1" xmlns="http://www.w3.org/2000/svg" xmlns:xlink="http://www.w3.org/1999/xlink">
    <!-- Generator: Sketch 49 (51002) - http://www.bohemiancoding.com/sketch -->
    <title>Team icon</title>
    <desc>Created with Sketch.</desc>
    <defs></defs>
    <g id="👋-Onboarding" stroke="none" stroke-width="1" fill="none" fill-rule="evenodd">
        <g id="12:-New-section" transform="translate(-445.000000, -391.000000)" fill="#34414F">
            <g id="Group-11" transform="translate(404.000000, 173.000000)">
                <g id="Group-6" transform="translate(25.000000, 91.000000)">
                    <g id="Group-5">
                        <g id="Group-4" transform="translate(0.000000, 88.000000)">
                            <path d="M26.3333453,39.3333333 C28.1006595,39.3333333 29.5333507,40.7434623 29.5333507,42.4829446 C29.5333507,43.1449767 29.4132521,44.0634493 29.1337685,44.9472689 C30.1007729,45.2998632 30.8519418,45.8692166 31.392501,46.6238613 C32.0693481,47.5687701 32.3333586,48.666117 32.3333586,49.7320499 C32.3333586,50.0232055 32.1751372,50.2913666 31.9202655,50.4321795 C31.608547,50.6043995 31.0686205,50.8491819 30.3445918,51.0907488 C29.8126371,51.2682317 29.2627421,51.414292 28.6987166,51.52193 C28.9842422,52.1479175 29.1333511,52.7848463 29.1333511,53.3316056 C29.1333511,53.6404746 28.9555028,53.9217449 28.6764461,54.0542095 C28.3246039,54.2212244 27.7160337,54.4615644 26.9106919,54.6996159 C25.5713031,55.0955265 24.1595508,55.3333605 22.7333548,55.3333605 C21.3071589,55.3333605 19.8954066,55.0955265 18.5560178,54.6996159 C17.7506759,54.4615644 17.1421058,54.2212244 16.7902636,54.0542095 C16.5112068,53.9217449 16.3333586,53.6404746 16.3333586,53.3316056 C16.3333586,52.3614426 16.7934224,51.1215598 17.6482405,50.1527492 C18.183779,49.545795 18.8478294,49.0606159 19.6372995,48.7179344 C19.2839772,47.6571469 19.133333,46.5314609 19.133333,45.7325435 C19.133333,43.7445638 20.7451107,42.1329878 22.7333392,42.1329878 C22.8743606,42.1329878 23.0134882,42.1410953 23.1502812,42.1568696 C23.3160481,40.5706004 24.6778952,39.3333333 26.3333453,39.3333333 Z M25.8286235,48.7202012 C26.5728775,49.0444274 27.2058701,49.4956572 27.7250193,50.056303 C28.4529944,49.9661298 29.1618267,49.7988522 29.8381468,49.5732028 C30.1571417,49.4667725 30.4479992,49.3540398 30.7066058,49.241091 C30.6403702,48.6421685 30.4477765,48.0524687 30.0917163,47.5553927 C29.7230303,47.0406906 29.1951691,46.6481689 28.470119,46.4070815 C27.9704549,47.1809891 27.2729846,47.7322967 26.3333453,47.7322967 C26.2544851,47.7322967 26.1773307,47.7284135 26.1018558,47.7208415 C26.0294364,48.0523823 25.9388848,48.3894603 25.8286235,48.7202012 Z M26.3333453,46.1324942 C27.0885857,46.1324942 27.933348,44.2960035 27.933348,42.4829446 C27.933348,41.6326974 27.2225934,40.9331359 26.3333453,40.9331359 C25.4440971,40.9331359 24.7333425,41.6326974 24.7333425,42.4829446 C24.7333425,42.569627 24.7352735,42.656363 24.7390333,42.7429492 C25.7006298,43.3891897 26.3333453,44.4869865 26.3333453,45.7325435 C26.3333453,45.8582345 26.3296166,45.9920135 26.3219566,46.1323554 C26.325755,46.1324478 26.3295513,46.1324942 26.3333453,46.1324942 Z M18.8480579,51.2111283 C18.4089199,51.7088267 18.1194902,52.3095697 17.9981767,52.8248872 C18.3019246,52.9408638 18.6408977,53.0564592 19.0096164,53.165449 C20.2114409,53.5206969 21.4749568,53.733558 22.7333548,53.733558 C23.9917529,53.733558 25.2552687,53.5206969 26.4570932,53.165449 C26.82531,53.0566076 27.1638621,52.9411785 27.4672923,52.8253608 C27.3450768,52.314136 27.0555722,51.7145878 26.6180037,51.2174417 C26.2330798,50.7801081 25.751459,50.4268477 25.1639829,50.174684 C24.6000912,51.081443 23.8073229,51.7318031 22.7333392,51.7318031 C21.6585581,51.7318031 20.8654102,51.080477 20.3014399,50.172664 C19.7137906,50.4237562 19.2323795,50.7755564 18.8480579,51.2111283 Z M22.7333392,50.1320005 C23.7288041,50.1320005 24.7333425,47.9134965 24.7333425,45.7325435 C24.7333425,44.6281103 23.8379105,43.7327903 22.7333392,43.7327903 C21.6287678,43.7327903 20.7333358,44.6281103 20.7333358,45.7325435 C20.7333358,47.9134965 21.7378742,50.1320005 22.7333392,50.1320005 Z" id="Team-icon"></path>
                        </g>
                    </g>
                </g>
            </g>
        </g>
    </g>
</svg>