<?xml version="1.0" encoding="UTF-8"?>
<svg width="8px" height="10px" viewBox="0 0 8 10" version="1.1" xmlns="http://www.w3.org/2000/svg" xmlns:xlink="http://www.w3.org/1999/xlink">
    <!-- Generator: Sketch 52.6 (67491) - http://www.bohemiancoding.com/sketch -->
    <title>Combined Shape</title>
    <desc>Created with Sketch.</desc>
    <g id="Settings" stroke="none" stroke-width="1" fill="none" fill-rule="evenodd">
        <g id="Integrations-(multi)" transform="translate(-1240.000000, -290.000000)" fill="#34414F">
            <g id="Group-4" transform="translate(984.000000, 187.000000)">
                <g id="Group-11" transform="translate(0.000000, 66.000000)">
                    <g id="Group-4-Copy-2">
                        <g id="Group-6">
                            <g id="Group-5" transform="translate(0.000000, 26.000000)">
                                <path d="M259.288945,11.2830883 C259.681988,10.8980624 260.323619,10.9023553 260.71228,11.2830883 L263.780293,14.2885208 C264.173336,14.6735467 264.046507,14.9856719 263.496334,14.9856719 L256.50489,14.9856719 C255.955021,14.9856719 255.83227,14.6692538 256.220931,14.2885208 L259.288945,11.2830883 Z M259.288945,20.7169117 L256.220931,17.7114792 C255.83227,17.3307462 255.955021,17.0143281 256.50489,17.0143281 L263.496334,17.0143281 C264.046507,17.0143281 264.173336,17.3264533 263.780293,17.7114792 L260.71228,20.7169117 C260.323619,21.0976447 259.681988,21.1019376 259.288945,20.7169117 Z" id="Combined-Shape"></path>
                            </g>
                        </g>
                    </g>
                </g>
            </g>
        </g>
    </g>
</svg>