<?xml version="1.0" encoding="UTF-8"?>
<svg width="8px" height="10px" viewBox="0 0 8 10" version="1.1" xmlns="http://www.w3.org/2000/svg" xmlns:xlink="http://www.w3.org/1999/xlink">
    <!-- Generator: Sketch 52.6 (67491) - http://www.bohemiancoding.com/sketch -->
    <title>Group 37</title>
    <desc>Created with Sketch.</desc>
    <g id="Post-authoring" stroke="none" stroke-width="1" fill="none" fill-rule="evenodd">
        <g id="Alt-compose-(cmail-section-picker)-Copy" transform="translate(-752.000000, -319.000000)" fill="#FFFFFF">
            <g id="Group-11" transform="translate(632.000000, 296.000000)">
                <g id="Group-3" transform="translate(16.000000, 12.000000)">
                    <g id="Group-38">
                        <g id="Group-37" transform="translate(104.000000, 11.000000)">
                            <path d="M3.23053577,0.288694274 C3.62318119,-0.0961974463 4.25971589,-0.0962654017 4.65243064,0.288694274 L7.65550236,3.23246329 C8.04814778,3.61735501 7.91541338,3.9293714 7.36845306,3.9293714 L0.514513343,3.9293714 C-0.0366650327,3.9293714 -0.165250705,3.61742296 0.227464046,3.23246329 L3.23053577,0.288694274 Z M3.23053577,9.57004852 L0.227464046,6.62627951 C-0.165250705,6.24131983 -0.0366650327,5.9293714 0.514513343,5.9293714 L7.36845306,5.9293714 C7.91541338,5.9293714 8.04814778,6.24138779 7.65550236,6.62627951 L4.65243064,9.57004852 C4.25971589,9.9550082 3.62318119,9.95494024 3.23053577,9.57004852 Z" id="Combined-Shape"></path>
                        </g>
                    </g>
                </g>
            </g>
        </g>
    </g>
</svg>