<?xml version="1.0" encoding="UTF-8"?>
<svg width="14px" height="14px" viewBox="0 0 14 14" version="1.1" xmlns="http://www.w3.org/2000/svg" xmlns:xlink="http://www.w3.org/1999/xlink">
    <!-- Generator: Sketch 51 (57462) - http://www.bohemiancoding.com/sketch -->
    <title>Combined Shape</title>
    <desc>Created with Sketch.</desc>
    <defs></defs>
    <g id="Who-saw-this" stroke="none" stroke-width="1" fill="none" fill-rule="evenodd">
        <g id="Who-saw-this---modal-states-(July2)" transform="translate(-1206.000000, -667.000000)">
            <rect fill="#FBFAF7" x="0" y="0" width="1726" height="1300"></rect>
            <g id="Group-9" transform="translate(78.000000, 122.000000)" fill="#34414F" fill-rule="nonzero">
                <g id="Group-4-Copy" transform="translate(807.000000, 406.000000)">
                    <g id="Group-21" transform="translate(25.000000, 57.000000)">
                        <g id="Group-8" transform="translate(0.000000, 8.000000)">
                            <path d="M308.461538,76.6263181 L301.313159,83.7746975 C301.012756,84.0751008 300.525706,84.0751008 300.225302,83.7746975 C299.924899,83.4742942 299.924899,82.9872442 300.225302,82.6868409 L307.373682,75.5384615 L305.384615,75.5384615 C304.959781,75.5384615 304.615385,75.1940652 304.615385,74.7692308 C304.615385,74.3443963 304.959781,74 305.384615,74 L309.230769,74 C309.655604,74 310,74.3443963 310,74.7692308 L310,78.6153846 C310,79.040219 309.655604,79.3846154 309.230769,79.3846154 C308.805935,79.3846154 308.461538,79.040219 308.461538,78.6153846 L308.461538,76.6263181 Z M308.444444,81.7777778 C308.444444,81.348223 308.792667,81 309.222222,81 C309.651777,81 310,81.348223 310,81.7777778 L310,86.4463542 C310,87.305212 309.304904,88 308.444558,88 L297.555442,88 C296.695993,88 296,87.3053073 296,86.4445583 L296,75.5554417 C296,74.6967516 296.694996,74 297.553646,74 L302.222222,74 C302.651777,74 303,74.348223 303,74.7777778 C303,75.2073326 302.651777,75.5555556 302.222222,75.5555556 L297.555556,75.5555556 L297.555556,86.4444444 L308.444444,86.4444444 L308.444444,81.7777778 Z" id="Combined-Shape"></path>
                        </g>
                    </g>
                </g>
            </g>
        </g>
    </g>
</svg>