<?xml version="1.0" encoding="UTF-8"?>
<svg width="32px" height="32px" viewBox="0 0 32 32" version="1.1" xmlns="http://www.w3.org/2000/svg" xmlns:xlink="http://www.w3.org/1999/xlink">
    <!-- Generator: Sketch 51.3 (57544) - http://www.bohemiancoding.com/sketch -->
    <title>Group 8</title>
    <desc>Created with Sketch.</desc>
    <defs></defs>
    <g id="Share-/-more-menu-updates" stroke="none" stroke-width="1" fill="none" fill-rule="evenodd">
        <g id="Share-menu-updates-(off)" transform="translate(-836.000000, -233.000000)">
            <g id="Group-8" transform="translate(836.000000, 233.000000)">
                <circle id="Topic-Image-Copy-2" stroke="#ECECEC" fill="#FFFFFF" cx="16" cy="16" r="15.5"></circle>
                <path d="M21.4444444,11.6554994 L14.2166386,18.8833053 C13.9128975,19.1870464 13.4204358,19.1870464 13.1166947,18.8833053 C12.8129536,18.5795642 12.8129536,18.0871025 13.1166947,17.7833614 L20.3445006,10.5555556 L18.3333333,10.5555556 C17.9037785,10.5555556 17.5555556,10.2073326 17.5555556,9.77777778 C17.5555556,9.34822297 17.9037785,9 18.3333333,9 L22.2222222,9 C22.651777,9 23,9.34822297 23,9.77777778 L23,13.6666667 C23,14.0962215 22.651777,14.4444444 22.2222222,14.4444444 C21.7926674,14.4444444 21.4444444,14.0962215 21.4444444,13.6666667 L21.4444444,11.6554994 Z M21.4444444,16.7777778 C21.4444444,16.348223 21.7926674,16 22.2222222,16 C22.651777,16 23,16.348223 23,16.7777778 L23,21.4463542 C23,22.305212 22.3049044,23 21.4445583,23 L10.5554417,23 C9.69599256,23 9,22.3053073 9,21.4445583 L9,10.5554417 C9,9.69675162 9.69499599,9 10.5536458,9 L15.2222222,9 C15.651777,9 16,9.34822297 16,9.77777778 C16,10.2073326 15.651777,10.5555556 15.2222222,10.5555556 L10.5555556,10.5555556 L10.5555556,21.4444444 L21.4444444,21.4444444 L21.4444444,16.7777778 Z" id="Combined-Shape" fill="#C4C6C9" fill-rule="nonzero"></path>
            </g>
        </g>
    </g>
</svg>