<?xml version="1.0" encoding="UTF-8"?>
<svg width="16px" height="16px" viewBox="0 0 16 16" version="1.1" xmlns="http://www.w3.org/2000/svg" xmlns:xlink="http://www.w3.org/1999/xlink">
    <!-- Generator: Sketch 52.6 (67491) - http://www.bohemiancoding.com/sketch -->
    <title>Combined Shape</title>
    <desc>Created with Sketch.</desc>
    <g id="Admin-NUX---Jan-2019" stroke="none" stroke-width="1" fill="none" fill-rule="evenodd">
        <g id="NUX:-Auto-share-(Jan)" transform="translate(-357.000000, -311.000000)" fill="#FFFFFF">
            <g id="Group-22" transform="translate(292.000000, 159.000000)">
                <g id="Group-17" transform="translate(40.000000, 140.000000)">
                    <g id="Group-16" transform="translate(25.000000, 9.000000)">
                        <path d="M3.36156352,13.1107492 C3.36156352,14.0358306 2.60586319,14.7915309 1.68078176,14.7915309 C0.755700326,14.7915309 3.04201109e-13,14.0358306 3.04201109e-13,13.1107492 C3.04201109e-13,12.1856678 0.755700326,11.4299674 1.68078176,11.4299674 L3.36156352,11.4299674 L3.36156352,13.1107492 Z M4.20846906,13.1107492 C4.20846906,12.1856678 4.96416938,11.4299674 5.88925081,11.4299674 C6.81433225,11.4299674 7.57003257,12.1856678 7.57003257,13.1107492 L7.57003257,17.3192182 C7.57003257,18.2442997 6.81433225,19 5.88925081,19 C4.96416938,19 4.20846906,18.2442997 4.20846906,17.3192182 L4.20846906,13.1107492 Z M5.88925081,6.36156352 C4.96416938,6.36156352 4.20846906,5.60586319 4.20846906,4.68078176 C4.20846906,3.75570033 4.96416938,3 5.88925081,3 C6.81433225,3 7.57003257,3.75570033 7.57003257,4.68078176 L7.57003257,6.36156352 L5.88925081,6.36156352 Z M5.88925081,7.20846906 C6.81433225,7.20846906 7.57003257,7.96416938 7.57003257,8.88925081 C7.57003257,9.81433225 6.81433225,10.5700326 5.88925081,10.5700326 L1.68078176,10.5700326 C0.755700326,10.5700326 -6.80788759e-13,9.81433225 -6.80788759e-13,8.88925081 C-6.80788759e-13,7.96416938 0.755700326,7.20846906 1.68078176,7.20846906 L5.88925081,7.20846906 Z M12.6384365,8.88925081 C12.6384365,7.96416938 13.3941368,7.20846906 14.3192182,7.20846906 C15.2442997,7.20846906 16,7.96416938 16,8.88925081 C16,9.81433225 15.2442997,10.5700326 14.3192182,10.5700326 L12.6384365,10.5700326 L12.6384365,8.88925081 Z M11.7915309,8.88925081 C11.7915309,9.81433225 11.0358306,10.5700326 10.1107492,10.5700326 C9.18566775,10.5700326 8.42996743,9.81433225 8.42996743,8.88925081 L8.42996743,4.68078176 C8.42996743,3.75570033 9.18566775,3 10.1107492,3 C11.0358306,3 11.7915309,3.75570033 11.7915309,4.68078176 L11.7915309,8.88925081 Z M10.1107492,15.6384365 C11.0358306,15.6384365 11.7915309,16.3941368 11.7915309,17.3192182 C11.7915309,18.2442997 11.0358306,19 10.1107492,19 C9.18566775,19 8.42996743,18.2442997 8.42996743,17.3192182 L8.42996743,15.6384365 L10.1107492,15.6384365 Z M10.1107492,14.7915309 C9.18566775,14.7915309 8.42996743,14.0358306 8.42996743,13.1107492 C8.42996743,12.1856678 9.18566775,11.4299674 10.1107492,11.4299674 L14.3192182,11.4299674 C15.2442997,11.4299674 16,12.1856678 16,13.1107492 C16,14.0358306 15.2442997,14.7915309 14.3192182,14.7915309 L10.1107492,14.7915309 Z" id="Combined-Shape"></path>
                    </g>
                </g>
            </g>
        </g>
    </g>
</svg>