<?xml version="1.0" encoding="UTF-8"?>
<svg width="20px" height="20px" viewBox="0 0 20 20" version="1.1" xmlns="http://www.w3.org/2000/svg" xmlns:xlink="http://www.w3.org/1999/xlink">
    <!-- Generator: Sketch 52.6 (67491) - http://www.bohemiancoding.com/sketch -->
    <title>Group 2</title>
    <desc>Created with Sketch.</desc>
    <g id="Admin-NUX---Jan-2019" stroke="none" stroke-width="1" fill="none" fill-rule="evenodd">
        <g id="Get-started-(Jan)" transform="translate(-873.000000, -151.000000)">
            <g id="Group-6" transform="translate(782.000000, 141.000000)">
                <g id="Group-9" transform="translate(91.000000, 10.000000)">
                    <g id="Group-2">
                        <path d="M4.25806452,12.6129032 C4.25806452,13.7580645 3.32258065,14.6935484 2.17741935,14.6935484 C1.03225806,14.6935484 0.0967741935,13.7580645 0.0967741935,12.6129032 C0.0967741935,11.4677419 1.03225806,10.5322581 2.17741935,10.5322581 L4.25806452,10.5322581 L4.25806452,12.6129032 Z" id="Path" fill="#E01E5A"></path>
                        <path d="M5.30645161,12.6129032 C5.30645161,11.4677419 6.24193548,10.5322581 7.38709677,10.5322581 C8.53225806,10.5322581 9.46774194,11.4677419 9.46774194,12.6129032 L9.46774194,17.8225806 C9.46774194,18.9677419 8.53225806,19.9032258 7.38709677,19.9032258 C6.24193548,19.9032258 5.30645161,18.9677419 5.30645161,17.8225806 L5.30645161,12.6129032 Z" id="Path" fill="#E01E5A"></path>
                        <path d="M7.38709677,4.25806452 C6.24193548,4.25806452 5.30645161,3.32258065 5.30645161,2.17741935 C5.30645161,1.03225806 6.24193548,0.0967741935 7.38709677,0.0967741935 C8.53225806,0.0967741935 9.46774194,1.03225806 9.46774194,2.17741935 L9.46774194,4.25806452 L7.38709677,4.25806452 Z" id="Path" fill="#36C5F0"></path>
                        <path d="M7.38709677,5.30645161 C8.53225806,5.30645161 9.46774194,6.24193548 9.46774194,7.38709677 C9.46774194,8.53225806 8.53225806,9.46774194 7.38709677,9.46774194 L2.17741935,9.46774194 C1.03225806,9.46774194 0.0967741935,8.53225806 0.0967741935,7.38709677 C0.0967741935,6.24193548 1.03225806,5.30645161 2.17741935,5.30645161 L7.38709677,5.30645161 Z" id="Path" fill="#36C5F0"></path>
                        <path d="M15.7419355,7.38709677 C15.7419355,6.24193548 16.6774194,5.30645161 17.8225806,5.30645161 C18.9677419,5.30645161 19.9032258,6.24193548 19.9032258,7.38709677 C19.9032258,8.53225806 18.9677419,9.46774194 17.8225806,9.46774194 L15.7419355,9.46774194 L15.7419355,7.38709677 Z" id="Path" fill="#2EB67D"></path>
                        <path d="M14.6935484,7.38709677 C14.6935484,8.53225806 13.7580645,9.46774194 12.6129032,9.46774194 C11.4677419,9.46774194 10.5322581,8.53225806 10.5322581,7.38709677 L10.5322581,2.17741935 C10.5322581,1.03225806 11.4677419,0.0967741935 12.6129032,0.0967741935 C13.7580645,0.0967741935 14.6935484,1.03225806 14.6935484,2.17741935 L14.6935484,7.38709677 Z" id="Path" fill="#2EB67D"></path>
                        <path d="M12.6129032,15.7419355 C13.7580645,15.7419355 14.6935484,16.6774194 14.6935484,17.8225806 C14.6935484,18.9677419 13.7580645,19.9032258 12.6129032,19.9032258 C11.4677419,19.9032258 10.5322581,18.9677419 10.5322581,17.8225806 L10.5322581,15.7419355 L12.6129032,15.7419355 Z" id="Path" fill="#ECB22E"></path>
                        <path d="M12.6129032,14.6935484 C11.4677419,14.6935484 10.5322581,13.7580645 10.5322581,12.6129032 C10.5322581,11.4677419 11.4677419,10.5322581 12.6129032,10.5322581 L17.8225806,10.5322581 C18.9677419,10.5322581 19.9032258,11.4677419 19.9032258,12.6129032 C19.9032258,13.7580645 18.9677419,14.6935484 17.8225806,14.6935484 L12.6129032,14.6935484 Z" id="Path" fill="#ECB22E"></path>
                    </g>
                </g>
            </g>
        </g>
    </g>
</svg>