<?xml version="1.0" encoding="UTF-8"?>
<svg width="40px" height="40px" viewBox="0 0 40 40" version="1.1" xmlns="http://www.w3.org/2000/svg" xmlns:xlink="http://www.w3.org/1999/xlink">
    <!-- Generator: Sketch 50.2 (55047) - http://www.bohemiancoding.com/sketch -->
    <title>Group 9</title>
    <desc>Created with Sketch.</desc>
    <defs></defs>
    <g id="Slack-banner" stroke="none" stroke-width="1" fill="none" fill-rule="evenodd">
        <g id="Slack-enable-prompt-learn-more-modal" transform="translate(-453.000000, -420.000000)" fill="#FB5E48">
            <g id="Group-4" transform="translate(385.000000, 124.000000)">
                <g id="Group-11" transform="translate(68.000000, 184.000000)">
                    <g id="Group-9" transform="translate(0.000000, 112.000000)">
                        <circle id="Oval-8" opacity="0.200000018" cx="20" cy="20" r="20"></circle>
                        <path d="M22.4999833,10 C24.7091261,10 26.4999901,11.7626583 26.4999901,13.9370074 C26.4999901,14.7645462 26.3498669,15.9126349 26.0005124,17.0174076 C27.2092679,17.4581497 28.148229,18.1698402 28.823928,19.1131445 C29.6699869,20.2942784 30,21.6659598 30,22.9983736 C30,23.3623175 29.8022232,23.6975183 29.4836337,23.8735342 C29.0939855,24.0888087 28.4190774,24.3947863 27.5140415,24.6967444 C26.8490981,24.9185976 26.1617294,25.1011727 25.4566975,25.23572 C25.8136045,26.018203 25.9999906,26.8143626 25.9999906,27.4978106 C25.9999906,27.8838962 25.7776803,28.2354836 25.4288594,28.401064 C24.9890566,28.6098322 24.2283439,28.9102568 23.2216666,29.2078205 C21.5474306,29.7027079 19.7827402,30 17.9999953,30 C16.2172504,30 14.45256,29.7027079 12.778324,29.2078205 C11.7716467,28.9102568 11.010934,28.6098322 10.5711312,28.401064 C10.2223103,28.2354836 10,27.8838962 10,27.4978106 C10,26.2851089 10.5750798,24.7352581 11.6436024,23.5242468 C12.3130255,22.7655554 13.1430885,22.1590826 14.1299261,21.7307314 C13.6882732,20.4047493 13.4999681,18.9976442 13.4999681,17.9989991 C13.4999681,15.5140287 15.5146901,13.4995621 17.9999757,13.4995621 C18.1762525,13.4995621 18.350162,13.5096965 18.5211532,13.5294144 C18.7283619,11.5465812 20.4306708,10 22.4999833,10 Z M21.8690811,21.7335649 C22.7993987,22.1388469 23.5906393,22.7028832 24.2395759,23.4036893 C25.1495447,23.2909731 26.0355852,23.0818763 26.8809853,22.7998152 C27.2797289,22.6667774 27.6433007,22.5258618 27.9665591,22.3846761 C27.8837645,21.6360241 27.6430224,20.8989006 27.1979471,20.2775567 C26.7370896,19.6341802 26.0772632,19.1435289 25.1709505,18.8421701 C24.5463703,19.8095531 23.6745325,20.4986864 22.4999833,20.4986864 C22.4014081,20.4986864 22.3049651,20.4938324 22.2106215,20.4843674 C22.1200973,20.8987927 22.0069078,21.3201395 21.8690811,21.7335649 Z M22.4999833,18.4989366 C23.4440339,18.4989366 24.4999867,16.2033271 24.4999867,13.9370074 C24.4999867,12.8742002 23.6115435,11.9997498 22.4999833,11.9997498 C21.3884232,11.9997498 20.4999799,12.8742002 20.4999799,13.9370074 C20.4999799,14.0453602 20.5023936,14.15378 20.5070934,14.2620126 C21.7090891,15.0698118 22.4999833,16.4420556 22.4999833,17.9989991 C22.4999833,18.1561126 22.4953225,18.323336 22.4857475,18.4987631 C22.4904955,18.4988787 22.4952408,18.4989366 22.4999833,18.4989366 Z M13.1433742,24.8472185 C12.5944517,25.4693405 12.2326646,26.2202679 12.0810227,26.8644137 C12.4607076,27.0093842 12.8844239,27.1538783 13.3453223,27.2901152 C14.8476029,27.7341743 16.4269978,28.0002502 17.9999953,28.0002502 C19.5729928,28.0002502 21.1523877,27.7341743 22.6546683,27.2901152 C23.1149393,27.1540637 23.5381294,27.0097776 23.9174172,26.8650057 C23.7646478,26.2259757 23.402767,25.4765418 22.8558064,24.8551102 C22.3746515,24.3084442 21.7726255,23.8668695 21.0382804,23.5516653 C20.3334157,24.6851121 19.3424553,25.4980609 17.9999757,25.4980609 C16.6564994,25.4980609 15.6650645,24.6839046 14.9601016,23.5491403 C14.22554,23.863005 13.6237761,24.3027545 13.1433742,24.8472185 Z M17.9999757,23.4983111 C19.2443069,23.4983111 20.4999799,20.7251857 20.4999799,17.9989991 C20.4999799,16.61846 19.3806899,15.4993119 17.9999757,15.4993119 C16.6192615,15.4993119 15.4999715,16.61846 15.4999715,17.9989991 C15.4999715,20.7251857 16.7556445,23.4983111 17.9999757,23.4983111 Z" id="Combined-Shape"></path>
                    </g>
                </g>
            </g>
        </g>
    </g>
</svg>