<?xml version="1.0" encoding="UTF-8"?>
<svg width="16px" height="16px" viewBox="0 0 16 16" version="1.1" xmlns="http://www.w3.org/2000/svg" xmlns:xlink="http://www.w3.org/1999/xlink">
    <!-- Generator: Sketch 52.6 (67491) - http://www.bohemiancoding.com/sketch -->
    <title>Combined Shape</title>
    <desc>Created with Sketch.</desc>
    <g id="Profiles" stroke="none" stroke-width="1" fill="none" fill-rule="evenodd">
        <g id="Profile:-Panel-open" transform="translate(-984.000000, -453.000000)" fill="#6833F1">
            <g id="Group-34" transform="translate(984.000000, 426.000000)">
                <path d="M3.36156352,37.1107492 C3.36156352,38.0358306 2.60586319,38.7915309 1.68078176,38.7915309 C0.755700326,38.7915309 1.55431223e-15,38.0358306 1.55431223e-15,37.1107492 C1.55431223e-15,36.1856678 0.755700326,35.4299674 1.68078176,35.4299674 L3.36156352,35.4299674 L3.36156352,37.1107492 Z M4.20846906,37.1107492 C4.20846906,36.1856678 4.96416938,35.4299674 5.88925081,35.4299674 C6.81433225,35.4299674 7.57003257,36.1856678 7.57003257,37.1107492 L7.57003257,41.3192182 C7.57003257,42.2442997 6.81433225,43 5.88925081,43 C4.96416938,43 4.20846906,42.2442997 4.20846906,41.3192182 L4.20846906,37.1107492 Z M5.88925081,30.3615635 C4.96416938,30.3615635 4.20846906,29.6058632 4.20846906,28.6807818 C4.20846906,27.7557003 4.96416938,27 5.88925081,27 C6.81433225,27 7.57003257,27.7557003 7.57003257,28.6807818 L7.57003257,30.3615635 L5.88925081,30.3615635 Z M5.88925081,31.2084691 C6.81433225,31.2084691 7.57003257,31.9641694 7.57003257,32.8892508 C7.57003257,33.8143322 6.81433225,34.5700326 5.88925081,34.5700326 L1.68078176,34.5700326 C0.755700326,34.5700326 -7.46069873e-14,33.8143322 -7.46069873e-14,32.8892508 C-7.46069873e-14,31.9641694 0.755700326,31.2084691 1.68078176,31.2084691 L5.88925081,31.2084691 Z M12.6384365,32.8892508 C12.6384365,31.9641694 13.3941368,31.2084691 14.3192182,31.2084691 C15.2442997,31.2084691 16,31.9641694 16,32.8892508 C16,33.8143322 15.2442997,34.5700326 14.3192182,34.5700326 L12.6384365,34.5700326 L12.6384365,32.8892508 Z M11.7915309,32.8892508 C11.7915309,33.8143322 11.0358306,34.5700326 10.1107492,34.5700326 C9.18566775,34.5700326 8.42996743,33.8143322 8.42996743,32.8892508 L8.42996743,28.6807818 C8.42996743,27.7557003 9.18566775,27 10.1107492,27 C11.0358306,27 11.7915309,27.7557003 11.7915309,28.6807818 L11.7915309,32.8892508 Z M10.1107492,39.6384365 C11.0358306,39.6384365 11.7915309,40.3941368 11.7915309,41.3192182 C11.7915309,42.2442997 11.0358306,43 10.1107492,43 C9.18566775,43 8.42996743,42.2442997 8.42996743,41.3192182 L8.42996743,39.6384365 L10.1107492,39.6384365 Z M10.1107492,38.7915309 C9.18566775,38.7915309 8.42996743,38.0358306 8.42996743,37.1107492 C8.42996743,36.1856678 9.18566775,35.4299674 10.1107492,35.4299674 L14.3192182,35.4299674 C15.2442997,35.4299674 16,36.1856678 16,37.1107492 C16,38.0358306 15.2442997,38.7915309 14.3192182,38.7915309 L10.1107492,38.7915309 Z" id="Combined-Shape"></path>
            </g>
        </g>
    </g>
</svg>