<?xml version="1.0" encoding="UTF-8"?>
<svg width="8px" height="8px" viewBox="0 0 8 8" version="1.1" xmlns="http://www.w3.org/2000/svg" xmlns:xlink="http://www.w3.org/1999/xlink">
    <!-- Generator: Sketch 52.6 (67491) - http://www.bohemiancoding.com/sketch -->
    <title>Group Copy</title>
    <desc>Created with Sketch.</desc>
    <g id="Reminders" stroke="none" stroke-width="1" fill="none" fill-rule="evenodd">
        <g id="Post-reminder:-NUX" transform="translate(-793.000000, -202.000000)" fill="#FDAB1D" fill-rule="nonzero">
            <g id="Group-16" transform="translate(245.000000, 65.000000)">
                <g id="Group-22" transform="translate(24.000000, 127.000000)">
                    <g id="Group-Copy" transform="translate(524.000000, 10.000000)">
                        <path d="M7.85354722,0.853559556 C8.04881278,0.658300815 8.0488183,0.341718326 7.85355956,0.146452775 C7.65830082,-0.048812776 7.34171833,-0.0488182968 7.14645278,0.146440444 L4,3.29278348 L0.853547225,0.146440444 C0.658281674,-0.0488182968 0.341699185,-0.048812776 0.146440444,0.146452775 C-0.0488182968,0.341718326 -0.048812776,0.658300815 0.146452775,0.853559556 L3.29288089,3.99987793 L0.146452775,7.1461963 C-0.048812776,7.34145504 -0.0488182968,7.65803753 0.146440444,7.85330308 C0.341699185,8.04856864 0.658281674,8.04857416 0.853547225,7.85331542 L4,4.70697238 L7.14645278,7.85331542 C7.34171833,8.04857416 7.65830082,8.04856864 7.85355956,7.85330308 C8.0488183,7.65803753 8.04881278,7.34145504 7.85354722,7.1461963 L4.70711911,3.99987793 L7.85354722,0.853559556 Z" id="Combined-Shape"></path>
                    </g>
                </g>
            </g>
        </g>
    </g>
</svg>