<?xml version="1.0" encoding="UTF-8"?>
<svg width="16px" height="16px" viewBox="0 0 16 16" version="1.1" xmlns="http://www.w3.org/2000/svg" xmlns:xlink="http://www.w3.org/1999/xlink">
    <!-- Generator: Sketch 49 (51002) - http://www.bohemiancoding.com/sketch -->
    <title>Combined Shape</title>
    <desc>Created with Sketch.</desc>
    <defs></defs>
    <g id="➡️-Boards-&amp;-Posts" stroke="none" stroke-width="1" fill="none" fill-rule="evenodd">
        <g id="Stream" transform="translate(-983.000000, -116.000000)" fill="#34414F">
            <g id="Group-2" transform="translate(983.000000, 116.000000)">
                <path d="M16,4.44180457 L16,11.5581954 C16,12.0476572 15.6044922,12.4444444 15.1112412,12.4444444 L0.88875879,12.4444444 C0.397910864,12.4444444 0,12.0468828 0,11.5581954 L0,4.44180457 C0,3.95234275 0.395507812,3.55555556 0.88875879,3.55555556 L15.1112412,3.55555556 C15.6020891,3.55555556 16,3.95311722 16,4.44180457 Z M0,0.888888889 C0,0.397969111 0.395507812,0 0.88875879,0 L15.1112412,0 C15.6020891,0 16,0.394546509 16,0.888888889 C16,1.37980867 15.6044922,1.77777778 15.1112412,1.77777778 L0.88875879,1.77777778 C0.397910864,1.77777778 0,1.38323127 0,0.888888889 Z M0,15.1111111 C0,14.6201913 0.395507812,14.2222222 0.88875879,14.2222222 L15.1112412,14.2222222 C15.6020891,14.2222222 16,14.6167687 16,15.1111111 C16,15.6020309 15.6044922,16 15.1112412,16 L0.88875879,16 C0.397910864,16 0,15.6054535 0,15.1111111 Z M14.2222222,10.6666667 L14.2222222,5.33333333 L1.77777778,5.33333333 L1.77777778,10.6666667 L14.2222222,10.6666667 Z" id="Combined-Shape"></path>
            </g>
        </g>
    </g>
</svg>