<?xml version="1.0" encoding="UTF-8"?>
<svg width="14px" height="14px" viewBox="0 0 14 14" version="1.1" xmlns="http://www.w3.org/2000/svg" xmlns:xlink="http://www.w3.org/1999/xlink">
    <!-- Generator: Sketch 51.2 (57519) - http://www.bohemiancoding.com/sketch -->
    <title>Combined Shape</title>
    <desc>Created with Sketch.</desc>
    <defs></defs>
    <g id="Must-see" stroke="none" stroke-width="1" fill="none" fill-rule="evenodd">
        <g id="Must-see-posts-/-July-29" transform="translate(-974.000000, -178.000000)" fill="#34414F" fill-rule="nonzero">
            <g id="Group-11" transform="translate(854.000000, 178.000000)">
                <g id="Group" transform="translate(84.000000, 0.000000)">
                    <g id="Group-17" transform="translate(36.000000, 0.000000)">
                        <path d="M12.4444444,2.65549944 L5.21663861,9.88330527 C4.91289749,10.1870464 4.42043584,10.1870464 4.11669473,9.88330527 C3.81295361,9.57956416 3.81295361,9.08710251 4.11669473,8.78336139 L11.3445006,1.55555556 L9.33333333,1.55555556 C8.90377853,1.55555556 8.55555556,1.20733258 8.55555556,0.777777778 C8.55555556,0.348222972 8.90377853,0 9.33333333,0 L13.2222222,0 C13.651777,0 14,0.348222972 14,0.777777778 L14,4.66666667 C14,5.09622147 13.651777,5.44444444 13.2222222,5.44444444 C12.7926674,5.44444444 12.4444444,5.09622147 12.4444444,4.66666667 L12.4444444,2.65549944 Z M12.4444444,7.77777778 C12.4444444,7.34822297 12.7926674,7 13.2222222,7 C13.651777,7 14,7.34822297 14,7.77777778 L14,12.4463542 C14,13.305212 13.3049044,14 12.4445583,14 L1.55544172,14 C0.695992563,14 0,13.3053073 0,12.4445583 L0,1.55544172 C0,0.696751616 0.694995991,0 1.55364584,0 L6.22222222,0 C6.65177703,0 7,0.348222972 7,0.777777778 C7,1.20733258 6.65177703,1.55555556 6.22222222,1.55555556 L1.55555556,1.55555556 L1.55555556,12.4444444 L12.4444444,12.4444444 L12.4444444,7.77777778 Z" id="Combined-Shape"></path>
                    </g>
                </g>
            </g>
        </g>
    </g>
</svg>