<svg width="13" height="12" viewBox="0 0 13 12" fill="none" xmlns="http://www.w3.org/2000/svg">
<path d="M11.6673 5.39544e-07H6.93383C6.79827 -0.000242007 6.67594 0.0813102 6.62403 0.206541C6.57212 0.331772 6.60088 0.475949 6.69686 0.571685L8.23652 2.11135C8.30134 2.17704 8.30134 2.28263 8.23652 2.34833L0.306574 10.2736C0.0455437 10.5257 -0.0591428 10.899 0.0327505 11.2501C0.124644 11.6012 0.398816 11.8754 0.74989 11.9672C1.10096 12.0591 1.4743 11.9545 1.72641 11.6934L9.65904 3.76482C9.69032 3.73338 9.73284 3.71571 9.77719 3.71571C9.82154 3.71571 9.86406 3.73338 9.89534 3.76482L11.435 5.30448C11.4978 5.36746 11.5831 5.40287 11.672 5.40289C11.7158 5.40273 11.7593 5.3941 11.7998 5.37745C11.9236 5.32407 12.0033 5.20164 12.002 5.06684V0.33471C12.002 0.149855 11.8522 5.39544e-07 11.6673 5.39544e-07Z" fill="white"/>
</svg>
