<?xml version="1.0" encoding="UTF-8"?>
<svg width="368px" height="210px" viewBox="0 0 368 210" version="1.1" xmlns="http://www.w3.org/2000/svg" xmlns:xlink="http://www.w3.org/1999/xlink">
    <!-- Generator: Sketch 51.2 (57519) - http://www.bohemiancoding.com/sketch -->
    <title>Group 8</title>
    <desc>Created with Sketch.</desc>
    <defs>
        <rect id="path-1" x="0" y="0" width="360" height="202" rx="8"></rect>
        <filter x="-1.9%" y="-2.5%" width="103.9%" height="106.9%" filterUnits="objectBoundingBox" id="filter-2">
            <feOffset dx="0" dy="2" in="SourceAlpha" result="shadowOffsetOuter1"></feOffset>
            <feGaussianBlur stdDeviation="2" in="shadowOffsetOuter1" result="shadowBlurOuter1"></feGaussianBlur>
            <feColorMatrix values="0 0 0 0 0   0 0 0 0 0   0 0 0 0 0  0 0 0 0.12 0" type="matrix" in="shadowBlurOuter1"></feColorMatrix>
        </filter>
    </defs>
    <g id="Video" stroke="none" stroke-width="1" fill="none" fill-rule="evenodd">
        <g id="Video-2.0-(states,-July-30)" transform="translate(-126.000000, -320.000000)">
            <g id="Group-8" transform="translate(130.000000, 322.000000)">
                <g id="Group-6">
                    <g id="Group-2">
                        <g id="Rectangle-2-Copy">
                            <use fill="black" fill-opacity="1" filter="url(#filter-2)" xlink:href="#path-1"></use>
                            <use fill="#34414F" fill-rule="evenodd" xlink:href="#path-1"></use>
                        </g>
                    </g>
                </g>
                <g id="Group-7" transform="translate(51.000000, 75.000000)" fill="#FFFFFF">
                    <text id="Video-will-become-ac" opacity="0.600000024" font-family="Avenir-Roman, Avenir" font-size="14" font-weight="normal" line-spacing="16">
                        <tspan x="13.934" y="41.9000854">Video will become accessible once </tspan>
                        <tspan x="60.75" y="57.9000854">upload is complete.</tspan>
                    </text>
                    <g id="Group-5" transform="translate(56.000000, 0.000000)">
                        <text id="Uploading-video" font-family="Avenir-Heavy, Avenir" font-size="16" font-weight="600" line-spacing="18">
                            <tspan x="23" y="16">Uploading video</tspan>
                        </text>
                        <path d="M4.38574009,3.25786285 C4.11182657,2.97010519 4.11183109,2.50356257 4.38575018,2.21581076 C4.65966928,1.92805894 5.10377536,1.92806369 5.37768888,2.21582136 L7.48190861,4.42639265 C7.75582213,4.71415031 7.75581761,5.18069293 7.48189852,5.46844474 L5.37767879,7.67892609 C5.10375969,7.9666779 4.65965361,7.96667315 4.38574009,7.67891549 C4.11182657,7.39115782 4.11183109,6.9246152 4.38575018,6.63686339 L5.28819842,5.68421053 L4.55802032,5.68421053 C2.81697141,5.68421053 1.40281316,7.16961766 1.40281316,9 C1.40281316,10.7181982 2.87097429,12.3157895 4.20654341,12.3157895 C4.59391956,12.3157895 4.90794999,12.6456849 4.90794999,13.0526316 C4.90794999,13.4595782 4.59391956,13.7894737 4.20654341,13.7894737 C2.08495776,13.7894737 -8.52651283e-14,11.5207103 -8.52651283e-14,9 C-8.52651283e-14,6.35568096 2.04226039,4.21052632 4.55802032,4.21052632 L5.2881984,4.21052632 L4.38574009,3.25786285 Z M9.58612835,14.7421371 C9.86004187,15.0298948 9.86003735,15.4964374 9.58611826,15.7841892 C9.31219916,16.0719411 8.86809308,16.0719363 8.59417956,15.7841786 L6.48995983,13.5736074 C6.2160463,13.2858497 6.21605082,12.8193071 6.48996992,12.5315553 L8.59418965,10.3210739 C8.86810874,10.0333221 9.31221483,10.0333268 9.58612835,10.3210845 C9.86004187,10.6088422 9.86003735,11.0753848 9.58611826,11.3631366 L8.68367002,12.3157895 L9.44197968,12.3157895 C11.1830286,12.3157895 12.5971868,10.8303823 12.5971868,9 C12.5971868,7.28180177 11.1290257,5.68421053 9.79345659,5.68421053 C9.40608044,5.68421053 9.09205001,5.35431508 9.09205001,4.94736842 C9.09205001,4.54042176 9.40608044,4.21052632 9.79345659,4.21052632 C11.9150422,4.21052632 14,6.47928974 14,9 C14,11.644319 11.9577396,13.7894737 9.44197968,13.7894737 L8.68367004,13.7894737 L9.58612835,14.7421371 Z" id="Combined-Shape"></path>
                    </g>
                </g>
            </g>
        </g>
    </g>
</svg>