<?xml version="1.0" encoding="UTF-8"?>
<svg width="10px" height="10px" viewBox="0 0 10 10" version="1.1" xmlns="http://www.w3.org/2000/svg" xmlns:xlink="http://www.w3.org/1999/xlink">
    <!-- Generator: Sketch 52.6 (67491) - http://www.bohemiancoding.com/sketch -->
    <title>Combined Shape</title>
    <desc>Created with Sketch.</desc>
    <g id="Post-stream" stroke="none" stroke-width="1" fill="none" fill-rule="evenodd">
        <g id="FoC:-activity-notifier" transform="translate(-718.000000, -324.000000)" fill="#34414F">
            <g id="Group-3" transform="translate(620.000000, 316.000000)">
                <g id="Group-18-Copy-2" transform="translate(44.000000, 0.000000)">
                    <g id="Group-6">
                        <path d="M56.25,10.5893243 C56.25,9.15927999 57.4812169,8 59,8 C60.5187831,8 61.75,9.15927999 61.75,10.5893243 C61.75,11.1961664 61.6440039,12.1272483 61.3568094,12.9981097 C62.3582639,13.3806945 64,14.0003662 64,15.4952421 L64,16.4988173 C64,17.0513451 61.8424683,17.9999997 59,18 C56.1575317,18.0000003 54,17.0494601 54,16.4988173 L54,15.4952421 C54,13.9952087 55.642655,13.3812319 56.6436151,12.9993966 C56.3561006,12.1281657 56.25,11.1964653 56.25,10.5893243 Z" id="Combined-Shape"></path>
                    </g>
                </g>
            </g>
        </g>
    </g>
</svg>