<?xml version="1.0" encoding="UTF-8"?>
<svg width="16px" height="10px" viewBox="0 0 16 10" version="1.1" xmlns="http://www.w3.org/2000/svg" xmlns:xlink="http://www.w3.org/1999/xlink">
    <!-- Generator: Sketch 51.1 (57501) - http://www.bohemiancoding.com/sketch -->
    <title>Group 2</title>
    <desc>Created with Sketch.</desc>
    <defs></defs>
    <g id="Video" stroke="none" stroke-width="1" fill="none" fill-rule="evenodd">
        <g id="June-29:-Video-start" transform="translate(-506.000000, -520.000000)" fill="#FFFFFF">
            <g id="Group-12" transform="translate(480.000000, 501.000000)">
                <g id="Group-3" transform="translate(26.000000, 13.000000)">
                    <g id="Group-2" transform="translate(0.000000, 3.000000)">
                        <rect id="Rectangle" opacity="0" x="0" y="0" width="16" height="16"></rect>
                        <path d="M10.9090909,5.84090909 L13.1604159,4.43383097 C13.3228592,4.33230393 13.613775,4.25 13.819247,4.25 L15.2705749,4.25 C15.6734253,4.25 16,4.5303207 16,4.87654581 L16,11.1234542 C16,11.4694859 15.6776164,11.75 15.2705749,11.75 L13.819247,11.75 C13.6178279,11.75 13.3214583,11.6668205 13.1604159,11.566169 L10.9090909,10.1590909 L10.9090909,11.7486695 C10.9090909,12.4397602 10.2593474,13 9.45480916,13 L1.45428175,13 C0.651104116,13 0,12.4409289 0,11.7486695 L0,4.25133053 C0,3.56023976 0.649743514,3 1.45428175,3 L9.45480916,3 C10.2579868,3 10.9090909,3.5590711 10.9090909,4.25133053 L10.9090909,5.84090909 L10.9090909,5.84090909 Z" id="Combined-Shape"></path>
                    </g>
                </g>
            </g>
        </g>
    </g>
</svg>