<?xml version="1.0" encoding="UTF-8"?>
<svg width="12px" height="12px" viewBox="0 0 12 12" version="1.1" xmlns="http://www.w3.org/2000/svg" xmlns:xlink="http://www.w3.org/1999/xlink">
    <!-- Generator: Sketch 52.6 (67491) - http://www.bohemiancoding.com/sketch -->
    <title>Combined Shape</title>
    <desc>Created with Sketch.</desc>
    <g id="Symbols" stroke="none" stroke-width="1" fill="none" fill-rule="evenodd">
        <g id="Compose-btn" transform="translate(-47.000000, -14.000000)" fill="#FFFFFF">
            <g id="Group-3">
                <g>
                    <g id="Group" transform="translate(47.000000, 9.000000)">
                        <g id="Group-20">
                            <path d="M0.857142857,14.4726448 L0.858012275,15.0215832 C1.16578578,14.9162774 1.52042122,14.9861691 1.76598994,15.2312585 C2.01262682,15.4774139 2.082193,15.8333722 1.97468849,16.1414695 L2.51904398,16.1428571 L3.42857143,15.235105 L1.76164112,13.5714286 C1.21422118,14.1168585 0.857142857,14.4726448 0.857142857,14.4726448 Z M9.94845683,5.35189606 L11.6483063,7.05240022 C12.1168164,7.52109075 12.1173783,8.28042621 11.649108,8.74887683 L3.61260154,16.7884787 C3.49582652,16.9052987 3.2678321,17 3.09933126,17 L0.600230254,17 C0.268732238,17 1.70488289e-14,16.7330462 1.70488289e-14,16.3996116 L0,13.8998523 C0,13.7331121 0.0960415731,13.5019584 0.211548831,13.3865204 L8.25219662,5.35069577 C8.72050516,4.88266814 9.47987656,4.88313533 9.94845683,5.35189606 Z" id="Combined-Shape"></path>
                        </g>
                    </g>
                </g>
            </g>
        </g>
    </g>
</svg>