<?xml version="1.0" encoding="UTF-8"?>
<svg width="20px" height="15px" viewBox="0 0 20 15" version="1.1" xmlns="http://www.w3.org/2000/svg" xmlns:xlink="http://www.w3.org/1999/xlink">
    <!-- Generator: Sketch 48.2 (47327) - http://www.bohemiancoding.com/sketch -->
    <title>Combined Shape</title>
    <desc>Created with Sketch.</desc>
    <defs></defs>
    <g id="1:-Sign-up-(m)" stroke="none" stroke-width="1" fill="none" fill-rule="evenodd" transform="translate(-321.000000, -24.000000)">
        <path d="M332.4,26.779899 L332.4,39.8779713 C332.4,40.6081076 331.778589,41.2 331,41.2 C330.226801,41.2 329.6,40.6116821 329.6,39.8779713 L329.6,26.779899 L326.389949,29.9899495 C325.843215,30.5366835 324.956785,30.5366835 324.410051,29.9899495 C323.863316,29.4432155 323.863316,28.5567845 324.410051,28.0100505 L330.010051,22.4100505 C330.556785,21.8633165 331.443215,21.8633165 331.989949,22.4100505 L337.589949,28.0100505 C338.136684,28.5567845 338.136684,29.4432155 337.589949,29.9899495 C337.043215,30.5366835 336.156785,30.5366835 335.610051,29.9899495 L332.4,26.779899 Z" id="Combined-Shape" fill="#FFFFFF" fill-rule="nonzero" transform="translate(331.000000, 31.600000) rotate(90.000000) translate(-331.000000, -31.600000) "></path>
    </g>
</svg>