<?xml version="1.0" encoding="UTF-8"?>
<svg width="11px" height="12px" viewBox="0 0 11 12" version="1.1" xmlns="http://www.w3.org/2000/svg" xmlns:xlink="http://www.w3.org/1999/xlink">
    <!-- Generator: Sketch 52.6 (67491) - http://www.bohemiancoding.com/sketch -->
    <title>Combined Shape</title>
    <desc>Created with Sketch.</desc>
    <g id="Post-stream" stroke="none" stroke-width="1" fill="none" fill-rule="evenodd">
        <g id="Who-saw-this-(open)" transform="translate(-992.000000, -329.000000)" fill="#848D95">
            <g id="Group-25" transform="translate(960.000000, 0.000000)">
                <g id="Group-19" transform="translate(24.000000, 279.000000)">
                    <g id="Group-5" transform="translate(0.000000, 40.000000)">
                        <path d="M17.1605452,19.0322541 L18.7915539,20.7369261 C19.068397,21.0262726 19.0704627,21.4932371 18.7918593,21.7844234 C18.5151849,22.0735936 18.0633835,22.0702246 17.7896271,21.7841042 L16.0926142,20.010447 C15.2685565,20.5793582 14.2810534,20.9105504 13.2195387,20.9105504 C10.3368671,20.9105504 8,18.4681405 8,15.4552752 C8,12.4424099 10.3368671,10 13.2195387,10 C16.1022104,10 18.4390775,12.4424099 18.4390775,15.4552752 C18.4390775,16.8237674 17.956953,18.0745675 17.1605452,19.0322541 Z M13.2195387,19.3519003 C15.2785899,19.3519003 16.9477807,17.6073218 16.9477807,15.4552752 C16.9477807,13.3032286 15.2785899,11.5586501 13.2195387,11.5586501 C11.1604876,11.5586501 9.49129679,13.3032286 9.49129679,15.4552752 C9.49129679,17.6073218 11.1604876,19.3519003 13.2195387,19.3519003 Z" id="Combined-Shape"></path>
                    </g>
                </g>
            </g>
        </g>
    </g>
</svg>