<?xml version="1.0" encoding="UTF-8"?>
<svg width="16px" height="16px" viewBox="0 0 16 16" version="1.1" xmlns="http://www.w3.org/2000/svg" xmlns:xlink="http://www.w3.org/1999/xlink">
    <!-- Generator: Sketch 52.6 (67491) - http://www.bohemiancoding.com/sketch -->
    <title>Shape</title>
    <desc>Created with Sketch.</desc>
    <g id="Dark-mode" stroke="none" stroke-width="1" fill="none" fill-rule="evenodd">
        <g id="Dark-mode:-Toggle" transform="translate(-1044.000000, -185.000000)" fill="#6833F1" fill-rule="nonzero">
            <g id="Group-3" transform="translate(984.000000, 80.000000)">
                <g id="Group-2" transform="translate(0.000000, 105.000000)">
                    <path d="M64.969845,0.0370026869 C61.8133542,1.20670025 60,4.27327586 60,7.76261244 C60,12.3044466 63.690108,16.0004076 68.2322553,16.0004076 C71.7218422,16.0004076 74.794737,14.1810905 75.9644957,11.0247978 C76.0437409,10.8076878 75.9878269,10.5642793 75.8217779,10.4035086 C75.6557289,10.242738 75.4106281,10.1947006 75.1961696,10.2808954 C74.3973633,10.6021051 73.5190003,10.7687002 72.5923218,10.7687002 C68.7682728,10.7687002 65.2320485,7.2266222 65.2320485,3.40285635 C65.2320485,2.47624171 65.3925668,1.59790025 65.7137988,0.799207565 C65.7859165,0.615370383 65.7604867,0.40756656 65.6461666,0.246541438 C65.5318465,0.0855163169 65.3440445,-0.00702695685 65.1466962,0.000417321048 C65.0862083,0.00339283552 65.0265483,0.015734757 64.969845,0.0370026869 Z" id="Shape"></path>
                </g>
            </g>
        </g>
    </g>
</svg>