<?xml version="1.0" encoding="UTF-8"?>
<svg width="16px" height="16px" viewBox="0 0 16 16" version="1.1" xmlns="http://www.w3.org/2000/svg" xmlns:xlink="http://www.w3.org/1999/xlink">
    <!-- Generator: Sketch 52.6 (67491) - http://www.bohemiancoding.com/sketch -->
    <title>Shape</title>
    <desc>Created with Sketch.</desc>
    <g id="Dark-mode" stroke="none" stroke-width="1" fill="none" fill-rule="evenodd">
        <g id="Dark-mode:-Toggle" transform="translate(-984.000000, -185.000000)" fill="#6833F1" fill-rule="nonzero">
            <g id="Group-3" transform="translate(984.000000, 80.000000)">
                <g id="Group-2" transform="translate(0.000000, 105.000000)">
                    <path d="M3.26636675,8.8 L0.80341208,8.8 C0.360780144,8.8 0,8.4418278 0,8 C0,7.55509186 0.35969984,7.2 0.80341208,7.2 L3.26636675,7.2 C3.38872435,6.47067471 3.67554967,5.79711854 4.08740166,5.21877251 L2.34555846,3.47692931 C2.03180652,3.16317737 2.02854819,2.65774331 2.34314575,2.34314575 C2.65556518,2.03072632 3.16394126,2.03257041 3.47692931,2.34555846 L5.21877251,4.08740166 C5.79711854,3.67554967 6.47067471,3.38872435 7.2,3.26636675 L7.2,0.80341208 C7.2,0.35969984 7.55509186,0 8,0 C8.4418278,0 8.8,0.360780144 8.8,0.80341208 L8.8,3.26636675 C9.52932529,3.38872435 10.2028815,3.67554967 10.7812275,4.08740166 L12.5230707,2.34555846 C12.8368226,2.03180652 13.3422567,2.02854819 13.6568542,2.34314575 C13.9692737,2.65556518 13.9674296,3.16394126 13.6544415,3.47692931 L11.9125983,5.21877251 C12.3244503,5.79711854 12.6112756,6.47067471 12.7336332,7.2 L15.1965879,7.2 C15.6403002,7.2 16,7.55509186 16,8 C16,8.4418278 15.6392199,8.8 15.1965879,8.8 L12.7336332,8.8 C12.6112756,9.52932529 12.3244503,10.2028815 11.9125983,10.7812275 L13.6544415,12.5230707 C13.9674296,12.8360587 13.9692737,13.3444348 13.6568542,13.6568542 C13.3422567,13.9714518 12.8368226,13.9681935 12.5230707,13.6544415 L10.7812275,11.9125983 C10.2028815,12.3244503 9.52932529,12.6112756 8.8,12.7336332 L8.8,15.1965879 C8.8,15.6392199 8.4418278,16 8,16 C7.55509186,16 7.2,15.6403002 7.2,15.1965879 L7.2,12.7336332 C6.47067471,12.6112756 5.79711854,12.3244503 5.21877251,11.9125983 L3.47692931,13.6544415 C3.16394126,13.9674296 2.65556518,13.9692737 2.34314575,13.6568542 C2.02854819,13.3422567 2.03180652,12.8368226 2.34555846,12.5230707 L4.08740166,10.7812275 C3.67554967,10.2028815 3.38872435,9.52932529 3.26636675,8.8 Z" id="Shape"></path>
                </g>
            </g>
        </g>
    </g>
</svg>