<?xml version="1.0" encoding="UTF-8"?>
<svg width="23px" height="20px" viewBox="0 0 23 20" version="1.1" xmlns="http://www.w3.org/2000/svg" xmlns:xlink="http://www.w3.org/1999/xlink">
    <!-- Generator: Sketch 51.3 (57544) - http://www.bohemiancoding.com/sketch -->
    <title>Combined Shape</title>
    <desc>Created with Sketch.</desc>
    <defs></defs>
    <g id="Website" stroke="none" stroke-width="1" fill="none" fill-rule="evenodd">
        <g id="About-/-grid" transform="translate(-234.000000, -697.000000)" fill="#B8BABB">
            <g id="Group-20" transform="translate(234.000000, 409.000000)">
                <g id="Group-9">
                    <path d="M6.44421346,302.079504 C7.15944509,302.562995 7.07414814,303.6418 6.29182292,304.006885 C5.99875389,304.143651 3.39347417,304.847241 3.39347417,304.847241 C4.43144695,305.4586 5.8862913,305.777786 7.78836153,305.777786 C13.891263,305.777786 18.3444794,301.2951 18.3490308,294.585941 C18.3491094,294.470078 18.3438765,294.142595 18.3438765,294.111164 C18.3438765,291.800797 17.1321334,290.211254 15.0163439,290.222275 C12.8854696,290.233376 11.6772355,291.811492 11.6772355,294.111164 C11.6772355,294.244673 11.673709,295.07395 11.673709,295.208776 C11.673709,295.875181 11.0911576,296.391689 10.4295481,296.311887 C7.64279083,295.975757 5.11261646,294.752509 3.16035092,292.857221 C3.16035092,292.857221 2.90367372,293.824974 2.84095469,294.269743 C2.87725505,294.31287 3.56628569,295.010119 3.95917759,295.290662 C4.26065735,295.505933 4.58708904,295.701091 4.93890706,295.871287 C5.49131111,296.138519 5.72248885,296.802965 5.455257,297.355369 C5.18802516,297.907773 4.52357899,298.138951 3.97117494,297.871719 C3.62180068,297.702705 3.29091197,297.514945 2.9783004,297.311092 C3.41817339,299.10746 4.52893441,300.78479 6.44421346,302.079504 Z M21.0578603,290.233591 C22.177984,290.173454 22.5716674,290.870358 21.9254712,291.790799 L20.5578956,293.738771 C20.5633487,293.861867 20.5713445,294.439244 20.571244,294.587448 C20.5658628,302.51971 15.1216013,308 7.78836153,308 C4.1668774,308 1.82717617,307.053882 0.214810799,304.846201 C-0.266198526,304.187594 0.10260483,303.252459 0.903687661,303.099491 C0.940433436,303.092474 3.50494906,302.53821 3.50494906,302.53821 C0.118238547,299.113722 -0.194026323,294.249032 1.80948672,290.282338 C2.179164,289.550425 3.18714009,289.457367 3.68456954,290.109227 C5.12482051,291.996614 7.14851222,293.320705 9.46171298,293.882492 C9.57214022,290.547284 11.6045141,288.017805 15.0047681,288.000092 C17.0328727,287.989527 18.5768153,288.890354 19.5173517,290.316297 L21.0578603,290.233591 Z" id="Combined-Shape"></path>
                </g>
            </g>
        </g>
    </g>
</svg>