<?xml version="1.0" encoding="UTF-8"?>
<svg width="20px" height="18px" viewBox="0 0 20 18" version="1.1" xmlns="http://www.w3.org/2000/svg" xmlns:xlink="http://www.w3.org/1999/xlink">
    <!-- Generator: Sketch 44.1 (41455) - http://www.bohemiancoding.com/sketch -->
    <title>Twitter-color</title>
    <desc>Created with Sketch.</desc>
    <defs></defs>
    <g id="Symbols" stroke="none" stroke-width="1" fill="none" fill-rule="evenodd">
        <g id="profile-v2" transform="translate(-200.000000, -160.000000)" fill="#00AAEC">
            <g id="profile" transform="translate(40.000000, 39.000000)">
                <g id="social-icons" transform="translate(100.000000, 120.000000)">
                    <path d="M80,3.07168653 C79.2651288,3.42307692 78.4739097,3.66070784 77.6439514,3.76688335 C78.4915185,3.22083785 79.1418677,2.35500181 79.4482597,1.32358252 C78.6546927,1.82918021 77.7777778,2.19700253 76.8409931,2.39418563 C76.0943828,1.53593355 75.0272935,1 73.8463344,1 C71.5818513,1 69.7446734,2.97815096 69.7446734,5.4176598 C69.7446734,5.76399422 69.7798908,6.10021668 69.8503258,6.42379921 C66.440101,6.23925605 63.4172683,4.48230408 61.3922639,1.80642831 C61.0389153,2.46117732 60.8370018,3.22083785 60.8370018,4.02979415 C60.8370018,5.56175515 61.5613077,6.91422896 62.6624406,7.70675334 C61.9909608,7.68526544 61.3570464,7.48429036 60.8029583,7.15565186 L60.8029583,7.21000361 C60.8029583,9.35120982 62.2175266,11.1372337 64.0957915,11.5417118 C63.7518342,11.6453593 63.3890943,11.6971831 63.0146152,11.6971831 C62.7504842,11.6971831 62.4922228,11.6706392 62.2421788,11.6188155 C62.7645712,13.3732394 64.2789223,14.6511376 66.0750132,14.6852654 C64.6710102,15.870892 62.9007454,16.5774648 60.9790456,16.5774648 C60.6480014,16.5774648 60.320479,16.5572409 60,16.5167931 C61.8160474,17.7681473 63.9737043,18.5 66.2898398,18.5 C73.838117,18.5 77.9644304,11.7692308 77.9644304,5.93084146 C77.9644304,5.73871434 77.9609086,5.54658722 77.9538651,5.35825208 C78.7556495,4.73510293 79.4517814,3.95774648 80,3.07168653" id="Twitter"></path>
                </g>
            </g>
        </g>
    </g>
</svg>