<?xml version="1.0" encoding="UTF-8"?>
<svg width="15px" height="14px" viewBox="0 0 15 14" version="1.1" xmlns="http://www.w3.org/2000/svg" xmlns:xlink="http://www.w3.org/1999/xlink">
    <!-- Generator: Sketch 48.1 (47250) - http://www.bohemiancoding.com/sketch -->
    <title>Group</title>
    <desc>Created with Sketch.</desc>
    <defs></defs>
    <g id="Main-Menu-(m)" stroke="none" stroke-width="1" fill="none" fill-rule="evenodd" transform="translate(-39.000000, -144.000000)">
        <g id="Group-3" transform="translate(24.000000, 140.000000)" fill="#F5F6FD">
            <g id="Group" transform="translate(15.000000, 4.000000)">
                <ellipse id="Oval" cx="1.875" cy="1.90909091" rx="1.875" ry="1.90909091"></ellipse>
                <ellipse id="Oval-Copy" cx="1.875" cy="7" rx="1.875" ry="1.90909091"></ellipse>
                <ellipse id="Oval-Copy-2" cx="1.875" cy="12.0909091" rx="1.875" ry="1.90909091"></ellipse>
                <path d="M7.04545455,2.96969697 L14.2045455,2.96969697 C14.6438352,2.96969697 15,2.58978788 15,2.12121212 C15,1.65263636 14.6438352,1.27272727 14.2045455,1.27272727 L7.04545455,1.27272727 C6.60616477,1.27272727 6.25,1.65263636 6.25,2.12121212 C6.25,2.58978788 6.60616477,2.96969697 7.04545455,2.96969697" id="Fill-4"></path>
                <path d="M14.2045455,6.36363636 L7.04545455,6.36363636 C6.60616477,6.36363636 6.25,6.74354545 6.25,7.21212121 C6.25,7.68069697 6.60616477,8.06060606 7.04545455,8.06060606 L14.2045455,8.06060606 C14.6438352,8.06060606 15,7.68069697 15,7.21212121 C15,6.74354545 14.6438352,6.36363636 14.2045455,6.36363636" id="Fill-6"></path>
                <path d="M14.2045455,11.4545455 L7.04545455,11.4545455 C6.60616477,11.4545455 6.25,11.8344545 6.25,12.3030303 C6.25,12.7716061 6.60616477,13.1515152 7.04545455,13.1515152 L14.2045455,13.1515152 C14.6438352,13.1515152 15,12.7716061 15,12.3030303 C15,11.8344545 14.6438352,11.4545455 14.2045455,11.4545455" id="Fill-8"></path>
            </g>
        </g>
    </g>
</svg>