<?xml version="1.0" encoding="UTF-8"?>
<svg width="12px" height="14px" viewBox="0 0 12 14" version="1.1" xmlns="http://www.w3.org/2000/svg" xmlns:xlink="http://www.w3.org/1999/xlink">
    <!-- Generator: Sketch 44.1 (41455) - http://www.bohemiancoding.com/sketch -->
    <title>Activity Icon</title>
    <desc>Created with Sketch.</desc>
    <defs></defs>
    <g id="Symbols" stroke="none" stroke-width="1" fill="none" fill-rule="evenodd">
        <g id="Components-/-Navigation-/-Design" transform="translate(-3.000000, -5.000000)">
            <g transform="translate(1.000000, 0.000000)" id="Activity">
                <g>
                    <g id="Activity-Icon" transform="translate(0.000000, 4.000000)">
                        <polygon id="Fill-1" points="0 16 16 16 16 0 0 0"></polygon>
                        <g id="Group-10" transform="translate(2.000000, 1.333333)" fill="#637282">
                            <path d="M2.66666667,1.33333333 C2.66666667,0.597 2.06966667,0 1.33333333,0 C0.597,0 0,0.597 0,1.33333333 C0,1.95425 0.425083333,2.4745 0.999583333,2.62283333 L0.999583333,5.37716667 C0.425083333,5.5255 0,6.04575 0,6.66666667 C0,7.28758333 0.425083333,7.80783333 0.999583333,7.95616667 L0.999583333,10.7105 C0.425083333,10.8588333 0,11.3790833 0,12 C0,12.7363333 0.597,13.3333333 1.33333333,13.3333333 C2.06966667,13.3333333 2.66666667,12.7363333 2.66666667,12 C2.66666667,11.3790833 2.24158333,10.8588333 1.66708333,10.7105 L1.66708333,7.95616667 C2.24158333,7.80783333 2.66666667,7.28758333 2.66666667,6.66666667 C2.66666667,6.04575 2.24158333,5.5255 1.66708333,5.37716667 L1.66708333,2.62283333 C2.24158333,2.4745 2.66666667,1.95425 2.66666667,1.33333333" id="Fill-2"></path>
                            <path d="M5.33333333,2 L11.3333333,2 C11.7015,2 12,1.7015 12,1.33333333 C12,0.965166667 11.7015,0.666666667 11.3333333,0.666666667 L5.33333333,0.666666667 C4.96516667,0.666666667 4.66666667,0.965166667 4.66666667,1.33333333 C4.66666667,1.7015 4.96516667,2 5.33333333,2" id="Fill-4"></path>
                            <path d="M11.3333333,6 L5.33333333,6 C4.96516667,6 4.66666667,6.2985 4.66666667,6.66666667 C4.66666667,7.03483333 4.96516667,7.33333333 5.33333333,7.33333333 L11.3333333,7.33333333 C11.7015,7.33333333 12,7.03483333 12,6.66666667 C12,6.2985 11.7015,6 11.3333333,6" id="Fill-6"></path>
                            <path d="M11.3333333,11.3333333 L5.33333333,11.3333333 C4.96516667,11.3333333 4.66666667,11.6318333 4.66666667,12 C4.66666667,12.3681667 4.96516667,12.6666667 5.33333333,12.6666667 L11.3333333,12.6666667 C11.7015,12.6666667 12,12.3681667 12,12 C12,11.6318333 11.7015,11.3333333 11.3333333,11.3333333" id="Fill-8"></path>
                        </g>
                    </g>
                </g>
            </g>
        </g>
    </g>
</svg>