<?xml version="1.0" encoding="UTF-8"?>
<svg width="12px" height="11px" viewBox="0 0 12 11" version="1.1" xmlns="http://www.w3.org/2000/svg" xmlns:xlink="http://www.w3.org/1999/xlink">
    <!-- Generator: Sketch 46.2 (44496) - http://www.bohemiancoding.com/sketch -->
    <title>Group 10</title>
    <desc>Created with Sketch.</desc>
    <defs></defs>
    <g id="August-25th---Updates" stroke="none" stroke-width="1" fill="none" fill-rule="evenodd">
        <g id="Stories---Option-4" transform="translate(-31.000000, -129.000000)" fill="#C8C4BB">
            <g id="Page-1" transform="translate(29.000000, 126.000000)">
                <g id="Group-10" transform="translate(2.000000, 3.000000)">
                    <g>
                        <circle id="Oval" cx="1.5" cy="1.5" r="1.5"></circle>
                        <circle id="Oval-Copy" cx="1.5" cy="5.5" r="1.5"></circle>
                        <circle id="Oval-Copy-2" cx="1.5" cy="9.5" r="1.5"></circle>
                        <path d="M5.63636364,2 L11.3636364,2 C11.7150682,2 12,1.776125 12,1.5 C12,1.223875 11.7150682,1 11.3636364,1 L5.63636364,1 C5.28493182,1 5,1.223875 5,1.5 C5,1.776125 5.28493182,2 5.63636364,2" id="Fill-4"></path>
                        <path d="M11.3636364,5 L5.63636364,5 C5.28493182,5 5,5.223875 5,5.5 C5,5.776125 5.28493182,6 5.63636364,6 L11.3636364,6 C11.7150682,6 12,5.776125 12,5.5 C12,5.223875 11.7150682,5 11.3636364,5" id="Fill-6"></path>
                        <path d="M11.3636364,9 L5.63636364,9 C5.28493182,9 5,9.223875 5,9.5 C5,9.776125 5.28493182,10 5.63636364,10 L11.3636364,10 C11.7150682,10 12,9.776125 12,9.5 C12,9.223875 11.7150682,9 11.3636364,9" id="Fill-8"></path>
                    </g>
                </g>
            </g>
        </g>
    </g>
</svg>