<?xml version="1.0" encoding="UTF-8"?>
<svg width="20px" height="20px" viewBox="0 0 20 20" version="1.1" xmlns="http://www.w3.org/2000/svg" xmlns:xlink="http://www.w3.org/1999/xlink">
    <!-- Generator: Sketch 44.1 (41455) - http://www.bohemiancoding.com/sketch -->
    <title>Components / Buttons / Add</title>
    <desc>Created with Sketch.</desc>
    <defs>
        <rect id="path-1" x="0" y="0" width="20" height="20" rx="2"></rect>
    </defs>
    <g id="Symbols" stroke="none" stroke-width="1" fill="none" fill-rule="evenodd">
        <g id="Components-/-Buttons-/-Add">
            <g id="Icon">
                <g>
                    <g id="Rectangle-10">
                        <use fill="#FFFFFF" xlink:href="#path-1"></use>
                        <use fill-opacity="0.25" fill="#52DE96" xlink:href="#path-1"></use>
                    </g>
                    <g id="+" transform="translate(6.000000, 6.000000)" fill="#0E8749">
                        <path d="M5,3 L5,0.997030139 C5,0.453036308 4.55228475,0 4,0 C3.44386482,0 3,0.446385598 3,0.997030139 L3,3 L0.997030139,3 C0.453036308,3 0,3.44771525 0,4 C0,4.55613518 0.446385598,5 0.997030139,5 L3,5 L3,7.00296986 C3,7.54696369 3.44771525,8 4,8 C4.55613518,8 5,7.5536144 5,7.00296986 L5,5 L7.00296986,5 C7.54696369,5 8,4.55228475 8,4 C8,3.44386482 7.5536144,3 7.00296986,3 L5,3 Z" id="Combined-Shape"></path>
                    </g>
                </g>
            </g>
        </g>
    </g>
</svg>