<?xml version="1.0" encoding="UTF-8"?>
<svg width="14px" height="14px" viewBox="0 0 14 14" version="1.1" xmlns="http://www.w3.org/2000/svg" xmlns:xlink="http://www.w3.org/1999/xlink">
    <!-- Generator: Sketch 52.6 (67491) - http://www.bohemiancoding.com/sketch -->
    <title>Combined Shape</title>
    <desc>Created with Sketch.</desc>
    <g id="Admin-NUX---Jan-2019" stroke="none" stroke-width="1" fill="none" fill-rule="evenodd">
        <g id="Welcome-to-Carrot-(Jan)" transform="translate(-357.000000, -288.000000)" fill="#FFFFFF">
            <g id="Group-15" transform="translate(292.000000, 159.000000)">
                <g id="Group-3" transform="translate(40.000000, 116.000000)">
                    <g id="Group" transform="translate(25.000000, 9.000000)">
                        <g id="Group-16">
                            <path d="M1,15.0514189 L1.00101432,15.6918471 C1.36008341,15.5689902 1.77382476,15.6505306 2.06032159,15.9364682 C2.34806462,16.2236496 2.42922517,16.6389343 2.30380324,16.9983811 L2.93888465,17 L4,15.9409559 L2.05524798,14 C1.41659138,14.6363349 1,15.0514189 1,15.0514189 Z M11.606533,4.4105454 L13.5896907,6.39446692 C14.1362858,6.94127254 14.1369413,7.82716391 13.590626,8.37368964 L4.2147018,17.7532251 C4.07846428,17.8895151 3.81247078,18 3.61588647,18 L0.70026863,18 C0.313520945,18 1.98903004e-14,17.688554 1.98903004e-14,17.2995469 L0,14.383161 C0,14.1886307 0.112048502,13.9189515 0.24680697,13.7842739 L9.62756272,4.40914507 C10.1739227,3.86311283 11.059856,3.86365789 11.606533,4.4105454 Z" id="Combined-Shape"></path>
                        </g>
                    </g>
                </g>
            </g>
        </g>
    </g>
</svg>