<?xml version="1.0" encoding="UTF-8"?>
<svg width="16px" height="16px" viewBox="0 0 16 16" version="1.1" xmlns="http://www.w3.org/2000/svg" xmlns:xlink="http://www.w3.org/1999/xlink">
    <!-- Generator: Sketch 50.2 (55047) - http://www.bohemiancoding.com/sketch -->
    <title>Combined Shape</title>
    <desc>Created with Sketch.</desc>
    <defs></defs>
    <g id="Video-/-GA" stroke="none" stroke-width="1" fill="none" fill-rule="evenodd">
        <g id="New-button" transform="translate(-92.000000, -92.000000)" fill="#FFFFFF">
            <path d="M98.4,98.4 L98.4,93.5926361 C98.4,92.7130475 99.1101837,92 100,92 C100.883656,92 101.6,92.7185699 101.6,93.5926361 L101.6,98.4 L106.407364,98.4 C107.286953,98.4 108,99.1101837 108,100 C108,100.883656 107.28143,101.6 106.407364,101.6 L101.6,101.6 L101.6,106.407364 C101.6,107.286953 100.889816,108 100,108 C99.1163444,108 98.4,107.28143 98.4,106.407364 L98.4,101.6 L93.5926361,101.6 C92.7130475,101.6 92,100.889816 92,100 C92,99.1163444 92.7185699,98.4 93.5926361,98.4 L98.4,98.4 Z" id="Combined-Shape"></path>
        </g>
    </g>
</svg>