<?xml version="1.0" encoding="UTF-8"?>
<svg width="14px" height="14px" viewBox="0 0 14 14" version="1.1" xmlns="http://www.w3.org/2000/svg" xmlns:xlink="http://www.w3.org/1999/xlink">
    <!-- Generator: Sketch 44.1 (41455) - http://www.bohemiancoding.com/sketch -->
    <title>Group 4</title>
    <desc>Created with Sketch.</desc>
    <defs></defs>
    <g id="Topic" stroke="none" stroke-width="1" fill="none" fill-rule="evenodd">
        <g id="Topic-View,-No-Pins" transform="translate(-1044.000000, -151.000000)">
            <g id="BODY" transform="translate(75.000000, 114.000000)">
                <g id="View-Header" transform="translate(210.000000, 0.000000)">
                    <g id="Components-/-Buttons-/-Primary" transform="translate(742.000000, 23.000000)">
                        <g id="Group-4" transform="translate(16.000000, 13.000000)">
                            <rect id="Rectangle-1-Copy-8" x="0" y="0" width="16" height="16"></rect>
                            <g id="Group" transform="translate(1.333333, 1.333333)" fill="#0F8E4C">
                                <path d="M12.0686667,5.0596 L12.548,4.58026667 C13.5953333,3.53493333 13.5946667,1.83093333 12.548,0.784933333 C11.502,-0.261733333 9.79866667,-0.261066667 8.75333333,0.784933333 L8.274,1.26493333 L12.0686667,5.0596 Z" id="Fill-31"></path>
                                <polygon id="Fill-32" points="7.33106667 2.20733333 1.39506667 8.14333333 3.77573333 8.61533333 8.75706667 3.63333333"></polygon>
                                <path d="M0.1966,13.1374 C0.361266667,13.3027333 0.601933333,13.3687333 0.829266667,13.3127333 L3.9486,12.5327333 L3.42793333,9.9054 L0.8006,9.3854 L0.0206,12.5034 C-0.0354,12.7320667 0.0306,12.9714 0.1966,13.1374" id="Fill-33"></path>
                                <polygon id="Fill-34" points="9.69986667 4.57586667 4.71853333 9.55853333 5.18986667 11.9385333 11.1265333 6.00253333"></polygon>
                            </g>
                        </g>
                    </g>
                </g>
            </g>
        </g>
    </g>
</svg>