<?xml version="1.0" encoding="UTF-8"?>
<svg width="16px" height="17px" viewBox="0 0 16 17" version="1.1" xmlns="http://www.w3.org/2000/svg" xmlns:xlink="http://www.w3.org/1999/xlink">
    <!-- Generator: Sketch 44.1 (41455) - http://www.bohemiancoding.com/sketch -->
    <title>icon</title>
    <desc>Created with Sketch.</desc>
    <defs>
        <path d="M1,5.990237 C1,2.68192046 3.69303423,0 7,0 L7,0 C10.3137085,0 13,2.67981648 13,5.990237 L13,10 L14,11.5 L14,13 L0,13 L0,11.5 L1,10 L1,5.990237 Z" id="path-1"></path>
    </defs>
    <g id="Symbols" stroke="none" stroke-width="1" fill="none" fill-rule="evenodd">
        <g id="HEADER" transform="translate(-1164.000000, -27.000000)">
            <g id="Notification">
                <g transform="translate(1164.000000, 19.000000)">
                    <g id="icon" transform="translate(1.000000, 9.000000)">
                        <path d="M5,12 L9,12 L9,14 C9,15.1045695 8.11227036,16 7,16 L7,16 C5.8954305,16 5,15.1122704 5,14 L5,12 Z" id="Rectangle-6" fill="#A3A6AC"></path>
                        <g id="Rectangle-5">
                            <use fill="#A3A6AC" fill-rule="evenodd" xlink:href="#path-1"></use>
                            <path stroke="#FFFFFF" stroke-width="1" d="M13.5,9.84861218 L14.5,11.3486122 L14.5,13.5 L-0.5,13.5 L-0.5,11.3486122 L0.5,9.84861218 L0.5,5.990237 C0.5,2.40783175 3.41483188,-0.5 7,-0.5 C10.5903697,-0.5 13.5,2.40419111 13.5,5.990237 L13.5,9.84861218 Z"></path>
                        </g>
                    </g>
                </g>
            </g>
        </g>
    </g>
</svg>