<?xml version="1.0" encoding="UTF-8"?>
<svg width="22px" height="18px" viewBox="0 0 22 18" version="1.1" xmlns="http://www.w3.org/2000/svg" xmlns:xlink="http://www.w3.org/1999/xlink">
    <!-- Generator: Sketch 52.6 (67491) - http://www.bohemiancoding.com/sketch -->
    <title>Combined Shape Copy 4</title>
    <desc>Created with Sketch.</desc>
    <g id="Mobile-MVP" stroke="none" stroke-width="1" fill="none" fill-rule="evenodd">
        <g id="High-level-changes" transform="translate(-533.000000, -955.000000)" fill="#34414F">
            <g id="Group-19" transform="translate(112.000000, 200.000000)">
                <g id="Group-18">
                    <g id="App-dock-Copy" transform="translate(386.000000, 742.000000)">
                        <g id="Group-2" transform="translate(35.000000, 12.000000)">
                            <path d="M1.00175745,16.8124302 L0.0124786176,7.57103995 C-0.128225673,6.25664484 0.937898585,5.15384615 2.35483074,5.15384615 L19.6451602,5.15384615 C21.0591645,5.15384615 22.1284595,6.2543754 21.9875123,7.57103995 L20.9982334,16.8124302 C20.8674106,18.0345174 19.7272795,19 18.4164669,19 L3.58352401,19 C2.26782229,19 1.13298777,18.0383237 1.00175745,16.8124302 Z M19.25,7.92691328 L2.75,7.92307692 L3.8204878,16.2307692 L18.179954,16.2307692 L19.25,7.92691328 Z M2.75,2.38461538 C2.75,1.61991342 3.28029675,1 3.92341182,1 L18.0765882,1 C18.7246456,1 19.25,1.61458206 19.25,2.38461538 C19.25,3.14931735 18.7197032,3.76923077 18.0765882,3.76923077 L3.92341182,3.76923077 C3.27535437,3.76923077 2.75,3.15464871 2.75,2.38461538 Z" id="Combined-Shape-Copy-4" transform="translate(11.000000, 10.000000) scale(1, -1) translate(-11.000000, -10.000000) "></path>
                        </g>
                    </g>
                </g>
            </g>
        </g>
    </g>
</svg>