<?xml version="1.0" encoding="UTF-8"?>
<svg width="16px" height="20px" viewBox="0 0 16 20" version="1.1" xmlns="http://www.w3.org/2000/svg" xmlns:xlink="http://www.w3.org/1999/xlink">
    <!-- Generator: Sketch 49 (51002) - http://www.bohemiancoding.com/sketch -->
    <title>Combined Shape</title>
    <desc>Created with Sketch.</desc>
    <defs></defs>
    <g id="➡️-Boards-&amp;-Posts" stroke="none" stroke-width="1" fill="none" fill-rule="evenodd">
        <g id="Grid-UI-Guide" transform="translate(-576.000000, -173.000000)" fill="#E4E3DE" fill-rule="nonzero">
            <g id="Group-18" transform="translate(352.000000, 150.000000)">
                <path d="M229.885548,34.4576545 L231.003852,35.5763879 L231.003852,24.0007168 C231.003852,23.4480362 231.447717,23 232.003852,23 C232.556137,23 233.003852,23.4478894 233.003852,24.0007168 L233.003852,35.5763879 L234.122157,34.4576545 C234.514347,34.0653142 235.146139,34.0612397 235.539386,34.4546375 C235.92991,34.8453116 235.927605,35.4810254 235.53637,35.8724104 L232.713975,38.6958882 C232.516199,38.8937403 232.260516,38.9908346 232.004589,38.9906721 C231.748317,38.9924359 231.492865,38.8951005 231.296745,38.6989052 C231.294736,38.6968937 228.471334,35.8724104 228.471334,35.8724104 C228.079144,35.4800701 228.075071,34.8480353 228.468318,34.4546375 C228.858843,34.0639634 229.494313,34.0662694 229.885548,34.4576545 Z M238,40.9994256 L238,37.9980825 C238,37.445586 238.447715,36.9976991 239,36.9976991 C239.552285,36.9976991 240,37.445586 240,37.9980825 L240,40.9994256 C240,42.102573 239.104073,43 238.004378,43 L225.995622,43 C224.891788,43 224,42.1065415 224,40.9994256 L224,37.9980825 C224,37.445586 224.447715,36.9976991 225,36.9976991 C225.552285,36.9976991 226,37.445586 226,37.9980825 L225.995622,40.999233 L238,40.9994256 Z" id="Combined-Shape"></path>
            </g>
        </g>
    </g>
</svg>