<?xml version="1.0" encoding="UTF-8"?>
<svg width="15px" height="14px" viewBox="0 0 15 14" version="1.1" xmlns="http://www.w3.org/2000/svg" xmlns:xlink="http://www.w3.org/1999/xlink">
    <!-- Generator: Sketch 47.1 (45422) - http://www.bohemiancoding.com/sketch -->
    <title>Shape</title>
    <desc>Created with Sketch.</desc>
    <defs></defs>
    <g id="➡️-Board-Flow" stroke="none" stroke-width="1" fill="none" fill-rule="evenodd">
        <g id="New-Post---F" transform="translate(-1060.000000, -191.000000)" fill-rule="nonzero" fill="#FFFFFF">
            <g id="Attachment-Hover-Menu" transform="translate(517.000000, 185.000000)">
                <g id="Group" transform="translate(478.000000, 0.000000)">
                    <g id="Group-15" transform="translate(57.000000, 0.000000)">
                        <path d="M13.485328,7.34487741 L13.485328,16.6044201 C13.485328,19.3277941 17.4854213,19.3277941 17.4854213,16.6044201 L17.4854213,9.25127477 L16.3424842,9.25127477 L16.3424842,16.6044201 C16.3424842,17.9661071 14.6282651,17.9661071 14.6282651,16.6044201 L14.6282651,7.34487741 C14.6282651,4.89376969 18.3425308,4.89376969 18.3425308,7.34487741 L18.3425308,16.6044201 C18.3425308,20.4172148 12.6282185,20.4172148 12.6282185,16.6044201 L12.6282185,9.25127477 L11.4852814,9.25127477 L11.4852814,16.6044201 C11.4852814,21.7789018 19.4852814,21.7789018 19.4852814,16.6044201 L19.4852814,7.34487741 C19.4854679,3.5320827 13.485328,3.5320827 13.485328,7.34487741 Z" id="Shape" transform="translate(15.485281, 12.485281) rotate(45.000000) translate(-15.485281, -12.485281) "></path>
                    </g>
                </g>
            </g>
        </g>
    </g>
</svg>