<?xml version="1.0" encoding="UTF-8"?>
<svg width="15px" height="16px" viewBox="0 0 15 16" version="1.1" xmlns="http://www.w3.org/2000/svg" xmlns:xlink="http://www.w3.org/1999/xlink">
    <!-- Generator: Sketch 49 (51002) - http://www.bohemiancoding.com/sketch -->
    <title>Combined Shape</title>
    <desc>Created with Sketch.</desc>
    <defs></defs>
    <g id="➡️-Boards-&amp;-Posts" stroke="none" stroke-width="1" fill="none" fill-rule="evenodd">
        <g id="Grid-UI-Guide" transform="translate(-332.000000, -129.000000)" fill="#34414F" fill-rule="nonzero">
            <path d="M338.155724,139.91625 C337.860969,140.211005 337.380119,140.211009 337.084513,139.915403 C336.789073,139.619963 336.788696,139.139161 337.083665,138.844191 L340.836719,135.091138 C341.132759,134.795098 341.132759,134.31512 340.836719,134.01908 C340.540678,133.723039 340.060701,133.723039 339.76466,134.01908 L336.011607,137.772133 C335.124179,138.65956 335.125308,140.100316 336.012454,140.987462 C336.900146,141.875154 338.340951,141.875142 339.227783,140.988309 L341.908777,138.307315 L345.392506,134.823586 C346.724281,133.491811 346.723709,131.329599 345.392969,129.998859 C344.06087,128.666761 341.900384,128.667179 340.568242,129.999321 L337.084513,133.48305 L333.332304,137.235259 C331.555958,139.011605 331.555839,141.891141 333.332307,143.667609 C335.108725,145.444027 337.988036,145.444233 339.764657,143.667612 L344.588924,138.843344 C344.884965,138.547303 344.884965,138.067326 344.588924,137.771285 C344.292884,137.475245 343.812906,137.475245 343.516866,137.771285 L338.692598,142.595553 C337.508093,143.780058 335.588736,143.779921 334.404366,142.59555 C333.219999,141.411184 333.220079,139.491602 334.404363,138.307318 L338.156571,134.555109 L341.6403,131.07138 C342.380454,130.331227 343.580986,130.330994 344.32091,131.070918 C345.059695,131.809703 345.060014,133.011961 344.320447,133.751527 L340.836719,137.235256 L338.155724,139.91625 Z" id="Combined-Shape"></path>
        </g>
    </g>
</svg>