<?xml version="1.0" encoding="UTF-8"?>
<svg width="16px" height="20px" viewBox="0 0 16 20" version="1.1" xmlns="http://www.w3.org/2000/svg" xmlns:xlink="http://www.w3.org/1999/xlink">
    <!-- Generator: Sketch 49 (51002) - http://www.bohemiancoding.com/sketch -->
    <title>Combined Shape</title>
    <desc>Created with Sketch.</desc>
    <defs></defs>
    <g id="➡️-Boards-&amp;-Posts" stroke="none" stroke-width="1" fill="none" fill-rule="evenodd">
        <g id="Grid-UI-Guide" transform="translate(-863.000000, -238.000000)" fill="#3FBD7C" fill-rule="nonzero">
            <g id="Group-18" transform="translate(639.000000, 150.000000)">
                <path d="M229.885548,99.4576545 L231.003852,100.576388 L231.003852,89.0007168 C231.003852,88.4480362 231.447717,88 232.003852,88 C232.556137,88 233.003852,88.4478894 233.003852,89.0007168 L233.003852,100.576388 L234.122157,99.4576545 C234.514347,99.0653142 235.146139,99.0612397 235.539386,99.4546375 C235.92991,99.8453116 235.927605,100.481025 235.53637,100.87241 L232.713975,103.695888 C232.516199,103.89374 232.260516,103.990835 232.004589,103.990672 C231.748317,103.992436 231.492865,103.895101 231.296745,103.698905 C231.294736,103.696894 228.471334,100.87241 228.471334,100.87241 C228.079144,100.48007 228.075071,99.8480353 228.468318,99.4546375 C228.858843,99.0639634 229.494313,99.0662694 229.885548,99.4576545 Z M238,105.999426 L238,102.998083 C238,102.445586 238.447715,101.997699 239,101.997699 C239.552285,101.997699 240,102.445586 240,102.998083 L240,105.999426 C240,107.102573 239.104073,108 238.004378,108 L225.995622,108 C224.891788,108 224,107.106541 224,105.999426 L224,102.998083 C224,102.445586 224.447715,101.997699 225,101.997699 C225.552285,101.997699 226,102.445586 226,102.998083 L225.995622,105.999233 L238,105.999426 Z" id="Combined-Shape"></path>
            </g>
        </g>
    </g>
</svg>