<?xml version="1.0" encoding="UTF-8"?>
<svg width="16px" height="10px" viewBox="0 0 16 10" version="1.1" xmlns="http://www.w3.org/2000/svg" xmlns:xlink="http://www.w3.org/1999/xlink">
    <!-- Generator: Sketch 51.3 (57544) - http://www.bohemiancoding.com/sketch -->
    <title>Combined Shape</title>
    <desc>Created with Sketch.</desc>
    <defs></defs>
    <g id="Full-screen-variants" stroke="none" stroke-width="1" fill="none" fill-rule="evenodd">
        <g id="Full-screen-post-(section-selected)" transform="translate(-547.000000, -765.000000)" fill="#3FBD7C" fill-rule="nonzero">
            <g id="Group-13" transform="translate(547.000000, 761.000000)">
                <path d="M9,4.0348565 L9,16.1606167 C9,16.6241953 8.55613518,17 8,17 C7.44771525,17 7,16.6264648 7,16.1606167 L7,4.0348565 L4.70710678,6.07298381 C4.31658249,6.42011651 3.68341751,6.42011651 3.29289322,6.07298381 C2.90236893,5.7258511 2.90236893,5.16303779 3.29289322,4.81590508 L7.29289322,1.26034953 C7.68341751,0.913216824 8.31658249,0.913216824 8.70710678,1.26034953 L12.7071068,4.81590508 C13.0976311,5.16303779 13.0976311,5.7258511 12.7071068,6.07298381 C12.3165825,6.42011651 11.6834175,6.42011651 11.2928932,6.07298381 L9,4.0348565 Z" id="Combined-Shape" transform="translate(8.000000, 9.000000) rotate(-90.000000) translate(-8.000000, -9.000000) "></path>
            </g>
        </g>
    </g>
</svg>