<?xml version="1.0" encoding="UTF-8"?>
<svg width="44px" height="36px" viewBox="0 0 44 36" version="1.1" xmlns="http://www.w3.org/2000/svg" xmlns:xlink="http://www.w3.org/1999/xlink">
    <!-- Generator: Sketch 50.2 (55047) - http://www.bohemiancoding.com/sketch -->
    <title>Combined Shape</title>
    <desc>Created with Sketch.</desc>
    <defs></defs>
    <g id="➡️-Boards-&amp;-Posts" stroke="none" stroke-width="1" fill="none" fill-rule="evenodd">
        <g id="Please-login-to-continue" transform="translate(-931.000000, -102.000000)" fill="#3FBD7C">
            <g id="Group-4" transform="translate(733.000000, 102.000000)">
                <path d="M205.858847,34.5276867 C205.077256,35.3092778 203.815931,35.3151629 203.029437,34.528669 C202.248389,33.7476204 202.248041,32.4816384 203.03042,31.6992595 L205.844244,28.8854348 C205.266911,28.4657615 204.706348,28.0214838 204.163856,27.554128 C200.488031,24.3874135 198,20.385585 198,17.5581063 C198,14.7301336 200.484113,10.7281308 204.156105,7.56253074 C208.496979,3.82029241 213.99976,1.55810628 220,1.55810628 C223.805396,1.55810628 227.410635,2.46635325 230.645746,4.08393299 L234.141153,0.588525887 C234.922744,-0.193065238 236.184069,-0.198950382 236.970563,0.587543529 C237.751611,1.36859211 237.751959,2.63457413 236.96958,3.41695301 L234.162997,6.22353618 C234.740401,6.64294007 235.300916,7.08696688 235.843241,7.55409335 C239.517519,10.7188996 242,14.7209009 242,17.5581063 C242,20.3948161 239.513602,24.396646 235.83549,27.5625651 C231.494361,31.2991738 225.992539,33.5581063 220,33.5581063 C216.199076,33.5581063 212.595503,32.6476768 209.35976,31.0267736 L205.858847,34.5276867 Z M220,29.5581063 C224.982097,29.5581063 229.57766,27.6712646 233.226033,24.5309423 C236.108005,22.0502979 238,19.0051527 238,17.5581063 C238,16.1089465 236.111381,13.064308 233.232748,10.5848243 C232.612548,10.0506201 231.964837,9.55269928 231.292357,9.09417654 L225.415258,14.9712754 C225.790096,15.7545459 226,16.6318132 226,17.5581063 C226,20.8718148 223.313708,23.5581063 220,23.5581063 C219.073707,23.5581063 218.19644,23.348202 217.413169,22.9733643 L212.374384,28.0121492 C214.746174,29.0097271 217.317182,29.5581063 220,29.5581063 Z M214.584742,20.1449372 C214.209904,19.3616666 214,18.4843993 214,17.5581063 C214,14.2443978 216.686292,11.5581063 220,11.5581063 C220.926293,11.5581063 221.80356,11.7680106 222.586831,12.1428483 L227.630202,7.09947716 C225.258917,6.10479759 222.686587,5.55810628 220,5.55810628 C215.011365,5.55810628 210.415737,7.4473628 206.767906,10.592134 C203.890798,13.0724695 202,16.1186192 202,17.5581063 C202,18.9954801 203.894179,22.0421381 206.774621,24.5236324 C207.394948,25.0580424 208.042545,25.5562056 208.71467,26.0150089 L214.584742,20.1449372 Z" id="Combined-Shape"></path>
            </g>
        </g>
    </g>
</svg>