<?xml version="1.0" encoding="UTF-8"?>
<svg width="48px" height="48px" viewBox="0 0 48 48" version="1.1" xmlns="http://www.w3.org/2000/svg" xmlns:xlink="http://www.w3.org/1999/xlink">
    <!-- Generator: Sketch 50.2 (55047) - http://www.bohemiancoding.com/sketch -->
    <title>Group 10</title>
    <desc>Created with Sketch.</desc>
    <defs></defs>
    <g id="ðŸ -Marketing-site" stroke="none" stroke-width="1" fill="none" fill-rule="evenodd">
        <g id="Home---May-17" transform="translate(-910.000000, -3502.000000)" fill="#5789FA">
            <g id="Group-18" transform="translate(0.000000, 2649.000000)">
                <g id="Group-33" transform="translate(910.000000, 853.000000)">
                    <g id="Group-10">
                        <g id="Group-4">
                            <circle id="Oval-8-Copy" opacity="0.2" cx="24" cy="24" r="24"></circle>
                            <path d="M27.4582633,33.6549486 C29.9958493,33.6830198 31.2532071,33.1579579 31.8937522,31.8986715 L31.4312209,31.8986715 C30.7981942,31.8986715 30.2850247,31.379008 30.2850247,30.7279018 C30.2850247,30.0813035 30.7916083,29.5571321 31.4312209,29.5571321 L32.5760256,29.5571321 C32.6704098,29.1858678 32.7714965,28.7870022 32.8728409,28.3863624 L32.0026279,28.3863624 C31.3696012,28.3863624 30.8564317,27.8666989 30.8564317,27.2155926 C30.8564317,26.5689944 31.3630154,26.0448229 32.0026279,26.0448229 L33.4633905,26.0448229 C33.5962862,25.5164771 33.6843596,25.1652961 33.6887101,25.1471725 C33.7970625,24.6331958 33.5218176,24.2883107 32.9846851,24.2883107 L28.860306,24.2880305 C27.1039472,24.2879112 25.809054,22.6832603 26.155993,20.9089997 C26.1678404,20.8487325 26.4970721,19.1452317 26.5187246,19.0196118 C26.7549346,17.6492105 26.8658339,16.6700908 26.8567422,16.1128465 L26.8567947,16.0314829 C26.8629494,15.6819402 26.6553656,15.3093765 26.1088872,14.8730953 C26.0474608,14.8240556 25.6456249,14.5748974 25.6456249,14.5748974 L22.3507975,21.8708043 C21.7401761,23.2229349 20.3121092,24.1994999 18.8568843,24.2828819 L18.8568843,33.6596019 C22.4828084,33.6586224 27.0145936,33.6570032 27.4582633,33.6549486 Z M16.5712562,24.2886683 L14.2851881,24.2886683 L14.2856281,33.6606489 C14.2856281,33.6606489 15.2107227,33.660483 16.5712562,33.6601711 L16.5712562,24.2886683 Z M14.2851881,35.9963656 C13.0231136,35.9963656 12,34.9518673 12,33.6606489 L12,24.2828455 C12,22.9928648 13.0242286,21.9471289 14.2851881,21.9471289 L18.6556965,21.9471289 C19.2891975,21.9471289 20.0035929,21.4459985 20.2764155,20.8876222 C20.5492381,20.3292459 23.8309194,13.0166999 23.8309194,13.0166999 C24.2331229,12.12608 25.2711094,11.7394188 26.1376169,12.1871225 C26.1376169,12.1871225 26.9697102,12.591756 27.5138219,13.0261478 C28.5240985,13.8327022 29.1635097,14.855013 29.142051,16.073714 C29.1546355,16.8450312 29.0186573,17.9814471 28.7695306,19.4267861 C28.7029549,19.8130332 28.3966354,21.3712779 28.3966354,21.3712779 C28.334408,21.6895127 28.5421157,21.9464695 28.8604576,21.9464911 L32.9848367,21.9467712 C34.9734484,21.9467711 36.3371037,23.6623188 35.9270052,25.6264719 C35.9145282,25.6927248 34.4743704,31.6168096 34.2140607,32.304387 C33.2444106,34.9933234 30.9963163,36.0357631 27.4335845,35.9963515 C25.7985103,36.0045524 14.2851881,35.9963656 14.2851881,35.9963656 Z" id="Engaged"></path>
                        </g>
                    </g>
                </g>
            </g>
        </g>
    </g>
</svg>