<?xml version="1.0" encoding="UTF-8"?>
<svg width="48px" height="48px" viewBox="0 0 48 48" version="1.1" xmlns="http://www.w3.org/2000/svg" xmlns:xlink="http://www.w3.org/1999/xlink">
    <!-- Generator: Sketch 50.2 (55047) - http://www.bohemiancoding.com/sketch -->
    <title>Group 8</title>
    <desc>Created with Sketch.</desc>
    <defs></defs>
    <g id="ðŸ -Marketing-site" stroke="none" stroke-width="1" fill="none" fill-rule="evenodd">
        <g id="Home---May-17" transform="translate(-160.000000, -3502.000000)" fill="#5789FA">
            <g id="Group-18" transform="translate(0.000000, 2649.000000)">
                <g id="Group-8" transform="translate(160.000000, 853.000000)">
                    <circle id="Oval-8" opacity="0.200000018" cx="24" cy="24" r="24"></circle>
                    <path d="M17.4519684,27.4914637 C14.4422867,27.4914637 12,25.0824479 12,22.1185728 C12,19.1527142 14.4439179,16.7456819 17.4519684,16.7456819 L26.9426713,16.7456819 L31.1948618,13.4168344 C32.3840838,12.4961006 33.8181818,13.1829669 33.8181818,14.6710889 L33.8181818,19.9694164 C35.0231667,19.9694164 36,20.9316265 36,22.1185728 C36,23.3055191 35.0231667,24.2677292 33.8181818,24.2677292 L33.8181818,29.5875693 C33.8181818,31.0763727 32.3846244,31.7642877 31.1987456,30.8414652 L26.8843331,27.4914637 L25.393278,27.4914637 L26.680684,32.6236211 C26.995329,33.8779322 26.1077438,35 24.7928236,35 L21.5196764,35 C20.4159821,35 19.3725361,34.1936207 19.1080245,33.1391629 L17.6912943,27.4914637 L17.4519684,27.4914637 Z M21.4132142,31.775974 C21.4395888,31.8651075 21.6262939,31.9874268 21.7354371,32 L25,32 L23.5205106,27 L20,27 L21.4132142,31.775974 Z M19.0640526,23 C18.4418748,23 17.9375,22.5561352 17.9375,22 C17.9375,21.4477153 18.4401177,21 19.0640526,21 L23,21 L23,19 L17.3723424,19 C15.5128683,19 14,20.3446041 14,22 C14,23.6542173 15.5119377,25 17.3723424,25 L23,25 L23,23 L19.0640526,23 Z M31.9975921,16 L28.0532357,18.9211184 C27.8477298,19.0744991 27.5939189,19.1578792 27.3325307,19.1578792 L25,19.1578792 L25,25.8025452 L27.3325307,25.8025452 C27.5949064,25.8025452 27.8496172,25.8865556 28.0554984,26.0409991 L32,29 L31.9988058,22.5523461 C31.9979987,22.5283955 31.9975921,22.504349 31.9975921,22.4802122 C31.9975921,22.4563418 31.9979898,22.4325596 31.9987792,22.4088713 L31.9975921,16 Z" id="Megaphone-Copy"></path>
                </g>
            </g>
        </g>
    </g>
</svg>