<?xml version="1.0" encoding="UTF-8"?>
<svg width="48px" height="48px" viewBox="0 0 48 48" version="1.1" xmlns="http://www.w3.org/2000/svg" xmlns:xlink="http://www.w3.org/1999/xlink">
    <!-- Generator: Sketch 50.2 (55047) - http://www.bohemiancoding.com/sketch -->
    <title>Group 9</title>
    <desc>Created with Sketch.</desc>
    <defs></defs>
    <g id="ðŸ -Marketing-site" stroke="none" stroke-width="1" fill="none" fill-rule="evenodd">
        <g id="Home---May-17" transform="translate(-535.000000, -3502.000000)" fill="#5789FA">
            <g id="Group-18" transform="translate(0.000000, 2649.000000)">
                <g id="Group-9" transform="translate(535.000000, 853.000000)">
                    <circle id="Oval-8-Copy" opacity="0.200000018" cx="24" cy="24" r="24"></circle>
                    <path d="M22.4103422,28.3743755 C21.9597463,28.8165077 21.2246632,28.8165138 20.772766,28.3731046 C20.3211227,27.9299446 20.320547,27.2087413 20.7714708,26.7662872 L26.5088158,21.1367076 C26.9613777,20.6926463 26.9613777,19.9726807 26.5088158,19.5286194 C26.056254,19.0845581 25.3225063,19.0845581 24.8699444,19.5286194 L19.1325994,25.158199 C17.7759767,26.4893401 17.7777019,28.6504737 19.1338946,29.9811928 C20.4909218,31.3127308 22.6935003,31.3127125 24.0492136,29.9824637 L28.1476872,25.9609723 L33.4733125,20.735379 C35.5092157,18.7377165 35.5083405,15.4943988 33.4740192,13.4982885 C31.4376219,11.5001412 28.1348557,11.5007688 26.0983912,13.498982 L20.772766,18.7245753 L15.0367117,24.3528884 C12.3211865,27.0174075 12.3210042,31.3367111 15.0367161,34.0014134 C17.7523514,36.6660405 22.1539947,36.6663491 24.86994,34.0014177 L32.2448657,26.7650164 C32.6974275,26.3209551 32.6974275,25.6009895 32.2448657,25.1569282 C31.7923038,24.7128669 31.0585561,24.7128669 30.6059943,25.1569282 L23.2310686,32.3933295 C21.4202994,34.1700868 18.4861516,34.1698811 16.6755875,32.3933252 C14.8650297,30.6167753 14.8651512,27.7374029 16.6755831,25.9609766 L22.4116374,20.3326635 L27.7372626,15.1070702 C28.8687454,13.9968402 30.7040163,13.9964915 31.8351478,15.1063767 C32.9645396,16.214555 32.9650263,18.0179415 31.8344411,19.1272908 L26.5088158,24.352884 L22.4103422,28.3743755 Z" id="Combined-Shape" fill-rule="nonzero"></path>
                </g>
            </g>
        </g>
    </g>
</svg>