<?xml version="1.0" encoding="UTF-8"?>
<svg width="14px" height="14px" viewBox="0 0 14 14" version="1.1" xmlns="http://www.w3.org/2000/svg" xmlns:xlink="http://www.w3.org/1999/xlink">
    <!-- Generator: Sketch 46 (44423) - http://www.bohemiancoding.com/sketch -->
    <title>More Info</title>
    <desc>Created with Sketch.</desc>
    <defs></defs>
    <g id="Board-&amp;-Topic" stroke="none" stroke-width="1" fill="none" fill-rule="evenodd">
        <g id="3.-Basics" transform="translate(-989.000000, -2507.000000)">
            <g id="Icons" transform="translate(76.000000, 2462.000000)">
                <g id="Examples" transform="translate(384.000000, 44.000000)">
                    <g id="16px">
                        <g id="Row-1">
                            <g id="More-Info" transform="translate(528.000000, 0.000000)">
                                <g id="Shape">
                                    <polygon points="0 0 16 0 16 16 0 16"></polygon>
                                    <path d="M7.33333333,11.3333333 L8.66666667,11.3333333 L8.66666667,7.33333333 L7.33333333,7.33333333 L7.33333333,11.3333333 Z M8,1.33333333 C4.32,1.33333333 1.33333333,4.32 1.33333333,8 C1.33333333,11.68 4.32,14.6666667 8,14.6666667 C11.68,14.6666667 14.6666667,11.68 14.6666667,8 C14.6666667,4.32 11.68,1.33333333 8,1.33333333 Z M8,13.3333333 C5.06,13.3333333 2.66666667,10.94 2.66666667,8 C2.66666667,5.06 5.06,2.66666667 8,2.66666667 C10.94,2.66666667 13.3333333,5.06 13.3333333,8 C13.3333333,10.94 10.94,13.3333333 8,13.3333333 Z M7.33333333,6 L8.66666667,6 L8.66666667,4.66666667 L7.33333333,4.66666667 L7.33333333,6 Z" fill="#637282" fill-rule="nonzero"></path>
                                </g>
                            </g>
                        </g>
                    </g>
                </g>
            </g>
        </g>
    </g>
</svg>