<?xml version="1.0" encoding="UTF-8"?>
<svg width="14px" height="14px" viewBox="0 0 14 14" version="1.1" xmlns="http://www.w3.org/2000/svg" xmlns:xlink="http://www.w3.org/1999/xlink">
    <!-- Generator: Sketch 49.1 (51147) - http://www.bohemiancoding.com/sketch -->
    <title>Combined Shape</title>
    <desc>Created with Sketch.</desc>
    <defs>
        <path d="M45,207 C41.6862915,207 39,204.313708 39,201 C39,197.686292 41.6862915,195 45,195 C48.3137085,195 51,197.686292 51,201 C51,204.313708 48.3137085,207 45,207 Z M40.2371363,201.6 C40.4504508,203.310646 41.5639203,204.741745 43.0885865,205.40434 C42.5228518,204.395054 42.1124854,203.017052 42.0198024,201.6 L40.2371363,201.6 Z M40.2371363,200.4 L42.0193244,200.4 C42.1099773,198.98134 42.5123315,197.608909 43.0725836,196.60265 C41.5561326,197.268281 40.4497038,198.695345 40.2371363,200.4 Z M49.7628637,200.4 C49.5502962,198.695345 48.4438674,197.268281 46.9274164,196.60265 C47.4876685,197.608909 47.8900227,198.98134 47.9806756,200.4 L49.7628637,200.4 Z M46.9114135,205.40434 C48.4360797,204.741745 49.5495492,203.310646 49.7628637,201.6 L47.9801976,201.6 C47.8875146,203.017052 47.4771482,204.395054 46.9114135,205.40434 Z M43.9954782,204.551155 C44.3849036,205.334033 44.8414257,205.8 45,205.8 C45.1585743,205.8 45.6150964,205.334033 46.0045218,204.551155 C46.4214536,203.712979 46.7014622,202.6789 46.7785011,201.6 L43.2214989,201.6 C43.2985378,202.6789 43.5785464,203.712979 43.9954782,204.551155 Z M43.9850388,197.447187 C43.5730912,198.281788 43.2968258,199.31714 43.2210568,200.4 L46.7789432,200.4 C46.7031742,199.31714 46.4269088,198.281788 46.0149612,197.447187 C45.6269448,196.661071 45.1728444,196.2 45,196.2 C44.8271556,196.2 44.3730552,196.661071 43.9850388,197.447187 Z" id="path-1"></path>
    </defs>
    <g id="➡️-Boards-&amp;-Posts" stroke="none" stroke-width="1" fill="none" fill-rule="evenodd">
        <g id="Stream" transform="translate(-38.000000, -302.000000)">
            <g id="Group" transform="translate(0.000000, 108.000000)">
                <g id="Combined-Shape">
                    <use fill="#C4C6C9" fill-rule="evenodd" xlink:href="#path-1"></use>
                    <path stroke="#C4C6C9" stroke-width="0.2" d="M45,207.1 C41.631063,207.1 38.9,204.368937 38.9,201 C38.9,197.631063 41.631063,194.9 45,194.9 C48.368937,194.9 51.1,197.631063 51.1,201 C51.1,204.368937 48.368937,207.1 45,207.1 Z M40.3517663,201.7 C40.5765365,203.20441 41.5208194,204.499659 42.8589544,205.185196 C42.359332,204.193101 42.0204283,202.946756 41.9265906,201.7 L40.3517663,201.7 Z M40.3517663,200.3 L41.9259637,200.3 C42.0178625,199.051121 42.3504857,197.809994 42.8435063,196.822759 C41.5132974,197.510476 40.5756354,198.801622 40.3517663,200.3 Z M49.6482337,200.3 C49.4243646,198.801622 48.4867026,197.510476 47.1564937,196.822759 C47.6495143,197.809994 47.9821375,199.051121 48.0740357,200.3 L49.6482337,200.3 Z M47.1410456,205.185196 C48.4791806,204.499659 49.4234635,203.20441 49.6482337,201.7 L48.0734093,201.7 C47.9795717,202.946756 47.640668,204.193101 47.1410456,205.185196 Z M46.6704192,201.7 L43.3295801,201.7 C43.4147905,202.711685 43.6812903,203.694997 44.0850129,204.506618 C44.4155271,205.171065 44.8661874,205.7 45,205.7 C45.1338126,205.7 45.5844729,205.171065 45.9149871,204.506618 C46.3187097,203.694997 46.5852095,202.711685 46.6704192,201.7 Z M43.3289706,200.3 L46.6710301,200.3 C46.5871562,199.283809 46.3239534,198.299136 45.9252896,197.491448 C45.5929041,196.818039 45.1474028,196.3 45,196.3 C44.8525972,196.3 44.4070959,196.818039 44.0747104,197.491448 C43.6760466,198.299136 43.4128438,199.283809 43.3289706,200.3 Z"></path>
                </g>
            </g>
        </g>
    </g>
</svg>