<?xml version="1.0" encoding="UTF-8"?>
<svg width="14px" height="14px" viewBox="0 0 14 14" version="1.1" xmlns="http://www.w3.org/2000/svg" xmlns:xlink="http://www.w3.org/1999/xlink">
    <!-- Generator: Sketch 52.6 (67491) - http://www.bohemiancoding.com/sketch -->
    <title>Combined Shape</title>
    <desc>Created with Sketch.</desc>
    <g id="Section-management" stroke="none" stroke-width="1" fill="none" fill-rule="evenodd">
        <g id="Invited-to-section-success" transform="translate(-187.000000, -442.000000)" fill="#C2C3C6" stroke="#C2C3C6" stroke-width="0.5">
            <path d="M194,455 C190.686292,455 188,452.313708 188,449 C188,445.686292 190.686292,443 194,443 C197.313708,443 200,445.686292 200,449 C200,452.313708 197.313708,455 194,455 Z M189.237136,449.6 C189.450451,451.310646 190.56392,452.741745 192.088586,453.40434 C191.522852,452.395054 191.112485,451.017052 191.019802,449.6 L189.237136,449.6 Z M189.237136,448.4 L191.019324,448.4 C191.109977,446.98134 191.512331,445.608909 192.072584,444.60265 C190.556133,445.268281 189.449704,446.695345 189.237136,448.4 Z M198.762864,448.4 C198.550296,446.695345 197.443867,445.268281 195.927416,444.60265 C196.487669,445.608909 196.890023,446.98134 196.980676,448.4 L198.762864,448.4 Z M195.911414,453.40434 C197.43608,452.741745 198.549549,451.310646 198.762864,449.6 L196.980198,449.6 C196.887515,451.017052 196.477148,452.395054 195.911414,453.40434 Z M192.995478,452.551155 C193.384904,453.334033 193.841426,453.8 194,453.8 C194.158574,453.8 194.615096,453.334033 195.004522,452.551155 C195.421454,451.712979 195.701462,450.6789 195.778501,449.6 L192.221499,449.6 C192.298538,450.6789 192.578546,451.712979 192.995478,452.551155 Z M192.985039,445.447187 C192.573091,446.281788 192.296826,447.31714 192.221057,448.4 L195.778943,448.4 C195.703174,447.31714 195.426909,446.281788 195.014961,445.447187 C194.626945,444.661071 194.172844,444.2 194,444.2 C193.827156,444.2 193.373055,444.661071 192.985039,445.447187 Z" id="Combined-Shape"></path>
        </g>
    </g>
</svg>