<?xml version="1.0" encoding="UTF-8"?>
<svg width="10px" height="12px" viewBox="0 0 10 12" version="1.1" xmlns="http://www.w3.org/2000/svg" xmlns:xlink="http://www.w3.org/1999/xlink">
    <!-- Generator: Sketch 52.6 (67491) - http://www.bohemiancoding.com/sketch -->
    <title>Combined Shape</title>
    <desc>Created with Sketch.</desc>
    <g id="Inbox/unread" stroke="none" stroke-width="1" fill="none" fill-rule="evenodd">
        <g id="Inbox:-Action-bar-states" transform="translate(-696.000000, -495.000000)" fill="#242D42">
            <path d="M697.25,498.600095 C697.25,496.611707 698.928668,495 701,495 C703.070686,495 704.75,496.612666 704.75,498.600154 L704.75,500.100001 C705.440479,500.100688 706,500.636117 706,501.301888 L706,505.798112 C706,506.461896 705.440929,507 704.748669,507 L697.251331,507 C696.56024,507 696,506.46431 696,505.798112 L696,501.301888 C696,500.638529 696.558355,500.10069 697.25,500.100001 L697.25,498.600095 Z M698.5,500.1 L703.5,500.1 L703.5,498.600154 C703.5,497.275321 702.380239,496.2 701,496.2 C699.619056,496.2 698.5,497.274418 698.5,498.600095 L698.5,500.1 Z" id="Combined-Shape"></path>
        </g>
    </g>
</svg>