<?xml version="1.0" encoding="UTF-8"?>
<svg width="14px" height="14px" viewBox="0 0 14 14" version="1.1" xmlns="http://www.w3.org/2000/svg" xmlns:xlink="http://www.w3.org/1999/xlink">
    <!-- Generator: Sketch 52.1 (67048) - http://www.bohemiancoding.com/sketch -->
    <title>Combined Shape</title>
    <desc>Created with Sketch.</desc>
    <g id="Mobile-updates" stroke="none" stroke-width="1" fill="none" fill-rule="evenodd">
        <g id="Mobile-Nav-tap-updates-(public)" transform="translate(-157.000000, -81.000000)" fill="#34414F" stroke="#34414F" stroke-width="0.2">
            <g id="Group-15" transform="translate(128.000000, 77.000000)">
                <g id="Group-5" transform="translate(30.000000, 0.000000)">
                    <g id="Group-3">
                        <g id="Group-13">
                            <path d="M6,17.1 C2.63106303,17.1 -0.1,14.368937 -0.1,11 C-0.1,7.63106303 2.63106303,4.9 6,4.9 C9.36893697,4.9 12.1,7.63106303 12.1,11 C12.1,14.368937 9.36893697,17.1 6,17.1 Z M3.85895438,15.185196 C3.35933196,14.1931012 3.02042834,12.9467562 2.92659062,11.7 L1.35176631,11.7 C1.57653653,13.2044099 2.52081943,14.4996587 3.85895438,15.185196 Z M1.35176632,10.3 L2.92596368,10.3 C3.01786253,9.05112127 3.35048566,7.80999406 3.84350631,6.82275907 C2.51329739,7.51047583 1.57563542,8.80162231 1.35176632,10.3 Z M10.6482337,10.3 C10.4243646,8.80162231 9.48670261,7.51047583 8.15649369,6.82275907 C8.64951434,7.80999406 8.98213747,9.05112127 9.07403569,10.3 L10.6482337,10.3 Z M8.14104562,15.185196 C9.47918057,14.4996587 10.4234635,13.2044099 10.6482337,11.7 L9.07340935,11.7 C8.97957166,12.9467562 8.64066804,14.1931012 8.14104562,15.185196 Z M7.67041923,11.7 L4.32958008,11.7 C4.41479053,12.7116847 4.68129028,13.6949967 5.08501287,14.5066176 C5.41552715,15.1710646 5.86618743,15.7 6,15.7 C6.13381257,15.7 6.58447285,15.1710646 6.91498713,14.5066176 C7.31870972,13.6949967 7.58520947,12.7116847 7.67041923,11.7 Z M4.32897063,10.3 L7.67103011,10.3 C7.58715619,9.28380902 7.32395341,8.29913609 6.92528963,7.49144807 C6.59290411,6.818039 6.14740283,6.3 6,6.3 C5.85259717,6.3 5.40709589,6.818039 5.07471037,7.49144807 C4.67604659,8.29913609 4.41284381,9.28380902 4.32897063,10.3 Z" id="Combined-Shape"></path>
                        </g>
                    </g>
                </g>
            </g>
        </g>
    </g>
</svg>