<?xml version="1.0" encoding="UTF-8"?>
<svg width="10px" height="10px" viewBox="0 0 10 10" version="1.1" xmlns="http://www.w3.org/2000/svg" xmlns:xlink="http://www.w3.org/1999/xlink">
    <!-- Generator: Sketch 48.1 (47250) - http://www.bohemiancoding.com/sketch -->
    <title>Shape</title>
    <desc>Created with Sketch.</desc>
    <defs></defs>
    <g id="Globe-icon" stroke="none" stroke-width="1" fill="none" fill-rule="evenodd">
        <path d="M5,0 C2.24,0 0,2.24 0,5 C0,7.76 2.24,10 5,10 C7.76,10 10,7.76 10,5 C10,2.24 7.76,0 5,0 Z M4.5,8.965 C2.525,8.72 1,7.04 1,5 C1,4.69 1.04,4.395 1.105,4.105 L3.5,6.5 L3.5,7 C3.5,7.55 3.95,8 4.5,8 L4.5,8.965 Z M7.95,7.695 C7.82,7.29 7.45,7 7,7 L6.5,7 L6.5,5.5 C6.5,5.225 6.275,5 6,5 L3,5 L3,4 L4,4 C4.275,4 4.5,3.775 4.5,3.5 L4.5,2.5 L5.5,2.5 C6.05,2.5 6.5,2.05 6.5,1.5 L6.5,1.295 C7.965,1.89 9,3.325 9,5 C9,6.04 8.6,6.985 7.95,7.695 Z" id="Shape" fill="#6187F8" fill-rule="nonzero"></path>
    </g>
</svg>