<?xml version="1.0" encoding="UTF-8"?>
<svg width="40px" height="40px" viewBox="0 0 40 40" version="1.1" xmlns="http://www.w3.org/2000/svg" xmlns:xlink="http://www.w3.org/1999/xlink">
    <!-- Generator: Sketch 46 (44423) - http://www.bohemiancoding.com/sketch -->
    <title>Public</title>
    <desc>Created with Sketch.</desc>
    <defs></defs>
    <g id="Board-&amp;-Topic" stroke="none" stroke-width="1" fill="none" fill-rule="evenodd">
        <g id="3.-Basics" transform="translate(-536.000000, -2616.000000)">
            <g id="Icons" transform="translate(76.000000, 2462.000000)">
                <g id="Examples" transform="translate(384.000000, 44.000000)">
                    <g id="Visiblity" transform="translate(0.000000, 106.000000)">
                        <g id="Public" transform="translate(72.000000, 0.000000)">
                            <g>
                                <g id="Group-5" transform="translate(4.000000, 4.000000)">
                                    <path d="M25.3627931,31.4467118 C24.3832012,33.1333135 23.216394,34.3454979 22,35 L22,22 L28,22 C27.756114,25.5891115 26.8463485,28.8916363 25.3627931,31.4467118 L25.3627931,31.4467118 Z M14.6366397,31.4467118 C13.1538462,28.8916363 12.242915,25.5891115 12,22 L18,22 L18,35 C16.7834008,34.3454979 15.6163968,33.1333135 14.6366397,31.4467118 L14.6366397,31.4467118 Z M14.6366397,8.55328815 C15.6163968,6.86765473 16.7834008,5.65450212 18,5 L18,18 L12,18 C12.242915,14.4108885 13.1538462,11.1083637 14.6366397,8.55328815 L14.6366397,8.55328815 Z M25.3627931,8.55328815 C26.8463485,11.1083637 27.756114,14.4108885 28,18 L22,18 L22,5 C23.216394,5.65450212 24.3832012,6.86765473 25.3627931,8.55328815 L25.3627931,8.55328815 Z M38,18 L31.942,18 C31.357,7.758 26.323,0 20,0 C13.677,0 8.643,7.758 8.059,18 L2,18 L2,22 L8.059,22 C8.643,32.242 13.677,40 20,40 C26.323,40 31.357,32.242 31.942,22 L38,22 L38,18 Z" id="Fill-1" fill="#D9E1E8"></path>
                                    <path d="M20,4 C11.178,4 4,11.178 4,20 C4,28.822 11.178,36 20,36 C28.822,36 36,28.822 36,20 C36,11.178 28.822,4 20,4 M20,40 C8.972,40 0,31.028 0,20 C0,8.972 8.972,0 20,0 C31.028,0 40,8.972 40,20 C40,31.028 31.028,40 20,40" id="Fill-3" fill="#B1B8C0"></path>
                                </g>
                                <polygon id="Bounds" points="0 48 48 48 48 0 0 0"></polygon>
                            </g>
                        </g>
                    </g>
                </g>
            </g>
        </g>
    </g>
</svg>