<?xml version="1.0" encoding="UTF-8"?>
<svg width="13px" height="13px" viewBox="0 0 13 13" version="1.1" xmlns="http://www.w3.org/2000/svg" xmlns:xlink="http://www.w3.org/1999/xlink">
    <!-- Generator: Sketch 49 (51002) - http://www.bohemiancoding.com/sketch -->
    <title>Combined Shape</title>
    <desc>Created with Sketch.</desc>
    <defs>
        <path d="M45.5,774 C42.4624339,774 40,771.537566 40,768.5 C40,765.462434 42.4624339,763 45.5,763 C48.5375661,763 51,765.462434 51,768.5 C51,771.537566 48.5375661,774 45.5,774 Z M41.1340416,769.05 C41.3295799,770.618092 42.3502602,771.929933 43.7478709,772.537311 C43.2292808,771.612133 42.8531116,770.348965 42.7681522,769.05 L41.1340416,769.05 Z M41.1340416,767.95 L42.7677141,767.95 C42.8508126,766.649561 43.2196372,765.3915 43.7332017,764.469096 C42.3431216,765.079258 41.3288951,766.387399 41.1340416,767.95 Z M49.8659584,767.95 C49.6711049,766.387399 48.6568784,765.079258 47.2667983,764.469096 C47.7803628,765.3915 48.1491874,766.649561 48.2322859,767.95 L49.8659584,767.95 Z M47.2521291,772.537311 C48.6497398,771.929933 49.6704201,770.618092 49.8659584,769.05 L48.2318478,769.05 C48.1468884,770.348965 47.7707192,771.612133 47.2521291,772.537311 Z M44.5791884,771.755225 C44.9361616,772.472864 45.3546402,772.9 45.5,772.9 C45.6453598,772.9 46.0638384,772.472864 46.4208116,771.755225 C46.8029991,770.986897 47.0596737,770.038991 47.1302927,769.05 L43.8697073,769.05 C43.9403263,770.038991 44.1970009,770.986897 44.5791884,771.755225 Z M44.5696189,765.243255 C44.1920003,766.008306 43.938757,766.957379 43.8693021,767.95 L47.1306979,767.95 C47.061243,766.957379 46.8079997,766.008306 46.4303811,765.243255 C46.0746994,764.522648 45.6584407,764.1 45.5,764.1 C45.3415593,764.1 44.9253006,764.522648 44.5696189,765.243255 Z" id="path-1"></path>
    </defs>
    <g id="➡️-Boards-&amp;-Posts" stroke="none" stroke-width="1" fill="none" fill-rule="evenodd">
        <g id="Stream" transform="translate(-39.000000, -762.000000)">
            <g id="Combined-Shape">
                <use fill="#FFFFFF" fill-rule="evenodd" xlink:href="#path-1"></use>
                <path stroke="#FFFFFF" stroke-width="0.2" d="M45.5,774.1 C42.4072054,774.1 39.9,771.592795 39.9,768.5 C39.9,765.407205 42.4072054,762.9 45.5,762.9 C48.5927946,762.9 51.1,765.407205 51.1,768.5 C51.1,771.592795 48.5927946,774.1 45.5,774.1 Z M41.2488011,769.15 C41.4557134,770.513767 42.3090701,771.688598 43.5184623,772.317292 C43.0672827,771.412688 42.7611654,770.281787 42.6749818,769.15 L41.2488011,769.15 Z M41.2488011,767.85 L42.6743946,767.85 C42.7587943,766.716394 43.0592112,765.590241 43.5043601,764.690077 C42.3022088,765.320685 41.4548761,766.491752 41.2488011,767.85 Z M49.7511989,767.85 C49.5451239,766.491752 48.6977912,765.320685 47.4956399,764.690077 C47.9407888,765.590241 48.2412057,766.716394 48.3256054,767.85 L49.7511989,767.85 Z M47.4815377,772.317292 C48.6909299,771.688598 49.5442866,770.513767 49.7511989,769.15 L48.3250182,769.15 C48.2388346,770.281787 47.9327173,771.412688 47.4815377,772.317292 Z M47.0221476,769.15 L43.9778509,769.15 C44.0566964,770.073169 44.3003236,770.970079 44.668723,771.710688 C44.9702638,772.316888 45.3818816,772.8 45.5,772.8 C45.6181184,772.8 46.0297362,772.316888 46.331277,771.710688 C46.6996764,770.970079 46.9433036,770.073169 47.0221476,769.15 Z M43.9772778,767.85 L47.0227238,767.85 C46.9451137,766.922707 46.7044971,766.024545 46.3407095,765.287516 C46.0374261,764.673067 45.6305995,764.2 45.5,764.2 C45.3694005,764.2 44.9625739,764.673067 44.6592905,765.287516 C44.2955029,766.024545 44.0548863,766.922707 43.9772778,767.85 Z"></path>
            </g>
        </g>
    </g>
</svg>