<?xml version="1.0" encoding="UTF-8"?>
<svg width="37px" height="36px" viewBox="0 0 37 36" version="1.1" xmlns="http://www.w3.org/2000/svg" xmlns:xlink="http://www.w3.org/1999/xlink">
    <!-- Generator: Sketch 46 (44423) - http://www.bohemiancoding.com/sketch -->
    <title>Team</title>
    <desc>Created with Sketch.</desc>
    <defs></defs>
    <g id="Board-&amp;-Topic" stroke="none" stroke-width="1" fill="none" fill-rule="evenodd">
        <g id="3.-Basics" transform="translate(-609.000000, -2617.000000)">
            <g id="Icons" transform="translate(76.000000, 2462.000000)">
                <g id="Examples" transform="translate(384.000000, 44.000000)">
                    <g id="Visiblity" transform="translate(0.000000, 106.000000)">
                        <g id="Team" transform="translate(144.000000, 0.000000)">
                            <g>
                                <g id="Group-9" transform="translate(5.000000, 5.000000)">
                                    <path d="M32.2002,27.3999 L21.0002,18.9999 L21.0002,6.9999 C21.0002,5.8959 20.1042,4.9999 19.0002,4.9999 C17.8952,4.9999 17.0002,5.8959 17.0002,6.9999 L17.0002,18.9999 L5.8002,27.3999 C4.9162,28.0629 4.7372,29.3169 5.4002,30.1999 C5.7932,30.7239 6.3932,30.9999 7.0012,30.9999 C7.4192,30.9999 7.8402,30.8699 8.2002,30.5999 L19.0002,22.4999 L29.8002,30.5999 C30.1592,30.8699 30.5812,30.9999 30.9982,30.9999 C31.6062,30.9999 32.2072,30.7239 32.6002,30.1999 C33.2622,29.3169 33.0832,28.0629 32.2002,27.3999" id="Fill-1" fill="#E7E9EC"></path>
                                    <path d="M12.3657,5.9551 C13.0767,2.6971 15.6957,-0.0019 18.9997,0.0001 C22.3037,-0.0019 24.9227,2.6971 25.6347,5.9551 C26.3237,9.0981 23.3527,12.3291 18.9997,12.4251 C14.6477,12.3291 11.6757,9.0981 12.3657,5.9551" id="Fill-3" fill="#B1B8C0"></path>
                                    <path d="M1.002,29.0088 C0.403,25.5398 3.981,22.8618 7,22.9998 C9.732,23.1388 11.611,25.8328 12.998,28.9908 C14.385,32.1458 10.896,34.8238 7,34.9998 C3.391,35.1758 1.6,32.4818 1.002,29.0088" id="Fill-5" fill="#B1B8C0"></path>
                                    <path d="M25.0068,29.0308 C25.2808,25.1738 28.1338,22.5148 30.9998,22.9998 C33.8598,23.4858 36.6788,26.1988 36.9928,28.9688 C37.3088,31.7248 34.7708,34.3838 30.9998,34.9998 C27.2348,35.6158 24.7308,32.9028 25.0068,29.0308" id="Fill-7" fill="#B1B8C0"></path>
                                </g>
                                <polygon id="Bounds" points="0 48 48 48 48 0 0 0"></polygon>
                            </g>
                        </g>
                    </g>
                </g>
            </g>
        </g>
    </g>
</svg>