<?xml version="1.0" encoding="UTF-8"?>
<svg width="32px" height="40px" viewBox="0 0 32 40" version="1.1" xmlns="http://www.w3.org/2000/svg" xmlns:xlink="http://www.w3.org/1999/xlink">
    <!-- Generator: Sketch 46 (44423) - http://www.bohemiancoding.com/sketch -->
    <title>Private</title>
    <desc>Created with Sketch.</desc>
    <defs></defs>
    <g id="Board-&amp;-Topic" stroke="none" stroke-width="1" fill="none" fill-rule="evenodd">
        <g id="3.-Basics" transform="translate(-468.000000, -2616.000000)">
            <g id="Icons" transform="translate(76.000000, 2462.000000)">
                <g id="Examples" transform="translate(384.000000, 44.000000)">
                    <g id="Visiblity" transform="translate(0.000000, 106.000000)">
                        <g id="Private">
                            <g>
                                <g id="Group-7" transform="translate(8.000000, 4.000000)">
                                    <path d="M6,16 C4.897,16 4,16.897 4,18 L4,34 C4,35.103 4.897,36 6,36 L26,36 C27.103,36 28,35.103 28,34 L28,18 C28,16.897 27.103,16 26,16 L6,16 Z M26,40 L6,40 C2.691,40 0,37.309 0,34 L0,18 C0,14.691 2.691,12 6,12 L26,12 C29.309,12 32,14.691 32,18 L32,34 C32,37.309 29.309,40 26,40 L26,40 Z" id="Fill-1" fill="#B1B8C0"></path>
                                    <path d="M26,14 L22,14 L22,10 C22,6.691 19.309,4 16,4 C12.691,4 10,6.691 10,10 L10,14 L6,14 L6,10 C6,4.486 10.486,0 16,0 C21.514,0 26,4.486 26,10 L26,14 Z" id="Fill-3" fill="#B1B8C0"></path>
                                    <path d="M20,24 C20,21.791 18.209,20 16,20 C13.791,20 12,21.791 12,24 C12,25.477 12.81,26.752 14,27.445 L14,30 C14,31.104 14.896,32 16,32 C17.104,32 18,31.104 18,30 L18,27.445 C19.19,26.752 20,25.477 20,24" id="Fill-5" fill="#D9E1E8"></path>
                                </g>
                                <polygon id="Bounds" points="0 48 48 48 48 0 0 0"></polygon>
                            </g>
                        </g>
                    </g>
                </g>
            </g>
        </g>
    </g>
</svg>