<?xml version="1.0" encoding="UTF-8"?>
<svg width="12px" height="12px" viewBox="0 0 12 12" version="1.1" xmlns="http://www.w3.org/2000/svg" xmlns:xlink="http://www.w3.org/1999/xlink">
    <!-- Generator: Sketch 44.1 (41455) - http://www.bohemiancoding.com/sketch -->
    <title>Fill 40</title>
    <desc>Created with Sketch.</desc>
    <defs></defs>
    <g id="Components---All-Modals" stroke="none" stroke-width="1" fill="none" fill-rule="evenodd" opacity="0.800000012">
        <g id="Create-Board,-Topic-Flow---1" transform="translate(-396.000000, -169.000000)" fill="#A3A6AC">
            <g id="BODY" transform="translate(75.000000, 152.000000)">
                <g id="CARDS" transform="translate(210.000000, 0.000000)">
                    <g id="View-Header">
                        <g id="Title">
                            <g id="Group-3" transform="translate(109.000000, 15.000000)">
                                <path d="M14,9.091 L12.21,9.091 C12.112,9.465 11.966,9.816 11.779,10.144 L12.909,11.274 L11.273,12.909 L10.143,11.779 C9.815,11.967 9.465,12.112 9.09,12.209 L9.09,14 L6.909,14 L6.909,12.209 C6.535,12.112 6.185,11.967 5.857,11.779 L4.727,12.909 L3.09,11.274 L4.221,10.144 C4.034,9.816 3.888,9.465 3.79,9.091 L2,9.091 L2,6.909 L3.79,6.909 C3.888,6.535 4.034,6.186 4.221,5.857 L3.09,4.727 L4.727,3.091 L5.857,4.221 C6.185,4.033 6.535,3.888 6.909,3.791 L6.909,2 L9.09,2 L9.09,3.791 C9.465,3.888 9.815,4.033 10.143,4.221 L11.273,3.091 L12.909,4.727 L11.779,5.857 C11.966,6.186 12.112,6.535 12.21,6.909 L14,6.909 L14,9.091 Z M6,8.49947928 C6,9.88044157 7.11875,11 8.5,11 C9.88125,11 11,9.88044157 11,8.49947928 C11,7.11955843 9.88125,6 8.5,6 C7.11875,6 6,7.11955843 6,8.49947928 Z" id="Fill-40"></path>
                            </g>
                        </g>
                    </g>
                </g>
            </g>
        </g>
    </g>
</svg>