<?xml version="1.0" encoding="UTF-8"?>
<svg width="64px" height="64px" viewBox="0 0 64 64" version="1.1" xmlns="http://www.w3.org/2000/svg" xmlns:xlink="http://www.w3.org/1999/xlink">
    <!-- Generator: Sketch 50.2 (55047) - http://www.bohemiancoding.com/sketch -->
    <title>Oval 9 Copy</title>
    <desc>Created with Sketch.</desc>
    <defs></defs>
    <g id="ðŸ -Marketing-site" stroke="none" stroke-width="1" fill="none" fill-rule="evenodd">
        <g id="Home---May-17" transform="translate(-1208.000000, -2005.000000)">
            <g id="Group-17" transform="translate(0.000000, 1548.000000)">
                <g id="Group-14" transform="translate(128.000000, 457.000000)">
                    <g id="Oval-9-Copy" transform="translate(1080.000000, 0.000000)">
                        <circle fill="#34414F" fill-rule="evenodd" cx="32" cy="32" r="32"></circle>
                        <path d="M33.2,25.7935706 L33.2,40.9507709 C33.2,41.5302441 32.6673622,42 32,42 C31.3372583,42 30.8,41.5330811 30.8,40.9507709 L30.8,25.7935706 L28.0485281,28.3412298 C27.579899,28.7751456 26.820101,28.7751456 26.3514719,28.3412298 C25.8828427,27.9073139 25.8828427,27.2037972 26.3514719,26.7698814 L31.1514719,22.3254369 C31.620101,21.891521 32.379899,21.891521 32.8485281,22.3254369 L37.6485281,26.7698814 C38.1171573,27.2037972 38.1171573,27.9073139 37.6485281,28.3412298 C37.179899,28.7751456 36.420101,28.7751456 35.9514719,28.3412298 L33.2,25.7935706 Z" id="Combined-Shape" fill="#FFFFFF" fill-rule="nonzero" transform="translate(32.000000, 32.000000) rotate(90.000000) translate(-32.000000, -32.000000) "></path>
                    </g>
                </g>
            </g>
        </g>
    </g>
</svg>