<?xml version="1.0" encoding="UTF-8"?>
<svg width="23px" height="41px" viewBox="0 0 23 41" version="1.1" xmlns="http://www.w3.org/2000/svg" xmlns:xlink="http://www.w3.org/1999/xlink">
    <!-- Generator: Sketch 52.6 (67491) - http://www.bohemiancoding.com/sketch -->
    <title>Carrot</title>
    <desc>Created with Sketch.</desc>
    <g id="Website-2.0" stroke="none" stroke-width="1" fill="none" fill-rule="evenodd">
        <g id="Pricing-(August)" transform="translate(-1046.000000, -511.000000)" fill="#FFFFFF">
            <g id="Group-15" transform="translate(916.000000, 335.000000)">
                <g id="Group-6" transform="translate(101.000000, 156.000000)">
                    <g id="Carrot" transform="translate(29.000000, 20.000000)">
                        <g id="Group-3">
                            <path d="M8.18855338,0.23861403 C7.54980654,-0.0497085212 6.84176818,-0.0777090767 6.19449739,0.159879795 C5.49663278,0.415766059 4.93240182,0.966628473 4.64588688,1.67163256 L4.42398904,2.21833647 L3.90485256,1.94304388 C3.23640935,1.58901706 2.45275525,1.53273871 1.75516561,1.78890221 C1.10789481,2.02649108 0.582984042,2.50693626 0.277496423,3.14207757 C-0.38132296,4.51382755 0.173284175,6.20827701 1.51429508,6.91910299 C1.51786964,6.92104363 1.52171917,6.92298426 1.5255687,6.92492489 L6.75020439,9.47962904 C6.84836738,9.52759038 6.95560425,9.53036272 7.04909281,9.4959858 C7.14285634,9.46188611 7.22287155,9.39008271 7.26769107,9.28972428 L9.64367533,3.94577668 C9.64560009,3.94189542 9.64724989,3.93773692 9.64889969,3.93385565 C10.2233044,2.52079792 9.56833455,0.863497714 8.18855338,0.23861403" id="Fill-2"></path>
                            <path d="M11.9005515,9.39464393 C11.9005515,9.39464393 10.0508306,9.60769557 8.24719206,10.2633034 C6.44327426,10.9186324 4.88931875,11.9426188 4.88931875,11.9426188 C-0.633032486,14.9780469 -1.620593,21.2441075 2.66004613,25.8732399 L13.5257253,37.6242646 C17.8021751,42.2492141 21.5186536,40.9045348 21.8174912,34.6108667 L22.3428309,23.5500289 L16.7238462,25.5946553 C16.7238462,25.5946553 20.9184648,21.3244201 21.7728052,18.2987522 C22.3718768,16.1774384 21.9347919,14.5301923 21.6200349,13.7348739 C19.9482201,10.3756854 16.2778241,8.55387079 11.9005515,9.39464393 Z" id="Fill-4"></path>
                        </g>
                    </g>
                </g>
            </g>
        </g>
    </g>
</svg>