<?xml version="1.0" encoding="UTF-8"?>
<svg width="6px" height="14px" viewBox="0 0 6 14" version="1.1" xmlns="http://www.w3.org/2000/svg" xmlns:xlink="http://www.w3.org/1999/xlink">
    <!-- Generator: Sketch 48.1 (47250) - http://www.bohemiancoding.com/sketch -->
    <title>carrot</title>
    <desc>Created with Sketch.</desc>
    <defs></defs>
    <g id="Main-Menu-(m)" stroke="none" stroke-width="1" fill="none" fill-rule="evenodd" transform="translate(-44.000000, -611.000000)" opacity="0.5">
        <g id="Group-3" transform="translate(24.000000, 140.000000)">
            <g id="Group-2" transform="translate(15.000000, 427.000000)">
                <g id="carrot" transform="translate(0.000000, 43.000000)">
                    <path d="M10.6666667,6.66666667 L10.5333333,7.33333333 L9,7.33333333 C8.81590508,7.33333333 8.66666667,7.48257175 8.66666667,7.66666667 C8.66666667,7.85076158 8.81590508,8 9,8 L10.4,8 L9.73333333,11.3333333 L8.33333333,11.3333333 C8.14923842,11.3333333 8,11.4825718 8,11.6666667 C8,11.8507616 8.14923842,12 8.33333333,12 L9.6,12 L9.33333333,13.3333333 C9.33333333,14.069713 8.73637967,14.6666667 8,14.6666667 C7.26362033,14.6666667 6.66666667,14.069713 6.66666667,13.3333333 L6,10 L7,10 C7.18409492,10 7.33333333,9.85076158 7.33333333,9.66666667 C7.33333333,9.48257175 7.18409492,9.33333333 7,9.33333333 L5.86666667,9.33333333 L5.33333333,6.66666667 C5.33333333,5.86666667 5.95333333,5.18 6.86,4.86 L5.93333333,3.52 C5.72666667,3.21333333 5.8,2.8 6.10666667,2.59333333 C6.40666667,2.38 6.82,2.46 7.03333333,2.76 L7.33333333,3.2 L7.33333333,2 C7.33333333,1.63181017 7.63181017,1.33333333 8,1.33333333 C8.36818983,1.33333333 8.66666667,1.63181017 8.66666667,2 L8.66666667,3.52 L9.66666667,2.36 C9.88666667,2.08 10.3133333,2.04666667 10.5933333,2.28666667 C10.8733333,2.52 10.9066667,2.94 10.6666667,3.22666667 L9.24666667,4.9 C10.0933333,5.23333333 10.6666667,5.9 10.6666667,6.66666667 Z" id="Shape" fill="#FFFFFF" fill-rule="nonzero"></path>
                    <rect id="Rectangle-8" x="0" y="0" width="16" height="16"></rect>
                </g>
            </g>
        </g>
    </g>
</svg>