<?xml version="1.0" encoding="UTF-8"?>
<svg width="493px" height="120px" viewBox="0 0 493 120" version="1.1" xmlns="http://www.w3.org/2000/svg" xmlns:xlink="http://www.w3.org/1999/xlink">
    <!-- Generator: Sketch 44.1 (41455) - http://www.bohemiancoding.com/sketch -->
    <title>Carrot with wordmark</title>
    <desc>Created with Sketch.</desc>
    <defs></defs>
    <g id="Symbols" stroke="none" stroke-width="1" fill="none" fill-rule="evenodd">
        <g id="Carrot-with-wordmark">
            <g id="Carrot" transform="translate(0.391304, 0.869565)">
                <g id="Group-3">
                    <path d="M23.8333556,0.6951928 C21.9742384,-0.144823865 19.9134434,-0.226402406 18.0295166,0.465803634 C15.998333,1.21131842 14.3560994,2.81623488 13.5221777,4.87023716 L12.8763286,6.46303799 L11.3653457,5.66098362 C9.4197951,4.62954008 7.13891518,4.46557529 5.10853189,5.21189779 C3.2246051,5.90410383 1.69681571,7.30386236 0.80767269,9.15432215 C-1.10986707,13.150863 0.504355675,18.0875763 4.40746143,20.1585405 C4.41786544,20.1641944 4.42906976,20.1698484 4.44027409,20.1755023 L19.6469406,27.6185346 C19.9326508,27.7582681 20.2447712,27.7663452 20.5168762,27.6661894 C20.7897815,27.5668413 21.0226713,27.3576448 21.1531216,27.0652544 L28.0685895,11.4958686 C28.0741917,11.4845607 28.0789935,11.4724451 28.0837954,11.4611371 C29.7556403,7.34424778 27.8493049,2.51576738 23.8333556,0.6951928" id="Fill-2" fill="#69E993"></path>
                    <path d="M62.9266192,40.0160267 C58.0606856,30.2291603 47.3777421,24.9213735 34.637385,27.3709338 C34.637385,27.3709338 29.2536432,27.9916515 24.0040276,29.9017398 C18.753599,31.8110156 14.2307032,34.7943606 14.2307032,34.7943606 C-1.84248519,43.6379636 -4.71684892,61.89389 7.74224974,75.3806893 L39.3675667,109.616848 C51.8144721,123.09146 62.6315417,119.173789 63.5013294,100.837429 L65.0303673,68.6121034 L48.6759205,74.5690439 C48.6759205,74.5690439 60.8846504,62.1278778 63.3712676,53.3127109 C65.1149074,47.1323445 63.8427413,42.3331564 62.9266192,40.0160267" id="Fill-4" fill="#ED5850"></path>
                </g>
                <g id="Group-3">
                    <path d="M23.8333556,0.6951928 C21.9742384,-0.144823865 19.9134434,-0.226402406 18.0295166,0.465803634 C15.998333,1.21131842 14.3560994,2.81623488 13.5221777,4.87023716 L12.8763286,6.46303799 L11.3653457,5.66098362 C9.4197951,4.62954008 7.13891518,4.46557529 5.10853189,5.21189779 C3.2246051,5.90410383 1.69681571,7.30386236 0.80767269,9.15432215 C-1.10986707,13.150863 0.504355675,18.0875763 4.40746143,20.1585405 C4.41786544,20.1641944 4.42906976,20.1698484 4.44027409,20.1755023 L19.6469406,27.6185346 C19.9326508,27.7582681 20.2447712,27.7663452 20.5168762,27.6661894 C20.7897815,27.5668413 21.0226713,27.3576448 21.1531216,27.0652544 L28.0685895,11.4958686 C28.0741917,11.4845607 28.0789935,11.4724451 28.0837954,11.4611371 C29.7556403,7.34424778 27.8493049,2.51576738 23.8333556,0.6951928" id="Fill-2" fill="#69E993"></path>
                    <path d="M34.637385,27.3709338 C34.637385,27.3709338 29.2536432,27.9916515 24.0040276,29.9017398 C18.753599,31.8110156 14.2307032,34.7943606 14.2307032,34.7943606 C-1.84248519,43.6379636 -4.71684892,61.89389 7.74224974,75.3806893 L39.3675667,109.616848 C51.8144721,123.09146 62.6315417,119.173789 63.5013294,100.837429 L65.0303673,68.6121034 L48.6759205,74.5690439 C48.6759205,74.5690439 60.8846504,62.1278778 63.3712676,53.3127109 C65.1149074,47.1323445 63.8427413,42.3331564 62.9266192,40.0160267 C58.0606856,30.2291603 47.3777421,24.9213735 34.637385,27.3709338 Z" id="Fill-4" fill="#FA6452"></path>
                </g>
            </g>
            <path d="M197.190564,50.5494912 C193.979632,47.0915646 190.871662,44.7863147 187.866559,43.6336725 C184.861456,42.4810303 181.835815,41.9047179 178.789547,41.9047179 C174.261309,41.9047179 170.165374,42.7074388 166.501619,44.3129047 C162.837863,45.9183707 159.688727,48.1412901 157.054117,50.9817299 C154.419506,53.8221696 152.38183,57.1359663 150.941027,60.9232192 C149.500224,64.7104722 148.779833,68.7858246 148.779833,73.1493987 C148.779833,77.8422991 149.500224,82.1646426 150.941027,86.1165587 C152.38183,90.0684749 154.419506,93.4851845 157.054117,96.36679 C159.688727,99.2483955 162.837863,101.51248 166.501619,103.159112 C170.165374,104.805744 174.261309,105.629047 178.789547,105.629047 C182.329805,105.629047 185.767097,104.785161 189.101526,103.097364 C192.435956,101.409566 195.543926,98.713247 198.425532,95.0083256 L211.269195,104.147086 C207.317279,109.580971 202.500953,113.532828 196.820074,116.002775 C191.139195,118.472723 185.087914,119.707678 178.66605,119.707678 C171.91486,119.707678 165.719501,118.616801 160.079787,116.435014 C154.440074,114.253227 149.582583,111.165839 145.507169,107.172757 C141.431756,103.179675 138.241455,98.3839318 135.93617,92.7853839 C133.630886,87.186836 132.478261,80.9708945 132.478261,74.1373728 C132.478261,67.139188 133.630886,60.7791683 135.93617,55.057123 C138.241455,49.3350778 141.431756,44.4570044 145.507169,40.4227567 C149.582583,36.388509 154.440074,33.2805382 160.079787,31.0987512 C165.719501,28.9169641 171.91486,27.826087 178.66605,27.826087 C184.593924,27.826087 190.089475,28.8757989 195.152868,30.9752544 C200.21626,33.0747098 204.929673,36.6354976 209.293247,41.6577243 L197.190564,50.5494912 Z M257.456984,109.33395 L257.086494,109.33395 C254.945873,112.709545 252.228971,115.158873 248.935708,116.682007 C245.642444,118.205142 242.019909,118.966698 238.067993,118.966698 C235.35105,118.966698 232.695896,118.596211 230.102451,117.855227 C227.509006,117.114242 225.203757,116.002783 223.186633,114.520814 C221.169509,113.038846 219.543484,111.186413 218.308511,108.96346 C217.073537,106.740507 216.456059,104.147101 216.456059,101.183164 C216.456059,97.9722319 217.032372,95.2347477 218.185014,92.970629 C219.337656,90.7065104 220.88135,88.8129123 222.816142,87.289778 C224.750935,85.7666436 226.994437,84.5522709 229.546716,83.6466235 C232.098995,82.740976 234.754149,82.0617506 237.512257,81.6089269 C240.270365,81.1561032 243.049015,80.867947 245.848289,80.7444496 C248.647563,80.6209522 251.282134,80.5592044 253.752081,80.5592044 L257.456984,80.5592044 L257.456984,78.9537465 C257.456984,75.2488251 256.180864,72.4701758 253.628585,70.6177151 C251.076305,68.7652544 247.824257,67.8390379 243.87234,67.8390379 C240.74374,67.8390379 237.821013,68.3947678 235.10407,69.5062442 C232.387128,70.6177206 230.040713,72.1202496 228.064755,74.013876 L220.284459,66.23358 C223.577722,62.857985 227.426666,60.4292396 231.831406,58.947271 C236.236146,57.4653025 240.784898,56.7243293 245.477798,56.7243293 C249.676709,56.7243293 253.216914,57.1977288 256.09852,58.1445421 C258.980125,59.0913553 261.367706,60.305728 263.261332,61.7876966 C265.154959,63.2696651 266.616322,64.9780199 267.645467,66.9128122 C268.674612,68.8476045 269.415585,70.8029503 269.868409,72.7789084 C270.321233,74.7548665 270.588806,76.6690472 270.671138,78.5215079 C270.753469,80.3739686 270.794635,81.999993 270.794635,83.39963 L270.794635,117.484736 L257.456984,117.484736 L257.456984,109.33395 Z M256.592507,90.9329325 L253.505088,90.9329325 C251.446798,90.9329325 249.141548,91.0152628 246.589269,91.179926 C244.03699,91.3445892 241.628827,91.7356583 239.364709,92.3531452 C237.10059,92.9706321 235.186409,93.876266 233.622109,95.070074 C232.057809,96.263882 231.275671,97.9310716 231.275671,100.071693 C231.275671,101.47133 231.584409,102.644537 232.201896,103.591351 C232.819383,104.538164 233.622104,105.340885 234.610083,105.999537 C235.598062,106.65819 236.709522,107.13159 237.944496,107.41975 C239.17947,107.707911 240.414425,107.851989 241.649399,107.851989 C246.753957,107.851989 250.520571,106.637616 252.949352,104.208834 C255.378134,101.780053 256.592507,98.466256 256.592507,94.2673451 L256.592507,90.9329325 Z M286.725717,58.2062905 L301.545328,58.2062905 L301.545328,67.5920444 L301.792322,67.5920444 C303.438954,64.1341178 305.785369,61.4583813 308.831637,59.5647549 C311.877906,57.6711284 315.376946,56.7243293 319.328862,56.7243293 C320.23451,56.7243293 321.119561,56.8066597 321.984043,56.9713228 C322.848524,57.135986 323.733575,57.3418119 324.639223,57.5888067 L324.639223,71.9144311 C323.404249,71.5851047 322.189876,71.3175311 320.996068,71.1117021 C319.80226,70.9058732 318.629053,70.8029602 317.476411,70.8029602 C314.018484,70.8029602 311.239835,71.4410204 309.140379,72.71716 C307.040924,73.9932996 305.435482,75.4546634 304.324006,77.1012951 C303.212529,78.7479268 302.471556,80.3945339 302.101064,82.0411656 C301.730572,83.6877973 301.545328,84.9227526 301.545328,85.7460685 L301.545328,117.484736 L286.725717,117.484736 L286.725717,58.2062905 Z M334.765957,58.2062905 L349.585569,58.2062905 L349.585569,67.5920444 L349.832562,67.5920444 C351.479194,64.1341178 353.825609,61.4583813 356.871878,59.5647549 C359.918147,57.6711284 363.417187,56.7243293 367.369103,56.7243293 C368.27475,56.7243293 369.159801,56.8066597 370.024283,56.9713228 C370.888765,57.135986 371.773816,57.3418119 372.679463,57.5888067 L372.679463,71.9144311 C371.44449,71.5851047 370.230117,71.3175311 369.036309,71.1117021 C367.842501,70.9058732 366.669293,70.8029602 365.516651,70.8029602 C362.058725,70.8029602 359.280075,71.4410204 357.18062,72.71716 C355.081164,73.9932996 353.475722,75.4546634 352.364246,77.1012951 C351.25277,78.7479268 350.511796,80.3945339 350.141304,82.0411656 C349.770812,83.6877973 349.585569,84.9227526 349.585569,85.7460685 L349.585569,117.484736 L334.765957,117.484736 L334.765957,58.2062905 Z M377.619334,87.8455134 C377.619334,83.152613 378.46322,78.8920173 380.151018,75.0635985 C381.838815,71.2351797 384.123482,67.9625483 387.005088,65.2456059 C389.886693,62.5286636 393.303403,60.4292396 397.255319,58.947271 C401.207235,57.4653025 405.406083,56.7243293 409.851989,56.7243293 C414.297895,56.7243293 418.496742,57.4653025 422.448659,58.947271 C426.400575,60.4292396 429.817284,62.5286636 432.69889,65.2456059 C435.580495,67.9625483 437.865163,71.2351797 439.55296,75.0635985 C441.240758,78.8920173 442.084644,83.152613 442.084644,87.8455134 C442.084644,92.5384138 441.240758,96.7990095 439.55296,100.627428 C437.865163,104.455847 435.580495,107.728479 432.69889,110.445421 C429.817284,113.162363 426.400575,115.261787 422.448659,116.743756 C418.496742,118.225724 414.297895,118.966698 409.851989,118.966698 C405.406083,118.966698 401.207235,118.225724 397.255319,116.743756 C393.303403,115.261787 389.886693,113.162363 387.005088,110.445421 C384.123482,107.728479 381.838815,104.455847 380.151018,100.627428 C378.46322,96.7990095 377.619334,92.5384138 377.619334,87.8455134 Z M392.438945,87.8455134 C392.438945,90.1507978 392.830015,92.3737173 393.612165,94.5143386 C394.394315,96.6549598 395.54694,98.5485579 397.070074,100.19519 C398.593208,101.841821 400.425059,103.159107 402.56568,104.147086 C404.706301,105.135065 407.135047,105.629047 409.851989,105.629047 C412.568931,105.629047 414.997677,105.135065 417.138298,104.147086 C419.278919,103.159107 421.110769,101.841821 422.633904,100.19519 C424.157038,98.5485579 425.309663,96.6549598 426.091813,94.5143386 C426.873963,92.3737173 427.265032,90.1507978 427.265032,87.8455134 C427.265032,85.540229 426.873963,83.3173095 426.091813,81.1766883 C425.309663,79.036067 424.157038,77.1424689 422.633904,75.4958372 C421.110769,73.8492055 419.278919,72.5319198 417.138298,71.5439408 C414.997677,70.5559618 412.568931,70.0619796 409.851989,70.0619796 C407.135047,70.0619796 404.706301,70.5559618 402.56568,71.5439408 C400.425059,72.5319198 398.593208,73.8492055 397.070074,75.4958372 C395.54694,77.1424689 394.394315,79.036067 393.612165,81.1766883 C392.830015,83.3173095 392.438945,85.540229 392.438945,87.8455134 Z M449.000463,70.8029602 L449.000463,58.2062905 L461.226642,58.2062905 L461.226642,41.0402405 L476.046253,41.0402405 L476.046253,58.2062905 L492.347826,58.2062905 L492.347826,70.8029602 L476.046253,70.8029602 L476.046253,96.7372803 C476.046253,99.7012174 476.601983,102.047632 477.71346,103.776596 C478.824936,105.505559 481.027273,106.370028 484.320537,106.370028 C485.637842,106.370028 487.078623,106.22595 488.642923,105.937789 C490.207223,105.649629 491.442179,105.176229 492.347826,104.517576 L492.347826,116.990749 C490.783526,117.731734 488.869345,118.246298 486.605227,118.534459 C484.341108,118.822619 482.344597,118.966698 480.615634,118.966698 C476.663718,118.966698 473.432251,118.534463 470.921138,117.669981 C468.410024,116.8055 466.434096,115.488214 464.993293,113.718085 C463.55249,111.947956 462.564526,109.745619 462.029371,107.111008 C461.494216,104.476398 461.226642,101.430175 461.226642,97.9722479 L461.226642,70.8029602 L449.000463,70.8029602 Z" id="Carrot" fill="#373F4F"></path>
        </g>
    </g>
</svg>