<?xml version="1.0" encoding="UTF-8"?>
<svg width="82px" height="20px" viewBox="0 0 82 20" version="1.1" xmlns="http://www.w3.org/2000/svg" xmlns:xlink="http://www.w3.org/1999/xlink">
    <!-- Generator: Sketch 44.1 (41455) - http://www.bohemiancoding.com/sketch -->
    <title>Carrot with wordmark</title>
    <desc>Created with Sketch.</desc>
    <defs></defs>
    <g id="Symbols" stroke="none" stroke-width="1" fill="none" fill-rule="evenodd">
        <g id="logo/white" transform="translate(-3.000000, -17.000000)">
            <g id="Carrot-with-wordmark" transform="translate(3.000000, 17.000000)">
                <g id="Carrot" transform="translate(0.065169, 0.144928)">
                    <g id="Group-3">
                        <path d="M3.96925747,0.115865467 C3.65963616,-0.0241373108 3.316427,-0.0377337343 3.00267384,0.0776339389 C2.66439623,0.201886404 2.39089518,0.46937248 2.25201209,0.811706194 L2.14445101,1.077173 L1.89280872,0.94349727 C1.56879261,0.771590013 1.18893004,0.744262548 0.85078571,0.868649631 C0.537032557,0.984017304 0.282591278,1.21731039 0.134511519,1.52572036 C-0.184839609,2.1918105 0.0839964613,3.01459605 0.734027952,3.35975674 C0.735760659,3.36069907 0.73762665,3.36164139 0.739492642,3.36258372 L3.27204305,4.6030891 C3.31962584,4.62637802 3.37160703,4.6277242 3.41692397,4.61103156 C3.46237419,4.59447354 3.50116016,4.55960747 3.52288563,4.51087573 L4.67460229,1.9159781 C4.67553528,1.91409345 4.67633499,1.91207418 4.6771347,1.91018952 C4.9555673,1.2240413 4.63808217,0.419294563 3.96925747,0.115865467" id="Fill-2" fill="#69E993"></path>
                        <path d="M10.4799323,6.66933779 C9.66954943,5.03819338 7.89038942,4.15356226 5.76858339,4.56182229 C5.76858339,4.56182229 4.87196364,4.66527525 3.99768154,4.9836233 C3.12326406,5.30183593 2.37001141,5.79906009 2.37001141,5.79906009 C-0.306851383,7.27299393 -0.785554,10.3156483 1.28941065,12.5634482 L6.55635786,18.2694746 C8.62929182,20.5152434 10.4307895,19.8622981 10.5756458,16.8062382 L10.830295,11.4353506 L8.1065908,12.428174 C8.1065908,12.428174 10.1398585,10.3546463 10.553985,8.88545181 C10.8443745,7.85539075 10.6325052,7.05552606 10.4799323,6.66933779" id="Fill-4" fill="#ED5850"></path>
                    </g>
                    <g id="Group-3">
                        <path d="M3.96925747,0.115865467 C3.65963616,-0.0241373108 3.316427,-0.0377337343 3.00267384,0.0776339389 C2.66439623,0.201886404 2.39089518,0.46937248 2.25201209,0.811706194 L2.14445101,1.077173 L1.89280872,0.94349727 C1.56879261,0.771590013 1.18893004,0.744262548 0.85078571,0.868649631 C0.537032557,0.984017304 0.282591278,1.21731039 0.134511519,1.52572036 C-0.184839609,2.1918105 0.0839964613,3.01459605 0.734027952,3.35975674 C0.735760659,3.36069907 0.73762665,3.36164139 0.739492642,3.36258372 L3.27204305,4.6030891 C3.31962584,4.62637802 3.37160703,4.6277242 3.41692397,4.61103156 C3.46237419,4.59447354 3.50116016,4.55960747 3.52288563,4.51087573 L4.67460229,1.9159781 C4.67553528,1.91409345 4.67633499,1.91207418 4.6771347,1.91018952 C4.9555673,1.2240413 4.63808217,0.419294563 3.96925747,0.115865467" id="Fill-2" fill="#69E993"></path>
                        <path d="M5.76858339,4.56182229 C5.76858339,4.56182229 4.87196364,4.66527525 3.99768154,4.9836233 C3.12326406,5.30183593 2.37001141,5.79906009 2.37001141,5.79906009 C-0.306851383,7.27299393 -0.785554,10.3156483 1.28941065,12.5634482 L6.55635786,18.2694746 C8.62929182,20.5152434 10.4307895,19.8622981 10.5756458,16.8062382 L10.830295,11.4353506 L8.1065908,12.428174 C8.1065908,12.428174 10.1398585,10.3546463 10.553985,8.88545181 C10.8443745,7.85539075 10.6325052,7.05552606 10.4799323,6.66933779 C9.66954943,5.03819338 7.89038942,4.15356226 5.76858339,4.56182229 Z" id="Fill-4" fill="#FA6452"></path>
                    </g>
                </g>
                <path d="M32.8405338,8.4249152 C32.3057784,7.8485941 31.7881704,7.46438579 31.2876942,7.27227875 C30.787218,7.08017172 30.2833215,6.98411964 29.7759894,6.98411964 C29.0218472,6.98411964 28.3397015,7.11790646 27.7295319,7.38548412 C27.1193623,7.65306178 26.5948985,8.02354836 26.1561249,8.49695498 C25.7173512,8.9703616 25.3779923,9.52266104 25.138038,10.1538699 C24.8980836,10.7850787 24.7781083,11.4643041 24.7781083,12.1915665 C24.7781083,12.9737165 24.8980836,13.6941071 25.138038,14.3527598 C25.3779923,15.0114125 25.7173512,15.5808641 26.1561249,16.0611317 C26.5948985,16.5413993 27.1193623,16.9187467 27.7295319,17.1931853 C28.3397015,17.4676239 29.0218472,17.6048412 29.7759894,17.6048412 C30.3655915,17.6048412 30.9380454,17.4641935 31.4933683,17.1828939 C32.0486912,16.9015943 32.5662993,16.4522078 33.0462079,15.8347209 L35.1852188,17.3578477 C34.5270583,18.2634951 33.7249373,18.9221379 32.7788316,19.3337959 C31.8327259,19.7454538 30.8249328,19.9512797 29.755422,19.9512797 C28.6310645,19.9512797 27.5992763,19.7694668 26.6600265,19.4058356 C25.7207766,19.0422045 24.9117999,18.5276398 24.2330719,17.8621261 C23.5543439,17.1966125 23.0230244,16.397322 22.6390974,15.4642307 C22.2551705,14.5311393 22.0632099,13.4951491 22.0632099,12.3562288 C22.0632099,11.1898647 22.2551705,10.1298614 22.6390974,9.17618717 C23.0230244,8.22251296 23.5543439,7.40950074 24.2330719,6.73712612 C24.9117999,6.06475149 25.7207766,5.54675637 26.6600265,5.18312519 C27.5992763,4.81949402 28.6310645,4.63768116 29.755422,4.63768116 C30.7426627,4.63768116 31.6579034,4.81263316 32.5011715,5.1625424 C33.3444396,5.51245164 34.1294213,6.10591626 34.8561402,6.94295405 L32.8405338,8.4249152 Z M42.8774309,18.222325 L42.8157287,18.222325 C42.4592251,18.7849242 42.0067466,19.1931455 41.4582795,19.4470012 C40.9098124,19.700857 40.3065077,19.8277829 39.6483472,19.8277829 C39.1958619,19.8277829 38.753667,19.7660352 38.3217491,19.6425378 C37.8898313,19.5190404 37.5059101,19.3337971 37.1699741,19.0868023 C36.834038,18.8398076 36.5632364,18.5310688 36.3575613,18.1605766 C36.1518861,17.7900845 36.0490501,17.3578501 36.0490501,16.8638606 C36.0490501,16.3287053 36.1450304,15.8724579 36.3369939,15.4951048 C36.5289573,15.1177517 36.7860474,14.8021521 37.1082718,14.5482963 C37.4304962,14.2944406 37.8041338,14.0920452 38.2291958,13.9411039 C38.6542578,13.7901627 39.0964527,13.6769584 39.5557939,13.6014878 C40.015135,13.5260172 40.4778972,13.4779912 40.9440942,13.4574083 C41.4102912,13.4368254 41.8490583,13.4265341 42.2604086,13.4265341 L42.8774309,13.4265341 L42.8774309,13.1589578 C42.8774309,12.5414709 42.6649031,12.0783626 42.2398411,11.7696192 C41.8147792,11.4608757 41.2731761,11.3065063 40.6150156,11.3065063 C40.0939719,11.3065063 39.6072147,11.399128 39.1547293,11.584374 C38.702244,11.7696201 38.3114671,12.0200416 37.9823868,12.335646 L36.6866399,11.03893 C37.2351069,10.4763308 37.8761182,10.0715399 38.6096929,9.82454517 C39.3432676,9.57755041 40.1008264,9.45405489 40.882392,9.45405489 C41.5816875,9.45405489 42.1712807,9.53295481 42.6511894,9.69075702 C43.1310981,9.84855922 43.5287307,10.0509547 43.8440993,10.2979494 C44.1594679,10.5449442 44.4028465,10.82967 44.5742424,11.1521354 C44.7456384,11.4746007 44.8690416,11.8004917 44.9444558,12.1298181 C45.0198701,12.4591444 45.0644323,12.7781745 45.078144,13.086918 C45.0918557,13.3956614 45.0987114,13.6666655 45.0987114,13.8999383 L45.0987114,19.5807894 L42.8774309,19.5807894 L42.8774309,18.222325 Z M42.733459,15.1554887 L42.2192737,15.1554887 C41.8764818,15.1554887 41.4925606,15.1692105 41.0674987,15.1966543 C40.6424367,15.2240982 40.2413762,15.2892764 39.8643051,15.3921909 C39.4872339,15.4951054 39.1684422,15.6460443 38.9079204,15.8450123 C38.6473985,16.0439803 38.5171396,16.3218453 38.5171396,16.6786155 C38.5171396,16.9118883 38.5685576,17.1074229 38.6713952,17.2652251 C38.7742327,17.4230273 38.9079196,17.5568141 39.0724597,17.6665896 C39.2369998,17.776365 39.4221047,17.8552649 39.6277798,17.9032917 C39.833455,17.9513185 40.039127,17.9753315 40.2448022,17.9753315 C41.0949261,17.9753315 41.7222259,17.772936 42.1267204,17.3681391 C42.5312148,16.9633421 42.733459,16.4110427 42.733459,15.7112242 L42.733459,15.1554887 Z M47.7519076,9.70104841 L50.219997,9.70104841 L50.219997,11.2653407 L50.2611319,11.2653407 C50.5353654,10.6890196 50.9261423,10.2430636 51.4334744,9.92745914 C51.9408064,9.61185473 52.5235439,9.45405489 53.1817044,9.45405489 C53.3325328,9.45405489 53.4799311,9.46777661 53.6239037,9.49522047 C53.7678763,9.52266434 53.9152747,9.55696865 54.0661031,9.59813444 L54.0661031,11.9857385 C53.860428,11.9308508 53.6581838,11.8862552 53.4593644,11.8519504 C53.2605451,11.8176455 53.0651567,11.8004934 52.8731932,11.8004934 C52.2973028,11.8004934 51.8345406,11.9068367 51.4848929,12.1195267 C51.1352451,12.3322166 50.8678714,12.5757772 50.6827638,12.8502158 C50.4976562,13.1246545 50.3742529,13.399089 50.3125504,13.6735276 C50.2508479,13.9479662 50.219997,14.1537921 50.219997,14.2910114 L50.219997,19.5807894 L47.7519076,19.5807894 L47.7519076,9.70104841 Z M55.7526309,9.70104841 L58.2207203,9.70104841 L58.2207203,11.2653407 L58.2618552,11.2653407 C58.5360887,10.6890196 58.9268656,10.2430636 59.4341977,9.92745914 C59.9415297,9.61185473 60.5242672,9.45405489 61.1824277,9.45405489 C61.3332561,9.45405489 61.4806544,9.46777661 61.6246271,9.49522047 C61.7685997,9.52266434 61.915998,9.55696865 62.0668264,9.59813444 L62.0668264,11.9857385 C61.8611513,11.9308508 61.6589071,11.8862552 61.4600878,11.8519504 C61.2612684,11.8176455 61.06588,11.8004934 60.8739165,11.8004934 C60.2980261,11.8004934 59.8352639,11.9068367 59.4856162,12.1195267 C59.1359684,12.3322166 58.8685948,12.5757772 58.6834871,12.8502158 C58.4983795,13.1246545 58.3749762,13.399089 58.3132737,13.6735276 C58.2515712,13.9479662 58.2207203,14.1537921 58.2207203,14.2910114 L58.2207203,19.5807894 L55.7526309,19.5807894 L55.7526309,9.70104841 Z M62.8895229,14.6409189 C62.8895229,13.8587688 63.0300655,13.1486695 63.3111548,12.5105998 C63.5922442,11.87253 63.9727375,11.3270914 64.4526462,10.8742677 C64.9325549,10.4214439 65.5015809,10.0715399 66.1597414,9.82454517 C66.8179019,9.57755041 67.5171869,9.45405489 68.2576175,9.45405489 C68.998048,9.45405489 69.697333,9.57755041 70.3554935,9.82454517 C71.013654,10.0715399 71.58268,10.4214439 72.0625887,10.8742677 C72.5424974,11.3270914 72.9229907,11.87253 73.2040801,12.5105998 C73.4851694,13.1486695 73.625712,13.8587688 73.625712,14.6409189 C73.625712,15.423069 73.4851694,16.1331683 73.2040801,16.7712381 C72.9229907,17.4093078 72.5424974,17.9547464 72.0625887,18.4075702 C71.58268,18.8603939 71.013654,19.2102979 70.3554935,19.4572926 C69.697333,19.7042874 68.998048,19.8277829 68.2576175,19.8277829 C67.5171869,19.8277829 66.8179019,19.7042874 66.1597414,19.4572926 C65.5015809,19.2102979 64.9325549,18.8603939 64.4526462,18.4075702 C63.9727375,17.9547464 63.5922442,17.4093078 63.3111548,16.7712381 C63.0300655,16.1331683 62.8895229,15.423069 62.8895229,14.6409189 Z M65.3576123,14.6409189 C65.3576123,15.025133 65.4227418,15.3956196 65.5530028,15.7523898 C65.6832637,16.10916 65.8752243,16.4247597 66.1288903,16.6991983 C66.3825563,16.9736369 66.6876365,17.1931845 67.0441401,17.3578477 C67.4006437,17.5225108 67.8051321,17.6048412 68.2576175,17.6048412 C68.7101028,17.6048412 69.1145912,17.5225108 69.4710948,17.3578477 C69.8275984,17.1931845 70.1326786,16.9736369 70.3863446,16.6991983 C70.6400106,16.4247597 70.8319712,16.10916 70.9622321,15.7523898 C71.0924931,15.3956196 71.1576226,15.025133 71.1576226,14.6409189 C71.1576226,14.2567048 71.0924931,13.8862183 70.9622321,13.529448 C70.8319712,13.1726778 70.6400106,12.8570782 70.3863446,12.5826395 C70.1326786,12.3082009 69.8275984,12.0886533 69.4710948,11.9239901 C69.1145912,11.759327 68.7101028,11.6769966 68.2576175,11.6769966 C67.8051321,11.6769966 67.4006437,11.759327 67.0441401,11.9239901 C66.6876365,12.0886533 66.3825563,12.3082009 66.1288903,12.5826395 C65.8752243,12.8570782 65.6832637,13.1726778 65.5530028,13.529448 C65.4227418,13.8862183 65.3576123,14.2567048 65.3576123,14.6409189 Z M74.7774871,11.8004934 L74.7774871,9.70104841 L76.8136609,9.70104841 L76.8136609,6.84004009 L79.2817503,6.84004009 L79.2817503,9.70104841 L81.9966487,9.70104841 L81.9966487,11.8004934 L79.2817503,11.8004934 L79.2817503,16.12288 C79.2817503,16.6168696 79.3743028,17.0079387 79.5594104,17.2960993 C79.744518,17.5842598 80.1112999,17.728338 80.6597669,17.728338 C80.8791538,17.728338 81.1191045,17.7043249 81.3796264,17.6562982 C81.6401482,17.6082714 81.8458203,17.5293715 81.9966487,17.4195961 L81.9966487,19.4984582 C81.7361269,19.6219556 81.4173352,19.7077164 81.0402641,19.7557431 C80.663193,19.8037699 80.3306898,19.8277829 80.0427446,19.8277829 C79.3845841,19.8277829 78.8464089,19.7557439 78.4282027,19.6116636 C78.0099966,19.4675833 77.6809213,19.2480357 77.440967,18.9530142 C77.2010126,18.6579927 77.036475,18.2909365 76.9473491,17.8518347 C76.8582232,17.4127329 76.8136609,16.9050291 76.8136609,16.328708 L76.8136609,11.8004934 L74.7774871,11.8004934 Z" id="Carrot" fill="#FFFFFF"></path>
            </g>
        </g>
    </g>
</svg>