<?xml version="1.0" encoding="UTF-8"?>
<svg width="111px" height="114px" viewBox="0 0 111 114" version="1.1" xmlns="http://www.w3.org/2000/svg" xmlns:xlink="http://www.w3.org/1999/xlink">
    <!-- Generator: Sketch 44.1 (41455) - http://www.bohemiancoding.com/sketch -->
    <title>Group 11</title>
    <desc>Created with Sketch.</desc>
    <defs>
        <path d="M0.393785714,53.3121296 C-1.57891837,38.115701 4.10435714,24.4657214 14.7543163,14.9129255 C25.1943571,5.33332347 40.6018367,-0.149094898 53.2346939,0.377588776 C66.4459592,0.904272449 75.0507245,7.25430306 83.9099592,16.8052112 C92.3984388,26.3829255 101.141765,39.1615173 106.075602,53.1569561 C111.008684,67.1610786 107.932776,79.8618949 97.2994286,89.4452724 C87.0368367,98.9942929 69.2168061,105.425874 53.2346939,106.091874 C36.674551,106.757874 25.6568571,101.35663 16.975449,91.7751398 C8.50320408,82.2283847 2.3672449,68.5006296 0.393785714,53.3121296" id="path-1"></path>
    </defs>
    <g id="Desktop" stroke="none" stroke-width="1" fill="none" fill-rule="evenodd">
        <g id="Group-12" transform="translate(-21.000000, -147.000000)">
            <g id="Group-11" transform="translate(21.000000, 147.000000)">
                <g id="Mask" transform="translate(2.265306, 7.173469)">
                    <mask id="mask-2" fill="white">
                        <use xlink:href="#path-1"></use>
                    </mask>
                    <use id="Blob" fill="#FFFFFF" xlink:href="#path-1"></use>
                    <path d="M33.3535179,76.0001709 C36.7763954,74.801824 38.179375,73.3988444 39.3777219,69.9759668 C39.6144464,69.3005281 40.5670077,69.3005281 40.8033546,69.9759668 C42.0020791,73.3988444 43.4050587,74.801824 46.8275587,76.0001709 C47.5029974,76.2365179 47.5029974,77.1894566 46.8275587,77.4258036 C43.4050587,78.6245281 42.0020791,80.0275077 40.8033546,83.4500077 C40.5670077,84.1254464 39.6144464,84.1254464 39.3777219,83.4500077 C38.179375,80.0275077 36.7763954,78.6245281 33.3535179,77.4258036 C32.6780791,77.1894566 32.6780791,76.2365179 33.3535179,76.0001709" id="Fill-12" fill="#FFD24A" mask="url(#mask-2)"></path>
                    <path d="M78.2118837,67.6238429 C81.6347612,66.4254959 83.0377408,65.0225163 84.2360878,61.5996388 C84.4728122,60.9242 85.4253735,60.9242 85.6617204,61.5996388 C86.8604449,65.0225163 88.2634245,66.4254959 91.6859245,67.6238429 C92.3613633,67.8601898 92.3613633,68.8131286 91.6859245,69.0494755 C88.2634245,70.2482 86.8604449,71.6511796 85.6617204,75.0736796 C85.4253735,75.7491184 84.4728122,75.7491184 84.2360878,75.0736796 C83.0377408,71.6511796 81.6347612,70.2482 78.2118837,69.0494755 C77.5364449,68.8131286 77.5364449,67.8601898 78.2118837,67.6238429" id="Fill-10" fill="#FFD24A" mask="url(#mask-2)"></path>
                    <g id="Box" mask="url(#mask-2)">
                        <g transform="translate(13.969388, 73.244898)">
                            <polygon id="Fill-2" fill="#7394FF" points="4.53061224 36.244898 52.8571429 36.244898 52.8571429 12.0816327 4.53061224 12.0816327"></polygon>
                            <polygon id="Fill-3" fill="#34414F" points="52.8571429 36.244898 77.0204082 36.244898 77.0204082 12.0816327 52.8571429 12.0816327"></polygon>
                            <path d="M3.37692959,0 L43.0828378,0 C45.3711745,0 47.4628071,1.29273469 48.4859704,3.33943878 L52.8572561,12.0816327 L4.53072551,12.0816327 L0.675552041,4.37128571 C-0.328733673,2.36271429 1.13163367,0 3.37692959,0" id="Fill-2" fill="#34414F"></path>
                            <path d="M62.631448,0 L78.1740908,0 C80.4193867,0 81.8797541,2.36271429 80.8754684,4.37128571 L77.0202949,12.0816327 L52.8570296,12.0816327 L57.2283153,3.33943878 C58.2514786,1.29273469 60.3431112,0 62.631448,0" id="Fill-4" fill="#7394FF"></path>
                        </g>
                    </g>
                </g>
                <g id="Sparkles" fill="#FFD24A">
                    <path d="M25.746299,29.5245653 C26.6584622,29.0907592 27.2028908,28.5459531 27.6366969,27.6341673 C27.9085337,27.0629327 28.7244214,27.0629327 28.9958806,27.6341673 C29.4296867,28.5459531 29.9744929,29.0907592 30.8862786,29.5245653 C31.4571357,29.7960245 31.4571357,30.6119122 30.8862786,30.883749 C29.9744929,31.3175551 29.4296867,31.8619837 28.9958806,32.7741469 C28.7244214,33.3450041 27.9085337,33.3450041 27.6366969,32.7741469 C27.2028908,31.8619837 26.6584622,31.3175551 25.746299,30.883749 C25.1754418,30.6119122 25.1754418,29.7960245 25.746299,29.5245653" id="Fill-2"></path>
                    <path d="M46.8891561,2.34089184 C47.8013194,1.90708571 48.345748,1.36227959 48.7795541,0.450493878 C49.0513908,-0.120740816 49.8672786,-0.120740816 50.1387378,0.450493878 C50.5725439,1.36227959 51.11735,1.90708571 52.0291357,2.34089184 C52.5999929,2.61235102 52.5999929,3.42823878 52.0291357,3.70007551 C51.11735,4.13388163 50.5725439,4.6783102 50.1387378,5.59047347 C49.8672786,6.16133061 49.0513908,6.16133061 48.7795541,5.59047347 C48.345748,4.6783102 47.8013194,4.13388163 46.8891561,3.70007551 C46.318299,3.42823878 46.318299,2.61235102 46.8891561,2.34089184" id="Fill-4"></path>
                    <path d="M33.6526327,60.8392321 C34.5647959,60.405426 35.1092245,59.8606199 35.5430306,58.9488342 C35.8148673,58.3775995 36.6307551,58.3775995 36.9022143,58.9488342 C37.3360204,59.8606199 37.8808265,60.405426 38.7926122,60.8392321 C39.3634694,61.1106913 39.3634694,61.9265791 38.7926122,62.1984158 C37.8808265,62.6322219 37.3360204,63.1766505 36.9022143,64.0888138 C36.6307551,64.6596709 35.8148673,64.6596709 35.5430306,64.0888138 C35.1092245,63.1766505 34.5647959,62.6322219 33.6526327,62.1984158 C33.0817755,61.9265791 33.0817755,61.1106913 33.6526327,60.8392321" id="Fill-6"></path>
                    <path d="M92.1952786,56.7082388 C93.1074418,56.2744327 93.6518704,55.7296265 94.0856765,54.8178408 C94.3575133,54.2466061 95.173401,54.2466061 95.4448602,54.8178408 C95.8786663,55.7296265 96.4234724,56.2744327 97.3352582,56.7082388 C97.9061153,56.979698 97.9061153,57.7955857 97.3352582,58.0674224 C96.4234724,58.5012286 95.8786663,59.0456571 95.4448602,59.9578204 C95.173401,60.5286776 94.3575133,60.5286776 94.0856765,59.9578204 C93.6518704,59.0456571 93.1074418,58.5012286 92.1952786,58.0674224 C91.6244214,57.7955857 91.6244214,56.979698 92.1952786,56.7082388" id="Fill-8"></path>
                    <path d="M0.506579082,56.7450689 C3.92945663,55.5467219 5.33243622,54.1437423 6.53078316,50.7208648 C6.76750765,50.045426 7.72006888,50.045426 7.95641582,50.7208648 C9.15514031,54.1437423 10.5581199,55.5467219 13.9806199,56.7450689 C14.6560587,56.9814158 14.6560587,57.9343546 13.9806199,58.1707015 C10.5581199,59.369426 9.15514031,60.7724056 7.95641582,64.1949056 C7.72006888,64.8703444 6.76750765,64.8703444 6.53078316,64.1949056 C5.33243622,60.7724056 3.92945663,59.369426 0.506579082,58.1707015 C-0.168859694,57.9343546 -0.168859694,56.9814158 0.506579082,56.7450689" id="Fill-12"></path>
                    <path d="M73.373926,16.7246607 C76.7968036,15.5263138 78.1997832,14.1233342 79.3981301,10.7004566 C79.6348546,10.0250179 80.5874158,10.0250179 80.8237628,10.7004566 C82.0224872,14.1233342 83.4254668,15.5263138 86.8479668,16.7246607 C87.5234056,16.9610077 87.5234056,17.9139464 86.8479668,18.1502934 C83.4254668,19.3490179 82.0224872,20.7519974 80.8237628,24.1744974 C80.5874158,24.8499362 79.6348546,24.8499362 79.3981301,24.1744974 C78.1997832,20.7519974 76.7968036,19.3490179 73.373926,18.1502934 C72.6984872,17.9139464 72.6984872,16.9610077 73.373926,16.7246607" id="Fill-14"></path>
                </g>
                <g id="Carrot" transform="translate(42.663265, 24.163265)">
                    <path d="M9.40921836,0.274456562 C8.67525374,-0.0571753045 7.86166833,-0.0893818608 7.11790909,0.183895553 C6.31601403,0.478218835 5.66767335,1.11182703 5.33844772,1.92273072 L5.08347163,2.55155576 L4.48694765,2.2349111 C3.71885984,1.82770543 2.81838667,1.76297344 2.01680757,2.0576156 C1.27304833,2.33089301 0.669889283,2.8835065 0.318862724,3.61405324 C-0.438166649,5.19185562 0.199115591,7.14083059 1.74003055,7.95843069 C1.74413798,7.96066283 1.74856135,7.96289497 1.75298473,7.96512711 L7.75645515,10.9035768 C7.86925126,10.9587425 7.9924739,10.9619312 8.09989877,10.9223905 C8.2076396,10.8831687 8.29958265,10.8005796 8.35108339,10.6851462 L11.0812549,4.53847707 C11.0834665,4.53401279 11.0853623,4.52922964 11.087258,4.52476536 C11.747289,2.89945034 10.994683,0.993204859 9.40921836,0.274456562" id="Fill-2" fill="#52DE96"></path>
                    <path d="M24.8429264,15.7980076 C22.9218947,11.9342309 18.704354,9.83875914 13.6745628,10.8058259 C13.6745628,10.8058259 11.5491046,11.0508804 9.47659828,11.8049679 C7.40377104,12.5587348 5.61816789,13.7365355 5.61816789,13.7365355 C-0.727398432,17.2279193 -1.86217426,24.4352132 3.05657833,29.7596938 L15.5420008,43.2758557 C20.4559396,48.595525 24.7264322,47.0488596 25.0698174,39.8098113 L25.6734694,27.0875102 L19.2168645,29.4392627 C19.2168645,29.4392627 24.0367735,24.5275897 25.0184701,21.0474323 C25.7068451,18.607473 25.2046041,16.7127919 24.8429264,15.7980076" id="Fill-4" fill="#FA6452"></path>
                </g>
            </g>
        </g>
    </g>
</svg>