<?xml version="1.0" encoding="UTF-8"?>
<svg width="62px" height="24px" viewBox="0 0 62 24" version="1.1" xmlns="http://www.w3.org/2000/svg" xmlns:xlink="http://www.w3.org/1999/xlink">
    <!-- Generator: Sketch 50 (54983) - http://www.bohemiancoding.com/sketch -->
    <title>Group 13</title>
    <desc>Created with Sketch.</desc>
    <defs></defs>
    <g id="Share-/-Full-page-post" stroke="none" stroke-width="1" fill="none" fill-rule="evenodd">
        <g id="Post:-Full-screen-(public-view)" transform="translate(-295.000000, -12.000000)">
            <g id="Group-12">
                <g id="Group" transform="translate(295.000000, 12.000000)">
                    <g id="Group-13">
                        <g id="Carrot">
                            <path d="M4.86277336,0.141841757 C4.48345348,-0.0295487401 4.06298482,-0.0461933941 3.67860298,0.0950389672 C3.26417601,0.247148033 2.92910739,0.574602761 2.75896046,0.993685486 L2.62718639,1.31866824 L2.31889714,1.15502327 C1.92194207,0.944575516 1.45656898,0.91112141 1.0423053,1.06339527 C0.65792346,1.20462764 0.34620514,1.49022353 0.164791283,1.86777702 C-0.226448683,2.68320027 0.102904827,3.69044903 0.899264308,4.11299253 C0.901387062,4.11414612 0.903673105,4.11529971 0.905959148,4.1164533 L4.00860965,5.63507198 C4.06690375,5.66358213 4.13058638,5.66523011 4.18610457,5.64479509 C4.24178605,5.62452487 4.2893031,5.58184205 4.31591917,5.52218497 L5.7268977,2.34552803 C5.72804072,2.34322085 5.72902045,2.34074887 5.73000018,2.33844169 C6.07111049,1.49846346 5.68215656,0.513297699 4.86277336,0.141841757" id="Fill-2" fill="#52DE96"></path>
                            <path d="M12.8390602,8.1645603 C11.8462528,6.16772383 9.6665877,5.08476412 7.06714388,5.58455342 C7.06714388,5.58455342 5.96868688,5.71119987 4.89759595,6.10091949 C3.82633915,6.49047334 2.9035225,7.09917195 2.9035225,7.09917195 C-0.375926414,8.90355224 -0.962389336,12.6283501 1.5796687,15.3800922 L8.03225353,22.365373 C10.5718237,25.1146286 12.7788549,24.3152972 12.9563196,20.5740883 L13.2682927,13.9990824 L9.93145798,15.2144904 C9.93145798,15.2144904 12.4224327,12.6760912 12.9297828,10.8775128 C13.2855416,9.61651868 13.0259787,8.63732948 12.8390602,8.1645603" id="Fill-4" fill="#FA6452"></path>
                        </g>
                        <text id="Carrot" font-family="Avenir-Heavy, Avenir" font-size="14" font-weight="600" fill="#FFFFFF">
                            <tspan x="20" y="17">Carrot</tspan>
                        </text>
                    </g>
                </g>
            </g>
        </g>
    </g>
</svg>