<?xml version="1.0" encoding="UTF-8"?>
<svg width="23px" height="41px" viewBox="0 0 23 41" version="1.1" xmlns="http://www.w3.org/2000/svg" xmlns:xlink="http://www.w3.org/1999/xlink">
    <!-- Generator: Sketch 44.1 (41455) - http://www.bohemiancoding.com/sketch -->
    <title>Group 3</title>
    <desc>Created with Sketch.</desc>
    <defs></defs>
    <g id="Symbols" stroke="none" stroke-width="1" fill="none" fill-rule="evenodd">
        <g id="Carrot-with-wordmark---White-on-orange" fill="#627183">
            <g id="Carrot-with-wordmark">
                <g id="Carrot" transform="translate(0.133345, 0.297101)">
                    <g id="Group-3">
                        <path d="M8.12171145,0.237524207 C7.4881786,-0.0494814871 6.78591985,-0.0773541554 6.14393263,0.159149575 C5.45176459,0.413867128 4.89213937,0.962213583 4.6079632,1.6639977 L4.38787668,2.20820465 L3.87297783,1.9341694 C3.20999103,1.58175953 2.43273377,1.52573822 1.74083845,1.78073174 C1.09885123,2.01723547 0.578225231,2.49548631 0.275231261,3.12772673 C-0.378210278,4.49321152 0.171869682,6.1799219 1.50193412,6.88750132 C1.5054795,6.88943309 1.50929761,6.89136486 1.51311571,6.89329663 L6.69510348,9.43633265 C6.79246518,9.48407495 6.8988267,9.48683462 6.99155212,9.45261471 C7.08455027,9.41867077 7.16391233,9.34719531 7.20836599,9.24729525 L9.56495545,3.92775511 C9.5668645,3.92389157 9.56850083,3.91975206 9.57013716,3.91588852 C10.1398531,2.50928466 9.49022966,0.859553854 8.12171145,0.237524207" id="Fill-2"></path>
                        <path d="M21.4435538,13.6721425 C19.7853858,10.3282964 16.1449507,8.51480263 11.8034091,9.3517357 C11.8034091,9.3517357 9.96878714,9.56381427 8.17987146,10.2164278 C6.39067877,10.8687637 4.84940797,11.8880732 4.84940797,11.8880732 C-0.627865137,14.9096375 -1.60736434,21.1470791 2.63833257,25.7550688 L13.4153169,37.452423 C17.6568586,42.0562489 21.343,40.7177112 21.6393982,34.4527883 L22.1604497,23.4424687 L16.5873319,25.4777567 C16.5873319,25.4777567 20.7477105,21.2270249 21.595077,18.2151762 C22.1892585,16.103551 21.7557415,14.4638284 21.4435538,13.6721425" id="Fill-4"></path>
                    </g>
                </g>
            </g>
        </g>
    </g>
</svg>