<?xml version="1.0" encoding="UTF-8"?>
<svg width="66px" height="119px" viewBox="0 0 66 119" version="1.1" xmlns="http://www.w3.org/2000/svg" xmlns:xlink="http://www.w3.org/1999/xlink">
    <!-- Generator: Sketch 44.1 (41455) - http://www.bohemiancoding.com/sketch -->
    <title>Group 3</title>
    <desc>Created with Sketch.</desc>
    <defs></defs>
    <g id="Symbols" stroke="none" stroke-width="1" fill="none" fill-rule="evenodd">
        <g id="Carrot-with-wordmark">
            <g id="Carrot" transform="translate(0.391304, 0.869565)">
                <g id="Group-3">
                    <path d="M23.8333556,0.6951928 C21.9742384,-0.144823865 19.9134434,-0.226402406 18.0295166,0.465803634 C15.998333,1.21131842 14.3560994,2.81623488 13.5221777,4.87023716 L12.8763286,6.46303799 L11.3653457,5.66098362 C9.4197951,4.62954008 7.13891518,4.46557529 5.10853189,5.21189779 C3.2246051,5.90410383 1.69681571,7.30386236 0.80767269,9.15432215 C-1.10986707,13.150863 0.504355675,18.0875763 4.40746143,20.1585405 C4.41786544,20.1641944 4.42906976,20.1698484 4.44027409,20.1755023 L19.6469406,27.6185346 C19.9326508,27.7582681 20.2447712,27.7663452 20.5168762,27.6661894 C20.7897815,27.5668413 21.0226713,27.3576448 21.1531216,27.0652544 L28.0685895,11.4958686 C28.0741917,11.4845607 28.0789935,11.4724451 28.0837954,11.4611371 C29.7556403,7.34424778 27.8493049,2.51576738 23.8333556,0.6951928" id="Fill-2" fill="#69E993"></path>
                    <path d="M34.637385,27.3709338 C34.637385,27.3709338 29.2536432,27.9916515 24.0040276,29.9017398 C18.753599,31.8110156 14.2307032,34.7943606 14.2307032,34.7943606 C-1.84248519,43.6379636 -4.71684892,61.89389 7.74224974,75.3806893 L39.3675667,109.616848 C51.8144721,123.09146 62.6315417,119.173789 63.5013294,100.837429 L65.0303673,68.6121034 L48.6759205,74.5690439 C48.6759205,74.5690439 60.8846504,62.1278778 63.3712676,53.3127109 C65.1149074,47.1323445 63.8427413,42.3331564 62.9266192,40.0160267 C58.0606856,30.2291603 47.3777421,24.9213735 34.637385,27.3709338 Z" id="Fill-4" fill="#FA6452"></path>
                </g>
            </g>
        </g>
    </g>
</svg>