<?xml version="1.0" encoding="UTF-8"?>
<svg width="10px" height="10px" viewBox="0 0 10 10" version="1.1" xmlns="http://www.w3.org/2000/svg" xmlns:xlink="http://www.w3.org/1999/xlink">
    <!-- Generator: Sketch 49 (51002) - http://www.bohemiancoding.com/sketch -->
    <title>Combined Shape Copy 5</title>
    <desc>Created with Sketch.</desc>
    <defs></defs>
    <g id="➡️-Boards-&amp;-Posts" stroke="none" stroke-width="1" fill="none" fill-rule="evenodd">
        <g id="New-Post-Template" transform="translate(-602.000000, -2101.000000)" fill="#6187F8">
            <g id="Group-21" transform="translate(279.000000, 1650.000000)">
                <g id="Group-19" transform="translate(40.000000, 401.000000)">
                    <g id="Group-17" transform="translate(0.000000, 30.000000)">
                        <path d="M288,23.3090089 L290.96134,20.3476686 C291.426732,19.8822766 292.180965,19.8847088 292.647662,20.3514057 C293.117613,20.8213563 293.116032,21.5730946 292.651399,22.0377275 L289.690059,24.9990679 L292.651399,27.9604082 C293.116032,28.4250411 293.117613,29.1767794 292.647662,29.64673 C292.180965,30.1134269 291.426732,30.1158591 290.96134,29.6504671 L288,26.6891268 L285.03866,29.6504671 C284.573268,30.1158591 283.819035,30.1134269 283.352338,29.64673 C282.882387,29.1767794 282.883968,28.4250411 283.348601,27.9604082 L286.309941,24.9990679 L283.348601,22.0377275 C282.883968,21.5730946 282.882387,20.8213563 283.352338,20.3514057 C283.819035,19.8847088 284.573268,19.8822766 285.03866,20.3476686 L288,23.3090089 Z" id="Combined-Shape-Copy-5"></path>
                    </g>
                </g>
            </g>
        </g>
    </g>
</svg>