<?xml version="1.0" encoding="UTF-8"?>
<svg width="6px" height="6px" viewBox="0 0 6 6" version="1.1" xmlns="http://www.w3.org/2000/svg" xmlns:xlink="http://www.w3.org/1999/xlink">
    <!-- Generator: Sketch 50 (54983) - http://www.bohemiancoding.com/sketch -->
    <title>Combined Shape</title>
    <desc>Created with Sketch.</desc>
    <defs></defs>
    <g id="Updated-stream/grid/navigation" stroke="none" stroke-width="1" fill="none" fill-rule="evenodd">
        <g id="Post-modal:-New-post-going-up" transform="translate(-671.000000, -847.000000)" fill="#6187F8" fill-rule="nonzero">
            <g id="Group-10" transform="translate(524.000000, 837.000000)">
                <path d="M152.89016,10.6401697 C153.03661,10.4937256 153.036614,10.2562887 152.89017,10.1098396 C152.743726,9.96339042 152.506289,9.96338628 152.35984,10.1098303 L150,12.4695876 L147.64016,10.1098303 C147.493711,9.96338628 147.256274,9.96339042 147.10983,10.1098396 C146.963386,10.2562887 146.96339,10.4937256 147.10984,10.6401697 L149.469661,12.9999084 L147.10984,15.3596472 C146.96339,15.5060913 146.963386,15.7435281 147.10983,15.8899773 C147.256274,16.0364265 147.493711,16.0364306 147.64016,15.8899866 L150,13.5302293 L152.35984,15.8899866 C152.506289,16.0364306 152.743726,16.0364265 152.89017,15.8899773 C153.036614,15.7435281 153.03661,15.5060913 152.89016,15.3596472 L150.530339,12.9999084 L152.89016,10.6401697 Z" id="Combined-Shape"></path>
            </g>
        </g>
    </g>
</svg>