<?xml version="1.0" encoding="UTF-8"?>
<svg width="12px" height="12px" viewBox="0 0 12 12" version="1.1" xmlns="http://www.w3.org/2000/svg" xmlns:xlink="http://www.w3.org/1999/xlink">
    <!-- Generator: Sketch 50.2 (55047) - http://www.bohemiancoding.com/sketch -->
    <title>Combined Shape</title>
    <desc>Created with Sketch.</desc>
    <defs></defs>
    <g id="➡️-Boards-&amp;-Posts" stroke="none" stroke-width="1" fill="none" fill-rule="evenodd" opacity="0.5">
        <g id="System-Notifications-Guide" transform="translate(-731.000000, -287.000000)" fill="#FFFFFF" fill-rule="nonzero">
            <g id="Group-3" transform="translate(470.000000, 271.000000)">
                <g id="Group-2">
                    <path d="M272.780321,17.2803393 C273.073219,16.9874512 273.073227,16.5125775 272.780339,16.2196792 C272.487451,15.9267808 272.012577,15.9267726 271.719679,16.2196607 L267,20.9391752 L262.280321,16.2196607 C261.987423,15.9267726 261.512549,15.9267808 261.219661,16.2196792 C260.926773,16.5125775 260.926781,16.9874512 261.219679,17.2803393 L265.939321,21.9998169 L261.219679,26.7192945 C260.926781,27.0121826 260.926773,27.4870563 261.219661,27.7799546 C261.512549,28.072853 261.987423,28.0728612 262.280321,27.7799731 L267,23.0604586 L271.719679,27.7799731 C272.012577,28.0728612 272.487451,28.072853 272.780339,27.7799546 C273.073227,27.4870563 273.073219,27.0121826 272.780321,26.7192945 L268.060679,21.9998169 L272.780321,17.2803393 Z" id="Combined-Shape"></path>
                </g>
            </g>
        </g>
    </g>
</svg>