<?xml version="1.0" encoding="UTF-8"?>
<svg width="12px" height="12px" viewBox="0 0 12 12" version="1.1" xmlns="http://www.w3.org/2000/svg" xmlns:xlink="http://www.w3.org/1999/xlink">
    <!-- Generator: Sketch 51 (57462) - http://www.bohemiancoding.com/sketch -->
    <title>Combined Shape</title>
    <desc>Created with Sketch.</desc>
    <defs></defs>
    <g id="Who-saw-this" stroke="none" stroke-width="1" fill="none" fill-rule="evenodd">
        <g id="Who-saw-this---modal-states-(July2)" transform="translate(-402.000000, -279.000000)">
            <rect fill="#FBFAF7" x="0" y="0" width="1726" height="1300"></rect>
            <g id="Group-9" transform="translate(78.000000, 122.000000)" fill="#C4C6C7" fill-rule="nonzero" opacity="0.800000012">
                <g id="Group-18">
                    <g id="Group-13" transform="translate(0.000000, 138.000000)">
                        <path d="M335.780321,20.2803393 C336.073219,19.9874512 336.073227,19.5125775 335.780339,19.2196792 C335.487451,18.9267808 335.012577,18.9267726 334.719679,19.2196607 L330,23.9391752 L325.280321,19.2196607 C324.987423,18.9267726 324.512549,18.9267808 324.219661,19.2196792 C323.926773,19.5125775 323.926781,19.9874512 324.219679,20.2803393 L328.939321,24.9998169 L324.219679,29.7192945 C323.926781,30.0121826 323.926773,30.4870563 324.219661,30.7799546 C324.512549,31.072853 324.987423,31.0728612 325.280321,30.7799731 L330,26.0604586 L334.719679,30.7799731 C335.012577,31.0728612 335.487451,31.072853 335.780339,30.7799546 C336.073227,30.4870563 336.073219,30.0121826 335.780321,29.7192945 L331.060679,24.9998169 L335.780321,20.2803393 Z" id="Combined-Shape"></path>
                    </g>
                </g>
            </g>
        </g>
    </g>
</svg>