<svg width="14" height="16" viewBox="0 0 14 16" fill="none" xmlns="http://www.w3.org/2000/svg">
<path fill-rule="evenodd" clip-rule="evenodd" d="M11.7728 5H2.22736C2.05163 5 1.90918 5.14924 1.90918 5.33333V14.6667C1.90918 15.403 2.479 16 3.18191 16H10.8183C11.5212 16 12.091 15.403 12.091 14.6667V5.33333C12.091 5.14924 11.9485 5 11.7728 5ZM5.88644 13.6667C5.88644 13.9428 5.67276 14.1667 5.40917 14.1667C5.14558 14.1667 4.9319 13.9428 4.9319 13.6667V7.66667C4.9319 7.39053 5.14558 7.16667 5.40917 7.16667C5.67276 7.16667 5.88644 7.39053 5.88644 7.66667V13.6667ZM8.59091 14.1667C8.8545 14.1667 9.06818 13.9428 9.06818 13.6667V7.66667C9.06818 7.39053 8.8545 7.16667 8.59091 7.16667C8.32732 7.16667 8.11364 7.39053 8.11364 7.66667V13.6667C8.11364 13.9428 8.32732 14.1667 8.59091 14.1667Z" fill="#FFFFFF"/>
<path fill-rule="evenodd" clip-rule="evenodd" d="M10.3409 2.66667H13.3636C13.7151 2.66667 14 2.96514 14 3.33333C14 3.70152 13.7151 4 13.3636 4H0.636364C0.28491 4 0 3.70152 0 3.33333C0 2.96514 0.28491 2.66667 0.636364 2.66667H3.65909C3.70128 2.66667 3.74175 2.64911 3.77159 2.61785C3.80142 2.5866 3.81818 2.5442 3.81818 2.5V1.66667C3.81818 0.746192 4.53046 0 5.40909 0H8.59091C9.46954 0 10.1818 0.746192 10.1818 1.66667V2.5C10.1818 2.59205 10.253 2.66667 10.3409 2.66667ZM5.09083 1.66666V2.49999C5.09083 2.59204 5.16206 2.66666 5.24992 2.66666H8.74992C8.83779 2.66666 8.90901 2.59204 8.90901 2.49999V1.66666C8.90901 1.48257 8.76656 1.33333 8.59083 1.33333H5.40901C5.23329 1.33333 5.09083 1.48257 5.09083 1.66666Z" fill="#FFFFFF"/>
</svg>
