<?xml version="1.0" encoding="UTF-8"?>
<svg width="12px" height="12px" viewBox="0 0 12 12" version="1.1" xmlns="http://www.w3.org/2000/svg" xmlns:xlink="http://www.w3.org/1999/xlink">
    <!-- Generator: Sketch 52.6 (67491) - http://www.bohemiancoding.com/sketch -->
    <title>Combined Shape</title>
    <desc>Created with Sketch.</desc>
    <g id="Post-authoring" stroke="none" stroke-width="1" fill="none" fill-rule="evenodd">
        <g id="Full-screen-post-(start)" transform="translate(-66.000000, -22.000000)" fill="#34414F" fill-rule="nonzero">
            <g id="Group-5" transform="translate(16.000000, 12.000000)">
                <g id="Group-2" transform="translate(40.000000, 0.000000)">
                    <path d="M13.4393398,17.5 L10.75,17.5 C10.3357864,17.5 10,17.1642136 10,16.75 C10,16.3357864 10.3357864,16 10.75,16 L15.25,16 C15.6642136,16 16,16.3357864 16,16.75 L16,21.25 C16,21.6642136 15.6642136,22 15.25,22 C14.8357864,22 14.5,21.6642136 14.5,21.25 L14.5,18.5606602 L11.5606602,21.5 L10.5,20.4393398 L13.4393398,17.5 Z M18.5606602,14.5 L21.25,14.5 C21.6642136,14.5 22,14.8357864 22,15.25 C22,15.6642136 21.6642136,16 21.25,16 L16.75,16 C16.3357864,16 16,15.6642136 16,15.25 L16,10.75 C16,10.3357864 16.3357864,10 16.75,10 C17.1642136,10 17.5,10.3357864 17.5,10.75 L17.5,13.4393398 L20.4393398,10.5 L21.5,11.5606602 L18.5606602,14.5 Z" id="Combined-Shape"></path>
                </g>
            </g>
        </g>
    </g>
</svg>