<?xml version="1.0" encoding="UTF-8"?>
<svg width="14px" height="16px" viewBox="0 0 14 16" version="1.1" xmlns="http://www.w3.org/2000/svg" xmlns:xlink="http://www.w3.org/1999/xlink">
    <!-- Generator: Sketch 51.2 (57519) - http://www.bohemiancoding.com/sketch -->
    <title>Combined Shape</title>
    <desc>Created with Sketch.</desc>
    <defs></defs>
    <g id="Post-creation" stroke="none" stroke-width="1" fill="none" fill-rule="evenodd">
        <g id="Create-(bottom-new)" transform="translate(-1026.000000, -640.000000)" fill="#34414F" fill-rule="nonzero">
            <g id="Group-13" transform="translate(1009.000000, 640.000000)">
                <path d="M19.625,14.3160948 C19.625,14.3169435 28.376383,14.3157895 28.376383,14.3157895 C28.3746891,14.3157895 28.3748614,6.06567192 28.374963,3.36842105 L19.625,3.36842105 L19.625,14.3160948 Z M30.125,14.3160948 C30.125,15.24609 29.3400724,16 28.376383,16 L19.623617,16 C18.6578825,16 17.875,15.2476654 17.875,14.3160948 L17.875,3.36842074 C17.3916802,3.36802804 17,2.99439396 17,2.52631579 C17,2.06123389 17.389052,1.68421053 17.8757627,1.68421053 L22.25,1.68421053 C22.25,0.754046737 23.0335017,0 24,0 C24.9664983,0 25.75,0.754046737 25.75,1.68421053 L30.1242373,1.68421053 C30.6079077,1.68421053 31,2.05799143 31,2.52631579 C31,2.99115472 30.6113544,3.36802711 30.125,3.36842074 L30.125,14.3160948 Z M24.875,5.89266918 C24.875,5.42872922 25.2633817,5.05263158 25.75,5.05263158 C26.2332492,5.05263158 26.625,5.42847276 26.625,5.89266918 L26.625,11.7915414 C26.625,12.2554813 26.2366183,12.6315789 25.75,12.6315789 C25.2667508,12.6315789 24.875,12.2557378 24.875,11.7915414 L24.875,5.89266918 Z M21.375,5.89266918 C21.375,5.42872922 21.7633817,5.05263158 22.25,5.05263158 C22.7332492,5.05263158 23.125,5.42847276 23.125,5.89266918 L23.125,11.7915414 C23.125,12.2554813 22.7366183,12.6315789 22.25,12.6315789 C21.7667508,12.6315789 21.375,12.2557378 21.375,11.7915414 L21.375,5.89266918 Z" id="Combined-Shape"></path>
            </g>
        </g>
    </g>
</svg>