<?xml version="1.0" encoding="UTF-8"?>
<svg width="12px" height="12px" viewBox="0 0 12 12" version="1.1" xmlns="http://www.w3.org/2000/svg" xmlns:xlink="http://www.w3.org/1999/xlink">
    <!-- Generator: Sketch 52.6 (67491) - http://www.bohemiancoding.com/sketch -->
    <title>Combined Shape</title>
    <desc>Created with Sketch.</desc>
    <g id="Post-authoring" stroke="none" stroke-width="1" fill="none" fill-rule="evenodd">
        <g id="Alt-compose-(call-out)-Copy" transform="translate(-522.000000, -62.000000)" fill="#FFFFFF" fill-rule="nonzero">
            <g id="Group" transform="translate(512.000000, 12.000000)">
                <path d="M13.4393398,57.5 L10.75,57.5 C10.3357864,57.5 10,57.1642136 10,56.75 C10,56.3357864 10.3357864,56 10.75,56 L15.25,56 C15.6642136,56 16,56.3357864 16,56.75 L16,61.25 C16,61.6642136 15.6642136,62 15.25,62 C14.8357864,62 14.5,61.6642136 14.5,61.25 L14.5,58.5606602 L11.5606602,61.5 L10.5,60.4393398 L13.4393398,57.5 Z M18.5606602,54.5 L21.25,54.5 C21.6642136,54.5 22,54.8357864 22,55.25 C22,55.6642136 21.6642136,56 21.25,56 L16.75,56 C16.3357864,56 16,55.6642136 16,55.25 L16,50.75 C16,50.3357864 16.3357864,50 16.75,50 C17.1642136,50 17.5,50.3357864 17.5,50.75 L17.5,53.4393398 L20.4393398,50.5 L21.5,51.5606602 L18.5606602,54.5 Z" id="Combined-Shape"></path>
            </g>
        </g>
    </g>
</svg>