<?xml version="1.0" encoding="UTF-8"?>
<svg width="12px" height="12px" viewBox="0 0 12 12" version="1.1" xmlns="http://www.w3.org/2000/svg" xmlns:xlink="http://www.w3.org/1999/xlink">
    <!-- Generator: Sketch 51.2 (57519) - http://www.bohemiancoding.com/sketch -->
    <title>Combined Shape</title>
    <desc>Created with Sketch.</desc>
    <defs></defs>
    <g id="New-post-window" stroke="none" stroke-width="1" fill="none" fill-rule="evenodd" opacity="0.5">
        <g id="Create-(modal-+-content)" transform="translate(-863.000000, -167.000000)" fill="#898D93" fill-rule="nonzero">
            <g id="Group-13" transform="translate(180.000000, 145.000000)">
                <path d="M692.43934,23.5 L689.75,23.5 C689.335786,23.5 689,23.1642136 689,22.75 C689,22.3357864 689.335786,22 689.75,22 L694.25,22 C694.664214,22 695,22.3357864 695,22.75 L695,27.25 C695,27.6642136 694.664214,28 694.25,28 C693.835786,28 693.5,27.6642136 693.5,27.25 L693.5,24.5606602 L685.56066,32.5 L688.25,32.5 C688.664214,32.5 689,32.8357864 689,33.25 C689,33.6642136 688.664214,34 688.25,34 L683.75,34 C683.335786,34 683,33.6642136 683,33.25 L683,28.75 C683,28.3357864 683.335786,28 683.75,28 C684.164214,28 684.5,28.3357864 684.5,28.75 L684.5,31.4393398 L692.43934,23.5 Z" id="Combined-Shape"></path>
            </g>
        </g>
    </g>
</svg>