<?xml version="1.0" encoding="UTF-8"?>
<svg width="12px" height="12px" viewBox="0 0 12 12" version="1.1" xmlns="http://www.w3.org/2000/svg" xmlns:xlink="http://www.w3.org/1999/xlink">
    <!-- Generator: Sketch 51.2 (57519) - http://www.bohemiancoding.com/sketch -->
    <title>Combined Shape</title>
    <desc>Created with Sketch.</desc>
    <defs></defs>
    <g id="New-post-window" stroke="none" stroke-width="1" fill="none" fill-rule="evenodd">
        <g id="Create-(bottom-attach)" transform="translate(-1019.000000, -342.000000)" fill="#FFFFFF" fill-rule="nonzero">
            <g id="Group-13" transform="translate(436.000000, 320.000000)">
                <g id="Group-15">
                    <g id="Group-26" transform="translate(519.000000, 20.000000)">
                        <path d="M73.4393398,3.5 L70.75,3.5 C70.3357864,3.5 70,3.16421356 70,2.75 C70,2.33578644 70.3357864,2 70.75,2 L75.25,2 C75.6642136,2 76,2.33578644 76,2.75 L76,7.25 C76,7.66421356 75.6642136,8 75.25,8 C74.8357864,8 74.5,7.66421356 74.5,7.25 L74.5,4.56066017 L66.5606602,12.5 L69.25,12.5 C69.6642136,12.5 70,12.8357864 70,13.25 C70,13.6642136 69.6642136,14 69.25,14 L64.75,14 C64.3357864,14 64,13.6642136 64,13.25 L64,8.75 C64,8.33578644 64.3357864,8 64.75,8 C65.1642136,8 65.5,8.33578644 65.5,8.75 L65.5,11.4393398 L73.4393398,3.5 Z" id="Combined-Shape"></path>
                    </g>
                </g>
            </g>
        </g>
    </g>
</svg>