<?xml version="1.0" encoding="UTF-8"?>
<svg width="12px" height="12px" viewBox="0 0 12 12" version="1.1" xmlns="http://www.w3.org/2000/svg" xmlns:xlink="http://www.w3.org/1999/xlink">
    <!-- Generator: Sketch 51.2 (57519) - http://www.bohemiancoding.com/sketch -->
    <title>Combined Shape</title>
    <desc>Created with Sketch.</desc>
    <defs></defs>
    <g id="Post-creation" stroke="none" stroke-width="1" fill="none" fill-rule="evenodd" opacity="0.5">
        <g id="Create-(bottom-minimizedl)" transform="translate(-1028.000000, -650.000000)" fill="#FFFFFF" fill-rule="nonzero">
            <g id="Group-14" transform="translate(726.000000, 632.000000)">
                <g id="Group-8" transform="translate(244.000000, 18.000000)">
                    <path d="M69.7803208,1.28037841 C70.0732192,0.987481359 70.0732274,0.512593132 69.7803393,0.219685867 C69.4874512,-0.0732213985 69.0125775,-0.07322968 68.7196792,0.21966737 L64,4.93932596 L59.2803208,0.21966737 C58.9874225,-0.07322968 58.5125488,-0.0732213985 58.2196607,0.219685867 C57.9267726,0.512593132 57.9267808,0.987481359 58.2196792,1.28037841 L62.9393213,6 L58.2196792,10.7196216 C57.9267808,11.0125186 57.9267726,11.4874069 58.2196607,11.7803141 C58.5125488,12.0732214 58.9874225,12.0732297 59.2803208,11.7803326 L64,7.06067404 L68.7196792,11.7803326 C69.0125775,12.0732297 69.4874512,12.0732214 69.7803393,11.7803141 C70.0732274,11.4874069 70.0732192,11.0125186 69.7803208,10.7196216 L65.0606787,6 L69.7803208,1.28037841 Z" id="Combined-Shape"></path>
                </g>
            </g>
        </g>
    </g>
</svg>