<?xml version="1.0" encoding="UTF-8"?>
<svg width="12px" height="12px" viewBox="0 0 12 12" version="1.1" xmlns="http://www.w3.org/2000/svg" xmlns:xlink="http://www.w3.org/1999/xlink">
    <!-- Generator: Sketch 51.2 (57519) - http://www.bohemiancoding.com/sketch -->
    <title>Group 4</title>
    <desc>Created with Sketch.</desc>
    <defs></defs>
    <g id="Post-creation" stroke="none" stroke-width="1" fill="none" fill-rule="evenodd" opacity="0.5">
        <g id="Create-(full-screen)" transform="translate(-844.000000, -58.000000)" fill="#FFFFFF" fill-rule="nonzero">
            <g id="Group-13" transform="translate(180.000000, 40.000000)">
                <g id="Group-12">
                    <g id="Group-3" transform="translate(634.000000, 18.000000)">
                        <g id="Group-4" transform="translate(30.000000, 0.000000)">
                            <path d="M1.28033009,11.7803301 C0.987436867,12.0732233 0.512563133,12.0732233 0.219669914,11.7803301 C-0.0732233047,11.4874369 -0.0732233047,11.0125631 0.219669914,10.7196699 L3.43933983,7.5 L0.75,7.5 C0.335786438,7.5 -9.67231597e-13,7.16421356 -9.67231597e-13,6.75 C-9.67231597e-13,6.33578644 0.335786438,6 0.75,6 L5.25,6 C5.66421356,6 6,6.33578644 6,6.75 L6,11.25 C6,11.6642136 5.66421356,12 5.25,12 C4.83578644,12 4.5,11.6642136 4.5,11.25 L4.5,8.56066017 L1.28033009,11.7803301 Z" id="Combined-Shape"></path>
                            <path d="M7.28033009,5.78033009 C6.98743687,6.0732233 6.51256313,6.0732233 6.21966991,5.78033009 C5.9267767,5.48743687 5.9267767,5.01256313 6.21966991,4.71966991 L9.43933983,1.5 L6.75,1.5 C6.33578644,1.5 6,1.16421356 6,0.75 C6,0.335786438 6.33578644,0 6.75,0 L11.25,0 C11.6642136,0 12,0.335786438 12,0.75 L12,5.25 C12,5.66421356 11.6642136,6 11.25,6 C10.8357864,6 10.5,5.66421356 10.5,5.25 L10.5,2.56066017 L7.28033009,5.78033009 Z" id="Combined-Shape" transform="translate(9.000000, 3.000000) rotate(180.000000) translate(-9.000000, -3.000000) "></path>
                        </g>
                    </g>
                </g>
            </g>
        </g>
    </g>
</svg>