<svg width="12" height="8" viewBox="0 0 12 8" fill="none" xmlns="http://www.w3.org/2000/svg">
<path d="M0.972961 5.2009C0.43561 5.2009 0 4.66356 0 4.00072C0 3.33788 0.43561 2.80054 0.972961 2.80054H6.81073V0.800241C6.81069 0.505087 6.94239 0.233879 7.15336 0.094636C7.36434 -0.0446072 7.62032 -0.0292692 7.81937 0.134541L11.7112 3.33502C11.8916 3.48342 12 3.73322 12 4.00072C12 4.26822 11.8916 4.51802 11.7112 4.66642L7.81937 7.8669C7.61975 8.02876 7.36462 8.04408 7.15321 7.90691C6.94227 7.7676 6.81063 7.49635 6.81073 7.2012V5.2009H0.972961Z" fill="#242D42" fill-opacity="0.5"/>
</svg>
