<?xml version="1.0" encoding="UTF-8"?>
<svg width="18px" height="4px" viewBox="0 0 18 4" version="1.1" xmlns="http://www.w3.org/2000/svg" xmlns:xlink="http://www.w3.org/1999/xlink">
    <!-- Generator: Sketch 52.6 (67491) - http://www.bohemiancoding.com/sketch -->
    <title>Combined Shape</title>
    <desc>Created with Sketch.</desc>
    <g id="Expanded-post-view" stroke="none" stroke-width="1" fill="none" fill-rule="evenodd">
        <g id="Post:-Start" transform="translate(-922.000000, -829.000000)" fill="#FFFFFF">
            <g id="Group-33" transform="translate(388.000000, 474.000000)">
                <g id="Group-27" transform="translate(526.000000, 341.000000)">
                    <g id="Group-26">
                        <g id="Group-25" transform="translate(8.000000, 9.000000)">
                            <path d="M9,2 C7.8954305,2 7,1.1045695 7,0 C7,-1.1045695 7.8954305,-2 9,-2 C10.1045695,-2 11,-1.1045695 11,0 C11,1.1045695 10.1045695,2 9,2 Z M9,9 C7.8954305,9 7,8.1045695 7,7 C7,5.8954305 7.8954305,5 9,5 C10.1045695,5 11,5.8954305 11,7 C11,8.1045695 10.1045695,9 9,9 Z M9,16 C7.8954305,16 7,15.1045695 7,14 C7,12.8954305 7.8954305,12 9,12 C10.1045695,12 11,12.8954305 11,14 C11,15.1045695 10.1045695,16 9,16 Z" id="Combined-Shape" transform="translate(9.000000, 7.000000) rotate(90.000000) translate(-9.000000, -7.000000) "></path>
                        </g>
                    </g>
                </g>
            </g>
        </g>
    </g>
</svg>