<?xml version="1.0" encoding="UTF-8"?>
<svg width="21px" height="14px" viewBox="0 0 21 14" version="1.1" xmlns="http://www.w3.org/2000/svg" xmlns:xlink="http://www.w3.org/1999/xlink">
    <!-- Generator: Sketch 52.6 (67491) - http://www.bohemiancoding.com/sketch -->
    <title>Combined Shape</title>
    <desc>Created with Sketch.</desc>
    <g id="Post-commenting" stroke="none" stroke-width="1" fill="none" fill-rule="evenodd">
        <g id="Comment-action-updates" transform="translate(-939.000000, -244.000000)" fill="#34414F">
            <g id="Group-13" transform="translate(911.000000, 244.000000)">
                <path d="M47.1256198,6.99965 L49,6.99965 L49,7.94465 L47.1256198,7.94465 L47.1256198,9.83465 L46.1884298,9.83465 L46.1884298,7.94465 L44.3140496,7.94465 L44.3140496,6.99965 L46.1884298,6.99965 L46.1884298,5.10965 L47.1256198,5.10965 L47.1256198,6.99965 Z M37.6373488,7.7 C37.9343819,7.7 38.1754521,7.9427264 38.1754521,8.24180001 C38.1754521,9.65969063 36.6364767,10.9508001 34.9468324,10.9508001 C33.257188,10.9508001 31.7182126,9.65969063 31.7182126,8.24180001 C31.7182126,7.9427264 31.9592829,7.7 32.2563159,7.7 L37.6373488,7.7 Z M34.9421488,12.6 C38.0043306,12.6 40.4958678,10.0877 40.4958678,7 C40.4958678,3.9123 38.0043306,1.4 34.9421488,1.4 C31.8799669,1.4 29.3884298,3.9123 29.3884298,7 C29.3884298,10.0877 31.8799669,12.6 34.9421488,12.6 Z M34.9421488,-9.76996262e-15 C38.7700496,-9.76996262e-15 41.8842975,3.1402 41.8842975,7 C41.8842975,10.8605 38.7700496,14 34.9421488,14 C31.1142479,14 28,10.8605 28,7 C28,3.1402 31.1142479,-9.76996262e-15 34.9421488,-9.76996262e-15 Z M33.553719,3.49965 L33.553719,6.29965 L32.1652893,6.29965 L32.1652893,3.49965 L33.553719,3.49965 Z M37.7190083,3.49965 L37.7190083,6.29965 L36.3305785,6.29965 L36.3305785,3.49965 L37.7190083,3.49965 Z" id="Combined-Shape"></path>
            </g>
        </g>
    </g>
</svg>