<?xml version="1.0" encoding="UTF-8"?>
<svg width="14px" height="14px" viewBox="0 0 14 14" version="1.1" xmlns="http://www.w3.org/2000/svg" xmlns:xlink="http://www.w3.org/1999/xlink">
    <!-- Generator: Sketch 52.6 (67491) - http://www.bohemiancoding.com/sketch -->
    <title>Combined Shape</title>
    <desc>Created with Sketch.</desc>
    <g id="Expanded-post-view" stroke="none" stroke-width="1" fill="none" fill-rule="evenodd">
        <g id="Post:-Start" transform="translate(-996.000000, -825.000000)" fill="#FFFFFF" fill-rule="nonzero" stroke="#FFFFFF" stroke-width="0.5">
            <g id="Group-33" transform="translate(388.000000, 474.000000)">
                <g id="Group-27" transform="translate(526.000000, 341.000000)">
                    <g id="Group-26">
                        <g id="Group-24" transform="translate(83.000000, 9.000000)">
                            <path d="M7.5,9.67156511 C7.5,11.2648681 6.15724956,12.556391 4.5,12.556391 C2.8443006,12.556391 1.5,11.2626837 1.5,9.67156511 L1.5,7.86466165 C1.5,7.46602003 1.16421356,7.14285714 0.75,7.14285714 C0.335786438,7.14285714 0,7.46602003 0,7.86466165 L0,9.67156511 C1.33226763e-15,12.0599809 2.01588794,14 4.5,14 C6.98548227,14 9,12.0623386 9,9.67156511 L9,4.46439475 L10.7196699,6.11941542 C11.0125631,6.40129762 11.4874369,6.40129762 11.7803301,6.11941542 C12.0732233,5.83753323 12.0732233,5.38051189 11.7803301,5.09862969 L8.78033009,2.21141165 C8.48743687,1.92952945 8.01256313,1.92952945 7.71966991,2.21141165 L4.71966991,5.09862969 C4.4267767,5.38051189 4.4267767,5.83753323 4.71966991,6.11941542 C5.01256313,6.40129762 5.48743687,6.40129762 5.78033009,6.11941542 L7.5,4.46439475 L7.5,9.67156511 Z" id="Combined-Shape" transform="translate(6.000000, 8.000000) scale(-1, 1) rotate(90.000000) translate(-6.000000, -8.000000) "></path>
                        </g>
                    </g>
                </g>
            </g>
        </g>
    </g>
</svg>