<?xml version="1.0" encoding="UTF-8"?>
<svg width="14px" height="12px" viewBox="0 0 14 12" version="1.1" xmlns="http://www.w3.org/2000/svg" xmlns:xlink="http://www.w3.org/1999/xlink">
    <!-- Generator: Sketch 52.6 (67491) - http://www.bohemiancoding.com/sketch -->
    <title>Path</title>
    <desc>Created with Sketch.</desc>
    <g id="Post-consumption" stroke="none" stroke-width="1" fill="none" fill-rule="evenodd">
        <g id="1.99-commenting-(comment-edit-hover)" transform="translate(-1009.000000, -484.000000)" fill="#FFFFFF" fill-rule="nonzero">
            <g id="Group-5" transform="translate(964.000000, 443.000000)">
                <g id="Group-11" transform="translate(0.000000, 34.000000)">
                    <g id="Group">
                        <path d="M45.0013857,18.5791387 C45.0194266,18.7826759 45.1599962,18.9501268 45.3483669,18.9924737 C45.5679813,19.0346786 45.7825782,18.8956525 45.8476814,18.6689942 C46.3119094,17.6260012 46.9882661,16.7053327 47.8280134,15.9733317 C49.1540029,14.8215708 50.8118057,14.1872748 52.5249547,14.1762233 L54.3106386,14.1762233 L54.3106386,15.8205775 C54.3133665,15.9265374 54.356054,16.0268964 54.42912,16.0991292 C54.4943223,16.1612949 54.5784629,16.1963913 54.6660828,16.1979702 C54.7540126,16.1980922 54.8387068,16.162765 54.9030456,16.0991292 L58.8975614,11.8579536 C59.0341462,11.7109898 59.0341462,11.4747704 58.8975614,11.3278066 L54.9115086,7.10460204 C54.8101508,7.00172773 54.6613023,6.97173471 54.5314941,7.02802896 C54.4016858,7.08432322 54.3151786,7.21638347 54.3106386,7.36518275 L54.3106386,9.00953687 L53.5912873,9.00953687 C50.9361468,9.0478029 48.4428382,10.3714376 46.8209215,12.6037535 C45.6062528,14.3257391 44.9660815,16.428072 45.0013857,18.5791387 Z" id="Path"></path>
                    </g>
                </g>
            </g>
        </g>
    </g>
</svg>