<?xml version="1.0" encoding="UTF-8"?>
<svg width="14px" height="14px" viewBox="0 0 14 14" version="1.1" xmlns="http://www.w3.org/2000/svg" xmlns:xlink="http://www.w3.org/1999/xlink">
    <!-- Generator: Sketch 52.6 (67491) - http://www.bohemiancoding.com/sketch -->
    <title>Combined Shape</title>
    <desc>Created with Sketch.</desc>
    <g id="Expanded-post-view" stroke="none" stroke-width="1" fill="none" fill-rule="evenodd">
        <g id="Expanded-post-(with-comments)" transform="translate(-504.000000, -270.000000)" fill="#34414F" stroke="#34414F" stroke-width="0.5">
            <g id="Group-12" transform="translate(320.000000, 264.000000)">
                <g id="Group-33">
                    <g id="Group-30">
                        <g id="Group-23" transform="translate(32.000000, 5.000000)">
                            <g id="Group-13-Copy" transform="translate(143.000000, 0.000000)">
                                <path d="M18.1970189,5.80313162 C18.4396866,6.04579931 18.4390754,6.43985254 18.1990411,6.67988681 L14.6798868,10.1990411 C14.438336,10.440592 14.0474911,10.4413784 13.8031316,10.1970189 C13.5604639,9.95435118 13.5610751,9.56029795 13.8011094,9.32026368 L17.3202637,5.80110936 C17.5618145,5.55955853 17.9526593,5.55877209 18.1970189,5.80313162 Z M14.42453,12.2119528 C13.6972795,12.9392033 12.5149747,12.9387476 11.7881888,12.2119617 C11.0607901,11.4845631 11.0611585,10.3026597 11.7881977,9.57562049 L13.5457437,7.81807448 C13.7884114,7.57540679 13.7884114,7.18196472 13.5457437,6.93929703 C13.303076,6.69662934 12.9096339,6.69662934 12.6669662,6.93929703 L10.9094202,8.69684304 C9.69716822,9.90909502 9.69655465,11.8778825 10.9094113,13.0907392 C12.121381,14.3027089 14.0905699,14.3034679 15.3033075,13.0907303 L17.0608535,11.3331843 C17.3035212,11.0905166 17.3035212,10.6970745 17.0608535,10.4544068 C16.8181858,10.2117391 16.4247437,10.2117391 16.182076,10.4544068 L14.42453,12.2119528 Z M21.0907303,7.30330746 C22.3034679,6.09056985 22.3027089,4.12138101 21.0907392,2.90941131 C19.8778825,1.69655465 17.909095,1.69716822 16.696843,2.9094202 L14.939297,4.66696621 C14.6966293,4.9096339 14.6966293,5.30307597 14.939297,5.54574366 C15.1819647,5.78841136 15.5754068,5.78841136 15.8180745,5.54574366 L17.5756205,3.78819766 C18.3026597,3.06115848 19.4845631,3.06079014 20.2119617,3.78818876 C20.9387476,4.51497466 20.9392033,5.6972795 20.2119528,6.42453001 L18.4544068,8.18207602 C18.2117391,8.42474371 18.2117391,8.81818578 18.4544068,9.06085347 C18.6970745,9.30352116 19.0905166,9.30352116 19.3331843,9.06085347 L21.0907303,7.30330746 Z" id="Combined-Shape"></path>
                            </g>
                        </g>
                    </g>
                </g>
            </g>
        </g>
    </g>
</svg>