<?xml version="1.0" encoding="UTF-8"?>
<svg width="14px" height="14px" viewBox="0 0 14 14" version="1.1" xmlns="http://www.w3.org/2000/svg" xmlns:xlink="http://www.w3.org/1999/xlink">
    <!-- Generator: Sketch 52.6 (67491) - http://www.bohemiancoding.com/sketch -->
    <title>Combined Shape</title>
    <desc>Created with Sketch.</desc>
    <g id="Post-commenting" stroke="none" stroke-width="1" fill="none" fill-rule="evenodd">
        <g id="Comment-action-updates" transform="translate(-916.000000, -244.000000)" fill="#34414F" fill-rule="nonzero">
            <g id="Group-14" transform="translate(886.000000, 244.000000)">
                <path d="M38.75,8.9501593 C38.75,10.8090128 37.1834578,12.3157895 35.25,12.3157895 C33.3183507,12.3157895 31.75,10.8064644 31.75,8.9501593 L31.75,6.84210526 C31.75,6.37702337 31.3582492,6 30.875,6 C30.3917508,6 30,6.37702337 30,6.84210526 L30,8.9501593 C30,11.7366444 32.3518693,14 35.25,14 C38.1497293,14 40.5,11.739395 40.5,8.9501593 L40.5,2.87512721 L42.5062816,4.80598466 C42.8479903,5.13484722 43.4020097,5.13484722 43.7437184,4.80598466 C44.0854272,4.4771221 44.0854272,3.94393054 43.7437184,3.61506797 L40.2437184,0.246646921 C39.9020097,-0.0822156404 39.3479903,-0.0822156404 39.0062816,0.246646921 L35.5062816,3.61506797 C35.1645728,3.94393054 35.1645728,4.4771221 35.5062816,4.80598466 C35.8479903,5.13484722 36.4020097,5.13484722 36.7437184,4.80598466 L38.75,2.87512721 L38.75,8.9501593 Z" id="Combined-Shape" transform="translate(37.000000, 7.000000) scale(-1, 1) rotate(90.000000) translate(-37.000000, -7.000000) "></path>
            </g>
        </g>
    </g>
</svg>