<?xml version="1.0" encoding="UTF-8"?>
<svg width="14px" height="14px" viewBox="0 0 14 14" version="1.1" xmlns="http://www.w3.org/2000/svg" xmlns:xlink="http://www.w3.org/1999/xlink">
    <!-- Generator: Sketch 50.2 (55047) - http://www.bohemiancoding.com/sketch -->
    <title>Default-Thumb</title>
    <desc>Created with Sketch.</desc>
    <defs></defs>
    <g id="Mobile-density-udpates" stroke="none" stroke-width="1" fill="none" fill-rule="evenodd">
        <g id="Like-button-states" transform="translate(-196.000000, -110.000000)" fill="#898D93" stroke="#898D93" stroke-width="1.5">
            <g id="Group-3" transform="translate(78.000000, 107.000000)">
                <g id="Group" transform="translate(118.000000, 3.000000)">
                    <path d="M1.25,6.55872566 C0.970251881,6.60102333 0.75,6.85363317 0.75,7.1649932 L0.75,12.6353785 C0.75,12.9472798 0.969558221,13.1993083 1.25,13.2416228 L1.25,6.55872566 Z M4.75,6.30237711 L4.75,13.249651 C7.01152592,13.2504274 8.577535,13.2500069 9.01155964,13.2479176 C10.8743374,13.2685232 11.8281416,12.768386 12.2572785,11.5786682 C12.3541643,11.3227654 13.1837172,8.00741744 13.2237791,7.79548168 C13.3667343,7.11082881 12.920955,6.55228318 12.2415654,6.55228322 L9.83558691,6.5521198 C9.17424231,6.55207488 8.70282596,5.96791074 8.82915019,5.32190735 C8.85712454,5.17960747 8.89916258,4.96454756 8.94115335,4.74729053 C8.94261533,4.73972562 8.94261533,4.73972562 8.94407684,4.73216015 C8.99407666,4.4733104 9.02982193,4.28421402 9.04349488,4.20489167 C9.18764453,3.36862136 9.25613189,2.76397543 9.25002314,2.36312886 C9.25744315,1.94174024 9.03872791,1.54921302 8.58215012,1.18471781 C8.52854207,1.14192143 8.45963883,1.09359967 8.37970457,1.04261313 C8.20764258,0.932862383 8.02953795,0.837256604 7.90299445,0.775476978 C7.78664038,0.715361881 7.64629328,0.766394841 7.58588028,0.900160393 C7.52115747,1.04437631 7.52115747,1.04437631 7.26217628,1.62093263 C7.01930235,2.16147168 6.77619755,2.70201737 6.54896073,3.206571 C6.5462063,3.21268687 6.5462063,3.21268687 6.54345185,3.21880271 C5.94625917,4.54476844 5.5745617,5.36510325 5.50195131,5.51370673 C5.34602637,5.83282069 5.07227398,6.11354395 4.75,6.30237711 Z" id="Default-Thumb"></path>
                </g>
            </g>
        </g>
    </g>
</svg>