<?xml version="1.0" encoding="UTF-8"?>
<svg width="14px" height="14px" viewBox="0 0 14 14" version="1.1" xmlns="http://www.w3.org/2000/svg" xmlns:xlink="http://www.w3.org/1999/xlink">
    <!-- Generator: Sketch 52.6 (67491) - http://www.bohemiancoding.com/sketch -->
    <title>Combined Shape</title>
    <desc>Created with Sketch.</desc>
    <g id="Expanded-post-view" stroke="none" stroke-width="1" fill="none" fill-rule="evenodd" opacity="0.5">
        <g id="Expanded-post-(new-reply)" transform="translate(-607.000000, -329.000000)" fill="#34414F">
            <g id="Group-6-Copy" transform="translate(569.000000, 329.000000)">
                <path d="M47.7176601,7.7 C48.0171684,7.7 48.2602476,7.9427264 48.2602476,8.24180001 C48.2602476,9.65969063 46.7084473,10.9508001 45.0047226,10.9508001 C43.3009979,10.9508001 41.7491977,9.65969063 41.7491977,8.24180001 C41.7491977,7.9427264 41.9922769,7.7 42.2917852,7.7 L47.7176601,7.7 Z M45,12.6 C48.0877,12.6 50.6,10.0877 50.6,7 C50.6,3.9123 48.0877,1.4 45,1.4 C41.9123,1.4 39.4,3.9123 39.4,7 C39.4,10.0877 41.9123,12.6 45,12.6 Z M45,-9.76996262e-15 C48.8598,-9.76996262e-15 52,3.1402 52,7 C52,10.8605 48.8598,14 45,14 C41.1402,14 38,10.8605 38,7 C38,3.1402 41.1402,-9.76996262e-15 45,-9.76996262e-15 Z M43.6,3.49965 L43.6,6.29965 L42.2,6.29965 L42.2,3.49965 L43.6,3.49965 Z M47.8,3.49965 L47.8,6.29965 L46.4,6.29965 L46.4,3.49965 L47.8,3.49965 Z" id="Combined-Shape"></path>
            </g>
        </g>
    </g>
</svg>