<?xml version="1.0" encoding="UTF-8"?>
<svg width="14px" height="14px" viewBox="0 0 14 14" version="1.1" xmlns="http://www.w3.org/2000/svg" xmlns:xlink="http://www.w3.org/1999/xlink">
    <!-- Generator: Sketch 52.6 (67491) - http://www.bohemiancoding.com/sketch -->
    <title>Combined Shape</title>
    <desc>Created with Sketch.</desc>
    <g id="Post-commenting" stroke="none" stroke-width="1" fill="none" fill-rule="evenodd">
        <g id="Comment-action-updates" transform="translate(-946.000000, -323.000000)" fill="#34414F">
            <path d="M955.71766,330.7 C956.017168,330.7 956.260248,330.942726 956.260248,331.2418 C956.260248,332.659691 954.708447,333.9508 953.004723,333.9508 C951.300998,333.9508 949.749198,332.659691 949.749198,331.2418 C949.749198,330.942726 949.992277,330.7 950.291785,330.7 L955.71766,330.7 Z M953,335.6 C956.0877,335.6 958.6,333.0877 958.6,330 C958.6,326.9123 956.0877,324.4 953,324.4 C949.9123,324.4 947.4,326.9123 947.4,330 C947.4,333.0877 949.9123,335.6 953,335.6 Z M953,323 C956.8598,323 960,326.1402 960,330 C960,333.8605 956.8598,337 953,337 C949.1402,337 946,333.8605 946,330 C946,326.1402 949.1402,323 953,323 Z M951.6,326.49965 L951.6,329.29965 L950.2,329.29965 L950.2,326.49965 L951.6,326.49965 Z M955.8,326.49965 L955.8,329.29965 L954.4,329.29965 L954.4,326.49965 L955.8,326.49965 Z" id="Combined-Shape"></path>
        </g>
    </g>
</svg>