<?xml version="1.0" encoding="UTF-8"?>
<svg width="12px" height="12px" viewBox="0 0 12 12" version="1.1" xmlns="http://www.w3.org/2000/svg" xmlns:xlink="http://www.w3.org/1999/xlink">
    <!-- Generator: Sketch 52.6 (67491) - http://www.bohemiancoding.com/sketch -->
    <title>Combined Shape</title>
    <desc>Created with Sketch.</desc>
    <g id="Post-consumption" stroke="none" stroke-width="1" fill="none" fill-rule="evenodd">
        <g id="1.99-commenting-(comment-edit-hover)" transform="translate(-975.000000, -484.000000)" fill="#FFFFFF">
            <g id="Group-5" transform="translate(964.000000, 443.000000)">
                <g id="Group-11" transform="translate(0.000000, 34.000000)">
                    <g id="Group">
                        <path d="M11.8571429,16.4726448 L11.8580123,17.0215832 C12.1657858,16.9162774 12.5204212,16.9861691 12.7659899,17.2312585 C13.0126268,17.4774139 13.082193,17.8333722 12.9746885,18.1414695 L13.519044,18.1428571 L14.4285714,17.235105 L12.7616411,15.5714286 C12.2142212,16.1168585 11.8571429,16.4726448 11.8571429,16.4726448 Z M20.9484568,7.35189606 L22.6483063,9.05240022 C23.1168164,9.52109075 23.1173783,10.2804262 22.649108,10.7488768 L14.6126015,18.7884787 C14.4958265,18.9052987 14.2678321,19 14.0993313,19 L11.6002303,19 C11.2687322,19 11,18.7330462 11,18.3996116 L11,15.8998523 C11,15.7331121 11.0960416,15.5019584 11.2115488,15.3865204 L19.2521966,7.35069577 C19.7205052,6.88266814 20.4798766,6.88313533 20.9484568,7.35189606 Z" id="Combined-Shape"></path>
                    </g>
                </g>
            </g>
        </g>
    </g>
</svg>