<?xml version="1.0" encoding="UTF-8"?>
<svg width="14px" height="14px" viewBox="0 0 14 14" version="1.1" xmlns="http://www.w3.org/2000/svg" xmlns:xlink="http://www.w3.org/1999/xlink">
    <!-- Generator: Sketch 48.2 (47327) - http://www.bohemiancoding.com/sketch -->
    <title>Combined Shape</title>
    <desc>Created with Sketch.</desc>
    <defs></defs>
    <g id="All-Posts-(collapsed)" stroke="none" stroke-width="1" fill="none" fill-rule="evenodd" transform="translate(-864.000000, -575.000000)">
        <g id="Group-19" transform="translate(864.000000, 575.000000)" fill="#3FBD7C">
            <path d="M3.33307666,6.99748666 L1.33307666,6.99748666 L1.3334616,12.3341357 C1.3334616,12.3341357 2.14279413,12.3340412 3.33307666,12.3338636 L3.33307666,6.99748666 Z M1.33307666,13.6641533 C0.596838749,13.6641533 0,13.0693889 0,12.3341357 L0,6.99417099 C0,6.25962252 0.597489215,5.66415332 1.33307666,5.66415332 L3.88263607,5.66415332 C4.25219222,5.66415332 4.66893859,5.37879669 4.82809112,5.06084273 C4.98724365,4.74288877 6.90162993,0.578935337 6.90162993,0.578935337 C7.13625747,0.0717931996 7.74177242,-0.148381678 8.24725419,0.106552427 C8.24725419,0.106552427 8.73266026,0.336961235 9.05007076,0.584315162 C9.63942099,1.04358822 10.0124249,1.62571852 9.99990689,2.31967847 C10.0072481,2.75888651 9.92792451,3.40599123 9.78259513,4.22900477 C9.74375784,4.44894389 9.5650647,5.33624886 9.5650647,5.33624886 C9.52876401,5.51746 9.64993144,5.66377785 9.83563785,5.66379016 L12.2416164,5.66394968 C13.4016837,5.66394962 14.1971792,6.64082698 13.9579461,7.75926676 C13.9506676,7.79699289 13.1105438,11.1703205 12.9586908,11.5618449 C12.3930402,13.0929951 11.0816024,13.6865873 9.00326383,13.6641453 C8.04943459,13.6688151 1.33307666,13.6641533 1.33307666,13.6641533 Z" id="Combined-Shape"></path>
        </g>
    </g>
</svg>