<?xml version="1.0" encoding="UTF-8"?>
<svg width="12px" height="12px" viewBox="0 0 12 12" version="1.1" xmlns="http://www.w3.org/2000/svg" xmlns:xlink="http://www.w3.org/1999/xlink">
    <!-- Generator: Sketch 51.3 (57544) - http://www.bohemiancoding.com/sketch -->
    <title>Default-Thumb</title>
    <desc>Created with Sketch.</desc>
    <defs></defs>
    <g id="Commenting-updates" stroke="none" stroke-width="1" fill="none" fill-rule="evenodd">
        <g id="Long-comments" transform="translate(-323.000000, -467.000000)" fill="#34414F" stroke="#34414F" stroke-width="1.5">
            <g id="Group-10" transform="translate(192.000000, 404.000000)">
                <g id="Group-17" transform="translate(47.000000, 20.000000)">
                    <g id="Group-7" transform="translate(84.000000, 43.000000)">
                        <path d="M1.25,5.72356443 L1.14259404,5.72356443 C0.929793067,5.72356443 0.75,5.90727104 0.75,6.14142275 L0.75,10.8303245 C0.75,11.0650733 0.929213915,11.2481828 1.14312735,11.248183 C1.18471087,11.2482125 1.21600218,11.2482348 1.25,11.248258 L1.25,5.72356443 Z M4.75,4.88705259 L4.75,11.2498935 C6.32920862,11.2502515 7.39861436,11.2497749 7.72508837,11.2482217 C9.28027036,11.2654253 10.0547711,10.8592924 10.4056147,9.88664476 C10.4859762,9.67437949 11.1956503,6.83802576 11.2293345,6.6599479 C11.3380639,6.13919212 11.0062183,5.72338559 10.4923674,5.72338562 L8.43017785,5.72324554 C7.79537755,5.72320243 7.34126722,5.16046213 7.46240215,4.54097278 C7.48635914,4.41910378 7.52237114,4.23486518 7.55833588,4.04877938 C7.55958784,4.04230095 7.55958784,4.04230095 7.56083937,4.03582218 C7.60353694,3.81476793 7.63411776,3.65298599 7.64566427,3.5859975 C7.76816562,2.87529089 7.82623971,2.36255993 7.82114175,2.02365319 C7.82686249,1.69875535 7.65611047,1.39229593 7.28897955,1.09919689 C7.24628296,1.06511006 7.19023095,1.02579937 7.12469091,0.9839927 C6.98133805,0.892550791 6.83194262,0.812352956 6.72453844,0.759878139 C6.67998486,0.736858371 6.62639774,0.756344434 6.59971438,0.815425758 C6.54423198,0.93905675 6.54423198,0.93905675 6.32224503,1.43327339 C6.11406335,1.89661899 5.90568336,2.35997123 5.71090194,2.79247764 C5.70854089,2.79772026 5.70854089,2.79772026 5.70617981,2.80296286 C5.19289124,3.94267663 4.87510617,4.64405345 4.81207284,4.77306152 C4.79313621,4.81181844 4.77240352,4.84983919 4.75,4.88705259 Z" id="Default-Thumb"></path>
                    </g>
                </g>
            </g>
        </g>
    </g>
</svg>