<?xml version="1.0" encoding="UTF-8"?>
<svg width="14px" height="14px" viewBox="0 0 14 14" version="1.1" xmlns="http://www.w3.org/2000/svg" xmlns:xlink="http://www.w3.org/1999/xlink">
    <!-- Generator: Sketch 48.2 (47327) - http://www.bohemiancoding.com/sketch -->
    <title>Combined Shape</title>
    <desc>Created with Sketch.</desc>
    <defs></defs>
    <g id="UI-Guides" stroke="none" stroke-width="1" fill="none" fill-rule="evenodd" transform="translate(-346.000000, -519.000000)">
        <path d="M349.333077,525.997487 L347.333077,525.997487 L347.333462,531.334136 C347.333462,531.334136 348.142794,531.334041 349.333077,531.333864 L349.333077,525.997487 Z M347.333077,532.664153 C346.596839,532.664153 346,532.069389 346,531.334136 L346,525.994171 C346,525.259623 346.597489,524.664153 347.333077,524.664153 L349.882636,524.664153 C350.252192,524.664153 350.668939,524.378797 350.828091,524.060843 C350.987244,523.742889 352.90163,519.578935 352.90163,519.578935 C353.136257,519.071793 353.741772,518.851618 354.247254,519.106552 C354.247254,519.106552 354.73266,519.336961 355.050071,519.584315 C355.639421,520.043588 356.012425,520.625719 355.999907,521.319678 C356.007248,521.758887 355.927925,522.405991 355.782595,523.229005 C355.743758,523.448944 355.565065,524.336249 355.565065,524.336249 C355.528764,524.51746 355.649931,524.663778 355.835638,524.66379 L358.241616,524.66395 C359.401684,524.66395 360.197179,525.640827 359.957946,526.759267 C359.950668,526.796993 359.110544,530.170321 358.958691,530.561845 C358.39304,532.092995 357.081602,532.686587 355.003264,532.664145 C354.049435,532.668815 347.333077,532.664153 347.333077,532.664153 Z" id="Combined-Shape" fill="#34414F"></path>
    </g>
</svg>