<?xml version="1.0" encoding="UTF-8"?>
<svg width="14px" height="14px" viewBox="0 0 14 14" version="1.1" xmlns="http://www.w3.org/2000/svg" xmlns:xlink="http://www.w3.org/1999/xlink">
    <!-- Generator: Sketch 52.6 (67491) - http://www.bohemiancoding.com/sketch -->
    <title>Combined Shape</title>
    <desc>Created with Sketch.</desc>
    <g id="Expanded-post-view" stroke="none" stroke-width="1" fill="none" fill-rule="evenodd">
        <g id="Expanded-post-(with-comments)" transform="translate(-562.000000, -270.000000)" fill="#34414F" fill-rule="nonzero" stroke="#34414F" stroke-width="0.5">
            <g id="Group-12" transform="translate(320.000000, 264.000000)">
                <g id="Group-33">
                    <g id="Group-30">
                        <g id="Group-23" transform="translate(32.000000, 5.000000)">
                            <g id="Group-13-Copy" transform="translate(143.000000, 0.000000)">
                                <path d="M75.5,9.67156511 C75.5,11.2648681 74.1572496,12.556391 72.5,12.556391 C70.8443006,12.556391 69.5,11.2626837 69.5,9.67156511 L69.5,7.86466165 C69.5,7.46602003 69.1642136,7.14285714 68.75,7.14285714 C68.3357864,7.14285714 68,7.46602003 68,7.86466165 L68,9.67156511 C68,12.0599809 70.0158879,14 72.5,14 C74.9854823,14 77,12.0623386 77,9.67156511 L77,4.46439475 L78.7196699,6.11941542 C79.0125631,6.40129762 79.4874369,6.40129762 79.7803301,6.11941542 C80.0732233,5.83753323 80.0732233,5.38051189 79.7803301,5.09862969 L76.7803301,2.21141165 C76.4874369,1.92952945 76.0125631,1.92952945 75.7196699,2.21141165 L72.7196699,5.09862969 C72.4267767,5.38051189 72.4267767,5.83753323 72.7196699,6.11941542 C73.0125631,6.40129762 73.4874369,6.40129762 73.7803301,6.11941542 L75.5,4.46439475 L75.5,9.67156511 Z" id="Combined-Shape" transform="translate(74.000000, 8.000000) scale(-1, 1) rotate(90.000000) translate(-74.000000, -8.000000) "></path>
                            </g>
                        </g>
                    </g>
                </g>
            </g>
        </g>
    </g>
</svg>