<?xml version="1.0" encoding="UTF-8"?>
<svg width="14px" height="14px" viewBox="0 0 14 14" version="1.1" xmlns="http://www.w3.org/2000/svg" xmlns:xlink="http://www.w3.org/1999/xlink">
    <!-- Generator: Sketch 52.6 (67491) - http://www.bohemiancoding.com/sketch -->
    <title>Combined Shape</title>
    <desc>Created with Sketch.</desc>
    <g id="Post-commenting" stroke="none" stroke-width="1" fill="none" fill-rule="evenodd">
        <g id="Comment-action-updates" transform="translate(-881.000000, -244.000000)" fill="#34414F">
            <path d="M890.563189,248.436987 C890.846301,248.720099 890.845588,249.179828 890.565548,249.459868 L886.459868,253.565548 C886.178059,253.847357 885.722073,253.848275 885.436987,253.563189 C885.153875,253.280076 885.154588,252.820348 885.434628,252.540308 L889.540308,248.434628 C889.822117,248.152818 890.278103,248.151901 890.563189,248.436987 Z M886.161952,255.913945 C885.313493,256.762404 883.934137,256.761872 883.08622,255.913955 C882.237588,255.065324 882.238018,253.686436 883.086231,252.838224 L885.136701,250.787754 C885.419813,250.504641 885.419813,250.045626 885.136701,249.762513 C884.853589,249.479401 884.394573,249.479401 884.111461,249.762513 L882.06099,251.812984 C880.646696,253.227278 880.64598,255.524196 882.06098,256.939196 C883.474945,258.35316 885.772331,258.354046 887.187192,256.939185 L889.237662,254.888715 C889.520775,254.605603 889.520775,254.146587 889.237662,253.863475 C888.95455,253.580362 888.495534,253.580362 888.212422,253.863475 L886.161952,255.913945 Z M893.939185,250.187192 C895.354046,248.772331 895.35316,246.474945 893.939196,245.06098 C892.524196,243.64598 890.227278,243.646696 888.812984,245.06099 L886.762513,247.111461 C886.479401,247.394573 886.479401,247.853589 886.762513,248.136701 C887.045626,248.419813 887.504641,248.419813 887.787754,248.136701 L889.838224,246.086231 C890.686436,245.238018 892.065324,245.237588 892.913955,246.08622 C893.761872,246.934137 893.762404,248.313493 892.913945,249.161952 L890.863475,251.212422 C890.580362,251.495534 890.580362,251.95455 890.863475,252.237662 C891.146587,252.520775 891.605603,252.520775 891.888715,252.237662 L893.939185,250.187192 Z" id="Combined-Shape"></path>
        </g>
    </g>
</svg>