<?xml version="1.0" encoding="UTF-8"?>
<svg width="14px" height="14px" viewBox="0 0 14 14" version="1.1" xmlns="http://www.w3.org/2000/svg" xmlns:xlink="http://www.w3.org/1999/xlink">
    <!-- Generator: Sketch 52.6 (67491) - http://www.bohemiancoding.com/sketch -->
    <title>Combined Shape</title>
    <desc>Created with Sketch.</desc>
    <g id="Expanded-post-view" stroke="none" stroke-width="1" fill="none" fill-rule="evenodd">
        <g id="Expanded-post-(with-comments)" transform="translate(-533.000000, -270.000000)" fill="#34414F">
            <g id="Group-12" transform="translate(320.000000, 264.000000)">
                <g id="Group-33">
                    <g id="Group-30">
                        <g id="Group-23" transform="translate(32.000000, 5.000000)">
                            <g id="Group-13-Copy" transform="translate(143.000000, 0.000000)">
                                <path d="M47.7176601,8.7 C48.0171684,8.7 48.2602476,8.9427264 48.2602476,9.24180001 C48.2602476,10.6596906 46.7084473,11.9508001 45.0047226,11.9508001 C43.3009979,11.9508001 41.7491977,10.6596906 41.7491977,9.24180001 C41.7491977,8.9427264 41.9922769,8.7 42.2917852,8.7 L47.7176601,8.7 Z M45,13.6 C48.0877,13.6 50.6,11.0877 50.6,8 C50.6,4.9123 48.0877,2.4 45,2.4 C41.9123,2.4 39.4,4.9123 39.4,8 C39.4,11.0877 41.9123,13.6 45,13.6 Z M45,1 C48.8598,1 52,4.1402 52,8 C52,11.8605 48.8598,15 45,15 C41.1402,15 38,11.8605 38,8 C38,4.1402 41.1402,1 45,1 Z M43.6,4.49965 L43.6,7.29965 L42.2,7.29965 L42.2,4.49965 L43.6,4.49965 Z M47.8,4.49965 L47.8,7.29965 L46.4,7.29965 L46.4,4.49965 L47.8,4.49965 Z" id="Combined-Shape"></path>
                            </g>
                        </g>
                    </g>
                </g>
            </g>
        </g>
    </g>
</svg>