<?xml version="1.0" encoding="UTF-8"?>
<svg width="18px" height="4px" viewBox="0 0 18 4" version="1.1" xmlns="http://www.w3.org/2000/svg" xmlns:xlink="http://www.w3.org/1999/xlink">
    <!-- Generator: Sketch 52.6 (67491) - http://www.bohemiancoding.com/sketch -->
    <title>Combined Shape</title>
    <desc>Created with Sketch.</desc>
    <g id="Post-commenting" stroke="none" stroke-width="1" fill="none" fill-rule="evenodd">
        <g id="Comment-action-bar-updates" transform="translate(-331.000000, -416.000000)" fill="#FCFEFD">
            <g id="Group-5" transform="translate(210.000000, 214.000000)">
                <g id="Group-4" transform="translate(0.000000, 152.000000)">
                    <g id="Action-bar-Copy" transform="translate(114.000000, 39.000000)">
                        <path d="M16,8 C14.8954305,8 14,7.1045695 14,6 C14,4.8954305 14.8954305,4 16,4 C17.1045695,4 18,4.8954305 18,6 C18,7.1045695 17.1045695,8 16,8 Z M16,15 C14.8954305,15 14,14.1045695 14,13 C14,11.8954305 14.8954305,11 16,11 C17.1045695,11 18,11.8954305 18,13 C18,14.1045695 17.1045695,15 16,15 Z M16,22 C14.8954305,22 14,21.1045695 14,20 C14,18.8954305 14.8954305,18 16,18 C17.1045695,18 18,18.8954305 18,20 C18,21.1045695 17.1045695,22 16,22 Z" id="Combined-Shape" transform="translate(16.000000, 13.000000) rotate(90.000000) translate(-16.000000, -13.000000) "></path>
                    </g>
                </g>
            </g>
        </g>
    </g>
</svg>