<?xml version="1.0" encoding="UTF-8"?>
<svg width="14px" height="12px" viewBox="0 0 14 12" version="1.1" xmlns="http://www.w3.org/2000/svg" xmlns:xlink="http://www.w3.org/1999/xlink">
    <!-- Generator: Sketch 52.6 (67491) - http://www.bohemiancoding.com/sketch -->
    <title>Path</title>
    <desc>Created with Sketch.</desc>
    <g id="Post-commenting" stroke="none" stroke-width="1" fill="none" fill-rule="evenodd">
        <g id="Comment-action-updates" transform="translate(-881.000000, -245.000000)" fill="#34414F" fill-rule="nonzero">
            <path d="M881.001386,256.579139 C881.019427,256.782676 881.159996,256.950127 881.348367,256.992474 C881.567981,257.034679 881.782578,256.895653 881.847681,256.668994 C882.311909,255.626001 882.988266,254.705333 883.828013,253.973332 C885.154003,252.821571 886.811806,252.187275 888.524955,252.176223 L890.310639,252.176223 L890.310639,253.820577 C890.313367,253.926537 890.356054,254.026896 890.42912,254.099129 C890.494322,254.161295 890.578463,254.196391 890.666083,254.19797 C890.754013,254.198092 890.838707,254.162765 890.903046,254.099129 L894.897561,249.857954 C895.034146,249.71099 895.034146,249.47477 894.897561,249.327807 L890.911509,245.104602 C890.810151,245.001728 890.661302,244.971735 890.531494,245.028029 C890.401686,245.084323 890.315179,245.216383 890.310639,245.365183 L890.310639,247.009537 L889.591287,247.009537 C886.936147,247.047803 884.442838,248.371438 882.820922,250.603754 C881.606253,252.325739 880.966082,254.428072 881.001386,256.579139 Z" id="Path"></path>
        </g>
    </g>
</svg>