<?xml version="1.0" encoding="UTF-8"?>
<svg width="14px" height="14px" viewBox="0 0 14 14" version="1.1" xmlns="http://www.w3.org/2000/svg" xmlns:xlink="http://www.w3.org/1999/xlink">
    <!-- Generator: Sketch 52.6 (67491) - http://www.bohemiancoding.com/sketch -->
    <title>Combined Shape</title>
    <desc>Created with Sketch.</desc>
    <g id="Expanded-post-view" stroke="none" stroke-width="1" fill="none" fill-rule="evenodd" opacity="0.5">
        <g id="Expanded-post-(new-reply)" transform="translate(-578.000000, -329.000000)" fill="#34414F" stroke="#34414F" stroke-width="0.5">
            <g id="Group-6-Copy" transform="translate(569.000000, 329.000000)">
                <path d="M18.1970189,4.80313162 C18.4396866,5.04579931 18.4390754,5.43985254 18.1990411,5.67988681 L14.6798868,9.19904113 C14.438336,9.44059196 14.0474911,9.4413784 13.8031316,9.19701888 C13.5604639,8.95435118 13.5610751,8.56029795 13.8011094,8.32026368 L17.3202637,4.80110936 C17.5618145,4.55955853 17.9526593,4.55877209 18.1970189,4.80313162 Z M14.42453,11.2119528 C13.6972795,11.9392033 12.5149747,11.9387476 11.7881888,11.2119617 C11.0607901,10.4845631 11.0611585,9.30265966 11.7881977,8.57562049 L13.5457437,6.81807448 C13.7884114,6.57540679 13.7884114,6.18196472 13.5457437,5.93929703 C13.303076,5.69662934 12.9096339,5.69662934 12.6669662,5.93929703 L10.9094202,7.69684304 C9.69716822,8.90909502 9.69655465,10.8778825 10.9094113,12.0907392 C12.121381,13.3027089 14.0905699,13.3034679 15.3033075,12.0907303 L17.0608535,10.3331843 C17.3035212,10.0905166 17.3035212,9.69707452 17.0608535,9.45440683 C16.8181858,9.21173914 16.4247437,9.21173914 16.182076,9.45440683 L14.42453,11.2119528 Z M21.0907303,6.30330746 C22.3034679,5.09056985 22.3027089,3.12138101 21.0907392,1.90941131 C19.8778825,0.696554647 17.909095,0.697168221 16.696843,1.9094202 L14.939297,3.66696621 C14.6966293,3.9096339 14.6966293,4.30307597 14.939297,4.54574366 C15.1819647,4.78841136 15.5754068,4.78841136 15.8180745,4.54574366 L17.5756205,2.78819766 C18.3026597,2.06115848 19.4845631,2.06079014 20.2119617,2.78818876 C20.9387476,3.51497466 20.9392033,4.6972795 20.2119528,5.42453001 L18.4544068,7.18207602 C18.2117391,7.42474371 18.2117391,7.81818578 18.4544068,8.06085347 C18.6970745,8.30352116 19.0905166,8.30352116 19.3331843,8.06085347 L21.0907303,6.30330746 Z" id="Combined-Shape"></path>
            </g>
        </g>
    </g>
</svg>