<?xml version="1.0" encoding="UTF-8"?>
<svg width="14px" height="15px" viewBox="0 0 14 15" version="1.1" xmlns="http://www.w3.org/2000/svg" xmlns:xlink="http://www.w3.org/1999/xlink">
    <!-- Generator: Sketch 52.6 (67491) - http://www.bohemiancoding.com/sketch -->
    <title>Combined Shape</title>
    <desc>Created with Sketch.</desc>
    <g id="Expanded-post-view" stroke="none" stroke-width="1" fill="none" fill-rule="evenodd">
        <g id="Post:-Start" transform="translate(-1066.000000, -824.000000)" fill="#FFFFFF">
            <g id="Group-33" transform="translate(388.000000, 474.000000)">
                <g id="Group-27" transform="translate(526.000000, 341.000000)">
                    <g id="Group-26">
                        <g id="Group-22" transform="translate(152.000000, 8.000000)">
                            <path d="M9.71766008,8.76416667 C10.0171684,8.76416667 10.2602476,9.00891579 10.2602476,9.31048168 C10.2602476,10.7401881 8.70844735,12.0420567 7.00472263,12.0420567 C5.30099791,12.0420567 3.74919769,10.7401881 3.74919769,9.31048168 C3.74919769,9.00891579 3.99227689,8.76416667 4.29178518,8.76416667 L9.71766008,8.76416667 Z M7,13.705 C10.0877,13.705 12.6,11.1717642 12.6,8.05833333 C12.6,4.9449025 10.0877,2.41166667 7,2.41166667 C3.9123,2.41166667 1.4,4.9449025 1.4,8.05833333 C1.4,11.1717642 3.9123,13.705 7,13.705 Z M7,1 C10.8598,1 14,4.16636833 14,8.05833333 C14,11.9510042 10.8598,15.1166667 7,15.1166667 C3.1402,15.1166667 -5.32907052e-15,11.9510042 -5.32907052e-15,8.05833333 C-5.32907052e-15,4.16636833 3.1402,1 7,1 Z M5.6,4.52881375 L5.6,7.35214708 L4.2,7.35214708 L4.2,4.52881375 L5.6,4.52881375 Z M9.8,4.52881375 L9.8,7.35214708 L8.4,7.35214708 L8.4,4.52881375 L9.8,4.52881375 Z" id="Combined-Shape"></path>
                        </g>
                    </g>
                </g>
            </g>
        </g>
    </g>
</svg>