<?xml version="1.0" encoding="UTF-8"?>
<svg width="14px" height="14px" viewBox="0 0 14 14" version="1.1" xmlns="http://www.w3.org/2000/svg" xmlns:xlink="http://www.w3.org/1999/xlink">
    <!-- Generator: Sketch 48.2 (47327) - http://www.bohemiancoding.com/sketch -->
    <title>Combined Shape</title>
    <desc>Created with Sketch.</desc>
    <defs>
        <path d="M3.33307666,6.99748666 L1.33307666,6.99748666 L1.3334616,12.3341357 C1.3334616,12.3341357 2.14279413,12.3340412 3.33307666,12.3338636 L3.33307666,6.99748666 Z M1.33307666,13.6641533 C0.596838749,13.6641533 0,13.0693889 0,12.3341357 L0,6.99417099 C0,6.25962252 0.597489215,5.66415332 1.33307666,5.66415332 L3.88263607,5.66415332 C4.25219222,5.66415332 4.66893859,5.37879669 4.82809112,5.06084273 C4.98724365,4.74288877 6.90162993,0.578935337 6.90162993,0.578935337 C7.13625747,0.0717931996 7.74177242,-0.148381678 8.24725419,0.106552427 C8.24725419,0.106552427 8.73266026,0.336961235 9.05007076,0.584315162 C9.63942099,1.04358822 10.0124249,1.62571852 9.99990689,2.31967847 C10.0072481,2.75888651 9.92792451,3.40599123 9.78259513,4.22900477 C9.74375784,4.44894389 9.5650647,5.33624886 9.5650647,5.33624886 C9.52876401,5.51746 9.64993144,5.66377785 9.83563785,5.66379016 L12.2416164,5.66394968 C13.4016837,5.66394962 14.1971792,6.64082698 13.9579461,7.75926676 C13.9506676,7.79699289 13.1105438,11.1703205 12.9586908,11.5618449 C12.3930402,13.0929951 11.0816024,13.6865873 9.00326383,13.6641453 C8.04943459,13.6688151 1.33307666,13.6641533 1.33307666,13.6641533 Z" id="path-1"></path>
    </defs>
    <g id="All-Posts-(collapsed)" stroke="none" stroke-width="1" fill="none" fill-rule="evenodd" transform="translate(-864.000000, -448.000000)">
        <g id="Group-19" transform="translate(864.000000, 448.000000)">
            <g id="Combined-Shape">
                <use fill="#FFFFFF" fill-rule="evenodd" xlink:href="#path-1"></use>
                <path stroke="#898D93" stroke-width="1.5" d="M0.583022555,6.24748666 L4.08307666,6.24748666 L4.08307666,13.0837517 L3.33318856,13.0838636 C1.73822512,13.0840884 1.73822512,13.0840884 1.33354916,13.0841356 L0.583515701,13.0842232 L0.583022555,6.24748666 Z M1.33307666,12.9141533 L1.33359723,12.9141535 C1.42674743,12.9142182 1.42674743,12.9142182 1.83492239,12.9144768 C2.37177199,12.9148002 2.37177199,12.9148002 3.10829404,12.9151882 C3.83945248,12.9155557 4.55380584,12.915844 5.22444329,12.9160229 C7.24950644,12.9165632 8.61196334,12.9160521 9.01136188,12.9141891 C10.8771328,12.9343357 11.8328284,12.4451542 12.2594424,11.2906408 C12.3555444,11.04286 13.1846724,7.80821132 13.2245362,7.60239111 C13.3638419,6.95112251 12.9246495,6.41394965 12.2415667,6.41394968 L9.83558812,6.41379016 C9.17796952,6.41374656 8.70010979,5.83571553 8.82982619,5.18818018 C8.85779398,5.04930547 8.89982575,4.83940421 8.94180803,4.62736972 C8.94326965,4.61998701 8.94326965,4.61998701 8.94473078,4.6126038 C8.99467873,4.36018748 9.0304055,4.17569489 9.04402155,4.09858597 C9.18781545,3.28426798 9.25609005,2.69587113 9.25002888,2.30615178 C9.25725222,1.90571219 9.04226439,1.52907336 8.58905915,1.17589634 C8.53549383,1.13415358 8.46657639,1.08697414 8.38661047,1.03718348 C8.21439515,0.929953853 8.0360995,0.836527339 7.90952158,0.776206577 C7.78760229,0.71471794 7.64113495,0.766706591 7.58306189,0.892225104 C7.51833709,1.03300707 7.51833709,1.03300707 7.25935297,1.59582394 C7.01647601,2.12348247 6.77336807,2.65114771 6.54612759,3.14368011 C6.54337311,3.14965028 6.54337311,3.14965028 6.5406186,3.15562042 C5.94307346,4.45073742 5.5715704,5.2510956 5.49876333,5.39654913 C5.21057011,5.97229979 4.53327101,6.41415332 3.88263607,6.41415332 L1.33307666,6.41415332 C1.01103649,6.41415332 0.75,6.67450307 0.75,6.99417099 L0.75,12.3341357 C0.75,12.6544841 1.01036175,12.9141533 1.33307666,12.9141533 Z"></path>
            </g>
        </g>
    </g>
</svg>