<?xml version="1.0" encoding="UTF-8"?>
<svg width="14px" height="14px" viewBox="0 0 14 14" version="1.1" xmlns="http://www.w3.org/2000/svg" xmlns:xlink="http://www.w3.org/1999/xlink">
    <!-- Generator: Sketch 52.6 (67491) - http://www.bohemiancoding.com/sketch -->
    <title>Combined Shape Copy 2</title>
    <desc>Created with Sketch.</desc>
    <g id="Post-consumption" stroke="none" stroke-width="1" fill="none" fill-rule="evenodd">
        <g id="1.99-commenting-(comment-edit-hover)" transform="translate(-1044.000000, -483.000000)" fill="#FFFFFF">
            <g id="Group-5" transform="translate(964.000000, 443.000000)">
                <g id="Group-11" transform="translate(0.000000, 34.000000)">
                    <g id="Group">
                        <path d="M89.7176601,13.7 C90.0171684,13.7 90.2602476,13.9427264 90.2602476,14.2418 C90.2602476,15.6596906 88.7084473,16.9508001 87.0047226,16.9508001 C85.3009979,16.9508001 83.7491977,15.6596906 83.7491977,14.2418 C83.7491977,13.9427264 83.9922769,13.7 84.2917852,13.7 L89.7176601,13.7 Z M87,18.6 C90.0877,18.6 92.6,16.0877 92.6,13 C92.6,9.9123 90.0877,7.4 87,7.4 C83.9123,7.4 81.4,9.9123 81.4,13 C81.4,16.0877 83.9123,18.6 87,18.6 Z M87,6 C90.8598,6 94,9.1402 94,13 C94,16.8605 90.8598,20 87,20 C83.1402,20 80,16.8605 80,13 C80,9.1402 83.1402,6 87,6 Z M85.6,9.49965 L85.6,12.29965 L84.2,12.29965 L84.2,9.49965 L85.6,9.49965 Z M89.8,9.49965 L89.8,12.29965 L88.4,12.29965 L88.4,9.49965 L89.8,9.49965 Z" id="Combined-Shape-Copy-2"></path>
                    </g>
                </g>
            </g>
        </g>
    </g>
</svg>