<?xml version="1.0" encoding="UTF-8"?>
<svg width="14px" height="14px" viewBox="0 0 14 14" version="1.1" xmlns="http://www.w3.org/2000/svg" xmlns:xlink="http://www.w3.org/1999/xlink">
    <!-- Generator: Sketch 48.2 (47327) - http://www.bohemiancoding.com/sketch -->
    <title>Combined Shape</title>
    <desc>Created with Sketch.</desc>
    <defs>
        <path d="M349.333077,427.997487 L347.333077,427.997487 L347.333462,433.334136 C347.333462,433.334136 348.142794,433.334041 349.333077,433.333864 L349.333077,427.997487 Z M347.333077,434.664153 C346.596839,434.664153 346,434.069389 346,433.334136 L346,427.994171 C346,427.259623 346.597489,426.664153 347.333077,426.664153 L349.882636,426.664153 C350.252192,426.664153 350.668939,426.378797 350.828091,426.060843 C350.987244,425.742889 352.90163,421.578935 352.90163,421.578935 C353.136257,421.071793 353.741772,420.851618 354.247254,421.106552 C354.247254,421.106552 354.73266,421.336961 355.050071,421.584315 C355.639421,422.043588 356.012425,422.625719 355.999907,423.319678 C356.007248,423.758887 355.927925,424.405991 355.782595,425.229005 C355.743758,425.448944 355.565065,426.336249 355.565065,426.336249 C355.528764,426.51746 355.649931,426.663778 355.835638,426.66379 L358.241616,426.66395 C359.401684,426.66395 360.197179,427.640827 359.957946,428.759267 C359.950668,428.796993 359.110544,432.170321 358.958691,432.561845 C358.39304,434.092995 357.081602,434.686587 355.003264,434.664145 C354.049435,434.668815 347.333077,434.664153 347.333077,434.664153 Z" id="path-1"></path>
    </defs>
    <g id="UI-Guides" stroke="none" stroke-width="1" fill="none" fill-rule="evenodd" transform="translate(-346.000000, -421.000000)">
        <g id="Combined-Shape">
            <use fill="#FFFFFF" fill-rule="evenodd" xlink:href="#path-1"></use>
            <path stroke="#898D93" stroke-width="1.5" d="M346.583023,427.247487 L350.083077,427.247487 L350.083077,434.083752 L349.333189,434.083864 C347.738225,434.084088 347.738225,434.084088 347.333549,434.084136 L346.583516,434.084223 L346.583023,427.247487 Z M347.333077,433.914153 L347.333597,433.914154 C347.426747,433.914218 347.426747,433.914218 347.834922,433.914477 C348.371772,433.9148 348.371772,433.9148 349.108294,433.915188 C349.839452,433.915556 350.553806,433.915844 351.224443,433.916023 C353.249506,433.916563 354.611963,433.916052 355.011362,433.914189 C356.877133,433.934336 357.832828,433.445154 358.259442,432.290641 C358.355544,432.04286 359.184672,428.808211 359.224536,428.602391 C359.363842,427.951123 358.92465,427.41395 358.241567,427.41395 L355.835588,427.41379 C355.17797,427.413747 354.70011,426.835716 354.829826,426.18818 C354.857794,426.049305 354.899826,425.839404 354.941808,425.62737 C354.94327,425.619987 354.94327,425.619987 354.944731,425.612604 C354.994679,425.360187 355.030406,425.175695 355.044022,425.098586 C355.187815,424.284268 355.25609,423.695871 355.250029,423.306152 C355.257252,422.905712 355.042264,422.529073 354.589059,422.175896 C354.535494,422.134154 354.466576,422.086974 354.38661,422.037183 C354.214395,421.929954 354.0361,421.836527 353.909522,421.776207 C353.787602,421.714718 353.641135,421.766707 353.583062,421.892225 C353.518337,422.033007 353.518337,422.033007 353.259353,422.595824 C353.016476,423.123482 352.773368,423.651148 352.546128,424.14368 C352.543373,424.14965 352.543373,424.14965 352.540619,424.15562 C351.943073,425.450737 351.57157,426.251096 351.498763,426.396549 C351.21057,426.9723 350.533271,427.414153 349.882636,427.414153 L347.333077,427.414153 C347.011036,427.414153 346.75,427.674503 346.75,427.994171 L346.75,433.334136 C346.75,433.654484 347.010362,433.914153 347.333077,433.914153 Z"></path>
        </g>
    </g>
</svg>