<?xml version="1.0" encoding="UTF-8"?>
<svg width="24px" height="24px" viewBox="0 0 24 24" version="1.1" xmlns="http://www.w3.org/2000/svg" xmlns:xlink="http://www.w3.org/1999/xlink">
    <!-- Generator: Sketch 51.3 (57544) - http://www.bohemiancoding.com/sketch -->
    <title>Combined Shape</title>
    <desc>Created with Sketch.</desc>
    <defs></defs>
    <g id="Post-creation" stroke="none" stroke-width="1" fill="none" fill-rule="evenodd">
        <g id="Create-(bottom-full)" transform="translate(-689.000000, -339.000000)">
            <g id="Group-13" transform="translate(605.000000, 330.000000)">
                <g id="Combined-Shape" transform="translate(84.000000, 9.000000)">
                    <path d="M0,2.66011906 C0,1.19097587 0.978049764,0 2.18280545,0 L21.8171945,0 C23.0227247,0 24,1.19016373 24,2.66011906 L24,21.3398809 C24,22.8090241 23.0219502,24 21.8171945,24 L2.18280545,24 C0.977275288,24 0,22.8098363 0,21.3398809 L0,2.66011906 Z" fill="#34414F" fill-rule="nonzero"></path>
                    <path d="M14.3226442,9.67751487 C14.5791876,9.93405828 14.5785415,10.3506434 14.3247821,10.6044029 L10.6044029,14.3247821 C10.3490402,14.5801448 9.93584685,14.5809762 9.67751487,14.3226442 C9.42097146,14.0661008 9.42161757,13.6495157 9.67537698,13.3957562 L13.3957562,9.67537698 C13.6511189,9.42001429 14.0643122,9.41918288 14.3226442,9.67751487 Z M9.67752427,17.1097125 C8.90868964,17.8785471 7.65878071,17.8780653 6.89043725,17.1097219 C6.12144603,16.3407306 6.12183544,15.091246 6.89044665,14.3226348 L8.74848899,12.4645925 C9.0050324,12.2080491 9.0050324,11.79211 8.74848899,11.5355666 C8.49194558,11.2790232 8.07600653,11.2790232 7.81946312,11.5355666 L5.96142078,13.393609 C4.67985233,14.6751774 4.67920367,16.75654 5.96141137,18.0387477 C7.2426814,19.3200178 9.3244683,19.3208202 10.6065501,18.0387383 L12.4645925,16.180696 C12.7211359,15.9241526 12.7211359,15.5082135 12.4645925,15.2516701 C12.2080491,14.9951267 11.79211,14.9951267 11.5355666,15.2516701 L9.67752427,17.1097125 Z M18.0387383,10.6065501 C19.3208202,9.3244683 19.3200178,7.2426814 18.0387477,5.96141137 C16.75654,4.67920367 14.6751774,4.67985233 13.393609,5.96142078 L11.5355666,7.81946312 C11.2790232,8.07600653 11.2790232,8.49194558 11.5355666,8.74848899 C11.79211,9.0050324 12.2080491,9.0050324 12.4645925,8.74848899 L14.3226348,6.89044665 C15.091246,6.12183544 16.3407306,6.12144603 17.1097219,6.89043725 C17.8780653,7.65878071 17.8785471,8.90868964 17.1097125,9.67752427 L15.2516701,11.5355666 C14.9951267,11.79211 14.9951267,12.2080491 15.2516701,12.4645925 C15.5082135,12.7211359 15.9241526,12.7211359 16.180696,12.4645925 L18.0387383,10.6065501 Z" fill="#FFFFFF" fill-rule="evenodd"></path>
                </g>
            </g>
        </g>
    </g>
</svg>