<?xml version="1.0" encoding="UTF-8"?>
<svg width="241px" height="24px" viewBox="0 0 241 24" version="1.1" xmlns="http://www.w3.org/2000/svg" xmlns:xlink="http://www.w3.org/1999/xlink">
    <!-- Generator: Sketch 52 (66869) - http://www.bohemiancoding.com/sketch -->
    <title>Group 5</title>
    <desc>Created with Sketch.</desc>
    <g id="Website" stroke="none" stroke-width="1" fill="none" fill-rule="evenodd">
        <g id="Join-your-team-/-grid" transform="translate(-720.000000, -457.000000)" fill="#FFFFFF">
            <g id="Group-29" transform="translate(680.000000, 437.000000)">
                <g id="Group">
                    <g id="Group-5" transform="translate(40.000000, 20.000000)">
                        <text id="Button-Label" font-family="Avenir-Black, Avenir" font-size="16" font-weight="700" letter-spacing="0.5714285">
                            <tspan x="40.1274293" y="18">CONTINUE WITH SLACK</tspan>
                        </text>
                        <g id="Group-12">
                            <polyline id="Fill-9" points="9.72793701 11.0044724 10.7459528 14.0435906 13.9033701 12.9860787 12.8855433 9.94696063 9.72793701 11.0044724"></polyline>
                            <path d="M18.5353701,14.0184567 L17.0042835,14.5311496 L17.5349291,16.1153386 C17.7497953,16.7569134 17.4039685,17.4512126 16.7623937,17.6658898 C16.6229291,17.7127559 16.4808189,17.7329764 16.3419213,17.7291969 C15.8415118,17.7163465 15.3800315,17.3954646 15.2120315,16.8935433 L14.6813858,15.3091654 L11.5239685,16.3664882 L12.0546142,17.9508661 C12.2694803,18.592252 11.9236535,19.2865512 11.2820787,19.5014173 C11.1426142,19.5480945 11.0006929,19.568315 10.8616063,19.5647244 C10.3613858,19.551685 9.89990551,19.2308031 9.73171654,18.7288819 L9.20107087,17.1445039 L7.66979528,17.6573858 C7.53014173,17.704063 7.38822047,17.7242835 7.24913386,17.7206929 C6.74891339,17.7076535 6.28743307,17.3867717 6.11924409,16.8848504 C5.90437795,16.2432756 6.2503937,15.5491654 6.89177953,15.3342992 L8.42305512,14.8216063 L7.40503937,11.7824882 L5.87395276,12.2951811 C5.73448819,12.3418583 5.59237795,12.3620787 5.45329134,12.3584882 C4.95325984,12.3454488 4.49159055,12.0245669 4.32359055,11.5226457 C4.10872441,10.8810709 4.45455118,10.1869606 5.09612598,9.97209449 L6.62702362,9.45940157 L6.09637795,7.87502362 C5.88151181,7.2336378 6.22733858,6.53952756 6.86891339,6.32447244 C7.51048819,6.10979528 8.20459843,6.45562205 8.41927559,7.09700787 L8.94992126,8.68138583 L12.1073386,7.62406299 L11.5766929,6.03968504 C11.3618268,5.39811024 11.7078425,4.704 12.3492283,4.48913386 C12.9906142,4.27426772 13.6849134,4.62028346 13.8997795,5.26166929 L14.4304252,6.84604724 L15.9615118,6.33316535 C16.6032756,6.11848819 17.2971969,6.46431496 17.512063,7.10570079 C17.7269291,7.74727559 17.3809134,8.44138583 16.7395276,8.65625197 L15.2084409,9.16894488 L16.2262677,12.208252 L17.7575433,11.6953701 C18.3991181,11.4806929 19.0932283,11.8265197 19.3079055,12.4679055 C19.5227717,13.1092913 19.1769449,13.8035906 18.5353701,14.0184567 Z M22.6423937,8.74714961 C20.2062992,0.627212598 16.6875591,-1.26746457 8.56762205,1.16862992 C0.447685039,3.60472441 -1.44699213,7.12346457 0.989102362,15.2434016 C3.42519685,23.3633386 6.94393701,25.2580157 15.063874,22.8219213 C23.183811,20.3858268 25.0784882,16.8670866 22.6423937,8.74714961 Z" id="Fill-11"></path>
                        </g>
                    </g>
                </g>
            </g>
        </g>
    </g>
</svg>