<svg width="17" height="16" viewBox="0 0 17 16" fill="none" xmlns="http://www.w3.org/2000/svg">
<path fill-rule="evenodd" clip-rule="evenodd" d="M1 4.49966H2.146C2.58835 5.9828 3.9523 6.99932 5.5 6.99932C7.0477 6.99932 8.41165 5.9828 8.854 4.49966H16C16.5523 4.49966 17 4.05194 17 3.49966C17 2.94737 16.5523 2.49966 16 2.49966H8.854C8.41165 1.01651 7.0477 0 5.5 0C3.9523 0 2.58835 1.01651 2.146 2.49966H1C0.447715 2.49966 0 2.94737 0 3.49966C0 4.05194 0.447715 4.49966 1 4.49966ZM5.50005 1.99966C6.32848 1.99966 7.00005 2.67124 7.00005 3.49966C7.00005 4.32809 6.32848 4.99966 5.50005 4.99966C4.67163 4.99966 4.00005 4.32809 4.00005 3.49966C4.00005 2.67124 4.67163 1.99966 5.50005 1.99966ZM1 13.4997H7.646C8.08835 14.9828 9.4523 15.9993 11 15.9993C12.5477 15.9993 13.9116 14.9828 14.354 13.4997H16C16.5523 13.4997 17 13.0519 17 12.4997C17 11.9474 16.5523 11.4997 16 11.4997H14.354C13.9116 10.0165 12.5477 9 11 9C9.4523 9 8.08835 10.0165 7.646 11.4997H1C0.447715 11.4997 0 11.9474 0 12.4997C0 13.0519 0.447715 13.4997 1 13.4997ZM11 10.9997C11.8284 10.9997 12.5 11.6712 12.5 12.4997C12.5 13.3281 11.8284 13.9997 11 13.9997C10.1716 13.9997 9.50001 13.3281 9.50001 12.4997C9.50001 11.6712 10.1716 10.9997 11 10.9997Z" fill="#242D42"/>
</svg>
