<?xml version="1.0" encoding="UTF-8"?>
<svg width="18px" height="18px" viewBox="0 0 18 18" version="1.1" xmlns="http://www.w3.org/2000/svg" xmlns:xlink="http://www.w3.org/1999/xlink">
    <!-- Generator: Sketch 49 (51002) - http://www.bohemiancoding.com/sketch -->
    <title>All posts icon</title>
    <desc>Created with Sketch.</desc>
    <defs></defs>
    <g id="➡️-Boards-&amp;-Posts" stroke="none" stroke-width="1" fill="none" fill-rule="evenodd">
        <g id="Nav-Redlines" transform="translate(-652.000000, -308.000000)" fill="#34414F">
            <path d="M652.81962,324.104106 L652.01021,316.094901 C651.895088,314.955759 652.767372,314 653.92668,314 L668.073313,314 C669.230225,314 670.105103,314.953792 669.989783,316.094901 L669.180373,324.104106 C669.073336,325.163248 668.140501,326 667.068018,326 L654.931974,326 C653.855491,326 652.92699,325.166547 652.81962,324.104106 Z M667.967295,316.007904 L654.032325,316.004211 L654.936398,324 L667.063594,324 L667.967295,316.007904 Z M655.946998,309 C655.946998,308.447715 656.400865,308 656.952947,308 L665.047046,308 C665.602616,308 666.052994,308.443865 666.052994,309 C666.052994,309.552285 665.599128,310 665.047046,310 L656.952947,310 C656.397377,310 655.946998,309.556135 655.946998,309 Z M653.925799,312 C653.925799,311.447715 654.380517,311 654.931974,311 L667.068018,311 C667.623714,311 668.074194,311.443865 668.074194,312 C668.074194,312.552285 667.619476,313 667.068018,313 L654.931974,313 C654.376279,313 653.925799,312.556135 653.925799,312 Z" id="All-posts-icon"></path>
        </g>
    </g>
</svg>