<?xml version="1.0" encoding="UTF-8"?>
<svg width="16px" height="16px" viewBox="0 0 16 16" version="1.1" xmlns="http://www.w3.org/2000/svg" xmlns:xlink="http://www.w3.org/1999/xlink">
    <!-- Generator: Sketch 50.2 (55047) - http://www.bohemiancoding.com/sketch -->
    <title>All posts icon</title>
    <desc>Created with Sketch.</desc>
    <defs></defs>
    <g id="Nav-updates" stroke="none" stroke-width="1" fill="none" fill-rule="evenodd">
        <g transform="translate(-377.000000, -113.000000)" fill="#3FBD7C" id="Group-Copy">
            <g transform="translate(360.000000, 107.000000)">
                <path d="M17.7285509,20.314761 L17.0090754,13.1954678 C16.906745,12.1828968 17.6821081,11.3333333 18.7126042,11.3333333 L31.2873892,11.3333333 C32.315756,11.3333333 33.0934251,12.1811485 32.990918,13.1954678 L32.2714425,20.314761 C32.1762986,21.2562208 31.3471123,22 30.3937941,22 L19.6061993,22 C18.6493253,22 17.8239911,21.2591531 17.7285509,20.314761 Z M31.1931508,13.1181366 L18.8065109,13.1148545 L19.6101319,20.2222222 L30.3898614,20.2222222 L31.1931508,13.1181366 Z M20.5084427,6.88888889 C20.5084427,6.39796911 20.9118797,6 21.4026191,6 L28.5973743,6 C29.0912142,6 29.4915506,6.39454651 29.4915506,6.88888889 C29.4915506,7.37980867 29.0881137,7.77777778 28.5973743,7.77777778 L21.4026191,7.77777778 C20.9087791,7.77777778 20.5084427,7.38323127 20.5084427,6.88888889 Z M18.7118212,9.55555556 C18.7118212,9.06463578 19.116015,8.66666667 19.6061993,8.66666667 L30.3937941,8.66666667 C30.8877455,8.66666667 31.2881722,9.06121318 31.2881722,9.55555556 C31.2881722,10.0464753 30.8839784,10.4444444 30.3937941,10.4444444 L19.6061993,10.4444444 C19.1122479,10.4444444 18.7118212,10.0498979 18.7118212,9.55555556 Z" id="All-posts-icon" transform="translate(25.000000, 14.000000) scale(1, -1) translate(-25.000000, -14.000000) "></path>
            </g>
        </g>
    </g>
</svg>