<?xml version="1.0" encoding="UTF-8"?>
<svg width="14px" height="13px" viewBox="0 0 14 13" version="1.1" xmlns="http://www.w3.org/2000/svg" xmlns:xlink="http://www.w3.org/1999/xlink">
    <!-- Generator: Sketch 52.6 (67491) - http://www.bohemiancoding.com/sketch -->
    <title>Combined Shape Copy 4</title>
    <desc>Created with Sketch.</desc>
    <g id="Inbox/unread" stroke="none" stroke-width="1" fill="none" fill-rule="evenodd">
        <g id="Inbox:-FoC-(hover)" transform="translate(-188.000000, -202.000000)" fill="#FFFFFF">
            <g id="Group-30" transform="translate(172.000000, 80.000000)">
                <g id="Group-6" transform="translate(0.000000, 112.000000)">
                    <path d="M16.637482,20.7612372 L16.0079409,14.4719577 C15.9184018,13.5774389 16.5968446,12.8269231 17.4985287,12.8269231 L28.5014656,12.8269231 C29.4012865,12.8269231 30.081747,13.5758944 29.9920533,14.4719577 L29.3625122,20.7612372 C29.2792613,21.5929354 28.5537233,22.25 27.7195698,22.25 L18.2804244,22.25 C17.4431596,22.25 16.7209922,21.5955259 16.637482,20.7612372 Z M17.75,10.9423077 C17.75,10.4218855 18.0874616,10 18.4967166,10 L27.5032834,10 C27.9156836,10 28.25,10.4182572 28.25,10.9423077 C28.25,11.4627299 27.9125384,11.8846154 27.5032834,11.8846154 L18.4967166,11.8846154 C18.0843164,11.8846154 17.75,11.4663581 17.75,10.9423077 Z" id="Combined-Shape-Copy-4" transform="translate(23.000000, 16.125000) scale(1, -1) translate(-23.000000, -16.125000) "></path>
                </g>
            </g>
        </g>
    </g>
</svg>