<?xml version="1.0" encoding="UTF-8"?>
<svg width="16px" height="14px" viewBox="0 0 16 14" version="1.1" xmlns="http://www.w3.org/2000/svg" xmlns:xlink="http://www.w3.org/1999/xlink">
    <!-- Generator: Sketch 52.6 (67491) - http://www.bohemiancoding.com/sketch -->
    <title>Combined Shape Copy 4</title>
    <desc>Created with Sketch.</desc>
    <g id="Symbols" stroke="none" stroke-width="1" fill="none" fill-rule="evenodd">
        <g id="4d2ac49f-d9e1-4767-84a8-4574f3464dfc" transform="translate(-16.000000, -10.000000)" fill="#848D95">
            <g id="Side-nav-labels">
                <g id="Group-10">
                    <g id="Group-9">
                        <g id="Group-15" transform="translate(16.000000, 8.000000)">
                            <path d="M0.728550874,14.2985568 L0.00907535823,7.11080885 C-0.0932550347,6.08850155 0.682108062,5.23076923 1.71260418,5.23076923 L14.2873892,5.23076923 C15.315756,5.23076923 16.0934251,6.08673642 15.990918,7.11080885 L15.2714425,14.2985568 C15.1762986,15.2490691 14.3471123,16 13.3937941,16 L2.60619928,16 C1.6493253,16 0.823991104,15.2520296 0.728550874,14.2985568 Z M14,7.38759922 L2,7.38461538 L2.77853658,13.8461538 L13.2217847,13.8461538 L14,7.38759922 Z M2,3.07692308 C2,2.48215488 2.38567036,2 2.85339042,2 L13.1466096,2 C13.6179241,2 14,2.47800827 14,3.07692308 C14,3.67169127 13.6143296,4.15384615 13.1466096,4.15384615 L2.85339042,4.15384615 C2.3820759,4.15384615 2,3.67583788 2,3.07692308 Z" id="Combined-Shape-Copy-4" transform="translate(8.000000, 9.000000) scale(1, -1) translate(-8.000000, -9.000000) "></path>
                        </g>
                    </g>
                </g>
            </g>
        </g>
    </g>
</svg>