<?xml version="1.0" encoding="UTF-8"?>
<svg width="18px" height="18px" viewBox="0 0 18 18" version="1.1" xmlns="http://www.w3.org/2000/svg" xmlns:xlink="http://www.w3.org/1999/xlink">
    <!-- Generator: Sketch 49 (51002) - http://www.bohemiancoding.com/sketch -->
    <title>All posts icon</title>
    <desc>Created with Sketch.</desc>
    <defs></defs>
    <g id="➡️-Boards-&amp;-Posts" stroke="none" stroke-width="1" fill="none" fill-rule="evenodd">
        <g id="Nav-Redlines" transform="translate(-412.000000, -308.000000)" fill="#3FBD7C">
            <path d="M412.81962,324.104106 L412.01021,316.094901 C411.895088,314.955759 412.767372,314 413.92668,314 L428.073313,314 C429.230225,314 430.105103,314.953792 429.989783,316.094901 L429.180373,324.104106 C429.073336,325.163248 428.140501,326 427.068018,326 L414.931974,326 C413.855491,326 412.92699,325.166547 412.81962,324.104106 Z M427.967295,316.007904 L414.032325,316.004211 L414.936398,324 L427.063594,324 L427.967295,316.007904 Z M415.946998,309 C415.946998,308.447715 416.400865,308 416.952947,308 L425.047046,308 C425.602616,308 426.052994,308.443865 426.052994,309 C426.052994,309.552285 425.599128,310 425.047046,310 L416.952947,310 C416.397377,310 415.946998,309.556135 415.946998,309 Z M413.925799,312 C413.925799,311.447715 414.380517,311 414.931974,311 L427.068018,311 C427.623714,311 428.074194,311.443865 428.074194,312 C428.074194,312.552285 427.619476,313 427.068018,313 L414.931974,313 C414.376279,313 413.925799,312.556135 413.925799,312 Z" id="All-posts-icon"></path>
        </g>
    </g>
</svg>