<?xml version="1.0" encoding="UTF-8"?>
<svg width="14px" height="14px" viewBox="0 0 14 14" version="1.1" xmlns="http://www.w3.org/2000/svg" xmlns:xlink="http://www.w3.org/1999/xlink">
    <!-- Generator: Sketch 49 (51002) - http://www.bohemiancoding.com/sketch -->
    <title>Combined Shape Copy 5</title>
    <desc>Created with Sketch.</desc>
    <defs></defs>
    <g id="👋-Onboarding" stroke="none" stroke-width="1" fill="none" fill-rule="evenodd">
        <g id="8:-Empty-all-posts" transform="translate(-48.000000, -162.000000)" fill="#E4E3DE">
            <path d="M55,166.632612 L59.1458764,162.486736 C59.7974252,161.835187 60.8533513,161.838592 61.506727,162.491968 C62.1646579,163.149899 62.1624451,164.202332 61.511959,164.852819 L57.3660825,168.998695 L61.511959,173.144571 C62.1624451,173.795058 62.1646579,174.847491 61.506727,175.505422 C60.8533513,176.158798 59.7974252,176.162203 59.1458764,175.510654 L55,171.364778 L50.8541236,175.510654 C50.2025748,176.162203 49.1466487,176.158798 48.493273,175.505422 C47.8353421,174.847491 47.8375549,173.795058 48.488041,173.144571 L52.6339175,168.998695 L48.488041,164.852819 C47.8375549,164.202332 47.8353421,163.149899 48.493273,162.491968 C49.1466487,161.838592 50.2025748,161.835187 50.8541236,162.486736 L55,166.632612 Z" id="Combined-Shape-Copy-5"></path>
        </g>
    </g>
</svg>