<?xml version="1.0" encoding="UTF-8"?>
<svg width="32px" height="32px" viewBox="0 0 32 32" version="1.1" xmlns="http://www.w3.org/2000/svg" xmlns:xlink="http://www.w3.org/1999/xlink">
    <!-- Generator: Sketch 51.2 (57519) - http://www.bohemiancoding.com/sketch -->
    <title>Group</title>
    <desc>Created with Sketch.</desc>
    <defs></defs>
    <g id="NUX" stroke="none" stroke-width="1" fill="none" fill-rule="evenodd">
        <g id="Tooltip:-welcome" transform="translate(-963.000000, -176.000000)" fill="#FDAB1D" fill-rule="nonzero">
            <g id="Group-19" transform="translate(292.000000, 159.000000)">
                <g id="Group" transform="translate(671.000000, 17.000000)">
                    <path d="M16,32 C7.163444,32 0,24.836556 0,16 C0,7.163444 7.163444,0 16,0 C24.836556,0 32,7.163444 32,16 C32,24.836556 24.836556,32 16,32 Z" id="Combined-Shape" opacity="0.200000003"></path>
                    <path d="M21.3949661,11.5949834 C21.6683379,11.3216211 21.6683456,10.8784057 21.3949834,10.6050339 C21.1216211,10.3316621 20.6784057,10.3316544 20.4050339,10.6050166 L16,15.0098969 L11.5949661,10.6050166 C11.3215943,10.3316544 10.8783789,10.3316621 10.6050166,10.6050339 C10.3316544,10.8784057 10.3316621,11.3216211 10.6050339,11.5949834 L15.0100332,15.9998291 L10.6050339,20.4046748 C10.3316621,20.6780371 10.3316544,21.1212525 10.6050166,21.3946243 C10.8783789,21.6679961 11.3215943,21.6680038 11.5949661,21.3946416 L16,16.9897613 L20.4050339,21.3946416 C20.6784057,21.6680038 21.1216211,21.6679961 21.3949834,21.3946243 C21.6683456,21.1212525 21.6683379,20.6780371 21.3949661,20.4046748 L16.9899668,15.9998291 L21.3949661,11.5949834 Z" id="Combined-Shape"></path>
                </g>
            </g>
        </g>
    </g>
</svg>