<?xml version="1.0" encoding="UTF-8"?>
<svg width="12px" height="16px" viewBox="0 0 12 16" version="1.1" xmlns="http://www.w3.org/2000/svg" xmlns:xlink="http://www.w3.org/1999/xlink">
    <!-- Generator: Sketch 52.6 (67491) - http://www.bohemiancoding.com/sketch -->
    <title>Combined Shape</title>
    <desc>Created with Sketch.</desc>
    <g id="Mobile-MVP" stroke="none" stroke-width="1" fill="none" fill-rule="evenodd">
        <g id="Mobile-App-MVP---Menu-(July-17)" transform="translate(-18.000000, -174.000000)" fill="#FFFFFF">
            <g id="Group-28">
                <g id="Group-27" transform="translate(0.000000, 48.000000)">
                    <g id="Group-26" transform="translate(0.000000, 48.000000)">
                        <g id="Group-23" transform="translate(0.000000, 1.000000)">
                            <g id="Group-16">
                                <g id="Group-19-Copy" transform="translate(0.000000, 68.000000)">
                                    <path d="M26.4375,10.1585389 L26.4375,13.0000004 L29.1003736,13.0000004 L29.7367732,13.6790806 C29.8821494,13.8342065 30,14.1423704 30,14.359404 L30,23.4005829 C30,24.2839166 29.3291147,25 28.4984034,25 L19.5015966,25 C18.6722877,25 18,24.2814301 18,23.3999898 L18,10.6000102 C18,9.71634897 18.6719105,9 19.496603,9 L24.9770932,9 C25.1840249,9 25.4713478,9.12759082 25.6150029,9.2808803 L26.4375,10.1585389 Z" id="Combined-Shape"></path>
                                </g>
                            </g>
                        </g>
                    </g>
                </g>
            </g>
        </g>
    </g>
</svg>