<?xml version="1.0" encoding="UTF-8"?>
<svg width="16px" height="16px" viewBox="0 0 16 16" version="1.1" xmlns="http://www.w3.org/2000/svg" xmlns:xlink="http://www.w3.org/1999/xlink">
    <!-- Generator: Sketch 50.2 (55047) - http://www.bohemiancoding.com/sketch -->
    <title>Combined Shape</title>
    <desc>Created with Sketch.</desc>
    <defs></defs>
    <g id="Mobile-density-udpates" stroke="none" stroke-width="1" fill="none" fill-rule="evenodd">
        <g id="Mobile-menu" transform="translate(-30.000000, -296.000000)" fill="#34414F">
            <path d="M31.6000106,308.122378 L31.6011963,308.872777 C32.0209401,308.728824 32.5045946,308.824366 32.839503,309.159403 C33.1758683,309.495898 33.2707431,309.982494 33.1241277,310.403663 L33.8665238,310.40556 L35.1069441,309.164662 L32.8335721,306.890414 C32.0869967,307.636017 31.6000106,308.122378 31.6000106,308.122378 Z M43.2646091,296.469195 L45.5310751,298.736534 C46.1557553,299.361454 46.1565044,300.373902 45.532144,300.998502 L34.8168021,311.717972 C34.661102,311.873732 34.3571095,312 34.1324417,312 L30.800307,312 C30.3583097,312 30,311.644062 30,311.199482 L30,307.86647 C30,307.644149 30.1280554,307.335945 30.2820651,307.182027 L41.0029288,296.467594 C41.6273402,295.843558 42.6398354,295.84418 43.2646091,296.469195 Z" id="Combined-Shape"></path>
        </g>
    </g>
</svg>