<?xml version="1.0" encoding="UTF-8"?>
<svg width="16px" height="16px" viewBox="0 0 16 16" version="1.1" xmlns="http://www.w3.org/2000/svg" xmlns:xlink="http://www.w3.org/1999/xlink">
    <!-- Generator: Sketch 47.1 (45422) - http://www.bohemiancoding.com/sketch -->
    <title>Group Copy</title>
    <desc>Created with Sketch.</desc>
    <defs></defs>
    <g id="Symbols" stroke="none" stroke-width="1" fill="none" fill-rule="evenodd">
        <g id="Comment-buttons" transform="translate(-8.000000, -8.000000)" fill="#148A4D">
            <g id="Group-Copy" transform="translate(8.000000, 8.000000)">
                <path d="M8,11.7040741 C6.78814815,11.7040741 5.70814815,10.9996296 5.25851852,10.2225926 L10.7481481,10.2225926 C10.3103704,11.0018519 9.24740741,11.7040741 8,11.7040741 M11.7037037,8.74111111 L4.2962963,8.74111111 C3.88740741,8.74111111 3.55555556,9.07296296 3.55555556,9.48185185 C3.55555556,11.4203704 5.67407407,13.1855556 8,13.1855556 C10.3259259,13.1855556 12.4444444,11.4203704 12.4444444,9.48185185 C12.4444444,9.07296296 12.1125926,8.74111111 11.7037037,8.74111111" id="Fill-144"></path>
                <path d="M8,13.9262963 C4.73259259,13.9262963 2.07407407,11.2677778 2.07407407,8.00037037 C2.07407407,4.73296296 4.73259259,2.07444444 8,2.07444444 C11.2674074,2.07444444 13.9259259,4.73296296 13.9259259,8.00037037 C13.9259259,11.2677778 11.2674074,13.9262963 8,13.9262963 M8,0.592962963 C3.91555556,0.592962963 0.592592593,3.91592593 0.592592593,8.00037037 C0.592592593,12.0855556 3.91555556,15.4077778 8,15.4077778 C12.0844444,15.4077778 15.4074074,12.0855556 15.4074074,8.00037037 C15.4074074,3.91592593 12.0844444,0.592962963 8,0.592962963" id="Fill-145"></path>
                <polygon id="Fill-146" points="6.51851852 4.2962963 5.03703704 4.2962963 5.03703704 7.25925926 6.51851852 7.25925926"></polygon>
                <polygon id="Fill-147" points="10.962963 4.2962963 9.48148148 4.2962963 9.48148148 7.25925926 10.962963 7.25925926"></polygon>
            </g>
        </g>
    </g>
</svg>