<?xml version="1.0" encoding="UTF-8"?>
<svg width="220px" height="225px" viewBox="0 0 220 225" version="1.1" xmlns="http://www.w3.org/2000/svg" xmlns:xlink="http://www.w3.org/1999/xlink">
    <!-- Generator: Sketch 48.2 (47327) - http://www.bohemiancoding.com/sketch -->
    <title>Topic</title>
    <desc>Created with Sketch.</desc>
    <defs></defs>
    <g id="8:-Empty-all-posts" stroke="none" stroke-width="1" fill="none" fill-rule="evenodd" transform="translate(-78.000000, -175.000000)">
        <g id="Topic" style="mix-blend-mode: luminosity;" transform="translate(78.000000, 175.000000)">
            <g id="2" transform="translate(0.000000, 148.076923)">
                <path d="M211.538462,4.23076923 L135.384615,4.23076923 L8.46153846,4.23076923 C3.78865385,4.23076923 0,8.01942308 0,12.6923077 L0,65.7022596 C0,69.4575962 2.47235577,72.7671154 6.07644231,73.8211058 C9.92168269,74.9459615 14.5929808,76.1538462 16.9230769,76.1538462 C21.2839423,76.1538462 29.4847596,71.9230769 33.8461538,71.9230769 C38.2070192,71.9230769 46.4083654,76.1538462 50.7692308,76.1538462 C55.1300962,76.1538462 63.3314423,71.9230769 67.6923077,71.9230769 C72.0531731,71.9230769 80.2545192,76.1538462 84.6153846,76.1538462 C88.97625,76.1538462 97.1775962,71.9230769 101.538462,71.9230769 C105.899327,71.9230769 114.100673,76.1538462 118.461538,76.1538462 C122.822404,76.1538462 131.02375,71.9230769 135.384615,71.9230769 C139.745481,71.9230769 147.946827,76.1538462 152.307692,76.1538462 C156.668558,76.1538462 164.869904,71.9230769 169.230769,71.9230769 C173.591635,71.9230769 181.792981,76.1538462 186.153846,76.1538462 C190.514712,76.1538462 198.716058,71.9230769 203.076923,71.9230769 C204.538125,71.9230769 206.920048,72.3979808 209.441587,73.0299519 C214.799856,74.3716346 220,70.3561058 220,64.8323077 L220,12.6923077 C220,8.01942308 216.211875,4.23076923 211.538462,4.23076923" id="Fill-2" fill="#F3F2EE"></path>
                <path d="M220,60.6014327 C220,66.1252308 214.799856,70.1412885 209.441587,68.7990769 C206.920048,68.1671058 204.538125,67.6922019 203.076923,67.6922019 C198.716058,67.6922019 190.514712,71.9229712 186.153846,71.9229712 C181.792452,71.9229712 173.591635,67.6922019 169.230769,67.6922019 C164.869904,67.6922019 156.668558,71.9229712 152.307692,71.9229712 C147.946827,71.9229712 135.384615,67.6922019 135.384615,67.6922019 L135.384615,-0.000105769231 L211.538462,-0.000105769231 C216.211875,-0.000105769231 220,3.78854808 220,8.46143269 L220,60.6014327 Z" id="Fill-4" fill="#F3F2EE"></path>
                <path d="M135.384615,67.6923077 C135.384615,67.6923077 122.822404,71.9230769 118.461538,71.9230769 C114.100673,71.9230769 105.899327,67.6923077 101.538462,67.6923077 C97.1775962,67.6923077 88.97625,71.9230769 84.6153846,71.9230769 C80.2545192,71.9230769 72.0531731,67.6923077 67.6923077,67.6923077 C63.3314423,67.6923077 55.130625,71.9230769 50.7692308,71.9230769 C46.4083654,71.9230769 38.2070192,67.6923077 33.8461538,67.6923077 C29.4847596,67.6923077 21.2839423,71.9230769 16.9230769,71.9230769 C14.5929808,71.9230769 9.92168269,70.7151923 6.07644231,69.5903365 C2.47235577,68.5363462 0,65.2268269 0,61.4720192 L0,8.46153846 C0,3.78865385 3.78865385,0 8.46153846,0 L135.384615,0 L135.384615,67.6923077 Z" id="Fill-6" fill="#FFFFFF"></path>
                <path d="M50.7692308,14.2788462 L33.8461538,14.2788462 C32.9698558,14.2788462 32.2596154,13.5686058 32.2596154,12.6923077 C32.2596154,11.8160096 32.9698558,11.1057692 33.8461538,11.1057692 L50.7692308,11.1057692 C51.6455288,11.1057692 52.3557692,11.8160096 52.3557692,12.6923077 C52.3557692,13.5686058 51.6455288,14.2788462 50.7692308,14.2788462" id="Fill-8" fill="#BCBCBB"></path>
                <path d="M122.692308,39.6634615 L12.6923077,39.6634615 C11.8160096,39.6634615 11.1057692,38.9532212 11.1057692,38.0769231 C11.1057692,37.200625 11.8160096,36.4903846 12.6923077,36.4903846 L122.692308,36.4903846 C123.568606,36.4903846 124.278846,37.200625 124.278846,38.0769231 C124.278846,38.9532212 123.568606,39.6634615 122.692308,39.6634615" id="Fill-10" fill="#D6D6D6"></path>
                <path d="M122.692308,48.125 L12.6923077,48.125 C11.8160096,48.125 11.1057692,47.4147596 11.1057692,46.5384615 C11.1057692,45.6621635 11.8160096,44.9519231 12.6923077,44.9519231 L122.692308,44.9519231 C123.568606,44.9519231 124.278846,45.6621635 124.278846,46.5384615 C124.278846,47.4147596 123.568606,48.125 122.692308,48.125" id="Fill-12" fill="#D6D6D6"></path>
                <path d="M110,56.5865385 L12.6923077,56.5865385 C11.8160096,56.5865385 11.1057692,55.8762981 11.1057692,55 C11.1057692,54.1237019 11.8160096,53.4134615 12.6923077,53.4134615 L110,53.4134615 C110.876298,53.4134615 111.586538,54.1237019 111.586538,55 C111.586538,55.8762981 110.876298,56.5865385 110,56.5865385" id="Fill-14" fill="#D6D6D6"></path>
                <path d="M42.3076923,22.7403846 L33.8461538,22.7403846 C32.9698558,22.7403846 32.2596154,22.0301442 32.2596154,21.1538462 C32.2596154,20.2775481 32.9698558,19.5673077 33.8461538,19.5673077 L42.3076923,19.5673077 C43.1839904,19.5673077 43.8942308,20.2775481 43.8942308,21.1538462 C43.8942308,22.0301442 43.1839904,22.7403846 42.3076923,22.7403846" id="Fill-16" fill="#D6D6D6"></path>
                <path d="M207.307692,25.3846154 L148.076923,25.3846154 C145.740481,25.3846154 143.846154,23.4902885 143.846154,21.1538462 L143.846154,12.6923077 C143.846154,10.3558654 145.740481,8.46153846 148.076923,8.46153846 L207.307692,8.46153846 C209.644135,8.46153846 211.538462,10.3558654 211.538462,12.6923077 L211.538462,21.1538462 C211.538462,23.4902885 209.644135,25.3846154 207.307692,25.3846154" id="Fill-18" fill="#FFFFFF"></path>
                <path d="M9.12672115,16.8704038 C9.96229808,13.0410288 13.0401827,9.87006731 16.9229712,9.87165385 C20.8057596,9.87006731 23.8831154,13.0410288 24.7192212,16.8704038 C25.5304712,20.5643942 22.0385,24.3604519 16.9229712,24.473625 C11.8085,24.3604519 8.31547115,20.5643942 9.12672115,16.8704038" id="Fill-20" fill="#52DE96"></path>
                <path d="M16.9230769,19.3909375 C15.9510577,19.3909375 15.1604327,18.6003125 15.1604327,17.6282933 C15.1604327,17.4336779 15.3180288,17.2755529 15.5126442,17.2755529 C15.7077885,17.2755529 15.8653846,17.4336779 15.8653846,17.6282933 C15.8653846,18.2116106 16.3397596,18.6859856 16.9230769,18.6859856 C17.5063942,18.6859856 17.9807692,18.2116106 17.9807692,17.6282933 C17.9807692,17.4336779 18.1383654,17.2755529 18.3335096,17.2755529 C18.528125,17.2755529 18.6857212,17.4336779 18.6857212,17.6282933 C18.6857212,18.6003125 17.8950962,19.3909375 16.9230769,19.3909375" id="Fill-22" fill="#34414F"></path>
                <path d="M12.6923077,16.2178606 C12.6923077,15.8286298 13.0080288,15.5129087 13.3972596,15.5129087 C13.7870192,15.5129087 14.1027404,15.8286298 14.1027404,16.2178606 C14.1027404,16.6070913 13.7870192,16.9228125 13.3972596,16.9228125 C13.0080288,16.9228125 12.6923077,16.6070913 12.6923077,16.2178606" id="Fill-24" fill="#34414F"></path>
                <path d="M19.7436779,16.2178606 C19.7436779,15.8286298 20.059399,15.5129087 20.4486298,15.5129087 C20.8378606,15.5129087 21.1541106,15.8286298 21.1541106,16.2178606 C21.1541106,16.6070913 20.8378606,16.9228125 20.4486298,16.9228125 C20.059399,16.9228125 19.7436779,16.6070913 19.7436779,16.2178606" id="Fill-26" fill="#34414F"></path>
                <path d="M207.307692,43.8942308 L160.769231,43.8942308 C159.892933,43.8942308 159.182692,43.1839904 159.182692,42.3076923 C159.182692,41.4313942 159.892933,40.7211538 160.769231,40.7211538 L207.307692,40.7211538 C208.18399,40.7211538 208.894231,41.4313942 208.894231,42.3076923 C208.894231,43.1839904 208.18399,43.8942308 207.307692,43.8942308" id="Fill-28" fill="#BCBCBB"></path>
                <path d="M190.384615,52.3557692 L160.769231,52.3557692 C159.892933,52.3557692 159.182692,51.6455288 159.182692,50.7692308 C159.182692,49.8929327 159.892933,49.1826923 160.769231,49.1826923 L190.384615,49.1826923 C191.260913,49.1826923 191.971154,49.8929327 191.971154,50.7692308 C191.971154,51.6455288 191.260913,52.3557692 190.384615,52.3557692" id="Fill-30" fill="#BCBCBB"></path>
                <path d="M143.846154,42.3076923 C143.846154,39.97125 145.740481,38.0769231 148.076923,38.0769231 C150.413365,38.0769231 152.307692,39.97125 152.307692,42.3076923 C152.307692,44.6441346 150.413365,46.5384615 148.076923,46.5384615 C145.740481,46.5384615 143.846154,44.6441346 143.846154,42.3076923" id="Fill-32" fill="#BCBCBB"></path>
                <path d="M122.692308,16.9230769 C122.692308,19.2595192 120.797981,21.1538462 118.461538,21.1538462 C116.125096,21.1538462 114.230769,19.2595192 114.230769,16.9230769 C114.230769,14.5866346 116.125096,12.6923077 118.461538,12.6923077 C120.797981,12.6923077 122.692308,14.5866346 122.692308,16.9230769" id="Fill-34" fill="#FA6452"></path>
            </g>
            <g id="1">
                <path d="M211.538462,139.615385 L8.46153846,139.615385 C3.78865385,139.615385 0,135.826731 0,131.153846 L0,76.1538462 L220,76.1538462 L220,131.153846 C220,135.826731 216.211875,139.615385 211.538462,139.615385" id="Fill-2" fill="#F3F2EE"></path>
                <path d="M211.538462,135.384615 L135.384615,135.384615 L135.384615,0 L211.538462,0 C216.211875,0 220,3.78865385 220,8.46153846 L220,126.923077 C220,131.595962 216.211875,135.384615 211.538462,135.384615" id="Fill-4" fill="#F3F2EE"></path>
                <path d="M135.384615,135.384615 L8.46153846,135.384615 C3.78865385,135.384615 0,131.595962 0,126.923077 L0,8.46153846 C0,3.78865385 3.78865385,0 8.46153846,0 L135.384615,0 L135.384615,135.384615 Z" id="Fill-6" fill="#FFFFFF"></path>
                <path d="M50.7692308,14.2788462 L33.8461538,14.2788462 C32.9698558,14.2788462 32.2596154,13.5686058 32.2596154,12.6923077 C32.2596154,11.8160096 32.9698558,11.1057692 33.8461538,11.1057692 L50.7692308,11.1057692 C51.6455288,11.1057692 52.3557692,11.8160096 52.3557692,12.6923077 C52.3557692,13.5686058 51.6455288,14.2788462 50.7692308,14.2788462" id="Fill-8" fill="#BCBCBB"></path>
                <path d="M122.692308,39.6634615 L12.6923077,39.6634615 C11.8160096,39.6634615 11.1057692,38.9532212 11.1057692,38.0769231 C11.1057692,37.200625 11.8160096,36.4903846 12.6923077,36.4903846 L122.692308,36.4903846 C123.568606,36.4903846 124.278846,37.200625 124.278846,38.0769231 C124.278846,38.9532212 123.568606,39.6634615 122.692308,39.6634615" id="Fill-10" fill="#D6D6D6"></path>
                <path d="M122.692308,48.125 L12.6923077,48.125 C11.8160096,48.125 11.1057692,47.4147596 11.1057692,46.5384615 C11.1057692,45.6621635 11.8160096,44.9519231 12.6923077,44.9519231 L122.692308,44.9519231 C123.568606,44.9519231 124.278846,45.6621635 124.278846,46.5384615 C124.278846,47.4147596 123.568606,48.125 122.692308,48.125" id="Fill-12" fill="#D6D6D6"></path>
                <path d="M110,56.5865385 L12.6923077,56.5865385 C11.8160096,56.5865385 11.1057692,55.8762981 11.1057692,55 C11.1057692,54.1237019 11.8160096,53.4134615 12.6923077,53.4134615 L110,53.4134615 C110.876298,53.4134615 111.586538,54.1237019 111.586538,55 C111.586538,55.8762981 110.876298,56.5865385 110,56.5865385" id="Fill-14" fill="#D6D6D6"></path>
                <path d="M122.692308,115.817308 L12.6923077,115.817308 C11.8160096,115.817308 11.1057692,115.107067 11.1057692,114.230769 C11.1057692,113.354471 11.8160096,112.644231 12.6923077,112.644231 L122.692308,112.644231 C123.568606,112.644231 124.278846,113.354471 124.278846,114.230769 C124.278846,115.107067 123.568606,115.817308 122.692308,115.817308" id="Fill-16" fill="#D6D6D6"></path>
                <path d="M110,124.278846 L12.6923077,124.278846 C11.8160096,124.278846 11.1057692,123.568606 11.1057692,122.692308 C11.1057692,121.81601 11.8160096,121.105769 12.6923077,121.105769 L110,121.105769 C110.876298,121.105769 111.586538,121.81601 111.586538,122.692308 C111.586538,123.568606 110.876298,124.278846 110,124.278846" id="Fill-18" fill="#D6D6D6"></path>
                <path d="M42.3076923,22.7403846 L33.8461538,22.7403846 C32.9698558,22.7403846 32.2596154,22.0301442 32.2596154,21.1538462 C32.2596154,20.2775481 32.9698558,19.5673077 33.8461538,19.5673077 L42.3076923,19.5673077 C43.1839904,19.5673077 43.8942308,20.2775481 43.8942308,21.1538462 C43.8942308,22.0301442 43.1839904,22.7403846 42.3076923,22.7403846" id="Fill-20" fill="#D6D6D6"></path>
                <path d="M9.52155769,17.4627644 C8.78275962,13.1817548 13.1975673,9.87699519 16.9232885,10.0478125 C20.2952115,10.2191587 22.6131442,13.5434856 24.3244904,17.4410817 C26.0363654,21.3333894 21.7299712,24.6386779 16.9232885,24.8555048 C12.4693462,25.0733894 10.2598269,21.7485337 9.52155769,17.4627644" id="Fill-22" fill="#7394FF"></path>
                <path d="M18.3332452,17.9807692 L15.5129087,17.9807692 C15.3182933,17.9807692 15.1601683,18.1383654 15.1601683,18.3335096 C15.1601683,19.3055288 15.9513221,20.0961538 16.9228125,20.0961538 C17.8948317,20.0961538 18.6859856,19.3055288 18.6859856,18.3335096 C18.6859856,18.1383654 18.5278606,17.9807692 18.3332452,17.9807692" id="Fill-24" fill="#34414F"></path>
                <path d="M14.102476,17.2755529 C13.9078606,17.2755529 13.7497356,17.1179567 13.7497356,16.9228125 C13.7497356,16.728726 13.5916106,16.570601 13.397524,16.570601 C13.2029087,16.570601 13.0447837,16.728726 13.0447837,16.9228125 C13.0447837,17.1179567 12.8871875,17.2755529 12.6920433,17.2755529 C12.4974279,17.2755529 12.3398317,17.1179567 12.3398317,16.9228125 C12.3398317,16.340024 12.8142067,15.8651202 13.397524,15.8651202 C13.9808413,15.8651202 14.4552163,16.340024 14.4552163,16.9228125 C14.4552163,17.1179567 14.2970913,17.2755529 14.102476,17.2755529" id="Fill-26" fill="#34414F"></path>
                <path d="M21.1538462,17.2755529 C20.9592308,17.2755529 20.8011058,17.1179567 20.8011058,16.9228125 C20.8011058,16.728726 20.6429808,16.570601 20.4488942,16.570601 C20.2542788,16.570601 20.0961538,16.728726 20.0961538,16.9228125 C20.0961538,17.1179567 19.9385577,17.2755529 19.7434135,17.2755529 C19.5487981,17.2755529 19.3912019,17.1179567 19.3912019,16.9228125 C19.3912019,16.340024 19.8655769,15.8651202 20.4488942,15.8651202 C21.0322115,15.8651202 21.5065865,16.340024 21.5065865,16.9228125 C21.5065865,17.1179567 21.3484615,17.2755529 21.1538462,17.2755529" id="Fill-28" fill="#34414F"></path>
                <path d="M55,101.538462 L21.1538462,101.538462 C16.4809615,101.538462 12.6923077,97.7498077 12.6923077,93.0769231 L12.6923077,76.1538462 C12.6923077,71.4809615 16.4809615,67.6923077 21.1538462,67.6923077 L55,67.6923077 C59.6728846,67.6923077 63.4615385,71.4809615 63.4615385,76.1538462 L63.4615385,93.0769231 C63.4615385,97.7498077 59.6728846,101.538462 55,101.538462" id="Fill-30" fill="#C67DFF"></path>
                <path d="M114.230769,101.538462 L80.3846154,101.538462 C75.7117308,101.538462 71.9230769,97.7498077 71.9230769,93.0769231 L71.9230769,76.1538462 C71.9230769,71.4809615 75.7117308,67.6923077 80.3846154,67.6923077 L114.230769,67.6923077 C118.903654,67.6923077 122.692308,71.4809615 122.692308,76.1538462 L122.692308,93.0769231 C122.692308,97.7498077 118.903654,101.538462 114.230769,101.538462" id="Fill-32" fill="#FFD24A"></path>
                <path d="M207.307692,25.3846154 L148.076923,25.3846154 C145.740481,25.3846154 143.846154,23.4902885 143.846154,21.1538462 L143.846154,12.6923077 C143.846154,10.3558654 145.740481,8.46153846 148.076923,8.46153846 L207.307692,8.46153846 C209.644135,8.46153846 211.538462,10.3558654 211.538462,12.6923077 L211.538462,21.1538462 C211.538462,23.4902885 209.644135,25.3846154 207.307692,25.3846154" id="Fill-34" fill="#FFFFFF"></path>
                <path d="M207.307692,43.8942308 L160.769231,43.8942308 C159.892933,43.8942308 159.182692,43.1839904 159.182692,42.3076923 C159.182692,41.4313942 159.892933,40.7211538 160.769231,40.7211538 L207.307692,40.7211538 C208.18399,40.7211538 208.894231,41.4313942 208.894231,42.3076923 C208.894231,43.1839904 208.18399,43.8942308 207.307692,43.8942308" id="Fill-36" fill="#BCBCBB"></path>
                <path d="M190.384615,52.3557692 L160.769231,52.3557692 C159.892933,52.3557692 159.182692,51.6455288 159.182692,50.7692308 C159.182692,49.8929327 159.892933,49.1826923 160.769231,49.1826923 L190.384615,49.1826923 C191.260913,49.1826923 191.971154,49.8929327 191.971154,50.7692308 C191.971154,51.6455288 191.260913,52.3557692 190.384615,52.3557692" id="Fill-38" fill="#BCBCBB"></path>
                <path d="M143.846154,42.3076923 C143.846154,39.97125 145.740481,38.0769231 148.076923,38.0769231 C150.413365,38.0769231 152.307692,39.97125 152.307692,42.3076923 C152.307692,44.6441346 150.413365,46.5384615 148.076923,46.5384615 C145.740481,46.5384615 143.846154,44.6441346 143.846154,42.3076923" id="Fill-40" fill="#BCBCBB"></path>
                <path d="M198.846154,69.2788462 L160.769231,69.2788462 C159.892933,69.2788462 159.182692,68.5686058 159.182692,67.6923077 C159.182692,66.8160096 159.892933,66.1057692 160.769231,66.1057692 L198.846154,66.1057692 C199.722452,66.1057692 200.432692,66.8160096 200.432692,67.6923077 C200.432692,68.5686058 199.722452,69.2788462 198.846154,69.2788462" id="Fill-42" fill="#BCBCBB"></path>
                <path d="M203.076923,77.7403846 L160.769231,77.7403846 C159.892933,77.7403846 159.182692,77.0301442 159.182692,76.1538462 C159.182692,75.2775481 159.892933,74.5673077 160.769231,74.5673077 L203.076923,74.5673077 C203.953221,74.5673077 204.663462,75.2775481 204.663462,76.1538462 C204.663462,77.0301442 203.953221,77.7403846 203.076923,77.7403846" id="Fill-44" fill="#BCBCBB"></path>
                <path d="M143.846154,67.6923077 C143.846154,65.3558654 145.740481,63.4615385 148.076923,63.4615385 C150.413365,63.4615385 152.307692,65.3558654 152.307692,67.6923077 C152.307692,70.02875 150.413365,71.9230769 148.076923,71.9230769 C145.740481,71.9230769 143.846154,70.02875 143.846154,67.6923077" id="Fill-46" fill="#BCBCBB"></path>
                <path d="M203.076923,94.6634615 L160.769231,94.6634615 C159.892933,94.6634615 159.182692,93.9532212 159.182692,93.0769231 C159.182692,92.200625 159.892933,91.4903846 160.769231,91.4903846 L203.076923,91.4903846 C203.953221,91.4903846 204.663462,92.200625 204.663462,93.0769231 C204.663462,93.9532212 203.953221,94.6634615 203.076923,94.6634615" id="Fill-48" fill="#BCBCBB"></path>
                <path d="M194.615385,103.125 L160.769231,103.125 C159.892933,103.125 159.182692,102.41476 159.182692,101.538462 C159.182692,100.662163 159.892933,99.9519231 160.769231,99.9519231 L194.615385,99.9519231 C195.491683,99.9519231 196.201923,100.662163 196.201923,101.538462 C196.201923,102.41476 195.491683,103.125 194.615385,103.125" id="Fill-50" fill="#BCBCBB"></path>
                <path d="M143.846154,93.0769231 C143.846154,90.7404808 145.740481,88.8461538 148.076923,88.8461538 C150.413365,88.8461538 152.307692,90.7404808 152.307692,93.0769231 C152.307692,95.4133654 150.413365,97.3076923 148.076923,97.3076923 C145.740481,97.3076923 143.846154,95.4133654 143.846154,93.0769231" id="Fill-52" fill="#BCBCBB"></path>
                <path d="M118.461538,21.1538462 L114.230769,21.1538462 C111.894327,21.1538462 110,19.2595192 110,16.9230769 C110,14.5866346 111.894327,12.6923077 114.230769,12.6923077 L118.461538,12.6923077 C120.797981,12.6923077 122.692308,14.5866346 122.692308,16.9230769 C122.692308,19.2595192 120.797981,21.1538462 118.461538,21.1538462" id="Fill-54" fill="#52DE96"></path>
            </g>
        </g>
    </g>
</svg>