<?xml version="1.0" encoding="UTF-8"?>
<svg width="24px" height="21px" viewBox="0 0 24 21" version="1.1" xmlns="http://www.w3.org/2000/svg" xmlns:xlink="http://www.w3.org/1999/xlink">
    <!-- Generator: Sketch 52.6 (67491) - http://www.bohemiancoding.com/sketch -->
    <title>Shape</title>
    <desc>Created with Sketch.</desc>
    <g id="Empty-states" stroke="none" stroke-width="1" fill="none" fill-rule="evenodd">
        <g id="Empty-state:-New" transform="translate(-737.000000, -274.000000)" fill="#34414F" fill-rule="nonzero">
            <g id="Group-9" transform="translate(671.000000, 256.000000)">
                <path d="M69.9941627,31 C69.2665987,31 68.6666667,30.405794 68.6666667,29.6728033 L68.6666667,21.9938633 C68.6666667,21.2654747 69.2610067,20.6666667 69.9941627,20.6666667 L86.0058373,20.6666667 C86.7334013,20.6666667 87.3333333,21.2608727 87.3333333,21.9938633 L87.3333333,29.6728033 C87.3333333,30.401192 86.7389933,31 86.0058373,31 L82,31 C82,33.2091387 80.2091387,35 78,35 C75.7908613,35 74,33.2091387 74,31 L69.9941627,31 Z M66,20.6601193 L66,36.3398807 C66,37.809024 67.190164,39 68.6601193,39 L87.3398807,39 C88.809024,39 90,37.809836 90,36.3398807 L90,20.6601193 C90,19.190976 88.809836,18 87.3398807,18 L68.6601193,18 C67.190976,18 66,19.190164 66,20.6601193 Z" id="Shape"></path>
            </g>
        </g>
    </g>
</svg>