<?xml version="1.0" encoding="UTF-8"?>
<svg width="56px" height="56px" viewBox="0 0 56 56" version="1.1" xmlns="http://www.w3.org/2000/svg" xmlns:xlink="http://www.w3.org/1999/xlink">
    <!-- Generator: Sketch 51.2 (57519) - http://www.bohemiancoding.com/sketch -->
    <title>Rectangle Copy</title>
    <desc>Created with Sketch.</desc>
    <defs></defs>
    <g id="Empty-states" stroke="none" stroke-width="1" fill="none" fill-rule="evenodd">
        <g id="Empty-state:-All-posts" transform="translate(-624.000000, -232.000000)">
            <g id="Group-10" transform="translate(482.000000, 232.000000)">
                <g id="Rectangle-Copy" transform="translate(142.000000, 0.000000)">
                    <rect fill="#D9D7D7" x="0" y="0" width="56" height="56" rx="8"></rect>
                    <path d="M18.0017575,36.6301327 L17.0124786,26.6186266 C16.8717743,25.1946986 17.9378986,24 19.3548307,24 L36.6451602,24 C38.0591645,24 39.1284595,25.19224 38.9875123,26.6186266 L37.9982334,36.6301327 C37.8674106,37.9540605 36.7272795,39 35.4164669,39 L20.583524,39 C19.2678223,39 18.1329878,37.9581841 18.0017575,36.6301327 Z M36,27.0046178 L19,27 L20.1029268,37 L34.8975284,37 L36,27.0046178 Z M22,18 C22,17.4477153 22.5389274,17 23.1944771,17 L32.8055229,17 C33.4652144,17 34,17.4438648 34,18 C34,18.5522847 33.4610726,19 32.8055229,19 L23.1944771,19 C22.5347856,19 22,18.5561352 22,18 Z M19,22 C19,21.4477153 19.5463663,21 20.2089698,21 L34.7910302,21 C35.4587258,21 36,21.4438648 36,22 C36,22.5522847 35.4536337,23 34.7910302,23 L20.2089698,23 C19.5412742,23 19,22.5561352 19,22 Z" id="All-posts-icon" fill="#FFFFFF" transform="translate(28.000000, 28.000000) scale(1, -1) translate(-28.000000, -28.000000) "></path>
                </g>
            </g>
        </g>
    </g>
</svg>