<?xml version="1.0" encoding="UTF-8"?>
<svg width="56px" height="56px" viewBox="0 0 56 56" version="1.1" xmlns="http://www.w3.org/2000/svg" xmlns:xlink="http://www.w3.org/1999/xlink">
    <!-- Generator: Sketch 51.2 (57519) - http://www.bohemiancoding.com/sketch -->
    <title>Group 4</title>
    <desc>Created with Sketch.</desc>
    <defs></defs>
    <g id="Empty-states" stroke="none" stroke-width="1" fill="none" fill-rule="evenodd">
        <g id="Mobile-empty-state:-All-posts" transform="translate(-160.000000, -237.000000)">
            <g id="Group-4" transform="translate(160.000000, 237.000000)">
                <g>
                    <rect id="Rectangle-Copy" fill="#D9D7D7" x="0" y="0" width="56" height="56" rx="8"></rect>
                    <path d="M18.0017575,36.6827964 L17.0124786,26.8937682 C16.8717743,25.5014831 17.9378986,24.3333333 19.3548307,24.3333333 L36.6451602,24.3333333 C38.0591645,24.3333333 39.1284595,25.4990791 38.9875123,26.8937682 L37.9982334,36.6827964 C37.8674106,37.9773036 36.7272795,39 35.4164669,39 L20.583524,39 C19.2678223,39 18.1329878,37.9813355 18.0017575,36.6827964 Z M36.5155823,26.7874378 L19.4839525,26.782925 L20.5889314,36.5555556 L35.4110595,36.5555556 L36.5155823,26.7874378 Z M21.8241088,18.2222222 C21.8241088,17.5472075 22.3788346,17 23.0536013,17 L32.9463896,17 C33.6254196,17 34.1758821,17.5425014 34.1758821,18.2222222 C34.1758821,18.8972369 33.6211563,19.4444444 32.9463896,19.4444444 L23.0536013,19.4444444 C22.3745713,19.4444444 21.8241088,18.901943 21.8241088,18.2222222 Z M19.3537541,21.8888889 C19.3537541,21.2138742 19.9095206,20.6666667 20.583524,20.6666667 L35.4164669,20.6666667 C36.0956501,20.6666667 36.6462368,21.2091681 36.6462368,21.8888889 C36.6462368,22.5639036 36.0904703,23.1111111 35.4164669,23.1111111 L20.583524,23.1111111 C19.9043408,23.1111111 19.3537541,22.5686097 19.3537541,21.8888889 Z" id="All-posts-icon" fill="#FFFFFF" transform="translate(28.000000, 28.000000) scale(1, -1) translate(-28.000000, -28.000000) "></path>
                </g>
            </g>
        </g>
    </g>
</svg>