<?xml version="1.0" encoding="UTF-8"?>
<svg width="24px" height="20px" viewBox="0 0 24 20" version="1.1" xmlns="http://www.w3.org/2000/svg" xmlns:xlink="http://www.w3.org/1999/xlink">
    <!-- Generator: Sketch 52.6 (67491) - http://www.bohemiancoding.com/sketch -->
    <title>Combined Shape Copy 4</title>
    <desc>Created with Sketch.</desc>
    <g id="Team-jumper" stroke="none" stroke-width="1" fill="none" fill-rule="evenodd">
        <g id="New-team-(no-NUX)" transform="translate(-736.000000, -278.000000)" fill="#848D95">
            <g id="Group-5" transform="translate(576.000000, 260.000000)">
                <path d="M161.092826,35.5693669 L160.013613,25.3011555 C159.860117,23.8407165 161.023162,22.6153846 162.568906,22.6153846 L181.431084,22.6153846 C182.973634,22.6153846 184.140138,23.8381949 183.986377,25.3011555 L182.907164,35.5693669 C182.764448,36.9272415 181.520669,38 180.090691,38 L163.909299,38 C162.473988,38 161.235987,36.9314708 161.092826,35.5693669 Z M181,25.6965703 L163,25.6923077 L164.167805,34.9230769 L179.832677,34.9230769 L181,25.6965703 Z M163,19.5384615 C163,18.6887927 163.578506,18 164.280086,18 L179.719914,18 C180.426886,18 181,18.682869 181,19.5384615 C181,20.3881304 180.421494,21.0769231 179.719914,21.0769231 L164.280086,21.0769231 C163.573114,21.0769231 163,20.3940541 163,19.5384615 Z" id="Combined-Shape-Copy-4" transform="translate(172.000000, 28.000000) scale(1, -1) translate(-172.000000, -28.000000) "></path>
            </g>
        </g>
    </g>
</svg>