<?xml version="1.0" encoding="UTF-8"?>
<svg width="24px" height="21px" viewBox="0 0 24 21" version="1.1" xmlns="http://www.w3.org/2000/svg" xmlns:xlink="http://www.w3.org/1999/xlink">
    <!-- Generator: Sketch 52.6 (67491) - http://www.bohemiancoding.com/sketch -->
    <title>Combined Shape Copy 4</title>
    <desc>Created with Sketch.</desc>
    <g id="Empty-states" stroke="none" stroke-width="1" fill="none" fill-rule="evenodd">
        <g id="Empty-state:-Section" transform="translate(-737.000000, -275.000000)" fill="#242D42">
            <g id="Group-9" transform="translate(670.000000, 256.000000)">
                <path d="M68.0928263,37.4478352 L67.013613,26.6662133 C66.8601174,25.1327523 68.0231621,23.8461538 69.5689063,23.8461538 L88.4310838,23.8461538 C89.973634,23.8461538 91.1401376,25.1301046 90.986377,26.6662133 L89.9071638,37.4478352 C89.7644479,38.8736036 88.5206685,40 87.0906911,40 L70.9092989,40 C69.473988,40 68.2359867,38.8780444 68.0928263,37.4478352 Z M70,20.6153846 C70,19.7232323 70.5785055,19 71.2800856,19 L86.7199144,19 C87.4268861,19 88,19.7170124 88,20.6153846 C88,21.5075369 87.4214945,22.2307692 86.7199144,22.2307692 L71.2800856,22.2307692 C70.5731139,22.2307692 70,21.5137568 70,20.6153846 Z" id="Combined-Shape-Copy-4" transform="translate(79.000000, 29.500000) scale(1, -1) translate(-79.000000, -29.500000) "></path>
            </g>
        </g>
    </g>
</svg>