<?xml version="1.0" encoding="UTF-8"?>
<svg width="320px" height="343px" viewBox="0 0 320 343" version="1.1" xmlns="http://www.w3.org/2000/svg" xmlns:xlink="http://www.w3.org/1999/xlink">
    <!-- Generator: Sketch 46.2 (44496) - http://www.bohemiancoding.com/sketch -->
    <title>Group 2</title>
    <desc>Created with Sketch.</desc>
    <defs></defs>
    <g id="Desktop" stroke="none" stroke-width="1" fill="none" fill-rule="evenodd">
        <g id="Marketing-Site---Revised-Features-Illustrations" transform="translate(-47.000000, -120.000000)">
            <g id="Group-9" transform="translate(47.000000, 64.000000)">
                <g id="Group-2" transform="translate(0.000000, 56.000000)">
                    <g>
                        <g id="Story">
                            <path d="M320,335.637705 C320,339.252463 314.852,341.846011 309.721,340.816697 C302.246,339.317302 292.653,337.596374 288,337.596374 C279.754,337.596374 264.246,342.9996 256,342.9996 C247.754,342.9996 232.246,337.596374 224,337.596374 C215.754,337.596374 200.246,342.9996 192,342.9996 C183.754,342.9996 168.246,337.596374 160,337.596374 C151.754,337.596374 136.246,342.9996 128,342.9996 C119.754,342.9996 104.246,337.596374 96,337.596374 C87.754,337.596374 72.246,342.9996 64,342.9996 C55.754,342.9996 40.246,337.596374 32,337.596374 C27.347,337.596374 17.754,339.317302 10.279,340.816697 C5.148,341.846011 0,339.252463 0,335.637705 L0,18.8060516 C0,12.8381887 7.163,7.9996 16,7.9996 L304,7.9996 C312.837,7.9996 320,12.8381887 320,18.8060516 L320,335.637705 Z" id="Fill-2" fill="#F3F2EE"></path>
                            <path d="M320,327.637705 C320,331.252463 314.852,333.846011 309.721,332.816697 C302.246,331.317302 292.653,329.596374 288,329.596374 C279.754,329.596374 264.246,334.9996 256,334.9996 C247.754,334.9996 232.246,329.596374 224,329.596374 C215.754,329.596374 200.246,334.9996 192,334.9996 C183.754,334.9996 168.246,329.596374 160,329.596374 C151.754,329.596374 136.246,334.9996 128,334.9996 C119.754,334.9996 104.246,329.596374 96,329.596374 C87.754,329.596374 72.246,334.9996 64,334.9996 C55.754,334.9996 40.246,329.596374 32,329.596374 C27.347,329.596374 17.754,331.317302 10.279,332.816697 C5.148,333.846011 0,331.252463 0,327.637705 L0,10.8060516 C0,4.83818871 7.163,-0.0004 16,-0.0004 L304,-0.0004 C312.837,-0.0004 320,4.83818871 320,10.8060516 L320,327.637705 Z" id="Fill-4" fill="#FFFFFF"></path>
                            <path d="M296,107 L24,107 C22.343,107 21,105.657 21,104 C21,102.343 22.343,101 24,101 L296,101 C297.657,101 299,102.343 299,104 C299,105.657 297.657,107 296,107" id="Fill-8" fill="#D6D6D6"></path>
                            <path d="M296,189 L24,189 C22.343,189 21,187.657 21,186 C21,184.343 22.343,183 24,183 L296,183 C297.657,183 299,184.343 299,186 C299,187.657 297.657,189 296,189" id="Fill-10" fill="#D6D6D6"></path>
                            <path d="M272,204 L24,204 C22.343,204 21,202.657 21,201 C21,199.343 22.343,198 24,198 L272,198 C273.657,198 275,199.343 275,201 C275,202.657 273.657,204 272,204" id="Fill-12" fill="#D6D6D6"></path>
                            <path d="M43,52 L27,52 C25.343,52 24,50.657 24,49 C24,47.343 25.343,46 27,46 L43,46 C44.657,46 46,47.343 46,49 C46,50.657 44.657,52 43,52" id="Fill-14" fill="#D6D6D6"></path>
                            <path d="M280,165 L40,165 C31.163,165 24,160.410563 24,154.75 L24,134.25 C24,128.589438 31.163,124 40,124 L280,124 C288.837,124 296,128.589438 296,134.25 L296,154.75 C296,160.410563 288.837,165 280,165" id="Fill-16" fill="#FFD24A"></path>
                            <path d="M48,80 L32,80 C27.582,80 24,76.418 24,72 C24,67.582 27.582,64 32,64 L48,64 C52.418,64 56,67.582 56,72 C56,76.418 52.418,80 48,80" id="Fill-18" fill="#7394FF"></path>
                            <path d="M88,80 L72,80 C67.582,80 64,76.418 64,72 C64,67.582 67.582,64 72,64 L88,64 C92.418,64 96,67.582 96,72 C96,76.418 92.418,80 88,80" id="Fill-20" fill="#7394FF"></path>
                            <path d="M280,313 L40,313 C31.163,313 24,306.209125 24,297.833333 L24,237.166667 C24,228.790875 31.163,222 40,222 L280,222 C288.837,222 296,228.790875 296,237.166667 L296,297.833333 C296,306.209125 288.837,313 280,313" id="Fill-30" fill="#F3F2EE"></path>
                            <path d="M56,247 C56,251.418 52.418,255 48,255 C43.582,255 40,251.418 40,247 C40,242.582 43.582,239 48,239 C52.418,239 56,242.582 56,247" id="Fill-32" fill="#C67DFF"></path>
                            <path d="M144,250 L72,250 C70.343,250 69,248.657 69,247 C69,245.343 70.343,244 72,244 L144,244 C145.657,244 147,245.343 147,247 C147,248.657 145.657,250 144,250" id="Fill-34" fill="#BCBCBB"></path>
                            <path d="M272,277 L48,277 C46.343,277 45,275.657 45,274 C45,272.343 46.343,271 48,271 L272,271 C273.657,271 275,272.343 275,274 C275,275.657 273.657,277 272,277" id="Fill-36" fill="#BCBCBB"></path>
                            <path d="M272,293 L48,293 C46.343,293 45,291.657 45,290 C45,288.343 46.343,287 48,287 L272,287 C273.657,287 275,288.343 275,290 C275,291.657 273.657,293 272,293" id="Fill-38" fill="#BCBCBB"></path>
                        </g>
                        <text id="Monthly-Update" font-family="Avenir-Heavy, Avenir" font-size="16" font-weight="600" letter-spacing="0.2031746" fill="#637282">
                            <tspan x="21" y="37">Monthly Update</tspan>
                        </text>
                    </g>
                </g>
            </g>
        </g>
    </g>
</svg>