<?xml version="1.0" encoding="UTF-8"?>
<svg width="720px" height="400px" viewBox="0 0 720 400" version="1.1" xmlns="http://www.w3.org/2000/svg" xmlns:xlink="http://www.w3.org/1999/xlink">
    <!-- Generator: Sketch 51.2 (57519) - http://www.bohemiancoding.com/sketch -->
    <title>Mask Copy 7</title>
    <desc>Created with Sketch.</desc>
    <defs>
        <linearGradient x1="50%" y1="100%" x2="50%" y2="3.061617e-15%" id="linearGradient-1">
            <stop stop-color="#FBFAF7" offset="0%"></stop>
            <stop stop-color="#F5F4F1" offset="100%"></stop>
        </linearGradient>
        <path d="M6,0 L714,0 C717.313708,-6.08718376e-16 720,2.6862915 720,6 L720,394 C720,397.313708 717.313708,400 714,400 L6,400 C2.6862915,400 4.05812251e-16,397.313708 0,394 L0,6 C-4.05812251e-16,2.6862915 2.6862915,6.08718376e-16 6,0 Z" id="path-2"></path>
        <mask id="mask-3" maskContentUnits="userSpaceOnUse" maskUnits="objectBoundingBox" x="0" y="0" width="720" height="400" fill="white">
            <use xlink:href="#path-2"></use>
        </mask>
        <linearGradient x1="50%" y1="0%" x2="50%" y2="100%" id="linearGradient-4">
            <stop stop-color="#F7F6F3" stop-opacity="0" offset="0%"></stop>
            <stop stop-color="#FBFAF7" offset="100%"></stop>
        </linearGradient>
    </defs>
    <g id="Empty-states" stroke="none" stroke-width="1" fill="none" fill-rule="evenodd">
        <g id="Empty-state:-Drafts" transform="translate(-292.000000, -152.000000)">
            <g id="Mask-Copy-7" transform="translate(292.000000, 152.000000)">
                <use stroke="#D9D7D7" mask="url(#mask-3)" stroke-width="2" fill="url(#linearGradient-1)" stroke-dasharray="4,2" xlink:href="#path-2"></use>
                <rect id="Rectangle-10" fill="url(#linearGradient-4)" x="0" y="16" width="720" height="384"></rect>
            </g>
        </g>
    </g>
</svg>