<?xml version="1.0" encoding="UTF-8"?>
<svg width="168px" height="120px" viewBox="0 0 168 120" version="1.1" xmlns="http://www.w3.org/2000/svg" xmlns:xlink="http://www.w3.org/1999/xlink">
    <!-- Generator: Sketch 45 (43475) - http://www.bohemiancoding.com/sketch -->
    <title>3</title>
    <desc>Created with Sketch.</desc>
    <defs></defs>
    <g id="Board" stroke="none" stroke-width="1" fill="none" fill-rule="evenodd">
        <g id="Board-View,-Topics-(no-dropdown)" transform="translate(-865.000000, -1014.000000)">
            <g id="CARDS" transform="translate(285.000000, 126.000000)">
                <g id="Group-6" transform="translate(0.000000, 75.000000)">
                    <g id="BOARD-BODY">
                        <g id="UPDATES">
                            <g id="Topic-2" transform="translate(0.000000, 708.000000)">
                                <g id="Empty" transform="translate(524.000000, 105.000000)">
                                    <g id="3" transform="translate(56.000000, 0.000000)">
                                        <path d="M152,120 L16,120 C7.164,120 0,112.836 0,104 L0,24 C0,15.164 7.164,8 16,8 L152,8 C160.836,8 168,15.164 168,24 L168,104 C168,112.836 160.836,120 152,120" id="Fill-52" fill="#F3F2EE"></path>
                                        <path d="M152,112 L16,112 C7.164,112 0,104.836 0,96 L0,16 C0,7.164 7.164,0 16,0 L152,0 C160.836,0 168,7.164 168,16 L168,96 C168,104.836 160.836,112 152,112" id="Fill-54" fill="#FFFFFF"></path>
                                        <path d="M88,35 L64,35 C62.343,35 61,33.657 61,32 C61,30.343 62.343,29 64,29 L88,29 C89.657,29 91,30.343 91,32 C91,33.657 89.657,35 88,35" id="Fill-56" fill="#D6D6D6"></path>
                                        <path d="M128,63 L24,63 C22.343,63 21,61.657 21,60 C21,58.343 22.343,57 24,57 L128,57 C129.657,57 131,58.343 131,60 C131,61.657 129.657,63 128,63" id="Fill-58" fill="#BCBCBB"></path>
                                        <path d="M24,97.5 C18.762,97.5 14.5,93.238 14.5,88 C14.5,82.762 18.762,78.5 24,78.5 C29.238,78.5 33.5,82.762 33.5,88 C33.5,93.238 29.238,97.5 24,97.5" id="Fill-60" fill="#C67DFF"></path>
                                        <path d="M24,77 C17.935,77 13,81.935 13,88 C13,94.065 17.935,99 24,99 C30.065,99 35,94.065 35,88 C35,81.935 30.065,77 24,77 M24,80 C28.418,80 32,83.582 32,88 C32,92.418 28.418,96 24,96 C19.582,96 16,92.418 16,88 C16,83.582 19.582,80 24,80" id="Fill-62" fill="#FFFFFF"></path>
                                        <path d="M40,97.5 C34.762,97.5 30.5,93.238 30.5,88 C30.5,82.762 34.762,78.5 40,78.5 C45.238,78.5 49.5,82.762 49.5,88 C49.5,93.238 45.238,97.5 40,97.5" id="Fill-64" fill="#7394FF"></path>
                                        <path d="M40,77 C33.935,77 29,81.935 29,88 C29,94.065 33.935,99 40,99 C46.065,99 51,94.065 51,88 C51,81.935 46.065,77 40,77 M40,80 C44.418,80 48,83.582 48,88 C48,92.418 44.418,96 40,96 C35.582,96 32,92.418 32,88 C32,83.582 35.582,80 40,80" id="Fill-66" fill="#FFFFFF"></path>
                                        <path d="M56,97.5 C50.762,97.5 46.5,93.238 46.5,88 C46.5,82.762 50.762,78.5 56,78.5 C61.238,78.5 65.5,82.762 65.5,88 C65.5,93.238 61.238,97.5 56,97.5" id="Fill-68" fill="#FFD24A"></path>
                                        <path d="M56,77 C49.935,77 45,81.935 45,88 C45,94.065 49.935,99 56,99 C62.065,99 67,94.065 67,88 C67,81.935 62.065,77 56,77 M56,80 C60.418,80 64,83.582 64,88 C64,92.418 60.418,96 56,96 C51.582,96 48,92.418 48,88 C48,83.582 51.582,80 56,80" id="Fill-70" fill="#FFFFFF"></path>
                                        <path d="M72,97.5 C66.762,97.5 62.5,93.238 62.5,88 C62.5,82.762 66.762,78.5 72,78.5 C77.238,78.5 81.5,82.762 81.5,88 C81.5,93.238 77.238,97.5 72,97.5" id="Fill-72" fill="#FA6452"></path>
                                        <path d="M72,77 C65.935,77 61,81.935 61,88 C61,94.065 65.935,99 72,99 C78.065,99 83,94.065 83,88 C83,81.935 78.065,77 72,77 M72,80 C76.418,80 80,83.582 80,88 C80,92.418 76.418,96 72,96 C67.582,96 64,92.418 64,88 C64,83.582 67.582,80 72,80" id="Fill-74" fill="#FFFFFF"></path>
                                        <path d="M18.2017,31.8467 C19.4387,25.3637 25.6247,19.6537 31.9827,18.8527 C38.3347,18.0667 44.5017,23.9097 45.7987,32.1397 C47.0947,40.3637 40.9027,46.5227 32.0107,45.5677 C23.1247,44.6127 16.9647,38.3227 18.2017,31.8467" id="Fill-84" fill="#52DE96"></path>
                                        <path d="M32,36.6665 C30.162,36.6665 28.667,35.1715 28.667,33.3335 C28.667,32.9655 28.965,32.6665 29.333,32.6665 C29.702,32.6665 30,32.9655 30,33.3335 C30,34.4365 30.897,35.3335 32,35.3335 C33.103,35.3335 34,34.4365 34,33.3335 C34,32.9655 34.298,32.6665 34.667,32.6665 C35.035,32.6665 35.333,32.9655 35.333,33.3335 C35.333,35.1715 33.838,36.6665 32,36.6665" id="Fill-86" fill="#34414F"></path>
                                        <path d="M37.3335,30.6665 C37.3335,29.9305 37.9305,29.3335 38.6665,29.3335 C39.4025,29.3335 40.0005,29.9305 40.0005,30.6665 C40.0005,31.4025 39.4025,31.9995 38.6665,31.9995 C37.9305,31.9995 37.3335,31.4025 37.3335,30.6665" id="Fill-88" fill="#34414F"></path>
                                        <path d="M26.6665,31.3335 C26.2985,31.3335 25.9995,31.0345 25.9995,30.6665 C25.9995,30.2985 25.7015,30.0005 25.3335,30.0005 C24.9655,30.0005 24.6665,30.2985 24.6665,30.6665 C24.6665,31.0345 24.3685,31.3335 23.9995,31.3335 C23.6315,31.3335 23.3335,31.0345 23.3335,30.6665 C23.3335,29.5635 24.2305,28.6665 25.3335,28.6665 C26.4365,28.6665 27.3335,29.5635 27.3335,30.6665 C27.3335,31.0345 27.0345,31.3335 26.6665,31.3335" id="Fill-90" fill="#34414F"></path>
                                        <path d="M104,91 L96,91 C94.343,91 93,89.657 93,88 C93,86.343 94.343,85 96,85 L104,85 C105.657,85 107,86.343 107,88 C107,89.657 105.657,91 104,91" id="Fill-94" fill="#D6D6D6"></path>
                                    </g>
                                </g>
                            </g>
                        </g>
                    </g>
                </g>
            </g>
        </g>
    </g>
</svg>