<?xml version="1.0" encoding="UTF-8"?>
<svg width="4px" height="20px" viewBox="0 0 4 20" version="1.1" xmlns="http://www.w3.org/2000/svg" xmlns:xlink="http://www.w3.org/1999/xlink">
    <!-- Generator: Sketch 45.1 (43504) - http://www.bohemiancoding.com/sketch -->
    <title>ic_more</title>
    <desc>Created with Sketch.</desc>
    <defs></defs>
    <g id="Board" stroke="none" stroke-width="1" fill="none" fill-rule="evenodd">
        <g id="Update-Modal-with-Comments-(Slack,-first-reply)" transform="translate(-762.000000, -135.000000)" fill="#A3A6AC">
            <g id="Group-3" transform="translate(160.000000, 100.000000)">
                <g id="Update-Modal" transform="translate(32.000000, 0.000000)">
                    <g id="Content-Block">
                        <g id="ic_more" transform="translate(560.000000, 33.000000)">
                            <g id="icon" transform="translate(10.000000, 2.000000)">
                                <path d="M2,4 C0.8954305,4 0,3.1045695 0,2 C0,0.8954305 0.8954305,0 2,0 C3.1045695,0 4,0.8954305 4,2 C4,3.1045695 3.1045695,4 2,4 Z M2,12 C0.8954305,12 0,11.1045695 0,10 C0,8.8954305 0.8954305,8 2,8 C3.1045695,8 4,8.8954305 4,10 C4,11.1045695 3.1045695,12 2,12 Z M2,20 C0.8954305,20 0,19.1045695 0,18 C0,16.8954305 0.8954305,16 2,16 C3.1045695,16 4,16.8954305 4,18 C4,19.1045695 3.1045695,20 2,20 Z" id="Combined-Shape"></path>
                            </g>
                        </g>
                    </g>
                </g>
            </g>
        </g>
    </g>
</svg>