<?xml version="1.0" encoding="UTF-8"?>
<svg width="320px" height="312px" viewBox="0 0 320 312" version="1.1" xmlns="http://www.w3.org/2000/svg" xmlns:xlink="http://www.w3.org/1999/xlink">
    <!-- Generator: Sketch 44.1 (41455) - http://www.bohemiancoding.com/sketch -->
    <title>Group 4</title>
    <desc>Created with Sketch.</desc>
    <defs></defs>
    <g id="Page-1" stroke="none" stroke-width="1" fill="none" fill-rule="evenodd">
        <g id="Marketing-Site---Features" transform="translate(-711.000000, -924.000000)">
            <g id="Group-4" transform="translate(711.000000, 924.000000)">
                <g id="Group">
                    <path d="M304,304 L16,304 C7.164,304 0,296.837 0,288 L0,144 L160,56 L320,144 L320,288 C320,296.837 312.836,304 304,304" id="Back" fill="#BCBCBB"></path>
                    <g id="Letter" transform="translate(32.000000, 0.000000)">
                        <path d="M256,256 L0,256 L0,16 C0,7.164 7.164,0 16,0 L240,0 C248.836,0 256,7.164 256,16 L256,256 Z" id="Fill-6" fill="#FFFFFF"></path>
                        <path d="M232,75 L24,75 C22.343,75 21,73.657 21,72 C21,70.343 22.343,69 24,69 L232,69 C233.657,69 235,70.343 235,72 C235,73.657 233.657,75 232,75" id="Fill-10" fill="#D6D6D6"></path>
                        <path d="M232,91 L24,91 C22.343,91 21,89.657 21,88 C21,86.343 22.343,85 24,85 L232,85 C233.657,85 235,86.343 235,88 C235,89.657 233.657,91 232,91" id="Fill-12" fill="#D6D6D6"></path>
                        <path d="M208,107 L24,107 C22.343,107 21,105.656 21,104 C21,102.344 22.343,101 24,101 L208,101 C209.657,101 211,102.344 211,104 C211,105.656 209.657,107 208,107" id="Fill-14" fill="#D6D6D6"></path>
                        <path d="M232,219 L24,219 C22.343,219 21,217.656 21,216 C21,214.344 22.343,213 24,213 L232,213 C233.657,213 235,214.344 235,216 C235,217.656 233.657,219 232,219" id="Fill-16" fill="#D6D6D6"></path>
                        <path d="M208,235 L24,235 C22.343,235 21,233.656 21,232 C21,230.344 22.343,229 24,229 L208,229 C209.657,229 211,230.344 211,232 C211,233.656 209.657,235 208,235" id="Fill-18" fill="#D6D6D6"></path>
                        <path d="M104,192 L40,192 C31.164,192 24,184.837 24,176 L24,144 C24,135.163 31.164,128 40,128 L104,128 C112.836,128 120,135.163 120,144 L120,176 C120,184.837 112.836,192 104,192" id="Fill-30" fill="#C67DFF"></path>
                        <path d="M216,192 L152,192 C143.164,192 136,184.837 136,176 L136,144 C136,135.163 143.164,128 152,128 L216,128 C224.836,128 232,135.163 232,144 L232,176 C232,184.837 224.836,192 216,192" id="Fill-32" fill="#FFD24A"></path>
                        <path d="M224,40 L216,40 C211.582,40 208,36.418 208,32 C208,27.582 211.582,24 216,24 L224,24 C228.418,24 232,27.582 232,32 C232,36.418 228.418,40 224,40" id="Fill-34" fill="#52DE96"></path>
                    </g>
                    <g id="Front" transform="translate(0.000000, 144.000000)">
                        <path d="M16,168 C7.164,168 0,160.837 0,152 L0,8 L160,90.8476563 L320,8 L320,152 C320,160.837 312.836,168 304,168 L16,168 Z" id="Fill-2" fill="#F3F2EE"></path>
                        <path d="M160,80 L0,0 L0,144 C0,152.837 7.164,160 16,160 L304,160 C312.836,160 320,152.837 320,144 L320,0 L160,80 Z" id="Fill-36" fill="#F3F2EE"></path>
                        <path d="M160,80 L6.417,156.791 C9.091,158.797 12.401,160 16,160 L304,160 C307.599,160 310.909,158.797 313.583,156.791 L160,80 Z" id="Fill-38" fill="#FFFFFF"></path>
                        <path d="M245.5488,86.0137 C244.9668,85.7537 244.3218,85.7287 243.7318,85.9427 C243.0968,86.1737 242.5828,86.6717 242.3208,87.3087 L242.1188,87.8027 L241.6468,87.5547 C241.0378,87.2347 240.3238,87.1837 239.6878,87.4147 C239.0978,87.6297 238.6198,88.0637 238.3418,88.6377 C237.7418,89.8767 238.2468,91.4087 239.4678,92.0497 C239.4718,92.0517 239.4758,92.0537 239.4788,92.0557 L244.2388,94.3647 C244.3278,94.4077 244.4258,94.4097 244.5108,94.3787 C244.5958,94.3477 244.6698,94.2837 244.7098,94.1927 L246.8748,89.3637 C246.8768,89.3607 246.8778,89.3567 246.8798,89.3527 C247.4028,88.0767 246.8058,86.5787 245.5488,86.0137" id="Fill-40" fill="#BCBCBB"></path>
                        <path d="M257.3716,98.2725 C255.8716,95.2535 252.5796,93.6185 248.6536,94.3735 C248.6536,94.3735 246.9956,94.5645 245.3766,95.1535 C243.7596,95.7425 242.3656,96.6625 242.3656,96.6625 C237.4126,99.3885 236.5266,105.0175 240.3656,109.1755 L250.1116,119.7315 C253.9476,123.8855 257.2806,122.6775 257.5486,117.0245 L258.0196,107.0885 L252.9796,108.9255 C252.9796,108.9255 256.7426,105.0895 257.5086,102.3725 C258.0456,100.4655 257.6536,98.9865 257.3716,98.2725" id="Fill-42" fill="#D6D6D6"></path>
                        <path d="M248,75 C232.009,75 219,88.01 219,104 C219,119.99 232.009,133 248,133 C263.991,133 277,119.99 277,104 C277,88.01 263.991,75 248,75 M248,139 C228.701,139 213,123.299 213,104 C213,84.701 228.701,69 248,69 C267.299,69 283,84.701 283,104 C283,123.299 267.299,139 248,139" id="Fill-44" fill="#BCBCBB"></path>
                        <path d="M260.4097,130.2051 C256.6447,131.9941 252.4387,133.0001 247.9997,133.0001 C233.9927,133.0001 222.2727,123.0161 219.5817,109.7911 L213.1027,106.5521 C214.4157,124.6621 229.5597,139.0001 247.9997,139.0001 C254.9527,139.0001 261.4337,136.9531 266.8867,133.4431 L260.4097,130.2051 Z" id="Fill-46" fill="#D6D6D6"></path>
                    </g>
                </g>
                <text id="Staying-in-touch!" font-family="Avenir-Heavy, Avenir" font-size="16" font-weight="600" letter-spacing="0.2031746" fill="#637282">
                    <tspan x="53" y="46">Staying in touch!</tspan>
                </text>
            </g>
        </g>
    </g>
</svg>