<?xml version="1.0" encoding="UTF-8"?>
<svg width="395px" height="424px" viewBox="0 0 395 424" version="1.1" xmlns="http://www.w3.org/2000/svg" xmlns:xlink="http://www.w3.org/1999/xlink">
    <!-- Generator: Sketch 44.1 (41455) - http://www.bohemiancoding.com/sketch -->
    <title>Fill 2</title>
    <desc>Created with Sketch.</desc>
    <defs></defs>
    <g id="Page-1" stroke="none" stroke-width="1" fill="none" fill-rule="evenodd">
        <g id="Marketing-Site---Features" transform="translate(-35.000000, -715.000000)">
            <g id="Fill-2" transform="translate(35.000000, 715.000000)">
                <path d="M379.807692,361 L15.1923077,361 C6.80235577,361 0,348.0451 0,332.066667 L0,144 L395,144 L395,332.066667 C395,348.0451 388.198594,361 379.807692,361" fill="#F3F2EE"></path>
                <path d="M256,256 L256,0 L381.1,0 C388.777144,0 395,7.164 395,16 L395,240 C395,248.836 388.777144,256 381.1,256 L256,256 Z" id="Fill-4" fill="#F3F2EE"></path>
                <path d="M256,256 L16,256 C7.164,256 0,248.836 0,240 L0,16 C0,7.164 7.164,0 16,0 L256,0 L256,256 Z" id="Fill-6" fill="#FFFFFF"></path>
                <path d="M96,27 L64,27 C62.343,27 61,25.657 61,24 C61,22.343 62.343,21 64,21 L96,21 C97.657,21 99,22.343 99,24 C99,25.657 97.657,27 96,27" id="Fill-8" fill="#BCBCBB"></path>
                <path d="M232,75 L24,75 C22.343,75 21,73.657 21,72 C21,70.343 22.343,69 24,69 L232,69 C233.657,69 235,70.343 235,72 C235,73.657 233.657,75 232,75" id="Fill-10" fill="#D6D6D6"></path>
                <path d="M232,91 L24,91 C22.343,91 21,89.657 21,88 C21,86.343 22.343,85 24,85 L232,85 C233.657,85 235,86.343 235,88 C235,89.657 233.657,91 232,91" id="Fill-12" fill="#D6D6D6"></path>
                <path d="M208,107 L24,107 C22.343,107 21,105.657 21,104 C21,102.343 22.343,101 24,101 L208,101 C209.657,101 211,102.343 211,104 C211,105.657 209.657,107 208,107" id="Fill-14" fill="#D6D6D6"></path>
                <path d="M232,219 L24,219 C22.343,219 21,217.657 21,216 C21,214.343 22.343,213 24,213 L232,213 C233.657,213 235,214.343 235,216 C235,217.657 233.657,219 232,219" id="Fill-16" fill="#D6D6D6"></path>
                <path d="M208,235 L24,235 C22.343,235 21,233.657 21,232 C21,230.343 22.343,229 24,229 L208,229 C209.657,229 211,230.343 211,232 C211,233.657 209.657,235 208,235" id="Fill-18" fill="#D6D6D6"></path>
                <path d="M80,43 L64,43 C62.343,43 61,41.657 61,40 C61,38.343 62.343,37 64,37 L80,37 C81.657,37 83,38.343 83,40 C83,41.657 81.657,43 80,43" id="Fill-20" fill="#D6D6D6"></path>
                <path d="M18.0044,33.0205 C16.6074,24.9255 24.9554,18.6765 32.0004,18.9995 C38.3764,19.3235 42.7594,25.6095 45.9954,32.9795 C49.2324,40.3395 41.0894,46.5895 32.0004,46.9995 C23.5784,47.4115 19.4004,41.1245 18.0044,33.0205" id="Fill-22" fill="#7394FF"></path>
                <path d="M34.6665,34 L29.3335,34 C28.9655,34 28.6665,34.298 28.6665,34.667 C28.6665,36.505 30.1625,38 31.9995,38 C33.8375,38 35.3335,36.505 35.3335,34.667 C35.3335,34.298 35.0345,34 34.6665,34" id="Fill-24" fill="#34414F"></path>
                <path d="M26.6665,32.6665 C26.2985,32.6665 25.9995,32.3685 25.9995,31.9995 C25.9995,31.6325 25.7005,31.3335 25.3335,31.3335 C24.9655,31.3335 24.6665,31.6325 24.6665,31.9995 C24.6665,32.3685 24.3685,32.6665 23.9995,32.6665 C23.6315,32.6665 23.3335,32.3685 23.3335,31.9995 C23.3335,30.8975 24.2305,29.9995 25.3335,29.9995 C26.4365,29.9995 27.3335,30.8975 27.3335,31.9995 C27.3335,32.3685 27.0345,32.6665 26.6665,32.6665" id="Fill-26" fill="#34414F"></path>
                <path d="M40,32.6665 C39.632,32.6665 39.333,32.3685 39.333,31.9995 C39.333,31.6325 39.034,31.3335 38.667,31.3335 C38.299,31.3335 38,31.6325 38,31.9995 C38,32.3685 37.702,32.6665 37.333,32.6665 C36.965,32.6665 36.667,32.3685 36.667,31.9995 C36.667,30.8975 37.564,29.9995 38.667,29.9995 C39.77,29.9995 40.667,30.8975 40.667,31.9995 C40.667,32.3685 40.368,32.6665 40,32.6665" id="Fill-28" fill="#34414F"></path>
                <path d="M104,192 L40,192 C31.164,192 24,184.836 24,176 L24,144 C24,135.164 31.164,128 40,128 L104,128 C112.836,128 120,135.164 120,144 L120,176 C120,184.836 112.836,192 104,192" id="Fill-30" fill="#C67DFF"></path>
                <path d="M216,192 L152,192 C143.164,192 136,184.836 136,176 L136,144 C136,135.164 143.164,128 152,128 L216,128 C224.836,128 232,135.164 232,144 L232,176 C232,184.836 224.836,192 216,192" id="Fill-32" fill="#FFD24A"></path>
                <path d="M224,40 L216,40 C211.582,40 208,36.418 208,32 C208,27.582 211.582,24 216,24 L224,24 C228.418,24 232,27.582 232,32 C232,36.418 228.418,40 224,40" id="Fill-54" fill="#52DE96"></path>
                <path d="M379.807692,288 L243.076923,288 L15.1923077,288 C6.80235577,288 0,295.164 0,304 L0,404.237 C0,411.338 4.4390024,417.596 10.909976,419.589 C17.8139303,421.716 26.2010337,424 30.3846154,424 C38.214351,424 52.9385457,416 60.7692308,416 C68.5989663,416 83.3241106,424 91.1538462,424 C98.9835817,424 113.708726,416 121.538462,416 C129.368197,416 144.093341,424 151.923077,424 C159.752813,424 174.477957,416 182.307692,416 C190.137428,416 204.862572,424 212.692308,424 C220.522043,424 235.247188,416 243.076923,416 C250.906659,416 265.631803,424 273.461538,424 C281.291274,424 296.016418,416 303.846154,416 C311.675889,416 326.401034,424 334.230769,424 C342.060505,424 356.785649,416 364.615385,416 C367.238906,416 371.515541,416.898 376.042849,418.093 C385.663377,420.63 395,413.037 395,402.592 L395,304 C395,295.164 388.198594,288 379.807692,288" fill="#F3F2EE"></path>
                <path d="M395,394.5918 C395,405.0368 386.457581,412.6308 377.655406,410.0928 C373.513206,408.8978 369.600356,407.9998 367.2,407.9998 C360.036287,407.9998 346.563713,415.9998 339.4,415.9998 C332.235419,415.9998 318.763713,407.9998 311.6,407.9998 C304.436287,407.9998 290.963712,415.9998 283.8,415.9998 C276.636287,415.9998 256,407.9998 256,407.9998 L256,279.9998 L381.1,279.9998 C388.777144,279.9998 395,287.1638 395,295.9998 L395,394.5918 Z" id="Fill-4" fill="#F3F2EE"></path>
                <path d="M256,408 C256,408 232.246,416 224,416 C215.754,416 200.246,408 192,408 C183.754,408 168.246,416 160,416 C151.754,416 136.246,408 128,408 C119.754,408 104.247,416 96,416 C87.754,416 72.246,408 64,408 C55.753,408 40.246,416 32,416 C27.594,416 18.761,413.716 11.49,411.589 C4.675,409.596 0,403.338 0,396.238 L0,296 C0,287.164 7.164,280 16,280 L256,280 L256,408 Z" id="Fill-6" fill="#FFFFFF"></path>
                <path d="M96,307 L64,307 C62.343,307 61,305.657 61,304 C61,302.343 62.343,301 64,301 L96,301 C97.657,301 99,302.343 99,304 C99,305.657 97.657,307 96,307" id="Fill-8" fill="#BCBCBB"></path>
                <path d="M232,355 L24,355 C22.343,355 21,353.657 21,352 C21,350.343 22.343,349 24,349 L232,349 C233.657,349 235,350.343 235,352 C235,353.657 233.657,355 232,355" id="Fill-10" fill="#D6D6D6"></path>
                <path d="M232,371 L24,371 C22.343,371 21,369.657 21,368 C21,366.343 22.343,365 24,365 L232,365 C233.657,365 235,366.343 235,368 C235,369.657 233.657,371 232,371" id="Fill-12" fill="#D6D6D6"></path>
                <path d="M208,387 L24,387 C22.343,387 21,385.657 21,384 C21,382.343 22.343,381 24,381 L208,381 C209.657,381 211,382.343 211,384 C211,385.657 209.657,387 208,387" id="Fill-14" fill="#D6D6D6"></path>
                <path d="M80,323 L64,323 C62.343,323 61,321.657 61,320 C61,318.343 62.343,317 64,317 L80,317 C81.657,317 83,318.343 83,320 C83,321.657 81.657,323 80,323" id="Fill-16" fill="#D6D6D6"></path>
                <path d="M17.2578,311.9004 C18.8378,304.6594 24.6578,298.6634 31.9998,298.6664 C39.3418,298.6634 45.1608,304.6594 46.7418,311.9004 C48.2758,318.8854 41.6728,326.0634 31.9998,326.2774 C22.3288,326.0634 15.7238,318.8854 17.2578,311.9004" id="Fill-20" fill="#52DE96"></path>
                <path d="M32,316.6665 C30.162,316.6665 28.667,315.1715 28.667,313.3335 C28.667,312.9655 28.965,312.6665 29.333,312.6665 C29.702,312.6665 30,312.9655 30,313.3335 C30,314.4365 30.897,315.3335 32,315.3335 C33.103,315.3335 34,314.4365 34,313.3335 C34,312.9655 34.298,312.6665 34.667,312.6665 C35.035,312.6665 35.333,312.9655 35.333,313.3335 C35.333,315.1715 33.838,316.6665 32,316.6665" id="Fill-22" fill="#34414F"></path>
                <path d="M24,310.6665 C24,309.9305 24.597,309.3335 25.333,309.3335 C26.07,309.3335 26.667,309.9305 26.667,310.6665 C26.667,311.4025 26.07,311.9995 25.333,311.9995 C24.597,311.9995 24,311.4025 24,310.6665" id="Fill-24" fill="#34414F"></path>
                <path d="M37.3335,310.6665 C37.3335,309.9305 37.9305,309.3335 38.6665,309.3335 C39.4025,309.3335 40.0005,309.9305 40.0005,310.6665 C40.0005,311.4025 39.4025,311.9995 38.6665,311.9995 C37.9305,311.9995 37.3335,311.4025 37.3335,310.6665" id="Fill-26" fill="#34414F"></path>
                <path d="M232,312 C232,316.418 228.418,320 224,320 C219.582,320 216,316.418 216,312 C216,307.582 219.582,304 224,304 C228.418,304 232,307.582 232,312" id="Fill-34" fill="#FA6452"></path>
                <g id="Group-10" stroke-width="1" transform="translate(299.000000, 21.000000)">
                    <text id="2017" font-family="Avenir-Heavy, Avenir" font-size="16" font-weight="600" fill="#4C67FC">
                        <tspan x="0" y="16">2017</tspan>
                    </text>
                    <text id="April" font-family="Avenir-Heavy, Avenir" font-size="14" font-weight="600" line-spacing="16" fill="#4C67FC">
                        <tspan x="9" y="76">April</tspan>
                    </text>
                    <text id="2016" font-family="Avenir-Medium, Avenir" font-size="16" font-weight="400" fill="#637282">
                        <tspan x="0" y="149">2016</tspan>
                    </text>
                    <path d="M42,52 L10,52 C8.343,52 7,50.657 7,49 C7,47.343 8.343,46 10,46 L42,46 C43.657,46 45,47.343 45,49 C45,50.657 43.657,52 42,52" id="Fill-8" fill-opacity="0.6" fill="#BCBCBB"></path>
                    <path d="M42,91 L10,91 C8.343,91 7,89.657 7,88 C7,86.343 8.343,85 10,85 L42,85 C43.657,85 45,86.343 45,88 C45,89.657 43.657,91 42,91" id="Fill-8" fill-opacity="0.6" fill="#BCBCBB"></path>
                    <path d="M42,107 L10,107 C8.343,107 7,105.657 7,104 C7,102.343 8.343,101 10,101 L42,101 C43.657,101 45,102.343 45,104 C45,105.657 43.657,107 42,107" id="Fill-8" fill-opacity="0.6" fill="#BCBCBB"></path>
                    <path d="M42,123 L10,123 C8.343,123 7,121.657 7,120 C7,118.343 8.343,117 10,117 L42,117 C43.657,117 45,118.343 45,120 C45,121.657 43.657,123 42,123" id="Fill-8" fill-opacity="0.6" fill="#BCBCBB"></path>
                    <path d="M42,169 L10,169 C8.343,169 7,167.657 7,166 C7,164.343 8.343,163 10,163 L42,163 C43.657,163 45,164.343 45,166 C45,167.657 43.657,169 42,169" id="Fill-8" fill-opacity="0.6" fill="#BCBCBB"></path>
                    <path d="M42,185 L10,185 C8.343,185 7,183.657 7,182 C7,180.343 8.343,179 10,179 L42,179 C43.657,179 45,180.343 45,182 C45,183.657 43.657,185 42,185" id="Fill-8" fill-opacity="0.6" fill="#BCBCBB"></path>
                    <path d="M42,201 L10,201 C8.343,201 7,199.657 7,198 C7,196.343 8.343,195 10,195 L42,195 C43.657,195 45,196.343 45,198 C45,199.657 43.657,201 42,201" id="Fill-8" fill-opacity="0.6" fill="#BCBCBB"></path>
                    <path d="M42,36 L10,36 C8.343,36 7,34.657 7,33 C7,31.343 8.343,30 10,30 L42,30 C43.657,30 45,31.343 45,33 C45,34.657 43.657,36 42,36" id="Fill-8" fill-opacity="0.600000024" fill="#BCBCBB"></path>
                </g>
            </g>
        </g>
    </g>
</svg>