<?xml version="1.0" encoding="UTF-8"?>
<svg width="465px" height="408px" viewBox="0 0 465 408" version="1.1" xmlns="http://www.w3.org/2000/svg" xmlns:xlink="http://www.w3.org/1999/xlink">
    <!-- Generator: Sketch 44.1 (41455) - http://www.bohemiancoding.com/sketch -->
    <title>Group 13</title>
    <desc>Created with Sketch.</desc>
    <defs></defs>
    <g id="Page-1" stroke="none" stroke-width="1" fill="none" fill-rule="evenodd">
        <g id="Marketing-Site---Features" transform="translate(-35.000000, -728.000000)">
            <g id="Group-13" transform="translate(35.000000, 728.000000)">
                <path d="M221.087418,15.212543 C326.158745,11.2809795 447.292495,61.5550203 463.312143,194.225394 C479.331791,326.895768 380.009227,404.321242 221.087418,407.4932 C83.6006175,414.405882 -6.47741001,350.894134 0.364447154,199.040147 C20.6631129,15.212543 79.7648326,15.1630971 221.087418,15.212543 Z" id="Mask" fill="#FBFAF7"></path>
                <g id="Group-8" transform="translate(38.000000, 0.000000)">
                    <path d="M379.807692,361.920918 L15.1923077,361.920918 C6.80235577,361.920918 0,348.93297 0,332.913776 L0,144.367347 L395,144.367347 L395,332.913776 C395,348.93297 388.198594,361.920918 379.807692,361.920918" id="Fill-2" fill="#F3F2EE"></path>
                    <path d="M256,256.653061 L256,0 L381.1,0 C388.777144,0 395,7.18227551 395,16.0408163 L395,240.612245 C395,249.470786 388.777144,256.653061 381.1,256.653061 L256,256.653061 Z" id="Fill-4" fill="#F3F2EE"></path>
                    <path d="M256,237.604592 L16,237.604592 C7.164,237.604592 0,230.955376 0,222.754305 L0,14.850287 C0,6.649216 7.164,0 16,0 L256,0 L256,237.604592 Z" id="Fill-6" fill="#FFFFFF"></path>
                    <path d="M96,27.0688776 L64,27.0688776 C62.343,27.0688776 61,25.7224515 61,24.0612245 C61,22.3999974 62.343,21.0535714 64,21.0535714 L96,21.0535714 C97.657,21.0535714 99,22.3999974 99,24.0612245 C99,25.7224515 97.657,27.0688776 96,27.0688776" id="Fill-8" fill="#BCBCBB"></path>
                    <path d="M232,75.1913265 L24,75.1913265 C22.343,75.1913265 21,73.8449005 21,72.1836735 C21,70.5224464 22.343,69.1760204 24,69.1760204 L232,69.1760204 C233.657,69.1760204 235,70.5224464 235,72.1836735 C235,73.8449005 233.657,75.1913265 232,75.1913265" id="Fill-10" fill="#D6D6D6"></path>
                    <path d="M208,90.2295918 L24,90.2295918 C22.343,90.2295918 21,88.8831658 21,87.2219388 C21,85.5607117 22.343,84.2142857 24,84.2142857 L208,84.2142857 C209.657,84.2142857 211,85.5607117 211,87.2219388 C211,88.8831658 209.657,90.2295918 208,90.2295918" id="Fill-14" fill="#D6D6D6"></path>
                    <path d="M232,194.494898 L24,194.494898 C22.343,194.494898 21,193.148472 21,191.487245 C21,189.826018 22.343,188.479592 24,188.479592 L232,188.479592 C233.657,188.479592 235,189.826018 235,191.487245 C235,193.148472 233.657,194.494898 232,194.494898" id="Fill-16" fill="#D6D6D6"></path>
                    <path d="M208,209.533163 L24,209.533163 C22.343,209.533163 21,208.186737 21,206.52551 C21,204.864283 22.343,203.517857 24,203.517857 L208,203.517857 C209.657,203.517857 211,204.864283 211,206.52551 C211,208.186737 209.657,209.533163 208,209.533163" id="Fill-18" fill="#D6D6D6"></path>
                    <path d="M80,43.1096939 L64,43.1096939 C62.343,43.1096939 61,41.7632679 61,40.1020408 C61,38.4408138 62.343,37.0943878 64,37.0943878 L80,37.0943878 C81.657,37.0943878 83,38.4408138 83,40.1020408 C83,41.7632679 81.657,43.1096939 80,43.1096939" id="Fill-20" fill="#D6D6D6"></path>
                    <path d="M18.0044,33.104736 C16.6074,24.9890855 24.9554,18.7241441 32.0004,19.0479681 C38.3764,19.3727946 42.7594,25.6748304 45.9954,33.0636314 C49.2324,40.4424069 41.0894,46.7083508 32.0004,47.1193967 C23.5784,47.5324477 19.4004,41.2294094 18.0044,33.104736" id="Fill-22" fill="#7394FF"></path>
                    <path d="M34.6665,34.0867347 L29.3335,34.0867347 C28.9655,34.0867347 28.6665,34.3854949 28.6665,34.7554362 C28.6665,36.598125 30.1625,38.0969388 31.9995,38.0969388 C33.8375,38.0969388 35.3335,36.598125 35.3335,34.7554362 C35.3335,34.3854949 35.0345,34.0867347 34.6665,34.0867347" id="Fill-24" fill="#34414F"></path>
                    <path d="M26.6665,32.7498329 C26.2985,32.7498329 25.9995,32.4510727 25.9995,32.0811314 C25.9995,31.7131952 25.7005,31.4134324 25.3335,31.4134324 C24.9655,31.4134324 24.6665,31.7131952 24.6665,32.0811314 C24.6665,32.4510727 24.3685,32.7498329 23.9995,32.7498329 C23.6315,32.7498329 23.3335,32.4510727 23.3335,32.0811314 C23.3335,30.9763202 24.2305,30.0760293 25.3335,30.0760293 C26.4365,30.0760293 27.3335,30.9763202 27.3335,32.0811314 C27.3335,32.4510727 27.0345,32.7498329 26.6665,32.7498329" id="Fill-26" fill="#34414F"></path>
                    <path d="M40,32.7498329 C39.632,32.7498329 39.333,32.4510727 39.333,32.0811314 C39.333,31.7131952 39.034,31.4134324 38.667,31.4134324 C38.299,31.4134324 38,31.7131952 38,32.0811314 C38,32.4510727 37.702,32.7498329 37.333,32.7498329 C36.965,32.7498329 36.667,32.4510727 36.667,32.0811314 C36.667,30.9763202 37.564,30.0760293 38.667,30.0760293 C39.77,30.0760293 40.667,30.9763202 40.667,32.0811314 C40.667,32.4510727 40.368,32.7498329 40,32.7498329" id="Fill-28" fill="#34414F"></path>
                    <path d="M104,171.436224 L40,171.436224 C31.164,171.436224 24,164.253949 24,155.395408 L24,123.313776 C24,114.455235 31.164,107.272959 40,107.272959 L104,107.272959 C112.836,107.272959 120,114.455235 120,123.313776 L120,155.395408 C120,164.253949 112.836,171.436224 104,171.436224" id="Fill-30" fill="#C67DFF"></path>
                    <path d="M216,171.436224 L152,171.436224 C143.164,171.436224 136,164.253949 136,155.395408 L136,123.313776 C136,114.455235 143.164,107.272959 152,107.272959 L216,107.272959 C224.836,107.272959 232,114.455235 232,123.313776 L232,155.395408 C232,164.253949 224.836,171.436224 216,171.436224" id="Fill-32" fill="#FFD24A"></path>
                    <path d="M224,40.1020408 L216,40.1020408 C211.582,40.1020408 208,36.5109031 208,32.0816327 C208,27.6523622 211.582,24.0612245 216,24.0612245 L224,24.0612245 C228.418,24.0612245 232,27.6523622 232,32.0816327 C232,36.5109031 228.418,40.1020408 224,40.1020408" id="Fill-54" fill="#52DE96"></path>
                    <path d="M380.076923,275.701531 L245.769231,275.701531 L21.9230769,275.701531 C13.6818077,275.701531 7,281.774778 7,289.265456 L7,374.240907 C7,380.260746 11.3603365,385.565937 17.7166346,387.255493 C24.4982404,389.058648 32.7367115,390.994898 36.8461538,390.994898 C44.5371346,390.994898 59.0003942,384.212935 66.6923077,384.212935 C74.3832885,384.212935 88.8474808,390.994898 96.5384615,390.994898 C104.229442,390.994898 118.693635,384.212935 126.384615,384.212935 C134.075596,384.212935 148.539788,390.994898 156.230769,390.994898 C163.92175,390.994898 178.385942,384.212935 186.076923,384.212935 C193.767904,384.212935 208.232096,390.994898 215.923077,390.994898 C223.614058,390.994898 238.07825,384.212935 245.769231,384.212935 C253.460212,384.212935 267.924404,390.994898 275.615385,390.994898 C283.306365,390.994898 297.770558,384.212935 305.461538,384.212935 C313.152519,384.212935 327.616712,390.994898 335.307692,390.994898 C342.998673,390.994898 357.462865,384.212935 365.153846,384.212935 C367.730875,384.212935 371.931721,384.97421 376.378798,385.987266 C385.828837,388.137996 395,381.701066 395,372.846366 L395,289.265456 C395,281.774778 388.319125,275.701531 380.076923,275.701531" id="Fill-2" fill="#F3F2EE"></path>
                    <path d="M395,366.056405 C395,373.835313 386.457581,379.490939 377.655406,377.600765 C373.513206,376.71079 369.600356,376.042005 367.2,376.042005 C360.036287,376.042005 346.563713,382 339.4,382 C332.235419,382 318.763713,376.042005 311.6,376.042005 C304.436287,376.042005 290.963712,382 283.8,382 C276.636287,382 256,376.042005 256,376.042005 L256,280.714085 L381.1,280.714085 C388.777144,280.714085 395,286.04947 395,292.630075 L395,366.056405 Z" id="Fill-4" fill="#F3F2EE"></path>
                    <path d="M256,375.956633 C256,375.956633 232.246,383.977041 224,383.977041 C215.754,383.977041 200.246,375.956633 192,375.956633 C183.754,375.956633 168.246,383.977041 160,383.977041 C151.754,383.977041 136.246,375.956633 128,375.956633 C119.754,375.956633 104.247,383.977041 96,383.977041 C87.754,383.977041 72.246,375.956633 64,375.956633 C55.753,375.956633 40.246,383.977041 32,383.977041 C27.594,383.977041 18.761,381.687214 11.49,379.554788 C4.675,377.556704 0,371.28274 0,364.164628 L0,263.670918 C0,254.812378 7.164,247.630102 16,247.630102 L256,247.630102 L256,375.956633 Z" id="Fill-6" fill="#FFFFFF"></path>
                    <path d="M96,274.69898 L64,274.69898 C62.343,274.69898 61,273.352554 61,271.691327 C61,270.030099 62.343,268.683673 64,268.683673 L96,268.683673 C97.657,268.683673 99,270.030099 99,271.691327 C99,273.352554 97.657,274.69898 96,274.69898" id="Fill-8" fill="#BCBCBB"></path>
                    <path d="M232,322.821429 L24,322.821429 C22.343,322.821429 21,321.475003 21,319.813776 C21,318.152548 22.343,316.806122 24,316.806122 L232,316.806122 C233.657,316.806122 235,318.152548 235,319.813776 C235,321.475003 233.657,322.821429 232,322.821429" id="Fill-10" fill="#D6D6D6"></path>
                    <path d="M208,338.862245 L24,338.862245 C22.343,338.862245 21,337.515819 21,335.854592 C21,334.193365 22.343,332.846939 24,332.846939 L208,332.846939 C209.657,332.846939 211,334.193365 211,335.854592 C211,337.515819 209.657,338.862245 208,338.862245" id="Fill-14" fill="#D6D6D6"></path>
                    <path d="M80,290.739796 L64,290.739796 C62.343,290.739796 61,289.39337 61,287.732143 C61,286.070916 62.343,284.72449 64,284.72449 L80,284.72449 C81.657,284.72449 83,286.070916 83,287.732143 C83,289.39337 81.657,290.739796 80,290.739796" id="Fill-16" fill="#D6D6D6"></path>
                    <path d="M17.2578,279.611881 C18.8378,272.352409 24.6578,266.341113 31.9998,266.34412 C39.3418,266.341113 45.1608,272.352409 46.7418,279.611881 C48.2758,286.614699 41.6728,293.811011 31.9998,294.025557 C22.3288,293.811011 15.7238,286.614699 17.2578,279.611881" id="Fill-20" fill="#52DE96"></path>
                    <path d="M32,284.390139 C30.162,284.390139 28.667,282.891325 28.667,281.048636 C28.667,280.679698 28.965,280.379935 29.333,280.379935 C29.702,280.379935 30,280.679698 30,281.048636 C30,282.15445 30.897,283.053739 32,283.053739 C33.103,283.053739 34,282.15445 34,281.048636 C34,280.679698 34.298,280.379935 34.667,280.379935 C35.035,280.379935 35.333,280.679698 35.333,281.048636 C35.333,282.891325 33.838,284.390139 32,284.390139" id="Fill-22" fill="#34414F"></path>
                    <path d="M24,278.374833 C24,277.636955 24.597,277.038432 25.333,277.038432 C26.07,277.038432 26.667,277.636955 26.667,278.374833 C26.667,279.11271 26.07,279.711233 25.333,279.711233 C24.597,279.711233 24,279.11271 24,278.374833" id="Fill-24" fill="#34414F"></path>
                    <path d="M37.3335,278.374833 C37.3335,277.636955 37.9305,277.038432 38.6665,277.038432 C39.4025,277.038432 40.0005,277.636955 40.0005,278.374833 C40.0005,279.11271 39.4025,279.711233 38.6665,279.711233 C37.9305,279.711233 37.3335,279.11271 37.3335,278.374833" id="Fill-26" fill="#34414F"></path>
                    <path d="M232,279.711735 C232,284.141005 228.418,287.732143 224,287.732143 C219.582,287.732143 216,284.141005 216,279.711735 C216,275.282464 219.582,271.691327 224,271.691327 C228.418,271.691327 232,275.282464 232,279.711735" id="Fill-34" fill="#FA6452"></path>
                    <g id="Group-10" transform="translate(299.000000, 21.053571)">
                        <text id="2017" font-family="Avenir-Heavy, Avenir" font-size="16" font-weight="600" fill="#4C67FC">
                            <tspan x="0" y="16">2017</tspan>
                        </text>
                        <text id="April" font-family="Avenir-Heavy, Avenir" font-size="14" font-weight="600" line-spacing="16" fill="#4C67FC">
                            <tspan x="9" y="76.1718423">April</tspan>
                        </text>
                        <text id="2016" font-family="Avenir-Medium, Avenir" font-size="16" font-weight="400" fill="#637282">
                            <tspan x="0" y="149.380986">2016</tspan>
                        </text>
                        <path d="M42,52.1326531 L10,52.1326531 C8.343,52.1326531 7,50.786227 7,49.125 C7,47.463773 8.343,46.1173469 10,46.1173469 L42,46.1173469 C43.657,46.1173469 45,47.463773 45,49.125 C45,50.786227 43.657,52.1326531 42,52.1326531" id="Fill-8" fill-opacity="0.6" fill="#BCBCBB"></path>
                        <path d="M42,91.2321429 L10,91.2321429 C8.343,91.2321429 7,89.8857168 7,88.2244898 C7,86.5632628 8.343,85.2168367 10,85.2168367 L42,85.2168367 C43.657,85.2168367 45,86.5632628 45,88.2244898 C45,89.8857168 43.657,91.2321429 42,91.2321429" id="Fill-8" fill-opacity="0.6" fill="#BCBCBB"></path>
                        <path d="M42,107.272959 L10,107.272959 C8.343,107.272959 7,105.926533 7,104.265306 C7,102.604079 8.343,101.257653 10,101.257653 L42,101.257653 C43.657,101.257653 45,102.604079 45,104.265306 C45,105.926533 43.657,107.272959 42,107.272959" id="Fill-8" fill-opacity="0.6" fill="#BCBCBB"></path>
                        <path d="M42,123.313776 L10,123.313776 C8.343,123.313776 7,121.967349 7,120.306122 C7,118.644895 8.343,117.298469 10,117.298469 L42,117.298469 C43.657,117.298469 45,118.644895 45,120.306122 C45,121.967349 43.657,123.313776 42,123.313776" id="Fill-8" fill-opacity="0.6" fill="#BCBCBB"></path>
                        <path d="M42,169.431122 L10,169.431122 C8.343,169.431122 7,168.084696 7,166.423469 C7,164.762242 8.343,163.415816 10,163.415816 L42,163.415816 C43.657,163.415816 45,164.762242 45,166.423469 C45,168.084696 43.657,169.431122 42,169.431122" id="Fill-8" fill-opacity="0.6" fill="#BCBCBB"></path>
                        <path d="M42,185.471939 L10,185.471939 C8.343,185.471939 7,184.125513 7,182.464286 C7,180.803059 8.343,179.456633 10,179.456633 L42,179.456633 C43.657,179.456633 45,180.803059 45,182.464286 C45,184.125513 43.657,185.471939 42,185.471939" id="Fill-8" fill-opacity="0.6" fill="#BCBCBB"></path>
                        <path d="M42,201.512755 L10,201.512755 C8.343,201.512755 7,200.166329 7,198.505102 C7,196.843875 8.343,195.497449 10,195.497449 L42,195.497449 C43.657,195.497449 45,196.843875 45,198.505102 C45,200.166329 43.657,201.512755 42,201.512755" id="Fill-8" fill-opacity="0.6" fill="#BCBCBB"></path>
                        <path d="M42,36.0918367 L10,36.0918367 C8.343,36.0918367 7,34.7454107 7,33.0841837 C7,31.4229566 8.343,30.0765306 10,30.0765306 L42,30.0765306 C43.657,30.0765306 45,31.4229566 45,33.0841837 C45,34.7454107 43.657,36.0918367 42,36.0918367" id="Fill-8" fill-opacity="0.600000024" fill="#BCBCBB"></path>
                    </g>
                </g>
            </g>
        </g>
    </g>
</svg>