<?xml version="1.0" encoding="UTF-8"?>
<svg width="320px" height="504px" viewBox="0 0 320 504" version="1.1" xmlns="http://www.w3.org/2000/svg" xmlns:xlink="http://www.w3.org/1999/xlink">
    <!-- Generator: Sketch 44.1 (41455) - http://www.bohemiancoding.com/sketch -->
    <title>Group 2</title>
    <desc>Created with Sketch.</desc>
    <defs></defs>
    <g id="Page-1" stroke="none" stroke-width="1" fill="none" fill-rule="evenodd">
        <g id="Marketing-Site---Features" transform="translate(-35.000000, -86.000000)">
            <g id="Group-2" transform="translate(35.000000, 86.000000)">
                <g id="Story">
                    <path d="M320,493.0996 C320,498.4516 314.852,502.2916 309.721,500.7676 C302.246,498.5476 292.653,495.9996 288,495.9996 C279.754,495.9996 264.246,503.9996 256,503.9996 C247.754,503.9996 232.246,495.9996 224,495.9996 C215.754,495.9996 200.246,503.9996 192,503.9996 C183.754,503.9996 168.246,495.9996 160,495.9996 C151.754,495.9996 136.246,503.9996 128,503.9996 C119.754,503.9996 104.246,495.9996 96,495.9996 C87.754,495.9996 72.246,503.9996 64,503.9996 C55.754,503.9996 40.246,495.9996 32,495.9996 C27.347,495.9996 17.754,498.5476 10.279,500.7676 C5.148,502.2916 0,498.4516 0,493.0996 L0,23.9996 C0,15.1636 7.163,7.9996 16,7.9996 L304,7.9996 C312.837,7.9996 320,15.1636 320,23.9996 L320,493.0996 Z" id="Fill-2" fill="#F3F2EE"></path>
                    <path d="M320,485.0996 C320,490.4516 314.852,494.2916 309.721,492.7676 C302.246,490.5476 292.653,487.9996 288,487.9996 C279.754,487.9996 264.246,495.9996 256,495.9996 C247.754,495.9996 232.246,487.9996 224,487.9996 C215.754,487.9996 200.246,495.9996 192,495.9996 C183.754,495.9996 168.246,487.9996 160,487.9996 C151.754,487.9996 136.246,495.9996 128,495.9996 C119.754,495.9996 104.246,487.9996 96,487.9996 C87.754,487.9996 72.246,495.9996 64,495.9996 C55.754,495.9996 40.246,487.9996 32,487.9996 C27.347,487.9996 17.754,490.5476 10.279,492.7676 C5.148,494.2916 0,490.4516 0,485.0996 L0,15.9996 C0,7.1636 7.163,-0.0004 16,-0.0004 L304,-0.0004 C312.837,-0.0004 320,7.1636 320,15.9996 L320,485.0996 Z" id="Fill-4" fill="#FFFFFF"></path>
                    <path d="M296,107 L24,107 C22.343,107 21,105.657 21,104 C21,102.343 22.343,101 24,101 L296,101 C297.657,101 299,102.343 299,104 C299,105.657 297.657,107 296,107" id="Fill-8" fill="#D6D6D6"></path>
                    <path d="M296,219 L24,219 C22.343,219 21,217.657 21,216 C21,214.343 22.343,213 24,213 L296,213 C297.657,213 299,214.343 299,216 C299,217.657 297.657,219 296,219" id="Fill-10" fill="#D6D6D6"></path>
                    <path d="M272,235 L24,235 C22.343,235 21,233.657 21,232 C21,230.343 22.343,229 24,229 L272,229 C273.657,229 275,230.343 275,232 C275,233.657 273.657,235 272,235" id="Fill-12" fill="#D6D6D6"></path>
                    <path d="M43,52 L27,52 C25.343,52 24,50.657 24,49 C24,47.343 25.343,46 27,46 L43,46 C44.657,46 46,47.343 46,49 C46,50.657 44.657,52 43,52" id="Fill-14" fill="#D6D6D6"></path>
                    <path d="M280,192 L40,192 C31.163,192 24,184.836 24,176 L24,144 C24,135.164 31.163,128 40,128 L280,128 C288.837,128 296,135.164 296,144 L296,176 C296,184.836 288.837,192 280,192" id="Fill-16" fill="#FFD24A"></path>
                    <path d="M48,80 L32,80 C27.582,80 24,76.418 24,72 C24,67.582 27.582,64 32,64 L48,64 C52.418,64 56,67.582 56,72 C56,76.418 52.418,80 48,80" id="Fill-18" fill="#7394FF"></path>
                    <path d="M88,80 L72,80 C67.582,80 64,76.418 64,72 C64,67.582 67.582,64 72,64 L88,64 C92.418,64 96,67.582 96,72 C96,76.418 92.418,80 88,80" id="Fill-20" fill="#7394FF"></path>
                    <path d="M280,352 L40,352 C31.163,352 24,344.836 24,336 L24,272 C24,263.164 31.163,256 40,256 L280,256 C288.837,256 296,263.164 296,272 L296,336 C296,344.836 288.837,352 280,352" id="Fill-30" fill="#F3F2EE"></path>
                    <path d="M56,280 C56,284.418 52.418,288 48,288 C43.582,288 40,284.418 40,280 C40,275.582 43.582,272 48,272 C52.418,272 56,275.582 56,280" id="Fill-32" fill="#C67DFF"></path>
                    <path d="M144,283 L72,283 C70.343,283 69,281.657 69,280 C69,278.343 70.343,277 72,277 L144,277 C145.657,277 147,278.343 147,280 C147,281.657 145.657,283 144,283" id="Fill-34" fill="#BCBCBB"></path>
                    <path d="M272,315 L48,315 C46.343,315 45,313.657 45,312 C45,310.343 46.343,309 48,309 L272,309 C273.657,309 275,310.343 275,312 C275,313.657 273.657,315 272,315" id="Fill-36" fill="#BCBCBB"></path>
                    <path d="M272,331 L48,331 C46.343,331 45,329.657 45,328 C45,326.343 46.343,325 48,325 L272,325 C273.657,325 275,326.343 275,328 C275,329.657 273.657,331 272,331" id="Fill-38" fill="#BCBCBB"></path>
                    <path d="M280,464 L40,464 C31.163,464 24,456.836 24,448 L24,384 C24,375.164 31.163,368 40,368 L280,368 C288.837,368 296,375.164 296,384 L296,448 C296,456.836 288.837,464 280,464" id="Fill-40" fill="#F3F2EE"></path>
                    <path d="M56,392 C56,396.418 52.418,400 48,400 C43.582,400 40,396.418 40,392 C40,387.582 43.582,384 48,384 C52.418,384 56,387.582 56,392" id="Fill-42" fill="#52DE96"></path>
                    <path d="M144,395 L72,395 C70.343,395 69,393.657 69,392 C69,390.343 70.343,389 72,389 L144,389 C145.657,389 147,390.343 147,392 C147,393.657 145.657,395 144,395" id="Fill-44" fill="#BCBCBB"></path>
                    <path d="M272,427 L48,427 C46.343,427 45,425.657 45,424 C45,422.343 46.343,421 48,421 L272,421 C273.657,421 275,422.343 275,424 C275,425.657 273.657,427 272,427" id="Fill-46" fill="#BCBCBB"></path>
                    <path d="M272,443 L48,443 C46.343,443 45,441.657 45,440 C45,438.343 46.343,437 48,437 L272,437 C273.657,437 275,438.343 275,440 C275,441.657 273.657,443 272,443" id="Fill-48" fill="#BCBCBB"></path>
                </g>
                <text id="All-hands-Update" font-family="Avenir-Heavy, Avenir" font-size="16" font-weight="600" letter-spacing="0.2031746" fill="#637282">
                    <tspan x="21" y="37">All-hands Update</tspan>
                </text>
            </g>
        </g>
    </g>
</svg>