<?xml version="1.0" encoding="UTF-8"?>
<svg width="333px" height="274px" viewBox="0 0 333 274" version="1.1" xmlns="http://www.w3.org/2000/svg" xmlns:xlink="http://www.w3.org/1999/xlink">
    <!-- Generator: Sketch 46 (44423) - http://www.bohemiancoding.com/sketch -->
    <title>Group 12</title>
    <desc>Created with Sketch.</desc>
    <defs></defs>
    <g id="Desktop" stroke="none" stroke-width="1" fill="none" fill-rule="evenodd">
        <g id="Marketing-Site---Revised-Features-Illustrations" transform="translate(-711.000000, -932.000000)">
            <g id="Group-12" transform="translate(711.000000, 932.000000)">
                <path d="M158.012022,0.148063685 C233.1069,-2.59077839 319.681654,32.4315879 331.130958,124.853648 C342.580261,217.275708 271.594046,271.212557 158.012022,273.422235 C59.7496805,278.237811 -4.62942967,233.993671 0.260471773,128.207745 C14.7680057,0.148063685 57.0082305,0.11361819 158.012022,0.148063685 Z" id="Mask" fill="#FBFAF7"></path>
                <g id="Group-4" transform="translate(42.000000, 12.000000)">
                    <g id="Group">
                        <path d="M241.3,240.666667 L12.7,240.666667 C5.686425,240.666667 0,234.995958 0,228 L0,114 L127,44.3333333 L254,114 L254,228 C254,234.995958 248.313575,240.666667 241.3,240.666667" id="Back" fill="#BCBCBB"></path>
                        <g id="Letter" transform="translate(25.400000, 0.000000)">
                            <path d="M203.2,202.666667 L0,202.666667 L0,12.6666667 C0,5.6715 5.686425,0 12.7,0 L190.5,0 C197.513575,0 203.2,5.6715 203.2,12.6666667 L203.2,202.666667 Z" id="Fill-6" fill="#FFFFFF"></path>
                            <path d="M184.15,59.375 L19.05,59.375 C17.7347563,59.375 16.66875,58.3117917 16.66875,57 C16.66875,55.6882083 17.7347563,54.625 19.05,54.625 L184.15,54.625 C185.465244,54.625 186.53125,55.6882083 186.53125,57 C186.53125,58.3117917 185.465244,59.375 184.15,59.375" id="Fill-10" fill="#D6D6D6"></path>
                            <path d="M184.15,72.0416667 L19.05,72.0416667 C17.7347563,72.0416667 16.66875,70.9784583 16.66875,69.6666667 C16.66875,68.354875 17.7347563,67.2916667 19.05,67.2916667 L184.15,67.2916667 C185.465244,67.2916667 186.53125,68.354875 186.53125,69.6666667 C186.53125,70.9784583 185.465244,72.0416667 184.15,72.0416667" id="Fill-12" fill="#D6D6D6"></path>
                            <path d="M165.1,84.7083333 L19.05,84.7083333 C17.7347563,84.7083333 16.66875,83.6443333 16.66875,82.3333333 C16.66875,81.0223333 17.7347563,79.9583333 19.05,79.9583333 L165.1,79.9583333 C166.415244,79.9583333 167.48125,81.0223333 167.48125,82.3333333 C167.48125,83.6443333 166.415244,84.7083333 165.1,84.7083333" id="Fill-14" fill="#D6D6D6"></path>
                            <path d="M184.15,173.375 L19.05,173.375 C17.7347563,173.375 16.66875,172.311 16.66875,171 C16.66875,169.689 17.7347563,168.625 19.05,168.625 L184.15,168.625 C185.465244,168.625 186.53125,169.689 186.53125,171 C186.53125,172.311 185.465244,173.375 184.15,173.375" id="Fill-16" fill="#D6D6D6"></path>
                            <path d="M165.1,186.041667 L19.05,186.041667 C17.7347563,186.041667 16.66875,184.977667 16.66875,183.666667 C16.66875,182.355667 17.7347563,181.291667 19.05,181.291667 L165.1,181.291667 C166.415244,181.291667 167.48125,182.355667 167.48125,183.666667 C167.48125,184.977667 166.415244,186.041667 165.1,186.041667" id="Fill-18" fill="#D6D6D6"></path>
                            <path d="M82.55,152 L31.75,152 C24.736425,152 19.05,146.329292 19.05,139.333333 L19.05,114 C19.05,107.004042 24.736425,101.333333 31.75,101.333333 L82.55,101.333333 C89.563575,101.333333 95.25,107.004042 95.25,114 L95.25,139.333333 C95.25,146.329292 89.563575,152 82.55,152" id="Fill-30" fill="#C67DFF"></path>
                            <path d="M171.45,152 L120.65,152 C113.636425,152 107.95,146.329292 107.95,139.333333 L107.95,114 C107.95,107.004042 113.636425,101.333333 120.65,101.333333 L171.45,101.333333 C178.463575,101.333333 184.15,107.004042 184.15,114 L184.15,139.333333 C184.15,146.329292 178.463575,152 171.45,152" id="Fill-32" fill="#FFD24A"></path>
                            <path d="M164.8,35.6666667 L158.45,35.6666667 C154.943213,35.6666667 152.1,32.8309167 152.1,29.3333333 C152.1,25.83575 154.943213,23 158.45,23 L164.8,23 C168.306788,23 171.15,25.83575 171.15,29.3333333 C171.15,32.8309167 168.306788,35.6666667 164.8,35.6666667" id="Fill-34" fill="#52DE96"></path>
                        </g>
                        <g id="Front" transform="translate(0.000000, 114.000000)">
                            <path d="M12.7,133 C5.686425,133 0,127.329292 0,120.333333 L0,6.33333333 L127,71.9210612 L254,6.33333333 L254,120.333333 C254,127.329292 248.313575,133 241.3,133 L12.7,133 Z" id="Fill-2" fill="#F3F2EE"></path>
                            <path d="M127,63.3333333 L0,0 L0,114 C0,120.995958 5.686425,126.666667 12.7,126.666667 L241.3,126.666667 C248.313575,126.666667 254,120.995958 254,114 L254,0 L127,63.3333333 Z" id="Fill-36" fill="#F3F2EE"></path>
                            <path d="M127,63.3333333 L5.09349375,124.126208 C7.21598125,125.714292 9.84329375,126.666667 12.7,126.666667 L241.3,126.666667 C244.156706,126.666667 246.784019,125.714292 248.906506,124.126208 L127,63.3333333 Z" id="Fill-38" fill="#FFFFFF"></path>
                            <path d="M194.90436,68.0941792 C194.442397,67.8883458 193.930429,67.8685542 193.462116,68.0379708 C192.958085,68.2208458 192.550097,68.6150958 192.342135,69.1193875 L192.181797,69.5104708 L191.807147,69.3141375 C191.323754,69.0608042 190.757016,69.0204292 190.252191,69.2033042 C189.783879,69.3735125 189.404466,69.7170958 189.183804,70.1715125 C188.707554,71.1523875 189.108397,72.3652208 190.077566,72.8726792 C190.080741,72.8742625 190.083916,72.8758458 190.086297,72.8774292 L193.864547,74.7053875 C193.935191,74.7394292 194.012979,74.7410125 194.080447,74.7164708 C194.147916,74.6919292 194.206654,74.6412625 194.238404,74.5692208 L195.956873,70.7462625 C195.95846,70.7438875 195.959254,70.7407208 195.960841,70.7375542 C196.375973,69.7273875 195.902104,68.5414708 194.90436,68.0941792" id="Fill-40" fill="#BCBCBB"></path>
                            <path d="M204.288708,77.7990625 C203.098083,75.4090208 200.485058,74.1146458 197.368795,74.7123542 C197.368795,74.7123542 196.052758,74.8635625 194.767676,75.3298542 C193.484183,75.7961458 192.377695,76.5244792 192.377695,76.5244792 C188.446251,78.6825625 187.742989,83.1388542 190.790195,86.4306042 L198.526083,94.7874375 C201.570908,98.0760208 204.216476,97.1196875 204.429201,92.6443958 L204.803058,84.7783958 L200.802558,86.2326875 C200.802558,86.2326875 203.789439,83.1958542 204.397451,81.0448958 C204.823695,79.5351875 204.512545,78.3643125 204.288708,77.7990625" id="Fill-42" fill="#D6D6D6"></path>
                            <path d="M196.85,59.375 C184.157144,59.375 173.83125,69.6745833 173.83125,82.3333333 C173.83125,94.9920833 184.157144,105.291667 196.85,105.291667 C209.542856,105.291667 219.86875,94.9920833 219.86875,82.3333333 C219.86875,69.6745833 209.542856,59.375 196.85,59.375 M196.85,110.041667 C181.531419,110.041667 169.06875,97.6117083 169.06875,82.3333333 C169.06875,67.0549583 181.531419,54.625 196.85,54.625 C212.168581,54.625 224.63125,67.0549583 224.63125,82.3333333 C224.63125,97.6117083 212.168581,110.041667 196.85,110.041667" id="Fill-44" fill="#BCBCBB"></path>
                            <path d="M206.700199,103.079037 C203.711731,104.495329 200.373218,105.291746 196.849762,105.291746 C185.731706,105.291746 176.428956,97.3877458 174.292974,86.9179542 L169.150268,84.3537458 C170.192462,98.6908292 182.213012,110.041746 196.849762,110.041746 C202.368706,110.041746 207.512999,108.421204 211.841318,105.642454 L206.700199,103.079037 Z" id="Fill-46" fill="#D6D6D6"></path>
                        </g>
                    </g>
                    <text id="Our-latest-news!" font-family="Avenir-Heavy, Avenir" font-size="16" font-weight="600" letter-spacing="0.2031746" fill="#637282">
                        <tspan x="42.06875" y="38.7238806">Our latest news!</tspan>
                    </text>
                </g>
            </g>
        </g>
    </g>
</svg>