<?xml version="1.0" encoding="UTF-8"?>
<svg width="346px" height="321px" viewBox="0 0 346 321" version="1.1" xmlns="http://www.w3.org/2000/svg" xmlns:xlink="http://www.w3.org/1999/xlink">
    <!-- Generator: Sketch 44.1 (41455) - http://www.bohemiancoding.com/sketch -->
    <title>Illustration</title>
    <desc>Created with Sketch.</desc>
    <defs></defs>
    <g id="Page-1" stroke="none" stroke-width="1" fill="none" fill-rule="evenodd">
        <g id="Marketing-Site---Features" transform="translate(-760.000000, -509.000000)">
            <g id="Illustration" transform="translate(760.000000, 509.000000)">
                <path d="M178.711795,0.103753201 C289.35327,0.0652942732 332.729611,44.2683765 344.054596,147.459036 C355.379581,250.649695 313.503486,325.640404 172.254562,319.782895 C48.5224898,311.077504 -10.460625,227.238015 1.57624318,147.459036 C18.2984844,26.5182317 56.1684858,5.90543574 178.711795,0.103753201 Z" id="Mask" fill="#FBFAF7" transform="translate(172.926440, 160.103728) scale(-1, 1) translate(-172.926440, -160.103728) "></path>
                <g id="Slack" transform="translate(25.000000, 44.000000)">
                    <path d="M274.285714,233 L96,233 L96,6.85294118 L274.285714,6.85294118 C281.859429,6.85294118 288,12.98975 288,20.5588235 L288,219.294118 C288,226.864048 281.859429,233 274.285714,233 Z" id="Fill-2" fill="#F3F2EE"></path>
                    <path d="M41.1428571,233 L13.7142857,233 C6.14057143,233 0,226.864048 0,219.294118 L0,20.5588235 C0,12.98975 6.14057143,6.85294118 13.7142857,6.85294118 L41.1428571,6.85294118 L41.1428571,233 Z" id="Fill-4" fill="#000000"></path>
                    <polygon id="Fill-6" fill="#34414F" points="41.1428571 233 96 233 96 6.85294118 41.1428571 6.85294118"></polygon>
                    <path d="M274.285714,226.147059 L96,226.147059 L96,0 L274.285714,0 C281.859429,0 288,6.13680882 288,13.7058824 L288,212.441176 C288,220.011107 281.859429,226.147059 274.285714,226.147059" id="Fill-8" fill="#FFFFFF"></path>
                    <path d="M41.1428571,226.147059 L13.7142857,226.147059 C6.14057143,226.147059 0,220.011107 0,212.441176 L0,13.7058824 C0,6.13680882 6.14057143,0 13.7142857,0 L41.1428571,0 L41.1428571,226.147059 Z" id="Fill-9" fill="#251D26"></path>
                    <polygon id="Fill-10" fill="#53384D" points="41.1428571 226.147059 96 226.147059 96 0 41.1428571 0"></polygon>
                    <path d="M119.167543,90.2108327 C118.570114,89.943568 117.907543,89.9170129 117.3024,90.1371636 C116.650114,90.3744467 116.122114,90.8849908 115.853829,91.5385901 L115.647257,92.0457077 L115.161257,91.7904357 C114.5364,91.4623511 113.803543,91.4100974 113.1504,91.6473805 C112.545257,91.8675313 112.054971,92.3129724 111.768686,92.9023254 C111.1524,94.173546 111.671829,95.7445827 112.925829,96.4033217 C112.929257,96.4041783 112.932686,96.4058915 112.936114,96.4084614 L117.822686,98.7761526 C117.9144,98.8215533 118.014686,98.8241232 118.102114,98.7924283 C118.189543,98.7598768 118.264114,98.6930607 118.306114,98.600546 L120.527829,93.6467261 C120.529543,93.6432996 120.531257,93.6390165 120.532971,93.6355901 C121.0704,92.3266783 120.457543,90.7899063 119.167543,90.2108327" id="Fill-11" fill="#52DE96"></path>
                    <path d="M131.303571,102.785723 C129.764143,99.6899066 126.385286,98.0117926 122.355,98.786175 C122.355,98.786175 120.651857,98.9823404 118.990714,99.5871125 C117.330429,100.191028 115.899,101.134164 115.899,101.134164 C110.815286,103.931877 109.905857,109.70548 113.847,113.972293 L123.851571,124.800796 C127.788429,129.063326 131.210143,127.8238 131.485286,122.023642 L131.968714,111.831605 L126.795857,113.715307 C126.795857,113.715307 130.658143,109.780006 131.444143,106.991715 C131.996143,105.036914 131.593286,103.518131 131.303571,102.785723" id="Fill-12" fill="#FA6452"></path>
                    <path d="M150.857143,43.6875 L267.428571,43.6875 C268.848732,43.6875 270,42.5369376 270,41.1176471 C270,39.6983565 268.848732,38.5477941 267.428571,38.5477941 L150.857143,38.5477941 C149.436982,38.5477941 148.285714,39.6983565 148.285714,41.1176471 C148.285714,42.5369376 149.436982,43.6875 150.857143,43.6875 Z" id="Stroke-13" fill="#D6D6D6" fill-rule="nonzero"></path>
                    <path d="M150.857143,57.3933824 L198.857143,57.3933824 C200.277304,57.3933824 201.428571,56.24282 201.428571,54.8235294 C201.428571,53.4042388 200.277304,52.2536765 198.857143,52.2536765 L150.857143,52.2536765 C149.436982,52.2536765 148.285714,53.4042388 148.285714,54.8235294 C148.285714,56.24282 149.436982,57.3933824 150.857143,57.3933824 Z" id="Stroke-14" fill="#D6D6D6" fill-rule="nonzero"></path>
                    <path d="M150.857143,71.0992647 L226.285714,71.0992647 C227.705875,71.0992647 228.857143,69.9487024 228.857143,68.5294118 C228.857143,67.1101212 227.705875,65.9595588 226.285714,65.9595588 L150.857143,65.9595588 C149.436982,65.9595588 148.285714,67.1101212 148.285714,68.5294118 C148.285714,69.9487024 149.436982,71.0992647 150.857143,71.0992647 Z" id="Stroke-15" fill="#D6D6D6" fill-rule="nonzero"></path>
                    <path d="M130.285714,61.6764706 L116.571429,61.6764706 C112.784571,61.6764706 109.714286,58.6080662 109.714286,54.8235294 L109.714286,41.1176471 C109.714286,37.3331103 112.784571,34.2647059 116.571429,34.2647059 L130.285714,34.2647059 C134.072571,34.2647059 137.142857,37.3331103 137.142857,41.1176471 L137.142857,54.8235294 C137.142857,58.6080662 134.072571,61.6764706 130.285714,61.6764706" id="Fill-16" fill="#FFD24A"></path>
                    <path d="M150.857143,9.42279412 L212.571429,9.42279412 C213.991589,9.42279412 215.142857,8.27223177 215.142857,6.85294118 C215.142857,5.43365059 213.991589,4.28308824 212.571429,4.28308824 L150.857143,4.28308824 C149.436982,4.28308824 148.285714,5.43365059 148.285714,6.85294118 C148.285714,8.27223177 149.436982,9.42279412 150.857143,9.42279412 Z" id="Stroke-17" fill="#D6D6D6" fill-rule="nonzero"></path>
                    <path d="M109.714286,0 L109.714286,6.85294118 C109.714286,10.6374779 112.784571,13.7058824 116.571429,13.7058824 L130.285714,13.7058824 C134.072571,13.7058824 137.142857,10.6374779 137.142857,6.85294118 L137.142857,0 L109.714286,0 Z" id="Fill-23" fill="#52DE96"></path>
                    <g id="Group-4" opacity="0.200000003" transform="translate(52.000000, 10.408935)" fill-rule="nonzero" fill="#FFFFFF">
                        <path d="M2.85714286,5.86680059 L30.2857143,5.86680059 C31.7058751,5.86680059 32.8571429,4.71623823 32.8571429,3.29694765 C32.8571429,1.87765706 31.7058751,0.727094704 30.2857143,0.727094704 L2.85714286,0.727094704 C1.43698207,0.727094704 0.285714286,1.87765706 0.285714286,3.29694765 C0.285714286,4.71623823 1.43698207,5.86680059 2.85714286,5.86680059 Z" id="Stroke-18"></path>
                        <path d="M2.85714286,19.5726829 L30.2857143,19.5726829 C31.7058751,19.5726829 32.8571429,18.4221206 32.8571429,17.00283 C32.8571429,15.5835394 31.7058751,14.4329771 30.2857143,14.4329771 L2.85714286,14.4329771 C1.43698207,14.4329771 0.285714286,15.5835394 0.285714286,17.00283 C0.285714286,18.4221206 1.43698207,19.5726829 2.85714286,19.5726829 Z" id="Stroke-19"></path>
                        <path d="M2.85714286,33.2785653 L30.2857143,33.2785653 C31.7058751,33.2785653 32.8571429,32.1280029 32.8571429,30.7087124 C32.8571429,29.2894218 31.7058751,28.1388594 30.2857143,28.1388594 L2.85714286,28.1388594 C1.43698207,28.1388594 0.285714286,29.2894218 0.285714286,30.7087124 C0.285714286,32.1280029 1.43698207,33.2785653 2.85714286,33.2785653 Z" id="Stroke-20"></path>
                        <path d="M2.85714286,60.69033 L30.2857143,60.69033 C31.7058751,60.69033 32.8571429,59.5397676 32.8571429,58.1204771 C32.8571429,56.7011865 31.7058751,55.5506241 30.2857143,55.5506241 L2.85714286,55.5506241 C1.43698207,55.5506241 0.285714286,56.7011865 0.285714286,58.1204771 C0.285714286,59.5397676 1.43698207,60.69033 2.85714286,60.69033 Z" id="Stroke-21"></path>
                        <path d="M2.85714286,74.3962124 L30.2857143,74.3962124 C31.7058751,74.3962124 32.8571429,73.24565 32.8571429,71.8263594 C32.8571429,70.4070688 31.7058751,69.2565065 30.2857143,69.2565065 L2.85714286,69.2565065 C1.43698207,69.2565065 0.285714286,70.4070688 0.285714286,71.8263594 C0.285714286,73.24565 1.43698207,74.3962124 2.85714286,74.3962124 Z" id="Stroke-22"></path>
                        <path d="M2.85714286,94.9550359 L30.2857143,94.9550359 C31.7058751,94.9550359 32.8571429,93.8044735 32.8571429,92.3851829 C32.8571429,90.9658924 31.7058751,89.81533 30.2857143,89.81533 L2.85714286,89.81533 C1.43698207,89.81533 0.285714286,90.9658924 0.285714286,92.3851829 C0.285714286,93.8044735 1.43698207,94.9550359 2.85714286,94.9550359 Z" id="Stroke-24"></path>
                        <path d="M2.85714286,108.660918 L30.2857143,108.660918 C31.7058751,108.660918 32.8571429,107.510356 32.8571429,106.091065 C32.8571429,104.671775 31.7058751,103.521212 30.2857143,103.521212 L2.85714286,103.521212 C1.43698207,103.521212 0.285714286,104.671775 0.285714286,106.091065 C0.285714286,107.510356 1.43698207,108.660918 2.85714286,108.660918 Z" id="Stroke-25"></path>
                    </g>
                    <path d="M260.571429,205.588235 L157.714286,205.588235 C153.927429,205.588235 150.857143,202.519831 150.857143,198.735294 L150.857143,95.9411765 C150.857143,92.1566397 153.927429,89.0882353 157.714286,89.0882353 L260.571429,89.0882353 C264.358286,89.0882353 267.428571,92.1566397 267.428571,95.9411765 L267.428571,198.735294 C267.428571,202.519831 264.358286,205.588235 260.571429,205.588235" id="Fill-26" fill="#F3F2EE"></path>
                    <path d="M219.428571,137.058824 L219.428571,118.118151 C219.428571,113.440162 215.634,109.647059 210.952286,109.647059 C207.742286,109.647059 204.807429,111.459662 203.371714,114.329331 L192,137.058824 L178.285714,137.058824 L178.285714,178.176471 L228.200571,178.176471 C231.151714,178.176471 233.772,176.289342 234.705429,173.490772 L243.848571,146.079007 C245.328857,141.641728 242.023714,137.058824 237.342857,137.058824 L219.428571,137.058824 Z" id="Fill-27" fill="#FFD24A"></path>
                    <path d="M24,27.4117647 L17.1428571,27.4117647 C15.2494286,27.4117647 13.7142857,25.8775625 13.7142857,23.9852941 L13.7142857,17.1323529 C13.7142857,15.2400846 15.2494286,13.7058824 17.1428571,13.7058824 L24,13.7058824 C25.8934286,13.7058824 27.4285714,15.2400846 27.4285714,17.1323529 L27.4285714,23.9852941 C27.4285714,25.8775625 25.8934286,27.4117647 24,27.4117647" id="Fill-28" fill="#FFFFFF" opacity="0.3911982"></path>
                    <path d="M24,54.8235294 L17.1428571,54.8235294 C15.2494286,54.8235294 13.7142857,53.2893272 13.7142857,51.3970588 L13.7142857,44.5441176 C13.7142857,42.6518493 15.2494286,41.1176471 17.1428571,41.1176471 L24,41.1176471 C25.8934286,41.1176471 27.4285714,42.6518493 27.4285714,44.5441176 L27.4285714,51.3970588 C27.4285714,53.2893272 25.8934286,54.8235294 24,54.8235294" id="Fill-29" fill="#FFFFFF" opacity="0.3911982"></path>
                    <path d="M24,82.2352941 L17.1428571,82.2352941 C15.2494286,82.2352941 13.7142857,80.7010919 13.7142857,78.8088235 L13.7142857,71.9558824 C13.7142857,70.063614 15.2494286,68.5294118 17.1428571,68.5294118 L24,68.5294118 C25.8934286,68.5294118 27.4285714,70.063614 27.4285714,71.9558824 L27.4285714,78.8088235 C27.4285714,80.7010919 25.8934286,82.2352941 24,82.2352941" id="Fill-30" fill="#FFFFFF" opacity="0.3911982"></path>
                </g>
            </g>
        </g>
    </g>
</svg>