<?xml version="1.0" encoding="UTF-8"?>
<svg width="608px" height="544px" viewBox="0 0 608 544" version="1.1" xmlns="http://www.w3.org/2000/svg" xmlns:xlink="http://www.w3.org/1999/xlink">
    <!-- Generator: Sketch 44.1 (41455) - http://www.bohemiancoding.com/sketch -->
    <title>Group 9</title>
    <desc>Created with Sketch.</desc>
    <defs></defs>
    <g id="Page-1" stroke="none" stroke-width="1" fill="none" fill-rule="evenodd">
        <g id="Marketing-Site---Features" transform="translate(-47.000000, -64.000000)">
            <g id="Group-9" transform="translate(47.000000, 64.000000)">
                <path d="M312.232226,1.44620577 C444.941803,-14.6055834 573.7966,104.703866 600.874075,272.791559 C627.965479,440.726085 453.711255,561.322435 267.929687,541.8125 C82.2839249,522.312776 -1.54403934,399.047934 24.3007424,266.804473 C50.1385598,134.411249 179.386844,17.7873083 312.232226,1.44620577 Z" id="Fill-1" fill="#FBFAF7"></path>
                <g id="Group-2" transform="translate(0.000000, 56.000000)">
                    <g id="Story">
                        <path d="M320,429.528419 C320,434.179052 314.852,437.515829 309.721,436.191546 C302.246,434.262471 292.653,432.048381 288,432.048381 C279.754,432.048381 264.246,439 256,439 C247.754,439 232.246,432.048381 224,432.048381 C215.754,432.048381 200.246,439 192,439 C183.754,439 168.246,432.048381 160,432.048381 C151.754,432.048381 136.246,439 128,439 C119.754,439 104.246,432.048381 96,432.048381 C87.754,432.048381 72.246,439 64,439 C55.754,439 40.246,432.048381 32,432.048381 C27.347,432.048381 17.754,434.262471 10.279,436.191546 C5.148,437.515829 0,434.179052 0,429.528419 L0,21.9028387 C0,14.2247751 7.163,7.9996 16,7.9996 L304,7.9996 C312.837,7.9996 320,14.2247751 320,21.9028387 L320,429.528419 Z" id="Fill-2" fill="#F3F2EE"></path>
                        <path d="M320,421.528419 C320,426.179052 314.852,429.515829 309.721,428.191546 C302.246,426.262471 292.653,424.048381 288,424.048381 C279.754,424.048381 264.246,431 256,431 C247.754,431 232.246,424.048381 224,424.048381 C215.754,424.048381 200.246,431 192,431 C183.754,431 168.246,424.048381 160,424.048381 C151.754,424.048381 136.246,431 128,431 C119.754,431 104.246,424.048381 96,424.048381 C87.754,424.048381 72.246,431 64,431 C55.754,431 40.246,424.048381 32,424.048381 C27.347,424.048381 17.754,426.262471 10.279,428.191546 C5.148,429.515829 0,426.179052 0,421.528419 L0,13.9028387 C0,6.22477513 7.163,-0.0004 16,-0.0004 L304,-0.0004 C312.837,-0.0004 320,6.22477513 320,13.9028387 L320,421.528419 Z" id="Fill-4" fill="#FFFFFF"></path>
                        <path d="M296,107 L24,107 C22.343,107 21,105.657 21,104 C21,102.343 22.343,101 24,101 L296,101 C297.657,101 299,102.343 299,104 C299,105.657 297.657,107 296,107" id="Fill-8" fill="#D6D6D6"></path>
                        <path d="M296,189 L24,189 C22.343,189 21,187.657 21,186 C21,184.343 22.343,183 24,183 L296,183 C297.657,183 299,184.343 299,186 C299,187.657 297.657,189 296,189" id="Fill-10" fill="#D6D6D6"></path>
                        <path d="M272,204 L24,204 C22.343,204 21,202.657 21,201 C21,199.343 22.343,198 24,198 L272,198 C273.657,198 275,199.343 275,201 C275,202.657 273.657,204 272,204" id="Fill-12" fill="#D6D6D6"></path>
                        <path d="M43,52 L27,52 C25.343,52 24,50.657 24,49 C24,47.343 25.343,46 27,46 L43,46 C44.657,46 46,47.343 46,49 C46,50.657 44.657,52 43,52" id="Fill-14" fill="#D6D6D6"></path>
                        <path d="M280,165 L40,165 C31.163,165 24,160.410563 24,154.75 L24,134.25 C24,128.589438 31.163,124 40,124 L280,124 C288.837,124 296,128.589438 296,134.25 L296,154.75 C296,160.410563 288.837,165 280,165" id="Fill-16" fill="#FFD24A"></path>
                        <path d="M48,80 L32,80 C27.582,80 24,76.418 24,72 C24,67.582 27.582,64 32,64 L48,64 C52.418,64 56,67.582 56,72 C56,76.418 52.418,80 48,80" id="Fill-18" fill="#7394FF"></path>
                        <path d="M88,80 L72,80 C67.582,80 64,76.418 64,72 C64,67.582 67.582,64 72,64 L88,64 C92.418,64 96,67.582 96,72 C96,76.418 92.418,80 88,80" id="Fill-20" fill="#7394FF"></path>
                        <path d="M280,313 L40,313 C31.163,313 24,306.209125 24,297.833333 L24,237.166667 C24,228.790875 31.163,222 40,222 L280,222 C288.837,222 296,228.790875 296,237.166667 L296,297.833333 C296,306.209125 288.837,313 280,313" id="Fill-30" fill="#F3F2EE"></path>
                        <path d="M56,247 C56,251.418 52.418,255 48,255 C43.582,255 40,251.418 40,247 C40,242.582 43.582,239 48,239 C52.418,239 56,242.582 56,247" id="Fill-32" fill="#C67DFF"></path>
                        <path d="M144,250 L72,250 C70.343,250 69,248.657 69,247 C69,245.343 70.343,244 72,244 L144,244 C145.657,244 147,245.343 147,247 C147,248.657 145.657,250 144,250" id="Fill-34" fill="#BCBCBB"></path>
                        <path d="M272,277 L48,277 C46.343,277 45,275.657 45,274 C45,272.343 46.343,271 48,271 L272,271 C273.657,271 275,272.343 275,274 C275,275.657 273.657,277 272,277" id="Fill-36" fill="#BCBCBB"></path>
                        <path d="M272,293 L48,293 C46.343,293 45,291.657 45,290 C45,288.343 46.343,287 48,287 L272,287 C273.657,287 275,288.343 275,290 C275,291.657 273.657,293 272,293" id="Fill-38" fill="#BCBCBB"></path>
                        <path d="M280,412 L40,412 C31.163,412 24,405.209125 24,396.833333 L24,336.166667 C24,327.790875 31.163,321 40,321 L280,321 C288.837,321 296,327.790875 296,336.166667 L296,396.833333 C296,405.209125 288.837,412 280,412" id="Fill-40" fill="#F3F2EE"></path>
                        <path d="M56,345 C56,349.418 52.418,353 48,353 C43.582,353 40,349.418 40,345 C40,340.582 43.582,337 48,337 C52.418,337 56,340.582 56,345" id="Fill-42" fill="#52DE96"></path>
                        <path d="M144,348 L72,348 C70.343,348 69,346.657 69,345 C69,343.343 70.343,342 72,342 L144,342 C145.657,342 147,343.343 147,345 C147,346.657 145.657,348 144,348" id="Fill-44" fill="#BCBCBB"></path>
                        <path d="M48,375 C46.343,375 45,373.657 45,372 C45,370.343 46.343,369 48,369 L272,369 C273.657,369 275,370.343 275,372 C275,373.657 273.657,375 272,375 L48,375 Z" id="Fill-46" fill="#BCBCBB"></path>
                        <path d="M272,391 L48,391 C46.343,391 45,389.657 45,388 C45,386.343 46.343,385 48,385 L272,385 C273.657,385 275,386.343 275,388 C275,389.657 273.657,391 272,391" id="Fill-48" fill="#BCBCBB"></path>
                    </g>
                    <text id="All-hands-Update" font-family="Avenir-Heavy, Avenir" font-size="16" font-weight="600" letter-spacing="0.2031746" fill="#637282">
                        <tspan x="21" y="37">All-hands Update</tspan>
                    </text>
                </g>
                <g id="Group" transform="translate(352.000000, 75.000000)">
                    <g id="Board">
                        <g id="3" transform="translate(0.000000, 197.000000)">
                            <path d="M240,182 L16,182 C7.164,182 0,175.225348 0,166.869565 L0,23.1304348 C0,14.7746522 7.164,8 16,8 L240,8 C248.836,8 256,14.7746522 256,23.1304348 L256,166.869565 C256,175.225348 248.836,182 240,182" id="Fill-1" fill="#F3F2EE"></path>
                            <path d="M256,64 L0,64 L0,16 C0,7.164 7.164,0 16,0 L240,0 C248.836,0 256,7.164 256,16 L256,64 Z" id="Fill-3" fill="#F3F2EE"></path>
                            <path d="M240,172 L16,172 C7.164,172 0,165.5524 0,157.6 L0,64 L256,64 L256,157.6 C256,165.5524 248.836,172 240,172" id="Fill-5" fill="#FFFFFF"></path>
                            <path d="M16,32 C16,23.164 23.164,16 32,16 C40.836,16 48,23.164 48,32 C48,40.836 40.836,48 32,48 C23.164,48 16,40.836 16,32" id="Fill-7" fill="#C67DFF"></path>
                            <path d="M96,91 L64,91 C62.343,91 61,89.657 61,88 C61,86.343 62.343,85 64,85 L96,85 C97.657,85 99,86.343 99,88 C99,89.657 97.657,91 96,91" id="Fill-11" fill="#BCBCBB"></path>
                            <path d="M232,135 L24,135 C22.343,135 21,133.657 21,132 C21,130.343 22.343,129 24,129 L232,129 C233.657,129 235,130.343 235,132 C235,133.657 233.657,135 232,135" id="Fill-13" fill="#D6D6D6"></path>
                            <path d="M176,151 L24,151 C22.343,151 21,149.657 21,148 C21,146.343 22.343,145 24,145 L176,145 C177.657,145 179,146.343 179,148 C179,149.657 177.657,151 176,151" id="Fill-15" fill="#D6D6D6"></path>
                            <path d="M80,107 L64,107 C62.343,107 61,105.657 61,104 C61,102.343 62.343,101 64,101 L80,101 C81.657,101 83,102.343 83,104 C83,105.657 81.657,107 80,107" id="Fill-17" fill="#D6D6D6"></path>
                            <g id="Group-6" transform="translate(14.000000, 80.000000)">
                                <path d="M0.6968,12.3765 C-0.9832,29.8345 24.8248,36.4835 29.0408,19.1175 C30.4838,11.5935 25.3588,2.1645 17.7018,0.8155 C12.2878,-0.2515 -0.2292,5.4115 0.8518,12.7875" id="Fill-19" fill="#FFD24A"></path>
                                <path d="M18,16 L12.667,16 C12.298,16 12,16.298 12,16.667 C12,18.505 13.495,20 15.333,20 C17.171,20 18.667,18.505 18.667,16.667 C18.667,16.298 18.368,16 18,16" id="Fill-21" fill="#34414F"></path>
                                <path d="M7.3335,14 C7.3335,13.264 7.9305,12.667 8.6665,12.667 C9.4025,12.667 10.0005,13.264 10.0005,14 C10.0005,14.736 9.4025,15.333 8.6665,15.333 C7.9305,15.333 7.3335,14.736 7.3335,14" id="Fill-23" fill="#34414F"></path>
                                <path d="M20.6665,14 C20.6665,13.264 21.2635,12.667 21.9995,12.667 C22.7365,12.667 23.3335,13.264 23.3335,14 C23.3335,14.736 22.7365,15.333 21.9995,15.333 C21.2635,15.333 20.6665,14.736 20.6665,14" id="Fill-25" fill="#34414F"></path>
                            </g>
                        </g>
                        <g id="1">
                            <path d="M240,183 L16,183 C7.164,183 0,176.186413 0,167.782609 L0,23.2173913 C0,14.813587 7.164,8 16,8 L240,8 C248.836,8 256,14.813587 256,23.2173913 L256,167.782609 C256,176.186413 248.836,183 240,183" id="Fill-1" fill="#F3F2EE"></path>
                            <path d="M256,64 L0,64 L0,16 C0,7.164 7.164,0 16,0 L240,0 C248.836,0 256,7.164 256,16 L256,64 Z" id="Fill-3" fill="#F3F2EE"></path>
                            <path d="M240,173 L16,173 C7.164,173 0,166.4927 0,158.466667 L0,64 L256,64 L256,158.466667 C256,166.4927 248.836,173 240,173" id="Fill-5" fill="#FFFFFF"></path>
                            <path d="M16,32 C16,23.164 23.164,16 32,16 C40.836,16 48,23.164 48,32 C48,40.836 40.836,48 32,48 C23.164,48 16,40.836 16,32" id="Fill-7" fill="#FFD24A"></path>
                            <path d="M96,91 L64,91 C62.343,91 61,89.657 61,88 C61,86.343 62.343,85 64,85 L96,85 C97.657,85 99,86.343 99,88 C99,89.657 97.657,91 96,91" id="Fill-11" fill="#BCBCBB"></path>
                            <path d="M216,135 L24,135 C22.343,135 21,133.657 21,132 C21,130.343 22.343,129 24,129 L216,129 C217.657,129 219,130.343 219,132 C219,133.657 217.657,135 216,135" id="Fill-13" fill="#D6D6D6"></path>
                            <path d="M232,151 L24,151 C22.343,151 21,149.657 21,148 C21,146.343 22.343,145 24,145 L232,145 C233.657,145 235,146.343 235,148 C235,149.657 233.657,151 232,151" id="Fill-15" fill="#D6D6D6"></path>
                            <path d="M80,107 L64,107 C62.343,107 61,105.657 61,104 C61,102.343 62.343,101 64,101 L80,101 C81.657,101 83,102.343 83,104 C83,105.657 81.657,107 80,107" id="Fill-17" fill="#D6D6D6"></path>
                            <path d="M17.2578,97.2334 C18.8388,89.9924 24.6568,83.9964 31.9998,84.0004 C39.3428,83.9964 45.1618,89.9924 46.7418,97.2334 C48.2768,104.2184 41.6728,111.3974 31.9998,111.6104 C22.3278,111.3964 15.7238,104.2184 17.2578,97.2334" id="Fill-19" fill="#FA6452"></path>
                            <path d="M32,102 C30.162,102 28.667,100.505 28.667,98.667 C28.667,98.298 28.965,98 29.333,98 C29.702,98 30,98.298 30,98.667 C30,99.77 30.897,100.667 32,100.667 C33.103,100.667 34,99.77 34,98.667 C34,98.298 34.298,98 34.667,98 C35.035,98 35.333,98.298 35.333,98.667 C35.333,100.505 33.838,102 32,102" id="Fill-21" fill="#34414F"></path>
                            <path d="M24,96 C24,95.264 24.597,94.667 25.333,94.667 C26.07,94.667 26.667,95.264 26.667,96 C26.667,96.736 26.07,97.333 25.333,97.333 C24.597,97.333 24,96.736 24,96" id="Fill-23" fill="#34414F"></path>
                            <path d="M37.3335,96 C37.3335,95.264 37.9305,94.667 38.6665,94.667 C39.4025,94.667 40.0005,95.264 40.0005,96 C40.0005,96.736 39.4025,97.333 38.6665,97.333 C37.9305,97.333 37.3335,96.736 37.3335,96" id="Fill-25" fill="#34414F"></path>
                            <path d="M232,40 L224,40 C219.582,40 216,36.418 216,32 C216,27.582 219.582,24 224,24 L232,24 C236.418,24 240,27.582 240,32 C240,36.418 236.418,40 232,40" id="Fill-27" fill="#52DE96"></path>
                        </g>
                    </g>
                    <text id="Sales-Update" font-family="Avenir-Heavy, Avenir" font-size="16" font-weight="600" letter-spacing="0.203174606" fill="#637282">
                        <tspan x="61" y="234">Sales Update</tspan>
                    </text>
                    <text id="CEO-Update" font-family="Avenir-Heavy, Avenir" font-size="16" font-weight="600" letter-spacing="0.203174606" fill="#637282">
                        <tspan x="61" y="37">CEO Update</tspan>
                    </text>
                </g>
            </g>
        </g>
    </g>
</svg>