<?xml version="1.0" encoding="UTF-8"?>
<svg width="256px" height="400px" viewBox="0 0 256 400" version="1.1" xmlns="http://www.w3.org/2000/svg" xmlns:xlink="http://www.w3.org/1999/xlink">
    <!-- Generator: Sketch 44.1 (41455) - http://www.bohemiancoding.com/sketch -->
    <title>Group</title>
    <desc>Created with Sketch.</desc>
    <defs></defs>
    <g id="Page-1" stroke="none" stroke-width="1" fill="none" fill-rule="evenodd">
        <g id="Marketing-Site---Features" transform="translate(-387.000000, -105.000000)">
            <g id="Group" transform="translate(387.000000, 105.000000)">
                <g id="Board">
                    <g id="3" transform="translate(0.000000, 208.000000)">
                        <path d="M240,192 L16,192 C7.164,192 0,184.836 0,176 L0,24 C0,15.164 7.164,8 16,8 L240,8 C248.836,8 256,15.164 256,24 L256,176 C256,184.836 248.836,192 240,192" id="Fill-1" fill="#F3F2EE"></path>
                        <path d="M256,64 L0,64 L0,16 C0,7.164 7.164,0 16,0 L240,0 C248.836,0 256,7.164 256,16 L256,64 Z" id="Fill-3" fill="#F3F2EE"></path>
                        <path d="M240,184 L16,184 C7.164,184 0,176.836 0,168 L0,64 L256,64 L256,168 C256,176.836 248.836,184 240,184" id="Fill-5" fill="#FFFFFF"></path>
                        <path d="M16,32 C16,23.164 23.164,16 32,16 C40.836,16 48,23.164 48,32 C48,40.836 40.836,48 32,48 C23.164,48 16,40.836 16,32" id="Fill-7" fill="#C67DFF"></path>
                        <path d="M96,91 L64,91 C62.343,91 61,89.657 61,88 C61,86.343 62.343,85 64,85 L96,85 C97.657,85 99,86.343 99,88 C99,89.657 97.657,91 96,91" id="Fill-11" fill="#BCBCBB"></path>
                        <path d="M232,139 L24,139 C22.343,139 21,137.657 21,136 C21,134.343 22.343,133 24,133 L232,133 C233.657,133 235,134.343 235,136 C235,137.657 233.657,139 232,139" id="Fill-13" fill="#D6D6D6"></path>
                        <path d="M176,155 L24,155 C22.343,155 21,153.657 21,152 C21,150.343 22.343,149 24,149 L176,149 C177.657,149 179,150.343 179,152 C179,153.657 177.657,155 176,155" id="Fill-15" fill="#D6D6D6"></path>
                        <path d="M80,107 L64,107 C62.343,107 61,105.657 61,104 C61,102.343 62.343,101 64,101 L80,101 C81.657,101 83,102.343 83,104 C83,105.657 81.657,107 80,107" id="Fill-17" fill="#D6D6D6"></path>
                        <g id="Group-6" transform="translate(14.000000, 80.000000)">
                            <path d="M0.6968,12.3765 C-0.9832,29.8345 24.8248,36.4835 29.0408,19.1175 C30.4838,11.5935 25.3588,2.1645 17.7018,0.8155 C12.2878,-0.2515 -0.2292,5.4115 0.8518,12.7875" id="Fill-19" fill="#FFD24A"></path>
                            <path d="M18,16 L12.667,16 C12.298,16 12,16.298 12,16.667 C12,18.505 13.495,20 15.333,20 C17.171,20 18.667,18.505 18.667,16.667 C18.667,16.298 18.368,16 18,16" id="Fill-21" fill="#34414F"></path>
                            <path d="M7.3335,14 C7.3335,13.264 7.9305,12.667 8.6665,12.667 C9.4025,12.667 10.0005,13.264 10.0005,14 C10.0005,14.736 9.4025,15.333 8.6665,15.333 C7.9305,15.333 7.3335,14.736 7.3335,14" id="Fill-23" fill="#34414F"></path>
                            <path d="M20.6665,14 C20.6665,13.264 21.2635,12.667 21.9995,12.667 C22.7365,12.667 23.3335,13.264 23.3335,14 C23.3335,14.736 22.7365,15.333 21.9995,15.333 C21.2635,15.333 20.6665,14.736 20.6665,14" id="Fill-25" fill="#34414F"></path>
                        </g>
                    </g>
                    <g id="1">
                        <path d="M240,192 L16,192 C7.164,192 0,184.836 0,176 L0,24 C0,15.164 7.164,8 16,8 L240,8 C248.836,8 256,15.164 256,24 L256,176 C256,184.836 248.836,192 240,192" id="Fill-1" fill="#F3F2EE"></path>
                        <path d="M256,64 L0,64 L0,16 C0,7.164 7.164,0 16,0 L240,0 C248.836,0 256,7.164 256,16 L256,64 Z" id="Fill-3" fill="#F3F2EE"></path>
                        <path d="M240,184 L16,184 C7.164,184 0,176.836 0,168 L0,64 L256,64 L256,168 C256,176.836 248.836,184 240,184" id="Fill-5" fill="#FFFFFF"></path>
                        <path d="M16,32 C16,23.164 23.164,16 32,16 C40.836,16 48,23.164 48,32 C48,40.836 40.836,48 32,48 C23.164,48 16,40.836 16,32" id="Fill-7" fill="#FFD24A"></path>
                        <path d="M96,91 L64,91 C62.343,91 61,89.657 61,88 C61,86.343 62.343,85 64,85 L96,85 C97.657,85 99,86.343 99,88 C99,89.657 97.657,91 96,91" id="Fill-11" fill="#BCBCBB"></path>
                        <path d="M216,139 L24,139 C22.343,139 21,137.657 21,136 C21,134.343 22.343,133 24,133 L216,133 C217.657,133 219,134.343 219,136 C219,137.657 217.657,139 216,139" id="Fill-13" fill="#D6D6D6"></path>
                        <path d="M232,155 L24,155 C22.343,155 21,153.657 21,152 C21,150.343 22.343,149 24,149 L232,149 C233.657,149 235,150.343 235,152 C235,153.657 233.657,155 232,155" id="Fill-15" fill="#D6D6D6"></path>
                        <path d="M80,107 L64,107 C62.343,107 61,105.657 61,104 C61,102.343 62.343,101 64,101 L80,101 C81.657,101 83,102.343 83,104 C83,105.657 81.657,107 80,107" id="Fill-17" fill="#D6D6D6"></path>
                        <path d="M17.2578,97.2334 C18.8388,89.9924 24.6568,83.9964 31.9998,84.0004 C39.3428,83.9964 45.1618,89.9924 46.7418,97.2334 C48.2768,104.2184 41.6728,111.3974 31.9998,111.6104 C22.3278,111.3964 15.7238,104.2184 17.2578,97.2334" id="Fill-19" fill="#FA6452"></path>
                        <path d="M32,102 C30.162,102 28.667,100.505 28.667,98.667 C28.667,98.298 28.965,98 29.333,98 C29.702,98 30,98.298 30,98.667 C30,99.77 30.897,100.667 32,100.667 C33.103,100.667 34,99.77 34,98.667 C34,98.298 34.298,98 34.667,98 C35.035,98 35.333,98.298 35.333,98.667 C35.333,100.505 33.838,102 32,102" id="Fill-21" fill="#34414F"></path>
                        <path d="M24,96 C24,95.264 24.597,94.667 25.333,94.667 C26.07,94.667 26.667,95.264 26.667,96 C26.667,96.736 26.07,97.333 25.333,97.333 C24.597,97.333 24,96.736 24,96" id="Fill-23" fill="#34414F"></path>
                        <path d="M37.3335,96 C37.3335,95.264 37.9305,94.667 38.6665,94.667 C39.4025,94.667 40.0005,95.264 40.0005,96 C40.0005,96.736 39.4025,97.333 38.6665,97.333 C37.9305,97.333 37.3335,96.736 37.3335,96" id="Fill-25" fill="#34414F"></path>
                        <path d="M232,40 L224,40 C219.582,40 216,36.418 216,32 C216,27.582 219.582,24 224,24 L232,24 C236.418,24 240,27.582 240,32 C240,36.418 236.418,40 232,40" id="Fill-27" fill="#52DE96"></path>
                    </g>
                </g>
                <text id="Sales-Update" font-family="Avenir-Heavy, Avenir" font-size="16" font-weight="600" letter-spacing="0.203174606" fill="#637282">
                    <tspan x="61" y="245">Sales Update</tspan>
                </text>
                <text id="CEO-Update" font-family="Avenir-Heavy, Avenir" font-size="16" font-weight="600" letter-spacing="0.203174606" fill="#637282">
                    <tspan x="61" y="37">CEO Update</tspan>
                </text>
            </g>
        </g>
    </g>
</svg>