<?xml version="1.0" encoding="UTF-8"?>
<svg width="608px" height="504px" viewBox="0 0 608 504" version="1.1" xmlns="http://www.w3.org/2000/svg" xmlns:xlink="http://www.w3.org/1999/xlink">
    <!-- Generator: Sketch 44.1 (41455) - http://www.bohemiancoding.com/sketch -->
    <title>Group 2</title>
    <desc>Created with Sketch.</desc>
    <defs></defs>
    <g id="Page-1" stroke="none" stroke-width="1" fill="none" fill-rule="evenodd">
        <g id="Marketing-Site---Features" transform="translate(-35.000000, -86.000000)">
            <g id="Group-2" transform="translate(35.000000, 86.000000)">
                <g>
                    <g id="Story">
                        <path d="M320,493.0996 C320,498.4516 314.852,502.2916 309.721,500.7676 C302.246,498.5476 292.653,495.9996 288,495.9996 C279.754,495.9996 264.246,503.9996 256,503.9996 C247.754,503.9996 232.246,495.9996 224,495.9996 C215.754,495.9996 200.246,503.9996 192,503.9996 C183.754,503.9996 168.246,495.9996 160,495.9996 C151.754,495.9996 136.246,503.9996 128,503.9996 C119.754,503.9996 104.246,495.9996 96,495.9996 C87.754,495.9996 72.246,503.9996 64,503.9996 C55.754,503.9996 40.246,495.9996 32,495.9996 C27.347,495.9996 17.754,498.5476 10.279,500.7676 C5.148,502.2916 0,498.4516 0,493.0996 L0,23.9996 C0,15.1636 7.163,7.9996 16,7.9996 L304,7.9996 C312.837,7.9996 320,15.1636 320,23.9996 L320,493.0996 Z" id="Fill-2" fill="#F3F2EE"></path>
                        <path d="M320,485.0996 C320,490.4516 314.852,494.2916 309.721,492.7676 C302.246,490.5476 292.653,487.9996 288,487.9996 C279.754,487.9996 264.246,495.9996 256,495.9996 C247.754,495.9996 232.246,487.9996 224,487.9996 C215.754,487.9996 200.246,495.9996 192,495.9996 C183.754,495.9996 168.246,487.9996 160,487.9996 C151.754,487.9996 136.246,495.9996 128,495.9996 C119.754,495.9996 104.246,487.9996 96,487.9996 C87.754,487.9996 72.246,495.9996 64,495.9996 C55.754,495.9996 40.246,487.9996 32,487.9996 C27.347,487.9996 17.754,490.5476 10.279,492.7676 C5.148,494.2916 0,490.4516 0,485.0996 L0,15.9996 C0,7.1636 7.163,-0.0004 16,-0.0004 L304,-0.0004 C312.837,-0.0004 320,7.1636 320,15.9996 L320,485.0996 Z" id="Fill-4" fill="#FFFFFF"></path>
                        <path d="M296,107 L24,107 C22.343,107 21,105.657 21,104 C21,102.343 22.343,101 24,101 L296,101 C297.657,101 299,102.343 299,104 C299,105.657 297.657,107 296,107" id="Fill-8" fill="#D6D6D6"></path>
                        <path d="M296,219 L24,219 C22.343,219 21,217.657 21,216 C21,214.343 22.343,213 24,213 L296,213 C297.657,213 299,214.343 299,216 C299,217.657 297.657,219 296,219" id="Fill-10" fill="#D6D6D6"></path>
                        <path d="M272,235 L24,235 C22.343,235 21,233.657 21,232 C21,230.343 22.343,229 24,229 L272,229 C273.657,229 275,230.343 275,232 C275,233.657 273.657,235 272,235" id="Fill-12" fill="#D6D6D6"></path>
                        <path d="M43,52 L27,52 C25.343,52 24,50.657 24,49 C24,47.343 25.343,46 27,46 L43,46 C44.657,46 46,47.343 46,49 C46,50.657 44.657,52 43,52" id="Fill-14" fill="#D6D6D6"></path>
                        <path d="M280,192 L40,192 C31.163,192 24,184.836 24,176 L24,144 C24,135.164 31.163,128 40,128 L280,128 C288.837,128 296,135.164 296,144 L296,176 C296,184.836 288.837,192 280,192" id="Fill-16" fill="#FFD24A"></path>
                        <path d="M48,80 L32,80 C27.582,80 24,76.418 24,72 C24,67.582 27.582,64 32,64 L48,64 C52.418,64 56,67.582 56,72 C56,76.418 52.418,80 48,80" id="Fill-18" fill="#7394FF"></path>
                        <path d="M88,80 L72,80 C67.582,80 64,76.418 64,72 C64,67.582 67.582,64 72,64 L88,64 C92.418,64 96,67.582 96,72 C96,76.418 92.418,80 88,80" id="Fill-20" fill="#7394FF"></path>
                        <path d="M280,352 L40,352 C31.163,352 24,344.836 24,336 L24,272 C24,263.164 31.163,256 40,256 L280,256 C288.837,256 296,263.164 296,272 L296,336 C296,344.836 288.837,352 280,352" id="Fill-30" fill="#F3F2EE"></path>
                        <path d="M56,280 C56,284.418 52.418,288 48,288 C43.582,288 40,284.418 40,280 C40,275.582 43.582,272 48,272 C52.418,272 56,275.582 56,280" id="Fill-32" fill="#C67DFF"></path>
                        <path d="M144,283 L72,283 C70.343,283 69,281.657 69,280 C69,278.343 70.343,277 72,277 L144,277 C145.657,277 147,278.343 147,280 C147,281.657 145.657,283 144,283" id="Fill-34" fill="#BCBCBB"></path>
                        <path d="M272,315 L48,315 C46.343,315 45,313.657 45,312 C45,310.343 46.343,309 48,309 L272,309 C273.657,309 275,310.343 275,312 C275,313.657 273.657,315 272,315" id="Fill-36" fill="#BCBCBB"></path>
                        <path d="M272,331 L48,331 C46.343,331 45,329.657 45,328 C45,326.343 46.343,325 48,325 L272,325 C273.657,325 275,326.343 275,328 C275,329.657 273.657,331 272,331" id="Fill-38" fill="#BCBCBB"></path>
                        <path d="M280,464 L40,464 C31.163,464 24,456.836 24,448 L24,384 C24,375.164 31.163,368 40,368 L280,368 C288.837,368 296,375.164 296,384 L296,448 C296,456.836 288.837,464 280,464" id="Fill-40" fill="#F3F2EE"></path>
                        <path d="M56,392 C56,396.418 52.418,400 48,400 C43.582,400 40,396.418 40,392 C40,387.582 43.582,384 48,384 C52.418,384 56,387.582 56,392" id="Fill-42" fill="#52DE96"></path>
                        <path d="M144,395 L72,395 C70.343,395 69,393.657 69,392 C69,390.343 70.343,389 72,389 L144,389 C145.657,389 147,390.343 147,392 C147,393.657 145.657,395 144,395" id="Fill-44" fill="#BCBCBB"></path>
                        <path d="M272,427 L48,427 C46.343,427 45,425.657 45,424 C45,422.343 46.343,421 48,421 L272,421 C273.657,421 275,422.343 275,424 C275,425.657 273.657,427 272,427" id="Fill-46" fill="#BCBCBB"></path>
                        <path d="M272,443 L48,443 C46.343,443 45,441.657 45,440 C45,438.343 46.343,437 48,437 L272,437 C273.657,437 275,438.343 275,440 C275,441.657 273.657,443 272,443" id="Fill-48" fill="#BCBCBB"></path>
                    </g>
                    <text id="All-hands-Update" font-family="Avenir-Heavy, Avenir" font-size="16" font-weight="600" letter-spacing="0.2031746" fill="#637282">
                        <tspan x="21" y="37">All-hands Update</tspan>
                    </text>
                </g>
                <g id="Group" transform="translate(352.000000, 19.000000)">
                    <g id="Board">
                        <g id="3" transform="translate(0.000000, 208.000000)">
                            <path d="M240,192 L16,192 C7.164,192 0,184.836 0,176 L0,24 C0,15.164 7.164,8 16,8 L240,8 C248.836,8 256,15.164 256,24 L256,176 C256,184.836 248.836,192 240,192" id="Fill-1" fill="#F3F2EE"></path>
                            <path d="M256,64 L0,64 L0,16 C0,7.164 7.164,0 16,0 L240,0 C248.836,0 256,7.164 256,16 L256,64 Z" id="Fill-3" fill="#F3F2EE"></path>
                            <path d="M240,184 L16,184 C7.164,184 0,176.836 0,168 L0,64 L256,64 L256,168 C256,176.836 248.836,184 240,184" id="Fill-5" fill="#FFFFFF"></path>
                            <path d="M16,32 C16,23.164 23.164,16 32,16 C40.836,16 48,23.164 48,32 C48,40.836 40.836,48 32,48 C23.164,48 16,40.836 16,32" id="Fill-7" fill="#C67DFF"></path>
                            <path d="M96,91 L64,91 C62.343,91 61,89.657 61,88 C61,86.343 62.343,85 64,85 L96,85 C97.657,85 99,86.343 99,88 C99,89.657 97.657,91 96,91" id="Fill-11" fill="#BCBCBB"></path>
                            <path d="M232,139 L24,139 C22.343,139 21,137.657 21,136 C21,134.343 22.343,133 24,133 L232,133 C233.657,133 235,134.343 235,136 C235,137.657 233.657,139 232,139" id="Fill-13" fill="#D6D6D6"></path>
                            <path d="M176,155 L24,155 C22.343,155 21,153.657 21,152 C21,150.343 22.343,149 24,149 L176,149 C177.657,149 179,150.343 179,152 C179,153.657 177.657,155 176,155" id="Fill-15" fill="#D6D6D6"></path>
                            <path d="M80,107 L64,107 C62.343,107 61,105.657 61,104 C61,102.343 62.343,101 64,101 L80,101 C81.657,101 83,102.343 83,104 C83,105.657 81.657,107 80,107" id="Fill-17" fill="#D6D6D6"></path>
                            <g id="Group-6" transform="translate(14.000000, 80.000000)">
                                <path d="M0.6968,12.3765 C-0.9832,29.8345 24.8248,36.4835 29.0408,19.1175 C30.4838,11.5935 25.3588,2.1645 17.7018,0.8155 C12.2878,-0.2515 -0.2292,5.4115 0.8518,12.7875" id="Fill-19" fill="#FFD24A"></path>
                                <path d="M18,16 L12.667,16 C12.298,16 12,16.298 12,16.667 C12,18.505 13.495,20 15.333,20 C17.171,20 18.667,18.505 18.667,16.667 C18.667,16.298 18.368,16 18,16" id="Fill-21" fill="#34414F"></path>
                                <path d="M7.3335,14 C7.3335,13.264 7.9305,12.667 8.6665,12.667 C9.4025,12.667 10.0005,13.264 10.0005,14 C10.0005,14.736 9.4025,15.333 8.6665,15.333 C7.9305,15.333 7.3335,14.736 7.3335,14" id="Fill-23" fill="#34414F"></path>
                                <path d="M20.6665,14 C20.6665,13.264 21.2635,12.667 21.9995,12.667 C22.7365,12.667 23.3335,13.264 23.3335,14 C23.3335,14.736 22.7365,15.333 21.9995,15.333 C21.2635,15.333 20.6665,14.736 20.6665,14" id="Fill-25" fill="#34414F"></path>
                            </g>
                        </g>
                        <g id="1">
                            <path d="M240,192 L16,192 C7.164,192 0,184.836 0,176 L0,24 C0,15.164 7.164,8 16,8 L240,8 C248.836,8 256,15.164 256,24 L256,176 C256,184.836 248.836,192 240,192" id="Fill-1" fill="#F3F2EE"></path>
                            <path d="M256,64 L0,64 L0,16 C0,7.164 7.164,0 16,0 L240,0 C248.836,0 256,7.164 256,16 L256,64 Z" id="Fill-3" fill="#F3F2EE"></path>
                            <path d="M240,184 L16,184 C7.164,184 0,176.836 0,168 L0,64 L256,64 L256,168 C256,176.836 248.836,184 240,184" id="Fill-5" fill="#FFFFFF"></path>
                            <path d="M16,32 C16,23.164 23.164,16 32,16 C40.836,16 48,23.164 48,32 C48,40.836 40.836,48 32,48 C23.164,48 16,40.836 16,32" id="Fill-7" fill="#FFD24A"></path>
                            <path d="M96,91 L64,91 C62.343,91 61,89.657 61,88 C61,86.343 62.343,85 64,85 L96,85 C97.657,85 99,86.343 99,88 C99,89.657 97.657,91 96,91" id="Fill-11" fill="#BCBCBB"></path>
                            <path d="M216,139 L24,139 C22.343,139 21,137.657 21,136 C21,134.343 22.343,133 24,133 L216,133 C217.657,133 219,134.343 219,136 C219,137.657 217.657,139 216,139" id="Fill-13" fill="#D6D6D6"></path>
                            <path d="M232,155 L24,155 C22.343,155 21,153.657 21,152 C21,150.343 22.343,149 24,149 L232,149 C233.657,149 235,150.343 235,152 C235,153.657 233.657,155 232,155" id="Fill-15" fill="#D6D6D6"></path>
                            <path d="M80,107 L64,107 C62.343,107 61,105.657 61,104 C61,102.343 62.343,101 64,101 L80,101 C81.657,101 83,102.343 83,104 C83,105.657 81.657,107 80,107" id="Fill-17" fill="#D6D6D6"></path>
                            <path d="M17.2578,97.2334 C18.8388,89.9924 24.6568,83.9964 31.9998,84.0004 C39.3428,83.9964 45.1618,89.9924 46.7418,97.2334 C48.2768,104.2184 41.6728,111.3974 31.9998,111.6104 C22.3278,111.3964 15.7238,104.2184 17.2578,97.2334" id="Fill-19" fill="#FA6452"></path>
                            <path d="M32,102 C30.162,102 28.667,100.505 28.667,98.667 C28.667,98.298 28.965,98 29.333,98 C29.702,98 30,98.298 30,98.667 C30,99.77 30.897,100.667 32,100.667 C33.103,100.667 34,99.77 34,98.667 C34,98.298 34.298,98 34.667,98 C35.035,98 35.333,98.298 35.333,98.667 C35.333,100.505 33.838,102 32,102" id="Fill-21" fill="#34414F"></path>
                            <path d="M24,96 C24,95.264 24.597,94.667 25.333,94.667 C26.07,94.667 26.667,95.264 26.667,96 C26.667,96.736 26.07,97.333 25.333,97.333 C24.597,97.333 24,96.736 24,96" id="Fill-23" fill="#34414F"></path>
                            <path d="M37.3335,96 C37.3335,95.264 37.9305,94.667 38.6665,94.667 C39.4025,94.667 40.0005,95.264 40.0005,96 C40.0005,96.736 39.4025,97.333 38.6665,97.333 C37.9305,97.333 37.3335,96.736 37.3335,96" id="Fill-25" fill="#34414F"></path>
                            <path d="M232,40 L224,40 C219.582,40 216,36.418 216,32 C216,27.582 219.582,24 224,24 L232,24 C236.418,24 240,27.582 240,32 C240,36.418 236.418,40 232,40" id="Fill-27" fill="#52DE96"></path>
                        </g>
                    </g>
                    <text id="Sales-Update" font-family="Avenir-Heavy, Avenir" font-size="16" font-weight="600" letter-spacing="0.203174606" fill="#637282">
                        <tspan x="61" y="245">Sales Update</tspan>
                    </text>
                    <text id="CEO-Update" font-family="Avenir-Heavy, Avenir" font-size="16" font-weight="600" letter-spacing="0.203174606" fill="#637282">
                        <tspan x="61" y="37">CEO Update</tspan>
                    </text>
                </g>
            </g>
        </g>
    </g>
</svg>