<?xml version="1.0" encoding="UTF-8"?>
<svg width="14px" height="14px" viewBox="0 0 14 14" version="1.1" xmlns="http://www.w3.org/2000/svg" xmlns:xlink="http://www.w3.org/1999/xlink">
    <!-- Generator: Sketch 52.6 (67491) - http://www.bohemiancoding.com/sketch -->
    <title>Combined Shape</title>
    <desc>Created with Sketch.</desc>
    <g id="Inbox/unread" stroke="none" stroke-width="1" fill="none" fill-rule="evenodd">
        <g id="Inbox:-FoC-(hover)" transform="translate(-1094.000000, -165.000000)" fill="#34414F">
            <path d="M1097,165 L1097,168.230769 L1095,168.230769 C1094.44772,168.230769 1094,167.783054 1094,167.230769 L1094,166 C1094,165.447715 1094.44772,165 1095,165 L1097,165 Z M1099,165 L1107,165 C1107.55228,165 1108,165.447715 1108,166 L1108,167.230769 C1108,167.783054 1107.55228,168.230769 1107,168.230769 L1099,168.230769 L1099,165 Z M1097,170.384615 L1097,173.615385 L1095,173.615385 C1094.44772,173.615385 1094,173.167669 1094,172.615385 L1094,171.384615 C1094,170.832331 1094.44772,170.384615 1095,170.384615 L1097,170.384615 Z M1099,170.384615 L1107,170.384615 C1107.55228,170.384615 1108,170.832331 1108,171.384615 L1108,172.615385 C1108,173.167669 1107.55228,173.615385 1107,173.615385 L1099,173.615385 L1099,170.384615 Z M1097,175.769231 L1097,179 L1095,179 C1094.44772,179 1094,178.552285 1094,178 L1094,176.769231 C1094,176.216946 1094.44772,175.769231 1095,175.769231 L1097,175.769231 Z M1099,175.769231 L1107,175.769231 C1107.55228,175.769231 1108,176.216946 1108,176.769231 L1108,178 C1108,178.552285 1107.55228,179 1107,179 L1099,179 L1099,175.769231 Z" id="Combined-Shape"></path>
        </g>
    </g>
</svg>