<?xml version="1.0" encoding="UTF-8"?>
<svg width="16px" height="16px" viewBox="0 0 16 16" version="1.1" xmlns="http://www.w3.org/2000/svg" xmlns:xlink="http://www.w3.org/1999/xlink">
    <!-- Generator: Sketch 47.1 (45422) - http://www.bohemiancoding.com/sketch -->
    <title>Shape</title>
    <desc>Created with Sketch.</desc>
    <defs></defs>
    <g id="➡️-Board-Flow" stroke="none" stroke-width="1" fill="none" fill-rule="evenodd">
        <g id="All-posts-removed" transform="translate(-1108.000000, -428.000000)" fill-rule="nonzero" fill="#CDCED0">
            <g id="Group-13" transform="translate(753.000000, 178.000000)">
                <g id="Group-2" transform="translate(351.000000, 246.000000)">
                    <g id="Shape">
                        <path d="M12,20 C7.581722,20 4,16.418278 4,12 C4,7.581722 7.581722,4 12,4 C16.418278,4 20,7.581722 20,12 C20,16.418278 16.418278,20 12,20 Z M12.5450906,8.23592144 C12.2361077,7.92046893 11.736855,7.92100133 11.4274748,8.23968968 L8.78129136,10.965487 C8.02929725,11.7196359 9.15755432,12.8511258 9.90954843,12.0969769 L10.8249682,11.175632 C11.0334102,10.9658409 11.2023858,11.0370074 11.2023858,11.3310264 L11.2023858,14.9992909 C11.2023858,15.4400378 11.5604384,15.7973338 12.0001164,15.7973338 C12.4406909,15.7973338 12.7978471,15.4376338 12.7978471,14.9992909 L12.7978471,11.3310264 C12.7978471,11.0354134 12.9668282,10.9658815 13.175187,11.175632 L14.0904185,12.0969769 C14.8426785,12.8511258 15.9706697,11.7196359 15.2186756,10.965487 L12.5450906,8.23592144 Z" transform="translate(12.000000, 12.000000) rotate(45.000000) translate(-12.000000, -12.000000) "></path>
                    </g>
                </g>
            </g>
        </g>
    </g>
</svg>