<?xml version="1.0" encoding="UTF-8"?>
<svg width="14px" height="14px" viewBox="0 0 14 14" version="1.1" xmlns="http://www.w3.org/2000/svg" xmlns:xlink="http://www.w3.org/1999/xlink">
    <!-- Generator: Sketch 52.6 (67491) - http://www.bohemiancoding.com/sketch -->
    <title>Complete</title>
    <desc>Created with Sketch.</desc>
    <g id="Follow-ups" stroke="none" stroke-width="1" fill="none" fill-rule="evenodd">
        <g id="Follow-up-icons" transform="translate(-375.000000, -336.000000)" fill="#34414F">
            <g id="Group-3" transform="translate(128.000000, 326.000000)">
                <g id="Group-2" transform="translate(181.000000, 10.000000)">
                    <path d="M68,0 L78,0 C79.1045695,-2.02906125e-16 80,0.8954305 80,2 L80,12 C80,13.1045695 79.1045695,14 78,14 L68,14 C66.8954305,14 66,13.1045695 66,12 L66,2 C66,0.8954305 66.8954305,2.02906125e-16 68,0 Z M75.9383157,3.41520396 L71.627451,8.15052307 L70.0616843,6.43058857 C69.6335656,5.96031663 68.915454,5.96031663 68.4873353,6.43058857 C68.0875549,6.869732 68.0875549,7.56103723 68.4873353,8.00018066 L70.8402765,10.584796 C71.2683952,11.055068 71.9865067,11.055068 72.4146255,10.584796 L77.5126647,4.98479604 C77.9124451,4.54565261 77.9124451,3.85434739 77.5126647,3.41520396 C77.084546,2.94493201 76.3664344,2.94493201 75.9383157,3.41520396 Z" id="Complete"></path>
                </g>
            </g>
        </g>
    </g>
</svg>