<?xml version="1.0" encoding="UTF-8"?>
<svg width="18px" height="20px" viewBox="0 0 18 20" version="1.1" xmlns="http://www.w3.org/2000/svg" xmlns:xlink="http://www.w3.org/1999/xlink">
    <!-- Generator: Sketch 52.6 (67491) - http://www.bohemiancoding.com/sketch -->
    <title>Combined Shape</title>
    <desc>Created with Sketch.</desc>
    <g id="Mobile-MVP" stroke="none" stroke-width="1" fill="none" fill-rule="evenodd">
        <g id="High-level-changes" transform="translate(-630.000000, -954.000000)" fill="#FC5E49" fill-rule="nonzero">
            <g id="Group-19" transform="translate(112.000000, 200.000000)">
                <g id="Group-18">
                    <g id="App-dock-Copy" transform="translate(386.000000, 742.000000)">
                        <path d="M134.252395,12 L147.747605,12 C148.991568,12 150,12.9354565 150,14.0829427 L150,30.7463517 C150,31.8967293 149.145188,32.3347075 148.091331,31.7249551 L141.477525,29.1482626 C141.213795,28.9956709 140.786404,28.9955558 140.522475,29.1482626 L133.908669,31.7249551 C132.85454,32.3348649 132,31.893838 132,30.7463517 L132,14.0829427 C132,12.9325652 133.006328,12 134.252395,12 Z M142.391525,19.5280707 L142.391525,16.4797975 C142.391525,15.6670946 141.98556,15.5103877 141.484777,16.1247426 L137.322941,21.2304303 C136.988322,21.6409366 137.133666,21.9719293 137.645777,21.9719293 L139.608475,21.9719293 L139.608475,25.0202025 C139.608475,25.8329054 140.01444,25.9896123 140.515223,25.3752574 L144.677059,20.2695697 C145.011678,19.8590634 144.866334,19.5280707 144.354223,19.5280707 L142.391525,19.5280707 Z" id="Combined-Shape"></path>
                    </g>
                </g>
            </g>
        </g>
    </g>
</svg>