<?xml version="1.0" encoding="UTF-8"?>
<svg width="14px" height="14px" viewBox="0 0 14 14" version="1.1" xmlns="http://www.w3.org/2000/svg" xmlns:xlink="http://www.w3.org/1999/xlink">
    <!-- Generator: Sketch 52.6 (67491) - http://www.bohemiancoding.com/sketch -->
    <title>Group 7</title>
    <desc>Created with Sketch.</desc>
    <g id="Follow-ups" stroke="none" stroke-width="1" fill="none" fill-rule="evenodd">
        <g id="Follow-up-icons" transform="translate(-375.000000, -370.000000)" fill="#34414F" fill-rule="nonzero">
            <g id="Group-3" transform="translate(128.000000, 326.000000)">
                <g id="Group-4" transform="translate(181.000000, 44.000000)">
                    <g id="Group-7" transform="translate(66.000000, 0.000000)">
                        <path d="M13.0035797,2.11111111 C13.4311575,2.11111111 13.7777778,2.45633931 13.7777778,2.88888889 C13.7777778,3.31844369 13.428473,3.66666667 13.0035797,3.66666667 L11.6666667,3.66666667 L11.6666667,5.00357967 C11.6666667,5.43115748 11.3214385,5.77777778 10.8888889,5.77777778 C10.4593341,5.77777778 10.1111111,5.42847296 10.1111111,5.00357967 L10.1111111,3.66666667 L8.77419811,3.66666667 C8.3466203,3.66666667 8,3.32143847 8,2.88888889 C8,2.45933408 8.34930481,2.11111111 8.77419811,2.11111111 L10.1111111,2.11111111 L10.1111111,0.774198108 C10.1111111,0.3466203 10.4563393,0 10.8888889,0 C11.3184437,0 11.6666667,0.349304815 11.6666667,0.774198108 L11.6666667,2.11111111 L13.0035797,2.11111111 Z" id="Combined-Shape"></path>
                        <path d="M5.44306329,6.53368482 L7.47845389,6.53368482 C8.00953198,6.53368482 8.16025858,6.93087613 7.81324639,7.42348364 L3.4972686,13.5503089 C2.97793764,14.2875347 2.55693671,14.0994864 2.55693671,13.124243 L2.55693671,9.46631518 L0.521546111,9.46631518 C-0.00953197838,9.46631518 -0.160258584,9.06912387 0.186753607,8.57651636 L4.5027314,2.44969107 C5.02206236,1.71246529 5.44306329,1.90051357 5.44306329,2.87575695 L5.44306329,6.53368482 Z" id="Combined-Shape"></path>
                    </g>
                </g>
            </g>
        </g>
    </g>
</svg>