<?xml version="1.0" encoding="UTF-8"?>
<svg width="14px" height="14px" viewBox="0 0 14 14" version="1.1" xmlns="http://www.w3.org/2000/svg" xmlns:xlink="http://www.w3.org/1999/xlink">
    <!-- Generator: Sketch 52.6 (67491) - http://www.bohemiancoding.com/sketch -->
    <title>Group 27</title>
    <desc>Created with Sketch.</desc>
    <g id="Follow-ups" stroke="none" stroke-width="1" fill="none" fill-rule="evenodd">
        <g id="Follow-up-2.0-(created)" transform="translate(-1070.000000, -160.000000)" fill="#34414F" fill-rule="nonzero">
            <g id="Group-27" transform="translate(1070.000000, 160.000000)">
                <g id="Group-28">
                    <path d="M12.4444444,10.8904145 L12.4444444,7.77777778 C12.4444444,7.34822297 12.7926674,7 13.2222222,7 C13.651777,7 14,7.34822297 14,7.77777778 L14,10.8904145 C14,12.608617 12.6068782,14 10.8862824,14 L3.11371763,14 C1.39354029,14 0,12.6071864 0,10.8862824 L0,3.11371763 C0,1.39466367 1.3951323,0 3.11317549,0 L7.22222222,0 C7.65177703,0 8,0.348222972 8,0.777777778 C8,1.20733258 7.65177703,1.55555556 7.22222222,1.55555556 L3.11317549,1.55555556 C2.25412495,1.55555556 1.55555556,2.25389029 1.55555556,3.11371763 L1.55555556,10.8862824 C1.55555556,11.7478951 2.25246833,12.4444444 3.11371763,12.4444444 L10.8862824,12.4444444 C11.7482032,12.4444444 12.4444444,11.7490722 12.4444444,10.8904145 Z" id="Combined-Shape"></path>
                    <path d="M6.56903559,3.91715729 C6.43886083,3.76094757 6.22780584,3.76094757 6.09763107,3.91715729 C5.96745631,4.073367 5.96745631,4.326633 6.09763107,4.48284271 L8.09763107,6.88284271 C8.22780584,7.03905243 8.43886083,7.03905243 8.56903559,6.88284271 L12.9023689,1.68284271 C13.0325437,1.526633 13.0325437,1.273367 12.9023689,1.11715729 C12.7721942,0.960947571 12.5611392,0.960947571 12.4309644,1.11715729 L8.33333333,6.03431458 L6.56903559,3.91715729 Z" id="Path-85" stroke="#34414F"></path>
                </g>
            </g>
        </g>
    </g>
</svg>