<?xml version="1.0" encoding="UTF-8"?>
<svg width="16px" height="16px" viewBox="0 0 16 16" version="1.1" xmlns="http://www.w3.org/2000/svg" xmlns:xlink="http://www.w3.org/1999/xlink">
    <!-- Generator: Sketch 52.6 (67491) - http://www.bohemiancoding.com/sketch -->
    <title>Group 7</title>
    <desc>Created with Sketch.</desc>
    <g id="Follow-ups" stroke="none" stroke-width="1" fill="none" fill-rule="evenodd">
        <g id="Follow-up-2.0-(hover)" transform="translate(-1068.000000, -158.000000)" fill-rule="nonzero">
            <g id="Group-7" transform="translate(1068.000000, 158.000000)">
                <path d="M15.2258019,2.11111111 C15.6533797,2.11111111 16,2.45633931 16,2.88888889 C16,3.31844369 15.6506952,3.66666667 15.2258019,3.66666667 L13.8888889,3.66666667 L13.8888889,5.00357967 C13.8888889,5.43115748 13.5436607,5.77777778 13.1111111,5.77777778 C12.6815563,5.77777778 12.3333333,5.42847296 12.3333333,5.00357967 L12.3333333,3.66666667 L10.9964203,3.66666667 C10.5688425,3.66666667 10.2222222,3.32143847 10.2222222,2.88888889 C10.2222222,2.45933408 10.571527,2.11111111 10.9964203,2.11111111 L12.3333333,2.11111111 L12.3333333,0.774198108 C12.3333333,0.3466203 12.6785615,1.77635684e-14 13.1111111,1.77635684e-14 C13.5406659,1.77635684e-14 13.8888889,0.349304815 13.8888889,0.774198108 L13.8888889,2.11111111 L15.2258019,2.11111111 Z" id="Combined-Shape" fill="#34414F"></path>
                <path d="M7.62028861,7.28929896 L10.4698354,7.28929896 C11.2133448,7.28929896 11.424362,7.75268882 10.938545,8.32739758 L4.89617604,15.4753604 C4.16911269,16.3354572 3.57971139,16.1160675 3.57971139,14.9782836 L3.57971139,10.710701 L0.730164555,10.710701 C-0.0133447697,10.710701 -0.224362018,10.2473112 0.26145505,9.67260242 L6.30382396,2.52463958 C7.03088731,1.66454284 7.62028861,1.8839325 7.62028861,3.02171645 L7.62028861,7.28929896 Z" id="Combined-Shape" fill="#242D42"></path>
            </g>
        </g>
    </g>
</svg>