<?xml version="1.0" encoding="UTF-8"?>
<svg width="226px" height="209px" viewBox="0 0 226 209" version="1.1" xmlns="http://www.w3.org/2000/svg" xmlns:xlink="http://www.w3.org/1999/xlink">
    <!-- Generator: Sketch 50.2 (55047) - http://www.bohemiancoding.com/sketch -->
    <title>Red-Circle</title>
    <desc>Created with Sketch.</desc>
    <defs>
        <path d="M113,1.05154793e-05 C168.446927,-0.0252212777 212.390133,45.3604668 224.329333,100.171491 C235.911088,153.043452 186.042333,207.38138 113,209 C39.957667,207.38138 -9.91108778,153.044714 1.67066685,100.171491 C13.6098675,45.3604668 57.5530734,-0.0252212777 113,1.05154793e-05 Z" id="path-1"></path>
    </defs>
    <g id="ðŸ -Marketing-site" stroke="none" stroke-width="1" fill="none" fill-rule="evenodd">
        <g id="Home---May-17" transform="translate(-936.000000, -5629.000000)">
            <g id="Group-15" transform="translate(0.000000, 3769.000000)">
                <g id="Group-24" transform="translate(0.000000, 982.000000)">
                    <g id="Footer" transform="translate(0.000000, 860.000000)">
                        <g id="Group-26">
                            <g id="Fill-1" transform="translate(936.000000, 18.000000)">
                                <g id="Red-Circle">
                                    <mask id="mask-2" fill="white">
                                        <use xlink:href="#path-1"></use>
                                    </mask>
                                    <use id="Mask" fill="#30BC73" xlink:href="#path-1"></use>
                                    <path d="M113,-9.99998948 C168.446927,-10.0252213 212.390133,35.3604668 224.329333,90.1714911 C235.911088,143.043452 186.042333,197.38138 113,199 C39.957667,197.38138 -9.91108778,143.044714 1.67066685,90.1714911 C13.6098675,35.3604668 57.5530734,-10.0252213 113,-9.99998948 Z" id="Fill-1" fill="#32C97B" mask="url(#mask-2)"></path>
                                </g>
                            </g>
                        </g>
                    </g>
                </g>
            </g>
        </g>
    </g>
</svg>