<?xml version="1.0" encoding="UTF-8"?>
<svg width="14px" height="14px" viewBox="0 0 14 14" version="1.1" xmlns="http://www.w3.org/2000/svg" xmlns:xlink="http://www.w3.org/1999/xlink">
    <!-- Generator: Sketch 50.2 (55047) - http://www.bohemiancoding.com/sketch -->
    <title>Combined Shape</title>
    <desc>Created with Sketch.</desc>
    <defs></defs>
    <g id="Full-screen-dev-assets" stroke="none" stroke-width="1" fill="none" fill-rule="evenodd" opacity="0.800000012">
        <g id="Mobile:-full-screen-post" transform="translate(-24.000000, -21.000000)" fill="#898D93" fill-rule="nonzero">
            <g id="Group">
                <path d="M37.7437076,22.4937292 C38.0854224,22.1520264 38.085432,21.5980071 37.7437292,21.2562924 C37.4020264,20.9145776 36.8480071,20.914568 36.5062924,21.2562708 L31,26.7623711 L25.4937076,21.2562708 C25.1519929,20.914568 24.5979736,20.9145776 24.2562708,21.2562924 C23.914568,21.5980071 23.9145776,22.1520264 24.2562924,22.4937292 L29.7625416,27.9997864 L24.2562924,33.5058435 C23.9145776,33.8475463 23.914568,34.4015657 24.2562708,34.7432804 C24.5979736,35.0849951 25.1519929,35.0850048 25.4937076,34.743302 L31,29.2372017 L36.5062924,34.743302 C36.8480071,35.0850048 37.4020264,35.0849951 37.7437292,34.7432804 C38.085432,34.4015657 38.0854224,33.8475463 37.7437076,33.5058435 L32.2374584,27.9997864 L37.7437076,22.4937292 Z" id="Combined-Shape"></path>
            </g>
        </g>
    </g>
</svg>