<?xml version="1.0" encoding="UTF-8"?>
<svg width="40px" height="40px" viewBox="0 0 40 40" version="1.1" xmlns="http://www.w3.org/2000/svg" xmlns:xlink="http://www.w3.org/1999/xlink">
    <!-- Generator: Sketch 50.2 (55047) - http://www.bohemiancoding.com/sketch -->
    <title>Combined Shape</title>
    <desc>Created with Sketch.</desc>
    <defs></defs>
    <g id="➡️-Boards-&amp;-Posts" stroke="none" stroke-width="1" fill="none" fill-rule="evenodd">
        <g id="Post-deleted" transform="translate(-933.000000, -262.000000)" fill="#3FBD7C">
            <path d="M955,289 L956.000385,289 C957.104742,289 958,289.88773 958,291 C958,292.104569 957.112567,293 956.000385,293 L949.999615,293 C948.895258,293 948,292.11227 948,291 C948,289.895431 948.887433,289 949.999615,289 L951,289 L951,283 L950.005919,283 C948.898081,283 948,282.11227 948,281 C948,279.895431 948.886555,279 950.005919,279 L952.994081,279 C953.551312,279 954.050523,279.223476 954.4123,279.585214 C954.776278,279.945645 955,280.444854 955,281 L955,289 Z M953,302 C941.954305,302 933,293.045695 933,282 C933,270.954305 941.954305,262 953,262 C964.045695,262 973,270.954305 973,282 C973,293.045695 964.045695,302 953,302 Z M953,298 C961.836556,298 969,290.836556 969,282 C969,273.163444 961.836556,266 953,266 C944.163444,266 937,273.163444 937,282 C937,290.836556 944.163444,298 953,298 Z M953,277 C951.343146,277 950,275.656854 950,274 C950,272.343146 951.343146,271 953,271 C954.656854,271 956,272.343146 956,274 C956,275.656854 954.656854,277 953,277 Z" id="Combined-Shape"></path>
        </g>
    </g>
</svg>