<?xml version="1.0" encoding="UTF-8"?>
<svg width="48px" height="48px" viewBox="0 0 48 48" version="1.1" xmlns="http://www.w3.org/2000/svg" xmlns:xlink="http://www.w3.org/1999/xlink">
    <!-- Generator: Sketch 50.2 (55047) - http://www.bohemiancoding.com/sketch -->
    <title>Group 7</title>
    <desc>Created with Sketch.</desc>
    <defs></defs>
    <g id="ðŸ -Marketing-site" stroke="none" stroke-width="1" fill="none" fill-rule="evenodd">
        <g id="Home---May-17" transform="translate(-535.000000, -2401.000000)" fill="#32C97B">
            <g id="Group-17" transform="translate(0.000000, 1548.000000)">
                <g id="Group-7" transform="translate(535.000000, 853.000000)">
                    <circle id="Oval-8" opacity="0.2" cx="24" cy="24" r="24"></circle>
                    <path d="M26.99998,12 C29.6509513,12 31.7999882,14.1151899 31.7999882,16.7244089 C31.7999882,17.7174554 31.6198403,19.0951619 31.2006148,20.4208891 C32.6511215,20.9497796 33.7778748,21.8038082 34.5887136,22.9357734 C35.6039843,24.3531341 36,25.9991518 36,27.5980483 C36,28.034781 35.7626678,28.437022 35.3803604,28.648241 C34.9127826,28.9065705 34.1028928,29.2737435 33.0168498,29.6360933 C32.2189177,29.9023171 31.3940753,30.1214073 30.548037,30.282864 C30.9763254,31.2218435 31.1999887,32.1772352 31.1999887,32.9973728 C31.1999887,33.4606754 30.9332163,33.8825803 30.5146312,34.0812768 C29.9868679,34.3317986 29.0740127,34.6923081 27.8659999,35.0493846 C25.8569167,35.6432495 23.7392882,36 21.5999944,36 C19.4607005,36 17.343072,35.6432495 15.3339888,35.0493846 C14.125976,34.6923081 13.2131208,34.3317986 12.6853575,34.0812768 C12.2667724,33.8825803 12,33.4606754 12,32.9973728 C12,31.5421307 12.6900958,29.6823097 13.9723229,28.2290962 C14.7756306,27.3186665 15.7717062,26.5908991 16.9559113,26.0768777 C16.4259279,24.4856991 16.1999617,22.7971731 16.1999617,21.598799 C16.1999617,18.6168344 18.6176281,16.1994746 21.5999708,16.1994746 C21.811503,16.1994746 22.0201945,16.2116358 22.2253839,16.2352973 C22.4740343,13.8558974 24.516805,12 26.99998,12 Z M26.2428973,26.0802779 C27.3592784,26.5666163 28.3087672,27.2434599 29.0874911,28.0844272 C30.1794537,27.9491677 31.2427022,27.6982516 32.2571823,27.3597782 C32.7356747,27.2001329 33.1719609,27.0310342 33.5598709,26.8616113 C33.4605174,25.963229 33.1716269,25.0786808 32.6375366,24.3330681 C32.0845075,23.5610162 31.2927158,22.9722347 30.2051405,22.6106042 C29.4556444,23.7714637 28.409439,24.5984237 26.99998,24.5984237 C26.8816898,24.5984237 26.7659581,24.5925989 26.6527458,24.5812409 C26.5441167,25.0785512 26.4082893,25.5841674 26.2428973,26.0802779 Z M26.99998,22.1987239 C28.1328407,22.1987239 29.3999841,19.4439925 29.3999841,16.7244089 C29.3999841,15.4490403 28.3338522,14.3996997 26.99998,14.3996997 C25.6661078,14.3996997 24.5999759,15.4490403 24.5999759,16.7244089 C24.5999759,16.8544323 24.6028724,16.984536 24.6085121,17.1144152 C26.0509069,18.0837742 26.99998,19.7304667 26.99998,21.598799 C26.99998,21.7873351 26.994387,21.9880032 26.982897,22.1985157 C26.9885946,22.1986544 26.994289,22.1987239 26.99998,22.1987239 Z M15.772049,29.8166622 C15.113342,30.5632085 14.6791975,31.4643215 14.4972272,32.2372965 C14.9528491,32.411261 15.4613087,32.5846539 16.0143868,32.7481383 C17.8171235,33.2810092 19.7123973,33.6003003 21.5999944,33.6003003 C23.4875914,33.6003003 25.3828652,33.2810092 27.1856019,32.7481383 C27.7379271,32.5848765 28.2457553,32.4117331 28.7009006,32.2380069 C28.5175773,31.4711709 28.0833205,30.5718501 27.4269677,29.8261323 C26.8495818,29.1701331 26.1271506,28.6402434 25.2459364,28.2619984 C24.4000989,29.6221346 23.2109464,30.597673 21.5999708,30.597673 C19.9877993,30.597673 18.7980774,29.6206855 17.9521219,28.2589684 C17.070648,28.635606 16.3485313,29.1633054 15.772049,29.8166622 Z M21.5999708,28.1979733 C23.0931683,28.1979733 24.5999759,24.8702229 24.5999759,21.598799 C24.5999759,19.942152 23.2568279,18.5991743 21.5999708,18.5991743 C19.9431138,18.5991743 18.5999657,19.942152 18.5999657,21.598799 C18.5999657,24.8702229 20.1067734,28.1979733 21.5999708,28.1979733 Z" id="Cross-team"></path>
                </g>
            </g>
        </g>
    </g>
</svg>