<?xml version="1.0" encoding="UTF-8"?>
<svg width="16px" height="10px" viewBox="0 0 16 10" version="1.1" xmlns="http://www.w3.org/2000/svg" xmlns:xlink="http://www.w3.org/1999/xlink">
    <!-- Generator: Sketch 52.5 (67469) - http://www.bohemiancoding.com/sketch -->
    <title>Combined Shape</title>
    <desc>Created with Sketch.</desc>
    <g id="Post-viewing" stroke="none" stroke-width="1" fill="none" fill-rule="evenodd">
        <g id="Direct-link-(public,-not-logged-in)" transform="translate(-618.000000, -396.000000)" fill="#3FBD7C" fill-rule="nonzero">
            <g id="Group-13" transform="translate(446.000000, 392.000000)">
                <path d="M181,4.0348565 L181,16.1606167 C181,16.6241953 180.556135,17 180,17 C179.447715,17 179,16.6264648 179,16.1606167 L179,4.0348565 L176.707107,6.07298381 C176.316582,6.42011651 175.683418,6.42011651 175.292893,6.07298381 C174.902369,5.7258511 174.902369,5.16303779 175.292893,4.81590508 L179.292893,1.26034953 C179.683418,0.913216824 180.316582,0.913216824 180.707107,1.26034953 L184.707107,4.81590508 C185.097631,5.16303779 185.097631,5.7258511 184.707107,6.07298381 C184.316582,6.42011651 183.683418,6.42011651 183.292893,6.07298381 L181,4.0348565 Z" id="Combined-Shape" transform="translate(180.000000, 9.000000) scale(-1, 1) rotate(-90.000000) translate(-180.000000, -9.000000) "></path>
            </g>
        </g>
    </g>
</svg>