<?xml version="1.0" encoding="UTF-8"?>
<svg width="48px" height="48px" viewBox="0 0 48 48" version="1.1" xmlns="http://www.w3.org/2000/svg" xmlns:xlink="http://www.w3.org/1999/xlink">
    <!-- Generator: Sketch 50.2 (55047) - http://www.bohemiancoding.com/sketch -->
    <title>Group 8</title>
    <desc>Created with Sketch.</desc>
    <defs></defs>
    <g id="ðŸ -Marketing-site" stroke="none" stroke-width="1" fill="none" fill-rule="evenodd">
        <g id="Home---May-17" transform="translate(-160.000000, -2401.000000)" fill="#32C97B">
            <g id="Group-17" transform="translate(0.000000, 1548.000000)">
                <g id="Group-8" transform="translate(160.000000, 853.000000)">
                    <circle id="Oval-8" opacity="0.2" cx="24" cy="24" r="24"></circle>
                    <path d="M26.332331,28.8 C26.3417348,28.6192655 26.3592116,28.3693282 26.3890193,28.2075961 C26.4891068,27.6645379 26.5588459,27.3679405 26.7110339,26.9792717 C26.9734594,26.3090703 27.3901601,25.7318513 28.0114723,25.2955155 C29.6071052,24.1749326 30.5714286,22.3694962 30.5714286,20.4 C30.5714286,17.0862915 27.8531574,14.4 24.5,14.4 C21.1468426,14.4 18.4285714,17.0862915 18.4285714,20.4 C18.4285714,22.462597 19.3375091,24.1878869 20.9414402,25.2692951 C21.5755162,25.696804 21.9998005,26.2733409 22.2660578,26.9452145 C22.418645,27.3302531 22.4893163,27.6271736 22.5891139,28.1628009 C22.6230217,28.3447894 22.6490605,28.6116528 22.6655468,28.8 L23.2857143,28.8 L23.2857143,22.8063274 L21.3450956,21.3574751 C20.8100015,20.9579776 20.7039342,20.2054446 21.1081876,19.6766457 C21.5124411,19.1478468 22.2739328,19.0430274 22.8090269,19.4425249 L24.5060774,20.7103806 L26.2062406,19.4425249 C26.7413348,19.0430274 27.5028264,19.1478468 27.9070799,19.6766457 C28.3113333,20.2054446 28.205266,20.9579776 27.6701719,21.3574751 L25.7142857,22.8177261 L25.7142857,28.8 L26.332331,28.8 Z M21.4678428,34.8 C20.7952468,34.8 20.25,34.26754 20.25,33.600231 L20.25,28.8594275 C20.1209362,28.1966333 20.0562672,27.577844 19.5727452,27.2518421 C17.3297944,25.7395919 16,23.2857333 16,20.4 C16,15.7608081 19.8055796,12 24.5,12 C29.1944204,12 33,15.7608081 33,20.4 C33,23.2279966 31.5858552,25.7295877 29.4182698,27.251842 C28.9467062,27.5830122 28.866004,28.1696564 28.7483164,28.8 L28.75,33.600231 C28.75,34.2628451 28.2053564,34.8 27.5321572,34.8 L26.2177858,34.8 C25.9677423,35.4991154 25.2930614,36 24.5,36 C23.7069386,36 23.0322577,35.4991154 22.7822142,34.8 L21.4678428,34.8 Z" id="Rectangle-849"></path>
                </g>
            </g>
        </g>
    </g>
</svg>