<?xml version="1.0" encoding="UTF-8"?>
<svg width="48px" height="48px" viewBox="0 0 48 48" version="1.1" xmlns="http://www.w3.org/2000/svg" xmlns:xlink="http://www.w3.org/1999/xlink">
    <!-- Generator: Sketch 50.2 (55047) - http://www.bohemiancoding.com/sketch -->
    <title>Group 7</title>
    <desc>Created with Sketch.</desc>
    <defs></defs>
    <g id="ðŸ -Marketing-site" stroke="none" stroke-width="1" fill="none" fill-rule="evenodd">
        <g id="Home---May-17" transform="translate(-910.000000, -2401.000000)" fill="#32C97B">
            <g id="Group-17" transform="translate(0.000000, 1548.000000)">
                <g id="Group-30" transform="translate(910.000000, 853.000000)">
                    <g id="Group-7">
                        <circle id="Oval-8" opacity="0.200000018" cx="24" cy="24" r="24"></circle>
                        <path d="M17.6997815,22.0339924 L14.3670171,22.8671835 C13.7776566,23.0145237 13.1804428,22.6561954 13.0331027,22.0668349 C12.8857626,21.4774745 13.2440908,20.8802606 13.8334513,20.7329205 L17.1662157,19.8997294 L16.3330246,16.566965 C16.1856845,15.9776046 16.5440128,15.3803907 17.1333732,15.2330506 C17.7227337,15.0857105 18.3199475,15.4440388 18.4672876,16.0333993 L19.3004787,19.3661637 L25.9660076,17.6997815 L25.1328165,14.3670171 C24.9854763,13.7776566 25.3438046,13.1804428 25.9331651,13.0331027 C26.5225255,12.8857626 27.1197394,13.2440908 27.2670795,13.8334513 L28.1002706,17.1662157 L31.433035,16.3330246 C32.0223954,16.1856845 32.6196093,16.5440128 32.7669494,17.1333732 C32.9142895,17.7227337 32.5559612,18.3199475 31.9666007,18.4672876 L28.6338363,19.3004787 L30.3002185,25.9660076 L33.6329829,25.1328165 C34.2223434,24.9854763 34.8195572,25.3438046 34.9668973,25.9331651 C35.1142374,26.5225255 34.7559092,27.1197394 34.1665487,27.2670795 L30.8337843,28.1002706 L31.6669754,31.433035 C31.8143155,32.0223954 31.4559872,32.6196093 30.8666268,32.7669494 C30.2772663,32.9142895 29.6800525,32.5559612 29.5327124,31.9666007 L28.6995213,28.6338363 L22.0339924,30.3002185 L22.8671835,33.6329829 C23.0145237,34.2223434 22.6561954,34.8195572 22.0668349,34.9668973 C21.4774745,35.1142374 20.8802606,34.7559092 20.7329205,34.1665487 L19.8997294,30.8337843 L16.566965,31.6669754 C15.9776046,31.8143155 15.3803907,31.4559872 15.2330506,30.8666268 C15.0857105,30.2772663 15.4440388,29.6800525 16.0333993,29.5327124 L19.3661637,28.6995213 L17.6997815,22.0339924 Z M28.1659555,26.4995733 L26.4995733,19.8340445 L19.8340445,21.5004267 L21.5004267,28.1659555 L28.1659555,26.4995733 Z" id="Slack"></path>
                    </g>
                </g>
            </g>
        </g>
    </g>
</svg>