<?xml version="1.0" encoding="UTF-8"?>
<svg width="43px" height="45px" viewBox="0 0 43 45" version="1.1" xmlns="http://www.w3.org/2000/svg" xmlns:xlink="http://www.w3.org/1999/xlink">
    <!-- Generator: Sketch 44.1 (41455) - http://www.bohemiancoding.com/sketch -->
    <title>5</title>
    <desc>Created with Sketch.</desc>
    <defs></defs>
    <g id="Page-1" stroke="none" stroke-width="1" fill="none" fill-rule="evenodd">
        <g id="Users" transform="translate(-435.000000, -49.000000)">
            <g id="5" transform="translate(432.000000, 48.000000)">
                <path d="M48,24 C48,37.255 37.255,48 24,48 C10.745,48 0,37.255 0,24 C0,10.745 10.745,0 24,0 C37.255,0 48,10.745 48,24" id="Fill-1"></path>
                <path d="M3.251475,23.49585 C4.229475,9.7466 14.399975,0.27035 24.613975,2.0001 C34.807725,3.72985 44.856975,13.40335 45.976475,23.27635 C47.101725,33.0991 38.053975,42.57535 24.613975,44.7721 C11.194225,46.9691 2.267975,37.2956 3.251475,23.49585" id="Fill-3" fill="#C67DFF"></path>
                <path d="M24,31 C21.243,31 19,28.757 19,26 C19,25.44775 19.44775,25 20,25 C20.55225,25 21,25.44775 21,26 C21,27.65425 22.34575,29 24,29 C25.65425,29 27,27.65425 27,26 C27,25.44775 27.44775,25 28,25 C28.55225,25 29,25.44775 29,26 C29,28.757 26.757,31 24,31" id="Fill-5" fill="#34414F"></path>
                <path d="M32,22 C32,20.8955 32.8955,20 34,20 C35.1045,20 36,20.8955 36,22 C36,23.1045 35.1045,24 34,24 C32.8955,24 32,23.1045 32,22" id="Fill-7" fill="#34414F"></path>
                <path d="M12,22 C12,20.8955 12.8955,20 14,20 C15.1045,20 16,20.8955 16,22 C16,23.1045 15.1045,24 14,24 C12.8955,24 12,23.1045 12,22" id="Fill-9" fill="#34414F"></path>
            </g>
        </g>
    </g>
</svg>