<?xml version="1.0" encoding="UTF-8"?>
<svg width="46px" height="42px" viewBox="0 0 46 42" version="1.1" xmlns="http://www.w3.org/2000/svg" xmlns:xlink="http://www.w3.org/1999/xlink">
    <!-- Generator: Sketch 44.1 (41455) - http://www.bohemiancoding.com/sketch -->
    <title>1</title>
    <desc>Created with Sketch.</desc>
    <defs></defs>
    <g id="Page-1" stroke="none" stroke-width="1" fill="none" fill-rule="evenodd">
        <g id="Users" transform="translate(-49.000000, -52.000000)">
            <g id="1" transform="translate(48.000000, 48.000000)">
                <path d="M48,24 C48,37.255 37.255,48 24,48 C10.745,48 0,37.255 0,24 C0,10.745 10.745,0 24,0 C37.255,0 48,10.745 48,24" id="Fill-1"></path>
                <path d="M1.886475,23.85035 C4.257975,12.98885 12.986475,3.9951 23.999975,4.0001 C35.013475,3.9951 43.741975,12.98885 46.113475,23.85035 C48.413975,34.3276 38.508475,45.09535 23.999975,45.4161 C9.491475,45.09535 -0.414025,34.32785 1.886475,23.85035" id="Fill-3" fill="#FA6452"></path>
                <path d="M24,31 C21.243,31 19,28.757 19,26 C19,25.44775 19.44775,25 20,25 C20.55225,25 21,25.44775 21,26 C21,27.65425 22.34575,29 24,29 C25.65425,29 27,27.65425 27,26 C27,25.44775 27.44775,25 28,25 C28.55225,25 29,25.44775 29,26 C29,28.757 26.757,31 24,31" id="Fill-5" fill="#34414F"></path>
                <path d="M12,22 C12,20.8955 12.8955,20 14,20 C15.1045,20 16,20.8955 16,22 C16,23.1045 15.1045,24 14,24 C12.8955,24 12,23.1045 12,22" id="Fill-7" fill="#34414F"></path>
                <path d="M32,22 C32,20.8955 32.8955,20 34,20 C35.1045,20 36,20.8955 36,22 C36,23.1045 35.1045,24 34,24 C32.8955,24 32,23.1045 32,22" id="Fill-9" fill="#34414F"></path>
            </g>
        </g>
    </g>
</svg>