<?xml version="1.0" encoding="UTF-8"?>
<svg width="42px" height="41px" viewBox="0 0 42 41" version="1.1" xmlns="http://www.w3.org/2000/svg" xmlns:xlink="http://www.w3.org/1999/xlink">
    <!-- Generator: Sketch 44.1 (41455) - http://www.bohemiancoding.com/sketch -->
    <title>3</title>
    <desc>Created with Sketch.</desc>
    <defs></defs>
    <g id="Page-1" stroke="none" stroke-width="1" fill="none" fill-rule="evenodd">
        <g id="Users" transform="translate(-243.000000, -52.000000)">
            <g id="3" transform="translate(240.000000, 48.000000)">
                <path d="M48,24 C48,37.255 37.255,48 24,48 C10.745,48 0,37.255 0,24 C0,10.745 10.745,0 24,0 C37.255,0 48,10.745 48,24" id="Fill-1"></path>
                <path d="M3.302725,23.770275 C5.157725,14.046025 14.436975,5.480025 23.974475,4.279775 C33.502225,3.100775 42.753225,11.864025 44.697225,24.210025 C46.642225,36.544775 37.354225,45.783775 24.016225,44.350775 C10.687975,42.918525 1.447225,33.483525 3.302725,23.770275" id="Fill-3" fill="#52DE96"></path>
                <path d="M24,31 C21.243,31 19,28.757 19,26 C19,25.44775 19.44775,25 20,25 C20.55225,25 21,25.44775 21,26 C21,27.65425 22.34575,29 24,29 C25.65425,29 27,27.65425 27,26 C27,25.44775 27.44775,25 28,25 C28.55225,25 29,25.44775 29,26 C29,28.757 26.757,31 24,31" id="Fill-5" fill="#34414F"></path>
                <path d="M32,22 C32,20.8955 32.8955,20 34,20 C35.1045,20 36,20.8955 36,22 C36,23.1045 35.1045,24 34,24 C32.8955,24 32,23.1045 32,22" id="Fill-7" fill="#34414F"></path>
                <path d="M16,23 C15.44775,23 15,22.55225 15,22 C15,21.4485 14.5515,21 14,21 C13.4485,21 13,21.4485 13,22 C13,22.55225 12.55225,23 12,23 C11.44775,23 11,22.55225 11,22 C11,20.34575 12.34575,19 14,19 C15.65425,19 17,20.34575 17,22 C17,22.55225 16.55225,23 16,23" id="Fill-9" fill="#34414F"></path>
            </g>
        </g>
    </g>
</svg>