<?xml version="1.0" encoding="UTF-8"?>
<svg width="412px" height="385px" viewBox="0 0 412 385" version="1.1" xmlns="http://www.w3.org/2000/svg" xmlns:xlink="http://www.w3.org/1999/xlink">
    <!-- Generator: Sketch 44.1 (41455) - http://www.bohemiancoding.com/sketch -->
    <title>Group 6</title>
    <desc>Created with Sketch.</desc>
    <defs></defs>
    <g id="Page-1" stroke="none" stroke-width="1" fill="none" fill-rule="evenodd">
        <g id="Marketing-Site---Home" transform="translate(-78.000000, -116.000000)">
            <g id="Group-6" transform="translate(78.000000, 116.000000)">
                <path d="M205.861938,1.81048522 C303.756497,17.1951128 400.263365,103.232514 411.014361,191.044296 C421.820575,278.409147 334.931502,362.69218 205.861938,382.230368 C76.9868428,401.77078 -8.73541878,315.733378 0.709515456,192.996558 C10.101631,70.7088913 107.772911,-13.5741424 205.861938,1.81048522 Z" id="Fill-1" fill="#FBFAF7"></path>
                <g id="Group-3" transform="translate(33.000000, 38.000000)">
                    <path d="M336.538462,230.490566 L215.384615,230.490566 L13.4615385,230.490566 C6.02740385,230.490566 0,235.496938 0,241.671743 L0,311.719717 C0,316.682063 3.93329327,321.055301 9.66706731,322.448056 C15.7844952,323.934454 23.2161058,325.530567 26.9230769,325.530567 C33.8608173,325.530567 46.9075721,319.939979 53.8461538,319.939979 C60.7838942,319.939979 73.8314904,325.530567 80.7692308,325.530567 C87.7069712,325.530567 100.754567,319.939979 107.692308,319.939979 C114.630048,319.939979 127.677644,325.530567 134.615385,325.530567 C141.553125,325.530567 154.600721,319.939979 161.538462,319.939979 C168.476202,319.939979 181.523798,325.530567 188.461538,325.530567 C195.399279,325.530567 208.446875,319.939979 215.384615,319.939979 C222.322356,319.939979 235.369952,325.530567 242.307692,325.530567 C249.245433,325.530567 262.293029,319.939979 269.230769,319.939979 C276.16851,319.939979 289.216106,325.530567 296.153846,325.530567 C303.091587,325.530567 316.139183,319.939979 323.076923,319.939979 C325.401563,319.939979 329.190986,320.567522 333.202524,321.402616 C341.727043,323.175532 350,317.869365 350,310.570153 L350,241.671743 C350,235.496938 343.973438,230.490566 336.538462,230.490566" id="Fill-2" fill="#F3F2EE"></path>
                    <path d="M350,303.834135 C350,311.133347 341.727043,316.440213 333.202524,314.666599 C329.190986,313.831505 325.401563,313.203961 323.076923,313.203961 C316.139183,313.203961 303.091587,318.79455 296.153846,318.79455 C289.215264,318.79455 276.16851,313.203961 269.230769,313.203961 C262.293029,313.203961 249.245433,318.79455 242.307692,318.79455 C235.369952,318.79455 215.384615,313.203961 215.384615,313.203961 L215.384615,223.754549 L336.538462,223.754549 C343.973438,223.754549 350,228.76092 350,234.935725 L350,303.834135 Z" id="Fill-4" fill="#F3F2EE"></path>
                    <path d="M215.384615,313.20413 C215.384615,313.20413 195.399279,318.794718 188.461538,318.794718 C181.523798,318.794718 168.476202,313.20413 161.538462,313.20413 C154.600721,313.20413 141.553125,318.794718 134.615385,318.794718 C127.677644,318.794718 114.630048,313.20413 107.692308,313.20413 C100.754567,313.20413 87.7078125,318.794718 80.7692308,318.794718 C73.8314904,318.794718 60.7838942,313.20413 53.8461538,313.20413 C46.9075721,313.20413 33.8608173,318.794718 26.9230769,318.794718 C23.2161058,318.794718 15.7844952,317.198605 9.66706731,315.712207 C3.93329327,314.319452 0,309.946214 0,304.984567 L0,234.935894 C0,228.761089 6.02740385,223.754717 13.4615385,223.754717 L215.384615,223.754717 L215.384615,313.20413 Z" id="Fill-6" fill="#FFFFFF"></path>
                    <path d="M195.192308,286.903302 L20.1923077,286.903302 C18.7981971,286.903302 17.6682692,285.772521 17.6682692,284.377358 C17.6682692,282.982196 18.7981971,281.851415 20.1923077,281.851415 L195.192308,281.851415 C196.586418,281.851415 197.716346,282.982196 197.716346,284.377358 C197.716346,285.772521 196.586418,286.903302 195.192308,286.903302" id="Fill-10" fill="#D6D6D6"></path>
                    <path d="M195.192308,300.375 L20.1923077,300.375 C18.7981971,300.375 17.6682692,299.244219 17.6682692,297.849057 C17.6682692,296.453894 18.7981971,295.323113 20.1923077,295.323113 L195.192308,295.323113 C196.586418,295.323113 197.716346,296.453894 197.716346,297.849057 C197.716346,299.244219 196.586418,300.375 195.192308,300.375" id="Fill-12" fill="#D6D6D6"></path>
                    <path d="M67.3076923,261.643868 L53.8461538,261.643868 C52.4520433,261.643868 51.3221154,260.513087 51.3221154,259.117925 C51.3221154,257.722762 52.4520433,256.591981 53.8461538,256.591981 L67.3076923,256.591981 C68.7018029,256.591981 69.8317308,257.722762 69.8317308,259.117925 C69.8317308,260.513087 68.7018029,261.643868 67.3076923,261.643868" id="Fill-16" fill="#D6D6D6"></path>
                    <path d="M329.807692,264.169811 L235.576923,264.169811 C231.859856,264.169811 228.846154,261.153835 228.846154,257.433962 L228.846154,243.962264 C228.846154,240.242392 231.859856,237.226415 235.576923,237.226415 L329.807692,237.226415 C333.52476,237.226415 336.538462,240.242392 336.538462,243.962264 L336.538462,257.433962 C336.538462,261.153835 333.52476,264.169811 329.807692,264.169811" id="Fill-18" fill="#FFFFFF"></path>
                    <path d="M14.5197837,250.614252 C15.8491106,244.517467 20.7457452,239.468948 26.9229087,239.471474 C33.1000721,239.468948 37.9958654,244.517467 39.3260337,250.614252 C40.6166587,256.49549 35.06125,262.539231 26.9229087,262.719415 C18.78625,262.539231 13.2291587,256.49549 14.5197837,250.614252" id="Fill-20" fill="#52DE96"></path>
                    <path d="M26.9230769,254.627218 C25.3766827,254.627218 24.1188702,253.368456 24.1188702,251.820895 C24.1188702,251.511046 24.3695913,251.259294 24.6792067,251.259294 C24.9896635,251.259294 25.2403846,251.511046 25.2403846,251.820895 C25.2403846,252.7496 25.9950721,253.504857 26.9230769,253.504857 C27.8510817,253.504857 28.6057692,252.7496 28.6057692,251.820895 C28.6057692,251.511046 28.8564904,251.259294 29.1669471,251.259294 C29.4765625,251.259294 29.7272837,251.511046 29.7272837,251.820895 C29.7272837,253.368456 28.4694712,254.627218 26.9230769,254.627218" id="Fill-22" fill="#34414F"></path>
                    <path d="M20.1923077,249.575331 C20.1923077,248.955633 20.6945913,248.452971 21.3138221,248.452971 C21.9338942,248.452971 22.4361779,248.955633 22.4361779,249.575331 C22.4361779,250.195029 21.9338942,250.697692 21.3138221,250.697692 C20.6945913,250.697692 20.1923077,250.195029 20.1923077,249.575331" id="Fill-24" fill="#34414F"></path>
                    <path d="M31.4103966,249.575331 C31.4103966,248.955633 31.9126803,248.452971 32.5319111,248.452971 C33.1511418,248.452971 33.6542668,248.955633 33.6542668,249.575331 C33.6542668,250.195029 33.1511418,250.697692 32.5319111,250.697692 C31.9126803,250.697692 31.4103966,250.195029 31.4103966,249.575331" id="Fill-26" fill="#34414F"></path>
                    <path d="M329.807692,293.639151 L255.769231,293.639151 C254.37512,293.639151 253.245192,292.50837 253.245192,291.113208 C253.245192,289.718045 254.37512,288.587264 255.769231,288.587264 L329.807692,288.587264 C331.201803,288.587264 332.331731,289.718045 332.331731,291.113208 C332.331731,292.50837 331.201803,293.639151 329.807692,293.639151" id="Fill-28" fill="#BCBCBB"></path>
                    <path d="M302.884615,307.110849 L255.769231,307.110849 C254.37512,307.110849 253.245192,305.980068 253.245192,304.584906 C253.245192,303.189743 254.37512,302.058962 255.769231,302.058962 L302.884615,302.058962 C304.278726,302.058962 305.408654,303.189743 305.408654,304.584906 C305.408654,305.980068 304.278726,307.110849 302.884615,307.110849" id="Fill-30" fill="#BCBCBB"></path>
                    <path d="M228.846154,291.113208 C228.846154,287.393335 231.859856,284.377358 235.576923,284.377358 C239.29399,284.377358 242.307692,287.393335 242.307692,291.113208 C242.307692,294.83308 239.29399,297.849057 235.576923,297.849057 C231.859856,297.849057 228.846154,294.83308 228.846154,291.113208" id="Fill-32" fill="#BCBCBB"></path>
                    <path d="M336.538462,209.285284 L13.4615385,209.285284 C6.02740385,209.285284 0,204.029296 0,197.546617 L0,121.245283 L350,121.245283 L350,197.546617 C350,204.029296 343.973438,209.285284 336.538462,209.285284" id="Fill-2" fill="#F3F2EE"></path>
                    <path d="M336.538462,208.550003 L215.384615,208.550003 L215.384615,0 L336.538462,0 C343.973438,0 350,5.83614149 350,13.0343752 L350,195.515628 C350,202.713862 343.973438,208.550003 336.538462,208.550003" id="Fill-4" fill="#F3F2EE"></path>
                    <path d="M215.384615,202.550003 L13.4615385,202.550003 C6.02740385,202.550003 0,196.881768 0,189.890628 L0,12.6593752 C0,5.66823524 6.02740385,0 13.4615385,0 L215.384615,0 L215.384615,202.550003 Z" id="Fill-6" fill="#FFFFFF"></path>
                    <path d="M195.192308,63.1485849 L20.1923077,63.1485849 C18.7981971,63.1485849 17.6682692,62.0178042 17.6682692,60.6226415 C17.6682692,59.2274788 18.7981971,58.0966981 20.1923077,58.0966981 L195.192308,58.0966981 C196.586418,58.0966981 197.716346,59.2274788 197.716346,60.6226415 C197.716346,62.0178042 196.586418,63.1485849 195.192308,63.1485849" id="Fill-10" fill="#D6D6D6"></path>
                    <path d="M195.192308,76.620283 L20.1923077,76.620283 C18.7981971,76.620283 17.6682692,75.4895024 17.6682692,74.0943396 C17.6682692,72.6991769 18.7981971,71.5683962 20.1923077,71.5683962 L195.192308,71.5683962 C196.586418,71.5683962 197.716346,72.6991769 197.716346,74.0943396 C197.716346,75.4895024 196.586418,76.620283 195.192308,76.620283" id="Fill-12" fill="#D6D6D6"></path>
                    <path d="M175,90.0919811 L20.1923077,90.0919811 C18.7981971,90.0919811 17.6682692,88.9612005 17.6682692,87.5660377 C17.6682692,86.170875 18.7981971,85.0400943 20.1923077,85.0400943 L175,85.0400943 C176.394111,85.0400943 177.524038,86.170875 177.524038,87.5660377 C177.524038,88.9612005 176.394111,90.0919811 175,90.0919811" id="Fill-14" fill="#D6D6D6"></path>
                    <path d="M195.192308,173.393868 L20.1923077,173.393868 C18.7981971,173.393868 17.6682692,172.263087 17.6682692,170.867925 C17.6682692,169.472762 18.7981971,168.341981 20.1923077,168.341981 L195.192308,168.341981 C196.586418,168.341981 197.716346,169.472762 197.716346,170.867925 C197.716346,172.263087 196.586418,173.393868 195.192308,173.393868" id="Fill-16" fill="#D6D6D6"></path>
                    <path d="M175,186.865566 L20.1923077,186.865566 C18.7981971,186.865566 17.6682692,185.734785 17.6682692,184.339623 C17.6682692,182.94446 18.7981971,181.813679 20.1923077,181.813679 L175,181.813679 C176.394111,181.813679 177.524038,182.94446 177.524038,184.339623 C177.524038,185.734785 176.394111,186.865566 175,186.865566" id="Fill-18" fill="#D6D6D6"></path>
                    <path d="M15.1479327,27.802638 C13.9725721,20.9868007 20.9961298,15.7252606 26.9234135,15.9972205 C32.2878365,16.2700224 35.9754567,21.5627158 38.6980529,27.7681167 C41.4214904,33.9650979 34.5704087,39.22748 26.9234135,39.5726922 C19.8375962,39.9195884 16.3224519,34.6260531 15.1479327,27.802638" id="Fill-22" fill="#7394FF"></path>
                    <path d="M29.1665264,28.6273585 L24.6796274,28.6273585 C24.370012,28.6273585 24.1184495,28.8782689 24.1184495,29.1889599 C24.1184495,30.7365212 25.3771034,31.995283 26.9226563,31.995283 C28.4690505,31.995283 29.7277043,30.7365212 29.7277043,29.1889599 C29.7277043,28.8782689 29.4761418,28.6273585 29.1665264,28.6273585" id="Fill-24" fill="#34414F"></path>
                    <path d="M22.4357572,27.5045767 C22.1261418,27.5045767 21.8745793,27.2536663 21.8745793,26.9429752 C21.8745793,26.6339682 21.6230168,26.3822158 21.3142428,26.3822158 C21.0046274,26.3822158 20.7530649,26.6339682 20.7530649,26.9429752 C20.7530649,27.2536663 20.5023438,27.5045767 20.191887,27.5045767 C19.8822716,27.5045767 19.6315505,27.2536663 19.6315505,26.9429752 C19.6315505,26.015112 20.386238,25.259013 21.3142428,25.259013 C22.2422476,25.259013 22.9969351,26.015112 22.9969351,26.9429752 C22.9969351,27.2536663 22.7453726,27.5045767 22.4357572,27.5045767" id="Fill-26" fill="#34414F"></path>
                    <path d="M33.6538462,27.5045767 C33.3442308,27.5045767 33.0926683,27.2536663 33.0926683,26.9429752 C33.0926683,26.6339682 32.8411058,26.3822158 32.5323317,26.3822158 C32.2227163,26.3822158 31.9711538,26.6339682 31.9711538,26.9429752 C31.9711538,27.2536663 31.7204327,27.5045767 31.409976,27.5045767 C31.1003606,27.5045767 30.8496394,27.2536663 30.8496394,26.9429752 C30.8496394,26.015112 31.6043269,25.259013 32.5323317,25.259013 C33.4603365,25.259013 34.215024,26.015112 34.215024,26.9429752 C34.215024,27.2536663 33.9634615,27.5045767 33.6538462,27.5045767" id="Fill-28" fill="#34414F"></path>
                    <path d="M87.5,150.714623 L33.6538462,150.714623 C26.2197115,150.714623 20.1923077,145.90791 20.1923077,139.979363 L20.1923077,118.508844 C20.1923077,112.580297 26.2197115,107.773585 33.6538462,107.773585 L87.5,107.773585 C94.9341346,107.773585 100.961538,112.580297 100.961538,118.508844 L100.961538,139.979363 C100.961538,145.90791 94.9341346,150.714623 87.5,150.714623" id="Fill-30" fill="#E86E5A"></path>
                    <path d="M181.730769,150.714623 L127.884615,150.714623 C120.450481,150.714623 114.423077,145.90791 114.423077,139.979363 L114.423077,118.508844 C114.423077,112.580297 120.450481,107.773585 127.884615,107.773585 L181.730769,107.773585 C189.164904,107.773585 195.192308,112.580297 195.192308,118.508844 L195.192308,139.979363 C195.192308,145.90791 189.164904,150.714623 181.730769,150.714623" id="Fill-32" fill="#FFD24A"></path>
                    <path d="M329.807692,40.4150943 L235.576923,40.4150943 C231.859856,40.4150943 228.846154,37.3991179 228.846154,33.6792453 L228.846154,20.2075472 C228.846154,16.4876745 231.859856,13.4716981 235.576923,13.4716981 L329.807692,13.4716981 C333.52476,13.4716981 336.538462,16.4876745 336.538462,20.2075472 L336.538462,33.6792453 C336.538462,37.3991179 333.52476,40.4150943 329.807692,40.4150943" id="Fill-34" fill="#FFFFFF"></path>
                    <path d="M329.807692,69.884434 L255.769231,69.884434 C254.37512,69.884434 253.245192,68.7536533 253.245192,67.3584906 C253.245192,65.9633278 254.37512,64.8325472 255.769231,64.8325472 L329.807692,64.8325472 C331.201803,64.8325472 332.331731,65.9633278 332.331731,67.3584906 C332.331731,68.7536533 331.201803,69.884434 329.807692,69.884434" id="Fill-36" fill="#BCBCBB"></path>
                    <path d="M302.884615,83.3561321 L255.769231,83.3561321 C254.37512,83.3561321 253.245192,82.2253514 253.245192,80.8301887 C253.245192,79.4350259 254.37512,78.3042453 255.769231,78.3042453 L302.884615,78.3042453 C304.278726,78.3042453 305.408654,79.4350259 305.408654,80.8301887 C305.408654,82.2253514 304.278726,83.3561321 302.884615,83.3561321" id="Fill-38" fill="#BCBCBB"></path>
                    <path d="M228.846154,67.3584906 C228.846154,63.6386179 231.859856,60.6226415 235.576923,60.6226415 C239.29399,60.6226415 242.307692,63.6386179 242.307692,67.3584906 C242.307692,71.0783632 239.29399,74.0943396 235.576923,74.0943396 C231.859856,74.0943396 228.846154,71.0783632 228.846154,67.3584906" id="Fill-40" fill="#BCBCBB"></path>
                    <path d="M316.346154,110.299528 L255.769231,110.299528 C254.37512,110.299528 253.245192,109.168748 253.245192,107.773585 C253.245192,106.378422 254.37512,105.247642 255.769231,105.247642 L316.346154,105.247642 C317.740264,105.247642 318.870192,106.378422 318.870192,107.773585 C318.870192,109.168748 317.740264,110.299528 316.346154,110.299528" id="Fill-42" fill="#BCBCBB"></path>
                    <path d="M323.076923,123.771226 L255.769231,123.771226 C254.37512,123.771226 253.245192,122.640446 253.245192,121.245283 C253.245192,119.85012 254.37512,118.71934 255.769231,118.71934 L323.076923,118.71934 C324.471034,118.71934 325.600962,119.85012 325.600962,121.245283 C325.600962,122.640446 324.471034,123.771226 323.076923,123.771226" id="Fill-44" fill="#BCBCBB"></path>
                    <path d="M228.846154,107.773585 C228.846154,104.053712 231.859856,101.037736 235.576923,101.037736 C239.29399,101.037736 242.307692,104.053712 242.307692,107.773585 C242.307692,111.493458 239.29399,114.509434 235.576923,114.509434 C231.859856,114.509434 228.846154,111.493458 228.846154,107.773585" id="Fill-46" fill="#BCBCBB"></path>
                    <path d="M323.076923,150.714623 L255.769231,150.714623 C254.37512,150.714623 253.245192,149.583842 253.245192,148.188679 C253.245192,146.793517 254.37512,145.662736 255.769231,145.662736 L323.076923,145.662736 C324.471034,145.662736 325.600962,146.793517 325.600962,148.188679 C325.600962,149.583842 324.471034,150.714623 323.076923,150.714623" id="Fill-48" fill="#BCBCBB"></path>
                    <path d="M309.615385,164.186321 L255.769231,164.186321 C254.37512,164.186321 253.245192,163.05554 253.245192,161.660377 C253.245192,160.265215 254.37512,159.134434 255.769231,159.134434 L309.615385,159.134434 C311.009495,159.134434 312.139423,160.265215 312.139423,161.660377 C312.139423,163.05554 311.009495,164.186321 309.615385,164.186321" id="Fill-50" fill="#BCBCBB"></path>
                    <path d="M228.846154,148.188679 C228.846154,144.468807 231.859856,141.45283 235.576923,141.45283 C239.29399,141.45283 242.307692,144.468807 242.307692,148.188679 C242.307692,151.908552 239.29399,154.924528 235.576923,154.924528 C231.859856,154.924528 228.846154,151.908552 228.846154,148.188679" id="Fill-52" fill="#BCBCBB"></path>
                    <path d="M188.461538,33.6792453 L181.730769,33.6792453 C178.013702,33.6792453 175,30.6632689 175,26.9433962 C175,23.2235236 178.013702,20.2075472 181.730769,20.2075472 L188.461538,20.2075472 C192.178606,20.2075472 195.192308,23.2235236 195.192308,26.9433962 C195.192308,30.6632689 192.178606,33.6792453 188.461538,33.6792453" id="Fill-54" fill="#52DE96"></path>
                    <text id="Key-Challenges" font-family="Avenir-Heavy, Avenir" font-size="16" font-weight="600" letter-spacing="0.203174606" fill="#637282">
                        <tspan x="47.9567308" y="246.928738">Key Challenges</tspan>
                    </text>
                    <text id="Highlights" font-family="Avenir-Heavy, Avenir" font-size="16" font-weight="600" letter-spacing="0.203174606" fill="#637282">
                        <tspan x="47.9567308" y="34.2768978">Highlights</tspan>
                    </text>
                </g>
            </g>
        </g>
    </g>
</svg>