<?xml version="1.0" encoding="UTF-8"?>
<svg width="355px" height="350px" viewBox="0 0 355 350" version="1.1" xmlns="http://www.w3.org/2000/svg" xmlns:xlink="http://www.w3.org/1999/xlink">
    <!-- Generator: Sketch 44.1 (41455) - http://www.bohemiancoding.com/sketch -->
    <title>Group 7</title>
    <desc>Created with Sketch.</desc>
    <defs></defs>
    <g id="Page-1" stroke="none" stroke-width="1" fill="none" fill-rule="evenodd">
        <g id="Marketing-Site---Home" transform="translate(-603.000000, -685.000000)">
            <g id="Group-7" transform="translate(603.000000, 685.000000)">
                <path d="M168.472072,0.189287683 C248.538067,-3.31210478 340.84388,41.461214 353.051102,159.615491 C365.258325,277.769768 289.572977,346.723753 168.472072,349.548652 C63.7049786,355.704984 -4.93588778,299.142358 0.277714434,163.903438 C15.7456154,0.189287683 60.7820505,0.145251848 168.472072,0.189287683 Z" id="Mask" fill="#FBFAF7"></path>
                <g id="Group-4" transform="translate(22.000000, 25.000000)">
                    <g id="Group">
                        <path d="M294.5,293.996581 L15.5,293.996581 C6.940125,293.996581 0,287.069287 0,278.523077 L0,139.261538 L155,54.157265 L310,139.261538 L310,278.523077 C310,287.069287 303.059875,293.996581 294.5,293.996581" id="Back" fill="#BCBCBB"></path>
                        <g id="Letter" transform="translate(31.000000, 0.000000)">
                            <path d="M248,247.576068 L0,247.576068 L0,15.4735043 C0,6.92826154 6.940125,0 15.5,0 L232.5,0 C241.059875,0 248,6.92826154 248,15.4735043 L248,247.576068 Z" id="Fill-6" fill="#FFFFFF"></path>
                            <path d="M224.75,72.5320513 L23.25,72.5320513 C21.6447812,72.5320513 20.34375,71.233244 20.34375,69.6307692 C20.34375,68.0282944 21.6447812,66.7294872 23.25,66.7294872 L224.75,66.7294872 C226.355219,66.7294872 227.65625,68.0282944 227.65625,69.6307692 C227.65625,71.233244 226.355219,72.5320513 224.75,72.5320513" id="Fill-10" fill="#D6D6D6"></path>
                            <path d="M224.75,88.0055556 L23.25,88.0055556 C21.6447812,88.0055556 20.34375,86.7067483 20.34375,85.1042735 C20.34375,83.5017987 21.6447812,82.2029915 23.25,82.2029915 L224.75,82.2029915 C226.355219,82.2029915 227.65625,83.5017987 227.65625,85.1042735 C227.65625,86.7067483 226.355219,88.0055556 224.75,88.0055556" id="Fill-12" fill="#D6D6D6"></path>
                            <path d="M201.5,103.47906 L23.25,103.47906 C21.6447812,103.47906 20.34375,102.179285 20.34375,100.577778 C20.34375,98.9762701 21.6447812,97.6764957 23.25,97.6764957 L201.5,97.6764957 C203.105219,97.6764957 204.40625,98.9762701 204.40625,100.577778 C204.40625,102.179285 203.105219,103.47906 201.5,103.47906" id="Fill-14" fill="#D6D6D6"></path>
                            <path d="M224.75,211.79359 L23.25,211.79359 C21.6447812,211.79359 20.34375,210.493815 20.34375,208.892308 C20.34375,207.2908 21.6447812,205.991026 23.25,205.991026 L224.75,205.991026 C226.355219,205.991026 227.65625,207.2908 227.65625,208.892308 C227.65625,210.493815 226.355219,211.79359 224.75,211.79359" id="Fill-16" fill="#D6D6D6"></path>
                            <path d="M201.5,227.267094 L23.25,227.267094 C21.6447812,227.267094 20.34375,225.96732 20.34375,224.365812 C20.34375,222.764304 21.6447812,221.46453 23.25,221.46453 L201.5,221.46453 C203.105219,221.46453 204.40625,222.764304 204.40625,224.365812 C204.40625,225.96732 203.105219,227.267094 201.5,227.267094" id="Fill-18" fill="#D6D6D6"></path>
                            <path d="M100.75,185.682051 L38.75,185.682051 C30.190125,185.682051 23.25,178.754757 23.25,170.208547 L23.25,139.261538 C23.25,130.715329 30.190125,123.788034 38.75,123.788034 L100.75,123.788034 C109.309875,123.788034 116.25,130.715329 116.25,139.261538 L116.25,170.208547 C116.25,178.754757 109.309875,185.682051 100.75,185.682051" id="Fill-30" fill="#C67DFF"></path>
                            <path d="M209.25,185.682051 L147.25,185.682051 C138.690125,185.682051 131.75,178.754757 131.75,170.208547 L131.75,139.261538 C131.75,130.715329 138.690125,123.788034 147.25,123.788034 L209.25,123.788034 C217.809875,123.788034 224.75,130.715329 224.75,139.261538 L224.75,170.208547 C224.75,178.754757 217.809875,185.682051 209.25,185.682051" id="Fill-32" fill="#FFD24A"></path>
                            <path d="M217,38.6837607 L209.25,38.6837607 C204.970062,38.6837607 201.5,35.2196299 201.5,30.9470085 C201.5,26.6743872 204.970062,23.2102564 209.25,23.2102564 L217,23.2102564 C221.279937,23.2102564 224.75,26.6743872 224.75,30.9470085 C224.75,35.2196299 221.279937,38.6837607 217,38.6837607" id="Fill-34" fill="#52DE96"></path>
                        </g>
                        <g id="Front" transform="translate(0.000000, 139.261538)">
                            <path d="M15.5,162.471795 C6.940125,162.471795 0,155.5445 0,146.998291 L0,7.73675214 L155,87.8582248 L310,7.73675214 L310,146.998291 C310,155.5445 303.059875,162.471795 294.5,162.471795 L15.5,162.471795 Z" id="Fill-2" fill="#F3F2EE"></path>
                            <path d="M155,77.3675214 L0,0 L0,139.261538 C0,147.807748 6.940125,154.735043 15.5,154.735043 L294.5,154.735043 C303.059875,154.735043 310,147.807748 310,139.261538 L310,0 L155,77.3675214 Z" id="Fill-36" fill="#F3F2EE"></path>
                            <path d="M155,77.3675214 L6.21646875,151.631638 C8.80690625,153.571629 12.0134688,154.735043 15.5,154.735043 L294.5,154.735043 C297.986531,154.735043 301.193094,153.571629 303.783531,151.631638 L155,77.3675214 Z" id="Fill-38" fill="#FFFFFF"></path>
                            <path d="M237.8754,83.1833347 C237.311588,82.9318902 236.686744,82.9077129 236.115181,83.114671 C235.500025,83.3380697 235.002087,83.8196825 234.748275,84.4357214 L234.552587,84.9134659 L234.095337,84.6736265 C233.505369,84.3641565 232.813681,84.3148347 232.197556,84.5382334 C231.625994,84.7461586 231.162931,85.1658774 230.893619,85.7209894 C230.312369,86.9192188 230.801587,88.4008069 231.984431,89.0207141 C231.988306,89.0226483 231.992181,89.0245825 231.995087,89.0265167 L236.606338,91.2595368 C236.692556,91.3011218 236.787494,91.303056 236.869838,91.2730761 C236.952181,91.2430962 237.023869,91.1812022 237.062619,91.0931966 L239.159963,86.4230996 C239.1619,86.4201983 239.162869,86.41633 239.164806,86.4124616 C239.671463,85.1784496 239.093119,83.7297428 237.8754,83.1833347" id="Fill-40" fill="#BCBCBB"></path>
                            <path d="M249.328738,95.0387468 C247.875613,92.11909 244.686488,90.5378912 240.883175,91.2680472 C240.883175,91.2680472 239.276988,91.4527622 237.708581,92.0223806 C236.142112,92.5919989 234.791675,93.4817254 234.791675,93.4817254 C229.993456,96.1180237 229.135144,101.561796 232.854175,105.582973 L242.295613,115.791617 C246.011738,119.808926 249.240581,118.640676 249.500206,113.173694 L249.956488,103.564648 L245.073988,105.341199 C245.073988,105.341199 248.719394,101.631427 249.461456,99.0038323 C249.981675,97.159584 249.601925,95.7292519 249.328738,95.0387468" id="Fill-42" fill="#D6D6D6"></path>
                            <path d="M240.25,72.5320513 C224.758719,72.5320513 212.15625,85.1139444 212.15625,100.577778 C212.15625,116.041611 224.758719,128.623504 240.25,128.623504 C255.741281,128.623504 268.34375,116.041611 268.34375,100.577778 C268.34375,85.1139444 255.741281,72.5320513 240.25,72.5320513 M240.25,134.426068 C221.554094,134.426068 206.34375,119.241725 206.34375,100.577778 C206.34375,81.9138303 221.554094,66.7294872 240.25,66.7294872 C258.945906,66.7294872 274.15625,81.9138303 274.15625,100.577778 C274.15625,119.241725 258.945906,134.426068 240.25,134.426068" id="Fill-44" fill="#BCBCBB"></path>
                            <path d="M252.271897,125.920573 C248.624553,127.650704 244.549991,128.623601 240.249709,128.623601 C226.680428,128.623601 215.326678,118.968134 212.719772,106.178316 L206.443241,103.045898 C207.715209,120.559971 222.385959,134.426165 240.249709,134.426165 C246.985428,134.426165 253.263897,132.446524 258.546491,129.052024 L252.271897,125.920573 Z" id="Fill-46" fill="#D6D6D6"></path>
                        </g>
                    </g>
                    <text id="Staying-in-touch!" font-family="Avenir-Heavy, Avenir" font-size="16" font-weight="600" letter-spacing="0.2031746" fill="#637282">
                        <tspan x="51.34375" y="44.2514017">Staying in touch!</tspan>
                    </text>
                </g>
            </g>
        </g>
    </g>
</svg>