<?xml version="1.0" encoding="UTF-8"?>
<svg width="416px" height="424px" viewBox="0 0 416 424" version="1.1" xmlns="http://www.w3.org/2000/svg" xmlns:xlink="http://www.w3.org/1999/xlink">
    <!-- Generator: Sketch 44.1 (41455) - http://www.bohemiancoding.com/sketch -->
    <title>Group</title>
    <desc>Created with Sketch.</desc>
    <defs></defs>
    <g id="Page-1" stroke="none" stroke-width="1" fill="none" fill-rule="evenodd">
        <g id="Marketing-Site---Home" transform="translate(-64.000000, -110.000000)">
            <g id="Group" transform="translate(64.000000, 110.000000)">
                <g id="Topic">
                    <g id="2" transform="translate(0.000000, 280.000000)">
                        <path d="M400,8 L256,8 L16,8 C7.164,8 0,15.164 0,24 L0,124.237 C0,131.338 4.675,137.596 11.49,139.589 C18.761,141.716 27.594,144 32,144 C40.246,144 55.753,136 64,136 C72.246,136 87.754,144 96,144 C104.246,144 119.754,136 128,136 C136.246,136 151.754,144 160,144 C168.246,144 183.754,136 192,136 C200.246,136 215.754,144 224,144 C232.246,144 247.754,136 256,136 C264.246,136 279.754,144 288,144 C296.246,144 311.754,136 320,136 C328.246,136 343.754,144 352,144 C360.246,144 375.754,136 384,136 C386.763,136 391.267,136.898 396.035,138.093 C406.167,140.63 416,133.037 416,122.592 L416,24 C416,15.164 408.837,8 400,8" id="Fill-2" fill="#F3F2EE"></path>
                        <path d="M416,114.5918 C416,125.0368 406.167,132.6308 396.035,130.0928 C391.267,128.8978 386.763,127.9998 384,127.9998 C375.754,127.9998 360.246,135.9998 352,135.9998 C343.753,135.9998 328.246,127.9998 320,127.9998 C311.754,127.9998 296.246,135.9998 288,135.9998 C279.754,135.9998 256,127.9998 256,127.9998 L256,-0.0002 L400,-0.0002 C408.837,-0.0002 416,7.1638 416,15.9998 L416,114.5918 Z" id="Fill-4" fill="#F3F2EE"></path>
                        <path d="M256,128 C256,128 232.246,136 224,136 C215.754,136 200.246,128 192,128 C183.754,128 168.246,136 160,136 C151.754,136 136.246,128 128,128 C119.754,128 104.247,136 96,136 C87.754,136 72.246,128 64,128 C55.753,128 40.246,136 32,136 C27.594,136 18.761,133.716 11.49,131.589 C4.675,129.596 0,123.338 0,116.238 L0,16 C0,7.164 7.164,0 16,0 L256,0 L256,128 Z" id="Fill-6" fill="#FFFFFF"></path>
                        <path d="M232,75 L24,75 C22.343,75 21,73.657 21,72 C21,70.343 22.343,69 24,69 L232,69 C233.657,69 235,70.343 235,72 C235,73.657 233.657,75 232,75" id="Fill-10" fill="#D6D6D6"></path>
                        <path d="M232,91 L24,91 C22.343,91 21,89.657 21,88 C21,86.343 22.343,85 24,85 L232,85 C233.657,85 235,86.343 235,88 C235,89.657 233.657,91 232,91" id="Fill-12" fill="#D6D6D6"></path>
                        <path d="M208,107 L24,107 C22.343,107 21,105.657 21,104 C21,102.343 22.343,101 24,101 L208,101 C209.657,101 211,102.343 211,104 C211,105.657 209.657,107 208,107" id="Fill-14" fill="#D6D6D6"></path>
                        <path d="M80,45 L64,45 C62.343,45 61,43.657 61,42 C61,40.343 62.343,39 64,39 L80,39 C81.657,39 83,40.343 83,42 C83,43.657 81.657,45 80,45" id="Fill-16" fill="#D6D6D6"></path>
                        <path d="M392,48 L280,48 C275.582,48 272,44.418 272,40 L272,24 C272,19.582 275.582,16 280,16 L392,16 C396.418,16 400,19.582 400,24 L400,40 C400,44.418 396.418,48 392,48" id="Fill-18" fill="#FFFFFF"></path>
                        <path d="M17.2578,31.9004 C18.8378,24.6594 24.6578,18.6634 31.9998,18.6664 C39.3418,18.6634 45.1608,24.6594 46.7418,31.9004 C48.2758,38.8854 41.6728,46.0634 31.9998,46.2774 C22.3288,46.0634 15.7238,38.8854 17.2578,31.9004" id="Fill-20" fill="#52DE96"></path>
                        <path d="M32,36.6665 C30.162,36.6665 28.667,35.1715 28.667,33.3335 C28.667,32.9655 28.965,32.6665 29.333,32.6665 C29.702,32.6665 30,32.9655 30,33.3335 C30,34.4365 30.897,35.3335 32,35.3335 C33.103,35.3335 34,34.4365 34,33.3335 C34,32.9655 34.298,32.6665 34.667,32.6665 C35.035,32.6665 35.333,32.9655 35.333,33.3335 C35.333,35.1715 33.838,36.6665 32,36.6665" id="Fill-22" fill="#34414F"></path>
                        <path d="M24,30.6665 C24,29.9305 24.597,29.3335 25.333,29.3335 C26.07,29.3335 26.667,29.9305 26.667,30.6665 C26.667,31.4025 26.07,31.9995 25.333,31.9995 C24.597,31.9995 24,31.4025 24,30.6665" id="Fill-24" fill="#34414F"></path>
                        <path d="M37.3335,30.6665 C37.3335,29.9305 37.9305,29.3335 38.6665,29.3335 C39.4025,29.3335 40.0005,29.9305 40.0005,30.6665 C40.0005,31.4025 39.4025,31.9995 38.6665,31.9995 C37.9305,31.9995 37.3335,31.4025 37.3335,30.6665" id="Fill-26" fill="#34414F"></path>
                        <path d="M392,83 L304,83 C302.343,83 301,81.657 301,80 C301,78.343 302.343,77 304,77 L392,77 C393.657,77 395,78.343 395,80 C395,81.657 393.657,83 392,83" id="Fill-28" fill="#BCBCBB"></path>
                        <path d="M360,99 L304,99 C302.343,99 301,97.657 301,96 C301,94.343 302.343,93 304,93 L360,93 C361.657,93 363,94.343 363,96 C363,97.657 361.657,99 360,99" id="Fill-30" fill="#BCBCBB"></path>
                        <path d="M272,80 C272,75.582 275.582,72 280,72 C284.418,72 288,75.582 288,80 C288,84.418 284.418,88 280,88 C275.582,88 272,84.418 272,80" id="Fill-32" fill="#BCBCBB"></path>
                    </g>
                    <g id="1">
                        <path d="M400,264 L16,264 C7.164,264 0,256.836 0,248 L0,144 L416,144 L416,248 C416,256.836 408.837,264 400,264" id="Fill-2" fill="#F3F2EE"></path>
                        <path d="M400,256 L256,256 L256,0 L400,0 C408.837,0 416,7.164 416,16 L416,240 C416,248.836 408.837,256 400,256" id="Fill-4" fill="#F3F2EE"></path>
                        <path d="M256,256 L16,256 C7.164,256 0,248.836 0,240 L0,16 C0,7.164 7.164,0 16,0 L256,0 L256,256 Z" id="Fill-6" fill="#FFFFFF"></path>
                        <path d="M232,75 L24,75 C22.343,75 21,73.657 21,72 C21,70.343 22.343,69 24,69 L232,69 C233.657,69 235,70.343 235,72 C235,73.657 233.657,75 232,75" id="Fill-10" fill="#D6D6D6"></path>
                        <path d="M232,91 L24,91 C22.343,91 21,89.657 21,88 C21,86.343 22.343,85 24,85 L232,85 C233.657,85 235,86.343 235,88 C235,89.657 233.657,91 232,91" id="Fill-12" fill="#D6D6D6"></path>
                        <path d="M208,107 L24,107 C22.343,107 21,105.657 21,104 C21,102.343 22.343,101 24,101 L208,101 C209.657,101 211,102.343 211,104 C211,105.657 209.657,107 208,107" id="Fill-14" fill="#D6D6D6"></path>
                        <path d="M232,219 L24,219 C22.343,219 21,217.657 21,216 C21,214.343 22.343,213 24,213 L232,213 C233.657,213 235,214.343 235,216 C235,217.657 233.657,219 232,219" id="Fill-16" fill="#D6D6D6"></path>
                        <path d="M208,235 L24,235 C22.343,235 21,233.657 21,232 C21,230.343 22.343,229 24,229 L208,229 C209.657,229 211,230.343 211,232 C211,233.657 209.657,235 208,235" id="Fill-18" fill="#D6D6D6"></path>
                        <g id="Group-3" transform="translate(17.000000, 18.000000)">
                            <path d="M1.0044,15.0205 C-0.3926,6.9255 7.9554,0.6765 15.0004,0.9995 C21.3764,1.3235 25.7594,7.6095 28.9954,14.9795 C32.2324,22.3395 24.0894,28.5895 15.0004,28.9995 C6.5784,29.4115 2.4004,23.1245 1.0044,15.0205" id="Fill-22" fill="#7394FF"></path>
                            <path d="M17.6665,16 L12.3335,16 C11.9655,16 11.6665,16.298 11.6665,16.667 C11.6665,18.505 13.1625,20 14.9995,20 C16.8375,20 18.3335,18.505 18.3335,16.667 C18.3335,16.298 18.0345,16 17.6665,16" id="Fill-24" fill="#34414F"></path>
                            <path d="M9.6665,14.6665 C9.2985,14.6665 8.9995,14.3685 8.9995,13.9995 C8.9995,13.6325 8.7005,13.3335 8.3335,13.3335 C7.9655,13.3335 7.6665,13.6325 7.6665,13.9995 C7.6665,14.3685 7.3685,14.6665 6.9995,14.6665 C6.6315,14.6665 6.3335,14.3685 6.3335,13.9995 C6.3335,12.8975 7.2305,11.9995 8.3335,11.9995 C9.4365,11.9995 10.3335,12.8975 10.3335,13.9995 C10.3335,14.3685 10.0345,14.6665 9.6665,14.6665" id="Fill-26" fill="#34414F"></path>
                            <path d="M23,14.6665 C22.632,14.6665 22.333,14.3685 22.333,13.9995 C22.333,13.6325 22.034,13.3335 21.667,13.3335 C21.299,13.3335 21,13.6325 21,13.9995 C21,14.3685 20.702,14.6665 20.333,14.6665 C19.965,14.6665 19.667,14.3685 19.667,13.9995 C19.667,12.8975 20.564,11.9995 21.667,11.9995 C22.77,11.9995 23.667,12.8975 23.667,13.9995 C23.667,14.3685 23.368,14.6665 23,14.6665" id="Fill-28" fill="#34414F"></path>
                        </g>
                        <path d="M104,192 L40,192 C31.164,192 24,184.836 24,176 L24,144 C24,135.164 31.164,128 40,128 L104,128 C112.836,128 120,135.164 120,144 L120,176 C120,184.836 112.836,192 104,192" id="Fill-30" fill="#E86E5A"></path>
                        <path d="M216,192 L152,192 C143.164,192 136,184.836 136,176 L136,144 C136,135.164 143.164,128 152,128 L216,128 C224.836,128 232,135.164 232,144 L232,176 C232,184.836 224.836,192 216,192" id="Fill-32" fill="#FFD24A"></path>
                        <path d="M392,48 L280,48 C275.582,48 272,44.418 272,40 L272,24 C272,19.582 275.582,16 280,16 L392,16 C396.418,16 400,19.582 400,24 L400,40 C400,44.418 396.418,48 392,48" id="Fill-34" fill="#FFFFFF"></path>
                        <path d="M392,83 L304,83 C302.343,83 301,81.657 301,80 C301,78.343 302.343,77 304,77 L392,77 C393.657,77 395,78.343 395,80 C395,81.657 393.657,83 392,83" id="Fill-36" fill="#BCBCBB"></path>
                        <path d="M360,99 L304,99 C302.343,99 301,97.657 301,96 C301,94.343 302.343,93 304,93 L360,93 C361.657,93 363,94.343 363,96 C363,97.657 361.657,99 360,99" id="Fill-38" fill="#BCBCBB"></path>
                        <path d="M272,80 C272,75.582 275.582,72 280,72 C284.418,72 288,75.582 288,80 C288,84.418 284.418,88 280,88 C275.582,88 272,84.418 272,80" id="Fill-40" fill="#BCBCBB"></path>
                        <path d="M376,131 L304,131 C302.343,131 301,129.657 301,128 C301,126.343 302.343,125 304,125 L376,125 C377.657,125 379,126.343 379,128 C379,129.657 377.657,131 376,131" id="Fill-42" fill="#BCBCBB"></path>
                        <path d="M384,147 L304,147 C302.343,147 301,145.657 301,144 C301,142.343 302.343,141 304,141 L384,141 C385.657,141 387,142.343 387,144 C387,145.657 385.657,147 384,147" id="Fill-44" fill="#BCBCBB"></path>
                        <path d="M272,128 C272,123.582 275.582,120 280,120 C284.418,120 288,123.582 288,128 C288,132.418 284.418,136 280,136 C275.582,136 272,132.418 272,128" id="Fill-46" fill="#BCBCBB"></path>
                        <path d="M384,179 L304,179 C302.343,179 301,177.657 301,176 C301,174.343 302.343,173 304,173 L384,173 C385.657,173 387,174.343 387,176 C387,177.657 385.657,179 384,179" id="Fill-48" fill="#BCBCBB"></path>
                        <path d="M368,195 L304,195 C302.343,195 301,193.657 301,192 C301,190.343 302.343,189 304,189 L368,189 C369.657,189 371,190.343 371,192 C371,193.657 369.657,195 368,195" id="Fill-50" fill="#BCBCBB"></path>
                        <path d="M272,176 C272,171.582 275.582,168 280,168 C284.418,168 288,171.582 288,176 C288,180.418 284.418,184 280,184 C275.582,184 272,180.418 272,176" id="Fill-52" fill="#BCBCBB"></path>
                        <path d="M224,40 L216,40 C211.582,40 208,36.418 208,32 C208,27.582 211.582,24 216,24 L224,24 C228.418,24 232,27.582 232,32 C232,36.418 228.418,40 224,40" id="Fill-54" fill="#52DE96"></path>
                    </g>
                </g>
                <text id="Key-Challenges" font-family="Avenir-Heavy, Avenir" font-size="16" font-weight="600" letter-spacing="0.203174606" fill="#637282">
                    <tspan x="57" y="309">Key Challenges</tspan>
                </text>
                <text id="Highlights" font-family="Avenir-Heavy, Avenir" font-size="16" font-weight="600" letter-spacing="0.203174606" fill="#637282">
                    <tspan x="57" y="38">Highlights</tspan>
                </text>
            </g>
        </g>
    </g>
</svg>