<?xml version="1.0" encoding="UTF-8"?>
<svg width="320px" height="408px" viewBox="0 0 320 408" version="1.1" xmlns="http://www.w3.org/2000/svg" xmlns:xlink="http://www.w3.org/1999/xlink">
    <!-- Generator: Sketch 44.1 (41455) - http://www.bohemiancoding.com/sketch -->
    <title>Group 2</title>
    <desc>Created with Sketch.</desc>
    <defs></defs>
    <g id="Page-1" stroke="none" stroke-width="1" fill="none" fill-rule="evenodd">
        <g id="Marketing-Site---Home" transform="translate(-64.000000, -667.000000)">
            <g id="Group-2" transform="translate(64.000000, 667.000000)">
                <path d="M320,399.033471 C320,403.435923 314.852,406.594632 309.721,405.341019 C302.246,403.51489 292.653,401.418955 288,401.418955 C279.754,401.418955 264.246,407.9996 256,407.9996 C247.754,407.9996 232.246,401.418955 224,401.418955 C215.754,401.418955 200.246,407.9996 192,407.9996 C183.754,407.9996 168.246,401.418955 160,401.418955 C151.754,401.418955 136.246,407.9996 128,407.9996 C119.754,407.9996 104.246,401.418955 96,401.418955 C87.754,401.418955 72.246,407.9996 64,407.9996 C55.754,407.9996 40.246,401.418955 32,401.418955 C27.347,401.418955 17.754,403.51489 10.279,405.341019 C5.148,406.594632 0,403.435923 0,399.033471 L0,13.1608903 C0,5.89256774 7.163,-0.0004 16,-0.0004 L304,-0.0004 C312.837,-0.0004 320,5.89256774 320,13.1608903 L320,399.033471 Z" id="Fill-2" fill="#F3F2EE"></path>
                <path d="M320,391.209277 C320,395.525406 314.852,398.622181 309.721,397.393148 C302.246,395.602826 292.653,393.547987 288,393.547987 C279.754,393.547987 264.246,399.9996 256,399.9996 C247.754,399.9996 232.246,393.547987 224,393.547987 C215.754,393.547987 200.246,399.9996 192,399.9996 C183.754,399.9996 168.246,393.547987 160,393.547987 C151.754,393.547987 136.246,399.9996 128,399.9996 C119.754,399.9996 104.246,393.547987 96,393.547987 C87.754,393.547987 72.246,399.9996 64,399.9996 C55.754,399.9996 40.246,393.547987 32,393.547987 C27.347,393.547987 17.754,395.602826 10.279,397.393148 C5.148,398.622181 0,395.525406 0,391.209277 L0,12.9028258 C0,5.77701935 7.163,-0.0004 16,-0.0004 L304,-0.0004 C312.837,-0.0004 320,5.77701935 320,12.9028258 L320,391.209277 Z" id="Fill-4" fill="#FFFFFF"></path>
                <path d="M59,62 L27,62 C25.343,62 24,60.657 24,59 C24,57.343 25.343,56 27,56 L59,56 C60.657,56 62,57.343 62,59 C62,60.657 60.657,62 59,62" id="Fill-11" fill="#BCBCBB"></path>
                <path d="M296,114 L24,114 C22.343,114 21,112.657 21,111 C21,109.343 22.343,108 24,108 L296,108 C297.657,108 299,109.343 299,111 C299,112.657 297.657,114 296,114" id="Fill-8" fill="#D6D6D6"></path>
                <path d="M296,226 L24,226 C22.343,226 21,224.657 21,223 C21,221.343 22.343,220 24,220 L296,220 C297.657,220 299,221.343 299,223 C299,224.657 297.657,226 296,226" id="Fill-10" fill="#D6D6D6"></path>
                <path d="M272,242 L24,242 C22.343,242 21,240.657 21,239 C21,237.343 22.343,236 24,236 L272,236 C273.657,236 275,237.343 275,239 C275,240.657 273.657,242 272,242" id="Fill-12" fill="#D6D6D6"></path>
                <path d="M280,199 L40,199 C31.163,199 24,191.836 24,183 L24,151 C24,142.164 31.163,135 40,135 L280,135 C288.837,135 296,142.164 296,151 L296,183 C296,191.836 288.837,199 280,199" id="Fill-16" fill="#FFD24A"></path>
                <path d="M48,87 L32,87 C27.582,87 24,83.418 24,79 C24,74.582 27.582,71 32,71 L48,71 C52.418,71 56,74.582 56,79 C56,83.418 52.418,87 48,87" id="Fill-18" fill="#7394FF"></path>
                <path d="M88,87 L72,87 C67.582,87 64,83.418 64,79 C64,74.582 67.582,71 72,71 L88,71 C92.418,71 96,74.582 96,79 C96,83.418 92.418,87 88,87" id="Fill-20" fill="#7394FF"></path>
                <path d="M280,359 L40,359 C31.163,359 24,351.836 24,343 L24,279 C24,270.164 31.163,263 40,263 L280,263 C288.837,263 296,270.164 296,279 L296,343 C296,351.836 288.837,359 280,359" id="Fill-30" fill="#F3F2EE"></path>
                <path d="M56,287 C56,291.418 52.418,295 48,295 C43.582,295 40,291.418 40,287 C40,282.582 43.582,279 48,279 C52.418,279 56,282.582 56,287" id="Fill-32" fill="#C67DFF"></path>
                <path d="M144,290 L72,290 C70.343,290 69,288.657 69,287 C69,285.343 70.343,284 72,284 L144,284 C145.657,284 147,285.343 147,287 C147,288.657 145.657,290 144,290" id="Fill-34" fill="#BCBCBB"></path>
                <path d="M272,322 L48,322 C46.343,322 45,320.657 45,319 C45,317.343 46.343,316 48,316 L272,316 C273.657,316 275,317.343 275,319 C275,320.657 273.657,322 272,322" id="Fill-36" fill="#BCBCBB"></path>
                <path d="M272,338 L48,338 C46.343,338 45,336.657 45,335 C45,333.343 46.343,332 48,332 L272,332 C273.657,332 275,333.343 275,335 C275,336.657 273.657,338 272,338" id="Fill-38" fill="#BCBCBB"></path>
                <text id="Investor-Update" font-family="Avenir-Heavy, Avenir" font-size="16" font-weight="600" letter-spacing="0.203174606" fill="#637282">
                    <tspan x="24" y="46">Investor Update</tspan>
                </text>
            </g>
        </g>
    </g>
</svg>