<?xml version="1.0" encoding="UTF-8"?>
<svg width="19px" height="16px" viewBox="0 0 19 16" version="1.1" xmlns="http://www.w3.org/2000/svg" xmlns:xlink="http://www.w3.org/1999/xlink">
    <!-- Generator: Sketch 47.1 (45422) - http://www.bohemiancoding.com/sketch -->
    <title>Twitter</title>
    <desc>Created with Sketch.</desc>
    <defs></defs>
    <g id="ðŸ -Highlevel-Pages" stroke="none" stroke-width="1" fill="none" fill-rule="evenodd">
        <g id="Home" transform="translate(-130.000000, -3996.000000)" fill="#00AAEC">
            <g id="Group-14" transform="translate(0.000000, 1347.000000)">
                <path d="M146.761754,2651.52972 C147.566943,2651.03048 148.184774,2650.23886 148.475847,2649.29585 C147.721958,2649.75811 146.888889,2650.0944 145.998943,2650.27468 C145.289664,2649.49 144.275929,2649 143.154018,2649 C141.002759,2649 139.25744,2650.8086 139.25744,2653.039 C139.25744,2653.35565 139.290896,2653.66306 139.357809,2653.9589 C136.118096,2653.79018 133.246405,2652.18382 131.322651,2649.73731 C130.98697,2650.33593 130.795152,2651.03048 130.795152,2651.7701 C130.795152,2653.17075 131.483242,2654.4073 132.529319,2655.13189 C131.891413,2655.11224 131.289194,2654.92849 130.76281,2654.62802 L130.76281,2654.67772 C130.76281,2656.63539 132.10665,2658.26833 133.891002,2658.63814 C133.564243,2658.7329 133.21964,2658.78028 132.863884,2658.78028 C132.61296,2658.78028 132.367612,2658.75601 132.13007,2658.70863 C132.626343,2660.31268 134.064976,2661.48104 135.771263,2661.51224 C134.43746,2662.59624 132.755708,2663.24225 130.930093,2663.24225 C130.615601,2663.24225 130.304455,2663.22376 130,2663.18678 C131.725245,2664.33088 133.775019,2665 135.975348,2665 C143.146211,2665 147.066209,2658.84615 147.066209,2653.5082 C147.066209,2653.33254 147.062863,2653.15688 147.056172,2652.98469 C147.817867,2652.41495 148.479192,2651.70423 149,2650.89411 C148.301872,2651.21538 147.550214,2651.43265 146.761754,2651.52972 Z" id="Twitter"></path>
            </g>
        </g>
    </g>
</svg>