<?xml version="1.0" encoding="UTF-8"?>
<svg width="444px" height="414px" viewBox="0 0 444 414" version="1.1" xmlns="http://www.w3.org/2000/svg" xmlns:xlink="http://www.w3.org/1999/xlink">
    <!-- Generator: Sketch 44.1 (41455) - http://www.bohemiancoding.com/sketch -->
    <title>Group 5</title>
    <desc>Created with Sketch.</desc>
    <defs></defs>
    <g id="Page-1" stroke="none" stroke-width="1" fill="none" fill-rule="evenodd">
        <g id="Marketing-Site---Home" transform="translate(-46.000000, -685.000000)">
            <g id="Group-5" transform="translate(46.000000, 685.000000)">
                <path d="M205.916265,0.192951907 C303.777533,-3.37622038 427.388224,46.634772 442.308594,167.076275 C457.228964,287.517778 353.932763,410.807917 205.916265,413.6875 C77.8638922,419.963007 -6.03292619,304.933144 0.339438568,167.076275 C19.2451975,0.192951907 74.2913212,0.148063628 205.916265,0.192951907 Z" id="Mask" fill="#FBFAF7"></path>
                <g id="Group-2" transform="translate(59.000000, 19.000000)">
                    <path d="M310,369.692745 C310,373.771487 305.012875,376.697939 300.042219,375.536503 C292.800813,373.844648 283.507594,371.902826 279,371.902826 C271.011687,371.902826 255.988313,377.9996 248,377.9996 C240.011687,377.9996 224.988313,371.902826 217,371.902826 C209.011687,371.902826 193.988313,377.9996 186,377.9996 C178.011687,377.9996 162.988313,371.902826 155,371.902826 C147.011687,371.902826 131.988313,377.9996 124,377.9996 C116.011687,377.9996 100.988313,371.902826 93,371.902826 C85.0116875,371.902826 69.9883125,377.9996 62,377.9996 C54.0116875,377.9996 38.9883125,371.902826 31,371.902826 C26.4924062,371.902826 17.1991875,373.844648 9.95778125,375.536503 C4.987125,376.697939 0,373.771487 0,369.692745 L0,12.1931484 C0,5.45926129 6.93915625,-0.0004 15.5,-0.0004 L294.5,-0.0004 C303.060844,-0.0004 310,5.45926129 310,12.1931484 L310,369.692745 Z" id="Fill-2" fill="#F3F2EE"></path>
                    <path d="M310,361.868943 C310,365.861366 305.012875,368.725886 300.042219,367.58903 C292.800813,365.932979 283.507594,364.032252 279,364.032252 C271.011687,364.032252 255.988313,370 248,370 C240.011687,370 224.988313,364.032252 217,364.032252 C209.011687,364.032252 193.988313,370 186,370 C178.011687,370 162.988313,364.032252 155,364.032252 C147.011687,364.032252 131.988313,370 124,370 C116.011687,370 100.988313,364.032252 93,364.032252 C85.0116875,364.032252 69.9883125,370 62,370 C54.0116875,370 38.9883125,364.032252 31,364.032252 C26.4924062,364.032252 17.1991875,365.932979 9.95778125,367.58903 C4.987125,368.725886 0,365.861366 0,361.868943 L0,11.9350968 C0,5.34371868 6.93915625,-0.0004 15.5,-0.0004 L294.5,-0.0004 C303.060844,-0.0004 310,5.34371868 310,11.9350968 L310,361.868943 Z" id="Fill-4" fill="#FFFFFF"></path>
                    <path d="M57.15625,62 L26.15625,62 C24.5510313,62 23.25,60.657 23.25,59 C23.25,57.343 24.5510313,56 26.15625,56 L57.15625,56 C58.7614687,56 60.0625,57.343 60.0625,59 C60.0625,60.657 58.7614687,62 57.15625,62" id="Fill-11" fill="#BCBCBB"></path>
                    <path d="M286.75,114 L23.25,114 C21.6447813,114 20.34375,112.657 20.34375,111 C20.34375,109.343 21.6447813,108 23.25,108 L286.75,108 C288.355219,108 289.65625,109.343 289.65625,111 C289.65625,112.657 288.355219,114 286.75,114" id="Fill-8" fill="#D6D6D6"></path>
                    <path d="M286.75,208 L23.25,208 C21.6447813,208 20.34375,206.657 20.34375,205 C20.34375,203.343 21.6447813,202 23.25,202 L286.75,202 C288.355219,202 289.65625,203.343 289.65625,205 C289.65625,206.657 288.355219,208 286.75,208" id="Fill-10" fill="#D6D6D6"></path>
                    <path d="M263.5,223 L23.25,223 C21.6447813,223 20.34375,221.657 20.34375,220 C20.34375,218.343 21.6447813,217 23.25,217 L263.5,217 C265.105219,217 266.40625,218.343 266.40625,220 C266.40625,221.657 265.105219,223 263.5,223" id="Fill-12" fill="#D6D6D6"></path>
                    <path d="M271.25,184 L38.75,184 C30.1891563,184 23.25,178.515062 23.25,171.75 L23.25,147.25 C23.25,140.484938 30.1891563,135 38.75,135 L271.25,135 C279.810844,135 286.75,140.484938 286.75,147.25 L286.75,171.75 C286.75,178.515062 279.810844,184 271.25,184" id="Fill-16" fill="#FFD24A"></path>
                    <path d="M46.5,87 L31,87 C26.7200625,87 23.25,83.418 23.25,79 C23.25,74.582 26.7200625,71 31,71 L46.5,71 C50.7799375,71 54.25,74.582 54.25,79 C54.25,83.418 50.7799375,87 46.5,87" id="Fill-18" fill="#7394FF"></path>
                    <path d="M85.25,87 L69.75,87 C65.4700625,87 62,83.418 62,79 C62,74.582 65.4700625,71 69.75,71 L85.25,71 C89.5299375,71 93,74.582 93,79 C93,83.418 89.5299375,87 85.25,87" id="Fill-20" fill="#7394FF"></path>
                    <path d="M271.25,340 L38.75,340 C30.1891563,340 23.25,332.836 23.25,324 L23.25,260 C23.25,251.164 30.1891563,244 38.75,244 L271.25,244 C279.810844,244 286.75,251.164 286.75,260 L286.75,324 C286.75,332.836 279.810844,340 271.25,340" id="Fill-30" fill="#F3F2EE"></path>
                    <path d="M54.25,268 C54.25,272.418 50.7799375,276 46.5,276 C42.2200625,276 38.75,272.418 38.75,268 C38.75,263.582 42.2200625,260 46.5,260 C50.7799375,260 54.25,263.582 54.25,268" id="Fill-32" fill="#C67DFF"></path>
                    <path d="M139.5,271 L69.75,271 C68.1447812,271 66.84375,269.657 66.84375,268 C66.84375,266.343 68.1447812,265 69.75,265 L139.5,265 C141.105219,265 142.40625,266.343 142.40625,268 C142.40625,269.657 141.105219,271 139.5,271" id="Fill-34" fill="#BCBCBB"></path>
                    <path d="M263.5,303 L46.5,303 C44.8947813,303 43.59375,301.657 43.59375,300 C43.59375,298.343 44.8947813,297 46.5,297 L263.5,297 C265.105219,297 266.40625,298.343 266.40625,300 C266.40625,301.657 265.105219,303 263.5,303" id="Fill-36" fill="#BCBCBB"></path>
                    <path d="M263.5,319 L46.5,319 C44.8947813,319 43.59375,317.657 43.59375,316 C43.59375,314.343 44.8947813,313 46.5,313 L263.5,313 C265.105219,313 266.40625,314.343 266.40625,316 C266.40625,317.657 265.105219,319 263.5,319" id="Fill-38" fill="#BCBCBB"></path>
                    <text id="Investor-Update" font-family="Avenir-Heavy, Avenir" font-size="16" font-weight="600" letter-spacing="0.203174606" fill="#637282">
                        <tspan x="23.25" y="46">Investor Update</tspan>
                    </text>
                </g>
            </g>
        </g>
    </g>
</svg>