<?xml version="1.0" encoding="UTF-8"?>
<svg width="16px" height="14px" viewBox="0 0 16 14" version="1.1" xmlns="http://www.w3.org/2000/svg" xmlns:xlink="http://www.w3.org/1999/xlink">
    <!-- Generator: Sketch 44.1 (41455) - http://www.bohemiancoding.com/sketch -->
    <title>Twitter-color</title>
    <desc>Created with Sketch.</desc>
    <defs></defs>
    <g id="Symbols" stroke="none" stroke-width="1" fill="none" fill-rule="evenodd">
        <g id="footer-big" transform="translate(-132.000000, -170.000000)" fill="#FFFFFF">
            <g id="social-icons">
                <g transform="translate(132.000000, 169.000000)">
                    <path d="M16,2.65734922 C15.4121031,2.93846154 14.7791278,3.12856627 14.1151611,3.21350668 C14.7932148,2.77667028 15.3134942,2.08400144 15.5586077,1.25886602 C14.9237542,1.66334417 14.2222222,1.95760202 13.4727945,2.1153485 C12.8755063,1.42874684 12.0218348,1 11.0770676,1 C9.26548101,1 7.79573869,2.58252077 7.79573869,4.53412784 C7.79573869,4.81119538 7.82391266,5.08017335 7.88026061,5.33903936 C5.15208077,5.19140484 2.73381464,3.78584326 1.11381112,1.64514265 C0.831132242,2.16894186 0.669601456,2.77667028 0.669601456,3.42383532 C0.669601456,4.64940412 1.24904619,5.73138317 2.12995246,6.36540267 C1.59276868,6.34821235 1.08563714,6.18743229 0.642366614,5.92452149 L0.642366614,5.96800289 C0.642366614,7.68096786 1.77402125,9.10978693 3.27663321,9.43336945 C3.00146739,9.51628747 2.71127546,9.55774648 2.4116922,9.55774648 C2.20038739,9.55774648 1.99377825,9.53651138 1.79374303,9.49505237 C2.21165698,10.8985915 3.42313788,11.9209101 4.86001057,11.9482124 C3.73680812,12.8967136 2.32059635,13.4619718 0.783236485,13.4619718 C0.518401127,13.4619718 0.256383166,13.4457927 0,13.4134345 C1.45283794,14.4145179 3.17896343,15 5.03187181,15 C11.0704936,15 14.3715443,9.61538462 14.3715443,4.94467317 C14.3715443,4.79097147 14.3687269,4.63726977 14.3630921,4.48660166 C15.0045196,3.98808234 15.5614251,3.36619718 16,2.65734922" id="Twitter"></path>
                </g>
            </g>
        </g>
    </g>
</svg>