<?xml version="1.0" encoding="UTF-8"?>
<svg width="22px" height="19px" viewBox="0 0 22 19" version="1.1" xmlns="http://www.w3.org/2000/svg" xmlns:xlink="http://www.w3.org/1999/xlink">
    <!-- Generator: Sketch 52.6 (67491) - http://www.bohemiancoding.com/sketch -->
    <title>Shape</title>
    <desc>Created with Sketch.</desc>
    <g id="Inbox/unread" stroke="none" stroke-width="1" fill="none" fill-rule="evenodd">
        <g id="Inbox-mobile:-Empty" transform="translate(-35.000000, -746.000000)" fill="#34414F" fill-rule="nonzero">
            <g id="App-dock-Copy" transform="translate(0.000000, 733.000000)">
                <g id="Group-2" transform="translate(35.000000, 12.000000)">
                    <path d="M3.66131578,12.7619048 C2.99438211,12.7619048 2.44444444,12.2242898 2.44444444,11.5611078 L2.44444444,4.6134954 C2.44444444,3.95447708 2.98925611,3.41269841 3.66131578,3.41269841 L18.3386842,3.41269841 C19.0056179,3.41269841 19.5555556,3.95031337 19.5555556,4.6134954 L19.5555556,11.5611078 C19.5555556,12.2201261 19.0107439,12.7619048 18.3386842,12.7619048 L14.6666667,12.7619048 C14.6666667,14.7606493 13.0250438,16.3809524 11,16.3809524 C8.97495622,16.3809524 7.33333333,14.7606493 7.33333333,12.7619048 L3.66131578,12.7619048 Z M0,3.40677463 L0,17.5932254 C0,18.9224503 1.09098367,20 2.43844272,20 L19.5615573,20 C20.908272,20 22,18.923185 22,17.5932254 L22,3.40677463 C22,2.07754971 20.9090163,1 19.5615573,1 L2.43844272,1 C1.091728,1 0,2.07681505 0,3.40677463 Z" id="Shape"></path>
                </g>
            </g>
        </g>
    </g>
</svg>