<?xml version="1.0" encoding="UTF-8"?>
<svg width="14px" height="14px" viewBox="0 0 14 14" version="1.1" xmlns="http://www.w3.org/2000/svg" xmlns:xlink="http://www.w3.org/1999/xlink">
    <!-- Generator: Sketch 52.6 (67491) - http://www.bohemiancoding.com/sketch -->
    <title>Combined Shape</title>
    <desc>Created with Sketch.</desc>
    <g id="Inbox/unread" stroke="none" stroke-width="1" fill="none" fill-rule="evenodd">
        <g id="Inbox:-FoC-(hover)" transform="translate(-1056.000000, -165.000000)" fill="#34414F">
            <path d="M1057,169 L1063,169 C1063.55228,169 1064,169.447715 1064,170 C1064,170.552285 1063.55228,171 1063,171 L1057,171 C1056.44772,171 1056,170.552285 1056,170 C1056,169.447715 1056.44772,169 1057,169 Z M1057,165 L1067,165 C1067.55228,165 1068,165.447715 1068,166 C1068,166.552285 1067.55228,167 1067,167 L1057,167 C1056.44772,167 1056,166.552285 1056,166 C1056,165.447715 1056.44772,165 1057,165 Z M1068.21894,169.299605 C1068.62624,168.900132 1069.29533,168.900132 1069.70263,169.299605 C1070.09912,169.688469 1070.09912,170.311531 1069.70263,170.700395 L1061.54577,178.700395 C1061.13846,179.099868 1060.46938,179.099868 1060.06207,178.700395 L1056.29737,175.008087 C1055.90088,174.619223 1055.90088,173.996161 1056.29737,173.607298 C1056.70467,173.207824 1057.37376,173.207824 1057.78106,173.607298 L1060.80392,176.572022 L1068.21894,169.299605 Z" id="Combined-Shape"></path>
        </g>
    </g>
</svg>