<?xml version="1.0" encoding="UTF-8"?>
<svg width="14px" height="14px" viewBox="0 0 14 14" version="1.1" xmlns="http://www.w3.org/2000/svg" xmlns:xlink="http://www.w3.org/1999/xlink">
    <!-- Generator: Sketch 52.6 (67491) - http://www.bohemiancoding.com/sketch -->
    <title>Combined Shape</title>
    <desc>Created with Sketch.</desc>
    <g id="Inbox/unread" stroke="none" stroke-width="1" fill="none" fill-rule="evenodd">
        <g id="Inbox:-FoC-(hover)" transform="translate(-188.000000, -473.000000)" fill="#242D42">
            <g id="Group-30" transform="translate(172.000000, 80.000000)">
                <g id="Group-29" transform="translate(0.000000, 144.000000)">
                    <g id="Group-7" transform="translate(0.000000, 240.000000)">
                        <path d="M24.7499883,9 C26.2963883,9 27.5499931,10.2338629 27.5499931,11.7559099 C27.5499931,12.335188 27.4449068,13.1388515 27.2003587,13.9121937 C28.0464875,14.2207136 28.7037603,14.7188978 29.1767496,15.379212 C29.7689908,16.2060071 30,17.1661857 30,18.098877 C30,18.3536381 29.8615562,18.5882791 29.6385436,18.7114904 C29.3657899,18.8621829 28.8933541,19.0763675 28.2598291,19.2877386 C27.7943687,19.4430361 27.3132106,19.5708389 26.8196882,19.6650221 C27.0695232,20.2127611 27.1999934,20.7700738 27.1999934,21.2484882 C27.1999934,21.5187486 27.0443762,21.7648602 26.8002016,21.8807666 C26.4923396,22.0269047 25.9598407,22.2372022 25.2551666,22.4454972 C24.0832014,22.791919 22.8479181,23.0000238 21.5999967,23.0000238 C20.3520753,23.0000238 19.116792,22.791919 17.9448268,22.4454972 C17.2401527,22.2372022 16.7076538,22.0269047 16.3997919,21.8807666 C16.1556172,21.7648602 16,21.5187486 16,21.2484882 C16,20.3995956 16.4025559,19.3146982 17.1505217,18.4669889 C17.6191178,17.935904 18.200162,17.5113722 18.8909483,17.2115259 C18.5817913,16.2833368 18.4499776,15.2983617 18.4499776,14.5993089 C18.4499776,12.8598266 19.8602831,11.4496976 21.599983,11.4496976 C21.7233768,11.4496976 21.8451134,11.4567917 21.9648073,11.4705943 C22.1098534,10.0826087 23.3014696,9 24.7499883,9 Z M18.2003619,19.3930706 C17.8161162,19.8285567 17.5628652,20.3542068 17.4567159,20.8051097 C17.7224953,20.9065892 18.0190968,21.0077352 18.3417256,21.1031012 C19.393322,21.4139431 20.4988984,21.6001965 21.5999967,21.6001965 C22.701095,21.6001965 23.8066714,21.4139431 24.8582678,21.1031012 C25.1804575,21.007865 25.4766906,20.9068645 25.742192,20.8055241 C25.6352534,20.3582023 25.3819369,19.8335976 24.9990645,19.3985948 C24.6622561,19.015928 24.2408378,18.7068251 23.7267962,18.4861818 C23.233391,19.2795959 22.5397187,19.848661 21.599983,19.848661 C20.6595496,19.848661 19.9655451,19.2787507 19.4720711,18.4844143 C18.957878,18.70412 18.5366433,19.0119451 18.2003619,19.3930706 Z M21.599983,18.4488338 C22.4710148,18.4488338 23.349986,16.5076428 23.349986,14.5993089 C23.349986,13.6329299 22.5664829,12.8495249 21.599983,12.8495249 C20.633483,12.8495249 19.84998,13.6329299 19.84998,14.5993089 C19.84998,16.5076428 20.7289512,18.4488338 21.599983,18.4488338 Z" id="Combined-Shape"></path>
                    </g>
                </g>
            </g>
        </g>
    </g>
</svg>