<?xml version="1.0" encoding="UTF-8"?>
<svg width="16px" height="12px" viewBox="0 0 16 12" version="1.1" xmlns="http://www.w3.org/2000/svg" xmlns:xlink="http://www.w3.org/1999/xlink">
    <!-- Generator: Sketch 48.1 (47250) - http://www.bohemiancoding.com/sketch -->
    <title>ic_person_add_black_24px</title>
    <desc>Created with Sketch.</desc>
    <defs></defs>
    <g id="Main-Menu-(m)" stroke="none" stroke-width="1" fill="none" fill-rule="evenodd" transform="translate(-39.000000, -572.000000)" opacity="0.5">
        <g id="Group-3" transform="translate(24.000000, 140.000000)">
            <g id="Group-2" transform="translate(15.000000, 427.000000)">
                <g id="ic_person_add_black_24px" transform="translate(0.000000, 3.000000)">
                    <polygon id="Shape" points="0 0 16 0 16 16 0 16"></polygon>
                    <path d="M10,8 C11.4733333,8 12.6666667,6.80666667 12.6666667,5.33333333 C12.6666667,3.86 11.4733333,2.66666667 10,2.66666667 C8.52666667,2.66666667 7.33333333,3.86 7.33333333,5.33333333 C7.33333333,6.80666667 8.52666667,8 10,8 Z M4,6.66666667 L4,4.66666667 L2.66666667,4.66666667 L2.66666667,6.66666667 L0.666666667,6.66666667 L0.666666667,8 L2.66666667,8 L2.66666667,10 L4,10 L4,8 L6,8 L6,6.66666667 L4,6.66666667 Z M10,9.33333333 C8.22,9.33333333 4.66666667,10.2266667 4.66666667,12 L4.66666667,13.3333333 L15.3333333,13.3333333 L15.3333333,12 C15.3333333,10.2266667 11.78,9.33333333 10,9.33333333 Z" id="Shape" fill="#FFFFFF" fill-rule="nonzero"></path>
                </g>
            </g>
        </g>
    </g>
</svg>