<?xml version="1.0" encoding="UTF-8"?>
<svg width="16px" height="16px" viewBox="0 0 16 16" version="1.1" xmlns="http://www.w3.org/2000/svg" xmlns:xlink="http://www.w3.org/1999/xlink">
    <!-- Generator: Sketch 50.2 (55047) - http://www.bohemiancoding.com/sketch -->
    <title>Combined Shape Copy 3</title>
    <desc>Created with Sketch.</desc>
    <defs></defs>
    <g id="Home" stroke="none" stroke-width="1" fill="none" fill-rule="evenodd">
        <g id="Home---June-14" transform="translate(-841.000000, -1916.000000)" fill="#3FBD7C">
            <g id="Group-2" transform="translate(160.000000, 1774.000000)">
                <g id="Group" transform="translate(681.000000, 139.000000)">
                    <path d="M8,19 C3.581722,19 0,15.418278 0,11 C0,6.581722 3.581722,3 8,3 C12.418278,3 16,6.581722 16,11 C16,15.418278 12.418278,19 8,19 Z M8,17.4 C11.5346224,17.4 14.4,14.5346224 14.4,11 C14.4,7.4653776 11.5346224,4.6 8,4.6 C4.4653776,4.6 1.6,7.4653776 1.6,11 C1.6,14.5346224 4.4653776,17.4 8,17.4 Z M6.23431458,13.9656854 L3.83431458,11.5656854 C3.52189514,11.253266 3.52189514,10.746734 3.83431458,10.4343146 C4.14673401,10.1218951 4.65326599,10.1218951 4.96568542,10.4343146 L6.8,12.2798956 L10.6343146,8.43431458 C10.946734,8.12189514 11.453266,8.12189514 11.7656854,8.43431458 C12.0781049,8.74673401 12.0781049,9.25326599 11.7656854,9.56568542 L7.36568542,13.9656854 C7.05326599,14.2781049 6.54673401,14.2781049 6.23431458,13.9656854 Z" id="Combined-Shape-Copy-3"></path>
                </g>
            </g>
        </g>
    </g>
</svg>