<?xml version="1.0" encoding="UTF-8"?>
<svg width="16px" height="16px" viewBox="0 0 16 16" version="1.1" xmlns="http://www.w3.org/2000/svg" xmlns:xlink="http://www.w3.org/1999/xlink">
    <!-- Generator: Sketch 50.2 (55047) - http://www.bohemiancoding.com/sketch -->
    <title>Combined Shape Copy 3</title>
    <desc>Created with Sketch.</desc>
    <defs></defs>
    <g id="Home" stroke="none" stroke-width="1" fill="none" fill-rule="evenodd">
        <g id="Home---June-14" transform="translate(-841.000000, -1916.000000)" fill="#3FBD7C">
            <g id="Group-2" transform="translate(160.000000, 1774.000000)">
                <g id="Group" transform="translate(681.000000, 139.000000)">
                    <path d="M8,19 C3.581722,19 0,15.418278 0,11 C0,6.581722 3.581722,3 8,3 C12.418278,3 16,6.581722 16,11 C16,15.418278 12.418278,19 8,19 Z M8.5,18 C12.0898509,18 15,15.0898509 15,11.5 C15,7.91014913 12.0898509,5 8.5,5 C4.91014913,5 2,7.91014913 2,11.5 C2,15.0898509 4.91014913,18 8.5,18 Z M6.50887102,13.7656854 L4.22315674,11.3656854 C3.92561442,11.053266 3.92561442,10.546734 4.22315674,10.2343146 C4.52069906,9.92189514 5.00311047,9.92189514 5.30065279,10.2343146 L7.04761905,12.0798956 L10.6993472,8.23431458 C10.9968895,7.92189514 11.4793009,7.92189514 11.7768433,8.23431458 C12.0743856,8.54673401 12.0743856,9.05326599 11.7768433,9.36568542 L7.58636707,13.7656854 C7.28882475,14.0781049 6.80641334,14.0781049 6.50887102,13.7656854 Z" id="Combined-Shape-Copy-3"></path>
                </g>
            </g>
        </g>
    </g>
</svg>