<?xml version="1.0" encoding="UTF-8"?>
<svg width="78px" height="32px" viewBox="0 0 78 32" version="1.1" xmlns="http://www.w3.org/2000/svg" xmlns:xlink="http://www.w3.org/1999/xlink">
    <!-- Generator: Sketch 52.6 (67491) - http://www.bohemiancoding.com/sketch -->
    <title>Combined Shape</title>
    <desc>Created with Sketch.</desc>
    <g id="Website-2.0" stroke="none" stroke-width="1" fill="none" fill-rule="evenodd">
        <g id="Home-(July-2)" transform="translate(-896.000000, -1197.000000)" fill="#314150" fill-rule="nonzero">
            <g id="Group-56" transform="translate(100.000000, 497.000000)">
                <g id="Group-24" transform="translate(208.000000, 681.000000)">
                    <path d="M597.618458,19 C602.929289,19 607.235835,23.2601117 607.236915,28.5153294 L607.236915,41.2038751 C607.236915,46.4590928 602.930369,50.7192045 597.618458,50.7192045 C592.306546,50.7192045 588,46.4590928 588,41.2038751 L588,28.5153294 C588,23.2601117 592.306546,19 597.618458,19 Z M600.851067,41.2022553 L600.851067,28.5137096 C600.851067,26.7621503 599.415912,25.3421131 597.644915,25.3421131 C595.873918,25.3421131 594.438762,26.7621503 594.438762,28.5137096 L594.438762,41.2022553 C594.438762,42.9538145 595.873918,44.3738518 597.644915,44.3738518 C599.415912,44.3738518 600.851067,42.9538145 600.851067,41.2022553 Z M618.53728,19 C623.849191,19 628.155738,23.2601117 628.155738,28.5153294 L628.155738,41.2038751 C628.155738,46.4590928 623.849191,50.7192045 618.53728,50.7192045 C613.225369,50.7192045 608.918822,46.4590928 608.918822,41.2038751 L608.918822,28.5153294 C608.918822,23.2601117 613.225369,19 618.53728,19 Z M621.770429,41.2022553 L621.770429,28.5137096 C621.770429,26.7621503 620.335274,25.3421131 618.564277,25.3421131 C616.79328,25.3421131 615.358124,26.7621503 615.358124,28.5137096 L615.358124,41.2022553 C615.358124,42.9538145 616.79328,44.3738518 618.564277,44.3738518 C620.335274,44.3738518 621.770429,42.9538145 621.770429,41.2022553 Z M642.001371,36.4783367 C642.001371,39.3940025 640.341061,41.4776237 637.407577,41.4776237 C634.511349,41.4776237 632.813784,39.3178713 632.813784,36.4783367 C632.813784,33.6004666 634.548065,31.4601519 637.407577,31.4601519 C640.229834,31.4569122 642.001371,33.6906362 642.001371,36.4783367 Z M634.382304,36.4416209 C634.382304,38.7476966 635.489177,40.1866317 637.405957,40.1866317 C639.322738,40.1866317 640.429611,38.7660545 640.429611,36.4416209 C640.429611,34.1906189 639.248766,32.7516838 637.405957,32.7516838 C635.563149,32.7516838 634.381764,34.1701013 634.381764,36.4394612 L634.382304,36.4416209 Z M646.482857,41.2729872 L643.088266,31.6620887 L644.730218,31.6620887 L647.386713,39.7428026 L650.100442,31.6610089 L651.666263,31.6610089 L648.253314,41.2719073 L646.482857,41.2729872 Z M659.968891,41.2729872 L659.968891,39.7967964 C659.320966,40.8485958 658.197894,41.475464 656.92472,41.475464 C654.323298,41.475464 652.755318,39.4091208 652.755318,36.5128928 C652.755318,33.6166647 654.360554,31.4569122 656.980334,31.4569122 C658.202332,31.4522671 659.337018,32.0896182 659.968891,33.1355798 L659.968891,31.6610089 L661.480718,31.6610089 L661.480718,41.2719073 L659.968891,41.2729872 Z M654.323298,36.4783367 C654.323298,38.7844124 655.282768,40.1866317 657.18497,40.1866317 C658.84528,40.1866317 660.026125,38.9134576 660.026125,36.4416209 C660.026125,33.9697842 658.790206,32.7516838 657.203328,32.7516838 C655.375098,32.7495241 654.323298,34.1884592 654.323298,36.4783367 Z M664.488173,41.2729872 L664.488173,28.3587473 L666,28.3587473 L666,41.2729872 L664.488173,41.2729872 Z" id="Combined-Shape"></path>
                </g>
            </g>
        </g>
    </g>
</svg>