<?xml version="1.0" encoding="UTF-8"?>
<svg width="38px" height="38px" viewBox="0 0 38 38" version="1.1" xmlns="http://www.w3.org/2000/svg" xmlns:xlink="http://www.w3.org/1999/xlink">
    <!-- Generator: Sketch 52.5 (67469) - http://www.bohemiancoding.com/sketch -->
    <title>Combined Shape</title>
    <desc>Created with Sketch.</desc>
    <g id="Website" stroke="none" stroke-width="1" fill="none" fill-rule="evenodd" opacity="0.5">
        <g id="Home-(Slack-lander)" transform="translate(-511.000000, -1513.000000)" fill="#34414F" fill-rule="nonzero">
            <g id="Group-55" transform="translate(235.000000, 1499.000000)">
                <path d="M294.999787,14 C305.493102,14 314,22.5063776 314,33 C314,43.4936224 305.493102,52 294.999787,52 C284.506473,52 276,43.4936224 276,33 C276,22.5063776 284.506473,14 294.999787,14 Z M305.168242,27.1957065 L305.159388,27.1611109 C305.116384,27.0389589 305.084763,26.913817 305.064104,26.7852583 C305.043445,26.6571267 305.06832,26.5170362 305.137464,26.3654138 C305.123551,26.3568717 305.120178,26.3453398 305.128611,26.3312454 C305.040073,26.1232451 304.990744,25.9297664 304.981047,25.749955 C304.96334,25.5846653 304.936778,25.43347 304.902206,25.2967963 C304.867213,25.1601226 304.798912,25.0324181 304.696461,24.9128287 C304.662732,24.873535 304.643338,24.8329599 304.6387,24.7915308 C304.634484,24.7496744 304.629425,24.7176415 304.623522,24.695432 L304.614668,24.6608365 C304.603285,24.6155634 304.593166,24.5754155 304.584312,24.541247 C304.575458,24.5070786 304.565761,24.4673578 304.553956,24.4220847 C304.525287,24.3076204 304.500834,24.2110946 304.480175,24.1312259 C304.459937,24.0513573 304.422836,23.9761867 304.36887,23.9052872 C304.263046,23.628523 304.122649,23.3709785 303.94726,23.1309453 C303.772713,22.8913392 303.597324,22.6607023 303.421091,22.4390347 C303.21661,22.2011371 303.007913,21.9700731 302.795422,21.7458428 C302.698873,21.6497441 302.608227,21.551937 302.523062,21.4524214 C302.437475,21.353333 302.351466,21.2482651 302.262928,21.1372177 L302.220767,21.1120185 L302.136024,21.0616201 L301.902452,20.9219567 C301.650751,20.7323219 301.430249,20.6199932 301.241367,20.5841164 C301.139338,20.5619069 301.049957,20.5273114 300.97238,20.4807569 C300.894804,20.4342024 300.820179,20.3897835 300.74977,20.3475 C300.636357,20.2800174 300.538965,20.2266292 300.457173,20.1869084 C300.374959,20.1476148 300.282205,20.1356558 300.178067,20.1501774 C300.07393,20.1651261 299.982862,20.1493232 299.904864,20.1027687 C299.827709,20.0562142 299.77543,20.0062429 299.749712,19.9520005 C299.522886,19.7196552 299.242093,19.6286818 298.906913,19.6790802 C298.847888,19.6829242 298.792657,19.6786531 298.742064,19.6675484 C298.691471,19.6568708 298.648045,19.6500371 298.610943,19.6470473 C298.583117,19.6303902 298.55782,19.6244108 298.535054,19.6303902 C298.498795,19.6278276 298.460429,19.6197126 298.420797,19.6056181 C298.381588,19.5915237 298.343643,19.5834087 298.306541,19.580846 C298.162772,19.5334373 298.035867,19.5056755 297.925827,19.4979876 C297.815787,19.4898726 297.714601,19.5167802 297.622268,19.5770021 C297.574626,19.625265 297.519817,19.6461931 297.457419,19.6380781 C297.395442,19.6299631 297.346535,19.6244108 297.309434,19.6218481 L297.267273,19.5966489 C297.194334,19.5910965 297.128563,19.5812731 297.070381,19.5658973 C297.013042,19.5505215 296.940525,19.5355729 296.85283,19.5223326 C296.542525,19.4330676 296.289981,19.4074413 296.095619,19.4458807 C295.93878,19.4868828 295.795432,19.5125092 295.665155,19.5214784 C295.536142,19.5313018 295.39406,19.5377084 295.238907,19.5419794 C295.143202,19.5424065 295.056772,19.5436879 294.979196,19.5458234 C294.901619,19.5479589 294.829103,19.5573552 294.761645,19.5748665 C294.553791,19.605191 294.357321,19.6231294 294.172656,19.6282547 C293.987991,19.6338071 293.793207,19.63338 293.587461,19.6256921 C293.506091,19.6350884 293.420504,19.6419221 293.331966,19.6466202 C293.243006,19.6517455 293.158263,19.6590063 293.07647,19.6679755 L292.96643,19.6598605 C292.921739,19.6718195 292.890119,19.6769447 292.871568,19.6760905 C292.853439,19.6748092 292.821818,19.6795073 292.776284,19.6914663 C292.681,19.6923205 292.578127,19.6884766 292.468087,19.6803616 C292.358047,19.6731008 292.25138,19.6765176 292.147242,19.6914663 C291.992511,19.6948831 291.826819,19.6927476 291.650586,19.6842055 C291.474774,19.6752363 291.309082,19.6731008 291.153929,19.6769447 C291.094904,19.6799345 291.037143,19.6889037 290.981069,19.7034252 C290.924995,19.7179468 290.867234,19.7273431 290.807787,19.7303329 C290.763097,19.7422918 290.725573,19.7486984 290.696061,19.7504068 C290.666548,19.7516881 290.629868,19.7589489 290.584334,19.7704808 C290.457851,19.7914089 290.333055,19.8084931 290.210366,19.8221605 C290.088099,19.836255 289.963724,19.8533392 289.837241,19.8738403 C289.778216,19.8772571 289.714553,19.8879347 289.647095,19.9054461 C289.579638,19.9229574 289.516396,19.9332079 289.457371,19.9366247 L289.423642,19.9451668 L289.432074,19.9793353 L289.302218,20.1044771 L289.28957,20.1258324 C289.228015,20.1664074 289.177422,20.2039927 289.138212,20.2385882 C289.003297,20.2736108 288.909278,20.3043624 288.855734,20.3304158 C288.647458,20.3603132 288.503268,20.4277958 288.421897,20.5341451 C288.366245,20.5977838 288.312278,20.6328064 288.259999,20.6400672 C288.208141,20.6477551 288.159656,20.6571514 288.114122,20.6691103 L288.093041,20.6562972 C288.011671,20.6656935 287.937889,20.6695374 287.871275,20.6686832 C287.805082,20.667829 287.742683,20.6686832 287.683236,20.6725272 C287.390639,20.651599 287.138517,20.6742356 286.92729,20.7417182 C286.664627,20.8813817 286.458881,20.9796159 286.310053,21.0377022 C286.255665,21.0590575 286.208445,21.0744333 286.169235,21.0846838 C286.023358,21.1226962 286.240909,21.0842567 286.368235,21.1602814 L286.385943,21.2286183 C286.408288,21.2230659 286.456352,21.2226388 286.52929,21.2277641 C286.624996,21.129957 286.755695,21.0778501 286.921387,21.0710165 C287.087502,21.0641828 287.238438,21.0915175 287.373775,21.1538748 L287.306317,21.1713862 C287.380099,21.1760844 287.44587,21.1773656 287.504895,21.1739488 C287.564342,21.1709591 287.616622,21.1632712 287.661313,21.1517393 C287.720338,21.1483225 287.778942,21.1538748 287.836703,21.1701048 C287.894885,21.1850536 288.138997,21.1064662 288.167245,21.1231233 L288.248615,21.1060391 C288.592649,21.1107372 288.687511,21.2533904 288.520975,21.2696204 C288.354861,21.2858504 288.79207,21.2414315 288.938791,21.328988 L289.106591,21.4985488 L289.469176,21.539551 L289.562352,21.6339412 C289.748703,21.6339412 289.818269,21.8453583 289.741536,21.8496294 C289.664803,21.8539005 289.578795,21.937186 289.483511,21.9312065 C289.261322,21.9726357 289.1087,22.1528741 288.939634,22.1490302 C288.880609,22.1515929 288.829172,22.1503115 288.785325,22.1434778 C288.741899,22.136217 288.690462,22.1345086 288.631015,22.1379255 C288.46195,22.1332273 288.287825,22.1306647 288.107376,22.1289563 C287.926927,22.1272478 287.7469,22.1498844 287.566872,22.196866 C287.578677,22.2421392 287.552959,22.221211 287.585423,22.2182213 C287.620838,22.2152315 287.669745,22.2118147 287.731722,22.2083978 C287.999022,22.1750837 288.18706,22.278016 288.295414,22.517195 C288.337575,22.4450142 288.374255,22.399741 288.404611,22.37924 C288.657999,22.3373837 288.912229,22.310476 289.16646,22.2989442 C289.421534,22.2874123 289.679981,22.3019339 289.942222,22.3433631 C290.125623,22.3557492 290.301434,22.3647184 290.470499,22.3694165 C290.639987,22.3736876 290.814533,22.3527594 290.994139,22.3057779 C291.053164,22.3023611 291.115563,22.310476 291.180069,22.3301228 C291.245418,22.3497697 291.314562,22.3625828 291.387501,22.367281 C291.432613,22.3557492 291.471401,22.3544679 291.503444,22.3642913 C291.536329,22.3741147 291.575117,22.3732605 291.619808,22.3617287 C291.746713,22.3403734 291.827662,22.3412276 291.862655,22.3621558 C291.898071,22.3830839 291.919573,22.5022463 291.926318,22.7192158 C291.971852,22.7072568 292.029191,22.6982877 292.099179,22.6918811 C292.170009,22.6859016 292.241683,22.6854745 292.315043,22.6905997 C292.675941,22.6935895 293.054547,22.6987148 293.451281,22.7042671 C293.84886,22.7102466 294.267097,22.7286121 294.706836,22.7597908 C295.036535,22.7832816 295.370028,22.8089079 295.706473,22.8366698 C296.043339,22.8640045 296.379784,22.9011627 296.714964,22.9477172 L296.846084,22.9682182 C296.919866,22.9729164 296.990697,22.9823127 297.05984,22.9942716 C297.128985,23.0066577 297.200237,23.0156269 297.273175,23.0207521 C297.389118,23.0510766 297.494099,23.0758487 297.588118,23.09336 C297.68298,23.1112985 297.778264,23.1198406 297.873969,23.1189864 C298.155605,23.0942143 298.439348,23.1142882 298.725621,23.1800624 C299.011894,23.2449824 299.289314,23.3090482 299.557036,23.373114 C299.658644,23.3953235 299.756036,23.4243666 299.849212,23.4610977 C299.942387,23.4974017 300.032612,23.5221737 300.119885,23.5362682 C300.258595,23.5610403 300.393932,23.5986256 300.526317,23.6490241 C300.659546,23.6994225 300.797412,23.7485396 300.941603,23.7959483 C301.029298,23.8091886 301.122895,23.8369504 301.223238,23.8770983 C301.323581,23.9181004 301.424346,23.9492791 301.525532,23.9714885 C301.974547,24.0855256 302.37086,24.2888278 302.714894,24.5822492 C303.059349,24.8748162 303.389891,25.1746442 303.707364,25.4804516 C303.948525,25.721339 303.999961,25.9938322 303.86083,26.2970769 C303.827523,26.353882 303.796323,26.4076972 303.766811,26.4580956 C303.73772,26.5084941 303.716639,26.5776851 303.702726,26.6660959 C303.650025,26.7895294 303.604913,26.9650696 303.566968,27.193571 C303.529023,27.4220723 303.476743,27.5937686 303.409707,27.7082328 C302.965752,28.2728661 302.476684,28.8503125 301.942505,29.4388636 C301.886852,29.5020752 301.832886,29.5618699 301.781028,29.6178207 C301.729592,29.6737715 301.668458,29.7292951 301.598049,29.7839647 C301.419287,29.9274721 301.291539,30.0641457 301.216492,30.1931316 C301.085793,30.3853289 300.944976,30.5279821 300.794461,30.6215182 C300.644789,30.7154813 300.489637,30.8013295 300.329425,30.8794897 C300.299069,30.8999908 300.26787,30.9200648 300.237093,30.9401387 C300.206315,30.9602127 300.168792,30.9764427 300.123258,30.9879745 C300.061703,31.0285495 299.994245,31.0699787 299.921307,31.1135435 C299.848368,31.1566811 299.777116,31.2057982 299.706707,31.2608948 C299.611845,31.3578477 299.533426,31.4270388 299.471449,31.4676138 C299.424229,31.5163038 299.378695,31.5615769 299.335269,31.6030061 C299.291843,31.6448625 299.235348,31.6931254 299.164939,31.7477948 C299.120248,31.7597538 299.083568,31.7811091 299.05532,31.8131419 C299.027916,31.8443207 298.991657,31.866103 298.946123,31.8776348 C298.909865,31.8750722 298.883725,31.8789162 298.868125,31.8887396 C298.852947,31.8989901 298.837769,31.8998444 298.823856,31.8913022 C298.782117,31.9630559 298.730259,32.0190067 298.668282,32.0595817 C298.606727,32.0993025 298.545594,32.1403046 298.483617,32.1804525 C298.362615,32.2240173 298.281666,32.2812494 298.239505,32.3534302 C298.218003,32.4563626 298.174577,32.5221368 298.109649,32.5511799 C298.045564,32.579796 297.990755,32.6002971 297.945643,32.612256 C297.908541,32.6216523 297.867223,32.6391636 297.822954,32.6618002 C297.834338,32.5998699 297.846986,32.5383668 297.869331,32.4738738 C297.897579,32.4418409 297.918238,32.4059641 297.932573,32.3653891 C297.934681,32.2304239 297.941848,32.0937501 297.95534,31.9562222 C297.968831,31.8178401 297.986539,31.6726243 298.008463,31.5192935 C298.019003,31.079375 297.79302,31.0042045 297.751702,30.9345863 C297.710385,30.8666766 297.652202,30.8043192 297.578421,30.7500769 C297.542162,30.7197524 297.505904,30.6890008 297.469645,30.6578221 C297.480186,30.6531239 297.491991,30.6484258 297.502109,30.6433005 C297.6463,30.5724011 297.797658,30.5040642 297.955762,30.4378629 C298.048516,30.3844747 298.086461,30.2999079 298.070861,30.1850165 C298.079293,29.9817144 298.090255,29.7959236 298.105011,29.6259357 C298.119768,29.4563749 298.1126,29.2808346 298.083931,29.0988878 C298.050202,28.8212693 298.00509,28.5556098 297.948594,28.3036177 C297.892942,28.0507713 297.805247,27.7966436 297.686353,27.5433703 C297.621003,27.3823515 297.553124,27.2298749 297.483558,27.084232 C297.413993,26.938162 297.327563,26.795936 297.22469,26.6566996 C297.061527,26.4538246 296.93673,26.3402146 296.849879,26.3158696 C296.762606,26.2915246 296.597334,26.3244117 296.354909,26.414958 C296.307267,26.4175206 296.225896,26.4029991 296.109532,26.3705391 C295.816935,26.2424075 295.603178,26.3410688 295.468263,26.6669501 C295.392373,26.8348025 295.283598,27.0334065 295.143202,27.2631891 C295.090501,27.343485 295.042016,27.4203639 294.998168,27.4955344 C294.954742,27.5698508 294.896139,27.6292184 294.821935,27.6715018 C294.67648,27.8047587 294.555478,27.9367342 294.457664,28.0678555 C294.359851,28.1985498 294.321484,28.369819 294.342143,28.580809 C294.345094,28.6282177 294.327808,28.6636675 294.290285,28.6845956 C294.253605,28.7059509 294.225779,28.7217538 294.207228,28.7332856 C294.235897,28.9143782 294.322749,29.0689904 294.467783,29.1966949 C294.612395,29.3226909 294.648232,29.4948144 294.573607,29.7113568 C294.566018,29.7403999 294.582039,29.7681617 294.621249,29.7954965 C294.66088,29.821977 294.70009,29.8488847 294.739721,29.8757923 C294.808865,29.9103878 294.869577,29.9437021 294.923543,29.9744536 C294.977509,30.0047781 295.020513,30.04877 295.052134,30.1047208 C295.058458,30.122232 295.068577,30.1329097 295.075744,30.1487126 C295.00913,30.174766 294.947997,30.2055176 294.895717,30.2452384 C294.783569,30.328951 294.73424,30.4673331 294.746889,30.6599576 C294.808444,30.9986522 294.821514,31.3377737 294.786942,31.6777496 C294.751948,32.0168712 294.728338,32.3534302 294.716111,32.6869994 C294.706836,33.0321005 294.68702,33.370795 294.656243,33.7026558 C294.638957,33.8871653 294.627573,34.0802169 294.61366,34.2694245 C294.596796,34.2766854 294.574872,34.2920611 294.559694,34.2959051 L294.492236,34.3138436 C294.175186,34.4325788 293.863194,34.5504598 293.556262,34.6666325 C293.250173,34.7832322 292.935653,34.8895815 292.612278,34.9856802 C292.600051,34.9895241 292.589089,34.9937952 292.577284,34.9980662 C292.581922,34.9468136 292.589932,34.8981235 292.587403,34.8438812 C292.586981,34.7435115 292.605954,34.648267 292.64432,34.5564394 C292.682687,34.4654659 292.721896,34.3770551 292.762371,34.291207 C292.796521,34.1831493 292.808748,34.0609972 292.799473,33.9260319 C292.789776,33.7910666 292.825612,33.6637892 292.905718,33.5424913 C292.948722,33.4686021 292.975705,33.3930045 292.987089,33.3148442 C292.998051,33.237111 293.018288,33.1572424 293.046536,33.074811 C293.075205,33.0419239 293.096708,33.00562 293.111042,32.9641908 C293.11315,32.8262358 293.120739,32.6865723 293.134652,32.5456276 C293.148144,32.4046828 293.166273,32.2564773 293.188618,32.0997296 C293.187775,32.0010683 293.132544,31.9276062 293.022083,31.8810517 C293.007326,31.8725096 292.991305,31.8584151 292.973597,31.837487 C292.956311,31.8165588 292.950409,31.7934951 292.95589,31.7670146 C292.978657,31.6610925 292.968538,31.5735359 292.926377,31.5026364 C292.883795,31.4330182 292.824769,31.3693796 292.749301,31.31471 C292.670038,31.2472274 292.591619,31.1810261 292.513199,31.1139706 C292.446585,31.0571656 292.377441,31.0148822 292.306611,30.9772968 C292.353409,30.9431285 292.404846,30.9157937 292.449536,30.8786355 C292.605532,30.7774116 292.584873,30.6569679 292.386716,30.5177316 C292.555782,30.5420766 292.65739,30.4763023 292.691119,30.3204089 C292.70967,30.1751931 292.743398,30.0192997 292.792305,29.854437 C292.842055,29.6882931 292.878314,29.5195864 292.902345,29.3483173 C292.913729,29.2962104 292.908248,29.2445306 292.885903,29.1919967 C292.863979,29.1390356 292.850909,29.091627 292.846271,29.0501978 C292.904032,28.7234622 292.889275,28.4210717 292.801581,28.1434532 C292.807483,28.1173997 292.80411,28.085794 292.791884,28.04949 C292.779657,28.0123318 292.783873,27.9760279 292.805375,27.9401511 C292.845006,27.7586313 292.821818,27.5566105 292.736231,27.3332344 C292.650223,27.1102855 292.526269,26.9398704 292.363949,26.8224165 L292.287217,26.8053323 C292.210484,26.788248 292.138388,26.7788517 292.071774,26.7775704 C292.004738,26.7767162 291.943604,26.7493815 291.888374,26.6959933 C291.720573,26.6041656 291.548134,26.5930609 291.372323,26.6626791 C291.237408,26.7275991 291.097855,26.767747 290.953664,26.7835499 C290.809474,26.7984986 290.709974,26.9022851 290.654743,27.0940555 C290.633241,27.1299323 290.608366,27.1512875 290.580118,27.1589754 C290.55187,27.1662363 290.522358,27.1799036 290.490737,27.2004046 C290.359194,27.3746636 290.215847,27.4784502 290.060695,27.5121915 L290.037085,27.5271402 C290.006307,27.5476412 289.995345,27.5651526 290.005464,27.5813826 C289.960773,27.7889558 289.911445,27.9986645 289.858322,28.2113629 C289.805621,28.4236343 289.785383,28.6265093 289.797188,28.8195609 C289.781589,29.0736885 289.790021,29.3137217 289.822063,29.5383791 C289.853684,29.7630365 289.869705,29.9975173 289.870127,30.2426758 L289.929996,30.337066 C289.995767,30.4062571 290.064911,30.4728855 290.138693,30.5369513 C290.183805,30.5766721 290.22175,30.6266434 290.256322,30.6821671 C290.163146,30.7103561 290.078402,30.74666 290.009258,30.7983398 C289.895002,30.8841879 289.84483,31.0255598 289.8579,31.2224553 C289.920299,31.5679835 289.93379,31.914793 289.898796,32.2616025 C289.862538,32.6079849 289.838506,32.9518047 289.82628,33.2922076 C289.816583,33.6449966 289.796345,33.9909519 289.765146,34.3296464 C289.733525,34.668768 289.707386,35.0168588 289.686727,35.3722105 C289.67197,35.5490321 289.665646,35.7296976 289.663538,35.9124987 C289.245723,36.0342237 288.835918,36.1589384 288.428221,36.2614437 C288.007454,36.3562611 287.60566,36.4429635 287.221574,36.5206966 C286.837909,36.5984298 286.469422,36.6740274 286.115269,36.7487708 C285.805386,36.8094198 285.459244,36.8504219 285.076844,36.8717772 C285.017819,36.8781838 284.958793,36.8845904 284.899768,36.8905698 C284.841164,36.8969764 284.782139,36.9029559 284.723113,36.9093624 C284.66451,36.9153419 284.583982,36.9097896 284.481109,36.8931324 C284.459186,36.8999661 284.433467,36.8961222 284.404376,36.8803193 L284.184296,36.8756212 L284.178393,36.6185037 C284.171648,36.5967214 284.139184,36.5599903 284.081002,36.5108732 C284.023663,36.4609019 283.991199,36.425025 283.984031,36.4028156 C283.992885,36.3511359 283.999631,36.3024458 284.003847,36.2580269 C284.008485,36.2131808 284.008063,36.1615011 284.001317,36.1017063 C284.010593,36.0124413 284.015652,35.8881537 284.064559,35.7292705 C284.11473,35.6229213 284.156048,35.5182805 284.187669,35.4153481 C284.219711,35.3119886 284.261029,35.2073478 284.310357,35.1014257 C284.394258,34.8310681 284.818397,34.3740653 285.00517,34.0703935 C285.192365,33.7667217 285.370285,33.5014893 285.540615,33.2746963 C285.864833,32.8501536 286.200856,32.4619149 286.549106,32.1104072 C286.897356,31.7580454 287.257832,31.3937245 287.629692,31.0174448 C287.609876,30.9862661 287.593434,30.9572229 287.580364,30.9303153 C287.567715,30.9034077 287.554224,30.8858963 287.539889,30.8769271 C287.426898,30.8094445 287.340046,30.7863808 287.279756,30.8081632 C287.219466,30.8303726 287.184894,30.8483111 287.176461,30.8624055 C286.829055,31.0990219 286.533506,31.1152519 286.289816,30.9110956 C286.253136,30.9085329 286.227418,30.9123769 286.211818,30.9226274 C286.196218,30.9324508 286.1705,30.9367219 286.133399,30.9337322 C286.080276,30.9597856 286.023358,30.9837034 285.962647,31.0054859 C285.902778,31.0276953 285.841644,31.0584469 285.779668,31.0990219 C285.62578,31.1998187 285.482011,31.3070222 285.348783,31.4210593 C285.215975,31.5338151 285.068412,31.6487064 284.905249,31.7640248 C284.818819,31.8473104 284.726908,31.9224809 284.629938,31.9908178 C284.533389,32.0583004 284.446116,32.1270643 284.367275,32.1958283 C284.344929,32.2018078 284.331859,32.2077873 284.327222,32.2154751 C284.323427,32.2223088 284.309936,32.2287154 284.287169,32.2346949 C284.217603,32.2893644 284.141713,32.3457423 284.060343,32.4029744 C283.979394,32.4606336 283.876521,32.4815618 283.752146,32.4653318 C283.735703,32.4935207 283.730222,32.5195741 283.736125,32.5426378 C283.722633,32.6310486 283.697758,32.6981042 283.661078,32.7442315 C283.62482,32.7899318 283.587296,32.8300797 283.548087,32.8646752 L283.535438,32.8860305 C283.502131,32.9432626 283.467981,32.9859731 283.432566,33.0133079 C283.397994,33.0406426 283.36047,33.0713942 283.32126,33.1059897 C283.19815,33.1867126 283.144184,33.2793945 283.158519,33.3853166 C283.155989,33.4224748 283.154725,33.4651853 283.155146,33.5138753 C283.155568,33.561711 283.12479,33.6069842 283.062814,33.646705 C283.029506,33.7039372 282.997043,33.7526271 282.964579,33.7910666 C282.932536,33.8299332 282.911034,33.8752064 282.900072,33.926459 C282.80268,34.0609972 282.717937,34.1891288 282.647106,34.3112809 C282.576276,34.4325788 282.502916,34.5581477 282.427448,34.6871336 C282.42534,34.7242917 282.420702,34.7652938 282.413534,34.8092857 C282.40721,34.8532775 282.405102,34.9058115 282.408475,34.9651791 C282.403416,35.0394954 282.392454,35.1155202 282.376011,35.1928262 C282.359568,35.2697052 282.323732,35.3397505 282.267657,35.402962 C282.212848,35.5631265 282.175746,35.7249995 282.156774,35.8877266 C282.138223,36.0500266 282.125575,36.2353903 282.118408,36.4438177 C282.12431,36.4668813 282.123045,36.4852469 282.114191,36.4997684 C282.106181,36.5138629 282.104916,36.5326556 282.110819,36.5557192 C282.11124,36.6526722 282.119251,36.753469 282.133585,36.8593911 C282.148763,36.9648861 282.170687,37.0742251 282.199357,37.1882622 C282.225918,37.3390304 282.253323,37.4962051 282.282835,37.6585052 C282.312348,37.8212323 282.313613,37.9907931 282.286208,38.1676147 C282.329212,38.2901939 282.370109,38.41619 282.408897,38.54603 C282.448106,38.6754429 282.489003,38.801439 282.532007,38.9240182 C282.575011,39.0461703 282.618437,39.1683224 282.661019,39.2909016 C282.704445,39.4130538 282.747449,39.535633 282.790454,39.6582122 C282.965,40.0139909 283.167795,40.2706812 283.39968,40.4287102 C283.47051,40.4714207 283.902239,40.5162668 283.99162,40.4932031 C284.081845,40.4697123 284.149302,40.452201 284.193993,40.4406691 C284.275785,40.4312728 284.351675,40.4235849 284.422084,40.4176054 C284.492493,40.4111988 284.568804,40.403938 284.650175,40.3945417 C284.903562,40.3531125 285.158215,40.3172357 285.414132,40.2864841 C285.670471,40.2561596 285.932291,40.2245538 286.19917,40.1916667 L286.971559,40.0451696 C287.194169,40.0233873 287.420574,39.9947712 287.651194,39.9588943 C287.882236,39.9234446 288.114122,39.8687751 288.347272,39.7957401 C288.68456,39.7077564 289.020161,39.6236167 289.353233,39.5428937 C289.388649,39.5343517 289.42322,39.5266637 289.458636,39.5185488 C289.455263,39.5719369 289.453998,39.6266064 289.450204,39.6799946 C289.435447,39.8901304 289.424485,40.1019746 289.416896,40.3159543 C289.408886,40.4799628 289.40467,40.6456797 289.404248,40.8148134 C289.403826,40.98352 289.376422,41.7676853 289.384432,41.8970982 C289.392443,42.026084 289.401297,42.1580596 289.410572,42.2925977 C289.400032,42.4946185 289.413102,42.7167133 289.448939,42.9558922 C289.450204,42.9665699 289.451468,42.9772476 289.453155,42.9883522 C289.452733,42.9960402 289.45189,43.0041552 289.452312,43.0122702 C289.453998,43.0383236 289.458636,43.0609601 289.46496,43.0823155 C289.498267,43.3432768 289.530309,43.6059466 289.560244,43.8720332 C289.595237,44.1812574 289.639928,44.4900545 289.693894,44.8005601 C289.714975,44.982507 289.764725,45.1661622 289.842301,45.3515259 C289.868862,45.4143104 289.892894,45.4779491 289.915661,45.5411607 C289.948125,45.6663026 289.981432,45.789736 290.029496,45.9071899 C290.029496,45.9084713 290.029917,45.9093255 290.030339,45.9101796 C290.062803,46.0395926 290.109601,46.1399623 290.171156,46.2112889 C290.23229,46.2830426 290.55187,46.8387066 290.580961,46.8818443 C290.610474,46.9237006 290.862175,47.0885632 290.862175,47.1722758 C290.862175,47.3251795 291.008052,47.314929 291.053586,47.3589208 C291.175853,47.4768019 291.175431,47.4627074 291.301071,47.5673482 C291.571745,47.809944 291.87952,47.9295336 292.224397,47.9278251 C292.250536,47.9333775 292.404424,47.9060427 292.441947,47.9086054 C292.403581,47.8556443 292.07852,47.521648 292.061234,47.501574 C292.011062,47.4020585 291.970166,47.2999803 291.937702,47.1961938 C291.905238,47.0924071 291.897649,46.9446287 291.81417,46.8908134 C291.730691,46.8374253 291.855066,46.5021476 291.855488,46.1771205 C291.855488,46.1215968 291.847056,46.0699171 291.834829,46.0233626 C291.807846,45.8174978 291.775382,45.6167583 291.73828,45.4202899 C291.700757,45.2238214 291.669558,45.0290614 291.645526,44.8351556 C291.626975,44.6651677 291.625289,44.499878 291.640467,44.3401406 C291.655223,44.1799761 291.673774,44.0219471 291.696119,43.8656266 C291.698649,43.8271871 291.703708,43.786185 291.710876,43.7400576 C291.718043,43.6947845 291.722681,43.6529281 291.725211,43.6144886 C291.744605,43.4474905 291.741232,43.2762212 291.715935,43.1015352 C291.690217,42.9272762 291.712984,42.7619865 291.784236,42.606093 C291.79309,42.5915714 291.792668,42.5659451 291.783814,42.5309225 C291.786344,42.3933946 291.785501,42.2558667 291.781706,42.1187659 C291.77749,41.9829463 291.777069,41.8458456 291.779177,41.7074634 C291.780863,41.4200216 291.82977,41.1009739 291.851272,40.7955936 C291.853802,40.7080371 291.861391,40.6149281 291.873617,40.5179752 C291.885844,40.4210223 291.903552,40.3202254 291.926318,40.2138762 C291.937702,40.1609152 291.953723,40.1160691 291.975225,40.079338 C291.997149,40.042607 291.991246,39.9840936 291.959204,39.9055062 C291.941496,39.8850051 291.941918,39.8504096 291.96089,39.8017196 C291.97902,39.7534567 291.997149,39.7150172 292.014435,39.6846927 C292.107189,39.4865159 292.11014,39.353259 292.085687,39.2362322 C292.070931,39.1661869 292.06292,39.028659 292.051115,38.8919853 C292.202895,38.8578168 292.357625,38.8240756 292.498021,38.7873445 C292.712199,38.7313937 292.921318,38.6587858 293.12622,38.5690937 C293.610228,38.3777505 294.071891,38.1881158 294.523857,37.9993352 C294.521327,38.092017 294.517111,38.1829905 294.51669,38.2765266 C294.516268,38.4422434 294.506571,38.6062518 294.487599,38.7698331 C294.494344,38.939394 294.499825,39.105538 294.505306,39.2691193 C294.510366,39.4327006 294.516268,39.5988445 294.523014,39.7684054 C294.497717,39.9093501 294.489285,40.0421799 294.497296,40.168603 C294.504885,40.2950262 294.513738,40.4244391 294.523014,40.5559876 C294.512474,40.7541644 294.525543,40.9711339 294.560537,41.2056148 C294.561802,41.2158653 294.563067,41.22697 294.564332,41.2372205 C294.564332,41.2453355 294.563488,41.2530234 294.56391,41.2611384 C294.565596,41.2859105 294.570234,41.3085471 294.576137,41.3299024 C294.608601,41.5844571 294.640221,41.8420016 294.669734,42.1025359 C294.703884,42.4049264 294.747732,42.7077441 294.800433,43.011843 C294.821092,43.1895189 294.869577,43.3701844 294.945889,43.5512771 C294.971607,43.6127803 294.995217,43.6751376 295.017562,43.7370679 C295.049183,43.8596471 295.082069,43.9805179 295.128867,44.0954092 C295.128867,44.0962634 295.129289,44.0975448 295.12971,44.098399 C295.161753,44.2252493 295.207287,44.3234835 295.267577,44.3935287 C295.327867,44.463574 295.403335,44.5353277 295.494403,44.609644 C295.520121,44.6151964 295.54078,44.637833 295.556801,44.6766995 C295.572401,44.715139 295.57746,44.747599 295.572401,44.7732253 C295.526867,44.8338743 295.518856,44.8846998 295.547526,44.9265562 C295.576195,44.9675582 295.608659,45.0141127 295.646183,45.0662196 C295.768871,45.1687249 295.890295,45.2780638 296.010032,45.3933822 C296.129769,45.5095549 296.251193,45.6184667 296.373881,45.720972 C296.639074,45.9584426 296.940525,46.0754694 297.278234,46.073761 C297.303531,46.0793134 297.336417,46.0771778 297.37647,46.0673544 C297.416101,46.0566768 297.454467,46.0524057 297.491147,46.0553955 C297.453624,46.0032886 297.427906,45.9618594 297.413571,45.9281181 C297.399236,45.895231 297.38195,45.8636252 297.362135,45.8320194 C297.333465,45.8149352 297.30859,45.8004136 297.28751,45.7871733 C297.266008,45.7739331 297.240711,45.7594115 297.212463,45.7423273 C297.194756,45.7218262 297.179578,45.7081588 297.165243,45.6991897 C297.15133,45.6910746 297.135309,45.6765531 297.118444,45.6569062 C297.069538,45.5590991 297.029063,45.4595836 296.997442,45.3575054 C296.9654,45.2558543 296.925347,45.1559117 296.87644,45.0585317 C296.870538,45.035468 296.873489,45.0102688 296.884451,44.982934 C296.895413,44.9555993 296.912699,44.9393693 296.935466,44.9329628 C297.056889,44.889398 297.075018,44.8172172 296.989432,44.7168475 C296.983107,44.6937838 296.972567,44.6630322 296.956546,44.6250198 C296.940525,44.5861532 296.935466,44.5536932 296.941368,44.5276398 C296.926612,44.4699806 296.918601,44.4144569 296.916915,44.3602145 C296.914807,44.3051179 296.908483,44.2547195 296.896678,44.2090193 C296.870116,44.0074255 296.838495,43.8109571 296.801815,43.6187597 C296.765135,43.4265623 296.735201,43.2356463 296.711169,43.0455844 C296.69304,42.8794404 296.691353,42.7175675 296.706531,42.5608199 C296.720866,42.4040722 296.738995,42.2494601 296.760919,42.0969835 C296.763449,42.0589711 296.768086,42.0183961 296.775254,41.9739772 C296.782,41.9291311 296.786637,41.888129 296.789167,41.8509709 C296.808139,41.6869624 296.805188,41.5195371 296.779892,41.348695 C296.754595,41.1778529 296.777362,41.01598 296.847349,40.8630762 C296.855781,40.8489818 296.85536,40.8237826 296.846928,40.7896142 C296.849036,40.655076 296.848192,40.5201107 296.844398,40.3864268 C296.840603,40.2527428 296.840182,40.1186317 296.841868,39.9828122 C296.843555,39.701777 296.8503,39.418179 296.862527,39.1332998 C296.875175,38.8492748 296.891618,38.5571347 296.912699,38.258161 C296.915228,38.1718858 296.922396,38.0809123 296.934622,37.986522 C296.946849,37.8912776 296.964135,37.7926163 296.986059,37.6884025 C296.997021,37.6367228 297.013042,37.592731 297.034544,37.5568541 C297.055203,37.5209773 297.049722,37.4637451 297.018101,37.386012 C297.000815,37.365938 297.001658,37.3321967 297.019788,37.2847881 C297.037495,37.2378064 296.971724,37.1805743 297.03623,36.9273009 C297.040025,36.9127793 297.042133,36.9063727 297.045506,36.8931324 C297.048035,36.8922782 297.050565,36.8909969 297.052673,36.8897156 C297.311542,36.7739701 297.57041,36.6488282 297.830122,36.5142901 C298.089833,36.380179 298.341535,36.250339 298.585647,36.1260513 C298.7935,35.999201 298.997138,35.8796116 299.195716,35.7664286 C299.204148,35.7523342 299.214267,35.7437921 299.225229,35.7408023 C299.237034,35.7378126 299.246731,35.7288434 299.254742,35.7147489 C299.285941,35.694675 299.307443,35.6741739 299.31967,35.6523915 C299.332318,35.6310363 299.354242,35.6101081 299.385019,35.589607 C299.441093,35.5268226 299.492951,35.4708718 299.540172,35.4221818 C299.587813,35.3730646 299.646839,35.3209578 299.716404,35.2667155 C299.795246,35.1975244 299.880411,35.1330315 299.973165,35.0723825 C300.065497,35.0117336 300.158252,34.9510846 300.250584,34.8908628 C300.42766,34.7840865 300.591245,34.6832896 300.740917,34.5897535 C300.89101,34.4962175 301.033092,34.3830346 301.167586,34.2510591 C301.489696,33.9606274 301.795363,33.6650706 302.085009,33.3648155 C302.374655,33.0645605 302.655025,32.7638784 302.926121,32.4627691 C303.085489,32.2872288 303.238112,32.0984483 303.384832,31.8968546 C303.531131,31.6944067 303.681646,31.4945214 303.835111,31.2967717 L303.86884,31.2878024 C303.999961,31.095605 304.113374,30.89273 304.209079,30.6796045 C304.304785,30.4660518 304.397118,30.2512179 304.485656,30.0338212 C304.50505,29.968047 304.531611,29.9061167 304.564497,29.8488847 C304.598225,29.7916525 304.624787,29.7301494 304.643759,29.6643752 C304.808187,29.3179928 304.923287,29.0053516 304.990323,28.726879 C305.057359,28.4484063 305.097412,28.1673711 305.109217,27.8850544 C305.106265,27.8252598 305.11006,27.769736 305.121022,27.7180563 C305.131984,27.6668037 305.135778,27.61128 305.132405,27.5510581 C305.151799,27.4852839 305.165712,27.420791 305.173301,27.3580065 C305.181734,27.2947949 305.180047,27.2409797 305.168242,27.1957065 Z" id="Combined-Shape"></path>
            </g>
        </g>
    </g>
</svg>