<?xml version="1.0" encoding="UTF-8"?>
<svg width="16px" height="14px" viewBox="0 0 16 14" version="1.1" xmlns="http://www.w3.org/2000/svg" xmlns:xlink="http://www.w3.org/1999/xlink">
    <!-- Generator: Sketch 52.6 (67491) - http://www.bohemiancoding.com/sketch -->
    <title>Combined Shape</title>
    <desc>Created with Sketch.</desc>
    <g id="Dark-mode" stroke="none" stroke-width="1" fill="none" fill-rule="evenodd">
        <g id="Dark-mode:-Inbox" transform="translate(-1072.000000, -101.000000)" fill="#FFFFFF">
            <g id="Group-30" transform="translate(388.000000, 80.000000)">
                <g id="Group-9" transform="translate(578.000000, 21.000000)">
                    <path d="M106,1.55173612 C106,0.694735924 106.652033,0 107.455204,0 L120.544796,0 C121.348483,0 122,0.694262177 122,1.55173612 L122,12.4482639 C122,13.3052641 121.347967,14 120.544796,14 L107.455204,14 C106.651517,14 106,13.3057378 106,12.4482639 L106,1.55173612 Z M110.508874,4.29170283 C110.721715,3.79659816 111.101825,3.77460119 111.354303,4.23604442 L112.820221,6.91523793 C113.074298,7.3796033 113.608323,7.51966091 114.015621,7.22617541 L114.868995,6.61126408 C115.275119,6.31862473 115.826566,6.44273716 116.105877,6.89691967 L118.059312,10.0733627 C118.336299,10.5237653 118.17333,10.8888887 117.697374,10.8888887 L108.536272,10.8888889 C108.059392,10.8888889 107.846004,10.4859976 108.058188,9.99242261 L110.508874,4.29170283 Z M117.887662,5.88888889 C117.059235,5.88888889 116.387662,5.21731601 116.387662,4.38888889 C116.387662,3.56046176 117.059235,2.88888889 117.887662,2.88888889 C118.716089,2.88888889 119.387662,3.56046176 119.387662,4.38888889 C119.387662,5.21731601 118.716089,5.88888889 117.887662,5.88888889 Z" id="Combined-Shape"></path>
                </g>
            </g>
        </g>
    </g>
</svg>