<?xml version="1.0" encoding="UTF-8"?>
<svg width="24px" height="14px" viewBox="0 0 24 14" version="1.1" xmlns="http://www.w3.org/2000/svg" xmlns:xlink="http://www.w3.org/1999/xlink">
    <!-- Generator: Sketch 52.6 (67491) - http://www.bohemiancoding.com/sketch -->
    <title>Gif-icon</title>
    <desc>Created with Sketch.</desc>
    <g id="Dark-mode" stroke="none" stroke-width="1" fill="none" fill-rule="evenodd">
        <g id="Dark-mode:-Inbox" transform="translate(-998.000000, -101.000000)" fill="#FFFFFF">
            <g id="Group-30" transform="translate(388.000000, 80.000000)">
                <g id="Group-9" transform="translate(578.000000, 21.000000)">
                    <path d="M34,0 L54,0 C55.1045695,-2.02906125e-16 56,0.8954305 56,2 L56,12 C56,13.1045695 55.1045695,14 54,14 L34,14 C32.8954305,14 32,13.1045695 32,12 L32,2 C32,0.8954305 32.8954305,2.02906125e-16 34,0 Z M41.3939962,10.8376184 L42.8348968,10.8376184 L42.8348968,6.73477673 L38.7711069,6.73477673 L38.7711069,8.18538566 L41.1688555,8.18538566 C41.1463414,8.2936406 41.0919329,8.41993613 41.0056285,8.56427605 C40.9193241,8.70861597 40.7973741,8.84573683 40.6397749,8.97564276 C40.4821756,9.10554869 40.2851794,9.21560622 40.0487805,9.30581867 C39.8123816,9.39603112 39.5290823,9.44113667 39.1988743,9.44113667 C38.876171,9.44113667 38.5703579,9.38881424 38.2814259,9.28416779 C37.9924939,9.17952135 37.7373369,9.02616249 37.5159475,8.8240866 C37.294558,8.62201072 37.1200757,8.36941965 36.9924953,8.06630582 C36.8649149,7.76319199 36.8011257,7.40956449 36.8011257,7.00541272 C36.8011257,6.57960996 36.8724195,6.21515713 37.0150094,5.9120433 C37.1575992,5.60892947 37.3433384,5.35994685 37.5722326,5.16508796 C37.8011268,4.97022907 38.0544076,4.82769553 38.3320826,4.73748309 C38.6097575,4.64727064 38.8836759,4.60216509 39.1538462,4.60216509 C39.4840542,4.60216509 39.7673534,4.64907486 40.0037523,4.74289581 C40.2401513,4.83671675 40.4371474,4.95399118 40.5947467,5.0947226 C40.752346,5.23545402 40.874296,5.38340022 40.9606004,5.53856563 C41.0469047,5.69373104 41.1050655,5.82904769 41.1350844,5.94451962 L42.8461538,5.37077131 C42.7560971,5.10374246 42.621014,4.82950073 42.4409006,4.54803789 C42.2607871,4.26657505 42.0225156,4.01217976 41.7260788,3.78484438 C41.429642,3.55750901 41.0694205,3.36986993 40.6454034,3.22192152 C40.2213862,3.0739731 39.7242055,3 39.1538462,3 C38.5909916,3 38.0581639,3.09562376 37.5553471,3.28687415 C37.0525303,3.47812455 36.6116342,3.74875783 36.2326454,4.09878214 C35.8536566,4.44880644 35.553472,4.86919015 35.3320826,5.35994587 C35.1106931,5.8507016 35,6.39918506 35,7.00541272 C35,7.61164038 35.1069408,8.16012384 35.3208255,8.65087957 C35.5347103,9.14163529 35.823638,9.562019 36.1876173,9.9120433 C36.5515966,10.2620676 36.9793596,10.5308967 37.4709193,10.7185386 C37.962479,10.9061805 38.4859259,11 39.0412758,11 C39.6116351,11 40.0844259,10.9043762 40.4596623,10.7131258 C40.8348987,10.5218755 41.1088171,10.3035646 41.2814259,10.0581867 L41.3939962,10.8376184 Z M44.3320826,10.8376184 L46.1332083,10.8376184 L46.1332083,3.1623816 L44.3320826,3.1623816 L44.3320826,10.8376184 Z M47.8555347,10.8376184 L49.6454034,10.8376184 L49.6454034,7.96887686 L52.5947467,7.96887686 L52.5947467,6.41001353 L49.6341463,6.41001353 L49.6341463,4.78619756 L53,4.78619756 L53,3.1623816 L47.8555347,3.1623816 L47.8555347,10.8376184 Z" id="Gif-icon"></path>
                </g>
            </g>
        </g>
    </g>
</svg>