<?xml version="1.0" encoding="UTF-8"?>
<svg width="16px" height="16px" viewBox="0 0 16 16" version="1.1" xmlns="http://www.w3.org/2000/svg" xmlns:xlink="http://www.w3.org/1999/xlink">
    <!-- Generator: Sketch 51.3 (57544) - http://www.bohemiancoding.com/sketch -->
    <title>Combined Shape</title>
    <desc>Created with Sketch.</desc>
    <defs></defs>
    <g id="⚙️-Settings" stroke="none" stroke-width="1" fill="none" fill-rule="evenodd">
        <g id="User/settings-dropdown" transform="translate(-1057.000000, -326.000000)" fill="#34414F">
            <path d="M1061.73963,333.977593 C1061.91868,334.205771 1062.12207,334.450721 1062.35006,334.709304 C1063.10656,335.567306 1064.00028,336.426988 1065.03436,337.250252 C1065.59545,336.775066 1066.15717,336.25823 1066.7077,335.7077 C1067.2777,335.137703 1067.81157,334.555716 1068.3005,333.974842 C1067.99255,333.594208 1067.65683,333.213581 1067.29704,332.834756 C1066.59579,332.096389 1065.84197,331.404321 1065.08822,330.780078 C1065.06128,330.757772 1065.03455,330.735721 1065.00803,330.713927 C1064.43284,331.198925 1063.85669,331.727906 1063.2923,332.2923 C1062.73786,332.84674 1062.2176,333.412524 1061.73963,333.977593 Z M1059.27989,337.580084 C1058.57219,338.995489 1058.45566,339.978785 1058.73843,340.261565 C1059.02121,340.544345 1060.00451,340.427812 1061.41992,339.720109 C1062.14813,339.356004 1062.9336,338.865706 1063.73977,338.273854 C1062.75174,337.461819 1061.88705,336.618655 1061.1424,335.774094 C1060.98696,335.597789 1060.84473,335.430897 1060.71559,335.274613 C1060.12846,336.075746 1059.64183,336.856206 1059.27989,337.580084 Z M1068.46447,331.726009 C1068.7642,332.041597 1069.04938,332.359375 1069.31838,332.678896 C1069.89033,331.894066 1070.36517,331.129784 1070.72011,330.419916 C1071.42781,329.004511 1071.54434,328.021215 1071.26157,327.738435 C1070.97879,327.455655 1069.99549,327.572188 1068.58008,328.279891 C1067.86435,328.63776 1067.09329,329.117535 1066.30163,329.695823 C1067.03933,330.317217 1067.7736,330.998576 1068.46447,331.726009 Z M1057.59997,326.599969 C1058.93923,325.260706 1061.8627,326.258615 1065,328.649528 C1068.1373,326.258615 1071.06077,325.260706 1072.40003,326.599969 C1073.73929,327.939232 1072.74139,330.862703 1070.35047,334 C1072.74139,337.137297 1073.73929,340.060768 1072.40003,341.400031 C1071.06077,342.739294 1068.1373,341.741385 1065,339.350472 C1061.8627,341.741385 1058.93923,342.739294 1057.59997,341.400031 C1056.26071,340.060768 1057.25861,337.137297 1059.64953,334 C1057.25861,330.862703 1056.26071,327.939232 1057.59997,326.599969 Z M1062.15383,331.153834 C1062.66863,330.639037 1063.18873,330.154022 1063.70811,329.702942 C1062.91303,329.121472 1062.13859,328.639227 1061.41992,328.279891 C1060.00451,327.572188 1059.02121,327.455655 1058.73843,327.738435 C1058.45566,328.021215 1058.57219,329.004511 1059.27989,330.419916 C1059.63923,331.138589 1060.12147,331.913033 1060.70294,332.708108 C1061.15402,332.188731 1061.63904,331.668631 1062.15383,331.153834 Z M1067.84617,336.846166 C1067.33137,337.360963 1066.81127,337.845978 1066.29189,338.297058 C1067.08697,338.878528 1067.86141,339.360773 1068.58008,339.720109 C1069.99549,340.427812 1070.97879,340.544345 1071.26157,340.261565 C1071.54434,339.978785 1071.42781,338.995489 1070.72011,337.580084 C1070.36077,336.861411 1069.87853,336.086967 1069.29706,335.291892 C1068.84598,335.811269 1068.36096,336.331369 1067.84617,336.846166 Z M1065,335.207526 C1064.3331,335.207526 1063.79247,334.666898 1063.79247,334 C1063.79247,333.333102 1064.3331,332.792474 1065,332.792474 C1065.6669,332.792474 1066.20753,333.333102 1066.20753,334 C1066.20753,334.666898 1065.6669,335.207526 1065,335.207526 Z" id="Combined-Shape"></path>
        </g>
    </g>
</svg>