<?xml version="1.0" encoding="UTF-8"?>
<svg width="14px" height="16px" viewBox="0 0 14 16" version="1.1" xmlns="http://www.w3.org/2000/svg" xmlns:xlink="http://www.w3.org/1999/xlink">
    <!-- Generator: Sketch 50.2 (55047) - http://www.bohemiancoding.com/sketch -->
    <title>Combined Shape</title>
    <desc>Created with Sketch.</desc>
    <defs></defs>
    <g id="⚙️-Settings-/-modals" stroke="none" stroke-width="1" fill="none" fill-rule="evenodd">
        <g id="User/settings-dropdown" transform="translate(-1058.000000, -156.000000)" fill="#3FBD7C">
            <g id="Group-5" transform="translate(1024.000000, 56.000000)">
                <path d="M36.1833664,113.818182 C34.978138,113.818182 34,112.840325 34,111.636364 C34,110.837263 34.4326674,110.125029 35.0939793,109.744635 C35.0939792,109.52392 35.0909091,106.908064 35.0909091,106.908064 C35.0909091,104.394982 36.777961,102.279172 39.0909091,101.647076 L39.0909091,101.454545 C39.0909091,100.651222 39.7421313,100 40.5454545,100 C41.3487778,100 42,100.651222 42,101.454545 L42,101.647076 C44.3134434,102.279038 46,104.395039 46,106.911853 L46,109.750986 C46.662088,110.133169 47.0909091,110.842437 47.0909091,111.636364 C47.0909091,112.841886 46.1142047,113.818182 44.9075427,113.818182 L42.7272716,113.818182 C42.7260421,115.023377 41.747232,116 40.5454545,116 C39.3404696,116 38.3636364,115.024165 38.3636364,113.819745 L36.1833664,113.818182 Z M44.5454545,110.426251 L44.5454545,106.911853 C44.5454545,104.698714 42.755891,102.909091 40.5454545,102.909091 C38.335918,102.909091 36.5454545,104.699316 36.5454545,106.908064 L36.5454545,110.426232 C36.5454545,110.629658 36.3892669,110.831792 36.1965997,110.881392 L35.9994963,110.932133 C35.6810942,111.014101 35.4545455,111.302508 35.4545455,111.636364 C35.4545455,112.036908 35.7813676,112.363636 36.1833664,112.363636 L44.9075427,112.363636 C45.3110177,112.363636 45.6363636,112.038427 45.6363636,111.636364 C45.6363636,111.303961 45.408892,111.014427 45.0906976,110.932168 L44.899998,110.882868 C44.7060964,110.832741 44.5454545,110.627813 44.5454545,110.426251 Z" id="Combined-Shape"></path>
            </g>
        </g>
    </g>
</svg>