<?xml version="1.0" encoding="UTF-8"?>
<svg width="16px" height="16px" viewBox="0 0 16 16" version="1.1" xmlns="http://www.w3.org/2000/svg" xmlns:xlink="http://www.w3.org/1999/xlink">
    <!-- Generator: Sketch 50.2 (55047) - http://www.bohemiancoding.com/sketch -->
    <title>Combined Shape</title>
    <desc>Created with Sketch.</desc>
    <defs></defs>
    <g id="⚙️-Settings-/-modals" stroke="none" stroke-width="1" fill="none" fill-rule="evenodd">
        <g id="User/settings-dropdown" transform="translate(-1057.000000, -273.000000)" fill="#3FBD7C">
            <g id="Group-5" transform="translate(1024.000000, 56.000000)">
                <g id="Group" transform="translate(33.000000, 215.000000)">
                    <path d="M7.2,9.2 L7.2,6.79631805 C7.2,6.35652374 7.55509186,6 8,6 C8.4418278,6 8.8,6.35928495 8.8,6.79631805 L8.8,9.2 L11.2036819,9.2 C11.6434763,9.2 12,9.55509186 12,10 C12,10.4418278 11.640715,10.8 11.2036819,10.8 L8.8,10.8 L8.8,13.2036819 C8.8,13.6434763 8.44490814,14 8,14 C7.5581722,14 7.2,13.640715 7.2,13.2036819 L7.2,10.8 L4.79631805,10.8 C4.35652374,10.8 4,10.4449081 4,10 C4,9.5581722 4.35928495,9.2 4.79631805,9.2 L7.2,9.2 Z M8,18 C3.581722,18 0,14.418278 0,10 C0,5.581722 3.581722,2 8,2 C12.418278,2 16,5.581722 16,10 C16,14.418278 12.418278,18 8,18 Z M8,16.4 C11.5346224,16.4 14.4,13.5346224 14.4,10 C14.4,6.4653776 11.5346224,3.6 8,3.6 C4.4653776,3.6 1.6,6.4653776 1.6,10 C1.6,13.5346224 4.4653776,16.4 8,16.4 Z" id="Combined-Shape"></path>
                </g>
            </g>
        </g>
    </g>
</svg>