<?xml version="1.0" encoding="UTF-8"?>
<svg width="16px" height="16px" viewBox="0 0 16 16" version="1.1" xmlns="http://www.w3.org/2000/svg" xmlns:xlink="http://www.w3.org/1999/xlink">
    <!-- Generator: Sketch 52.6 (67491) - http://www.bohemiancoding.com/sketch -->
    <title>Combined Shape</title>
    <desc>Created with Sketch.</desc>
    <g id="Reminders" stroke="none" stroke-width="1" fill="none" fill-rule="evenodd">
        <g id="User-menu-(reminders)" transform="translate(-30.000000, -233.000000)" fill="#34414F">
            <g id="Group-8" transform="translate(30.000000, 89.000000)">
                <path d="M5.01227439,145.437558 C4.69923037,145.108692 4.69923553,144.5755 5.01228592,144.246641 C5.32533631,143.917782 5.83288612,143.917787 6.14593015,144.246653 L8.5507527,146.77302 C8.86379672,147.101886 8.86379156,147.635078 8.55074117,147.963937 L6.14591861,150.490201 C5.83286822,150.81906 5.32531841,150.819055 5.01227439,150.490189 C4.69923037,150.161323 4.69923553,149.628132 5.01228592,149.299272 L6.04365534,148.210526 L5.20916608,148.210526 C3.2193959,148.210526 1.60321504,149.908134 1.60321504,152 C1.60321504,153.963655 3.28111347,155.789474 4.80747818,155.789474 C5.25019379,155.789474 5.6090857,156.166497 5.6090857,156.631579 C5.6090857,157.096661 5.25019379,157.473684 4.80747818,157.473684 C2.38280887,157.473684 -8.52651283e-14,154.880812 -8.52651283e-14,152 C-8.52651283e-14,148.977921 2.33401188,146.526316 5.20916608,146.526316 L6.04365531,146.526316 L5.01227439,145.437558 Z M10.9555753,158.562442 C11.2686193,158.891308 11.2686141,159.4245 10.9555637,159.753359 C10.6425133,160.082218 10.1349635,160.082213 9.8219195,159.753347 L7.41709694,157.22698 C7.10405292,156.898114 7.10405808,156.364922 7.41710848,156.036063 L9.82193103,153.509799 C10.1349814,153.18094 10.6425312,153.180945 10.9555753,153.509811 C11.2686193,153.838677 11.2686141,154.371868 10.9555637,154.700728 L9.9241943,155.789474 L10.7908339,155.789474 C12.7806041,155.789474 14.396785,154.091866 14.396785,152 C14.396785,150.036345 12.7188865,148.210526 11.1925218,148.210526 C10.7498062,148.210526 10.3909143,147.833503 10.3909143,147.368421 C10.3909143,146.903339 10.7498062,146.526316 11.1925218,146.526316 C13.6171911,146.526316 16,149.119188 16,152 C16,155.022079 13.6659881,157.473684 10.7908339,157.473684 L9.92419433,157.473684 L10.9555753,158.562442 Z" id="Combined-Shape"></path>
            </g>
        </g>
    </g>
</svg>