<?xml version="1.0" encoding="UTF-8"?>
<svg width="16px" height="16px" viewBox="0 0 16 16" version="1.1" xmlns="http://www.w3.org/2000/svg" xmlns:xlink="http://www.w3.org/1999/xlink">
    <!-- Generator: Sketch 52.3 (67297) - http://www.bohemiancoding.com/sketch -->
    <title>Combined Shape</title>
    <desc>Created with Sketch.</desc>
    <g id="Billing" stroke="none" stroke-width="1" fill="none" fill-rule="evenodd">
        <g id="Billing-in-dropdown" transform="translate(-865.000000, -265.000000)" fill="#34414F">
            <g id="Group-6" transform="translate(832.000000, 48.000000)">
                <path d="M42.9999867,217 C44.7673009,217 46.1999921,218.410129 46.1999921,220.149611 C46.1999921,220.811643 46.0798935,221.730116 45.8004099,222.613936 C46.7674143,222.96653 47.5185832,223.535883 48.0591424,224.290528 C48.7359895,225.235437 49,226.332784 49,227.398717 C49,227.689872 48.8417786,227.958033 48.5869069,228.098846 C48.2751884,228.271066 47.7352619,228.515849 47.0112332,228.757416 C46.4792785,228.934898 45.9293835,229.080959 45.365358,229.188597 C45.6508836,229.814584 45.7999925,230.451513 45.7999925,230.998272 C45.7999925,231.307141 45.6221442,231.588412 45.3430875,231.720876 C44.9912453,231.887891 44.3826751,232.128231 43.5773333,232.366283 C42.2379445,232.762193 40.8261922,233.000027 39.3999962,233.000027 C37.9738003,233.000027 36.562048,232.762193 35.2226592,232.366283 C34.4173174,232.128231 33.8087472,231.887891 33.456905,231.720876 C33.1778482,231.588412 33,231.307141 33,230.998272 C33,230.028109 33.4600638,228.788226 34.3148819,227.819416 C34.8504204,227.212462 35.5144708,226.727283 36.3039409,226.384601 C35.9506186,225.323814 35.7999744,224.198128 35.7999744,223.39921 C35.7999744,221.41123 37.4117521,219.799654 39.3999806,219.799654 C39.541002,219.799654 39.6801296,219.807762 39.8169226,219.823536 C39.9826896,218.237267 41.3445367,217 42.9999867,217 Z M42.4952649,226.386868 C43.2395189,226.711094 43.8725115,227.162324 44.3916608,227.72297 C45.1196358,227.632797 45.8284681,227.465519 46.5047882,227.23987 C46.8237832,227.133439 47.1146406,227.020706 47.3732473,226.907758 C47.3070116,226.308835 47.114418,225.719135 46.7583577,225.222059 C46.3896717,224.707357 45.8618105,224.314836 45.1367604,224.073748 C44.6370963,224.847656 43.939626,225.398963 42.9999867,225.398963 C42.9211265,225.398963 42.8439721,225.39508 42.7684972,225.387508 C42.6960778,225.719049 42.6055262,226.056127 42.4952649,226.386868 Z M42.9999867,223.799161 C43.7552271,223.799161 44.5999894,221.96267 44.5999894,220.149611 C44.5999894,219.299364 43.8892348,218.599803 42.9999867,218.599803 C42.1107386,218.599803 41.399984,219.299364 41.399984,220.149611 C41.399984,220.236294 41.4019149,220.32303 41.4056747,220.409616 C42.3672713,221.055856 42.9999867,222.153653 42.9999867,223.39921 C42.9999867,223.524901 42.996258,223.65868 42.988598,223.799022 C42.9923964,223.799114 42.9961927,223.799161 42.9999867,223.799161 Z M35.5146994,228.877795 C35.0755614,229.375493 34.7861316,229.976236 34.6648181,230.491554 C34.968566,230.60753 35.3075392,230.723126 35.6762579,230.832116 C36.8780823,231.187364 38.1415982,231.400225 39.3999962,231.400225 C40.6583943,231.400225 41.9219102,231.187364 43.1237346,230.832116 C43.4919514,230.723274 43.8305035,230.607845 44.1339337,230.492028 C44.0117182,229.980803 43.7222136,229.381254 43.2846451,228.884108 C42.8997212,228.446775 42.4181004,228.093514 41.8306243,227.841351 C41.2667326,228.74811 40.4739643,229.39847 39.3999806,229.39847 C38.3251995,229.39847 37.5320516,228.747144 36.9680813,227.839331 C36.380432,228.090423 35.8990209,228.442223 35.5146994,228.877795 Z M39.3999806,227.798667 C40.3954455,227.798667 41.399984,225.580163 41.399984,223.39921 C41.399984,222.294777 40.5045519,221.399457 39.3999806,221.399457 C38.2954092,221.399457 37.3999772,222.294777 37.3999772,223.39921 C37.3999772,225.580163 38.4045156,227.798667 39.3999806,227.798667 Z" id="Combined-Shape"></path>
            </g>
        </g>
    </g>
</svg>