<?xml version="1.0" encoding="UTF-8"?>
<svg width="16px" height="16px" viewBox="0 0 16 16" version="1.1" xmlns="http://www.w3.org/2000/svg" xmlns:xlink="http://www.w3.org/1999/xlink">
    <!-- Generator: Sketch 50.2 (55047) - http://www.bohemiancoding.com/sketch -->
    <title>Combined Shape</title>
    <desc>Created with Sketch.</desc>
    <defs></defs>
    <g id="⚙️-Settings-/-modals" stroke="none" stroke-width="1" fill="none" fill-rule="evenodd">
        <g id="User/settings-dropdown" transform="translate(-1057.000000, -353.000000)" fill="#34414F">
            <g id="Group-5" transform="translate(1024.000000, 56.000000)">
                <path d="M46.54445,308.198866 C47.0885886,307.257767 47.4,306.165251 47.4,305 C47.4,303.865433 47.1047731,302.79982 46.5869498,301.875792 L45.0894973,303.373244 C45.2898442,303.876458 45.4,304.425365 45.4,305 C45.4,305.606422 45.2773203,306.18419 45.0554253,306.709841 L46.54445,308.198866 Z M41,309.4 C40.425365,309.4 39.8764583,309.289844 39.3732444,309.089497 L37.8757919,310.58695 C38.7998202,311.104773 39.8654331,311.4 41,311.4 C42.2084947,311.4 43.3387566,311.065046 44.3030123,310.482911 L42.8249663,309.004865 C42.2690217,309.258611 41.6510224,309.4 41,309.4 Z M36.6,305 C36.6,304.348978 36.7413888,303.730978 36.9951347,303.175034 L35.5170887,301.696988 C34.9349541,302.661243 34.6,303.791505 34.6,305 C34.6,306.238974 34.952063,307.39572 35.5616053,308.375653 L37.0325192,306.904739 C36.7553146,306.328385 36.6,305.68233 36.6,305 Z M41,300.6 C41.6823303,300.6 42.3283849,300.755315 42.9047391,301.032519 L44.375653,299.561605 C43.3957199,298.952063 42.2389743,298.6 41,298.6 C39.8347494,298.6 38.7422328,298.911411 37.8011344,299.45555 L39.2901591,300.944575 C39.8158098,300.72268 40.3935782,300.6 41,300.6 Z M49,305 C49,309.418278 45.418278,313 41,313 C36.581722,313 33,309.418278 33,305 C33,300.581722 36.581722,297 41,297 C45.418278,297 49,300.581722 49,305 Z M38.2,305 C38.2,306.546397 39.4536027,307.8 41,307.8 C42.5463973,307.8 43.8,306.546397 43.8,305 C43.8,303.453603 42.5463973,302.2 41,302.2 C39.4536027,302.2 38.2,303.453603 38.2,305 Z" id="Combined-Shape"></path>
            </g>
        </g>
    </g>
</svg>