<?xml version="1.0" encoding="UTF-8"?>
<svg width="16px" height="20px" viewBox="0 0 16 20" version="1.1" xmlns="http://www.w3.org/2000/svg" xmlns:xlink="http://www.w3.org/1999/xlink">
    <!-- Generator: Sketch 50.2 (55047) - http://www.bohemiancoding.com/sketch -->
    <title>Combined Shape</title>
    <desc>Created with Sketch.</desc>
    <defs></defs>
    <g id="⚙️-Settings-/-modals" stroke="none" stroke-width="1" fill="none" fill-rule="evenodd">
        <g id="User/settings-dropdown" transform="translate(-1057.000000, -325.000000)" fill="#3FBD7C" fill-rule="nonzero">
            <g id="Group-5" transform="translate(1024.000000, 56.000000)">
                <path d="M41.9724421,272.686346 L36.311982,279.204394 L39.0784265,279.204394 C39.608361,279.204394 40.0377667,279.631516 40.0375329,280.154031 L40.0354695,284.765314 L45.7035196,278.253354 L42.9255656,278.253354 C42.3934263,278.253354 41.962841,277.825764 41.9638182,277.302677 L41.9724421,272.686346 Z M43.8861266,276.351275 L47.9569078,276.351275 C49.019064,276.351275 49.3205172,276.995312 48.6264928,277.794065 L39.9945372,287.728583 C38.9558753,288.923979 38.1138734,288.619063 38.1138734,287.037726 L38.1138734,281.106473 L34.0430922,281.106473 C32.980936,281.106473 32.6794828,280.462436 33.3735072,279.663683 L42.0054628,269.729165 C43.0441247,268.533769 43.8861266,268.838685 43.8861266,270.420021 L43.8861266,276.351275 Z" id="Combined-Shape"></path>
            </g>
        </g>
    </g>
</svg>