<?xml version="1.0" encoding="UTF-8"?>
<svg width="16px" height="17px" viewBox="0 0 16 17" version="1.1" xmlns="http://www.w3.org/2000/svg" xmlns:xlink="http://www.w3.org/1999/xlink">
    <!-- Generator: Sketch 50.2 (55047) - http://www.bohemiancoding.com/sketch -->
    <title>Combined Shape</title>
    <desc>Created with Sketch.</desc>
    <defs></defs>
    <g id="⚙️-Settings-/-modals" stroke="none" stroke-width="1" fill="none" fill-rule="evenodd">
        <g id="User/settings-dropdown" transform="translate(-1056.000000, -606.000000)" fill="#34414F">
            <g id="Group-5" transform="translate(1024.000000, 56.000000)">
                <path d="M44.9600089,556.100876 C44.638622,555.793227 44.6370684,555.292933 44.9565389,554.983438 C45.2760095,554.673943 45.7955271,554.672447 46.1169141,554.980096 L47.7579397,556.550976 C48.0793308,556.85863 48.0808797,557.358932 47.7613995,557.668425 L46.1203738,559.258152 C45.8008976,559.567641 45.2813799,559.569128 44.9599986,559.261474 C44.6386173,558.953819 44.637073,558.453524 44.9565492,558.144035 L45.2051843,557.901518 L41.0232042,557.901518 C40.5713933,557.901518 40.2051282,557.550798 40.2051282,557.111366 C40.2051282,556.674978 40.5721082,556.321215 41.0232042,556.321215 L45.1901863,556.321215 L44.9600089,556.100876 Z M38.5641025,564.222733 L38.5641025,565.97198 C38.5641025,566.806341 37.7070038,567.271438 36.965871,566.830103 L32.7351565,564.31077 C32.3026511,564.053219 32,563.528209 32,563.040355 L32,551.182378 C32,550.929736 32.0785838,550.710951 32.208737,550.540935 C32.2198536,550.51301 32.2354274,550.485898 32.2565525,550.459666 C32.4819074,550.179824 32.8349769,550 33.2310542,550 L42.2561252,550 C42.9344461,550 43.4871795,550.530968 43.4871795,551.182378 L43.4871795,553.160607 C43.4871795,553.596996 43.1198234,553.950759 42.6666666,553.950759 C42.2135099,553.950759 41.8461538,553.596996 41.8461538,553.160607 L41.8461538,551.580304 L35.7017081,551.576847 L37.828946,552.843588 C38.2614514,553.101139 38.5641025,553.626149 38.5641025,554.114003 L38.5641025,562.642429 L41.8461538,562.642429 L41.8461538,561.062126 C41.8461538,560.625737 42.2135099,560.271974 42.6666666,560.271974 C43.1198234,560.271974 43.4871795,560.625737 43.4871795,561.062126 L43.4871795,563.040355 C43.4871795,563.694781 42.9347864,564.222733 42.2561252,564.222733 L38.5641025,564.222733 Z M36.9272212,554.186831 L33.6410256,552.221048 L33.6410256,563.030512 L36.9272213,564.957309 L36.9272212,554.186831 Z" id="Combined-Shape"></path>
            </g>
        </g>
    </g>
</svg>