<?xml version="1.0" encoding="UTF-8"?>
<svg width="16px" height="16px" viewBox="0 0 16 16" version="1.1" xmlns="http://www.w3.org/2000/svg" xmlns:xlink="http://www.w3.org/1999/xlink">
    <!-- Generator: Sketch 50.2 (55047) - http://www.bohemiancoding.com/sketch -->
    <title>Combined Shape</title>
    <desc>Created with Sketch.</desc>
    <defs></defs>
    <g id="⚙️-Settings-/-modals" stroke="none" stroke-width="1" fill="none" fill-rule="evenodd">
        <g id="User/settings-dropdown" transform="translate(-1057.000000, -130.000000)" fill="#34414F">
            <g id="Group-5" transform="translate(1024.000000, 56.000000)">
                <path d="M34.6842105,85.8495133 L34.6842105,86.9620694 C34.9605094,87.1372697 37.1680358,88.31579 40.9999998,88.3157895 C44.8319638,88.315789 47.0397798,87.1385222 47.3157895,86.9634177 L47.3157895,85.8495133 C47.3157895,84.4417669 44.3102288,83.346964 44.0959834,83.2631579 C43.4236998,84.5168231 42.4297968,85.4471677 41,85.4471679 C39.5709609,85.4471682 38.5773537,84.5178094 37.9050857,83.2651512 C37.6930143,83.3479636 34.6842105,84.4389131 34.6842105,85.8495133 Z M36.6,78.1429189 C36.6,75.854848 38.5699471,74 41,74 C43.4300529,74 45.4,75.854848 45.4,78.1429189 C45.4,79.1138662 45.2304062,80.6035973 44.770895,81.9969755 C46.3732222,82.6091112 49,83.6005859 49,85.9923874 L49,87.5981076 C49,88.4821522 45.5479492,89.9999994 41,90 C36.4520508,90.0000006 33,88.4791361 33,87.5981076 L33,85.9923874 C33,83.592334 35.628248,82.6099711 37.2297842,81.9990345 C36.7697609,80.605065 36.6,79.1143444 36.6,78.1429189 Z M40.9999997,84.1052632 C42.6585926,84.1052629 43.9473684,81.2041172 43.9473684,78.2335027 C43.9473684,76.8478762 42.6496999,75.6842105 41,75.6842105 C39.3503001,75.6842105 38.0526316,76.8478762 38.0526316,78.2335027 C38.0526316,81.2041174 39.3414074,84.1052634 40.9999997,84.1052632 Z" id="Combined-Shape"></path>
            </g>
        </g>
    </g>
</svg>