<?xml version="1.0" encoding="UTF-8"?>
<svg width="16px" height="12px" viewBox="0 0 16 12" version="1.1" xmlns="http://www.w3.org/2000/svg" xmlns:xlink="http://www.w3.org/1999/xlink">
    <!-- Generator: Sketch 52.3 (67297) - http://www.bohemiancoding.com/sketch -->
    <title>Combined Shape</title>
    <desc>Created with Sketch.</desc>
    <g id="Billing" stroke="none" stroke-width="1" fill="none" fill-rule="evenodd">
        <g id="Billing-in-dropdown" transform="translate(-865.000000, -320.000000)" fill="#34414F">
            <g id="Group-6" transform="translate(832.000000, 48.000000)">
                <path d="M47.5454545,273.5 L34.4545455,273.5 L34.4545455,275 L47.5454545,275 L47.5454545,273.5 Z M47.5454545,277.25 L34.4545455,277.25 L34.4545455,282.5 L47.5454545,282.5 L47.5454545,277.25 Z M33,273.501597 C33,272.672288 33.6520332,272 34.4552036,272 L47.5447964,272 C48.3484831,272 49,272.670885 49,273.501597 L49,282.498403 C49,283.327712 48.3479668,284 47.5447964,284 L34.4552036,284 C33.6515169,284 33,283.329115 33,282.498403 L33,273.501597 Z M43.1818182,279.5 C43.1818182,279.085786 43.5042569,278.75 43.9084005,278.75 L45.3643268,278.75 C45.7656071,278.75 46.0909091,279.082899 46.0909091,279.5 C46.0909091,279.914214 45.7684704,280.25 45.3643268,280.25 L43.9084005,280.25 C43.5071202,280.25 43.1818182,279.917101 43.1818182,279.5 Z" id="Combined-Shape"></path>
            </g>
        </g>
    </g>
</svg>