<?xml version="1.0" encoding="UTF-8"?>
<svg width="16px" height="16px" viewBox="0 0 16 16" version="1.1" xmlns="http://www.w3.org/2000/svg" xmlns:xlink="http://www.w3.org/1999/xlink">
    <!-- Generator: Sketch 50.2 (55047) - http://www.bohemiancoding.com/sketch -->
    <title>Combined Shape Copy 2</title>
    <desc>Created with Sketch.</desc>
    <defs></defs>
    <g id="⚙️-Settings-/-modals" stroke="none" stroke-width="1" fill="none" fill-rule="evenodd">
        <g id="User/settings-dropdown" transform="translate(-1057.000000, -299.000000)" fill="#3FBD7C" fill-rule="nonzero">
            <g id="Group-5" transform="translate(1024.000000, 56.000000)">
                <g id="Group-2" transform="translate(33.000000, 243.000000)">
                    <path d="M8.82326854,9.63100413 C10.3377117,10.1926114 12.0555782,9.83353937 13.2177441,8.67137355 C13.8568806,8.032237 14.2225159,7.25529172 14.3138814,6.40441436 C13.9446664,6.77362911 12.9253906,7.78625271 12.9253906,7.78625271 C12.5652347,8.14640856 11.9663438,8.32820285 11.4676765,8.22846939 L9.34260447,7.80345498 C8.78710172,7.69235443 8.3092722,7.21404777 8.19829093,6.65914145 L7.77327653,4.53406941 C7.67338823,4.03462795 7.85501008,3.43683849 8.21549321,3.07635535 L9.59967315,1.69217541 C9.31153906,1.73279842 8.36111323,1.75326099 7.33037237,2.78400186 C6.16820657,3.94616766 5.80913443,5.66403432 6.37074127,7.17847874 C6.48388026,7.48357242 6.40891633,7.82661808 6.17882658,8.05670783 L2.03304353,12.2024909 C1.54270064,12.6928338 1.5429062,13.4811764 2.03173784,13.9700081 C2.5183663,14.4566365 3.31136481,14.4565926 3.79925506,13.9687024 L7.94503907,9.82291865 C8.17512892,9.59282882 8.51817478,9.51786494 8.82326854,9.63100413 Z M15.7815744,4.34218646 C16.3245547,6.37543423 15.8635156,8.38055073 14.3952184,9.84884789 C12.9007036,11.3433627 10.7488977,11.8891203 8.76556772,11.3583337 C8.61943318,11.5044678 4.97672938,15.1461767 4.97672938,15.1461767 C3.83856722,16.2843389 1.99122228,16.2844412 0.854263504,15.1474824 C-0.284731827,14.0084871 -0.28521233,12.1657981 0.855569191,11.0250165 L4.64061176,7.23997397 C4.07575261,5.70037803 4.52631311,3.23311244 6.15289803,1.60652752 C7.62119518,0.138230365 9.62631169,-0.322808814 11.6595595,0.220171484 C12.2790946,0.385618801 12.4869078,1.15988948 12.0334783,1.61331898 L9.39296755,4.25382969 L9.80097134,6.20077457 L11.7479162,6.60877837 L14.3884269,3.96826766 C14.8418564,3.51483816 15.6161271,3.7226513 15.7815744,4.34218646 Z" id="Combined-Shape-Copy-2"></path>
                </g>
            </g>
        </g>
    </g>
</svg>