<?xml version="1.0" encoding="UTF-8"?>
<svg width="20px" height="15px" viewBox="0 0 20 15" version="1.1" xmlns="http://www.w3.org/2000/svg" xmlns:xlink="http://www.w3.org/1999/xlink">
    <!-- Generator: Sketch 52.6 (67491) - http://www.bohemiancoding.com/sketch -->
    <title>Combined Shape</title>
    <desc>Created with Sketch.</desc>
    <g id="Mobile" stroke="none" stroke-width="1" fill="none" fill-rule="evenodd">
        <g id="Action-sheet-(m)" transform="translate(-30.000000, -604.000000)" fill="#34414F">
            <g id="Group-10" transform="translate(0.000000, 336.000000)">
                <g id="Group-9" transform="translate(16.000000, 202.000000)">
                    <g id="Group-7" transform="translate(0.000000, 49.000000)">
                        <path d="M31.19795,29.1895901 C29.2247094,30.9411254 26.7238814,32 24,32 C21.2764814,32 18.7758798,30.9394886 16.8017525,29.1856352 C15.1309234,27.7012378 14,25.8253806 14,24.5 C14,23.1743878 15.1291423,21.298449 16.7982296,19.814574 C18.7713539,18.0603997 21.2726182,17 24,17 C26.7277451,17 29.2292338,18.0587623 31.201473,19.8106189 C32.8715996,21.2941218 34,23.17006 34,24.5 C34,25.8297077 32.869819,27.7055655 31.19795,29.1895901 Z M17.9884641,27.7650904 C19.647755,29.239237 21.7363138,30.125 24,30.125 C26.2645895,30.125 28.3534817,29.240543 30.0118334,27.7685169 C31.3218203,26.6057148 32.1818182,25.178303 32.1818182,24.5 C32.1818182,23.8207064 31.3233549,22.3935321 30.0148856,21.2312741 C28.3577187,19.7592828 26.2684646,18.875 24,18.875 C21.7324387,18.875 19.6435169,19.760589 17.9854119,21.2347005 C16.6776357,22.3973578 15.8181818,23.8252404 15.8181818,24.5 C15.8181818,25.173769 16.6791724,26.6018899 17.9884641,27.7650904 Z M27.6363636,24.5 C27.6363636,26.5710678 26.0083082,28.25 24,28.25 C21.9916918,28.25 20.3636364,26.5710678 20.3636364,24.5 C20.3636364,22.4289322 21.9916918,20.75 24,20.75 C26.0083082,20.75 27.6363636,22.4289322 27.6363636,24.5 Z" id="Combined-Shape"></path>
                    </g>
                </g>
            </g>
        </g>
    </g>
</svg>