<?xml version="1.0" encoding="UTF-8"?>
<svg width="16px" height="18px" viewBox="0 0 16 18" version="1.1" xmlns="http://www.w3.org/2000/svg" xmlns:xlink="http://www.w3.org/1999/xlink">
    <!-- Generator: Sketch 52.6 (67491) - http://www.bohemiancoding.com/sketch -->
    <title>Combined Shape</title>
    <desc>Created with Sketch.</desc>
    <g id="Unread" stroke="none" stroke-width="1" fill="none" fill-rule="evenodd">
        <g id="Unread:-Action-bar-states" transform="translate(-230.000000, -297.000000)" fill="#34414F">
            <g id="Group-2-Copy" transform="translate(137.000000, 288.000000)">
                <path d="M93.693955,23.7669216 C93.2635754,23.3280486 93,22.738558 93,22.0909091 C93,21.1919213 93.5099294,20.3906578 94.2893327,19.9627149 C94.2893327,19.7144095 94.2857143,16.7715718 94.2857143,16.7715718 C94.2857143,13.944355 96.2740255,11.5640681 99,10.8529604 L99,10.6363636 C99,9.73262495 99.7675119,9 100.714286,9 C101.66106,9 102.428571,9.73262495 102.428571,10.6363636 L102.428571,10.8529604 C103.462934,11.1226733 104.390965,11.632664 105.144478,12.3163982 L103.956054,13.5048224 C103.111376,12.7408643 101.970499,12.2727273 100.714286,12.2727273 C98.1101891,12.2727273 96,14.28673 96,16.7715718 L96,21.4608766 L93.693955,23.7669216 Z M107.142139,16.6826983 C107.142617,16.7136883 107.142857,16.7447343 107.142857,16.7758347 L107.142857,19.9698595 C107.923175,20.3998155 108.428571,21.1977416 108.428571,22.0909091 C108.428571,23.4471219 107.277456,24.5454545 105.855318,24.5454545 L103.285713,24.5454545 C103.284264,25.9012994 102.130666,27 100.714286,27 C99.6429592,27 98.7246526,26.3752627 98.3381627,25.4866749 L100.915747,22.9090909 L105.855318,22.9090909 C106.330842,22.9090909 106.714286,22.5432299 106.714286,22.0909091 C106.714286,21.7169557 106.446194,21.3912304 106.071179,21.2986886 L105.846426,21.2432266 C105.617899,21.1868334 105.428571,20.95629 105.428571,20.7295325 L105.428571,18.3962662 L107.142139,16.6826983 Z M106.461004,12.818147 C106.837581,12.44157 107.448133,12.44157 107.82471,12.818147 C108.201287,13.194724 108.201287,13.805276 107.82471,14.181853 L96.2532815,25.7532815 C95.8767045,26.1298585 95.2661526,26.1298585 94.8895756,25.7532815 C94.5129986,25.3767045 94.5129986,24.7661526 94.8895756,24.3895756 L106.461004,12.818147 Z" id="Combined-Shape"></path>
            </g>
        </g>
    </g>
</svg>