<?xml version="1.0" encoding="UTF-8"?>
<svg width="16px" height="18px" viewBox="0 0 16 18" version="1.1" xmlns="http://www.w3.org/2000/svg" xmlns:xlink="http://www.w3.org/1999/xlink">
    <!-- Generator: Sketch 52.6 (67491) - http://www.bohemiancoding.com/sketch -->
    <title>Combined Shape</title>
    <desc>Created with Sketch.</desc>
    <g id="Unread" stroke="none" stroke-width="1" fill="none" fill-rule="evenodd">
        <g id="Unread:-Action-bar-states" transform="translate(-230.000000, -257.000000)" fill="#34414F">
            <g id="Group" transform="translate(137.000000, 248.000000)">
                <path d="M95.5732533,24.5454545 C94.1528055,24.5454545 93,23.445366 93,22.0909091 C93,21.1919213 93.5099294,20.3906578 94.2893327,19.9627149 C94.2893327,19.7144095 94.2857143,16.7715718 94.2857143,16.7715718 C94.2857143,13.944355 96.2740255,11.5640681 99,10.8529604 L99,10.6363636 C99,9.73262495 99.7675119,9 100.714286,9 C101.66106,9 102.428571,9.73262495 102.428571,10.6363636 L102.428571,10.8529604 C105.15513,11.563918 107.142857,13.9444184 107.142857,16.7758347 L107.142857,19.9698595 C107.923175,20.3998155 108.428571,21.1977416 108.428571,22.0909091 C108.428571,23.4471219 107.277456,24.5454545 105.855318,24.5454545 L103.285713,24.5454545 C103.284264,25.9012994 102.130666,27 100.714286,27 C99.2941249,27 98.1428571,25.902186 98.1428571,24.5472136 L95.5732533,24.5454545 Z M105.428571,20.7295325 L105.428571,16.7758347 C105.428571,14.2860529 103.319443,12.2727273 100.714286,12.2727273 C98.1101891,12.2727273 96,14.28673 96,16.7715718 L96,20.7295107 C96,20.9583655 95.8159217,21.1857663 95.5888497,21.2415657 L95.3565492,21.2986499 C94.9812895,21.3908641 94.7142857,21.715322 94.7142857,22.0909091 C94.7142857,22.5415219 95.0994689,22.9090909 95.5732533,22.9090909 L105.855318,22.9090909 C106.330842,22.9090909 106.714286,22.5432299 106.714286,22.0909091 C106.714286,21.7169557 106.446194,21.3912304 106.071179,21.2986886 L105.846426,21.2432266 C105.617899,21.1868334 105.428571,20.95629 105.428571,20.7295325 Z" id="Combined-Shape"></path>
            </g>
        </g>
    </g>
</svg>