<?xml version="1.0" encoding="UTF-8"?>
<svg width="16px" height="16px" viewBox="0 0 16 16" version="1.1" xmlns="http://www.w3.org/2000/svg" xmlns:xlink="http://www.w3.org/1999/xlink">
    <!-- Generator: Sketch 52.6 (67491) - http://www.bohemiancoding.com/sketch -->
    <title>Combined Shape</title>
    <desc>Created with Sketch.</desc>
    <g id="Mobile" stroke="none" stroke-width="1" fill="none" fill-rule="evenodd">
        <g id="Action-sheet-(m)" transform="translate(-32.000000, -384.000000)" fill="#34414F">
            <g id="Group-10" transform="translate(0.000000, 336.000000)">
                <g id="Group-2" transform="translate(16.000000, 32.000000)">
                    <path d="M17.1428571,28.630193 L17.1440164,29.3621109 C17.554381,29.2217031 18.0272283,29.3148921 18.3546533,29.641678 C18.6835024,29.9698852 18.7762573,30.4444963 18.632918,30.8552927 L19.3587253,30.8571429 L20.5714286,29.6468067 L18.3488548,27.4285714 C17.6189616,28.1558114 17.1428571,28.630193 17.1428571,28.630193 Z M29.2646091,16.4691947 L31.5310751,18.7365336 C32.1557553,19.3614543 32.1565044,20.3739016 31.532144,20.9985024 L20.8168021,31.7179716 C20.661102,31.8737316 20.3571095,32 20.1324417,32 L16.800307,32 C16.3583097,32 16,31.6440617 16,31.1994822 L16,27.8664697 C16,27.6441494 16.1280554,27.3359446 16.2820651,27.1820273 L27.0029288,16.4675944 C27.6273402,15.8435575 28.6398354,15.8441804 29.2646091,16.4691947 Z" id="Combined-Shape"></path>
                </g>
            </g>
        </g>
    </g>
</svg>