<?xml version="1.0" encoding="UTF-8"?>
<svg width="14px" height="16px" viewBox="0 0 14 16" version="1.1" xmlns="http://www.w3.org/2000/svg" xmlns:xlink="http://www.w3.org/1999/xlink">
    <!-- Generator: Sketch 52.6 (67491) - http://www.bohemiancoding.com/sketch -->
    <title>Combined Shape</title>
    <desc>Created with Sketch.</desc>
    <g id="Mobile" stroke="none" stroke-width="1" fill="none" fill-rule="evenodd">
        <g id="Action-sheet-(m)" transform="translate(-33.000000, -482.000000)" fill="#34414F" fill-rule="nonzero">
            <g id="Group-10" transform="translate(0.000000, 336.000000)">
                <g id="Group-2" transform="translate(16.000000, 32.000000)">
                    <path d="M19.625,128.316095 C19.625,128.316943 28.376383,128.315789 28.376383,128.315789 C28.3746891,128.315789 28.3748614,120.065672 28.374963,117.368421 L19.625,117.368421 L19.625,128.316095 Z M30.125,128.316095 C30.125,129.24609 29.3400724,130 28.376383,130 L19.623617,130 C18.6578825,130 17.875,129.247665 17.875,128.316095 L17.875,117.368421 C17.3916802,117.368028 17,116.994394 17,116.526316 C17,116.061234 17.389052,115.684211 17.8757627,115.684211 L22.25,115.684211 C22.25,114.754047 23.0335017,114 24,114 C24.9664983,114 25.75,114.754047 25.75,115.684211 L30.1242373,115.684211 C30.6079077,115.684211 31,116.057991 31,116.526316 C31,116.991155 30.6113544,117.368027 30.125,117.368421 L30.125,128.316095 Z M24.875,119.892669 C24.875,119.428729 25.2633817,119.052632 25.75,119.052632 C26.2332492,119.052632 26.625,119.428473 26.625,119.892669 L26.625,125.791541 C26.625,126.255481 26.2366183,126.631579 25.75,126.631579 C25.2667508,126.631579 24.875,126.255738 24.875,125.791541 L24.875,119.892669 Z M21.375,119.892669 C21.375,119.428729 21.7633817,119.052632 22.25,119.052632 C22.7332492,119.052632 23.125,119.428473 23.125,119.892669 L23.125,125.791541 C23.125,126.255481 22.7366183,126.631579 22.25,126.631579 C21.7667508,126.631579 21.375,126.255738 21.375,125.791541 L21.375,119.892669 Z" id="Combined-Shape"></path>
                </g>
            </g>
        </g>
    </g>
</svg>