<?xml version="1.0" encoding="UTF-8"?>
<svg width="16px" height="15px" viewBox="0 0 16 15" version="1.1" xmlns="http://www.w3.org/2000/svg" xmlns:xlink="http://www.w3.org/1999/xlink">
    <!-- Generator: Sketch 52.6 (67491) - http://www.bohemiancoding.com/sketch -->
    <title>Combined Shape</title>
    <desc>Created with Sketch.</desc>
    <g id="New" stroke="none" stroke-width="1" fill="none" fill-rule="evenodd">
        <g id="Inbox:-Action-bar-states" transform="translate(-228.000000, -297.000000)" fill="#34414F">
            <g id="Group" transform="translate(137.000000, 179.000000)">
                <path d="M95.2861611,130.379067 L93.5511026,132.258714 C93.2701498,132.563079 92.7956555,132.582059 92.4912899,132.301106 C92.1869244,132.020154 92.1679446,131.545659 92.4488974,131.241294 L93.9749721,129.588046 C93.7216253,129.40451 93.4768338,129.207674 93.241402,128.998512 C91.9047387,127.810994 91,126.310308 91,125.250004 C91,124.189514 91.9033139,122.688763 93.2385837,121.501663 C94.8170831,120.098324 96.8180945,119.250004 99,119.250004 C100.323112,119.250004 101.579682,119.561386 102.71568,120.118946 L104.448897,118.241294 C104.72985,117.936928 105.204345,117.917948 105.50871,118.198901 C105.813076,118.479854 105.832055,118.954348 105.551103,119.258714 L104.027545,120.909235 C104.280976,121.092668 104.525789,121.289413 104.761178,121.498499 C106.09728,122.685301 107,124.186052 107,125.250004 C107,126.31377 106.095855,127.814456 104.75836,129.001676 C103.179768,130.402904 101.179105,131.250004 99,131.250004 C97.6783708,131.250004 96.4223578,130.937839 95.2861611,130.379067 Z M94.9911976,128.487135 L96.524332,126.82624 C96.2495249,126.368199 96.0909091,125.828204 96.0909091,125.250004 C96.0909091,123.593149 97.3933535,122.250004 99,122.250004 C99.5094775,122.250004 99.9883655,122.385066 100.404833,122.622363 L101.648621,121.274926 C100.821486,120.935606 99.9295504,120.750004 99,120.750004 C97.185951,120.750004 95.5148135,121.458475 94.1883295,122.637764 C93.1421085,123.56789 92.4545455,124.710196 92.4545455,125.250004 C92.4545455,125.789019 93.1433379,126.931516 94.1907713,127.862076 C94.4454205,128.088311 94.7127077,128.297224 94.9911976,128.487135 Z M96.3528906,129.223443 C97.1801884,129.563802 98.0716869,129.750004 99,129.750004 C100.811672,129.750004 102.482785,129.042438 103.809467,127.864817 C104.857456,126.934576 105.545455,125.792646 105.545455,125.250004 C105.545455,124.706569 104.858684,123.564829 103.811908,122.635023 C103.557291,122.408857 103.289923,122.200034 103.011238,122.010234 L101.475668,123.673768 C101.750475,124.131809 101.909091,124.671804 101.909091,125.250004 C101.909091,126.906858 100.606647,128.250004 99,128.250004 C98.4905225,128.250004 98.0116345,128.114942 97.5951669,127.877644 L96.3528906,129.223443 Z" id="Combined-Shape"></path>
            </g>
        </g>
    </g>
</svg>