<?xml version="1.0" encoding="UTF-8"?>
<svg width="324px" height="274px" viewBox="0 0 324 274" version="1.1" xmlns="http://www.w3.org/2000/svg" xmlns:xlink="http://www.w3.org/1999/xlink">
    <!-- Generator: Sketch 48.1 (47250) - http://www.bohemiancoding.com/sketch -->
    <title>BG</title>
    <desc>Created with Sketch.</desc>
    <defs>
        <path d="M23.1326653,162.0067 C17.3617161,122.987587 33.9875723,87.9392137 65.1429665,63.4109751 C95.6842655,38.8139079 140.757312,24.7369751 177.713476,26.0893146 C216.361716,27.441654 241.5341,43.7463115 267.450908,68.269703 C292.283109,92.8619232 317.86084,125.672877 332.294287,161.608269 C346.725526,197.565957 337.727263,230.177211 306.620466,254.783972 C276.598277,279.302516 224.467553,295.816568 177.713476,297.526623 C129.268429,299.236679 97.0372632,285.368171 71.6406688,260.766256 C46.8559606,236.253529 28.9058235,201.005455 23.1326653,162.0067" id="path-1"></path>
    </defs>
    <g id="Empty-board-(m)" stroke="none" stroke-width="1" fill="none" fill-rule="evenodd" transform="translate(-27.000000, -169.000000)">
        <g id="Group-9" transform="translate(7.000000, 142.000000)">
            <g id="Graphic">
                <g id="BG">
                    <mask id="mask-2" fill="white">
                        <use xlink:href="#path-1"></use>
                    </mask>
                    <use id="Blob" fill="#E4E3DE" transform="translate(180.500000, 161.834110) rotate(-10.000000) translate(-180.500000, -161.834110) " xlink:href="#path-1"></use>
                    <g id="Topic" mask="url(#mask-2)">
                        <g transform="translate(46.000000, 44.000000)">
                            <g id="2" transform="translate(0.000000, 181.730769)">
                                <path d="M259.615385,5.19230769 L166.153846,5.19230769 L10.3846154,5.19230769 C4.64971154,5.19230769 0,9.84201923 0,15.5769231 L0,80.6345913 C0,85.2434135 3.03425481,89.3050962 7.45745192,90.5986298 C12.1766106,91.9791346 17.9095673,93.4615385 20.7692308,93.4615385 C26.1212019,93.4615385 36.1858413,88.2692308 41.5384615,88.2692308 C46.8904327,88.2692308 56.9557212,93.4615385 62.3076923,93.4615385 C67.6596635,93.4615385 77.7249519,88.2692308 83.0769231,88.2692308 C88.4288942,88.2692308 98.4941827,93.4615385 103.846154,93.4615385 C109.198125,93.4615385 119.263413,88.2692308 124.615385,88.2692308 C129.967356,88.2692308 140.032644,93.4615385 145.384615,93.4615385 C150.736587,93.4615385 160.801875,88.2692308 166.153846,88.2692308 C171.505817,88.2692308 181.571106,93.4615385 186.923077,93.4615385 C192.275048,93.4615385 202.340337,88.2692308 207.692308,88.2692308 C213.044279,88.2692308 223.109567,93.4615385 228.461538,93.4615385 C233.81351,93.4615385 243.878798,88.2692308 249.230769,88.2692308 C251.024062,88.2692308 253.947332,88.8520673 257.041947,89.6276683 C263.618005,91.2742788 270,86.3461298 270,79.5669231 L270,15.5769231 C270,9.84201923 265.350937,5.19230769 259.615385,5.19230769" id="Fill-2" fill="#F3F2EE"></path>
                                <path d="M270,74.3744856 C270,81.1536923 263.618005,86.0824904 257.041947,84.4352308 C253.947332,83.6596298 251.024062,83.0767933 249.230769,83.0767933 C243.878798,83.0767933 233.81351,88.269101 228.461538,88.269101 C223.108918,88.269101 213.044279,83.0767933 207.692308,83.0767933 C202.340337,83.0767933 192.275048,88.269101 186.923077,88.269101 C181.571106,88.269101 166.153846,83.0767933 166.153846,83.0767933 L166.153846,-0.000129807692 L259.615385,-0.000129807692 C265.350937,-0.000129807692 270,4.64958173 270,10.3844856 L270,74.3744856 Z" id="Fill-4" fill="#F3F2EE"></path>
                                <path d="M166.153846,83.0769231 C166.153846,83.0769231 150.736587,88.2692308 145.384615,88.2692308 C140.032644,88.2692308 129.967356,83.0769231 124.615385,83.0769231 C119.263413,83.0769231 109.198125,88.2692308 103.846154,88.2692308 C98.4941827,88.2692308 88.4288942,83.0769231 83.0769231,83.0769231 C77.7249519,83.0769231 67.6603125,88.2692308 62.3076923,88.2692308 C56.9557212,88.2692308 46.8904327,83.0769231 41.5384615,83.0769231 C36.1858413,83.0769231 26.1212019,88.2692308 20.7692308,88.2692308 C17.9095673,88.2692308 12.1766106,86.7868269 7.45745192,85.4063221 C3.03425481,84.1127885 0,80.0511058 0,75.4429327 L0,10.3846154 C0,4.64971154 4.64971154,0 10.3846154,0 L166.153846,0 L166.153846,83.0769231 Z" id="Fill-6" fill="#FFFFFF"></path>
                                <path d="M62.3076923,17.5240385 L41.5384615,17.5240385 C40.4630048,17.5240385 39.5913462,16.6523798 39.5913462,15.5769231 C39.5913462,14.5014663 40.4630048,13.6298077 41.5384615,13.6298077 L62.3076923,13.6298077 C63.383149,13.6298077 64.2548077,14.5014663 64.2548077,15.5769231 C64.2548077,16.6523798 63.383149,17.5240385 62.3076923,17.5240385" id="Fill-8" fill="#BCBCBB"></path>
                                <path d="M150.576923,48.6778846 L15.5769231,48.6778846 C14.5014663,48.6778846 13.6298077,47.806226 13.6298077,46.7307692 C13.6298077,45.6553125 14.5014663,44.7836538 15.5769231,44.7836538 L150.576923,44.7836538 C151.65238,44.7836538 152.524038,45.6553125 152.524038,46.7307692 C152.524038,47.806226 151.65238,48.6778846 150.576923,48.6778846" id="Fill-10" fill="#D6D6D6"></path>
                                <path d="M150.576923,59.0625 L15.5769231,59.0625 C14.5014663,59.0625 13.6298077,58.1908413 13.6298077,57.1153846 C13.6298077,56.0399279 14.5014663,55.1682692 15.5769231,55.1682692 L150.576923,55.1682692 C151.65238,55.1682692 152.524038,56.0399279 152.524038,57.1153846 C152.524038,58.1908413 151.65238,59.0625 150.576923,59.0625" id="Fill-12" fill="#D6D6D6"></path>
                                <path d="M135,69.4471154 L15.5769231,69.4471154 C14.5014663,69.4471154 13.6298077,68.5754567 13.6298077,67.5 C13.6298077,66.4245433 14.5014663,65.5528846 15.5769231,65.5528846 L135,65.5528846 C136.075457,65.5528846 136.947115,66.4245433 136.947115,67.5 C136.947115,68.5754567 136.075457,69.4471154 135,69.4471154" id="Fill-14" fill="#D6D6D6"></path>
                                <path d="M51.9230769,27.9086538 L41.5384615,27.9086538 C40.4630048,27.9086538 39.5913462,27.0369952 39.5913462,25.9615385 C39.5913462,24.8860817 40.4630048,24.0144231 41.5384615,24.0144231 L51.9230769,24.0144231 C52.9985337,24.0144231 53.8701923,24.8860817 53.8701923,25.9615385 C53.8701923,27.0369952 52.9985337,27.9086538 51.9230769,27.9086538" id="Fill-16" fill="#D6D6D6"></path>
                                <path d="M254.423077,31.1538462 L181.730769,31.1538462 C178.863317,31.1538462 176.538462,28.8289904 176.538462,25.9615385 L176.538462,15.5769231 C176.538462,12.7094712 178.863317,10.3846154 181.730769,10.3846154 L254.423077,10.3846154 C257.290529,10.3846154 259.615385,12.7094712 259.615385,15.5769231 L259.615385,25.9615385 C259.615385,28.8289904 257.290529,31.1538462 254.423077,31.1538462" id="Fill-18" fill="#FFFFFF"></path>
                                <path d="M11.200976,20.7045865 C12.2264567,16.004899 16.0038606,12.1132644 20.769101,12.1152115 C25.5343413,12.1132644 29.3110962,16.004899 30.337226,20.7045865 C31.332851,25.2381202 27.04725,29.8969183 20.769101,30.0358125 C14.49225,29.8969183 10.205351,25.2381202 11.200976,20.7045865" id="Fill-20" fill="#52DE96"></path>
                                <path d="M20.7692308,23.7979687 C19.5762981,23.7979687 18.6059856,22.8276562 18.6059856,21.6347236 C18.6059856,21.3958774 18.799399,21.2018149 19.0382452,21.2018149 C19.2777404,21.2018149 19.4711538,21.3958774 19.4711538,21.6347236 C19.4711538,22.350613 20.0533413,22.9328005 20.7692308,22.9328005 C21.4851202,22.9328005 22.0673077,22.350613 22.0673077,21.6347236 C22.0673077,21.3958774 22.2607212,21.2018149 22.5002163,21.2018149 C22.7390625,21.2018149 22.932476,21.3958774 22.932476,21.6347236 C22.932476,22.8276562 21.9621635,23.7979687 20.7692308,23.7979687" id="Fill-22" fill="#34414F"></path>
                                <path d="M15.5769231,19.903738 C15.5769231,19.4260457 15.964399,19.0385697 16.4420913,19.0385697 C16.9204327,19.0385697 17.3079087,19.4260457 17.3079087,19.903738 C17.3079087,20.3814303 16.9204327,20.7689063 16.4420913,20.7689063 C15.964399,20.7689063 15.5769231,20.3814303 15.5769231,19.903738" id="Fill-24" fill="#34414F"></path>
                                <path d="M24.2308774,19.903738 C24.2308774,19.4260457 24.6183534,19.0385697 25.0960457,19.0385697 C25.573738,19.0385697 25.961863,19.4260457 25.961863,19.903738 C25.961863,20.3814303 25.573738,20.7689063 25.0960457,20.7689063 C24.6183534,20.7689063 24.2308774,20.3814303 24.2308774,19.903738" id="Fill-26" fill="#34414F"></path>
                                <path d="M254.423077,53.8701923 L197.307692,53.8701923 C196.232236,53.8701923 195.360577,52.9985337 195.360577,51.9230769 C195.360577,50.8476202 196.232236,49.9759615 197.307692,49.9759615 L254.423077,49.9759615 C255.498534,49.9759615 256.370192,50.8476202 256.370192,51.9230769 C256.370192,52.9985337 255.498534,53.8701923 254.423077,53.8701923" id="Fill-28" fill="#BCBCBB"></path>
                                <path d="M233.653846,64.2548077 L197.307692,64.2548077 C196.232236,64.2548077 195.360577,63.383149 195.360577,62.3076923 C195.360577,61.2322356 196.232236,60.3605769 197.307692,60.3605769 L233.653846,60.3605769 C234.729303,60.3605769 235.600962,61.2322356 235.600962,62.3076923 C235.600962,63.383149 234.729303,64.2548077 233.653846,64.2548077" id="Fill-30" fill="#BCBCBB"></path>
                                <path d="M176.538462,51.9230769 C176.538462,49.055625 178.863317,46.7307692 181.730769,46.7307692 C184.598221,46.7307692 186.923077,49.055625 186.923077,51.9230769 C186.923077,54.7905288 184.598221,57.1153846 181.730769,57.1153846 C178.863317,57.1153846 176.538462,54.7905288 176.538462,51.9230769" id="Fill-32" fill="#BCBCBB"></path>
                                <path d="M150.576923,20.7692308 C150.576923,23.6366827 148.252067,25.9615385 145.384615,25.9615385 C142.517163,25.9615385 140.192308,23.6366827 140.192308,20.7692308 C140.192308,17.9017788 142.517163,15.5769231 145.384615,15.5769231 C148.252067,15.5769231 150.576923,17.9017788 150.576923,20.7692308" id="Fill-34" fill="#FA6452"></path>
                            </g>
                            <g id="1">
                                <path d="M259.615385,171.346154 L10.3846154,171.346154 C4.64971154,171.346154 0,166.696442 0,160.961538 L0,93.4615385 L270,93.4615385 L270,160.961538 C270,166.696442 265.350937,171.346154 259.615385,171.346154" id="Fill-2" fill="#F3F2EE"></path>
                                <path d="M259.615385,166.153846 L166.153846,166.153846 L166.153846,0 L259.615385,0 C265.350937,0 270,4.64971154 270,10.3846154 L270,155.769231 C270,161.504135 265.350937,166.153846 259.615385,166.153846" id="Fill-4" fill="#F3F2EE"></path>
                                <path d="M166.153846,166.153846 L10.3846154,166.153846 C4.64971154,166.153846 0,161.504135 0,155.769231 L0,10.3846154 C0,4.64971154 4.64971154,0 10.3846154,0 L166.153846,0 L166.153846,166.153846 Z" id="Fill-6" fill="#FFFFFF"></path>
                                <path d="M62.3076923,17.5240385 L41.5384615,17.5240385 C40.4630048,17.5240385 39.5913462,16.6523798 39.5913462,15.5769231 C39.5913462,14.5014663 40.4630048,13.6298077 41.5384615,13.6298077 L62.3076923,13.6298077 C63.383149,13.6298077 64.2548077,14.5014663 64.2548077,15.5769231 C64.2548077,16.6523798 63.383149,17.5240385 62.3076923,17.5240385" id="Fill-8" fill="#BCBCBB"></path>
                                <path d="M150.576923,48.6778846 L15.5769231,48.6778846 C14.5014663,48.6778846 13.6298077,47.806226 13.6298077,46.7307692 C13.6298077,45.6553125 14.5014663,44.7836538 15.5769231,44.7836538 L150.576923,44.7836538 C151.65238,44.7836538 152.524038,45.6553125 152.524038,46.7307692 C152.524038,47.806226 151.65238,48.6778846 150.576923,48.6778846" id="Fill-10" fill="#D6D6D6"></path>
                                <path d="M150.576923,59.0625 L15.5769231,59.0625 C14.5014663,59.0625 13.6298077,58.1908413 13.6298077,57.1153846 C13.6298077,56.0399279 14.5014663,55.1682692 15.5769231,55.1682692 L150.576923,55.1682692 C151.65238,55.1682692 152.524038,56.0399279 152.524038,57.1153846 C152.524038,58.1908413 151.65238,59.0625 150.576923,59.0625" id="Fill-12" fill="#D6D6D6"></path>
                                <path d="M135,69.4471154 L15.5769231,69.4471154 C14.5014663,69.4471154 13.6298077,68.5754567 13.6298077,67.5 C13.6298077,66.4245433 14.5014663,65.5528846 15.5769231,65.5528846 L135,65.5528846 C136.075457,65.5528846 136.947115,66.4245433 136.947115,67.5 C136.947115,68.5754567 136.075457,69.4471154 135,69.4471154" id="Fill-14" fill="#D6D6D6"></path>
                                <path d="M150.576923,142.139423 L15.5769231,142.139423 C14.5014663,142.139423 13.6298077,141.267764 13.6298077,140.192308 C13.6298077,139.116851 14.5014663,138.245192 15.5769231,138.245192 L150.576923,138.245192 C151.65238,138.245192 152.524038,139.116851 152.524038,140.192308 C152.524038,141.267764 151.65238,142.139423 150.576923,142.139423" id="Fill-16" fill="#D6D6D6"></path>
                                <path d="M135,152.524038 L15.5769231,152.524038 C14.5014663,152.524038 13.6298077,151.65238 13.6298077,150.576923 C13.6298077,149.501466 14.5014663,148.629808 15.5769231,148.629808 L135,148.629808 C136.075457,148.629808 136.947115,149.501466 136.947115,150.576923 C136.947115,151.65238 136.075457,152.524038 135,152.524038" id="Fill-18" fill="#D6D6D6"></path>
                                <path d="M51.9230769,27.9086538 L41.5384615,27.9086538 C40.4630048,27.9086538 39.5913462,27.0369952 39.5913462,25.9615385 C39.5913462,24.8860817 40.4630048,24.0144231 41.5384615,24.0144231 L51.9230769,24.0144231 C52.9985337,24.0144231 53.8701923,24.8860817 53.8701923,25.9615385 C53.8701923,27.0369952 52.9985337,27.9086538 51.9230769,27.9086538" id="Fill-20" fill="#D6D6D6"></path>
                                <path d="M11.6855481,21.4315745 C10.7788413,16.1776082 16.1970144,12.1217668 20.7694904,12.3314063 C24.9077596,12.5416947 27.7524952,16.6215505 29.8527837,21.4049639 C31.9537212,26.181887 26.668601,30.2383774 20.7694904,30.5044832 C15.3032885,30.771887 12.5916058,26.6913822 11.6855481,21.4315745" id="Fill-22" fill="#7394FF"></path>
                                <path d="M22.4998918,22.0673077 L19.0385697,22.0673077 C18.7997236,22.0673077 18.6056611,22.2607212 18.6056611,22.5002163 C18.6056611,23.693149 19.5766226,24.6634615 20.7689063,24.6634615 C21.9618389,24.6634615 22.9328005,23.693149 22.9328005,22.5002163 C22.9328005,22.2607212 22.738738,22.0673077 22.4998918,22.0673077" id="Fill-24" fill="#34414F"></path>
                                <path d="M17.3075841,21.2018149 C17.068738,21.2018149 16.8746755,21.0084014 16.8746755,20.7689062 C16.8746755,20.5307091 16.680613,20.3366466 16.4424159,20.3366466 C16.2035697,20.3366466 16.0095072,20.5307091 16.0095072,20.7689062 C16.0095072,21.0084014 15.8160938,21.2018149 15.5765986,21.2018149 C15.3377524,21.2018149 15.1443389,21.0084014 15.1443389,20.7689062 C15.1443389,20.0536659 15.7265264,19.4708293 16.4424159,19.4708293 C17.1583053,19.4708293 17.7404928,20.0536659 17.7404928,20.7689062 C17.7404928,21.0084014 17.5464303,21.2018149 17.3075841,21.2018149" id="Fill-26" fill="#34414F"></path>
                                <path d="M25.9615385,21.2018149 C25.7226923,21.2018149 25.5286298,21.0084014 25.5286298,20.7689062 C25.5286298,20.5307091 25.3345673,20.3366466 25.0963702,20.3366466 C24.857524,20.3366466 24.6634615,20.5307091 24.6634615,20.7689062 C24.6634615,21.0084014 24.4700481,21.2018149 24.2305529,21.2018149 C23.9917067,21.2018149 23.7982933,21.0084014 23.7982933,20.7689062 C23.7982933,20.0536659 24.3804808,19.4708293 25.0963702,19.4708293 C25.8122596,19.4708293 26.3944471,20.0536659 26.3944471,20.7689062 C26.3944471,21.0084014 26.2003846,21.2018149 25.9615385,21.2018149" id="Fill-28" fill="#34414F"></path>
                                <path d="M67.5,124.615385 L25.9615385,124.615385 C20.2266346,124.615385 15.5769231,119.965673 15.5769231,114.230769 L15.5769231,93.4615385 C15.5769231,87.7266346 20.2266346,83.0769231 25.9615385,83.0769231 L67.5,83.0769231 C73.2349038,83.0769231 77.8846154,87.7266346 77.8846154,93.4615385 L77.8846154,114.230769 C77.8846154,119.965673 73.2349038,124.615385 67.5,124.615385" id="Fill-30" fill="#C67DFF"></path>
                                <path d="M140.192308,124.615385 L98.6538462,124.615385 C92.9189423,124.615385 88.2692308,119.965673 88.2692308,114.230769 L88.2692308,93.4615385 C88.2692308,87.7266346 92.9189423,83.0769231 98.6538462,83.0769231 L140.192308,83.0769231 C145.927212,83.0769231 150.576923,87.7266346 150.576923,93.4615385 L150.576923,114.230769 C150.576923,119.965673 145.927212,124.615385 140.192308,124.615385" id="Fill-32" fill="#FFD24A"></path>
                                <path d="M254.423077,31.1538462 L181.730769,31.1538462 C178.863317,31.1538462 176.538462,28.8289904 176.538462,25.9615385 L176.538462,15.5769231 C176.538462,12.7094712 178.863317,10.3846154 181.730769,10.3846154 L254.423077,10.3846154 C257.290529,10.3846154 259.615385,12.7094712 259.615385,15.5769231 L259.615385,25.9615385 C259.615385,28.8289904 257.290529,31.1538462 254.423077,31.1538462" id="Fill-34" fill="#FFFFFF"></path>
                                <path d="M254.423077,53.8701923 L197.307692,53.8701923 C196.232236,53.8701923 195.360577,52.9985337 195.360577,51.9230769 C195.360577,50.8476202 196.232236,49.9759615 197.307692,49.9759615 L254.423077,49.9759615 C255.498534,49.9759615 256.370192,50.8476202 256.370192,51.9230769 C256.370192,52.9985337 255.498534,53.8701923 254.423077,53.8701923" id="Fill-36" fill="#BCBCBB"></path>
                                <path d="M233.653846,64.2548077 L197.307692,64.2548077 C196.232236,64.2548077 195.360577,63.383149 195.360577,62.3076923 C195.360577,61.2322356 196.232236,60.3605769 197.307692,60.3605769 L233.653846,60.3605769 C234.729303,60.3605769 235.600962,61.2322356 235.600962,62.3076923 C235.600962,63.383149 234.729303,64.2548077 233.653846,64.2548077" id="Fill-38" fill="#BCBCBB"></path>
                                <path d="M176.538462,51.9230769 C176.538462,49.055625 178.863317,46.7307692 181.730769,46.7307692 C184.598221,46.7307692 186.923077,49.055625 186.923077,51.9230769 C186.923077,54.7905288 184.598221,57.1153846 181.730769,57.1153846 C178.863317,57.1153846 176.538462,54.7905288 176.538462,51.9230769" id="Fill-40" fill="#BCBCBB"></path>
                                <path d="M244.038462,85.0240385 L197.307692,85.0240385 C196.232236,85.0240385 195.360577,84.1523798 195.360577,83.0769231 C195.360577,82.0014663 196.232236,81.1298077 197.307692,81.1298077 L244.038462,81.1298077 C245.113918,81.1298077 245.985577,82.0014663 245.985577,83.0769231 C245.985577,84.1523798 245.113918,85.0240385 244.038462,85.0240385" id="Fill-42" fill="#BCBCBB"></path>
                                <path d="M249.230769,95.4086538 L197.307692,95.4086538 C196.232236,95.4086538 195.360577,94.5369952 195.360577,93.4615385 C195.360577,92.3860817 196.232236,91.5144231 197.307692,91.5144231 L249.230769,91.5144231 C250.306226,91.5144231 251.177885,92.3860817 251.177885,93.4615385 C251.177885,94.5369952 250.306226,95.4086538 249.230769,95.4086538" id="Fill-44" fill="#BCBCBB"></path>
                                <path d="M176.538462,83.0769231 C176.538462,80.2094712 178.863317,77.8846154 181.730769,77.8846154 C184.598221,77.8846154 186.923077,80.2094712 186.923077,83.0769231 C186.923077,85.944375 184.598221,88.2692308 181.730769,88.2692308 C178.863317,88.2692308 176.538462,85.944375 176.538462,83.0769231" id="Fill-46" fill="#BCBCBB"></path>
                                <path d="M249.230769,116.177885 L197.307692,116.177885 C196.232236,116.177885 195.360577,115.306226 195.360577,114.230769 C195.360577,113.155313 196.232236,112.283654 197.307692,112.283654 L249.230769,112.283654 C250.306226,112.283654 251.177885,113.155313 251.177885,114.230769 C251.177885,115.306226 250.306226,116.177885 249.230769,116.177885" id="Fill-48" fill="#BCBCBB"></path>
                                <path d="M238.846154,126.5625 L197.307692,126.5625 C196.232236,126.5625 195.360577,125.690841 195.360577,124.615385 C195.360577,123.539928 196.232236,122.668269 197.307692,122.668269 L238.846154,122.668269 C239.921611,122.668269 240.793269,123.539928 240.793269,124.615385 C240.793269,125.690841 239.921611,126.5625 238.846154,126.5625" id="Fill-50" fill="#BCBCBB"></path>
                                <path d="M176.538462,114.230769 C176.538462,111.363317 178.863317,109.038462 181.730769,109.038462 C184.598221,109.038462 186.923077,111.363317 186.923077,114.230769 C186.923077,117.098221 184.598221,119.423077 181.730769,119.423077 C178.863317,119.423077 176.538462,117.098221 176.538462,114.230769" id="Fill-52" fill="#BCBCBB"></path>
                                <path d="M145.384615,25.9615385 L140.192308,25.9615385 C137.324856,25.9615385 135,23.6366827 135,20.7692308 C135,17.9017788 137.324856,15.5769231 140.192308,15.5769231 L145.384615,15.5769231 C148.252067,15.5769231 150.576923,17.9017788 150.576923,20.7692308 C150.576923,23.6366827 148.252067,25.9615385 145.384615,25.9615385" id="Fill-54" fill="#52DE96"></path>
                            </g>
                        </g>
                    </g>
                </g>
            </g>
        </g>
    </g>
</svg>