<?xml version="1.0" encoding="UTF-8"?>
<svg width="16px" height="12px" viewBox="0 0 16 12" version="1.1" xmlns="http://www.w3.org/2000/svg" xmlns:xlink="http://www.w3.org/1999/xlink">
    <!-- Generator: Sketch 52.6 (67491) - http://www.bohemiancoding.com/sketch -->
    <title>Combined Shape</title>
    <desc>Created with Sketch.</desc>
    <g id="Inbox/unread" stroke="none" stroke-width="1" fill="none" fill-rule="evenodd">
        <g id="Inbox:-Action-bar-states" transform="translate(-228.000000, -411.000000)" fill="#34414F">
            <path d="M241.75836,420.751672 C240.179768,422.1529 238.179105,423 236,423 C233.821185,423 231.820704,422.151591 230.241402,420.748508 C228.904739,419.56099 228,418.060305 228,417 C228,415.93951 228.903314,414.438759 230.238584,413.251659 C231.817083,411.84832 233.818095,411 236,411 C238.182196,411 240.183387,411.84701 241.761178,413.248495 C243.09728,414.435297 244,415.936048 244,417 C244,418.063766 243.095855,419.564452 241.75836,420.751672 Z M231.190771,419.612072 C232.518204,420.79139 234.189051,421.5 236,421.5 C237.811672,421.5 239.482785,420.792434 240.809467,419.614814 C241.857456,418.684572 242.545455,417.542642 242.545455,417 C242.545455,416.456565 241.858684,415.314826 240.811908,414.385019 C239.486175,413.207426 237.814772,412.5 236,412.5 C234.185951,412.5 232.514814,413.208471 231.188329,414.38776 C230.142109,415.317886 229.454545,416.460192 229.454545,417 C229.454545,417.539015 230.143338,418.681512 231.190771,419.612072 Z M238.909091,417 C238.909091,418.656854 237.606647,420 236,420 C234.393353,420 233.090909,418.656854 233.090909,417 C233.090909,415.343146 234.393353,414 236,414 C237.606647,414 238.909091,415.343146 238.909091,417 Z" id="Combined-Shape"></path>
        </g>
    </g>
</svg>