<?xml version="1.0" encoding="UTF-8"?>
<svg width="12px" height="14px" viewBox="0 0 12 14" version="1.1" xmlns="http://www.w3.org/2000/svg" xmlns:xlink="http://www.w3.org/1999/xlink">
    <!-- Generator: Sketch 52.6 (67491) - http://www.bohemiancoding.com/sketch -->
    <title>Combined Shape</title>
    <desc>Created with Sketch.</desc>
    <g id="Unread" stroke="none" stroke-width="1" fill="none" fill-rule="evenodd">
        <g id="Unread:-Action-bar-states" transform="translate(-230.000000, -297.000000)" fill="#34414F">
            <g id="Group-2-Copy" transform="translate(137.000000, 288.000000)">
                <path d="M93.5397428,20.4853835 C93.2050031,20.1440378 93,19.6855451 93,19.1818182 C93,18.4826054 93.3966118,17.8594005 94.0028143,17.5265561 C94.0028143,17.3334296 94,15.0445558 94,15.0445558 C94,12.8456095 95.5464643,10.9942752 97.6666667,10.4411914 L97.6666667,10.2727273 C97.6666667,9.56981941 98.2636203,9 99,9 C99.7363797,9 100.333333,9.56981941 100.333333,10.2727273 L100.333333,10.4411914 C101.137838,10.6509681 101.85964,11.0476275 102.445705,11.5794208 L101.521375,12.5037508 C100.864404,11.9095611 99.9770549,11.5454545 99,11.5454545 C96.9745915,11.5454545 95.3333333,13.1119011 95.3333333,15.0445558 L95.3333333,18.6917929 L93.5397428,20.4853835 Z M103.999442,14.975432 C103.999813,14.9995353 104,15.0236822 104,15.0478714 L104,17.5321129 C104.606914,17.8665232 105,18.4871324 105,19.1818182 C105,20.2366504 104.104688,21.0909091 102.998581,21.0909091 L100.999999,21.0909091 C100.998872,22.1454551 100.101629,23 99,23 C98.166746,23 97.4525076,22.5140932 97.1519044,21.8229694 L99.1566919,19.8181818 L102.998581,19.8181818 C103.368433,19.8181818 103.666667,19.5336233 103.666667,19.1818182 C103.666667,18.8909655 103.458151,18.6376236 103.166473,18.5656467 L102.991665,18.5225096 C102.813922,18.4786482 102.666667,18.2993367 102.666667,18.1229697 L102.666667,16.3082071 L103.999448,14.9754256 Z M103.46967,11.9696699 C103.762563,11.6767767 104.237437,11.6767767 104.53033,11.9696699 C104.823223,12.2625631 104.823223,12.7374369 104.53033,13.0303301 L95.5303301,22.0303301 C95.2374369,22.3232233 94.7625631,22.3232233 94.4696699,22.0303301 C94.1767767,21.7374369 94.1767767,21.2625631 94.4696699,20.9696699 L103.46967,11.9696699 Z" id="Combined-Shape"></path>
            </g>
        </g>
    </g>
</svg>