<?xml version="1.0" encoding="UTF-8"?>
<svg width="12px" height="14px" viewBox="0 0 12 14" version="1.1" xmlns="http://www.w3.org/2000/svg" xmlns:xlink="http://www.w3.org/1999/xlink">
    <!-- Generator: Sketch 52.6 (67491) - http://www.bohemiancoding.com/sketch -->
    <title>Combined Shape</title>
    <desc>Created with Sketch.</desc>
    <g id="Unread" stroke="none" stroke-width="1" fill="none" fill-rule="evenodd">
        <g id="Unread:-Action-bar-states" transform="translate(-230.000000, -257.000000)" fill="#FFFFFF">
            <g id="Group" transform="translate(137.000000, 248.000000)">
                <path d="M95.0014192,21.0909091 C93.8966265,21.0909091 93,20.2352847 93,19.1818182 C93,18.4826054 93.3966118,17.8594005 94.0028143,17.5265561 C94.0028143,17.3334296 94,15.0445558 94,15.0445558 C94,12.8456095 95.5464643,10.9942752 97.6666667,10.4411914 L97.6666667,10.2727273 C97.6666667,9.56981941 98.2636203,9 99,9 C99.7363797,9 100.333333,9.56981941 100.333333,10.2727273 L100.333333,10.4411914 C102.45399,10.9941585 104,12.8456587 104,15.0478714 L104,17.5321129 C104.606914,17.8665232 105,18.4871324 105,19.1818182 C105,20.2366504 104.104688,21.0909091 102.998581,21.0909091 L100.999999,21.0909091 C100.998872,22.1454551 100.101629,23 99,23 C97.8954305,23 97,22.1461447 97,21.0922773 L95.0014192,21.0909091 Z M102.666667,18.1229697 L102.666667,15.0478714 C102.666667,13.1113745 101.026233,11.5454545 99,11.5454545 C96.9745915,11.5454545 95.3333333,13.1119011 95.3333333,15.0445558 L95.3333333,18.1229528 C95.3333333,18.3009509 95.1901614,18.4778182 95.0135498,18.5212178 L94.8328716,18.5656166 C94.541003,18.6373388 94.3333333,18.8896949 94.3333333,19.1818182 C94.3333333,19.5322948 94.6329203,19.8181818 95.0014192,19.8181818 L102.998581,19.8181818 C103.368433,19.8181818 103.666667,19.5336233 103.666667,19.1818182 C103.666667,18.8909655 103.458151,18.6376236 103.166473,18.5656467 L102.991665,18.5225096 C102.813922,18.4786482 102.666667,18.2993367 102.666667,18.1229697 Z" id="Combined-Shape"></path>
            </g>
        </g>
    </g>
</svg>