<?xml version="1.0" encoding="UTF-8"?>
<svg width="18px" height="4px" viewBox="0 0 18 4" version="1.1" xmlns="http://www.w3.org/2000/svg" xmlns:xlink="http://www.w3.org/1999/xlink">
    <!-- Generator: Sketch 52.6 (67491) - http://www.bohemiancoding.com/sketch -->
    <title>Combined Shape</title>
    <desc>Created with Sketch.</desc>
    <g id="Dark-mode" stroke="none" stroke-width="1" fill="none" fill-rule="evenodd">
        <g id="Dark-mode:-Expanded-post-page" transform="translate(-943.000000, -94.000000)" fill="#FFFFFF">
            <g id="Group-8" transform="translate(852.000000, 80.000000)">
                <g id="Group-Copy-2" transform="translate(74.000000, 0.000000)">
                    <path d="M26,11 C24.8954305,11 24,10.1045695 24,9 C24,7.8954305 24.8954305,7 26,7 C27.1045695,7 28,7.8954305 28,9 C28,10.1045695 27.1045695,11 26,11 Z M26,18 C24.8954305,18 24,17.1045695 24,16 C24,14.8954305 24.8954305,14 26,14 C27.1045695,14 28,14.8954305 28,16 C28,17.1045695 27.1045695,18 26,18 Z M26,25 C24.8954305,25 24,24.1045695 24,23 C24,21.8954305 24.8954305,21 26,21 C27.1045695,21 28,21.8954305 28,23 C28,24.1045695 27.1045695,25 26,25 Z" id="Combined-Shape" transform="translate(26.000000, 16.000000) rotate(90.000000) translate(-26.000000, -16.000000) "></path>
                </g>
            </g>
        </g>
    </g>
</svg>