<?xml version="1.0" encoding="UTF-8"?>
<svg width="16px" height="14px" viewBox="0 0 16 14" version="1.1" xmlns="http://www.w3.org/2000/svg" xmlns:xlink="http://www.w3.org/1999/xlink">
    <!-- Generator: Sketch 52.6 (67491) - http://www.bohemiancoding.com/sketch -->
    <title>Path</title>
    <desc>Created with Sketch.</desc>
    <g id="Share-/-more-menu-updates" stroke="none" stroke-width="1" fill="none" fill-rule="evenodd">
        <g id="FoC-(Feb-25)" transform="translate(-920.000000, -395.000000)" fill="#3FBD7C" fill-rule="nonzero">
            <g id="Group-21" transform="translate(292.000000, 145.000000)">
                <g id="Group-19">
                    <g id="Group-8" transform="translate(32.000000, 188.000000)">
                        <g id="Group-16" transform="translate(523.000000, 59.000000)">
                            <g id="Group-14" transform="translate(73.000000, 0.000000)">
                                <g id="Group-13" transform="translate(0.000000, 3.000000)">
                                    <path d="M0.00158366238,13.5089952 C0.0222018146,13.7464553 0.182852759,13.9418146 0.398133657,13.9912193 C0.649121454,14.0404583 0.894375125,13.8782613 0.96877877,13.6138265 C1.49932503,12.3970015 2.2723041,11.3228882 3.23201532,10.4688869 C4.74743194,9.12516599 6.6420636,8.38515398 8.59994817,8.37226055 L10.6407299,8.37226055 L10.6407299,10.2906737 C10.6438474,10.4142936 10.6926332,10.5313792 10.7761372,10.6156508 C10.8506541,10.6881773 10.9468148,10.7291231 11.0469518,10.7309652 C11.147443,10.7311076 11.2442363,10.6898924 11.3177664,10.6156508 L15.8829273,5.66761251 C16.0390242,5.49615473 16.0390242,5.22056551 15.8829273,5.04910773 L11.3274384,0.122035712 C11.2116009,0.00201568292 11.0414884,-0.0329761739 10.8931361,0.0327004553 C10.7447838,0.0983770845 10.6459184,0.252447385 10.6407299,0.426046538 L10.6407299,2.34445968 L9.81861401,2.34445968 C6.78416777,2.38910338 3.93467223,3.93334391 2.08105314,6.53771246 C0.692860335,8.54669561 -0.0387639653,10.9994173 0.00158366238,13.5089952 Z" id="Path"></path>
                                </g>
                            </g>
                        </g>
                    </g>
                </g>
            </g>
        </g>
    </g>
</svg>