<?xml version="1.0" encoding="UTF-8"?>
<svg width="18px" height="18px" viewBox="0 0 18 18" version="1.1" xmlns="http://www.w3.org/2000/svg" xmlns:xlink="http://www.w3.org/1999/xlink">
    <!-- Generator: Sketch 49 (51002) - http://www.bohemiancoding.com/sketch -->
    <title>Combined Shape</title>
    <desc>Created with Sketch.</desc>
    <defs></defs>
    <g id="➡️-Boards-&amp;-Posts" stroke="none" stroke-width="1" fill="none" fill-rule="evenodd">
        <g id="All-Posts-Mobile" transform="translate(-249.000000, -215.000000)" fill="#34414F">
            <g id="Group-20" transform="translate(223.000000, 187.000000)">
                <path d="M27.8000119,41.6376748 L27.8013459,42.4818742 C28.2735576,42.3199268 28.8176689,42.4274117 29.1944409,42.8043288 C29.5728518,43.1828854 29.679586,43.7303053 29.5146437,44.2041207 L30.3498393,44.2062547 L31.7453121,42.8102444 L29.1877686,40.2517159 C28.3478713,41.0905196 27.8000119,41.6376748 27.8000119,41.6376748 Z M37.8506493,31.6010632 L40.401626,34.1505963 L33.0177911,41.5372753 L30.4613251,38.9798247 C33.4388254,36.0062349 37.8506493,31.6010632 37.8506493,31.6010632 Z M40.9226852,28.5278441 L43.4724595,31.0786003 C44.1752247,31.7816361 44.1760674,32.9206393 43.473662,33.6233153 L31.4189023,45.682718 C31.2437398,45.857948 30.9017481,46 30.6489969,46 L26.9003454,46 C26.4030984,46 26,45.5995694 26,45.0994174 L26,41.3497784 C26,41.0996681 26.1440624,40.7529376 26.3173232,40.5797807 L38.3782949,28.5260437 C39.0807577,27.8240022 40.2198148,27.824703 40.9226852,28.5278441 Z" id="Combined-Shape"></path>
            </g>
        </g>
    </g>
</svg>