<?xml version="1.0" encoding="UTF-8"?>
<svg width="18px" height="4px" viewBox="0 0 18 4" version="1.1" xmlns="http://www.w3.org/2000/svg" xmlns:xlink="http://www.w3.org/1999/xlink">
    <!-- Generator: Sketch 52.6 (67491) - http://www.bohemiancoding.com/sketch -->
    <title>Combined Shape</title>
    <desc>Created with Sketch.</desc>
    <g id="Styles-&amp;-states" stroke="none" stroke-width="1" fill="none" fill-rule="evenodd">
        <g id="Stream-states" transform="translate(-910.000000, -584.000000)" fill="#34414F">
            <path d="M919,581 C917.895431,581 917,580.104569 917,579 C917,577.895431 917.895431,577 919,577 C920.104569,577 921,577.895431 921,579 C921,580.104569 920.104569,581 919,581 Z M919,588 C917.895431,588 917,587.104569 917,586 C917,584.895431 917.895431,584 919,584 C920.104569,584 921,584.895431 921,586 C921,587.104569 920.104569,588 919,588 Z M919,595 C917.895431,595 917,594.104569 917,593 C917,591.895431 917.895431,591 919,591 C920.104569,591 921,591.895431 921,593 C921,594.104569 920.104569,595 919,595 Z" id="Combined-Shape" transform="translate(919.000000, 586.000000) rotate(90.000000) translate(-919.000000, -586.000000) "></path>
        </g>
    </g>
</svg>