<?xml version="1.0" encoding="UTF-8"?>
<svg width="12px" height="3px" viewBox="0 0 12 3" version="1.1" xmlns="http://www.w3.org/2000/svg" xmlns:xlink="http://www.w3.org/1999/xlink">
    <!-- Generator: Sketch 52.6 (67491) - http://www.bohemiancoding.com/sketch -->
    <title>Combined Shape</title>
    <desc>Created with Sketch.</desc>
    <g id="Share-/-more-menu-updates" stroke="none" stroke-width="1" fill="none" fill-rule="evenodd">
        <g id="FoC-(Feb-25)" transform="translate(-847.000000, -400.000000)" fill="#34414F">
            <g id="Group-21" transform="translate(292.000000, 145.000000)">
                <g id="Group-19">
                    <g id="Group-8" transform="translate(32.000000, 188.000000)">
                        <g id="Group-16" transform="translate(523.000000, 59.000000)">
                            <g id="Group-18">
                                <path d="M6,6.5 C5.17157288,6.5 4.5,5.82842712 4.5,5 C4.5,4.17157288 5.17157288,3.5 6,3.5 C6.82842712,3.5 7.5,4.17157288 7.5,5 C7.5,5.82842712 6.82842712,6.5 6,6.5 Z M6,10.5 C5.17157288,10.5 4.5,9.82842712 4.5,9 C4.5,8.17157288 5.17157288,7.5 6,7.5 C6.82842712,7.5 7.5,8.17157288 7.5,9 C7.5,9.82842712 6.82842712,10.5 6,10.5 Z M6,15.5 C5.17157288,15.5 4.5,14.8284271 4.5,14 C4.5,13.1715729 5.17157288,12.5 6,12.5 C6.82842712,12.5 7.5,13.1715729 7.5,14 C7.5,14.8284271 6.82842712,15.5 6,15.5 Z" id="Combined-Shape" transform="translate(6.000000, 9.500000) rotate(90.000000) translate(-6.000000, -9.500000) "></path>
                            </g>
                        </g>
                    </g>
                </g>
            </g>
        </g>
    </g>
</svg>