<?xml version="1.0" encoding="UTF-8"?>
<svg width="16px" height="15px" viewBox="0 0 16 15" version="1.1" xmlns="http://www.w3.org/2000/svg" xmlns:xlink="http://www.w3.org/1999/xlink">
    <!-- Generator: Sketch 52.6 (67491) - http://www.bohemiancoding.com/sketch -->
    <title>Combined Shape</title>
    <desc>Created with Sketch.</desc>
    <g id="Inbox/unread" stroke="none" stroke-width="1" fill="none" fill-rule="evenodd">
        <g id="Inbox:-Action-bar-states" transform="translate(-228.000000, -362.000000)" fill="#34414F">
            <path d="M232.286161,374.379067 L230.551103,376.258714 C230.27015,376.563079 229.795655,376.582059 229.49129,376.301106 C229.186924,376.020154 229.167945,375.545659 229.448897,375.241294 L230.974972,373.588046 C230.721625,373.40451 230.476834,373.207674 230.241402,372.998512 C228.904739,371.810994 228,370.310308 228,369.250004 C228,368.189514 228.903314,366.688763 230.238584,365.501663 C231.817083,364.098324 233.818095,363.250004 236,363.250004 C237.323112,363.250004 238.579682,363.561386 239.71568,364.118946 L241.448897,362.241294 C241.72985,361.936928 242.204345,361.917948 242.50871,362.198901 C242.813076,362.479854 242.832055,362.954348 242.551103,363.258714 L241.027545,364.909235 C241.280976,365.092668 241.525789,365.289413 241.761178,365.498499 C243.09728,366.685301 244,368.186052 244,369.250004 C244,370.31377 243.095855,371.814456 241.75836,373.001676 C240.179768,374.402904 238.179105,375.250004 236,375.250004 C234.678371,375.250004 233.422358,374.937839 232.286161,374.379067 Z M231.991198,372.487135 L233.524332,370.82624 C233.249525,370.368199 233.090909,369.828204 233.090909,369.250004 C233.090909,367.593149 234.393353,366.250004 236,366.250004 C236.509477,366.250004 236.988365,366.385066 237.404833,366.622363 L238.648621,365.274926 C237.821486,364.935606 236.92955,364.750004 236,364.750004 C234.185951,364.750004 232.514814,365.458475 231.188329,366.637764 C230.142109,367.56789 229.454545,368.710196 229.454545,369.250004 C229.454545,369.789019 230.143338,370.931516 231.190771,371.862076 C231.44542,372.088311 231.712708,372.297224 231.991198,372.487135 Z M233.352891,373.223443 C234.180188,373.563802 235.071687,373.750004 236,373.750004 C237.811672,373.750004 239.482785,373.042438 240.809467,371.864817 C241.857456,370.934576 242.545455,369.792646 242.545455,369.250004 C242.545455,368.706569 241.858684,367.564829 240.811908,366.635023 C240.557291,366.408857 240.289923,366.200034 240.011238,366.010234 L238.475668,367.673768 C238.750475,368.131809 238.909091,368.671804 238.909091,369.250004 C238.909091,370.906858 237.606647,372.250004 236,372.250004 C235.490523,372.250004 235.011635,372.114942 234.595167,371.877644 L233.352891,373.223443 Z" id="Combined-Shape"></path>
        </g>
    </g>
</svg>