<?xml version="1.0" encoding="UTF-8"?>
<svg width="16px" height="16px" viewBox="0 0 16 16" version="1.1" xmlns="http://www.w3.org/2000/svg" xmlns:xlink="http://www.w3.org/1999/xlink">
    <!-- Generator: Sketch 52.6 (67491) - http://www.bohemiancoding.com/sketch -->
    <title>Combined Shape</title>
    <desc>Created with Sketch.</desc>
    <g id="Post-commenting" stroke="none" stroke-width="1" fill="none" fill-rule="evenodd">
        <g id="Expanded-post-(full-screen)" transform="translate(-1175.000000, -20.000000)" fill="#34414F" stroke="#34414F" stroke-width="0.5">
            <g id="Group" transform="translate(1134.000000, 12.000000)">
                <g id="Group-2">
                    <path d="M51.5631887,13.4369869 C51.846301,13.7200992 51.845588,14.179828 51.565548,14.4598679 L47.4598679,18.565548 C47.1780586,18.8473573 46.722073,18.8482748 46.4369869,18.5631887 C46.1538746,18.2800764 46.1545876,17.8203476 46.4346276,17.5403076 L50.5403076,13.4346276 C50.8221169,13.1528183 51.2781026,13.1519008 51.5631887,13.4369869 Z M47.1619517,20.913945 C46.3134928,21.7624039 44.9341371,21.7618722 44.0862202,20.9139554 C43.2375885,20.0653236 43.2380182,18.6864363 44.0862306,17.8382239 L46.1367009,15.7877536 C46.4198132,15.5046413 46.4198132,15.0456255 46.1367009,14.7625132 C45.8535886,14.4794009 45.3945729,14.4794009 45.1114606,14.7625132 L43.0609902,16.8129835 C41.6466963,18.2272775 41.6459804,20.5241963 43.0609799,21.9391957 C44.4749445,23.3531604 46.7723315,23.3540459 48.187192,21.9391853 L50.2376624,19.888715 C50.5207747,19.6056027 50.5207747,19.1465869 50.2376624,18.8634746 C49.9545501,18.5803623 49.4955343,18.5803623 49.212422,18.8634746 L47.1619517,20.913945 Z M54.9391853,15.187192 C56.3540459,13.7723315 56.3531604,11.4749445 54.9391957,10.0609799 C53.5241963,8.64598042 51.2272775,8.64669626 49.8129835,10.0609902 L47.7625132,12.1114606 C47.4794009,12.3945729 47.4794009,12.8535886 47.7625132,13.1367009 C48.0456255,13.4198132 48.5046413,13.4198132 48.7877536,13.1367009 L50.8382239,11.0862306 C51.6864363,10.2380182 53.0653236,10.2375885 53.9139554,11.0862202 C54.7618722,11.9341371 54.7624039,13.3134928 53.913945,14.1619517 L51.8634746,16.212422 C51.5803623,16.4955343 51.5803623,16.9545501 51.8634746,17.2376624 C52.1465869,17.5207747 52.6056027,17.5207747 52.888715,17.2376624 L54.9391853,15.187192 Z" id="Combined-Shape"></path>
                </g>
            </g>
        </g>
    </g>
</svg>