<?xml version="1.0" encoding="UTF-8"?>
<svg width="14px" height="12px" viewBox="0 0 14 12" version="1.1" xmlns="http://www.w3.org/2000/svg" xmlns:xlink="http://www.w3.org/1999/xlink">
    <!-- Generator: Sketch 52.6 (67491) - http://www.bohemiancoding.com/sketch -->
    <title>Path</title>
    <desc>Created with Sketch.</desc>
    <g id="FoC" stroke="none" stroke-width="1" fill="none" fill-rule="evenodd" opacity="0.5">
        <g id="Variants" transform="translate(-774.000000, -346.000000)" fill="#898D93" fill-rule="nonzero">
            <g id="Group-14" transform="translate(132.000000, 322.000000)">
                <g id="Group-26" transform="translate(608.000000, 24.000000)">
                    <path d="M34.0013857,11.5791387 C34.0194266,11.7826759 34.1599962,11.9501268 34.3483669,11.9924737 C34.5679813,12.0346786 34.7825782,11.8956525 34.8476814,11.6689942 C35.3119094,10.6260012 35.9882661,9.70533271 36.8280134,8.97333166 C38.1540029,7.82157085 39.8118057,7.18727484 41.5249547,7.17622333 L43.3106386,7.17622333 L43.3106386,8.82057746 C43.3133665,8.92653738 43.356054,9.02689644 43.42912,9.09912925 C43.4943223,9.16129486 43.5784629,9.19639125 43.6660828,9.19797021 C43.7540126,9.19809222 43.8387068,9.16276495 43.9030456,9.09912925 L47.8975614,4.85795358 C48.0341462,4.71098977 48.0341462,4.47477044 47.8975614,4.32780662 L43.9115086,0.104602039 C43.8101508,0.00172772821 43.6613023,-0.0282652919 43.5314941,0.0280289617 C43.4016858,0.0843232153 43.3151786,0.216383473 43.3106386,0.365182747 L43.3106386,2.00953687 L42.5912873,2.00953687 C39.9361468,2.0478029 37.4428382,3.37143764 35.8209215,5.60375354 C34.6062528,7.32573909 33.9660815,9.42807195 34.0013857,11.5791387 Z" id="Path"></path>
                </g>
            </g>
        </g>
    </g>
</svg>