<?xml version="1.0" encoding="UTF-8"?>
<svg width="14px" height="14px" viewBox="0 0 14 14" version="1.1" xmlns="http://www.w3.org/2000/svg" xmlns:xlink="http://www.w3.org/1999/xlink">
    <!-- Generator: Sketch 50.2 (55047) - http://www.bohemiancoding.com/sketch -->
    <title>Group 2</title>
    <desc>Created with Sketch.</desc>
    <defs></defs>
    <g id="Misc-updates" stroke="none" stroke-width="1" fill="none" fill-rule="evenodd">
        <g id="Grid-data-update" transform="translate(-728.000000, -367.000000)" fill="#FFFFFF">
            <g id="Group-14" transform="translate(710.000000, 350.000000)">
                <g id="Group-2" transform="translate(17.000000, 16.000000)">
                    <rect id="Rectangle" opacity="0" x="0" y="0" width="16" height="16"></rect>
                    <path d="M2,12.0514189 L2.00101432,12.6918471 C2.36008341,12.5689902 2.77382476,12.6505306 3.06032159,12.9364682 C3.34806462,13.2236496 3.42922517,13.6389343 3.30380324,13.9983811 L3.93888465,14 L5,12.9409559 L3.05524798,11 C2.41659138,11.6363349 2,12.0514189 2,12.0514189 Z M9.94696216,4 L12,6.05272037 L6.05745562,12 L4,9.94090502 C6.39630595,7.5467614 9.94696216,4 9.94696216,4 Z M12.606533,1.4105454 L14.5896907,3.39446692 C15.1362858,3.94127254 15.1369413,4.82716391 14.590626,5.37368964 L5.2147018,14.7532251 C5.07846428,14.8895151 4.81247078,15 4.61588647,15 L1.70026863,15 C1.31352094,15 1,14.688554 1,14.2995469 L1,11.383161 C1,11.1886307 1.1120485,10.9189515 1.24680697,10.7842739 L10.6275627,1.40914507 C11.1739227,0.863112825 12.059856,0.863657885 12.606533,1.4105454 Z" id="Combined-Shape"></path>
                </g>
            </g>
        </g>
    </g>
</svg>