<?xml version="1.0" encoding="UTF-8"?>
<svg width="16px" height="20px" viewBox="0 0 16 20" version="1.1" xmlns="http://www.w3.org/2000/svg" xmlns:xlink="http://www.w3.org/1999/xlink">
    <!-- Generator: Sketch 49 (51002) - http://www.bohemiancoding.com/sketch -->
    <title>Combined Shape</title>
    <desc>Created with Sketch.</desc>
    <defs></defs>
    <g id="➡️-Boards-&amp;-Posts" stroke="none" stroke-width="1" fill="none" fill-rule="evenodd">
        <g id="All-Posts-Mobile" transform="translate(-250.000000, -298.000000)" fill="#34414F" fill-rule="nonzero">
            <g id="Group-20" transform="translate(223.000000, 187.000000)">
                <path d="M41.0010434,119.992333 L39,119.992333 C38.4477153,119.992333 38,119.544618 38,118.992333 C38,118.440048 38.4477153,117.992333 39,117.992333 L41.0010434,117.992333 C42.1058835,117.992333 43,118.889406 43,119.994806 L43,128.98986 C43,130.093458 42.1046711,130.992333 41.0043778,130.992333 L28.9956222,130.992333 C27.8918714,130.992333 27,130.094516 27,128.98986 L27,119.994806 C27,118.890017 27.8956994,117.992333 28.9989566,117.992333 L31,117.992333 C31.5522847,117.992333 32,118.440048 32,118.992333 C32,119.544618 31.5522847,119.992333 31,119.992333 C31,119.992333 29,119.993597 29,119.994806 C29,119.994806 28.9994266,128.992333 28.9956222,128.992333 C28.9956222,128.992333 41,128.990655 41,128.98986 C41,128.98986 40.9998334,119.992333 41.0010434,119.992333 Z M32.8855477,115.531303 C32.4943127,115.922538 31.8588426,115.924844 31.4683183,115.534319 C31.0750713,115.141072 31.0791442,114.50928 31.4713342,114.11709 C31.4713342,114.11709 34.2947357,111.293689 34.2967454,111.291679 C34.4928655,111.095558 34.748317,110.99826 35.0045887,111.000024 C35.260516,110.999861 35.5161986,111.096918 35.7139748,111.294694 L38.5363702,114.11709 C38.9276053,114.508325 38.9299104,115.143795 38.5393861,115.534319 C38.1461391,115.927566 37.5143466,115.923493 37.1221566,115.531303 L36.0038522,114.412999 L36.0038522,125.984232 C36.0038522,126.536848 35.5561369,126.984566 35.0038522,126.984566 C34.447717,126.984566 34.0038522,126.536701 34.0038522,125.984232 L34.0038522,114.412999 L32.8855477,115.531303 Z" id="Combined-Shape"></path>
            </g>
        </g>
    </g>
</svg>