<?xml version="1.0" encoding="UTF-8"?>
<svg width="18px" height="4px" viewBox="0 0 18 4" version="1.1" xmlns="http://www.w3.org/2000/svg" xmlns:xlink="http://www.w3.org/1999/xlink">
    <!-- Generator: Sketch 52.6 (67491) - http://www.bohemiancoding.com/sketch -->
    <title>Combined Shape</title>
    <desc>Created with Sketch.</desc>
    <g id="Share-/-more-menu-updates" stroke="none" stroke-width="1" fill="none" fill-rule="evenodd">
        <g id="FoC-(Feb-25)" transform="translate(-844.000000, -400.000000)" fill="#34414F">
            <g id="Group-21" transform="translate(292.000000, 145.000000)">
                <g id="Group-19">
                    <g id="Group-8" transform="translate(32.000000, 188.000000)">
                        <g id="Group-16" transform="translate(520.000000, 59.000000)">
                            <g id="Group-18">
                                <path d="M9,5 C7.8954305,5 7,4.1045695 7,3 C7,1.8954305 7.8954305,1 9,1 C10.1045695,1 11,1.8954305 11,3 C11,4.1045695 10.1045695,5 9,5 Z M9,12 C7.8954305,12 7,11.1045695 7,10 C7,8.8954305 7.8954305,8 9,8 C10.1045695,8 11,8.8954305 11,10 C11,11.1045695 10.1045695,12 9,12 Z M9,19 C7.8954305,19 7,18.1045695 7,17 C7,15.8954305 7.8954305,15 9,15 C10.1045695,15 11,15.8954305 11,17 C11,18.1045695 10.1045695,19 9,19 Z" id="Combined-Shape" transform="translate(9.000000, 10.000000) rotate(90.000000) translate(-9.000000, -10.000000) "></path>
                            </g>
                        </g>
                    </g>
                </g>
            </g>
        </g>
    </g>
</svg>