<?xml version="1.0" encoding="UTF-8"?>
<svg width="13px" height="16px" viewBox="0 0 13 16" version="1.1" xmlns="http://www.w3.org/2000/svg" xmlns:xlink="http://www.w3.org/1999/xlink">
    <!-- Generator: Sketch 50.2 (55047) - http://www.bohemiancoding.com/sketch -->
    <title>Combined Shape</title>
    <desc>Created with Sketch.</desc>
    <defs></defs>
    <g id="People" stroke="none" stroke-width="1" fill="none" fill-rule="evenodd">
        <g id="Profile-hover" transform="translate(-87.000000, -132.000000)" fill="#3FBD7C" fill-rule="nonzero">
            <g id="Group-30" transform="translate(68.000000, 97.000000)">
                <path d="M25.978566,38.0312626 L21.575986,43.3910174 L23.727665,43.3910174 C24.1398363,43.3910174 24.4738185,43.7422378 24.4736367,44.1718993 L24.4720318,47.9637317 L28.8805153,42.6089826 L26.7198844,42.6089826 C26.3059982,42.6089826 25.9710985,42.2573777 25.9718586,41.8272459 L25.978566,38.0312626 Z M27.4669873,41.0449131 L30.6331505,41.0449131 C31.459272,41.0449131 31.6937356,41.5745015 31.1539388,42.2313115 L24.4401956,50.4004119 C23.6323474,51.3833796 22.9774571,51.1326486 22.9774571,49.8323241 L22.9774571,44.9550869 L19.811294,44.9550869 C18.9851725,44.9550869 18.7507089,44.4254985 19.2905056,43.7686885 L26.0042488,35.5995881 C26.812097,34.6166204 27.4669873,34.8673514 27.4669873,36.1676759 L27.4669873,41.0449131 Z" id="Combined-Shape"></path>
            </g>
        </g>
    </g>
</svg>