<?xml version="1.0" encoding="UTF-8"?>
<svg width="16px" height="16px" viewBox="0 0 16 16" version="1.1" xmlns="http://www.w3.org/2000/svg" xmlns:xlink="http://www.w3.org/1999/xlink">
    <!-- Generator: Sketch 50.2 (55047) - http://www.bohemiancoding.com/sketch -->
    <title>Combined Shape</title>
    <desc>Created with Sketch.</desc>
    <defs></defs>
    <g id="Page-1" stroke="none" stroke-width="1" fill="none" fill-rule="evenodd">
        <g id="Must-read-icon-hover-/-tip" transform="translate(-655.000000, -227.000000)" fill="#34414F" fill-rule="nonzero">
            <g id="Group-2" transform="translate(90.000000, 141.000000)">
                <g id="Group-25">
                    <path d="M571.978566,89.0312626 L567.575986,94.3910174 L569.727665,94.3910174 C570.139836,94.3910174 570.473819,94.7422378 570.473637,95.1718993 L570.472032,98.9637317 L574.880515,93.6089826 L572.719884,93.6089826 C572.305998,93.6089826 571.971099,93.2573777 571.971859,92.8272459 L571.978566,89.0312626 Z M573.466987,92.0449131 L576.63315,92.0449131 C577.459272,92.0449131 577.693736,92.5745015 577.153939,93.2313115 L570.440196,101.400412 C569.632347,102.38338 568.977457,102.132649 568.977457,100.832324 L568.977457,95.9550869 L565.811294,95.9550869 C564.985172,95.9550869 564.750709,95.4254985 565.290506,94.7686885 L572.004249,86.5995881 C572.812097,85.6166204 573.466987,85.8673514 573.466987,87.1676759 L573.466987,92.0449131 Z" id="Combined-Shape"></path>
                </g>
            </g>
        </g>
    </g>
</svg>