<svg width="22" height="22" viewBox="0 0 22 22" fill="none" xmlns="http://www.w3.org/2000/svg">
<g filter="url(#filter0_d)">
<path d="M6.81281 5.62563C8.36629 5.62563 9.62563 4.36629 9.62563 2.81281C9.62563 1.25934 8.36629 0 6.81281 0C5.25934 0 4 1.25934 4 2.81281C4 4.36629 5.25934 5.62563 6.81281 5.62563Z" fill="white"/>
<path d="M15.1871 5.62563C16.7406 5.62563 17.9999 4.36629 17.9999 2.81281C17.9999 1.25934 16.7406 0 15.1871 0C13.6336 0 12.3743 1.25934 12.3743 2.81281C12.3743 4.36629 13.6336 5.62563 15.1871 5.62563Z" fill="white"/>
<path d="M6.81281 14C8.36629 14 9.62563 12.7406 9.62563 11.1872C9.62563 9.6337 8.36629 8.37436 6.81281 8.37436C5.25934 8.37436 4 9.6337 4 11.1872C4 12.7406 5.25934 14 6.81281 14Z" fill="white"/>
<path d="M15.1871 14C16.7406 14 17.9999 12.7406 17.9999 11.1872C17.9999 9.6337 16.7406 8.37436 15.1871 8.37436C13.6336 8.37436 12.3743 9.6337 12.3743 11.1872C12.3743 12.7406 13.6336 14 15.1871 14Z" fill="white"/>
</g>
<defs>
<filter id="filter0_d" x="0" y="0" width="21.9999" height="22" filterUnits="userSpaceOnUse" color-interpolation-filters="sRGB">
<feFlood flood-opacity="0" result="BackgroundImageFix"/>
<feColorMatrix in="SourceAlpha" type="matrix" values="0 0 0 0 0 0 0 0 0 0 0 0 0 0 0 0 0 0 127 0"/>
<feOffset dy="4"/>
<feGaussianBlur stdDeviation="2"/>
<feColorMatrix type="matrix" values="0 0 0 0 1 0 0 0 0 1 0 0 0 0 1 0 0 0 0.25 0"/>
<feBlend mode="normal" in2="BackgroundImageFix" result="effect1_dropShadow"/>
<feBlend mode="normal" in="SourceGraphic" in2="effect1_dropShadow" result="shape"/>
</filter>
</defs>
</svg>
