<svg width="14" height="14" viewBox="0 0 14 14" fill="none" xmlns="http://www.w3.org/2000/svg">
<path d="M13.8677 0.201773C13.7522 0.0653825 13.5795 -0.00897741 13.4011 0.000867804C11.7249 0.158702 10.0862 0.591408 8.55054 1.28164C8.3578 1.36487 8.22632 1.54727 8.20823 1.75651C8.20823 1.78619 7.82827 4.69133 6.46018 4.97785C6.34223 4.97536 6.24792 4.87898 6.24795 4.76096V3.17426C6.24917 3.01001 6.17961 2.8532 6.05704 2.74391C5.93447 2.63463 5.77079 2.58346 5.60783 2.60351C4.70984 2.71766 2.54417 4.85799 1.8276 6.94124C1.41779 7.9864 1.4591 9.15471 1.9417 10.1683C1.99761 10.2744 1.97871 10.4044 1.89492 10.4902L0.320301 12.0655C-0.112118 12.5134 -0.105934 13.2253 0.3342 13.6657C0.774333 14.106 1.486 14.1122 1.93372 13.6796L3.66009 11.9605C3.72854 11.8947 3.82503 11.8669 3.91796 11.8863C4.50617 12.0175 5.11659 12.0124 5.70253 11.8714C7.26039 11.391 8.6598 10.499 9.75319 9.28932C12.6685 6.37277 13.9339 0.926631 13.9853 0.696047C14.0256 0.521968 13.9821 0.339042 13.8677 0.201773Z" fill="#FFFFFF"/>
</svg>
