<?xml version="1.0" encoding="UTF-8"?>
<svg width="19px" height="19px" viewBox="0 0 19 19" version="1.1" xmlns="http://www.w3.org/2000/svg" xmlns:xlink="http://www.w3.org/1999/xlink">
    <!-- Generator: Sketch 50.2 (55047) - http://www.bohemiancoding.com/sketch -->
    <title>All posts icon</title>
    <desc>Created with Sketch.</desc>
    <defs></defs>
    <g id="Mobile-density-udpates" stroke="none" stroke-width="1" fill="none" fill-rule="evenodd">
        <g id="Mobile-stream-expanded" transform="translate(-28.000000, -23.000000)" fill="#898D93">
            <g id="Group-6">
                <path d="M28.8651542,39.9987787 L28.010777,31.544618 C27.8892596,30.3421899 28.8100033,29.3333333 30.0337175,29.3333333 L44.9662747,29.3333333 C46.1874602,29.3333333 47.1109423,30.3401138 46.9892152,31.544618 L46.134838,39.9987787 C46.0218546,41.1167622 45.0371959,42 43.9051305,42 L31.0948616,42 C29.9585738,42 28.9784894,41.1202443 28.8651542,39.9987787 Z M44.8543665,31.4527872 L30.1452317,31.4488897 L31.0995317,39.8888889 L43.9004605,39.8888889 L44.8543665,31.4527872 Z M32.1662758,24.0555556 C32.1662758,23.4725883 32.6453571,23 33.2281102,23 L41.7718819,23 C42.3583169,23 42.8337164,23.468524 42.8337164,24.0555556 C42.8337164,24.6385228 42.354635,25.1111111 41.7718819,25.1111111 L33.2281102,25.1111111 C32.6416752,25.1111111 32.1662758,24.6425871 32.1662758,24.0555556 Z M30.0327876,27.2222222 C30.0327876,26.639255 30.5127678,26.1666667 31.0948616,26.1666667 L43.9051305,26.1666667 C44.4916978,26.1666667 44.9672045,26.6351906 44.9672045,27.2222222 C44.9672045,27.8051895 44.4872243,28.2777778 43.9051305,28.2777778 L31.0948616,28.2777778 C30.5082944,28.2777778 30.0327876,27.8092538 30.0327876,27.2222222 Z" id="All-posts-icon"></path>
            </g>
        </g>
    </g>
</svg>