<?xml version="1.0" encoding="UTF-8"?>
<svg width="14px" height="10px" viewBox="0 0 14 10" version="1.1" xmlns="http://www.w3.org/2000/svg" xmlns:xlink="http://www.w3.org/1999/xlink">
    <!-- Generator: Sketch 52.6 (67491) - http://www.bohemiancoding.com/sketch -->
    <title>All posts icon</title>
    <desc>Created with Sketch.</desc>
    <g id="Symbols" stroke="none" stroke-width="1" fill="none" fill-rule="evenodd">
        <g id="Primary-nav" transform="translate(-17.000000, -23.000000)" fill="#848D95">
            <g id="All-posts-icon">
                <path d="M17,24 C17,23.4477153 17.4499488,23 17.9956222,23 L30.0043778,23 C30.5542448,23 31,23.4438648 31,24 C31,24.5522847 30.5500512,25 30.0043778,25 L17.9956222,25 C17.4457552,25 17,24.5561352 17,24 Z M17,28 C17,27.4477153 17.4499488,27 17.9956222,27 L30.0043778,27 C30.5542448,27 31,27.4438648 31,28 C31,28.5522847 30.5500512,29 30.0043778,29 L17.9956222,29 C17.4457552,29 17,28.5561352 17,28 Z M17,32 C17,31.4477153 17.4499488,31 17.9956222,31 L30.0043778,31 C30.5542448,31 31,31.4438648 31,32 C31,32.5522847 30.5500512,33 30.0043778,33 L17.9956222,33 C17.4457552,33 17,32.5561352 17,32 Z" transform="translate(24.000000, 28.000000) scale(1, -1) translate(-24.000000, -28.000000) "></path>
            </g>
        </g>
    </g>
</svg>