<?xml version="1.0" encoding="UTF-8"?>
<svg width="20px" height="20px" viewBox="0 0 20 20" version="1.1" xmlns="http://www.w3.org/2000/svg" xmlns:xlink="http://www.w3.org/1999/xlink">
    <!-- Generator: Sketch 52.6 (67491) - http://www.bohemiancoding.com/sketch -->
    <title>Combined Shape</title>
    <desc>Created with Sketch.</desc>
    <g id="Mobile-MVP" stroke="none" stroke-width="1" fill="none" fill-rule="evenodd">
        <g id="Mobile-App-MVP---All-posts-(July-17)" transform="translate(-319.000000, -745.000000)" fill="#34414F">
            <g id="Group-9" transform="translate(0.000000, 54.000000)">
                <g id="App-dock-Copy" transform="translate(0.000000, 675.000000)">
                    <g id="Group-2" transform="translate(35.000000, 16.000000)">
                        <path d="M285.428571,15.7877413 L285.43002,16.7026387 C285.942976,16.5271289 286.534035,16.6436152 286.943317,17.0520975 C287.354378,17.4623565 287.470322,18.0556204 287.291147,18.5691158 L288.198407,18.5714286 L289.714286,17.0585084 L286.936069,14.2857143 C286.023702,15.1947642 285.428571,15.7877413 285.428571,15.7877413 Z M300.580761,0.586493426 L303.413844,3.42066703 C304.194694,4.20181792 304.19563,5.46737701 303.41518,6.24812806 L290.021003,19.6474645 C289.826378,19.8421645 289.446387,20 289.165552,20 L285.000384,20 C284.447887,20 284,19.5550771 284,18.9993527 L284,14.8330872 C284,14.5551868 284.160069,14.1699307 284.352581,13.9775341 L297.753661,0.584492954 C298.534175,-0.195553107 299.799794,-0.19477445 300.580761,0.586493426 Z" id="Combined-Shape"></path>
                    </g>
                </g>
            </g>
        </g>
    </g>
</svg>