<?xml version="1.0" encoding="UTF-8"?>
<svg width="18px" height="18px" viewBox="0 0 18 18" version="1.1" xmlns="http://www.w3.org/2000/svg" xmlns:xlink="http://www.w3.org/1999/xlink">
    <!-- Generator: Sketch 52.6 (67491) - http://www.bohemiancoding.com/sketch -->
    <title>Combined Shape</title>
    <desc>Created with Sketch.</desc>
    <g id="Mobile" stroke="none" stroke-width="1" fill="none" fill-rule="evenodd">
        <g id="Inbox-(m):-Empty" transform="translate(-319.000000, -746.000000)" fill="#6833F1">
            <g id="Group-21" transform="translate(0.000000, 734.000000)">
                <g id="tab-bar-/-home">
                    <g id="tab-bar">
                        <g>
                            <path d="M326.65,19.65 L326.65,13.3437867 C326.65,12.6016338 327.249218,12 328,12 C328.745584,12 329.35,12.6062934 329.35,13.3437867 L329.35,19.65 L335.656213,19.65 C336.398366,19.65 337,20.2492175 337,21 C337,21.7455844 336.393707,22.35 335.656213,22.35 L329.35,22.35 L329.35,28.6562133 C329.35,29.3983662 328.750782,30 328,30 C327.254416,30 326.65,29.3937066 326.65,28.6562133 L326.65,22.35 L320.343787,22.35 C319.601634,22.35 319,21.7507825 319,21 C319,20.2544156 319.606293,19.65 320.343787,19.65 L326.65,19.65 Z" id="Combined-Shape"></path>
                        </g>
                    </g>
                </g>
            </g>
        </g>
    </g>
</svg>