<?xml version="1.0" encoding="UTF-8"?>
<svg width="16px" height="16px" viewBox="0 0 16 16" version="1.1" xmlns="http://www.w3.org/2000/svg" xmlns:xlink="http://www.w3.org/1999/xlink">
    <!-- Generator: Sketch 51.2 (57519) - http://www.bohemiancoding.com/sketch -->
    <title>Group 3 Copy</title>
    <desc>Created with Sketch.</desc>
    <defs></defs>
    <g id="Video" stroke="none" stroke-width="1" fill="none" fill-rule="evenodd">
        <g id="Video-2.0-(recording)" transform="translate(-316.000000, -600.000000)" fill="#34414F">
            <g id="Group" transform="translate(220.000000, 600.000000)">
                <g id="Group-3-Copy" transform="translate(96.000000, 0.000000)">
                    <g id="Group-9">
                        <path d="M8,11.4666667 C6.90933333,11.4666667 5.93733333,10.8326667 5.53266667,10.1333333 L10.4733333,10.1333333 C10.0793333,10.8346667 9.12266667,11.4666667 8,11.4666667 M11.3333333,8.8 L4.66666667,8.8 C4.29866667,8.8 4,9.09866667 4,9.46666667 C4,11.2113333 5.90666667,12.8 8,12.8 C10.0933333,12.8 12,11.2113333 12,9.46666667 C12,9.09866667 11.7013333,8.8 11.3333333,8.8" id="Fill-144"></path>
                        <path d="M8,14.4 C4.4712,14.4 1.6,11.5288 1.6,8 C1.6,4.4712 4.4712,1.6 8,1.6 C11.5288,1.6 14.4,4.4712 14.4,8 C14.4,11.5288 11.5288,14.4 8,14.4 M8,0 C3.5888,0 0,3.5888 0,8 C0,12.412 3.5888,16 8,16 C12.4112,16 16,12.412 16,8 C16,3.5888 12.4112,0 8,0" id="Fill-145"></path>
                        <polygon id="Fill-146" points="10.2814815 4 8.8 4 8.8 6.96296296 10.2814815 6.96296296"></polygon>
                        <polygon id="Fill-147" points="7.08148148 4 5.6 4 5.6 6.96296296 7.08148148 6.96296296"></polygon>
                    </g>
                </g>
            </g>
        </g>
    </g>
</svg>