<?xml version="1.0" encoding="UTF-8"?>
<svg width="20px" height="20px" viewBox="0 0 20 20" version="1.1" xmlns="http://www.w3.org/2000/svg" xmlns:xlink="http://www.w3.org/1999/xlink">
    <!-- Generator: Sketch 50.2 (55047) - http://www.bohemiancoding.com/sketch -->
    <title>Combined Shape</title>
    <desc>Created with Sketch.</desc>
    <defs></defs>
    <g id="Video-/-GA" stroke="none" stroke-width="1" fill="none" fill-rule="evenodd">
        <g id="New-post-(/w-video-button)" transform="translate(-212.000000, -412.000000)" fill="#C4C6C9" fill-rule="nonzero">
            <g id="Group-8" transform="translate(212.000000, 412.000000)">
                <g id="Group-3">
                    <path d="M1.04991883,5.59751554 C0.803031647,6.09711818 1.0033801,6.70452554 1.49740962,6.95419784 C1.99143914,7.20387014 2.59207079,7.00126157 2.83895797,6.50165893 C2.91364557,6.35052059 2.99301328,6.20180213 3.07693014,6.05571172 C3.35434196,5.57276696 3.19209186,4.95383922 2.7145344,4.67329793 C2.23697694,4.39275664 1.62495341,4.55683708 1.34754159,5.03978184 C1.24260599,5.22246367 1.14334309,5.40846154 1.04991883,5.59751554 Z M0.672434797,13.7653331 C0.871967221,14.2861234 1.45119466,14.5447297 1.96617549,14.3429463 C2.48115632,14.141163 2.73687778,13.5554013 2.53734536,13.034611 C2.18369541,12.1115657 2,11.1258265 2,10.1128095 C2,9.55429449 1.55228475,9.10152858 1,9.10152858 C0.44771525,9.10152858 0,9.55429449 0,10.1128095 C0,11.3767493 0.229850587,12.6101646 0.672434797,13.7653331 Z M7.77722283,19.9746738 C8.31579699,20.0983494 8.85153813,19.7570825 8.97383416,19.2124327 C9.09613019,18.6677829 8.75867008,18.1259981 8.22009592,18.0023224 C6.72795818,17.6596749 5.37056948,16.8885473 4.30051603,15.7900428 C3.91293609,15.3921578 3.27978898,15.3873482 2.88634236,15.7793004 C2.49289574,16.1712526 2.48813986,16.8115422 2.87571979,17.2094273 C4.21229494,18.5815399 5.90968539,19.5458213 7.77722283,19.9746738 Z M11,9.10152858 L14.0046024,9.10152858 C14.5543453,9.10152858 15,9.55040062 15,10.1128095 C15,10.6713246 14.5508938,11.1240905 14.0046024,11.1240905 L11,11.1240905 L11,14.1625877 C11,14.7185322 10.5561352,15.1692143 10,15.1692143 C9.44771525,15.1692143 9,14.7150418 9,14.1625877 L9,11.1240905 L5.99539757,11.1240905 C5.44565467,11.1240905 5,10.6752184 5,10.1128095 C5,9.55429449 5.44910619,9.10152858 5.99539757,9.10152858 L9,9.10152858 L9,6.06303137 C9,5.50708685 9.44386482,5.05640477 10,5.05640477 C10.5522847,5.05640477 11,5.5105773 11,6.06303137 L11,9.10152858 Z M20,10.1128095 C20,14.856002 16.7455717,18.9317454 12.2315214,19.9726616 C11.6930578,20.0968285 11.1570125,19.7560503 11.0342307,19.2115123 C10.9114489,18.6669743 11.2484256,18.1248819 11.7868893,18.000715 C15.3958397,17.1685101 18,13.9071418 18,10.1128095 C18,5.64468915 14.418278,2.02256191 10,2.02256191 C9.44771525,2.02256191 9,1.569796 9,1.01128095 C9,0.452765905 9.44771525,0 10,0 C15.5228475,0 20,4.52765905 20,10.1128095 Z" id="Combined-Shape"></path>
                </g>
            </g>
        </g>
    </g>
</svg>