<?xml version="1.0" encoding="UTF-8"?>
<svg width="16px" height="16px" viewBox="0 0 16 16" version="1.1" xmlns="http://www.w3.org/2000/svg" xmlns:xlink="http://www.w3.org/1999/xlink">
    <!-- Generator: Sketch 51.2 (57519) - http://www.bohemiancoding.com/sketch -->
    <title>Combined Shape</title>
    <desc>Created with Sketch.</desc>
    <defs></defs>
    <g id="Video" stroke="none" stroke-width="1" fill="none" fill-rule="evenodd">
        <g id="Video-2.0-(recording)" transform="translate(-844.000000, -600.000000)" fill="#34414F">
            <g id="Group" transform="translate(220.000000, 600.000000)">
                <path d="M632,16 C627.581722,16 624,12.418278 624,8 C624,3.581722 627.581722,0 632,0 C636.418278,0 640,3.581722 640,8 C640,12.418278 636.418278,16 632,16 Z M632,4.8 C631.116344,4.8 630.4,5.5163444 630.4,6.4 C630.4,6.8418278 630.041828,7.2 629.6,7.2 C629.158172,7.2 628.8,6.8418278 628.8,6.4 C628.8,4.6326888 630.232689,3.2 632,3.2 C633.78539,3.2 635.204883,4.4839058 635.204883,6.23847656 C635.204883,7.19713495 634.868362,7.78419379 634.149817,8.40259993 C634.076034,8.46610043 633.244414,9.14130552 633.213388,9.16611428 C632.880151,9.43257678 632.8104,9.55300974 632.8104,9.95126953 C632.8104,10.3930973 632.452228,10.7512695 632.0104,10.7512695 C631.568573,10.7512695 631.2104,10.3930973 631.2104,9.95126953 C631.2104,9.01521542 631.529807,8.46371763 632.214168,7.91649075 C632.187355,7.93793067 633.046103,7.24153013 633.10611,7.18988556 C633.501698,6.84942776 633.604883,6.66942296 633.604883,6.23847656 C633.604883,5.40538445 632.935566,4.8 632,4.8 Z M632,12.8 C631.558172,12.8 631.2,12.4418278 631.2,12 C631.2,11.5581722 631.558172,11.2 632,11.2 C632.441828,11.2 632.8,11.5581722 632.8,12 C632.8,12.4418278 632.441828,12.8 632,12.8 Z" id="Combined-Shape"></path>
            </g>
        </g>
    </g>
</svg>