<?xml version="1.0" encoding="UTF-8"?>
<svg width="20px" height="20px" viewBox="0 0 20 20" version="1.1" xmlns="http://www.w3.org/2000/svg" xmlns:xlink="http://www.w3.org/1999/xlink">
    <!-- Generator: Sketch 50.2 (55047) - http://www.bohemiancoding.com/sketch -->
    <title>Combined Shape</title>
    <desc>Created with Sketch.</desc>
    <defs></defs>
    <g id="Video-/-GA" stroke="none" stroke-width="1" fill="none" fill-rule="evenodd">
        <g id="New-post-(/w-video-button)" transform="translate(-284.000000, -412.000000)" fill="#C4C6C9">
            <g id="Group-8" transform="translate(212.000000, 412.000000)">
                <path d="M82,20 C76.4771525,20 72,15.5228475 72,10 C72,4.4771525 76.4771525,0 82,0 C87.5228475,0 92,4.4771525 92,10 C92,15.5228475 87.5228475,20 82,20 Z M82,18 C86.418278,18 90,14.418278 90,10 C90,5.581722 86.418278,2 82,2 C77.581722,2 74,5.581722 74,10 C74,14.418278 77.581722,18 82,18 Z M82,6 C80.8954305,6 80,6.8954305 80,8 C80,8.55228475 79.5522847,9 79,9 C78.4477153,9 78,8.55228475 78,8 C78,5.790861 79.790861,4 82,4 C84.2317369,4 86.0061035,5.60488225 86.0061035,7.7980957 C86.0061035,8.99641869 85.5854519,9.73024224 84.687271,10.5032499 C84.5950421,10.5826255 83.5555175,11.4266319 83.5167353,11.4576429 C83.1001882,11.790721 83.0130005,11.9412622 83.0130005,12.4390869 C83.0130005,12.9913717 82.5652852,13.4390869 82.0130005,13.4390869 C81.4607157,13.4390869 81.0130005,12.9913717 81.0130005,12.4390869 C81.0130005,11.2690193 81.4122584,10.579647 82.26771,9.89561344 C82.2341941,9.92241333 83.3076283,9.05191267 83.3826375,8.98735695 C83.8771227,8.5617847 84.0061035,8.3367787 84.0061035,7.7980957 C84.0061035,6.75673056 83.1694581,6 82,6 Z M82,16 C81.4477153,16 81,15.5522847 81,15 C81,14.4477153 81.4477153,14 82,14 C82.5522847,14 83,14.4477153 83,15 C83,15.5522847 82.5522847,16 82,16 Z" id="Combined-Shape"></path>
            </g>
        </g>
    </g>
</svg>