<?xml version="1.0" encoding="UTF-8"?>
<svg width="20px" height="20px" viewBox="0 0 20 20" version="1.1" xmlns="http://www.w3.org/2000/svg" xmlns:xlink="http://www.w3.org/1999/xlink">
    <!-- Generator: Sketch 50.2 (55047) - http://www.bohemiancoding.com/sketch -->
    <title>Group 9</title>
    <desc>Created with Sketch.</desc>
    <defs></defs>
    <g id="Video-/-GA" stroke="none" stroke-width="1" fill="none" fill-rule="evenodd">
        <g id="New-post-(/w-video-button)" transform="translate(-248.000000, -412.000000)" fill="#C4C6C9">
            <g id="Group-8" transform="translate(212.000000, 412.000000)">
                <g id="Group-3">
                    <g id="Group-9" transform="translate(36.000000, 0.000000)">
                        <path d="M10,14.3333333 C8.63666667,14.3333333 7.42166667,13.5408333 6.91583333,12.6666667 L13.0916667,12.6666667 C12.5991667,13.5433333 11.4033333,14.3333333 10,14.3333333 M14.1666667,11 L5.83333333,11 C5.37333333,11 5,11.3733333 5,11.8333333 C5,14.0141667 7.38333333,16 10,16 C12.6166667,16 15,14.0141667 15,11.8333333 C15,11.3733333 14.6266667,11 14.1666667,11" id="Fill-144"></path>
                        <path d="M10,18 C5.589,18 2,14.411 2,10 C2,5.589 5.589,2 10,2 C14.411,2 18,5.589 18,10 C18,14.411 14.411,18 10,18 M10,0 C4.486,0 0,4.486 0,10 C0,15.515 4.486,20 10,20 C15.514,20 20,15.515 20,10 C20,4.486 15.514,0 10,0" id="Fill-145"></path>
                        <polygon id="Fill-146" points="12.8518519 5 11 5 11 8.7037037 12.8518519 8.7037037"></polygon>
                        <polygon id="Fill-147" points="8.85185185 5 7 5 7 8.7037037 8.85185185 8.7037037"></polygon>
                    </g>
                </g>
            </g>
        </g>
    </g>
</svg>