<?xml version="1.0" encoding="UTF-8"?>
<svg width="16px" height="20px" viewBox="0 0 16 20" version="1.1" xmlns="http://www.w3.org/2000/svg" xmlns:xlink="http://www.w3.org/1999/xlink">
    <!-- Generator: Sketch 51.2 (57519) - http://www.bohemiancoding.com/sketch -->
    <title>Combined Shape</title>
    <desc>Created with Sketch.</desc>
    <defs></defs>
    <g id="Notifications-and-mentions" stroke="none" stroke-width="1" fill="none" fill-rule="evenodd">
        <g id="Mention-notifications-dropdown" transform="translate(-965.000000, -18.000000)" fill="#34414F">
            <g id="Group" transform="translate(965.000000, 18.000000)">
                <g id="Group-31">
                    <path d="M2.66855898,16.8888889 C1.19550203,16.8888889 0,15.693731 0,14.2222222 C0,13.2455441 0.528815714,12.3750357 1.33708576,11.9101101 C1.33708572,11.6403461 1.33333333,8.44318912 1.33333333,8.44318912 C1.33333333,5.37164498 3.39528572,2.78565418 6.22222222,2.01309277 L6.22222222,1.77777778 C6.22222222,0.795938223 7.01816044,0 8,0 C8.98183956,0 9.77777778,0.795938223 9.77777778,1.77777778 L9.77777778,2.01309277 C12.6053197,2.78549119 14.6666667,5.37171379 14.6666667,8.44782042 L14.6666667,11.917872 C15.4758853,12.3849848 16,13.2518675 16,14.2222222 C16,15.6956387 14.8062502,16.8888889 13.331441,16.8888889 L10.6666652,16.8888889 C10.6651626,18.3619056 9.46883913,19.5555556 8,19.5555556 C6.52724067,19.5555556 5.33333333,18.3628687 5.33333333,16.8908 L2.66855898,16.8888889 Z M12.8888889,12.7431958 L12.8888889,8.44782042 C12.8888889,5.74287233 10.7016445,3.55555556 8,3.55555556 C5.29945539,3.55555556 3.11111111,5.74360791 3.11111111,8.44318912 L3.11111111,12.7431722 C3.11111111,12.9918044 2.92021514,13.2388572 2.68473302,13.2994788 L2.44382878,13.3614962 C2.05467063,13.4616796 1.77777778,13.814177 1.77777778,14.2222222 C1.77777778,14.7117769 2.17722702,15.1111111 2.66855898,15.1111111 L13.331441,15.1111111 C13.8245772,15.1111111 14.2222222,14.7136325 14.2222222,14.2222222 C14.2222222,13.8159519 13.9442013,13.4620775 13.555297,13.3615382 L13.3222198,13.3012832 C13.0852289,13.2400165 12.8888889,12.9895496 12.8888889,12.7431958 Z" id="Combined-Shape"></path>
                </g>
            </g>
        </g>
    </g>
</svg>