<?xml version="1.0" encoding="UTF-8"?>
<svg width="16px" height="18px" viewBox="0 0 16 18" version="1.1" xmlns="http://www.w3.org/2000/svg" xmlns:xlink="http://www.w3.org/1999/xlink">
    <!-- Generator: Sketch 52.6 (67491) - http://www.bohemiancoding.com/sketch -->
    <title>Combined Shape</title>
    <desc>Created with Sketch.</desc>
    <g id="Mobile" stroke="none" stroke-width="1" fill="none" fill-rule="evenodd">
        <g id="Inbox-(m):-Empty" transform="translate(-226.000000, -746.000000)" fill="#6833F1">
            <g id="Group-21" transform="translate(0.000000, 734.000000)">
                <g id="Group-19" transform="translate(38.000000, 12.000000)">
                    <path d="M190.668559,15.5454545 C189.195502,15.5454545 188,14.445366 188,13.0909091 C188,12.1919213 188.528816,11.3906578 189.337086,10.9627149 C189.337086,10.7144095 189.333333,7.77157181 189.333333,7.77157181 C189.333333,4.94435504 191.395286,2.56406806 194.222222,1.85296039 L194.222222,1.63636364 C194.222222,0.732624955 195.01816,0 196,0 C196.98184,0 197.777778,0.732624955 197.777778,1.63636364 L197.777778,1.85296039 C200.60532,2.56391803 202.666667,4.94441838 202.666667,7.7758347 L202.666667,10.9698595 C203.475885,11.3998155 204,12.1977416 204,13.0909091 C204,14.4471219 202.80625,15.5454545 201.331441,15.5454545 L198.666665,15.5454545 C198.665163,16.9012994 197.468839,18 196,18 C194.527241,18 193.333333,16.902186 193.333333,15.5472136 L190.668559,15.5454545 Z" id="Combined-Shape"></path>
                </g>
            </g>
        </g>
    </g>
</svg>