<?xml version="1.0" encoding="UTF-8"?>
<svg width="32px" height="32px" viewBox="0 0 32 32" version="1.1" xmlns="http://www.w3.org/2000/svg" xmlns:xlink="http://www.w3.org/1999/xlink">
    <!-- Generator: Sketch 52.6 (67491) - http://www.bohemiancoding.com/sketch -->
    <title>Group 2</title>
    <desc>Created with Sketch.</desc>
    <g id="Symbols" stroke="none" stroke-width="1" fill="none" fill-rule="evenodd">
        <g id="Primary-nav" transform="translate(-1192.000000, -12.000000)">
            <g id="Group-2" transform="translate(1192.000000, 12.000000)">
                <circle id="Avatar" fill="#ECECEC" cx="16" cy="16" r="16"></circle>
                <path d="M12.0014192,20.9545455 C10.8966265,20.9545455 10,20.037805 10,18.9090909 C10,18.1599344 10.3966118,17.4922149 11.0028143,17.1355958 C11.0028143,16.9286746 11,14.4763098 11,14.4763098 C11,12.1202959 12.5464643,10.1367234 14.6666667,9.54413366 L14.6666667,9.36363636 C14.6666667,8.6105208 15.2636203,8 16,8 C16.7363797,8 17.3333333,8.6105208 17.3333333,9.36363636 L17.3333333,9.54413366 C19.4539898,10.1365984 21,12.1203486 21,14.4798623 L21,17.1415496 C21.606914,17.4998463 22,18.1647847 22,18.9090909 C22,20.0392683 21.1046877,20.9545455 19.9985808,20.9545455 L17.9999989,20.9545455 C17.9988719,22.0844162 17.1016293,23 16,23 C14.8954305,23 14,22.085155 14,20.9560113 L12.0014192,20.9545455 Z" id="Combined-Shape" fill="#898D93"></path>
            </g>
        </g>
    </g>
</svg>