<?xml version="1.0" encoding="UTF-8"?>
<svg width="16px" height="20px" viewBox="0 0 16 20" version="1.1" xmlns="http://www.w3.org/2000/svg" xmlns:xlink="http://www.w3.org/1999/xlink">
    <!-- Generator: Sketch 51.3 (57544) - http://www.bohemiancoding.com/sketch -->
    <title>Combined Shape</title>
    <desc>Created with Sketch.</desc>
    <defs></defs>
    <g id="Active-search" stroke="none" stroke-width="1" fill="none" fill-rule="evenodd">
        <g id="Search-(type)-mobile" transform="translate(-255.000000, -18.000000)" fill="#FA6654">
            <g id="Group-6">
                <path d="M257.668559,35.2727273 C256.195502,35.2727273 255,34.0504067 255,32.5454545 C255,31.5465792 255.528816,30.6562865 256.337086,30.1807944 C256.337086,29.9048994 256.333333,26.6350798 256.333333,26.6350798 C256.333333,23.4937278 258.395286,20.8489645 261.222222,20.0588449 L261.222222,19.8181818 C261.222222,18.8140277 262.01816,18 263,18 C263.98184,18 264.777778,18.8140277 264.777778,19.8181818 L264.777778,20.0588449 C267.60532,20.8487978 269.666667,23.4937982 269.666667,26.6398163 L269.666667,30.1887327 C270.475885,30.6664617 271,31.5530463 271,32.5454545 C271,34.0523577 269.80625,35.2727273 268.331441,35.2727273 L265.666665,35.2727273 C265.665163,36.7792216 264.468839,38 263,38 C261.527241,38 260.333333,36.7802066 260.333333,35.2746818 L257.668559,35.2727273 Z M267.888889,31.0328139 L267.888889,26.6398163 C267.888889,23.8733922 265.701645,21.6363636 263,21.6363636 C260.299455,21.6363636 258.111111,23.8741444 258.111111,26.6350798 L258.111111,31.0327897 C258.111111,31.2870727 257.920215,31.5397403 257.684733,31.6017397 L257.443829,31.6651666 C257.054671,31.7676268 256.777778,32.1281356 256.777778,32.5454545 C256.777778,33.0461354 257.177227,33.4545455 257.668559,33.4545455 L268.331441,33.4545455 C268.824577,33.4545455 269.222222,33.0480332 269.222222,32.5454545 C269.222222,32.1299508 268.944201,31.7680338 268.555297,31.6652095 L268.32222,31.6035851 C268.085229,31.540926 267.888889,31.2847666 267.888889,31.0328139 Z" id="Combined-Shape"></path>
            </g>
        </g>
    </g>
</svg>