<?xml version="1.0" encoding="UTF-8"?>
<svg width="14px" height="14px" viewBox="0 0 14 14" version="1.1" xmlns="http://www.w3.org/2000/svg" xmlns:xlink="http://www.w3.org/1999/xlink">
    <!-- Generator: Sketch 52.6 (67491) - http://www.bohemiancoding.com/sketch -->
    <title>Group 2</title>
    <desc>Created with Sketch.</desc>
    <g id="Notifications" stroke="none" stroke-width="1" fill="none" fill-rule="evenodd">
        <g id="Notification-pop-down-(open)" transform="translate(-913.000000, -64.000000)" fill="#FFFFFF">
            <g id="Group-15" transform="translate(897.000000, 47.000000)">
                <g id="Group-2" transform="translate(16.000000, 17.000000)">
                    <path d="M1,4 L7,4 C7.55228475,4 8,4.44771525 8,5 C8,5.55228475 7.55228475,6 7,6 L1,6 C0.44771525,6 6.76353751e-17,5.55228475 0,5 C-6.76353751e-17,4.44771525 0.44771525,4 1,4 Z M1,0 L11,0 C11.5522847,-1.01453063e-16 12,0.44771525 12,1 C12,1.55228475 11.5522847,2 11,2 L1,2 C0.44771525,2 6.76353751e-17,1.55228475 0,1 C-6.76353751e-17,0.44771525 0.44771525,1.01453063e-16 1,0 Z M12.218935,4.29960538 C12.6262417,3.90013154 13.2953269,3.90013154 13.7026336,4.29960538 C14.0991221,4.68846913 14.0991221,5.31153087 13.7026336,5.70039462 L5.54577085,13.7003946 C5.1384642,14.0998685 4.46937894,14.0998685 4.06207228,13.7003946 L0.297366401,10.0080869 C-0.0991221337,9.61922318 -0.0991221337,8.99616144 0.297366401,8.60729768 C0.704673056,8.20782385 1.37375832,8.20782385 1.78106497,8.60729768 L4.80392157,11.5720224 L12.218935,4.29960538 Z" id="Combined-Shape"></path>
                </g>
            </g>
        </g>
    </g>
</svg>