<?xml version="1.0" encoding="UTF-8"?>
<svg width="18px" height="20px" viewBox="0 0 18 20" version="1.1" xmlns="http://www.w3.org/2000/svg" xmlns:xlink="http://www.w3.org/1999/xlink">
    <!-- Generator: Sketch 52.6 (67491) - http://www.bohemiancoding.com/sketch -->
    <title>Combined Shape</title>
    <desc>Created with Sketch.</desc>
    <g id="Mobile-MVP" stroke="none" stroke-width="1" fill="none" fill-rule="evenodd">
        <g id="Mobile-App-MVP---All-posts-(July-17)" transform="translate(-225.000000, -745.000000)" fill="#34414F">
            <g id="Group-9" transform="translate(0.000000, 54.000000)">
                <g id="App-dock-Copy" transform="translate(0.000000, 675.000000)">
                    <g id="Group-2" transform="translate(35.000000, 16.000000)">
                        <path d="M193.002129,17.2727273 C191.34494,17.2727273 190,16.0504067 190,14.5454545 C190,13.5465792 190.594918,12.6562865 191.504221,12.1807944 C191.504221,11.9048994 191.5,8.63507978 191.5,8.63507978 C191.5,5.49372782 193.819696,2.84896451 197,2.05884487 L197,1.81818182 C197,0.814027728 197.895431,0 199,0 C200.104569,0 201,0.814027728 201,1.81818182 L201,2.05884487 C204.180985,2.84879781 206.5,5.49379819 206.5,8.63981633 L206.5,12.1887327 C207.410371,12.6664617 208,13.5530463 208,14.5454545 C208,16.0523577 206.657032,17.2727273 204.997871,17.2727273 L201.999998,17.2727273 C201.998308,18.7792216 200.652444,20 199,20 C197.343146,20 196,18.7802066 196,17.2746818 L193.002129,17.2727273 Z" id="Combined-Shape"></path>
                    </g>
                </g>
            </g>
        </g>
    </g>
</svg>