<?xml version="1.0" encoding="UTF-8"?>
<svg width="14px" height="14px" viewBox="0 0 14 14" version="1.1" xmlns="http://www.w3.org/2000/svg" xmlns:xlink="http://www.w3.org/1999/xlink">
    <!-- Generator: Sketch 51.1 (57501) - http://www.bohemiancoding.com/sketch -->
    <title>Group 2</title>
    <desc>Created with Sketch.</desc>
    <defs></defs>
    <g id="Video" stroke="none" stroke-width="1" fill="none" fill-rule="evenodd">
        <g id="June-29:-New-menu" transform="translate(-926.000000, -153.000000)">
            <g id="Group-4" transform="translate(908.000000, 136.000000)">
                <g id="Group-2" transform="translate(17.000000, 16.000000)">
                    <rect id="Rectangle" fill="#FFFFFF" opacity="0" x="0" y="0" width="16" height="16"></rect>
                    <path d="M2.40000928,11.6070804 L2.40104678,12.2636799 C2.76832261,12.1377209 3.19152028,12.2213202 3.48456517,12.514478 C3.77888474,12.8089109 3.86190026,13.2346819 3.73361173,13.603205 L4.38320831,13.6048648 L5.4685761,12.5190789 L3.47937559,10.5291123 C2.82612211,11.1815153 2.40000928,11.6070804 2.40000928,11.6070804 Z M10.2171716,3.80082692 L12.2012647,5.78379713 L6.45828195,11.5289919 L4.4699195,9.53986368 C6.78575306,7.22707158 10.2171716,3.80082692 10.2171716,3.80082692 Z M12.606533,1.4105454 L14.5896907,3.39446692 C15.1362858,3.94127254 15.1369413,4.82716391 14.590626,5.37368964 L5.2147018,14.7532251 C5.07846428,14.8895151 4.81247078,15 4.61588647,15 L1.70026863,15 C1.31352094,15 1,14.688554 1,14.2995469 L1,11.383161 C1,11.1886307 1.1120485,10.9189515 1.24680697,10.7842739 L10.6275627,1.40914507 C11.1739227,0.863112825 12.059856,0.863657885 12.606533,1.4105454 Z" id="Combined-Shape" fill="#3FBD7C"></path>
                </g>
            </g>
        </g>
    </g>
</svg>