<?xml version="1.0" encoding="UTF-8"?>
<svg width="16px" height="16px" viewBox="0 0 16 16" version="1.1" xmlns="http://www.w3.org/2000/svg" xmlns:xlink="http://www.w3.org/1999/xlink">
    <!-- Generator: Sketch 52.2 (67145) - http://www.bohemiancoding.com/sketch -->
    <title>Combined Shape</title>
    <desc>Created with Sketch.</desc>
    <g id="PH-banner" stroke="none" stroke-width="1" fill="none" fill-rule="evenodd">
        <g id="PH-Banner" transform="translate(-1344.000000, -44.000000)" fill="#FFFDF9" fill-rule="nonzero">
            <path d="M1359.70709,45.7071191 C1360.09763,45.3166016 1360.09764,44.6834367 1359.70712,44.2929056 C1359.3166,43.9023744 1358.68344,43.9023634 1358.29291,44.2928809 L1352,50.585567 L1345.70709,44.2928809 C1345.31656,43.9023634 1344.6834,43.9023744 1344.29288,44.2929056 C1343.90236,44.6834367 1343.90237,45.3166016 1344.29291,45.7071191 L1350.58576,51.9997559 L1344.29291,58.2923926 C1343.90237,58.6829101 1343.90236,59.3160751 1344.29288,59.7066062 C1344.6834,60.0971373 1345.31656,60.0971483 1345.70709,59.7066308 L1352,53.4139448 L1358.29291,59.7066308 C1358.68344,60.0971483 1359.3166,60.0971373 1359.70712,59.7066062 C1360.09764,59.3160751 1360.09763,58.6829101 1359.70709,58.2923926 L1353.41424,51.9997559 L1359.70709,45.7071191 Z" id="Combined-Shape"></path>
        </g>
    </g>
</svg>