<?xml version="1.0" encoding="UTF-8"?>
<svg width="12px" height="12px" viewBox="0 0 12 12" version="1.1" xmlns="http://www.w3.org/2000/svg" xmlns:xlink="http://www.w3.org/1999/xlink">
    <!-- Generator: Sketch 52.6 (67491) - http://www.bohemiancoding.com/sketch -->
    <title>Combined Shape</title>
    <desc>Created with Sketch.</desc>
    <g id="Symbols" stroke="none" stroke-width="1" fill="none" fill-rule="evenodd">
        <g id="4d2ac49f-d9e1-4767-84a8-4574f3464dfc" transform="translate(-188.000000, -184.000000)" fill="#C2C3C6">
            <g id="Side-nav-labels">
                <g id="Group-10">
                    <g id="Group-6" transform="translate(0.000000, 183.000000)">
                        <g id="Group-3" transform="translate(16.000000, 0.000000)">
                            <path d="M174,1 L182,1 C183.104569,1 184,1.8954305 184,3 L184,11 C184,12.1045695 183.104569,13 182,13 L174,13 C172.895431,13 172,12.1045695 172,11 L172,3 C172,1.8954305 172.895431,1 174,1 Z M177.4,6.4 L175.597239,6.4 C175.269464,6.4 175,6.66862915 175,7 C175,7.33368111 175.267393,7.6 175.597239,7.6 L177.4,7.6 L177.4,9.40276146 C177.4,9.73053629 177.668629,10 178,10 C178.333681,10 178.6,9.7326072 178.6,9.40276146 L178.6,7.6 L180.402761,7.6 C180.730536,7.6 181,7.33137085 181,7 C181,6.66631889 180.732607,6.4 180.402761,6.4 L178.6,6.4 L178.6,4.59723854 C178.6,4.26946371 178.331371,4 178,4 C177.666319,4 177.4,4.2673928 177.4,4.59723854 L177.4,6.4 Z" id="Combined-Shape"></path>
                        </g>
                    </g>
                </g>
            </g>
        </g>
    </g>
</svg>