<?xml version="1.0" encoding="UTF-8"?>
<svg width="16px" height="16px" viewBox="0 0 16 16" version="1.1" xmlns="http://www.w3.org/2000/svg" xmlns:xlink="http://www.w3.org/1999/xlink">
    <!-- Generator: Sketch 52.6 (67491) - http://www.bohemiancoding.com/sketch -->
    <title>Group 3</title>
    <desc>Created with Sketch.</desc>
    <g id="Styles-&amp;-states" stroke="none" stroke-width="1" fill="none" fill-rule="evenodd">
        <g id="Nav-tweaks" transform="translate(-184.000000, -175.000000)" fill="#242D42">
            <g id="Group-7" transform="translate(0.000000, 56.000000)">
                <g id="Group-6">
                    <g id="Group-5" transform="translate(0.000000, 110.000000)">
                        <g id="Group-3" transform="translate(184.000000, 9.000000)">
                            <g id="Group-4">
                                <rect id="Rectangle-13-Copy" opacity="0.100000001" x="0" y="0" width="16" height="16" rx="4"></rect>
                                <path d="M7.4,7.4 L7.4,4.59723854 C7.4,4.2673928 7.66631889,4 8,4 C8.33137085,4 8.6,4.26946371 8.6,4.59723854 L8.6,7.4 L11.4027615,7.4 C11.7326072,7.4 12,7.66631889 12,8 C12,8.33137085 11.7305363,8.6 11.4027615,8.6 L8.6,8.6 L8.6,11.4027615 C8.6,11.7326072 8.33368111,12 8,12 C7.66862915,12 7.4,11.7305363 7.4,11.4027615 L7.4,8.6 L4.59723854,8.6 C4.2673928,8.6 4,8.33368111 4,8 C4,7.66862915 4.26946371,7.4 4.59723854,7.4 L7.4,7.4 Z" id="Combined-Shape"></path>
                            </g>
                        </g>
                    </g>
                </g>
            </g>
        </g>
    </g>
</svg>