<?xml version="1.0" encoding="UTF-8"?>
<svg width="18px" height="18px" viewBox="0 0 18 18" version="1.1" xmlns="http://www.w3.org/2000/svg" xmlns:xlink="http://www.w3.org/1999/xlink">
    <!-- Generator: Sketch 49 (51002) - http://www.bohemiancoding.com/sketch -->
    <title>Combined Shape</title>
    <desc>Created with Sketch.</desc>
    <defs></defs>
    <g id="➡️-Boards-&amp;-Posts" stroke="none" stroke-width="1" fill="none" fill-rule="evenodd">
        <g id="Grid" transform="translate(-304.000000, -285.000000)" fill="#898D93" fill-rule="nonzero">
            <g id="Group-19" transform="translate(274.000000, 184.000000)">
                <g id="Group-9" transform="translate(30.000000, 100.000000)">
                    <g id="Group-2">
                        <path d="M0.3829328,6.55251916 L7.74982573,1.37700886 C8.46517857,0.874447468 9.53448812,0.874213305 10.2501743,1.37700886 L17.6170672,6.55251916 C18.1271716,6.91088604 18.1277443,7.66716157 17.6181832,8.02630194 L10.2512903,13.2185134 C9.53545014,13.72304 8.46488357,13.7232752 7.7487097,13.2185134 L0.381816773,8.02630194 C-0.127744259,7.66716157 -0.127171566,6.91088604 0.3829328,6.55251916 Z M15.5404832,12.7368288 C15.5404832,12.7368288 15.5015211,12.71794 15.2557022,12.5466584 C14.8485601,12.2629702 14.7389545,11.6775859 15.0247375,11.2734281 C15.3105206,10.8692704 15.8519759,10.8021027 16.2906141,11.0830739 C16.5510706,11.2499102 17.4472684,11.8641108 17.6180365,12.0079946 C18.1251662,12.4352863 18.1290975,13.1143344 17.6191534,13.4707997 L10.2467212,18.624336 C9.5303428,19.1251046 8.45897126,19.125338 7.7422589,18.624336 L0.369826747,13.4707997 C-0.140117427,13.1143344 -0.106500739,12.4077285 0.370943614,12.0079946 C0.547713525,11.8599964 1.48502715,11.231724 1.73822796,11.0552989 C2.14537003,10.7716107 2.70709683,10.8692704 2.99287988,11.2734281 C3.27866293,11.6775859 3.18028201,12.2351952 2.77313994,12.5188834 C2.60984177,12.6326662 2.44976622,12.7442036 2.44976622,12.7442036 L8.77940462,17.1623105 C8.87393548,17.2283902 9.11511981,17.2283376 9.20957549,17.1623105 L15.5404832,12.7368288 Z M9.21603986,2.85157695 C9.12109231,2.78487284 8.87883218,2.78492589 8.78396014,2.85157695 L2.46194522,7.29302243 L8.78507616,11.7455159 C8.879536,11.8120916 9.12053912,11.8120386 9.21492384,11.7455159 L15.5315949,7.29350448 L9.21603986,2.85157695 Z" id="Combined-Shape"></path>
                    </g>
                </g>
            </g>
        </g>
    </g>
</svg>