<?xml version="1.0" encoding="UTF-8"?>
<svg width="80px" height="80px" viewBox="0 0 80 80" version="1.1" xmlns="http://www.w3.org/2000/svg" xmlns:xlink="http://www.w3.org/1999/xlink">
    <!-- Generator: Sketch 52.2 (67145) - http://www.bohemiancoding.com/sketch -->
    <title>Group 3 Copy 3</title>
    <desc>Created with Sketch.</desc>
    <g id="Website" stroke="none" stroke-width="1" fill="none" fill-rule="evenodd">
        <g id="Press-kit-/-grid" transform="translate(-852.000000, -3574.000000)">
            <g id="Group-22" transform="translate(235.000000, 3086.000000)">
                <g id="Group-21" transform="translate(207.000000, 120.000000)">
                    <g id="Group-19" transform="translate(0.000000, 138.000000)">
                        <g id="Group-3">
                            <g id="Homepage-content@2x">
                                <g id="Group-3-Copy-3" transform="translate(410.000000, 230.000000)">
                                    <rect id="Rectangle" fill="#000000" opacity="0.200000003" x="0" y="0" width="80" height="80" rx="40"></rect>
                                    <path d="M31.511197,25.5075174 L54.4317984,39.1403718 C54.9064671,39.4226981 55.0623913,40.0363637 54.780065,40.5110324 C54.694827,40.654341 54.5751071,40.774061 54.4317984,40.859299 L31.511197,54.4921534 C31.0365283,54.7744797 30.4228627,54.6185554 30.1405364,54.1438867 C30.0485518,53.9892352 30,53.8126294 30,53.6326898 L30,26.366981 C30,25.8146963 30.4477153,25.366981 31,25.366981 C31.1799396,25.366981 31.3565454,25.4155328 31.511197,25.5075174 Z" id="Rectangle-3" fill="#FFFFFF"></path>
                                </g>
                            </g>
                        </g>
                    </g>
                </g>
            </g>
        </g>
    </g>
</svg>