<?xml version="1.0" encoding="UTF-8"?>
<svg width="10px" height="10px" viewBox="0 0 10 10" version="1.1" xmlns="http://www.w3.org/2000/svg" xmlns:xlink="http://www.w3.org/1999/xlink">
    <!-- Generator: Sketch 51.2 (57519) - http://www.bohemiancoding.com/sketch -->
    <title>Combined Shape</title>
    <desc>Created with Sketch.</desc>
    <defs></defs>
    <g id="Website" stroke="none" stroke-width="1" fill="none" fill-rule="evenodd">
        <g id="REDLINES-/-Desktop:-Pricing---June-20" transform="translate(-255.000000, -2107.000000)" fill="#C4C6C9" fill-rule="nonzero">
            <g id="Group-5" transform="translate(230.000000, 2008.000000)">
                <g id="Group-21">
                    <g id="Group-10" transform="translate(0.000000, 72.000000)">
                        <path d="M31,31 L34.0046024,31 C34.5543453,31 35,31.4438648 35,32 C35,32.5522847 34.5508938,33 34.0046024,33 L31,33 L31,36.0046024 C31,36.5543453 30.5561352,37 30,37 C29.4477153,37 29,36.5508938 29,36.0046024 L29,33 L25.9953976,33 C25.4456547,33 25,32.5561352 25,32 C25,31.4477153 25.4491062,31 25.9953976,31 L29,31 L29,27.9953976 C29,27.4456547 29.4438648,27 30,27 C30.5522847,27 31,27.4491062 31,27.9953976 L31,31 Z" id="Combined-Shape"></path>
                    </g>
                </g>
            </g>
        </g>
    </g>
</svg>