<?xml version="1.0" encoding="UTF-8"?>
<svg width="24px" height="24px" viewBox="0 0 24 24" version="1.1" xmlns="http://www.w3.org/2000/svg" xmlns:xlink="http://www.w3.org/1999/xlink">
    <!-- Generator: Sketch 49.1 (51147) - http://www.bohemiancoding.com/sketch -->
    <title>Checkmark Copy</title>
    <desc>Created with Sketch.</desc>
    <defs></defs>
    <g id="ðŸ -Highlevel-Pages" stroke="none" stroke-width="1" fill="none" fill-rule="evenodd">
        <g id="Pricing-V2" transform="translate(-805.000000, -1381.000000)" fill="#3FBD7C">
            <path d="M817,1405 C810.372583,1405 805,1399.62742 805,1393 C805,1386.37258 810.372583,1381 817,1381 C823.627417,1381 829,1386.37258 829,1393 C829,1399.62742 823.627417,1405 817,1405 Z M814.351472,1397.44853 L810.751472,1393.84853 C810.282843,1393.3799 810.282843,1392.6201 810.751472,1392.15147 C811.220101,1391.68284 811.979899,1391.68284 812.448528,1392.15147 L815.2,1394.91984 L820.951472,1389.15147 C821.420101,1388.68284 822.179899,1388.68284 822.648528,1389.15147 C823.117157,1389.6201 823.117157,1390.3799 822.648528,1390.84853 L816.048528,1397.44853 C815.579899,1397.91716 814.820101,1397.91716 814.351472,1397.44853 Z" id="Checkmark-Copy"></path>
        </g>
    </g>
</svg>