<?xml version="1.0" encoding="UTF-8"?>
<svg width="14px" height="16px" viewBox="0 0 14 16" version="1.1" xmlns="http://www.w3.org/2000/svg" xmlns:xlink="http://www.w3.org/1999/xlink">
    <!-- Generator: Sketch 52.6 (67491) - http://www.bohemiancoding.com/sketch -->
    <title>Combined Shape</title>
    <desc>Created with Sketch.</desc>
    <g id="Website-2.0" stroke="none" stroke-width="1" fill="none" fill-rule="evenodd">
        <g id="Pricing-(August)" transform="translate(-647.000000, -1087.000000)" fill="#3FBD7C" fill-rule="nonzero">
            <g id="Group-21" transform="translate(0.000000, 778.000000)">
                <g id="Group-20" transform="translate(616.000000, 80.000000)">
                    <g id="Group-17" transform="translate(31.000000, 0.000000)">
                        <g id="Group-16" transform="translate(0.000000, 226.000000)">
                            <g id="Group-2">
                                <path d="M10.015955,6.41001516 C11.3728914,6.41001516 12.6447664,6.97048997 13.4515134,8.08120764 C13.7024684,8.42671894 13.6131827,8.90071444 13.2518212,9.14132311 C12.4909875,9.64791609 12.0013814,10.5000389 12.0013814,11.3697062 C12.0013814,12.3249077 12.6200783,13.2157321 13.5754859,13.7003248 C13.925802,13.8780089 14.0866496,14.2737016 13.9534538,14.6301439 C13.0716765,16.9898476 11.1463978,19 9.6159089,19 C8.20969238,19 7.79685059,18.6184853 7.2,18.6184853 C6.60314941,18.6184853 6.18540039,19 4.80055211,19 C2.61416169,19 0.00481786386,15.1751174 0,11.7489395 C0.00474988728,8.37312143 1.87140485,6.41001516 4.40050604,6.41001516 C5.25704253,6.41001516 6.25795115,6.60990978 7.21563248,7.1946072 C8.1551734,6.60990978 9.15998132,6.41001516 10.015955,6.41001516 Z M10.3811191,3.3546581 C10.3811191,3.3546581 10.4182697,4.50763032 9.60110494,5.26547108 C8.82364198,6.01744382 7.60296518,5.99175586 7.60296518,5.99175586 C7.38336864,6.00795649 7.21268392,5.8440275 7.22405536,5.63450756 C7.22405536,5.63450756 7.18278445,4.49629424 8.00092066,3.73845759 C8.81905687,2.98062095 10.0012306,3.00139278 10.0012306,3.00139278 C10.2260702,2.98318782 10.3928551,3.14574249 10.3811191,3.3546581 Z" id="Combined-Shape"></path>
                            </g>
                        </g>
                    </g>
                </g>
            </g>
        </g>
    </g>
</svg>