<?xml version="1.0" encoding="UTF-8"?>
<svg width="16px" height="16px" viewBox="0 0 16 16" version="1.1" xmlns="http://www.w3.org/2000/svg" xmlns:xlink="http://www.w3.org/1999/xlink">
    <!-- Generator: Sketch 52.6 (67491) - http://www.bohemiancoding.com/sketch -->
    <title>Combined Shape</title>
    <desc>Created with Sketch.</desc>
    <g id="Website-2.0" stroke="none" stroke-width="1" fill="none" fill-rule="evenodd">
        <g id="Pricing-(August)" transform="translate(-730.000000, -1088.000000)" fill="#3FBD7C">
            <g id="Group-21" transform="translate(0.000000, 778.000000)">
                <g id="Group-20" transform="translate(616.000000, 80.000000)">
                    <g id="Group-17" transform="translate(31.000000, 0.000000)">
                        <g id="Group-16" transform="translate(0.000000, 226.000000)">
                            <g id="Group-6" transform="translate(83.000000, 0.000000)">
                                <path d="M6,11.1945352 L6,7.11139469 L1.6,7.85786245 L1.59451938,11.1945352 L6,11.1945352 Z M1.58640007,16.1376716 L6,16.8924371 L6,12.80557 L1.59187319,12.80557 L1.58640007,16.1376716 Z M14.435345,5.68032352 L7.6,6.83995187 L7.6,11.1945352 L14.4204764,11.1945352 L14.435345,5.68032352 Z M14.4161324,12.80557 L7.6,12.80557 L7.6,17.1660515 L14.4012385,18.3291247 L14.4161324,12.80557 Z M0,16.4317937 L0,7.56831147 C0,6.94766475 0.469629884,6.40231668 1.07683545,6.31060769 L14.6858198,4.01352625 C15.389847,3.90719385 16,4.44079008 16,5.15668928 L16,18.8434159 C16,19.5583887 15.387175,20.0925078 14.6858198,19.9865789 L1.07683545,17.6894975 C0.467025009,17.5973951 0,17.0550054 0,16.4317937 Z" id="Combined-Shape"></path>
                            </g>
                        </g>
                    </g>
                </g>
            </g>
        </g>
    </g>
</svg>