<?xml version="1.0" encoding="UTF-8"?>
<svg width="16px" height="14px" viewBox="0 0 16 14" version="1.1" xmlns="http://www.w3.org/2000/svg" xmlns:xlink="http://www.w3.org/1999/xlink">
    <!-- Generator: Sketch 52.6 (67491) - http://www.bohemiancoding.com/sketch -->
    <title>Combined Shape</title>
    <desc>Created with Sketch.</desc>
    <g id="People" stroke="none" stroke-width="1" fill="none" fill-rule="evenodd">
        <g id="People-mvp-(my-profile)" transform="translate(-984.000000, -492.000000)" fill="#3FBD7C">
            <g id="Group-30" transform="translate(984.000000, 80.000000)">
                <g id="Group-25" transform="translate(0.000000, 290.000000)">
                    <g id="Group-17" transform="translate(0.000000, 43.000000)">
                        <g id="Group-22" transform="translate(0.000000, 78.000000)">
                            <path d="M4.6367983,10.8556525 C5.15142818,11.1940962 5.09005455,11.9492603 4.52714889,12.2048198 C4.31627723,12.3005557 2.44170299,12.7930688 2.44170299,12.7930688 C3.18855448,13.2210202 4.23535714,13.4444504 5.60395178,13.4444504 C9.99516619,13.4444504 13.1993844,10.30657 13.2026593,5.6101584 C13.2027159,5.52905474 13.1989507,5.29981657 13.1989507,5.27781514 C13.1989507,3.66055764 12.3270663,2.54787767 10.8046945,2.55559282 C9.27146874,2.56336298 8.40210926,3.66804474 8.40210926,5.27781514 C8.40210926,5.37127124 8.39957187,5.95176501 8.39957187,6.04614308 C8.39957187,6.51262646 7.98040925,6.87418212 7.50436204,6.81832114 C5.49920944,6.58302981 3.67867568,5.72675628 2.27396405,4.40005472 C2.27396405,4.40005472 2.08927738,5.07748196 2.04414922,5.38882022 C2.07026838,5.41900875 2.56604588,5.90708308 2.84874299,6.10346347 C3.06566641,6.25415304 3.30054347,6.39076348 3.55368673,6.5099007 C3.95115744,6.696963 4.11749653,7.16207532 3.92521547,7.54875815 C3.73293442,7.93544098 3.25484615,8.0972654 2.85737543,7.91020311 C2.60599053,7.79189342 2.36790651,7.66046177 2.14297343,7.51776421 C2.45947479,8.77522185 3.25869953,9.94935279 4.6367983,10.8556525 Z M15.1517406,2.56351343 C15.9577021,2.52141767 16.2409687,3.00925084 15.7760118,3.65355922 L14.7920015,5.01713942 C14.7959252,5.10330698 14.8016784,5.50747094 14.8016061,5.61121367 C14.7977342,11.1637971 10.8804302,15 5.60395178,15 C2.99818902,15 1.3147062,14.3377171 0.154562594,12.7923406 C-0.191537553,12.3313157 0.0738271481,11.6767216 0.650229455,11.5696436 C0.676669105,11.5647319 2.5219124,11.176747 2.5219124,11.176747 C0.0850760604,8.77960561 -0.139607561,5.3743222 1.30197812,2.59763636 C1.56797164,2.08529745 2.29323964,2.02015685 2.65115454,2.47645886 C3.68745685,3.79762996 5.14356166,4.72449358 6.80797663,5.11774468 C6.88743223,2.78309855 8.34978415,1.01246326 10.7963654,1.00006435 C12.2556454,0.992668933 13.3665568,1.62324756 14.0433,2.62140781 L15.1517406,2.56351343 Z" id="Combined-Shape"></path>
                        </g>
                    </g>
                </g>
            </g>
        </g>
    </g>
</svg>