<?xml version="1.0" encoding="UTF-8"?>
<svg width="16px" height="16px" viewBox="0 0 16 16" version="1.1" xmlns="http://www.w3.org/2000/svg" xmlns:xlink="http://www.w3.org/1999/xlink">
    <!-- Generator: Sketch 52.6 (67491) - http://www.bohemiancoding.com/sketch -->
    <title>Combined Shape</title>
    <desc>Created with Sketch.</desc>
    <g id="People" stroke="none" stroke-width="1" fill="none" fill-rule="evenodd">
        <g id="People-mvp-(my-profile)" transform="translate(-1016.000000, -491.000000)" fill="#3FBD7C" fill-rule="nonzero">
            <g id="Group-30" transform="translate(984.000000, 80.000000)">
                <g id="Group-25" transform="translate(0.000000, 290.000000)">
                    <g id="Group-17" transform="translate(0.000000, 43.000000)">
                        <g id="Group-22" transform="translate(0.000000, 78.000000)">
                            <path d="M32,13.6039286 L32,2.39607143 C32,1.07262716 33.072401,0 34.3960714,0 L45.6039286,0 C46.9273728,0 48,1.07240096 48,2.39607143 L48,13.6039286 C48,14.9273728 46.927599,16 45.6039286,16 L34.3960714,16 C33.0726272,16 32,14.927599 32,13.6039286 Z M34.3960714,1.6 C33.9561321,1.6 33.6,1.95620723 33.6,2.39607143 L33.6,13.6039286 C33.6,14.0438679 33.9562072,14.4 34.3960714,14.4 L45.6039286,14.4 C46.0438679,14.4 46.4,14.0437928 46.4,13.6039286 L46.4,2.39607143 C46.4,1.95613211 46.0437928,1.6 45.6039286,1.6 L34.3960714,1.6 Z M36,7.20234346 C36,6.7592214 36.3550919,6.4 36.8,6.4 C37.2418278,6.4 37.6,6.75882405 37.6,7.20234346 L37.6,11.1976565 C37.6,11.6407786 37.2449081,12 36.8,12 C36.3581722,12 36,11.6411759 36,11.1976565 L36,7.20234346 Z M36.8,5.6 C36.3581722,5.6 36,5.2418278 36,4.8 C36,4.3581722 36.3581722,4 36.8,4 C37.2418278,4 37.6,4.3581722 37.6,4.8 C37.6,5.2418278 37.2418278,5.6 36.8,5.6 Z M40.4,9.00019784 L40.4,11.2 C40.4,11.6418278 40.0418278,12 39.6,12 C39.1581722,12 38.8,11.6418278 38.8,11.2 L38.8,9.00019784 C38.8,7.56472706 39.9655031,6.4 41.4,6.4 C42.8350733,6.4 44,7.56649002 44,9.00019784 L44,11.2 C44,11.6418278 43.6418278,12 43.2,12 C42.7581722,12 42.4,11.6418278 42.4,11.2 L42.4,9.00019784 C42.4,8.44966563 41.950937,8 41.4,8 C40.8489202,8 40.4,8.44862131 40.4,9.00019784 Z" id="Combined-Shape"></path>
                        </g>
                    </g>
                </g>
            </g>
        </g>
    </g>
</svg>