<?xml version="1.0" encoding="UTF-8"?>
<svg width="14px" height="14px" viewBox="0 0 14 14" version="1.1" xmlns="http://www.w3.org/2000/svg" xmlns:xlink="http://www.w3.org/1999/xlink">
    <!-- Generator: Sketch 52.6 (67491) - http://www.bohemiancoding.com/sketch -->
    <title>Combined Shape</title>
    <desc>Created with Sketch.</desc>
    <g id="Profiles" stroke="none" stroke-width="1" fill="none" fill-rule="evenodd">
        <g id="Profile:-Panel-open" transform="translate(-1021.000000, -491.000000)" fill="#FFFFFF" fill-rule="nonzero">
            <g id="Group-33" transform="translate(984.000000, 486.000000)">
                <g id="Group-31" transform="translate(32.000000, 0.000000)">
                    <path d="M5,16.9034375 L5,7.0965625 C5,5.93854876 5.93835084,5 7.0965625,5 L16.9034375,5 C18.0614512,5 19,5.93835084 19,7.0965625 L19,16.9034375 C19,18.0614512 18.0616492,19 16.9034375,19 L7.0965625,19 C5.93854876,19 5,18.0616492 5,16.9034375 Z M8.5,11.3020505 L8.5,14.7979495 C8.5,15.186029 8.81340068,15.5 9.2,15.5 C9.58929462,15.5 9.9,15.1856813 9.9,14.7979495 L9.9,11.3020505 C9.9,10.913971 9.58659932,10.6 9.2,10.6 C8.81070538,10.6 8.5,10.9143187 8.5,11.3020505 Z M9.2,9.9 C9.58659932,9.9 9.9,9.58659932 9.9,9.2 C9.9,8.81340068 9.58659932,8.5 9.2,8.5 C8.81340068,8.5 8.5,8.81340068 8.5,9.2 C8.5,9.58659932 8.81340068,9.9 9.2,9.9 Z M12.35,12.8751731 C12.35,12.3925436 12.7428052,12 13.225,12 C13.7070699,12 14.1,12.3934574 14.1,12.8751731 L14.1,14.8 C14.1,15.1865993 14.4134007,15.5 14.8,15.5 C15.1865993,15.5 15.5,15.1865993 15.5,14.8 L15.5,12.8751731 C15.5,11.6206788 14.4806891,10.6 13.225,10.6 C11.9698152,10.6 10.95,11.6191362 10.95,12.8751731 L10.95,14.8 C10.95,15.1865993 11.2634007,15.5 11.65,15.5 C12.0365993,15.5 12.35,15.1865993 12.35,14.8 L12.35,12.8751731 Z" id="Combined-Shape"></path>
                </g>
            </g>
        </g>
    </g>
</svg>