<?xml version="1.0" encoding="UTF-8"?>
<svg width="16px" height="16px" viewBox="0 0 16 16" version="1.1" xmlns="http://www.w3.org/2000/svg" xmlns:xlink="http://www.w3.org/1999/xlink">
    <!-- Generator: Sketch 52.6 (67491) - http://www.bohemiancoding.com/sketch -->
    <title>Combined Shape</title>
    <desc>Created with Sketch.</desc>
    <g id="People" stroke="none" stroke-width="1" fill="none" fill-rule="evenodd">
        <g id="People-mvp-(my-profile)" transform="translate(-1080.000000, -491.000000)" fill="#3FBD7C">
            <g id="Group-30" transform="translate(984.000000, 80.000000)">
                <g id="Group-25" transform="translate(0.000000, 290.000000)">
                    <g id="Group-17" transform="translate(0.000000, 43.000000)">
                        <g id="Group-22" transform="translate(0.000000, 78.000000)">
                            <path d="M109.603929,14.4 C110.043868,14.4 110.4,14.0437928 110.4,13.6039286 L110.4,2.39607143 C110.4,1.95613211 110.043793,1.6 109.603929,1.6 L98.3960714,1.6 C97.9561321,1.6 97.6,1.95620723 97.6,2.39607143 L97.6,13.6039286 C97.6,14.0438679 97.9562072,14.4 98.3960714,14.4 L104,14.4 L104,9.6 L103.199609,9.6 C102.757782,9.6 102.399609,9.2418278 102.399609,8.8 C102.399609,8.3581722 102.757782,8 103.199609,8 L104,8 C104,6.48255096 104.171332,5.52618209 104.883096,4.7295562 C105.5869,3.94183911 106.409354,3.6 107.2,3.6 C107.641828,3.6 108,3.9581722 108,4.4 C108,4.8418278 107.641828,5.2 107.2,5.2 C106.850305,5.2 106.465459,5.35995449 106.076231,5.79559029 C105.721983,6.1920743 105.6,6.87297894 105.6,8 L107.2,8 C107.641828,8 108,8.3581722 108,8.8 C108,9.2418278 107.641828,9.6 107.2,9.6 L105.6,9.6 L105.6,14.4 L109.603929,14.4 Z M96,13.6039286 L96,2.39607143 C96,1.07262716 97.072401,0 98.3960714,0 L109.603929,0 C110.927373,0 112,1.07240096 112,2.39607143 L112,13.6039286 C112,14.9273728 110.927599,16 109.603929,16 L98.3960714,16 C97.0726272,16 96,14.927599 96,13.6039286 Z" id="Combined-Shape"></path>
                        </g>
                    </g>
                </g>
            </g>
        </g>
    </g>
</svg>