<?xml version="1.0" encoding="UTF-8"?>
<svg width="14px" height="12px" viewBox="0 0 14 12" version="1.1" xmlns="http://www.w3.org/2000/svg" xmlns:xlink="http://www.w3.org/1999/xlink">
    <!-- Generator: Sketch 52.6 (67491) - http://www.bohemiancoding.com/sketch -->
    <title>Combined Shape</title>
    <desc>Created with Sketch.</desc>
    <g id="Profiles" stroke="none" stroke-width="1" fill="none" fill-rule="evenodd">
        <g id="Profile:-Panel-open" transform="translate(-989.000000, -492.000000)" fill="#FFFFFF">
            <g id="Group-33" transform="translate(984.000000, 486.000000)">
                <g id="Group-32">
                    <path d="M18.257773,7.34015437 C18.9629893,7.30407229 19.2108476,7.72221501 18.8040103,8.27447933 L17.9430013,9.44326236 C17.9464345,9.51712027 17.9514686,9.86354652 17.9514053,9.95246886 C17.9480174,14.7118261 14.5203765,18 9.90345781,18 C7.62341539,18 6.15036792,17.4323289 5.13524227,16.1077205 C4.83240464,15.7125563 5.06459875,15.1514756 5.56895077,15.0596945 C5.59208547,15.0554845 7.20667335,14.722926 7.20667335,14.722926 C5.07444155,12.6682334 4.87784338,9.74941903 6.13923086,7.36940259 C6.37197518,6.93025496 7.00658468,6.87442016 7.31976022,7.26553617 C8.22652474,8.39796854 9.50061645,9.19242307 10.9569796,9.52949544 C11.0265032,7.52837019 12.3060611,6.01068279 14.4468197,6.00005516 C15.7236897,5.99371623 16.6957372,6.53421219 17.2878875,7.38977812 L18.257773,7.34015437 Z" id="Combined-Shape"></path>
                </g>
            </g>
        </g>
    </g>
</svg>