<?xml version="1.0" encoding="UTF-8"?>
<svg width="16px" height="16px" viewBox="0 0 16 16" version="1.1" xmlns="http://www.w3.org/2000/svg" xmlns:xlink="http://www.w3.org/1999/xlink">
    <!-- Generator: Sketch 52.6 (67491) - http://www.bohemiancoding.com/sketch -->
    <title>Combined Shape</title>
    <desc>Created with Sketch.</desc>
    <g id="People" stroke="none" stroke-width="1" fill="none" fill-rule="evenodd">
        <g id="People-mvp-(my-profile)" transform="translate(-1048.000000, -491.000000)" fill="#3FBD7C">
            <g id="Group-30" transform="translate(984.000000, 80.000000)">
                <g id="Group-25" transform="translate(0.000000, 290.000000)">
                    <g id="Group-17" transform="translate(0.000000, 43.000000)">
                        <g id="Group-22" transform="translate(0.000000, 78.000000)">
                            <path d="M67.9962027,0 L76.0037973,0 C78.2108391,0 80,1.78883037 80,3.99620271 L80,12.0037973 C80,14.2108391 78.2111696,16 76.0037973,16 L67.9962027,16 C65.7891609,16 64,14.2111696 64,12.0037973 L64,3.99620271 C64,1.78916089 65.7888304,0 67.9962027,0 Z M65.6,12.0037973 C65.6,13.3273794 66.6726819,14.4 67.9962027,14.4 L76.0037973,14.4 C77.3273794,14.4 78.4,13.3273181 78.4,12.0037973 L78.4,3.99620271 C78.4,2.67262059 77.3273181,1.6 76.0037973,1.6 L67.9962027,1.6 C66.6726206,1.6 65.6,2.67268187 65.6,3.99620271 L65.6,12.0037973 Z M68,8 C68,5.790861 69.790861,4 72,4 C74.209139,4 76,5.790861 76,8 C76,10.209139 74.209139,12 72,12 C69.790861,12 68,10.209139 68,8 Z M74.4,8 C74.4,6.6745166 73.3254834,5.6 72,5.6 C70.6745166,5.6 69.6,6.6745166 69.6,8 C69.6,9.3254834 70.6745166,10.4 72,10.4 C73.3254834,10.4 74.4,9.3254834 74.4,8 Z M76,4.8 C75.5581722,4.8 75.2,4.4418278 75.2,4 C75.2,3.5581722 75.5581722,3.2 76,3.2 C76.4418278,3.2 76.8,3.5581722 76.8,4 C76.8,4.4418278 76.4418278,4.8 76,4.8 Z" id="Combined-Shape"></path>
                        </g>
                    </g>
                </g>
            </g>
        </g>
    </g>
</svg>