<?xml version="1.0" encoding="UTF-8"?>
<svg width="32px" height="40px" viewBox="0 0 32 40" version="1.1" xmlns="http://www.w3.org/2000/svg" xmlns:xlink="http://www.w3.org/1999/xlink">
    <!-- Generator: Sketch 52.6 (67491) - http://www.bohemiancoding.com/sketch -->
    <title>Rectangle</title>
    <desc>Created with Sketch.</desc>
    <defs>
        <path d="M7.8148714,42.1045695 L22.65918,54.3333333 C24.44694,55.8060927 24.44694,58.1939073 22.65918,59.6666667 L7.8148714,71.8954305 C6.02711146,73.3681898 3.1285799,73.3681898 1.34081996,71.8954305 C0.482307356,71.1881865 0,70.2289579 0,69.2287638 L0,44.7712362 C0,42.6884399 2.04957132,41 4.57784568,41 C5.79196584,41 6.9563588,41.3973255 7.8148714,42.1045695 Z" id="path-1"></path>
        <filter x="-29.2%" y="-15.6%" width="158.3%" height="143.8%" filterUnits="objectBoundingBox" id="filter-2">
            <feOffset dx="0" dy="2" in="SourceAlpha" result="shadowOffsetOuter1"></feOffset>
            <feGaussianBlur stdDeviation="2" in="shadowOffsetOuter1" result="shadowBlurOuter1"></feGaussianBlur>
            <feComposite in="shadowBlurOuter1" in2="SourceAlpha" operator="out" result="shadowBlurOuter1"></feComposite>
            <feColorMatrix values="0 0 0 0 0   0 0 0 0 0   0 0 0 0 0  0 0 0 0.16 0" type="matrix" in="shadowBlurOuter1"></feColorMatrix>
        </filter>
        <filter x="-33.3%" y="-18.8%" width="166.7%" height="150.0%" filterUnits="objectBoundingBox" id="filter-3">
            <feGaussianBlur stdDeviation="2" in="SourceAlpha" result="shadowBlurInner1"></feGaussianBlur>
            <feOffset dx="0" dy="4" in="shadowBlurInner1" result="shadowOffsetInner1"></feOffset>
            <feComposite in="shadowOffsetInner1" in2="SourceAlpha" operator="arithmetic" k2="-1" k3="1" result="shadowInnerInner1"></feComposite>
            <feColorMatrix values="0 0 0 0 1   0 0 0 0 1   0 0 0 0 1  0 0 0 0.3 0" type="matrix" in="shadowInnerInner1"></feColorMatrix>
        </filter>
    </defs>
    <g id="Admin-NUX---Jan-2019" stroke="none" stroke-width="1" fill="none" fill-rule="evenodd">
        <g id="NUX:-User-settings" transform="translate(-284.000000, -89.000000)" fill-rule="nonzero">
            <g id="Group-15" transform="translate(288.000000, 50.000000)">
                <g id="Rectangle">
                    <use fill="black" fill-opacity="1" filter="url(#filter-2)" xlink:href="#path-1"></use>
                    <use fill="#7394FF" xlink:href="#path-1"></use>
                    <use fill="black" fill-opacity="1" filter="url(#filter-3)" xlink:href="#path-1"></use>
                    <path stroke="#6D8CF2" stroke-width="2" d="M7.17903901,42.8763967 C6.50405171,42.3203411 5.56526749,42 4.57784568,42 C2.56369461,42 1,43.288174 1,44.7712362 L1,69.2287638 C1,69.9205476 1.34204067,70.6008093 1.97665234,71.1236033 C3.39511162,72.2921322 5.76057973,72.2921322 7.17903901,71.1236033 L22.0233477,58.8948395 C23.3255508,57.8220826 23.3255508,56.1779174 22.0233477,55.1051605 L7.17903901,42.8763967 Z" stroke-linejoin="square"></path>
                </g>
            </g>
        </g>
    </g>
</svg>