<?xml version="1.0" encoding="UTF-8"?>
<svg width="10px" height="10px" viewBox="0 0 10 10" version="1.1" xmlns="http://www.w3.org/2000/svg" xmlns:xlink="http://www.w3.org/1999/xlink">
    <!-- Generator: Sketch 52.6 (67491) - http://www.bohemiancoding.com/sketch -->
    <title>Combined Shape</title>
    <desc>Created with Sketch.</desc>
    <g id="Admin-NUX---Jan-2019" stroke="none" stroke-width="1" fill="none" fill-rule="evenodd">
        <g id="NUX:-Post-success" transform="translate(-1196.000000, -570.000000)" fill="#3FBD7C">
            <g id="Group-17" transform="translate(1196.000000, 494.000000)">
                <g id="Group-8" transform="translate(0.000000, 73.000000)">
                    <path d="M2.1009772,9.31921824 C2.1009772,9.89739414 1.6286645,10.3697068 1.0504886,10.3697068 C0.472312704,10.3697068 3.04201109e-13,9.89739414 3.04201109e-13,9.31921824 C3.04201109e-13,8.74104235 0.472312704,8.26872964 1.0504886,8.26872964 L2.1009772,8.26872964 L2.1009772,9.31921824 Z M2.63029316,9.31921824 C2.63029316,8.74104235 3.10260586,8.26872964 3.68078176,8.26872964 C4.25895765,8.26872964 4.73127036,8.74104235 4.73127036,9.31921824 L4.73127036,11.9495114 C4.73127036,12.5276873 4.25895765,13 3.68078176,13 C3.10260586,13 2.63029316,12.5276873 2.63029316,11.9495114 L2.63029316,9.31921824 Z M3.68078176,5.1009772 C3.10260586,5.1009772 2.63029316,4.6286645 2.63029316,4.0504886 C2.63029316,3.4723127 3.10260586,3 3.68078176,3 C4.25895765,3 4.73127036,3.4723127 4.73127036,4.0504886 L4.73127036,5.1009772 L3.68078176,5.1009772 Z M3.68078176,5.63029316 C4.25895765,5.63029316 4.73127036,6.10260586 4.73127036,6.68078176 C4.73127036,7.25895765 4.25895765,7.73127036 3.68078176,7.73127036 L1.0504886,7.73127036 C0.472312704,7.73127036 -6.80788759e-13,7.25895765 -6.80788759e-13,6.68078176 C-6.80788759e-13,6.10260586 0.472312704,5.63029316 1.0504886,5.63029316 L3.68078176,5.63029316 Z M7.8990228,6.68078176 C7.8990228,6.10260586 8.3713355,5.63029316 8.9495114,5.63029316 C9.5276873,5.63029316 10,6.10260586 10,6.68078176 C10,7.25895765 9.5276873,7.73127036 8.9495114,7.73127036 L7.8990228,7.73127036 L7.8990228,6.68078176 Z M7.36970684,6.68078176 C7.36970684,7.25895765 6.89739414,7.73127036 6.31921824,7.73127036 C5.74104235,7.73127036 5.26872964,7.25895765 5.26872964,6.68078176 L5.26872964,4.0504886 C5.26872964,3.4723127 5.74104235,3 6.31921824,3 C6.89739414,3 7.36970684,3.4723127 7.36970684,4.0504886 L7.36970684,6.68078176 Z M6.31921824,10.8990228 C6.89739414,10.8990228 7.36970684,11.3713355 7.36970684,11.9495114 C7.36970684,12.5276873 6.89739414,13 6.31921824,13 C5.74104235,13 5.26872964,12.5276873 5.26872964,11.9495114 L5.26872964,10.8990228 L6.31921824,10.8990228 Z M6.31921824,10.3697068 C5.74104235,10.3697068 5.26872964,9.89739414 5.26872964,9.31921824 C5.26872964,8.74104235 5.74104235,8.26872964 6.31921824,8.26872964 L8.9495114,8.26872964 C9.5276873,8.26872964 10,8.74104235 10,9.31921824 C10,9.89739414 9.5276873,10.3697068 8.9495114,10.3697068 L6.31921824,10.3697068 Z" id="Combined-Shape"></path>
                </g>
            </g>
        </g>
    </g>
</svg>