<?xml version="1.0" encoding="UTF-8"?>
<svg width="16px" height="16px" viewBox="0 0 16 16" version="1.1" xmlns="http://www.w3.org/2000/svg" xmlns:xlink="http://www.w3.org/1999/xlink">
    <!-- Generator: Sketch 52.6 (67491) - http://www.bohemiancoding.com/sketch -->
    <title>Combined Shape</title>
    <desc>Created with Sketch.</desc>
    <g id="Admin-NUX---Jan-2019" stroke="none" stroke-width="1" fill="none" fill-rule="evenodd">
        <g id="NUX:-Post-success" transform="translate(-1196.000000, -19.000000)" fill="#FFFFFF">
            <g id="Group-22" transform="translate(1196.000000, 17.000000)">
                <path d="M13.54445,13.1988656 C14.0885886,12.2577672 14.4,11.1652506 14.4,10 C14.4,8.86543315 14.1047731,7.79982024 13.5869498,6.87579191 L12.0894973,8.37324441 C12.2898442,8.87645829 12.4,9.42536502 12.4,10 C12.4,10.6064218 12.2773203,11.1841902 12.0554253,11.7098409 L13.54445,13.1988656 Z M8,14.4 C7.42536502,14.4 6.87645829,14.2898442 6.37324441,14.0894973 L4.87579191,15.5869498 C5.79982024,16.1047731 6.86543315,16.4 8,16.4 C9.20849467,16.4 10.3387566,16.0650459 11.3030123,15.4829113 L9.82496627,14.0048653 C9.26902175,14.2586112 8.65102244,14.4 8,14.4 Z M3.6,10 C3.6,9.34897756 3.7413888,8.73097825 3.99513474,8.17503373 L2.51708872,6.69698771 C1.9349541,7.66124337 1.6,8.79150533 1.6,10 C1.6,11.2389743 1.95206301,12.3957199 2.56160532,13.375653 L4.0325192,11.9047391 C3.75531465,11.3283849 3.6,10.6823303 3.6,10 Z M8,5.6 C8.68233029,5.6 9.32838491,5.75531465 9.9047391,6.0325192 L11.375653,4.56160532 C10.3957199,3.95206301 9.23897429,3.6 8,3.6 C6.83474937,3.6 5.74223277,3.9114114 4.8011344,4.45554999 L6.29015915,5.94457474 C6.81580982,5.72267969 7.39357822,5.6 8,5.6 Z M16,10 C16,14.418278 12.418278,18 8,18 C3.581722,18 0,14.418278 0,10 C0,5.581722 3.581722,2 8,2 C12.418278,2 16,5.581722 16,10 Z M5.2,10 C5.2,11.5463973 6.4536027,12.8 8,12.8 C9.5463973,12.8 10.8,11.5463973 10.8,10 C10.8,8.4536027 9.5463973,7.2 8,7.2 C6.4536027,7.2 5.2,8.4536027 5.2,10 Z" id="Combined-Shape"></path>
            </g>
        </g>
    </g>
</svg>