<?xml version="1.0" encoding="UTF-8"?>
<svg width="12px" height="12px" viewBox="0 0 12 12" version="1.1" xmlns="http://www.w3.org/2000/svg" xmlns:xlink="http://www.w3.org/1999/xlink">
    <!-- Generator: Sketch 52.6 (67491) - http://www.bohemiancoding.com/sketch -->
    <title>Combined Shape</title>
    <desc>Created with Sketch.</desc>
    <g id="Admin-NUX---Jan-2019" stroke="none" stroke-width="1" fill="none" fill-rule="evenodd" opacity="0.5">
        <g id="NUX:-Post-success" transform="translate(-1373.000000, -22.000000)" fill="#FBFAF7" fill-rule="nonzero" stroke="#FBFAF7">
            <path d="M1383.81693,24.0669494 C1384.06102,23.822876 1384.06102,23.4271479 1383.81695,23.183066 C1383.57288,22.938984 1383.17715,22.9389771 1382.93307,23.1830506 L1379,27.1159793 L1375.06693,23.1830506 C1374.82285,22.9389771 1374.42712,22.938984 1374.18305,23.183066 C1373.93898,23.4271479 1373.93898,23.822876 1374.18307,24.0669494 L1378.1161,27.9998474 L1374.18307,31.9327454 C1373.93898,32.1768188 1373.93898,32.5725469 1374.18305,32.8166289 C1374.42712,33.0607108 1374.82285,33.0607177 1375.06693,32.8166443 L1379,28.8837155 L1382.93307,32.8166443 C1383.17715,33.0607177 1383.57288,33.0607108 1383.81695,32.8166289 C1384.06102,32.5725469 1384.06102,32.1768188 1383.81693,31.9327454 L1379.8839,27.9998474 L1383.81693,24.0669494 Z" id="Combined-Shape"></path>
        </g>
    </g>
</svg>