<?xml version="1.0" encoding="UTF-8"?>
<svg width="10px" height="12px" viewBox="0 0 10 12" version="1.1" xmlns="http://www.w3.org/2000/svg" xmlns:xlink="http://www.w3.org/1999/xlink">
    <!-- Generator: Sketch 52.6 (67491) - http://www.bohemiancoding.com/sketch -->
    <title>Combined Shape</title>
    <desc>Created with Sketch.</desc>
    <g id="Quickstart-Guide" stroke="none" stroke-width="1" fill="none" fill-rule="evenodd">
        <g id="NUX:-Post-success" transform="translate(-1196.000000, -625.000000)" fill="#3FBD7C" fill-rule="nonzero">
            <g id="Group-27" transform="translate(1196.000000, 464.000000)">
                <g id="Group-17" transform="translate(0.000000, 17.000000)">
                    <g id="Group-8" transform="translate(0.000000, 143.000000)">
                        <path d="M1.875,11.7370711 C1.875,11.7377076 8.12598785,11.7368421 8.12598785,11.7368421 C8.12477791,11.7368421 8.12490099,5.54925394 8.12497357,3.52631579 L1.875,3.52631579 L1.875,11.7370711 Z M9.375,11.7370711 C9.375,12.4345675 8.81433742,13 8.12598785,13 L1.87401215,13 C1.18420179,13 0.625,12.4357491 0.625,11.7370711 L0.625,3.52631556 C0.279771564,3.52602103 0,3.24579547 0,2.89473684 C0,2.54592542 0.277894288,2.26315789 0.625544786,2.26315789 L3.75,2.26315789 C3.75,1.56553505 4.30964406,1 5,1 C5.69035594,1 6.25,1.56553505 6.25,2.26315789 L9.37445521,2.26315789 C9.71993406,2.26315789 10,2.54349357 10,2.89473684 C10,3.24336604 9.72239598,3.52602033 9.375,3.52631556 L9.375,11.7370711 Z M5.625,5.41950188 C5.625,5.07154692 5.90241551,4.78947368 6.25,4.78947368 C6.59517797,4.78947368 6.875,5.07135457 6.875,5.41950188 L6.875,9.84365601 C6.875,10.191611 6.59758449,10.4736842 6.25,10.4736842 C5.90482203,10.4736842 5.625,10.1918033 5.625,9.84365601 L5.625,5.41950188 Z M3.125,5.41950188 C3.125,5.07154692 3.40241551,4.78947368 3.75,4.78947368 C4.09517797,4.78947368 4.375,5.07135457 4.375,5.41950188 L4.375,9.84365601 C4.375,10.191611 4.09758449,10.4736842 3.75,10.4736842 C3.40482203,10.4736842 3.125,10.1918033 3.125,9.84365601 L3.125,5.41950188 Z" id="Combined-Shape"></path>
                    </g>
                </g>
            </g>
        </g>
    </g>
</svg>