<?xml version="1.0" encoding="UTF-8"?>
<svg width="18px" height="10px" viewBox="0 0 18 10" version="1.1" xmlns="http://www.w3.org/2000/svg" xmlns:xlink="http://www.w3.org/1999/xlink">
    <!-- Generator: Sketch 52.6 (67491) - http://www.bohemiancoding.com/sketch -->
    <title>Combined Shape</title>
    <desc>Created with Sketch.</desc>
    <g id="Quickstart-Guide" stroke="none" stroke-width="1" fill="none" fill-rule="evenodd">
        <g id="NUX:-Sample-digest" transform="translate(-901.000000, -351.000000)" fill="#FFFFFF" fill-rule="nonzero">
            <g id="Group-28" transform="translate(230.000000, 121.000000)">
                <g id="Group-25" transform="translate(408.000000, 40.000000)">
                    <g id="Group-65" transform="translate(252.000000, 175.000000)">
                        <path d="M20.875,14.4831739 L20.875,27.9562408 C20.875,28.4713281 20.4866183,28.8888889 20,28.8888889 C19.5167508,28.8888889 19.125,28.4738498 19.125,27.9562408 L19.125,14.4831739 L17.1187184,16.7477598 C16.7770097,17.1334628 16.2229903,17.1334628 15.8812816,16.7477598 C15.5395728,16.3620568 15.5395728,15.7367087 15.8812816,15.3510056 L19.3812816,11.4003884 C19.7229903,11.0146854 20.2770097,11.0146854 20.6187184,11.4003884 L24.1187184,15.3510056 C24.4604272,15.7367087 24.4604272,16.3620568 24.1187184,16.7477598 C23.7770097,17.1334628 23.2229903,17.1334628 22.8812816,16.7477598 L20.875,14.4831739 Z" id="Combined-Shape" transform="translate(20.000000, 20.000000) rotate(90.000000) translate(-20.000000, -20.000000) "></path>
                    </g>
                </g>
            </g>
        </g>
    </g>
</svg>