<?xml version="1.0" encoding="UTF-8"?>
<svg width="16px" height="16px" viewBox="0 0 16 16" version="1.1" xmlns="http://www.w3.org/2000/svg" xmlns:xlink="http://www.w3.org/1999/xlink">
    <!-- Generator: Sketch 52.6 (67491) - http://www.bohemiancoding.com/sketch -->
    <title>Shape</title>
    <desc>Created with Sketch.</desc>
    <g id="Quickstart-Guide" stroke="none" stroke-width="1" fill="none" fill-rule="evenodd">
        <g id="NUX:-Post-success" transform="translate(-1196.000000, -20.000000)" fill="#FFFFFF" fill-rule="nonzero">
            <path d="M1200.96518,33.6428722 C1200.89474,34.0586136 1200.84727,34.4437677 1200.81851,34.7875949 C1200.80166,34.9890314 1200.79479,35.1282724 1200.79351,35.1946518 C1200.78601,35.5832422 1200.51568,35.9032428 1200.1599,35.9798493 C1200.10031,35.9936703 1200.03822,36.0006512 1199.97446,35.9999522 C1199.53342,35.9951171 1199.17971,35.6246086 1199.18442,35.1723983 C1199.18457,35.1419369 1199.18286,35.0769199 1199.17711,34.984811 C1199.16748,34.8305358 1199.14959,34.6584871 1199.12143,34.4736367 C1199.04234,33.9544699 1198.89908,33.43844 1198.67917,32.9647021 C1198.24416,32.0275807 1197.56664,31.3678507 1196.56791,31.0585417 C1196.14568,30.9277763 1195.90679,30.4708208 1196.03433,30.0379028 C1196.16186,29.6049848 1196.60753,29.3600417 1197.02976,29.490807 C1198.24784,29.8680524 1199.15544,30.6177639 1199.78146,31.6285427 C1199.86223,31.3439712 1199.95138,31.0610205 1200.04933,30.7805258 C1199.05177,29.7800997 1198.57756,28.3326413 1198.57756,26.8401592 C1198.57756,22.7455102 1202.0969,18.3046402 1211.16426,20.651723 C1211.55556,20.7530112 1211.60488,20.7729304 1211.60488,20.7729304 C1212.02772,20.8962295 1212.12627,21.2644122 1211.82707,21.596571 C1211.82707,21.596571 1211.5084,21.9363451 1211.17193,22.3511957 C1209.56942,24.3269759 1209.28785,25.5879267 1208.76655,27.8536187 C1208.1358,30.5950335 1206.22151,32.1181748 1203.5751,32.1181748 C1202.75394,32.1181748 1202.03953,31.9711947 1201.42782,31.7103795 C1201.22774,32.3447949 1201.07519,32.9936329 1200.96518,33.6428722 Z M1203.5751,30.4804828 C1205.50163,30.4804828 1206.75617,29.458648 1207.21198,27.4775965 C1207.33985,26.9218431 1207.38182,26.7414813 1207.44542,26.4792445 C1207.71051,25.3862024 1207.94806,24.636077 1208.30211,23.8682056 C1208.60086,23.2202499 1208.97296,22.5949458 1209.4543,21.9376806 C1206.95676,21.3875916 1204.13886,21.5170012 1202.33514,22.7073796 C1200.92374,23.6388423 1200.17481,25.1561372 1200.17481,26.8401592 C1200.17481,27.7389907 1200.37419,28.5097477 1200.75927,29.1075647 C1201.61918,27.4141992 1202.8069,26.0295827 1204.36949,25.0686891 C1204.74775,24.8360871 1205.23829,24.9619261 1205.46515,25.3497584 C1205.692,25.7375907 1205.56927,26.240552 1205.19102,26.4731539 C1203.8096,27.3226378 1202.76958,28.5879739 1202.02578,30.1713903 C1202.46402,30.3766773 1202.98342,30.4804828 1203.5751,30.4804828 Z" id="Shape"></path>
        </g>
    </g>
</svg>