<?xml version="1.0" encoding="UTF-8"?>
<svg width="14px" height="11px" viewBox="0 0 14 11" version="1.1" xmlns="http://www.w3.org/2000/svg" xmlns:xlink="http://www.w3.org/1999/xlink">
    <!-- Generator: Sketch 52.6 (67491) - http://www.bohemiancoding.com/sketch -->
    <title>Combined Shape</title>
    <desc>Created with Sketch.</desc>
    <g id="Quickstart-Guide" stroke="none" stroke-width="1" fill="none" fill-rule="evenodd">
        <g id="Sidebar-states" transform="translate(-734.000000, -545.000000)" fill="#3FBD7C" fill-rule="nonzero">
            <g id="Group-3" transform="translate(734.000000, 500.000000)">
                <g id="Group-8" transform="translate(0.000000, 43.000000)">
                    <path d="M2.33037324,2.1650099 C2.33037324,2.1650099 3.9375,2 7,2 C10.0625,2 11.6729963,2.16522186 11.6729963,2.16522186 C12.6359988,2.2350554 13.5623616,3.0596254 13.7177313,4.01316643 C13.7177313,4.01316643 14,5.0625 14,7.25 C14,9.4375 13.7168772,10.4925593 13.7168772,10.4925593 C13.5510755,11.4401551 12.6379425,12.2673564 11.6713502,12.3318149 C11.6713502,12.3318149 9.91666667,12.5 7,12.5 C4.08333333,12.5 2.32525416,12.3316035 2.32525416,12.3316035 C1.36321785,12.2635233 0.437638443,11.4403746 0.282268699,10.4868336 C0.282268699,10.4868336 0,9.4375 0,7.25 C0,5.0625 0.283122831,4.00744074 0.283122831,4.00744074 C0.448924513,3.05984489 1.36503578,2.23052378 2.33037324,2.1650099 Z M5.10872216,5.93946333 L5.10000264,9.09532353 C5.09897528,9.46715686 5.39775313,9.62240924 5.76734548,9.44069993 L9.03117968,7.83604262 C9.39841959,7.65548988 9.4015823,7.3610738 9.03298946,7.18102919 L5.77798185,5.59107272 C5.41173509,5.41217409 5.10975124,5.5670079 5.10872216,5.93946333 Z" id="Combined-Shape"></path>
                </g>
            </g>
        </g>
    </g>
</svg>