<?xml version="1.0" encoding="UTF-8"?>
<svg width="13px" height="12px" viewBox="0 0 13 12" version="1.1" xmlns="http://www.w3.org/2000/svg" xmlns:xlink="http://www.w3.org/1999/xlink">
    <!-- Generator: Sketch 52.6 (67491) - http://www.bohemiancoding.com/sketch -->
    <title>Shape</title>
    <desc>Created with Sketch.</desc>
    <g id="Quickstart-Guide" stroke="none" stroke-width="1" fill="none" fill-rule="evenodd">
        <g id="Sidebar-states" transform="translate(-478.000000, -545.000000)" fill="#3FBD7C" fill-rule="nonzero">
            <g id="Group-9-Copy" transform="translate(478.000000, 486.000000)">
                <path d="M0.639900929,65.7189419 C-0.237692239,65.237135 -0.208557611,64.5136249 0.702366751,64.1041093 L11.735136,59.1442132 C12.6472281,58.7341727 13.1873695,59.2278449 12.9400065,60.2533656 L10.6090366,69.9171325 C10.3623761,70.9397409 9.48892194,71.3023413 8.65665003,70.7260037 L7.3722274,69.8365575 C6.64528434,69.3331588 5.62608589,69.5178178 5.09553866,70.2493431 L5.22164176,70.0754706 C4.69120434,70.8068445 4.03340169,70.6895621 3.75434222,69.8195728 L3.40415993,68.7278527 C3.08350413,67.7281836 2.11394835,66.5282077 1.23453817,66.0454032 L0.639900929,65.7189419 Z M4.95223558,68.430067 L4.84047934,68.7875945 C5.07484595,68.0378153 5.6748936,66.9654418 6.18124741,66.3907042 L9.70541721,62.3905905 C10.3830826,61.6214055 10.2761173,61.4945062 9.46750344,62.1060181 L4.06529058,66.1914257 C3.86126387,66.3457203 3.74833407,66.6767125 3.81220627,66.9313592 L4.18038602,68.3992244 C4.37185708,69.1625843 4.71810371,69.1790954 4.95223558,68.430067 Z" id="Shape"></path>
            </g>
        </g>
    </g>
</svg>