<?xml version="1.0" encoding="UTF-8"?>
<svg width="64px" height="16px" viewBox="0 0 64 16" version="1.1" xmlns="http://www.w3.org/2000/svg" xmlns:xlink="http://www.w3.org/1999/xlink">
    <!-- Generator: Sketch 52.6 (67491) - http://www.bohemiancoding.com/sketch -->
    <title>Combined Shape</title>
    <desc>Created with Sketch.</desc>
    <g id="Quickstart-Guide" stroke="none" stroke-width="1" fill="none" fill-rule="evenodd">
        <g id="NUX:-Sample-digest" transform="translate(-742.000000, -173.000000)" fill="#888D94">
            <g id="Group-28" transform="translate(230.000000, 121.000000)">
                <g id="Group-25" transform="translate(408.000000, 40.000000)">
                    <g id="Email-digest@2x-Copy">
                        <path d="M124.229299,24.5987261 L125.019108,22.7643312 C125.872611,23.4012739 127.006369,23.7324841 128.127389,23.7324841 C128.955414,23.7324841 129.477707,23.4140127 129.477707,22.9299363 C129.464968,21.5796178 124.522293,22.6369427 124.484076,19.2484076 C124.471338,17.5286624 126,16.2038217 128.165605,16.2038217 C129.452229,16.2038217 130.738854,16.522293 131.656051,17.2484076 L130.917197,19.1210191 C130.076433,18.5859873 129.031847,18.2038217 128.038217,18.2038217 C127.363057,18.2038217 126.917197,18.522293 126.917197,18.9299363 C126.929936,20.2547771 131.910828,19.5286624 131.961783,22.7643312 C131.961783,24.522293 130.471338,25.7579618 128.33121,25.7579618 C126.764331,25.7579618 125.324841,25.388535 124.229299,24.5987261 Z M154.535032,22.1019108 L156.713376,23.3121019 C155.898089,24.7770701 154.343949,25.7579618 152.547771,25.7579618 C149.910828,25.7579618 147.770701,23.6178344 147.770701,20.9808917 C147.770701,18.343949 149.910828,16.2038217 152.547771,16.2038217 C154.33121,16.2038217 155.898089,17.1974522 156.713376,18.6496815 L154.535032,19.8598726 C154.140127,19.1719745 153.401274,18.7006369 152.547771,18.7006369 C151.286624,18.7006369 150.267516,19.7197452 150.267516,20.9808917 C150.267516,22.2420382 151.286624,23.2611465 152.547771,23.2611465 C153.401274,23.2611465 154.140127,22.7898089 154.535032,22.1019108 Z M133.057325,12.2420382 L135.783439,12.2420382 L135.783439,25.5796178 L133.057325,25.5796178 L133.057325,12.2420382 Z M157.783439,12.2420382 L160.509554,12.2420382 L160.509554,20.0764331 L163.592357,16.3949045 L166.929936,16.3949045 L163.121019,20.8280255 L167.235669,25.5796178 L163.745223,25.5796178 L160.509554,21.5796178 L160.509554,25.5796178 L157.783439,25.5796178 L157.783439,12.2420382 Z M143.88535,22.1273885 L143.88535,19.8726115 C143.490446,19.2101911 142.675159,18.7006369 141.757962,18.7006369 C140.496815,18.7006369 139.477707,19.7197452 139.477707,20.9808917 C139.477707,22.2420382 140.496815,23.2611465 141.757962,23.2611465 C142.675159,23.2611465 143.490446,22.7770701 143.88535,22.1273885 Z M143.88535,16.3949045 L146.611465,16.3949045 L146.611465,25.566879 L143.88535,25.566879 L143.88535,24.4840764 C143.43949,25.2356688 142.33121,25.7579618 141.171975,25.7579618 C138.77707,25.7579618 136.89172,23.6178344 136.89172,20.9681529 C136.89172,18.3184713 138.77707,16.2038217 141.171975,16.2038217 C142.33121,16.2038217 143.43949,16.7261146 143.88535,17.477707 L143.88535,16.3949045 Z M107.375796,22.1146497 C107.375796,23.044586 106.624204,23.7961783 105.694268,23.7961783 C104.764331,23.7961783 104.012739,23.044586 104.012739,22.1146497 C104.012739,21.1847134 104.764331,20.433121 105.694268,20.433121 L107.375796,20.433121 L107.375796,22.1146497 Z M108.216561,22.1146497 C108.216561,21.1847134 108.968153,20.433121 109.898089,20.433121 C110.828025,20.433121 111.579618,21.1847134 111.579618,22.1146497 L111.579618,26.3184713 C111.579618,27.2484076 110.828025,28 109.898089,28 C108.968153,28 108.216561,27.2484076 108.216561,26.3184713 L108.216561,22.1146497 Z M109.898089,15.3630573 C108.968153,15.3630573 108.216561,14.611465 108.216561,13.6815287 C108.216561,12.7515924 108.968153,12 109.898089,12 C110.828025,12 111.579618,12.7515924 111.579618,13.6815287 L111.579618,15.3630573 L109.898089,15.3630573 Z M109.898089,16.2165605 C110.828025,16.2165605 111.579618,16.9681529 111.579618,17.8980892 C111.579618,18.8280255 110.828025,19.5796178 109.898089,19.5796178 L105.681529,19.5796178 C104.751592,19.5796178 104,18.8280255 104,17.8980892 C104,16.9681529 104.751592,16.2165605 105.681529,16.2165605 L109.898089,16.2165605 Z M116.636943,17.8980892 C116.636943,16.9681529 117.388535,16.2165605 118.318471,16.2165605 C119.248408,16.2165605 120,16.9681529 120,17.8980892 C120,18.8280255 119.248408,19.5796178 118.318471,19.5796178 L116.636943,19.5796178 L116.636943,17.8980892 Z M115.796178,17.8980892 C115.796178,18.8280255 115.044586,19.5796178 114.11465,19.5796178 C113.184713,19.5796178 112.433121,18.8280255 112.433121,17.8980892 L112.433121,13.6815287 C112.433121,12.7515924 113.184713,12 114.11465,12 C115.044586,12 115.796178,12.7515924 115.796178,13.6815287 L115.796178,17.8980892 Z M114.11465,24.6369427 C115.044586,24.6369427 115.796178,25.388535 115.796178,26.3184713 C115.796178,27.2484076 115.044586,28 114.11465,28 C113.184713,28 112.433121,27.2484076 112.433121,26.3184713 L112.433121,24.6369427 L114.11465,24.6369427 Z M114.11465,23.7961783 C113.184713,23.7961783 112.433121,23.044586 112.433121,22.1146497 C112.433121,21.1847134 113.184713,20.433121 114.11465,20.433121 L118.33121,20.433121 C119.261146,20.433121 120.012739,21.1847134 120.012739,22.1146497 C120.012739,23.044586 119.261146,23.7961783 118.33121,23.7961783 L114.11465,23.7961783 Z" id="Combined-Shape"></path>
                    </g>
                </g>
            </g>
        </g>
    </g>
</svg>