<?xml version="1.0" encoding="UTF-8"?>
<svg width="10px" height="10px" viewBox="0 0 10 10" version="1.1" xmlns="http://www.w3.org/2000/svg" xmlns:xlink="http://www.w3.org/1999/xlink">
    <!-- Generator: Sketch 52.6 (67491) - http://www.bohemiancoding.com/sketch -->
    <title>Combined Shape</title>
    <desc>Created with Sketch.</desc>
    <g id="Admin-NUX---Jan-2019" stroke="none" stroke-width="1" fill="none" fill-rule="evenodd" opacity="0.5">
        <g id="NUX:-Post-success" transform="translate(-1374.000000, -511.000000)" fill="#FBFAF7" fill-rule="nonzero">
            <path d="M1383.81693,512.066949 C1384.06102,511.822876 1384.06102,511.427148 1383.81695,511.183066 C1383.57288,510.938984 1383.17715,510.938977 1382.93307,511.183051 L1379,515.115979 L1375.06693,511.183051 C1374.82285,510.938977 1374.42712,510.938984 1374.18305,511.183066 C1373.93898,511.427148 1373.93898,511.822876 1374.18307,512.066949 L1378.1161,515.999847 L1374.18307,519.932745 C1373.93898,520.176819 1373.93898,520.572547 1374.18305,520.816629 C1374.42712,521.060711 1374.82285,521.060718 1375.06693,520.816644 L1379,516.883715 L1382.93307,520.816644 C1383.17715,521.060718 1383.57288,521.060711 1383.81695,520.816629 C1384.06102,520.572547 1384.06102,520.176819 1383.81693,519.932745 L1379.8839,515.999847 L1383.81693,512.066949 Z" id="Combined-Shape"></path>
        </g>
    </g>
</svg>