<svg width="14" height="14" viewBox="0 0 14 14" fill="none" xmlns="http://www.w3.org/2000/svg">
<path fill-rule="evenodd" clip-rule="evenodd" d="M13.6561 5.54778C13.9862 6.00758 14.0856 6.60162 13.9241 7.14904C13.9217 7.15807 13.9188 7.1671 13.9212 7.17613L12.8128 11.0032C12.2091 13.0169 11.1212 13.988 9.48785 13.988C9.24054 13.988 8.73775 13.9921 8.32432 13.9956C8.03565 13.998 7.79055 14 7.70637 14C5.6828 14 5.02888 13.8164 2.04165 12.2656V12.6431C2.04165 13.1418 1.6499 13.5461 1.16666 13.5461H0.291665C0.130583 13.5461 0 13.4113 0 13.2451V4.81682C0 4.65058 0.130583 4.51582 0.291665 4.51582H1.16666C1.53635 4.51714 1.86534 4.75812 1.98857 5.11783H3.18731C3.37714 5.11794 3.55514 5.02272 3.66448 4.86258L6.51871 0.6918C6.95983 0.0463378 7.7854 -0.18067 8.47922 0.152717C9.17305 0.486105 9.53613 1.28427 9.34144 2.04815L8.82752 4.06069C8.78117 4.24135 8.81874 4.43398 8.9292 4.58207C9.03968 4.73015 9.21052 4.81688 9.3916 4.81682H12.2499C12.8044 4.8168 13.3261 5.08797 13.6561 5.54778ZM12.2655 7.11385L12.27 7.09908C12.3142 6.93976 12.2842 6.76777 12.1899 6.63488C12.0955 6.50198 11.9474 6.4237 11.79 6.42358H9.33997C8.87463 6.42349 8.07911 6.02813 7.7952 5.63929C7.51129 5.25045 7.41457 4.74467 7.53339 4.27017L7.97239 2.50574C7.99909 2.39776 7.9788 2.28327 7.91779 2.19304C7.93542 2.19892 7.95361 2.20515 7.97239 2.21173C8.08242 2.20775 7.83183 2.08823 7.90489 2.1751C7.90937 2.18096 7.91368 2.18694 7.91779 2.19304C7.49756 2.05273 7.40043 2.10742 7.33589 2.19567L4.8914 5.84845C4.82886 5.94193 4.77527 6.03528 4.72436 6.12394C4.54636 6.43395 4.40125 6.68669 4.02199 6.68724H3.28999C3.15192 6.68724 3.03999 6.80529 3.03999 6.95091V10.551C3.04103 10.6495 3.09406 10.7392 3.17749 10.7835C6.15948 12.3766 6.36548 12.3766 8.45297 12.3523L8.48518 12.3519C8.76338 12.3489 9.07255 12.3454 9.42297 12.3454C10.366 12.3454 10.931 11.7907 11.311 10.4887L12.2655 7.11385Z" fill="#242D42" fill-opacity="0.5"/>
</svg>
