<?xml version="1.0" encoding="UTF-8"?>
<svg width="23px" height="16px" viewBox="0 0 23 16" version="1.1" xmlns="http://www.w3.org/2000/svg" xmlns:xlink="http://www.w3.org/1999/xlink">
    <!-- Generator: Sketch 52.6 (67491) - http://www.bohemiancoding.com/sketch -->
    <title>Combined Shape</title>
    <desc>Created with Sketch.</desc>
    <g id="Styles-&amp;-states" stroke="none" stroke-width="1" fill="none" fill-rule="evenodd">
        <g id="Stream-states" transform="translate(-523.000000, -347.000000)" fill="#34414F">
            <g id="Group-22" transform="translate(320.000000, 342.000000)">
                <g id="Group-13">
                    <g id="Group-3" transform="translate(107.000000, 0.000000)">
                        <g id="Group-18-Copy-2" transform="translate(88.000000, 0.000000)">
                            <g id="Group-6">
                                <path d="M29,13 L31,13 L31,14 L29,14 L29,16 L28,16 L28,14 L26,14 L26,13 L28,13 L28,11 L29,11 L29,13 Z M18.8758308,13.7411111 C19.1927708,13.7411111 19.4499974,13.9979644 19.4499974,14.3144445 C19.4499974,15.8148578 17.8078808,17.1811112 16.0049975,17.1811112 C14.2021142,17.1811112 12.5599976,15.8148578 12.5599976,14.3144445 C12.5599976,13.9979644 12.8172242,13.7411111 13.1341642,13.7411111 L18.8758308,13.7411111 Z M16,18.9262963 C19.2674074,18.9262963 21.9259259,16.2677778 21.9259259,13.0003704 C21.9259259,9.73296296 19.2674074,7.07444444 16,7.07444444 C12.7325926,7.07444444 10.0740741,9.73296296 10.0740741,13.0003704 C10.0740741,16.2677778 12.7325926,18.9262963 16,18.9262963 Z M16,5.59296296 C20.0844444,5.59296296 23.4074074,8.91592593 23.4074074,13.0003704 C23.4074074,17.0855556 20.0844444,20.4077778 16,20.4077778 C11.9155556,20.4077778 8.59259259,17.0855556 8.59259259,13.0003704 C8.59259259,8.91592593 11.9155556,5.59296296 16,5.59296296 Z M14.5185185,9.2962963 L14.5185185,12.2592593 L13.037037,12.2592593 L13.037037,9.2962963 L14.5185185,9.2962963 Z M18.962963,9.2962963 L18.962963,12.2592593 L17.4814815,12.2592593 L17.4814815,9.2962963 L18.962963,9.2962963 Z" id="Combined-Shape"></path>
                            </g>
                        </g>
                    </g>
                </g>
            </g>
        </g>
    </g>
</svg>