<?xml version="1.0" encoding="UTF-8"?>
<svg width="24px" height="16px" viewBox="0 0 24 16" version="1.1" xmlns="http://www.w3.org/2000/svg" xmlns:xlink="http://www.w3.org/1999/xlink">
    <!-- Generator: Sketch 52.6 (67491) - http://www.bohemiancoding.com/sketch -->
    <title>Combined Shape</title>
    <desc>Created with Sketch.</desc>
    <g id="Responsive-web" stroke="none" stroke-width="1" fill="none" fill-rule="evenodd">
        <g id="Mobile---Simple-expanded-post" transform="translate(-226.000000, -355.000000)" fill="#34414F">
            <g id="Group-7" transform="translate(0.000000, 347.000000)">
                <g id="Group" transform="translate(16.000000, 0.000000)">
                    <g id="Group-8">
                        <g id="Group-3">
                            <g id="Group-18-Copy-2" transform="translate(200.000000, 0.000000)">
                                <g id="Group-6">
                                    <path d="M31.8578512,15.9996 L34,15.9996 L34,17.0796 L31.8578512,17.0796 L31.8578512,19.2396 L30.7867769,19.2396 L30.7867769,17.0796 L28.6446281,17.0796 L28.6446281,15.9996 L30.7867769,15.9996 L30.7867769,13.8396 L31.8578512,13.8396 L31.8578512,15.9996 Z M21.014113,16.8 C21.3535793,16.8 21.6290882,17.0774016 21.6290882,17.4192 C21.6290882,19.0396464 19.8702591,20.5152001 17.939237,20.5152001 C16.0082149,20.5152001 14.2493858,19.0396464 14.2493858,17.4192 C14.2493858,17.0774016 14.5248947,16.8 14.864361,16.8 L21.014113,16.8 Z M17.9338843,22.4 C21.4335207,22.4 24.2809917,19.5288 24.2809917,16 C24.2809917,12.4712 21.4335207,9.6 17.9338843,9.6 C14.4342479,9.6 11.5867769,12.4712 11.5867769,16 C11.5867769,19.5288 14.4342479,22.4 17.9338843,22.4 Z M17.9338843,8 C22.3086281,8 25.8677686,11.5888 25.8677686,16 C25.8677686,20.412 22.3086281,24 17.9338843,24 C13.5591405,24 10,20.412 10,16 C10,11.5888 13.5591405,8 17.9338843,8 Z M16.3471074,11.9996 L16.3471074,15.1996 L14.7603306,15.1996 L14.7603306,11.9996 L16.3471074,11.9996 Z M21.107438,11.9996 L21.107438,15.1996 L19.5206612,15.1996 L19.5206612,11.9996 L21.107438,11.9996 Z" id="Combined-Shape"></path>
                                </g>
                            </g>
                        </g>
                    </g>
                </g>
            </g>
        </g>
    </g>
</svg>