<?xml version="1.0" encoding="UTF-8"?>
<svg width="16px" height="16px" viewBox="0 0 16 16" version="1.1" xmlns="http://www.w3.org/2000/svg" xmlns:xlink="http://www.w3.org/1999/xlink">
    <!-- Generator: Sketch 48.2 (47327) - http://www.bohemiancoding.com/sketch -->
    <title>Face</title>
    <desc>Created with Sketch.</desc>
    <defs></defs>
    <g id="UI-Guides" stroke="none" stroke-width="1" fill="none" fill-rule="evenodd" transform="translate(-528.000000, -270.000000)">
        <g id="Add-New-Reaction" transform="translate(520.000000, 265.000000)" fill="#C4C6C9">
            <g id="Face" transform="translate(8.000000, 5.000000)">
                <path d="M10.8758308,8.74111111 L5.13416421,8.74111111 C4.81722422,8.74111111 4.55999756,8.99796445 4.55999756,9.31444445 C4.55999756,10.8148578 6.20211419,12.1811112 8.00499749,12.1811112 C9.80788079,12.1811112 11.4499974,10.8148578 11.4499974,9.31444445 C11.4499974,8.99796445 11.1927708,8.74111111 10.8758308,8.74111111" id="Fill-144"></path>
                <path d="M8,13.9262963 C4.73259259,13.9262963 2.07407407,11.2677778 2.07407407,8.00037037 C2.07407407,4.73296296 4.73259259,2.07444444 8,2.07444444 C11.2674074,2.07444444 13.9259259,4.73296296 13.9259259,8.00037037 C13.9259259,11.2677778 11.2674074,13.9262963 8,13.9262963 M8,0.592962963 C3.91555556,0.592962963 0.592592593,3.91592593 0.592592593,8.00037037 C0.592592593,12.0855556 3.91555556,15.4077778 8,15.4077778 C12.0844444,15.4077778 15.4074074,12.0855556 15.4074074,8.00037037 C15.4074074,3.91592593 12.0844444,0.592962963 8,0.592962963" id="Fill-145"></path>
                <polygon id="Fill-146" points="6.51851852 4.2962963 5.03703704 4.2962963 5.03703704 7.25925926 6.51851852 7.25925926"></polygon>
                <polygon id="Fill-147" points="10.962963 4.2962963 9.48148148 4.2962963 9.48148148 7.25925926 10.962963 7.25925926"></polygon>
            </g>
        </g>
    </g>
</svg>