<?xml version="1.0" encoding="UTF-8"?>
<svg width="12px" height="12px" viewBox="0 0 12 12" version="1.1" xmlns="http://www.w3.org/2000/svg" xmlns:xlink="http://www.w3.org/1999/xlink">
    <!-- Generator: Sketch 51.2 (57519) - http://www.bohemiancoding.com/sketch -->
    <title>Combined Shape</title>
    <desc>Created with Sketch.</desc>
    <defs></defs>
    <g id="Video" stroke="none" stroke-width="1" fill="none" fill-rule="evenodd" opacity="0.5">
        <g id="Video-2.0-(empty-with-new-video)" transform="translate(-376.000000, -181.000000)" fill="#FFFFFF" fill-rule="nonzero">
            <g id="Group-6" transform="translate(360.000000, 165.000000)">
                <path d="M27.7803208,17.2803393 C28.0732192,16.9874512 28.0732274,16.5125775 27.7803393,16.2196792 C27.4874512,15.9267808 27.0125775,15.9267726 26.7196792,16.2196607 L22,20.9391752 L17.2803208,16.2196607 C16.9874225,15.9267726 16.5125488,15.9267808 16.2196607,16.2196792 C15.9267726,16.5125775 15.9267808,16.9874512 16.2196792,17.2803393 L20.9393213,21.9998169 L16.2196792,26.7192945 C15.9267808,27.0121826 15.9267726,27.4870563 16.2196607,27.7799546 C16.5125488,28.072853 16.9874225,28.0728612 17.2803208,27.7799731 L22,23.0604586 L26.7196792,27.7799731 C27.0125775,28.0728612 27.4874512,28.072853 27.7803393,27.7799546 C28.0732274,27.4870563 28.0732192,27.0121826 27.7803208,26.7192945 L23.0606787,21.9998169 L27.7803208,17.2803393 Z" id="Combined-Shape"></path>
            </g>
        </g>
    </g>
</svg>