<?xml version="1.0" encoding="UTF-8"?>
<svg width="8px" height="8px" viewBox="0 0 8 8" version="1.1" xmlns="http://www.w3.org/2000/svg" xmlns:xlink="http://www.w3.org/1999/xlink">
    <!-- Generator: Sketch 50.2 (55047) - http://www.bohemiancoding.com/sketch -->
    <title>Combined Shape</title>
    <desc>Created with Sketch.</desc>
    <defs></defs>
    <g id="⚙️-Settings-/-modals" stroke="none" stroke-width="1" fill="none" fill-rule="evenodd">
        <g id="Digest-settings" transform="translate(-1135.000000, -435.000000)" fill="#3FBD7C" fill-rule="nonzero">
            <g id="Group-5" transform="translate(1045.000000, 423.000000)">
                <g id="Group-4">
                    <path d="M97.8535472,12.8535596 C98.0488128,12.6583008 98.0488183,12.3417183 97.8535596,12.1464528 C97.6583008,11.9511872 97.3417183,11.9511817 97.1464528,12.1464404 L94,15.2927835 L90.8535472,12.1464404 C90.6582817,11.9511817 90.3416992,11.9511872 90.1464404,12.1464528 C89.9511817,12.3417183 89.9511872,12.6583008 90.1464528,12.8535596 L93.2928809,15.9998779 L90.1464528,19.1461963 C89.9511872,19.341455 89.9511817,19.6580375 90.1464404,19.8533031 C90.3416992,20.0485686 90.6582817,20.0485742 90.8535472,19.8533154 L94,16.7069724 L97.1464528,19.8533154 C97.3417183,20.0485742 97.6583008,20.0485686 97.8535596,19.8533031 C98.0488183,19.6580375 98.0488128,19.341455 97.8535472,19.1461963 L94.7071191,15.9998779 L97.8535472,12.8535596 Z" id="Combined-Shape"></path>
                </g>
            </g>
        </g>
    </g>
</svg>