<?xml version="1.0" encoding="UTF-8"?>
<svg width="16px" height="12px" viewBox="0 0 16 12" version="1.1" xmlns="http://www.w3.org/2000/svg" xmlns:xlink="http://www.w3.org/1999/xlink">
    <!-- Generator: Sketch 51.1 (57501) - http://www.bohemiancoding.com/sketch -->
    <title>Combined Shape</title>
    <desc>Created with Sketch.</desc>
    <defs></defs>
    <g id="Video" stroke="none" stroke-width="1" fill="none" fill-rule="evenodd">
        <g id="June-29:-Covershot-selected" transform="translate(-772.000000, -405.000000)" fill="#2F3944" fill-rule="nonzero">
            <g id="Group-7" transform="translate(260.000000, 165.000000)">
                <g id="Group-6" transform="translate(16.000000, 222.000000)">
                    <g id="Group-4-Copy" transform="translate(504.000000, 24.000000) scale(-1, 1) translate(-504.000000, -24.000000) translate(480.000000, 0.000000)">
                        <path d="M25.2,19.5406659 L25.2,31.0207195 C25.2,31.5615612 24.6673622,32 24,32 C23.3372583,32 22.8,31.564209 22.8,31.0207195 L22.8,19.5406659 L20.0485281,21.9184811 C19.579899,22.3234693 18.820101,22.3234693 18.3514719,21.9184811 C17.8828427,21.513493 17.8828427,20.8568774 18.3514719,20.4518893 L23.1514719,16.3037411 C23.620101,15.898753 24.379899,15.898753 24.8485281,16.3037411 L29.6485281,20.4518893 C30.1171573,20.8568774 30.1171573,21.513493 29.6485281,21.9184811 C29.179899,22.3234693 28.420101,22.3234693 27.9514719,21.9184811 L25.2,19.5406659 Z" id="Combined-Shape" transform="translate(24.000000, 24.000000) scale(-1, 1) rotate(90.000000) translate(-24.000000, -24.000000) "></path>
                    </g>
                </g>
            </g>
        </g>
    </g>
</svg>