<?xml version="1.0" encoding="UTF-8"?>
<svg width="16px" height="16px" viewBox="0 0 16 16" version="1.1" xmlns="http://www.w3.org/2000/svg" xmlns:xlink="http://www.w3.org/1999/xlink">
    <!-- Generator: Sketch 51.3 (57544) - http://www.bohemiancoding.com/sketch -->
    <title>Combined Shape</title>
    <desc>Created with Sketch.</desc>
    <defs></defs>
    <g id="Section-management" stroke="none" stroke-width="1" fill="none" fill-rule="evenodd">
        <g id="Section-selection-drop-down" transform="translate(-659.000000, -426.000000)" fill="#3FBD7C">
            <g id="Group-18" transform="translate(492.000000, 408.000000)">
                <path d="M174.2,25.2 L174.2,22.7963181 C174.2,22.3565237 174.555092,22 175,22 C175.441828,22 175.8,22.359285 175.8,22.7963181 L175.8,25.2 L178.203682,25.2 C178.643476,25.2 179,25.5550919 179,26 C179,26.4418278 178.640715,26.8 178.203682,26.8 L175.8,26.8 L175.8,29.2036819 C175.8,29.6434763 175.444908,30 175,30 C174.558172,30 174.2,29.640715 174.2,29.2036819 L174.2,26.8 L171.796318,26.8 C171.356524,26.8 171,26.4449081 171,26 C171,25.5581722 171.359285,25.2 171.796318,25.2 L174.2,25.2 Z M175,34 C170.581722,34 167,30.418278 167,26 C167,21.581722 170.581722,18 175,18 C179.418278,18 183,21.581722 183,26 C183,30.418278 179.418278,34 175,34 Z M175,32.4 C178.534622,32.4 181.4,29.5346224 181.4,26 C181.4,22.4653776 178.534622,19.6 175,19.6 C171.465378,19.6 168.6,22.4653776 168.6,26 C168.6,29.5346224 171.465378,32.4 175,32.4 Z" id="Combined-Shape"></path>
            </g>
        </g>
    </g>
</svg>