<?xml version="1.0" encoding="UTF-8"?>
<svg width="13px" height="14px" viewBox="0 0 13 14" version="1.1" xmlns="http://www.w3.org/2000/svg" xmlns:xlink="http://www.w3.org/1999/xlink">
    <!-- Generator: Sketch 52.6 (67491) - http://www.bohemiancoding.com/sketch -->
    <title>Combined Shape</title>
    <desc>Created with Sketch.</desc>
    <g id="Inbox/unread" stroke="none" stroke-width="1" fill="none" fill-rule="evenodd">
        <g id="Inbox:-Action-bar-states" transform="translate(-722.000000, -494.000000)" fill="#242D42">
            <path d="M730.844864,496.307407 L731.361193,496.610886 C731.361193,496.610886 732.902718,496.339931 732.992279,496.33168 C733.45874,496.274051 733.961124,496.526356 734.195772,496.935675 L734.842788,498.064325 C735.078424,498.475367 735.044617,499.041781 734.771969,499.400162 C734.708675,499.489889 733.706586,500.698661 733.706586,500.698661 C733.706586,500.698661 733.712848,500.787931 733.712848,501 C733.712848,501.102196 733.704147,501.305528 733.704147,501.305528 C733.704147,501.305528 734.708675,502.510111 734.760532,502.584094 C735.043252,502.962115 735.077414,503.526396 734.842788,503.935675 L734.195772,505.064325 C733.960113,505.475405 733.456073,505.729084 733.007074,505.669992 C733.003363,505.669625 731.352903,505.388276 731.352903,505.388276 L730.844864,505.689966 C730.844864,505.689966 730.305767,507.170296 730.268101,507.252466 C730.084402,507.688064 729.616258,508 729.147007,508 L727.852974,508 C727.381657,508 726.911499,507.687217 726.739664,507.27015 C726.694197,507.170141 726.153617,505.684479 726.153617,505.684479 L725.635674,505.38705 C725.635674,505.38705 724.097121,505.660132 724.007559,505.668372 C723.54114,505.725949 723.038834,505.473604 722.804209,505.064325 L722.157192,503.935675 C721.921534,503.524595 721.955416,502.958133 722.228135,502.599726 C722.291431,502.510019 723.294509,501.300282 723.294509,501.300282 C723.294509,501.300282 723.287132,501.212129 723.287132,501 C723.287132,500.899801 723.295497,500.700419 723.295497,500.700419 C723.295497,500.700419 722.291431,499.489981 722.239564,499.416004 C721.956779,499.037973 721.922544,498.473644 722.157192,498.064325 L722.804209,496.935675 C723.039845,496.524633 723.543807,496.270913 723.988302,496.329525 C724.097121,496.339868 725.650902,496.612454 725.650902,496.612454 L726.16106,496.30702 C726.16106,496.30702 726.694197,494.829859 726.731853,494.747684 C726.915528,494.312024 727.383677,494 727.852974,494 L729.147007,494 C729.618279,494 730.088434,494.312694 730.260281,494.729687 C730.305767,494.829704 730.844864,496.307407 730.844864,496.307407 Z M729.698772,497.328073 L729.605414,497.013523 C729.469663,496.556142 729.084828,495.519208 729.04383,495.422149 C729.020065,495.365888 727.979952,495.36591 727.956191,495.422176 C727.915202,495.519239 727.530442,496.55614 727.394708,497.013463 L727.301345,497.328026 L727.001494,497.45685 C726.718151,497.578581 726.450544,497.734622 726.20432,497.921191 L725.943451,498.118857 L725.625831,498.042877 C725.164398,497.932494 724.07964,497.749531 723.97561,497.73675 C723.915306,497.729342 723.395246,498.636558 723.431769,498.685442 C723.494774,498.769769 724.194392,499.624217 724.519941,499.971405 L724.743512,500.209836 L724.704704,500.535444 C724.686443,500.688652 724.677228,500.843669 724.677228,501 C724.677228,501.156331 724.686443,501.311348 724.704704,501.464556 L724.743512,501.790164 L724.519941,502.028595 C724.194392,502.375783 723.494774,503.230231 723.431769,503.314558 C723.395246,503.363442 723.915306,504.270658 723.97561,504.26325 C724.07964,504.250469 725.164398,504.067506 725.625831,503.957123 L725.943451,503.881143 L726.20432,504.078809 C726.450544,504.265378 726.718151,504.421419 727.001494,504.54315 L727.301345,504.671974 L727.394708,504.986537 C727.530442,505.44386 727.915202,506.480761 727.956191,506.577824 C727.979952,506.63409 729.020065,506.634112 729.04383,506.577851 C729.084828,506.480792 729.469663,505.443858 729.605414,504.986477 L729.698772,504.671927 L729.998605,504.543099 C730.281945,504.421358 730.549547,504.265307 730.795764,504.07873 L731.056638,503.881047 L731.374272,503.95703 C731.835647,504.067398 732.920338,504.25041 733.024368,504.263201 C733.059996,504.267581 733.604772,503.363421 733.568255,503.314536 C733.505259,503.230204 732.805649,502.375673 732.480058,502.028442 L732.256497,501.790021 L732.295292,501.464426 C732.313542,501.311261 732.322753,501.156286 732.322753,501 C732.322753,500.843714 732.313542,500.688739 732.295292,500.535574 L732.256497,500.209979 L732.480058,499.971558 C732.805649,499.624327 733.505259,498.769796 733.568255,498.685464 C733.604772,498.636579 733.084674,497.729385 733.024368,497.736799 C732.920338,497.74959 731.835647,497.932602 731.374272,498.04297 L731.056638,498.118953 L730.795764,497.92127 C730.549547,497.734693 730.281945,497.578642 729.998605,497.456901 L729.698772,497.328073 Z M728.49999,503.1 C727.348397,503.1 726.414847,502.159798 726.414847,501 C726.414847,499.840202 727.348397,498.9 728.49999,498.9 C729.651583,498.9 730.585133,499.840202 730.585133,501 C730.585133,502.159798 729.651583,503.1 728.49999,503.1 Z M728.49999,501.7 C728.883854,501.7 729.195038,501.386599 729.195038,501 C729.195038,500.613401 728.883854,500.3 728.49999,500.3 C728.116126,500.3 727.804942,500.613401 727.804942,501 C727.804942,501.386599 728.116126,501.7 728.49999,501.7 Z" id="Combined-Shape"></path>
        </g>
    </g>
</svg>