<?xml version="1.0" encoding="UTF-8"?>
<svg width="15px" height="16px" viewBox="0 0 15 16" version="1.1" xmlns="http://www.w3.org/2000/svg" xmlns:xlink="http://www.w3.org/1999/xlink">
    <!-- Generator: Sketch 52.2 (67145) - http://www.bohemiancoding.com/sketch -->
    <title>Combined Shape</title>
    <desc>Created with Sketch.</desc>
    <g id="Section-settings" stroke="none" stroke-width="1" fill="none" fill-rule="evenodd" opacity="0.5">
        <g transform="translate(-446.000000, -100.000000)" fill="#34414F" id="Combined-Shape">
            <path d="M456.180439,102.637036 L456.774734,102.98387 C456.774734,102.98387 458.549029,102.674207 458.652114,102.664777 C459.189011,102.598915 459.767255,102.887264 460.037335,103.355057 L460.782051,104.644943 C461.053268,105.114705 461.014355,105.762036 460.700538,106.171614 C460.627686,106.274159 459.474282,107.655612 459.474282,107.655612 C459.474282,107.655612 459.481489,107.757636 459.481489,108 C459.481489,108.116795 459.471475,108.349175 459.471475,108.349175 C459.471475,108.349175 460.627686,109.725841 460.687374,109.810393 C461.012785,110.242417 461.052105,110.88731 460.782051,111.355057 L460.037335,112.644943 C459.766092,113.114749 459.185941,113.404668 458.669143,113.337134 C458.664872,113.336714 456.765193,113.015173 456.765193,113.015173 L456.180439,113.359961 C456.180439,113.359961 455.559939,115.051767 455.516585,115.145676 C455.305147,115.643501 454.766313,116 454.226206,116 L452.736773,116 C452.194288,116 451.653135,115.642534 451.455354,115.165885 C451.403021,115.05159 450.780813,113.35369 450.780813,113.35369 L450.184662,113.013772 C450.184662,113.013772 448.413786,113.325866 448.310701,113.335282 C447.773852,113.401085 447.195698,113.11269 446.925644,112.644943 L446.180928,111.355057 C445.909686,110.885251 445.948684,110.237866 446.262583,109.828258 C446.335437,109.725736 447.48998,108.343179 447.48998,108.343179 C447.48998,108.343179 447.481489,108.242433 447.481489,108 C447.481489,107.885487 447.491117,107.657622 447.491117,107.657622 C447.491117,107.657622 446.335437,106.274264 446.275738,106.189719 C445.950252,105.757684 445.910848,105.112736 446.180928,104.644943 L446.925644,103.355057 C447.196862,102.885295 447.776922,102.595329 448.288536,102.662314 C448.413786,102.674134 450.202189,102.985661 450.202189,102.985661 L450.78938,102.636594 C450.78938,102.636594 451.403021,100.94841 451.446363,100.854496 C451.657774,100.356599 452.196613,100 452.736773,100 L454.226206,100 C454.76864,100 455.309788,100.357365 455.507584,100.833928 C455.559939,100.948233 456.180439,102.637036 456.180439,102.637036 Z M454.861288,103.803512 L454.753832,103.444026 C454.597583,102.921305 454.154637,101.736237 454.107449,101.625313 C454.080095,101.561014 452.882926,101.56104 452.855577,101.625344 C452.808398,101.736274 452.365539,102.921303 452.209309,103.443957 L452.101848,103.803458 L451.756721,103.950685 C451.430592,104.089807 451.122576,104.26814 450.839173,104.481361 L450.538912,104.707265 L450.173332,104.620431 C449.642222,104.494279 448.393666,104.285178 448.273927,104.270572 C448.204517,104.262105 447.605928,105.298923 447.647966,105.354791 C447.720485,105.451165 448.525746,106.427676 448.900453,106.824463 L449.157783,107.096956 L449.113114,107.469079 C449.092096,107.644173 449.081489,107.821336 449.081489,108 C449.081489,108.178664 449.092096,108.355827 449.113114,108.530921 L449.157783,108.903044 L448.900453,109.175537 C448.525746,109.572324 447.720485,110.548835 447.647966,110.645209 C447.605928,110.701077 448.204517,111.737895 448.273927,111.729428 C448.393666,111.714822 449.642222,111.505721 450.173332,111.379569 L450.538912,111.292735 L450.839173,111.518639 C451.122576,111.73186 451.430592,111.910193 451.756721,112.049315 L452.101848,112.196542 L452.209309,112.556043 C452.365539,113.078697 452.808398,114.263726 452.855577,114.374656 C452.882926,114.43896 454.080095,114.438986 454.107449,114.374687 C454.154637,114.263763 454.597583,113.078695 454.753832,112.555974 L454.861288,112.196488 L455.206396,112.049256 C455.53252,111.910123 455.840529,111.73178 456.123926,111.518549 L456.424192,111.292625 L456.789788,111.379463 C457.32083,111.505598 458.56931,111.714754 458.689049,111.729372 C458.730056,111.734378 459.357094,110.701053 459.315063,110.645184 C459.242554,110.548804 458.437303,109.572198 458.062548,109.175362 L457.805229,108.902881 L457.849883,108.530772 C457.870888,108.355726 457.881489,108.178613 457.881489,108 C457.881489,107.821387 457.870888,107.644274 457.849883,107.469228 L457.805229,107.097119 L458.062548,106.824638 C458.437303,106.427802 459.242554,105.451196 459.315063,105.354816 C459.357094,105.298947 458.758461,104.262154 458.689049,104.270628 C458.56931,104.285246 457.32083,104.494402 456.789788,104.620537 L456.424192,104.707375 L456.123926,104.481451 C455.840529,104.26822 455.53252,104.089877 455.206396,103.950744 L454.861288,103.803512 Z M453.481489,110.4 C452.156006,110.4 451.081489,109.325483 451.081489,108 C451.081489,106.674517 452.156006,105.6 453.481489,105.6 C454.806973,105.6 455.881489,106.674517 455.881489,108 C455.881489,109.325483 454.806973,110.4 453.481489,110.4 Z M453.481489,108.8 C453.923317,108.8 454.281489,108.441828 454.281489,108 C454.281489,107.558172 453.923317,107.2 453.481489,107.2 C453.039662,107.2 452.681489,107.558172 452.681489,108 C452.681489,108.441828 453.039662,108.8 453.481489,108.8 Z"></path>
        </g>
    </g>
</svg>