<?xml version="1.0" encoding="UTF-8"?>
<svg width="12px" height="12px" viewBox="0 0 12 12" version="1.1" xmlns="http://www.w3.org/2000/svg" xmlns:xlink="http://www.w3.org/1999/xlink">
    <!-- Generator: Sketch 50 (54983) - http://www.bohemiancoding.com/sketch -->
    <title>Combined Shape</title>
    <desc>Created with Sketch.</desc>
    <defs></defs>
    <g id="Share-/-Full-page-post" stroke="none" stroke-width="1" fill="none" fill-rule="evenodd" opacity="0.5">
        <g id="Post:-Full-screen-(public-view)" transform="translate(-24.000000, -18.000000)" fill="#FFFFFF" fill-rule="nonzero">
            <g id="Group-12">
                <path d="M35.7803208,19.2803393 C36.0732192,18.9874512 36.0732274,18.5125775 35.7803393,18.2196792 C35.4874512,17.9267808 35.0125775,17.9267726 34.7196792,18.2196607 L30,22.9391752 L25.2803208,18.2196607 C24.9874225,17.9267726 24.5125488,17.9267808 24.2196607,18.2196792 C23.9267726,18.5125775 23.9267808,18.9874512 24.2196792,19.2803393 L28.9393213,23.9998169 L24.2196792,28.7192945 C23.9267808,29.0121826 23.9267726,29.4870563 24.2196607,29.7799546 C24.5125488,30.072853 24.9874225,30.0728612 25.2803208,29.7799731 L30,25.0604586 L34.7196792,29.7799731 C35.0125775,30.0728612 35.4874512,30.072853 35.7803393,29.7799546 C36.0732274,29.4870563 36.0732192,29.0121826 35.7803208,28.7192945 L31.0606787,23.9998169 L35.7803208,19.2803393 Z" id="Combined-Shape"></path>
            </g>
        </g>
    </g>
</svg>