<?xml version="1.0" encoding="UTF-8"?>
<svg width="17px" height="30px" viewBox="0 0 17 30" version="1.1" xmlns="http://www.w3.org/2000/svg" xmlns:xlink="http://www.w3.org/1999/xlink">
    <!-- Generator: Sketch 46.2 (44496) - http://www.bohemiancoding.com/sketch -->
    <title>Group 7</title>
    <desc>Created with Sketch.</desc>
    <defs></defs>
    <g id="September-5th---Stories-Cont." stroke="none" stroke-width="1" fill="none" fill-rule="evenodd">
        <g id="7.-Shared-Story-Link" transform="translate(-562.000000, -2401.000000)" fill="#C8C4BB">
            <g id="Group-10" transform="translate(0.000000, 2380.000000)">
                <g id="white-bg-copy">
                    <g id="Group-9">
                        <g id="Group-8" transform="translate(562.000000, 21.000000)">
                            <g id="Group-7">
                                <g>
                                    <path d="M6.06643014,0.176951102 C5.59321919,-0.0368627847 5.06867413,-0.0576274026 4.58914827,0.118563464 C4.07214036,0.308323289 3.65413397,0.716831167 3.44187146,1.23964724 L3.27748006,1.64507126 L2.89288158,1.44092012 C2.3976703,1.17838134 1.81710586,1.13664651 1.30030166,1.32661193 C0.820775802,1.50280279 0.431899482,1.85909074 0.205581204,2.33009806 C-0.282500338,3.34735875 0.128376319,4.60392652 1.12185448,5.13105999 C1.12450267,5.13249912 1.12735457,5.13393825 1.13020646,5.13537738 L5.00083976,7.02989178 C5.07356309,7.06545889 5.15300875,7.0675148 5.22226907,7.0420216 C5.2917331,7.016734 5.35101178,6.96348612 5.38421599,6.88906244 L7.14444663,2.92610427 C7.14587258,2.92322601 7.14709482,2.92014216 7.14831706,2.91726389 C7.57386061,1.86937026 7.08863096,0.640351585 6.06643014,0.176951102" id="Fill-2"></path>
                                    <path d="M16.0170454,10.1854911 C14.7784936,7.69438814 12.0593074,6.3433691 8.81643691,6.96686863 C8.81643691,6.96686863 7.44608462,7.1248632 6.10987217,7.61104807 C4.77345281,8.09702614 3.62221619,8.85639273 3.62221619,8.85639273 C-0.468977507,11.1074018 -1.20060452,15.7541794 1.9706758,19.1870458 L10.0204351,27.9013564 C13.1886118,31.3311208 15.9419378,30.3339352 16.1633294,25.6666845 L16.5525235,17.4642018 L12.3897397,18.9804534 C12.3897397,18.9804534 15.4972923,15.8137375 16.1302241,13.5699664 C16.574042,11.9968451 16.2502308,10.7752823 16.0170454,10.1854911" id="Fill-4"></path>
                                </g>
                            </g>
                        </g>
                    </g>
                </g>
            </g>
        </g>
    </g>
</svg>