<?xml version="1.0" encoding="UTF-8"?>
<svg width="15px" height="15px" viewBox="0 0 15 15" version="1.1" xmlns="http://www.w3.org/2000/svg" xmlns:xlink="http://www.w3.org/1999/xlink">
    <!-- Generator: Sketch 47.1 (45422) - http://www.bohemiancoding.com/sketch -->
    <title>Shape</title>
    <desc>Created with Sketch.</desc>
    <defs></defs>
    <g id="Symbols" stroke="none" stroke-width="1" fill="none" fill-rule="evenodd">
        <g id="share-button" transform="translate(-15.000000, -8.000000)" fill-rule="nonzero" fill="#898D93">
            <g id="Shape" transform="translate(13.000000, 6.000000)">
                <path d="M9.89949494,16.8994949 C6.03350169,16.8994949 2.89949494,13.7654882 2.89949494,9.89949494 C2.89949494,6.03350169 6.03350169,2.89949494 9.89949494,2.89949494 C13.7654882,2.89949494 16.8994949,6.03350169 16.8994949,9.89949494 C16.8994949,13.7654882 13.7654882,16.8994949 9.89949494,16.8994949 Z M10.3764492,6.6059262 C10.1060892,6.32990525 9.6692431,6.3303711 9.39853539,6.60922341 L7.08312488,8.9942961 C6.42513003,9.65417632 7.41235497,10.64423 8.07034981,9.98434975 L8.87134215,9.17817294 C9.05372885,8.99460573 9.20158248,9.05687638 9.20158248,9.31414304 L9.20158248,12.5238745 C9.20158248,12.909528 9.51487856,13.222162 9.89959681,13.222162 C10.2850995,13.222162 10.5976111,12.9074245 10.5976111,12.5238745 L10.5976111,9.31414304 C10.5976111,9.05548163 10.7454696,8.99464124 10.9277835,9.17817294 L11.7286111,9.98434975 C12.3868387,10.64423 13.3738309,9.65417632 12.7158361,8.9942961 L10.3764492,6.6059262 Z" transform="translate(9.899495, 9.899495) rotate(45.000000) translate(-9.899495, -9.899495) "></path>
            </g>
        </g>
    </g>
</svg>