<?xml version="1.0" encoding="UTF-8"?>
<svg width="67px" height="66px" viewBox="0 0 67 66" version="1.1" xmlns="http://www.w3.org/2000/svg" xmlns:xlink="http://www.w3.org/1999/xlink">
    <!-- Generator: Sketch 50.2 (55047) - http://www.bohemiancoding.com/sketch -->
    <title>Slack_Mark</title>
    <desc>Created with Sketch.</desc>
    <defs></defs>
    <g id="Sign-up-with-Slack" stroke="none" stroke-width="1" fill="none" fill-rule="evenodd">
        <g id="SUWL:-Success" transform="translate(-669.000000, -237.000000)" fill="#34414F" fill-rule="nonzero">
            <g id="Group-5" transform="translate(400.000000, 160.000000)">
                <g id="Group-41" transform="translate(143.000000, 70.000000)">
                    <g id="Slack_Mark" transform="translate(126.666667, 6.666667)">
                        <path d="M42.9810298,4.3902439 C41.9512195,1.30081301 38.6449864,-0.379403794 35.5555556,0.596205962 C32.4661247,1.62601626 30.7859079,4.93224932 31.7615176,8.02168022 L46.9918699,54.8509485 C48.0216802,57.7235772 51.1653117,59.3495935 54.1463415,58.4823848 C57.2899729,57.5609756 59.1869919,54.2547425 58.1571816,51.2195122 C58.1571816,51.1111111 42.9810298,4.3902439 42.9810298,4.3902439 Z" id="Shape"></path>
                        <path d="M19.403794,12.0325203 C18.3739837,8.94308943 15.0677507,7.26287263 11.9783198,8.23848238 C8.88888889,9.26829268 7.20867209,12.5745257 8.18428184,15.6639566 L23.4146341,62.4932249 C24.4444444,65.3658537 27.5880759,66.9918699 30.5691057,66.1246612 C33.7127371,65.203252 35.6097561,61.897019 34.5799458,58.8617886 C34.5799458,58.7533875 19.403794,12.0325203 19.403794,12.0325203 Z" id="Shape"></path>
                        <path d="M62.1680217,43.1436314 C65.2574526,42.1138211 66.9376694,38.8075881 65.9620596,35.7181572 C64.9322493,32.6287263 61.6260163,30.9485095 58.5365854,31.9241192 L11.6531165,47.2086721 C8.7804878,48.2384824 7.15447154,51.3821138 8.02168022,54.3631436 C8.94308943,57.5067751 12.2493225,59.403794 15.2845528,58.3739837 C15.3929539,58.3739837 62.1680217,43.1436314 62.1680217,43.1436314 Z" id="Shape"></path>
                        <path d="M21.4092141,56.4227642 C24.4444444,55.4471545 28.401084,54.1463415 32.6287263,52.7913279 C31.6531165,49.7560976 30.3523035,45.799458 28.99729,41.5718157 L17.7777778,45.203252 L21.4092141,56.4227642 Z" id="Shape"></path>
                        <path d="M45.0406504,48.7262873 C49.2682927,47.3712737 53.2249322,46.0704607 56.2601626,45.0948509 C55.2845528,42.0596206 53.9837398,38.102981 52.6287263,33.8753388 L41.4092141,37.5067751 L45.0406504,48.7262873 Z" id="Shape"></path>
                        <path d="M54.4715447,19.5663957 C57.5609756,18.5365854 59.2411924,15.2303523 58.2655827,12.1409214 C57.2357724,9.05149051 53.9295393,7.37127371 50.8401084,8.34688347 L4.01084011,23.5772358 C1.13821138,24.6070461 -0.487804878,27.7506775 0.379403794,30.7317073 C1.30081301,33.8753388 4.60704607,35.7723577 7.64227642,34.7425474 C7.75067751,34.7425474 54.4715447,19.5663957 54.4715447,19.5663957 Z" id="Shape"></path>
                        <path d="M13.7669377,32.7913279 C16.802168,31.8157182 20.7588076,30.5149051 24.9864499,29.1598916 C23.6314363,24.9322493 22.3306233,20.9756098 21.3550136,17.9403794 L10.1355014,21.5718157 L13.7669377,32.7913279 Z" id="Shape"></path>
                        <path d="M37.3441734,25.1490515 C41.5718157,23.7940379 45.5284553,22.4932249 48.5636856,21.5176152 C47.2086721,17.2899729 45.9078591,13.3333333 44.9322493,10.298103 L33.7127371,13.9295393 L37.3441734,25.1490515 Z" id="Shape"></path>
                    </g>
                </g>
            </g>
        </g>
    </g>
</svg>