<?xml version="1.0" encoding="UTF-8"?>
<svg width="14px" height="14px" viewBox="0 0 14 14" version="1.1" xmlns="http://www.w3.org/2000/svg" xmlns:xlink="http://www.w3.org/1999/xlink">
    <!-- Generator: Sketch 51.2 (57519) - http://www.bohemiancoding.com/sketch -->
    <title>Group 12</title>
    <desc>Created with Sketch.</desc>
    <defs></defs>
    <g id="Notifications-and-mentions" stroke="none" stroke-width="1" fill="none" fill-rule="evenodd" opacity="0.5">
        <g id="New-post-mention-menu" transform="translate(-226.000000, -534.000000)" fill="#FFFFFF">
            <g id="Group-3" transform="translate(172.000000, 279.000000)">
                <g id="Group-5-Copy" transform="translate(0.000000, 226.000000)">
                    <g id="Group-4" transform="translate(54.000000, 27.000000)">
                        <g id="Group-12" transform="translate(0.000000, 2.000000)">
                            <polyline id="Fill-9" points="5.67462992 6.41927559 6.26847244 8.19209449 8.11029921 7.5752126 7.51656693 5.8023937 5.67462992 6.41927559"></polyline>
                            <path d="M10.8122765,8.07268593 L9.91914262,8.3717568 L10.2286859,9.29586703 C10.3540245,9.670119 10.1522922,10.0751269 9.77804026,10.2003552 C9.69668593,10.2276938 9.61378829,10.2394891 9.53276467,10.2372844 C9.24085916,10.2297883 8.97166231,10.0426072 8.87366231,9.74981979 L8.564119,8.82559932 L6.72229223,9.44237097 L7.03183554,10.3665914 C7.15717412,10.7407332 6.95544184,11.145741 6.58118987,11.2710796 C6.49983554,11.298308 6.41704813,11.3101033 6.33591428,11.3080088 C6.044119,11.3004025 5.77492215,11.1132214 5.67681191,10.820434 L5.36726861,9.89621349 L4.47402451,10.1953946 C4.39255995,10.2226229 4.30977254,10.2344182 4.22863869,10.2323237 C3.93684341,10.2247174 3.66764656,10.0375363 3.56953632,9.74474892 C3.44419774,9.37049695 3.64604026,8.96559932 4.02018199,8.84026073 L4.91342609,8.54118987 L4.31958357,6.76837097 L3.42644971,7.06744184 C3.34509538,7.09467018 3.26219774,7.10646546 3.18106388,7.10437097 C2.88937884,7.09676467 2.62007176,6.90958357 2.52207176,6.61679617 C2.39673317,6.2425442 2.59846546,5.83764656 2.97271743,5.71230798 L3.86574105,5.41323711 L3.55619774,4.48901664 C3.43085916,4.11487491 3.63259144,3.70997727 4.00684341,3.58452845 C4.38109538,3.4593001 4.78599302,3.66103239 4.91122136,4.03517412 L5.22076467,4.95939459 L7.06259144,4.34262294 L6.75304813,3.41840247 C6.62770955,3.0441505 6.82955207,2.63925286 7.2036938,2.51391428 C7.57783554,2.38857569 7.98284341,2.59041821 8.10818199,2.96455995 L8.4177253,3.88878042 L9.31085916,3.58959932 C9.68522136,3.46437097 10.0900088,3.66610325 10.2153473,4.04024498 C10.3406859,4.41449695 10.1388434,4.81939459 9.76470168,4.94473317 L8.87156782,5.24380404 L9.4653001,7.01673317 L10.3585442,6.71755207 C10.7327962,6.59232372 11.1376938,6.79405601 11.2629222,7.16819774 C11.3882607,7.54233947 11.1865284,7.94734735 10.8122765,8.07268593 Z M13.2080403,4.9977568 C11.7869851,0.261126875 9.73438672,-0.844101472 4.9977568,0.576953646 C0.261126875,1.99800876 -0.844101472,4.05060719 0.576953646,8.78723711 C1.99800876,13.523867 4.05060719,14.6290954 8.78723711,13.2080403 C13.523867,11.7869851 14.6290954,9.73438672 13.2080403,4.9977568 Z" id="Fill-11"></path>
                        </g>
                    </g>
                </g>
            </g>
        </g>
    </g>
</svg>