<?xml version="1.0" encoding="UTF-8"?>
<svg width="40px" height="40px" viewBox="0 0 40 40" version="1.1" xmlns="http://www.w3.org/2000/svg" xmlns:xlink="http://www.w3.org/1999/xlink">
    <!-- Generator: Sketch 50.2 (55047) - http://www.bohemiancoding.com/sketch -->
    <title>Group 3</title>
    <desc>Created with Sketch.</desc>
    <defs></defs>
    <g id="Slack-banner" stroke="none" stroke-width="1" fill="none" fill-rule="evenodd">
        <g id="Slack-enable-prompt-learn-more-modal" transform="translate(-453.000000, -364.000000)" fill="#FB5E48">
            <g id="Group-4" transform="translate(385.000000, 124.000000)">
                <g id="Group-11" transform="translate(68.000000, 184.000000)">
                    <g id="Group-3" transform="translate(0.000000, 56.000000)">
                        <circle id="Oval-8" opacity="0.200000018" cx="20" cy="20" r="20"></circle>
                        <path d="M20,10 C23.0665961,10 25.9026985,11.3759154 27.7777778,13.6076303 L27.7777778,12.2222222 C27.7777778,11.6085725 28.2752392,11.1111111 28.8888889,11.1111111 C29.5025386,11.1111111 30,11.6085725 30,12.2222222 L30,16.6666667 C30,17.2803164 29.5025386,17.7777778 28.8888889,17.7777778 L28.3921576,17.7777778 C28.3543262,17.7797185 28.3165995,17.779699 28.2791147,17.7777778 L24.4444444,17.7777778 C23.8307947,17.7777778 23.3333333,17.2803164 23.3333333,16.6666667 C23.3333333,16.0530169 23.8307947,15.5555556 24.4444444,15.5555556 L26.4753062,15.5555556 C25.0405684,13.5163603 22.6295713,12.2222222 20,12.2222222 C16.0653392,12.2222222 12.7627767,15.160601 12.2820295,19.0297863 C12.2063652,19.6387534 11.6513618,20.0710807 11.0423948,19.9954164 C10.4334277,19.9197521 10.0011004,19.3647487 10.0767647,18.7557816 C10.695364,13.7771245 14.9406265,10 20,10 Z M15.5555556,24.4444444 L13.5258899,24.4444444 C14.9580734,26.4851227 17.3666833,27.7777778 20,27.7777778 C23.928831,27.7777778 27.2282032,24.8479001 27.7160096,20.9858656 C27.7929076,20.3770531 28.3487858,19.9458511 28.9575983,20.0227491 C29.5664108,20.0996471 29.9976127,20.6555253 29.9207148,21.2643378 C29.2930296,26.2338122 25.051878,30 20,30 C16.9298799,30 14.0951306,28.6251662 12.2222222,26.3920728 L12.2222222,27.7777778 C12.2222222,28.3914275 11.7247608,28.8888889 11.1111111,28.8888889 C10.4974614,28.8888889 10,28.3914275 10,27.7777778 L10,23.3333333 C10,22.7196836 10.4974614,22.2222222 11.1111111,22.2222222 L15.5555556,22.2222222 C16.1692053,22.2222222 16.6666667,22.7196836 16.6666667,23.3333333 C16.6666667,23.9469831 16.1692053,24.4444444 15.5555556,24.4444444 Z" id="Combined-Shape" fill-rule="nonzero"></path>
                    </g>
                </g>
            </g>
        </g>
    </g>
</svg>