<?xml version="1.0" encoding="UTF-8"?>
<svg width="71px" height="18px" viewBox="0 0 71 18" version="1.1" xmlns="http://www.w3.org/2000/svg" xmlns:xlink="http://www.w3.org/1999/xlink">
    <!-- Generator: Sketch 52.6 (67491) - http://www.bohemiancoding.com/sketch -->
    <title>Combined Shape</title>
    <desc>Created with Sketch.</desc>
    <g id="Website" stroke="none" stroke-width="1" fill="none" fill-rule="evenodd">
        <g id="Home-(Feb-26)" transform="translate(-1128.000000, -2840.000000)" fill="#32C97B">
            <g id="Group-31" transform="translate(959.000000, 2825.000000)">
                <g id="Group-12" transform="translate(139.000000, 0.000000)">
                    <path d="M52.5070866,29.0173228 L53.3858268,26.976378 C54.3354331,27.6850394 55.5968504,28.0535433 56.8440945,28.0535433 C57.7653543,28.0535433 58.3464567,27.6992126 58.3464567,27.1606299 C58.3322835,25.6582677 52.8330709,26.8346457 52.7905512,23.0645669 C52.776378,21.1511811 54.4771654,19.6771654 56.8866142,19.6771654 C58.3181102,19.6771654 59.7496063,20.0314961 60.7700787,20.8393701 L59.9480315,22.9228346 C59.0125984,22.3275591 57.8503937,21.9023622 56.7448819,21.9023622 C55.9937008,21.9023622 55.4976378,22.2566929 55.4976378,22.7102362 C55.511811,24.184252 61.0535433,23.376378 61.1102362,26.976378 C61.1102362,28.9322835 59.4519685,30.3070866 57.0708661,30.3070866 C55.3275591,30.3070866 53.7259843,29.896063 52.5070866,29.0173228 Z M86.2251969,26.2393701 L88.6488189,27.5858268 C87.7417323,29.215748 86.0125984,30.3070866 84.0141732,30.3070866 C81.080315,30.3070866 78.6992126,27.9259843 78.6992126,24.992126 C78.6992126,22.0582677 81.080315,19.6771654 84.0141732,19.6771654 C85.9984252,19.6771654 87.7417323,20.7826772 88.6488189,22.3984252 L86.2251969,23.7448819 C85.7858268,22.9795276 84.9637795,22.4551181 84.0141732,22.4551181 C82.6110236,22.4551181 81.4771654,23.5889764 81.4771654,24.992126 C81.4771654,26.3952756 82.6110236,27.5291339 84.0141732,27.5291339 C84.9637795,27.5291339 85.7858268,27.0047244 86.2251969,26.2393701 Z M62.3291339,15.2692913 L65.3622047,15.2692913 L65.3622047,30.1086614 L62.3291339,30.1086614 L62.3291339,15.2692913 Z M89.8393701,15.2692913 L92.8724409,15.2692913 L92.8724409,23.9858268 L96.3023622,19.8897638 L100.015748,19.8897638 L95.7779528,24.8220472 L100.355906,30.1086614 L96.4724409,30.1086614 L92.8724409,25.6582677 L92.8724409,30.1086614 L89.8393701,30.1086614 L89.8393701,15.2692913 Z M74.376378,26.2677165 L74.376378,23.7590551 C73.9370079,23.0220472 73.0299213,22.4551181 72.0094488,22.4551181 C70.6062992,22.4551181 69.4724409,23.5889764 69.4724409,24.992126 C69.4724409,26.3952756 70.6062992,27.5291339 72.0094488,27.5291339 C73.0299213,27.5291339 73.9370079,26.9905512 74.376378,26.2677165 Z M74.376378,19.8897638 L77.4094488,19.8897638 L77.4094488,30.0944882 L74.376378,30.0944882 L74.376378,28.8897638 C73.880315,29.7259843 72.6472441,30.3070866 71.3574803,30.3070866 C68.6929134,30.3070866 66.5952756,27.9259843 66.5952756,24.9779528 C66.5952756,22.0299213 68.6929134,19.6771654 71.3574803,19.6771654 C72.6472441,19.6771654 73.880315,20.2582677 74.376378,21.0944882 L74.376378,19.8897638 Z M33.7559055,26.2535433 C33.7559055,27.288189 32.919685,28.1244094 31.8850394,28.1244094 C30.8503937,28.1244094 30.0141732,27.288189 30.0141732,26.2535433 C30.0141732,25.2188976 30.8503937,24.3826772 31.8850394,24.3826772 L33.7559055,24.3826772 L33.7559055,26.2535433 Z M34.6913386,26.2535433 C34.6913386,25.2188976 35.5275591,24.3826772 36.5622047,24.3826772 C37.5968504,24.3826772 38.4330709,25.2188976 38.4330709,26.2535433 L38.4330709,30.9307087 C38.4330709,31.9653543 37.5968504,32.8015748 36.5622047,32.8015748 C35.5275591,32.8015748 34.6913386,31.9653543 34.6913386,30.9307087 L34.6913386,26.2535433 Z M36.5622047,18.7417323 C35.5275591,18.7417323 34.6913386,17.9055118 34.6913386,16.8708661 C34.6913386,15.8362205 35.5275591,15 36.5622047,15 C37.5968504,15 38.4330709,15.8362205 38.4330709,16.8708661 L38.4330709,18.7417323 L36.5622047,18.7417323 Z M36.5622047,19.6913386 C37.5968504,19.6913386 38.4330709,20.5275591 38.4330709,21.5622047 C38.4330709,22.5968504 37.5968504,23.4330709 36.5622047,23.4330709 L31.8708661,23.4330709 C30.8362205,23.4330709 30,22.5968504 30,21.5622047 C30,20.5275591 30.8362205,19.6913386 31.8708661,19.6913386 L36.5622047,19.6913386 Z M44.0598425,21.5622047 C44.0598425,20.5275591 44.896063,19.6913386 45.9307087,19.6913386 C46.9653543,19.6913386 47.8015748,20.5275591 47.8015748,21.5622047 C47.8015748,22.5968504 46.9653543,23.4330709 45.9307087,23.4330709 L44.0598425,23.4330709 L44.0598425,21.5622047 Z M43.1244094,21.5622047 C43.1244094,22.5968504 42.288189,23.4330709 41.2535433,23.4330709 C40.2188976,23.4330709 39.3826772,22.5968504 39.3826772,21.5622047 L39.3826772,16.8708661 C39.3826772,15.8362205 40.2188976,15 41.2535433,15 C42.288189,15 43.1244094,15.8362205 43.1244094,16.8708661 L43.1244094,21.5622047 Z M41.2535433,29.0598425 C42.288189,29.0598425 43.1244094,29.896063 43.1244094,30.9307087 C43.1244094,31.9653543 42.288189,32.8015748 41.2535433,32.8015748 C40.2188976,32.8015748 39.3826772,31.9653543 39.3826772,30.9307087 L39.3826772,29.0598425 L41.2535433,29.0598425 Z M41.2535433,28.1244094 C40.2188976,28.1244094 39.3826772,27.288189 39.3826772,26.2535433 C39.3826772,25.2188976 40.2188976,24.3826772 41.2535433,24.3826772 L45.9448819,24.3826772 C46.9795276,24.3826772 47.815748,25.2188976 47.815748,26.2535433 C47.815748,27.288189 46.9795276,28.1244094 45.9448819,28.1244094 L41.2535433,28.1244094 Z" id="Combined-Shape"></path>
                </g>
            </g>
        </g>
    </g>
</svg>