<?xml version="1.0" encoding="UTF-8"?>
<svg width="18px" height="18px" viewBox="0 0 18 18" version="1.1" xmlns="http://www.w3.org/2000/svg" xmlns:xlink="http://www.w3.org/1999/xlink">
    <!-- Generator: Sketch 52.5 (67469) - http://www.bohemiancoding.com/sketch -->
    <title>Group</title>
    <desc>Created with Sketch.</desc>
    <g id="Website" stroke="none" stroke-width="1" fill="none" fill-rule="evenodd">
        <g id="Home-(Dec.-20)" transform="translate(-1211.000000, -1924.000000)" fill="#34414F">
            <g id="Group-31" transform="translate(958.000000, 1878.000000)">
                <g id="Group-28" transform="translate(0.000000, 31.000000)">
                    <g id="Group-33">
                        <g id="Group-29" transform="translate(253.000000, 13.000000)">
                            <g id="Group" transform="translate(0.000000, 2.000000)">
                                <polyline id="Fill-9" points="7.5 8.27442569 8.23143245 10.5 10.5 9.72557431 9.76870333 7.5 7.5 8.27442569"></polyline>
                                <path d="M14.3359161,10.6036172 L13.1201112,11.0099859 L13.5414862,12.2656398 C13.7121071,12.7741624 13.437493,13.3244753 12.9280314,13.4946319 C12.8172854,13.5317787 12.7044385,13.5478058 12.5941427,13.5448101 C12.1967777,13.5346247 11.8303255,13.2802885 11.6969201,12.8824575 L11.2755451,11.6266538 L8.76830377,12.4647051 L9.18967878,13.7205088 C9.36029964,14.2288816 9.08568559,14.7791944 8.576224,14.9495008 C8.465478,14.9864979 8.35278119,15.002525 8.24233532,14.999679 C7.84512035,14.9893438 7.47866815,14.7350076 7.34511268,14.3371767 L6.92373768,13.081373 L5.70778266,13.4878915 C5.5968866,13.5248886 5.4841898,13.5409157 5.37374393,13.5380697 C4.97652895,13.5277345 4.61007676,13.2733983 4.47652129,12.8755674 C4.30590042,12.3670448 4.58066454,11.8168817 5.08997607,11.6465753 L6.30593109,11.2402066 L5.49754534,8.83135228 L4.28174039,9.237721 C4.17099439,9.27471808 4.05814753,9.29074516 3.94770166,9.28789923 C3.55063674,9.27756401 3.18403449,9.02322781 3.05062908,8.62539688 C2.88000822,8.11687427 3.15462227,7.56671123 3.66408386,7.39640484 L4.87973875,6.99003612 L4.45836375,5.73423243 C4.28774288,5.22585961 4.56235694,4.67569657 5.07181853,4.50524039 C5.58128012,4.33508379 6.13245904,4.6091917 6.30292984,5.11756452 L6.72430485,6.3733682 L9.23154617,5.53531696 L8.81017116,4.27951328 C8.6395503,3.77099067 8.91431441,3.22082763 9.42362594,3.05052124 C9.93293747,2.88021485 10.4842665,3.15447255 10.6548873,3.66284537 L11.0762623,4.91864905 L12.2920673,4.51213054 C12.8016789,4.34197393 13.3527078,4.61608185 13.5233287,5.12445466 C13.6939495,5.63297727 13.4191854,6.18314031 12.9098739,6.3534467 L11.6940689,6.75981543 L12.5023046,9.16881956 L13.7182596,8.76230105 C14.2277212,8.59214444 14.7789001,8.86625235 14.9493709,9.37462517 C15.1199918,9.88299799 14.8453777,10.4333108 14.3359161,10.6036172 Z M17.2466326,6.52590947 C15.3910647,0.340971042 12.7108479,-1.10220045 6.52590947,0.753367444 C0.340971042,2.60893534 -1.10220045,5.2891521 0.753367444,11.4740905 C2.60893534,17.659029 5.2891521,19.1022005 11.4740905,17.2466326 C17.659029,15.3910647 19.1022005,12.7108479 17.2466326,6.52590947 Z" id="Fill-11"></path>
                            </g>
                        </g>
                    </g>
                </g>
            </g>
        </g>
    </g>
</svg>