<?xml version="1.0" encoding="UTF-8"?>
<svg width="40px" height="40px" viewBox="0 0 40 40" version="1.1" xmlns="http://www.w3.org/2000/svg" xmlns:xlink="http://www.w3.org/1999/xlink">
    <!-- Generator: Sketch 50.2 (55047) - http://www.bohemiancoding.com/sketch -->
    <title>Group 2</title>
    <desc>Created with Sketch.</desc>
    <defs></defs>
    <g id="Slack-banner" stroke="none" stroke-width="1" fill="none" fill-rule="evenodd">
        <g id="Slack-enable-prompt-learn-more-modal" transform="translate(-453.000000, -308.000000)" fill="#FB5E48">
            <g id="Group-4" transform="translate(385.000000, 124.000000)">
                <g id="Group-11" transform="translate(68.000000, 184.000000)">
                    <g id="Group-2">
                        <circle id="Oval-8" opacity="0.200000018" cx="20" cy="20" r="20"></circle>
                        <path d="M14.543307,22.9095531 C12.0352389,22.9095531 10,20.9020399 10,18.432144 C10,15.9605952 12.0365983,13.9547349 14.543307,13.9547349 L22.4522261,13.9547349 L25.9957182,11.1806954 C26.9867365,10.4134171 28.1818182,10.9858057 28.1818182,12.2259074 L28.1818182,16.6411804 C29.1859723,16.6411804 30,17.4430221 30,18.432144 C30,19.4212659 29.1859723,20.2231076 28.1818182,20.2231076 L28.1818182,24.6563077 C28.1818182,25.8969773 26.987187,26.4702398 25.9989547,25.701221 L22.4036109,22.9095531 L21.161065,22.9095531 L22.2339033,27.186351 C22.4961075,28.2316102 21.7564531,29.1666667 20.6606864,29.1666667 L17.9330636,29.1666667 C17.0133184,29.1666667 16.1437801,28.4946839 15.9233537,27.6159691 L14.7427452,22.9095531 L14.543307,22.9095531 Z M17.6884488,27.186351 C17.7084711,27.2661683 17.8502078,27.375703 17.9330636,27.3869621 L20.4113492,27.3869621 L19.2881981,22.9095531 L16.6156104,22.9095531 L17.6884488,27.186351 Z M15.9103455,19.3276258 C15.4075756,19.3276258 15,18.9301529 15,18.432144 C15,17.937583 15.4061557,17.5366622 15.9103455,17.5366622 L19.0909091,17.5366622 L19.0909091,15.7456985 L14.543307,15.7456985 C13.0407016,15.7456985 11.8181818,16.9497671 11.8181818,18.432144 C11.8181818,19.9134655 13.0399497,21.1185894 14.543307,21.1185894 L19.0909091,21.1185894 L19.0909091,19.3276258 L15.9103455,19.3276258 Z M26.3636364,13.1922308 L23.2890543,15.5542533 C23.1288647,15.6782772 22.9310219,15.7456985 22.7272727,15.7456985 L20.9090909,15.7456985 L20.9090909,21.1185894 L22.7272727,21.1185894 C22.9317917,21.1185894 23.1303359,21.1865204 23.290818,21.3114037 L26.3655133,23.7040581 L26.3645824,18.4904716 C26.3639533,18.4711052 26.3636364,18.451661 26.3636364,18.432144 C26.3636364,18.4128424 26.3639463,18.393612 26.3645617,18.3744576 L26.3636364,13.1922308 Z" id="Megaphone-Copy"></path>
                    </g>
                </g>
            </g>
        </g>
    </g>
</svg>