<?xml version="1.0" encoding="UTF-8"?>
<svg width="16px" height="16px" viewBox="0 0 16 16" version="1.1" xmlns="http://www.w3.org/2000/svg" xmlns:xlink="http://www.w3.org/1999/xlink">
    <!-- Generator: Sketch 52 (66869) - http://www.bohemiancoding.com/sketch -->
    <title>Group 69</title>
    <desc>Created with Sketch.</desc>
    <g id="Website" stroke="none" stroke-width="1" fill="none" fill-rule="evenodd">
        <g id="Slack-lander-/-grid" transform="translate(-1286.000000, -52.000000)" fill="#FB5E48">
            <g id="Login-/-get-started" transform="translate(1199.000000, 40.000000)">
                <g id="Group-70" transform="translate(87.000000, 11.000000)">
                    <g id="Group-69" transform="translate(0.000000, 1.000000)">
                        <polyline id="Fill-9" points="6.48529134 7.33631496 7.1639685 9.3623937 9.26891339 8.65738583 8.5903622 6.63130709 6.48529134 7.33631496"></polyline>
                        <path d="M12.3569134,9.3456378 L11.336189,9.68743307 L11.6899528,10.7435591 C11.8331969,11.1712756 11.6026457,11.6341417 11.1749291,11.7772598 C11.0819528,11.8085039 10.9872126,11.8219843 10.8946142,11.8194646 C10.5610079,11.8108976 10.2533543,11.5969764 10.1413543,11.2623622 L9.78759055,10.2061102 L7.68264567,10.9109921 L8.03640945,11.9672441 C8.17965354,12.3948346 7.94910236,12.8577008 7.52138583,13.0009449 C7.42840945,13.032063 7.33379528,13.0455433 7.24107087,13.0431496 C6.90759055,13.0344567 6.59993701,12.8205354 6.48781102,12.4859213 L6.13404724,11.4296693 L5.11319685,11.7715906 C5.02009449,11.8027087 4.92548031,11.816189 4.83275591,11.8137953 C4.49927559,11.8051024 4.19162205,11.5911811 4.07949606,11.2565669 C3.93625197,10.8288504 4.16692913,10.3661102 4.59451969,10.2228661 L5.61537008,9.88107087 L4.93669291,7.85499213 L3.9159685,8.1967874 C3.82299213,8.22790551 3.72825197,8.24138583 3.63552756,8.23899213 C3.30217323,8.23029921 2.9943937,8.01637795 2.8823937,7.68176378 C2.73914961,7.25404724 2.96970079,6.79130709 3.39741732,6.64806299 L4.41801575,6.30626772 L4.06425197,5.25001575 C3.92100787,4.8224252 4.15155906,4.35968504 4.57927559,4.21631496 C5.00699213,4.07319685 5.46973228,4.30374803 5.61285039,4.73133858 L5.96661417,5.78759055 L8.07155906,5.08270866 L7.71779528,4.02645669 C7.57455118,3.59874016 7.80522835,3.136 8.2328189,2.99275591 C8.66040945,2.84951181 9.12327559,3.08018898 9.26651969,3.50777953 L9.62028346,4.5640315 L10.6410079,4.22211024 C11.0688504,4.07899213 11.5314646,4.30954331 11.6747087,4.73713386 C11.8179528,5.16485039 11.5872756,5.62759055 11.159685,5.77083465 L10.1389606,6.11262992 L10.8175118,8.13883465 L11.8383622,7.79691339 C12.2660787,7.65379528 12.7288189,7.88434646 12.871937,8.31193701 C13.0151811,8.73952756 12.7846299,9.2023937 12.3569134,9.3456378 Z M15.0949291,5.83143307 C13.4708661,0.418141732 11.1250394,-0.844976378 5.71174803,0.779086614 C0.298456693,2.40314961 -0.964661417,4.74897638 0.659401575,10.1622677 C2.28346457,15.5755591 4.62929134,16.8386772 10.0425827,15.2146142 C15.455874,13.5905512 16.7189921,11.2447244 15.0949291,5.83143307 Z" id="Fill-11"></path>
                    </g>
                </g>
            </g>
        </g>
    </g>
</svg>