<?xml version="1.0" encoding="UTF-8"?>
<svg width="16px" height="16px" viewBox="0 0 16 16" version="1.1" xmlns="http://www.w3.org/2000/svg" xmlns:xlink="http://www.w3.org/1999/xlink">
    <!-- Generator: Sketch 50.2 (55047) - http://www.bohemiancoding.com/sketch -->
    <title>Group</title>
    <desc>Created with Sketch.</desc>
    <defs></defs>
    <g id="➡️-Boards-&amp;-Posts" stroke="none" stroke-width="1" fill="none" fill-rule="evenodd">
        <g id="System-Notifications-Guide" transform="translate(-157.000000, -609.000000)" fill="#FFFFFF" fill-rule="nonzero">
            <g id="Group-4" transform="translate(141.000000, 593.000000)">
                <g id="Slack_Mark_Monochrome_White" transform="translate(16.000000, 16.000000)">
                    <g id="Group">
                        <rect id="Rectangle-path" transform="translate(8.037872, 7.974055) rotate(-18.518296) translate(-8.037872, -7.974055) " x="6.92043769" y="6.89471489" width="2.23486811" height="2.15867943"></rect>
                        <path d="M15.3142857,5.77777778 C13.6761905,0.317460317 11.3142857,-0.952380952 5.85396825,0.685714286 C0.393650794,2.32380952 -0.876190476,4.68571429 0.761904762,10.1460317 C2.4,15.6063492 4.76190476,16.8761905 10.2222222,15.2380952 C15.6825397,13.6 16.952381,11.2380952 15.3142857,5.77777778 Z M12.5587302,9.32063492 L11.5301587,9.66349206 L11.8857143,10.7301587 C12.0253968,11.1619048 11.7968254,11.631746 11.3650794,11.7714286 C11.2761905,11.7968254 11.1746032,11.8222222 11.0857143,11.8095238 C10.7555556,11.7968254 10.4380952,11.5809524 10.3238095,11.2507937 L9.96825397,10.184127 L7.84761905,10.8952381 L8.2031746,11.9619048 C8.34285714,12.3936508 8.11428571,12.8634921 7.68253968,13.0031746 C7.59365079,13.0285714 7.49206349,13.0539683 7.4031746,13.0412698 C7.07301587,13.0285714 6.75555556,12.8126984 6.64126984,12.4825397 L6.28571429,11.415873 L5.25714286,11.7587302 C5.16825397,11.784127 5.06666667,11.8095238 4.97777778,11.7968254 C4.64761905,11.784127 4.33015873,11.568254 4.21587302,11.2380952 C4.07619048,10.8063492 4.3047619,10.3365079 4.73650794,10.1968254 L5.76507937,9.85396825 L5.07936508,7.80952381 L4.05079365,8.15238095 C3.96190476,8.17777778 3.86031746,8.2031746 3.77142857,8.19047619 C3.44126984,8.17777778 3.12380952,7.96190476 3.00952381,7.63174603 C2.86984127,7.2 3.0984127,6.73015873 3.53015873,6.59047619 L4.55873016,6.24761905 L4.2031746,5.18095238 C4.06349206,4.74920635 4.29206349,4.27936508 4.72380952,4.13968254 C5.15555556,4 5.62539683,4.22857143 5.76507937,4.66031746 L6.12063492,5.72698413 L8.24126984,5.01587302 L7.88571429,3.94920635 C7.74603175,3.51746032 7.97460317,3.04761905 8.40634921,2.90793651 C8.83809524,2.76825397 9.30793651,2.9968254 9.44761905,3.42857143 L9.8031746,4.4952381 L10.831746,4.15238095 C11.2634921,4.01269841 11.7333333,4.24126984 11.8730159,4.67301587 C12.0126984,5.1047619 11.784127,5.57460317 11.352381,5.71428571 L10.3238095,6.05714286 L11.0095238,8.1015873 L12.0380952,7.75873016 C12.4698413,7.61904762 12.9396825,7.84761905 13.0793651,8.27936508 C13.2190476,8.71111111 12.9904762,9.18095238 12.5587302,9.32063492 Z" id="Shape"></path>
                    </g>
                </g>
            </g>
        </g>
    </g>
</svg>