<?xml version="1.0" encoding="UTF-8"?>
<svg width="24px" height="24px" viewBox="0 0 24 24" version="1.1" xmlns="http://www.w3.org/2000/svg" xmlns:xlink="http://www.w3.org/1999/xlink">
    <!-- Generator: Sketch 52.6 (67491) - http://www.bohemiancoding.com/sketch -->
    <title>Slack icon</title>
    <desc>Created with Sketch.</desc>
    <g id="Website-2.0" stroke="none" stroke-width="1" fill="none" fill-rule="evenodd">
        <g id="Slack-sign-up-(Sept)" transform="translate(-1105.000000, -33.000000)" fill="#6833F1">
            <g id="Group-45" transform="translate(100.000000, 30.000000)">
                <g id="Slack-icon" transform="translate(1005.000000, 3.000000)">
                    <path d="M5.10967742,15.1354839 C5.10967742,16.5096774 3.98709677,17.6322581 2.61290323,17.6322581 C1.23870968,17.6322581 0.116129032,16.5096774 0.116129032,15.1354839 C0.116129032,13.7612903 1.23870968,12.6387097 2.61290323,12.6387097 L5.10967742,12.6387097 L5.10967742,15.1354839 Z" id="Path"></path>
                    <path d="M6.36774194,15.1354839 C6.36774194,13.7612903 7.49032258,12.6387097 8.86451613,12.6387097 C10.2387097,12.6387097 11.3612903,13.7612903 11.3612903,15.1354839 L11.3612903,21.3870968 C11.3612903,22.7612903 10.2387097,23.883871 8.86451613,23.883871 C7.49032258,23.883871 6.36774194,22.7612903 6.36774194,21.3870968 L6.36774194,15.1354839 Z" id="Path"></path>
                    <path d="M8.86451613,5.10967742 C7.49032258,5.10967742 6.36774194,3.98709677 6.36774194,2.61290323 C6.36774194,1.23870968 7.49032258,0.116129032 8.86451613,0.116129032 C10.2387097,0.116129032 11.3612903,1.23870968 11.3612903,2.61290323 L11.3612903,5.10967742 L8.86451613,5.10967742 Z" id="Path"></path>
                    <path d="M8.86451613,6.36774194 C10.2387097,6.36774194 11.3612903,7.49032258 11.3612903,8.86451613 C11.3612903,10.2387097 10.2387097,11.3612903 8.86451613,11.3612903 L2.61290323,11.3612903 C1.23870968,11.3612903 0.116129032,10.2387097 0.116129032,8.86451613 C0.116129032,7.49032258 1.23870968,6.36774194 2.61290323,6.36774194 L8.86451613,6.36774194 Z" id="Path"></path>
                    <path d="M18.8903226,8.86451613 C18.8903226,7.49032258 20.0129032,6.36774194 21.3870968,6.36774194 C22.7612903,6.36774194 23.883871,7.49032258 23.883871,8.86451613 C23.883871,10.2387097 22.7612903,11.3612903 21.3870968,11.3612903 L18.8903226,11.3612903 L18.8903226,8.86451613 Z" id="Path"></path>
                    <path d="M17.6322581,8.86451613 C17.6322581,10.2387097 16.5096774,11.3612903 15.1354839,11.3612903 C13.7612903,11.3612903 12.6387097,10.2387097 12.6387097,8.86451613 L12.6387097,2.61290323 C12.6387097,1.23870968 13.7612903,0.116129032 15.1354839,0.116129032 C16.5096774,0.116129032 17.6322581,1.23870968 17.6322581,2.61290323 L17.6322581,8.86451613 Z" id="Path"></path>
                    <path d="M15.1354839,18.8903226 C16.5096774,18.8903226 17.6322581,20.0129032 17.6322581,21.3870968 C17.6322581,22.7612903 16.5096774,23.883871 15.1354839,23.883871 C13.7612903,23.883871 12.6387097,22.7612903 12.6387097,21.3870968 L12.6387097,18.8903226 L15.1354839,18.8903226 Z" id="Path"></path>
                    <path d="M15.1354839,17.6322581 C13.7612903,17.6322581 12.6387097,16.5096774 12.6387097,15.1354839 C12.6387097,13.7612903 13.7612903,12.6387097 15.1354839,12.6387097 L21.3870968,12.6387097 C22.7612903,12.6387097 23.883871,13.7612903 23.883871,15.1354839 C23.883871,16.5096774 22.7612903,17.6322581 21.3870968,17.6322581 L15.1354839,17.6322581 Z" id="Path"></path>
                </g>
            </g>
        </g>
    </g>
</svg>