<?xml version="1.0" encoding="UTF-8"?>
<svg width="67px" height="16px" viewBox="0 0 67 16" version="1.1" xmlns="http://www.w3.org/2000/svg" xmlns:xlink="http://www.w3.org/1999/xlink">
    <!-- Generator: Sketch 52.6 (67491) - http://www.bohemiancoding.com/sketch -->
    <title>Group 19</title>
    <desc>Created with Sketch.</desc>
    <g id="Website" stroke="none" stroke-width="1" fill="none" fill-rule="evenodd">
        <g id="Home-(Feb-26)" transform="translate(-991.000000, -2841.000000)" fill="#34414F">
            <g id="Group-31" transform="translate(959.000000, 2825.000000)">
                <g id="Group-16">
                    <g id="Group-19" transform="translate(32.000000, 14.000000)">
                        <text id="Email" font-family="Avenir-Heavy, Avenir" font-size="16" font-weight="600">
                            <tspan x="27" y="16">Email</tspan>
                        </text>
                        <path d="M0.886016671,10.9585891 C-0.329112332,10.31618 -0.288772077,9.35149982 0.972507809,8.80547912 L16.2486499,2.19228431 C17.5115466,1.64556363 18.2594347,2.3037932 17.9169321,3.67115412 L14.6894353,16.5561767 C14.3479054,17.9196546 13.1385073,18.4031217 11.9861308,17.6346716 L10.2076995,16.4487434 C9.20116293,15.7775451 7.78996508,16.0237571 7.05536123,16.9991242 L7.22996552,16.7672941 C6.4955137,17.7424593 5.58471004,17.5860828 5.19832,16.4260971 L4.71345221,14.9704702 C4.26946725,13.6375782 2.92700541,12.0376102 1.70936054,11.393871 L0.886016671,10.9585891 Z M6.85694157,14.5734227 L6.70220216,15.050126 C7.02670978,14.0504204 7.85754498,12.6205891 8.55865026,11.8542722 L13.43827,6.52078737 C14.3765759,5.49520739 14.2284702,5.32600829 13.1088509,6.14135744 L5.62886388,11.5885676 C5.34636536,11.7942937 5.19000102,12.2356166 5.27843945,12.5751456 L5.78822679,14.5322992 C6.05334057,15.5501125 6.53275899,15.5721271 6.85694157,14.5734227 Z" id="Shape" fill-rule="nonzero"></path>
                    </g>
                </g>
            </g>
        </g>
    </g>
</svg>