<?xml version="1.0" encoding="UTF-8"?>
<svg width="16px" height="16px" viewBox="0 0 16 16" version="1.1" xmlns="http://www.w3.org/2000/svg" xmlns:xlink="http://www.w3.org/1999/xlink">
    <!-- Generator: Sketch 52.6 (67491) - http://www.bohemiancoding.com/sketch -->
    <title>Combined Shape</title>
    <desc>Created with Sketch.</desc>
    <g id="Website" stroke="none" stroke-width="1" fill="none" fill-rule="evenodd">
        <g id="Home-(Slack-sign-in)" transform="translate(-1225.000000, -52.000000)" fill="#FB5E48">
            <g id="Group-5" transform="translate(1204.000000, 40.000000)">
                <g id="Group-7" transform="translate(21.000000, 11.000000)">
                    <path d="M3.36156352,11.1107492 C3.36156352,12.0358306 2.60586319,12.7915309 1.68078176,12.7915309 C0.755700326,12.7915309 3.04201109e-13,12.0358306 3.04201109e-13,11.1107492 C3.04201109e-13,10.1856678 0.755700326,9.42996743 1.68078176,9.42996743 L3.36156352,9.42996743 L3.36156352,11.1107492 Z M4.20846906,11.1107492 C4.20846906,10.1856678 4.96416938,9.42996743 5.88925081,9.42996743 C6.81433225,9.42996743 7.57003257,10.1856678 7.57003257,11.1107492 L7.57003257,15.3192182 C7.57003257,16.2442997 6.81433225,17 5.88925081,17 C4.96416938,17 4.20846906,16.2442997 4.20846906,15.3192182 L4.20846906,11.1107492 Z M5.88925081,4.36156352 C4.96416938,4.36156352 4.20846906,3.60586319 4.20846906,2.68078176 C4.20846906,1.75570033 4.96416938,1 5.88925081,1 C6.81433225,1 7.57003257,1.75570033 7.57003257,2.68078176 L7.57003257,4.36156352 L5.88925081,4.36156352 Z M5.88925081,5.20846906 C6.81433225,5.20846906 7.57003257,5.96416938 7.57003257,6.88925081 C7.57003257,7.81433225 6.81433225,8.57003257 5.88925081,8.57003257 L1.68078176,8.57003257 C0.755700326,8.57003257 -6.80788759e-13,7.81433225 -6.80788759e-13,6.88925081 C-6.80788759e-13,5.96416938 0.755700326,5.20846906 1.68078176,5.20846906 L5.88925081,5.20846906 Z M12.6384365,6.88925081 C12.6384365,5.96416938 13.3941368,5.20846906 14.3192182,5.20846906 C15.2442997,5.20846906 16,5.96416938 16,6.88925081 C16,7.81433225 15.2442997,8.57003257 14.3192182,8.57003257 L12.6384365,8.57003257 L12.6384365,6.88925081 Z M11.7915309,6.88925081 C11.7915309,7.81433225 11.0358306,8.57003257 10.1107492,8.57003257 C9.18566775,8.57003257 8.42996743,7.81433225 8.42996743,6.88925081 L8.42996743,2.68078176 C8.42996743,1.75570033 9.18566775,1 10.1107492,1 C11.0358306,1 11.7915309,1.75570033 11.7915309,2.68078176 L11.7915309,6.88925081 Z M10.1107492,13.6384365 C11.0358306,13.6384365 11.7915309,14.3941368 11.7915309,15.3192182 C11.7915309,16.2442997 11.0358306,17 10.1107492,17 C9.18566775,17 8.42996743,16.2442997 8.42996743,15.3192182 L8.42996743,13.6384365 L10.1107492,13.6384365 Z M10.1107492,12.7915309 C9.18566775,12.7915309 8.42996743,12.0358306 8.42996743,11.1107492 C8.42996743,10.1856678 9.18566775,9.42996743 10.1107492,9.42996743 L14.3192182,9.42996743 C15.2442997,9.42996743 16,10.1856678 16,11.1107492 C16,12.0358306 15.2442997,12.7915309 14.3192182,12.7915309 L10.1107492,12.7915309 Z" id="Combined-Shape"></path>
                </g>
            </g>
        </g>
    </g>
</svg>