<?xml version="1.0" encoding="UTF-8"?>
<svg width="16px" height="16px" viewBox="0 0 16 16" version="1.1" xmlns="http://www.w3.org/2000/svg" xmlns:xlink="http://www.w3.org/1999/xlink">
    <!-- Generator: Sketch 52.6 (67491) - http://www.bohemiancoding.com/sketch -->
    <title>Combined Shape</title>
    <desc>Created with Sketch.</desc>
    <g id="Dark-mode" stroke="none" stroke-width="1" fill="none" fill-rule="evenodd" opacity="0.600000024">
        <g id="Dark-mode:-Expanded-post-page" transform="translate(-600.000000, -20.000000)" fill="#FFFFFF">
            <g id="Primary-nav">
                <g id="Search">
                    <g transform="translate(520.000000, 12.000000)">
                        <g id="Group" transform="translate(80.000000, 7.000000)">
                            <path d="M15.7437792,15.502211 C16.0851125,15.8435443 16.0862736,16.3957939 15.7410338,16.7410338 C15.3981842,17.0838834 14.8441019,17.0856702 14.502211,16.7437792 L10.5781816,12.8197499 C9.47042153,13.6660905 8.08612502,14.1688197 6.58440983,14.1688197 C2.9479407,14.1688197 0,11.220879 0,7.58440983 C0,3.9479407 2.9479407,1 6.58440983,1 C10.220879,1 13.1688197,3.9479407 13.1688197,7.58440983 C13.1688197,9.08612502 12.6660905,10.4704215 11.8197499,11.5781816 L15.7437792,15.502211 Z M6.58440983,12.412977 C9.25115387,12.412977 11.412977,10.2511539 11.412977,7.58440983 C11.412977,4.9176658 9.25115387,2.75584262 6.58440983,2.75584262 C3.9176658,2.75584262 1.75584262,4.9176658 1.75584262,7.58440983 C1.75584262,10.2511539 3.9176658,12.412977 6.58440983,12.412977 Z" id="Combined-Shape"></path>
                        </g>
                    </g>
                </g>
            </g>
        </g>
    </g>
</svg>