<?xml version="1.0" encoding="UTF-8"?>
<svg width="14px" height="12px" viewBox="0 0 14 12" version="1.1" xmlns="http://www.w3.org/2000/svg" xmlns:xlink="http://www.w3.org/1999/xlink">
    <!-- Generator: Sketch 46.2 (44496) - http://www.bohemiancoding.com/sketch -->
    <title>newspaper</title>
    <desc>Created with Sketch.</desc>
    <defs></defs>
    <g id="August-20th---Navigation-Explorations" stroke="none" stroke-width="1" fill="none" fill-rule="evenodd">
        <g id="Hovers" transform="translate(-33.000000, -422.000000)" fill="#C8C4BB">
            <g id="newspaper" transform="translate(33.000000, 422.000000)">
                <g transform="translate(0.333333, 0.000000)" id="Shape">
                    <path d="M12,5.33333333 L1.33333333,5.33333333 L1.33333333,3.33333333 L12,3.33333333 L12,5.33333333 Z M12,8 L7.33333333,8 L7.33333333,6.66666667 L12,6.66666667 L12,8 Z M12,10.6666667 L7.33333333,10.6666667 L7.33333333,9.33333333 L12,9.33333333 L12,10.6666667 Z M6,10.6666667 L1.33333333,10.6666667 L1.33333333,6.66666667 L6,6.66666667 L6,10.6666667 Z M12.22,1.11333333 L11.1133333,0 L10,1.11333333 L8.88666667,0 L7.78,1.11333333 L6.66666667,0 L5.55333333,1.11333333 L4.44666667,0 L3.33333333,1.11333333 L2.22,0 L1.11333333,1.11333333 L0,0 L0,10.6666667 C0,11.4030463 0.596953667,12 1.33333333,12 L12,12 C12.7363797,12 13.3333333,11.4030463 13.3333333,10.6666667 L13.3333333,0 L12.22,1.11333333 Z" fill-rule="nonzero"></path>
                </g>
            </g>
        </g>
    </g>
</svg>