<?xml version="1.0" encoding="UTF-8"?>
<svg width="14px" height="16px" viewBox="0 0 14 16" version="1.1" xmlns="http://www.w3.org/2000/svg" xmlns:xlink="http://www.w3.org/1999/xlink">
    <!-- Generator: Sketch 50.2 (55047) - http://www.bohemiancoding.com/sketch -->
    <title>Combined Shape</title>
    <desc>Created with Sketch.</desc>
    <defs></defs>
    <g id="Content-density-exploration" stroke="none" stroke-width="1" fill="none" fill-rule="evenodd">
        <g id="Icon/button-updates-states" transform="translate(-387.000000, -250.000000)" fill="#34414F" fill-rule="nonzero">
            <g id="Group" transform="translate(354.000000, 250.000000)">
                <path d="M35.625,14.3160948 C35.625,14.3169435 44.376383,14.3157895 44.376383,14.3157895 C44.3746891,14.3157895 44.3748614,6.06567192 44.374963,3.36842105 L35.625,3.36842105 L35.625,14.3160948 Z M46.125,14.3160948 C46.125,15.24609 45.3400724,16 44.376383,16 L35.623617,16 C34.6578825,16 33.875,15.2476654 33.875,14.3160948 L33.875,3.36842074 C33.3916802,3.36802804 33,2.99439396 33,2.52631579 C33,2.06123389 33.389052,1.68421053 33.8757627,1.68421053 L38.25,1.68421053 C38.25,0.754046737 39.0335017,0 40,0 C40.9664983,0 41.75,0.754046737 41.75,1.68421053 L46.1242373,1.68421053 C46.6079077,1.68421053 47,2.05799143 47,2.52631579 C47,2.99115472 46.6113544,3.36802711 46.125,3.36842074 L46.125,14.3160948 Z M40.875,5.89266918 C40.875,5.42872922 41.2633817,5.05263158 41.75,5.05263158 C42.2332492,5.05263158 42.625,5.42847276 42.625,5.89266918 L42.625,11.7915414 C42.625,12.2554813 42.2366183,12.6315789 41.75,12.6315789 C41.2667508,12.6315789 40.875,12.2557378 40.875,11.7915414 L40.875,5.89266918 Z M37.375,5.89266918 C37.375,5.42872922 37.7633817,5.05263158 38.25,5.05263158 C38.7332492,5.05263158 39.125,5.42847276 39.125,5.89266918 L39.125,11.7915414 C39.125,12.2554813 38.7366183,12.6315789 38.25,12.6315789 C37.7667508,12.6315789 37.375,12.2557378 37.375,11.7915414 L37.375,5.89266918 Z" id="Combined-Shape"></path>
            </g>
        </g>
    </g>
</svg>