<?xml version="1.0" encoding="UTF-8"?>
<svg width="14px" height="14px" viewBox="0 0 14 14" version="1.1" xmlns="http://www.w3.org/2000/svg" xmlns:xlink="http://www.w3.org/1999/xlink">
    <!-- Generator: Sketch 50.2 (55047) - http://www.bohemiancoding.com/sketch -->
    <title>Combined Shape</title>
    <desc>Created with Sketch.</desc>
    <defs></defs>
    <g id="Content-density-exploration" stroke="none" stroke-width="1" fill="none" fill-rule="evenodd">
        <g id="HOVER" transform="translate(-922.000000, -186.000000)" fill="#C4C6C9" fill-rule="nonzero">
            <g id="Group" transform="translate(824.000000, 185.000000)">
                <path d="M110.444444,3.65549944 L103.216639,10.8833053 C102.912897,11.1870464 102.420436,11.1870464 102.116695,10.8833053 C101.812954,10.5795642 101.812954,10.0871025 102.116695,9.78336139 L109.344501,2.55555556 L107.333333,2.55555556 C106.903779,2.55555556 106.555556,2.20733258 106.555556,1.77777778 C106.555556,1.34822297 106.903779,1 107.333333,1 L111.222222,1 C111.651777,1 112,1.34822297 112,1.77777778 L112,5.66666667 C112,6.09622147 111.651777,6.44444444 111.222222,6.44444444 C110.792667,6.44444444 110.444444,6.09622147 110.444444,5.66666667 L110.444444,3.65549944 Z M110.444444,8.77777778 C110.444444,8.34822297 110.792667,8 111.222222,8 C111.651777,8 112,8.34822297 112,8.77777778 L112,13.4463542 C112,14.305212 111.304904,15 110.444558,15 L99.5554417,15 C98.6959926,15 98,14.3053073 98,13.4445583 L98,2.55544172 C98,1.69675162 98.694996,1 99.5536458,1 L104.222222,1 C104.651777,1 105,1.34822297 105,1.77777778 C105,2.20733258 104.651777,2.55555556 104.222222,2.55555556 L99.5555556,2.55555556 L99.5555556,13.4444444 L110.444444,13.4444444 L110.444444,8.77777778 Z" id="Combined-Shape"></path>
            </g>
        </g>
    </g>
</svg>