<?xml version="1.0" encoding="UTF-8"?>
<svg width="16px" height="16px" viewBox="0 0 16 16" version="1.1" xmlns="http://www.w3.org/2000/svg" xmlns:xlink="http://www.w3.org/1999/xlink">
    <!-- Generator: Sketch 50.2 (55047) - http://www.bohemiancoding.com/sketch -->
    <title>Combined Shape</title>
    <desc>Created with Sketch.</desc>
    <defs></defs>
    <g id="Content-density-exploration" stroke="none" stroke-width="1" fill="none" fill-rule="evenodd">
        <g id="Icon/button-updates-states" transform="translate(-418.000000, -250.000000)" fill="#34414F">
            <g id="Group" transform="translate(354.000000, 250.000000)">
                <path d="M65.6000106,12.1223776 L65.6011963,12.8727771 C66.0209401,12.7288238 66.5045946,12.824366 66.839503,13.1594034 C67.1758683,13.4958982 67.2707431,13.9824936 67.1241277,14.4036628 L67.8665238,14.4055598 L69.1069441,13.1646617 L66.8335721,10.8904141 C66.0869967,11.6360174 65.6000106,12.1223776 65.6000106,12.1223776 Z M74.5339104,3.20094505 L76.8014453,5.46719672 L70.2380365,12.0331336 L67.9656223,9.75984421 C70.6122892,7.11665323 74.5339104,3.20094505 74.5339104,3.20094505 Z M77.2646091,0.469194741 L79.5310751,2.73653362 C80.1557553,3.36145434 80.1565044,4.37390161 79.532144,4.99850245 L68.8168021,15.7179716 C68.661102,15.8737316 68.3571095,16 68.1324417,16 L64.800307,16 C64.3583097,16 64,15.6440617 64,15.1994822 L64,11.8664697 C64,11.6441494 64.1280554,11.3359446 64.2820651,11.1820273 L75.0029288,0.467594363 C75.6273402,-0.156442485 76.6398354,-0.15581956 77.2646091,0.469194741 Z" id="Combined-Shape"></path>
            </g>
        </g>
    </g>
</svg>