<?xml version="1.0" encoding="UTF-8"?>
<svg width="16px" height="12px" viewBox="0 0 16 12" version="1.1" xmlns="http://www.w3.org/2000/svg" xmlns:xlink="http://www.w3.org/1999/xlink">
    <!-- Generator: Sketch 50.2 (55047) - http://www.bohemiancoding.com/sketch -->
    <title>Combined Shape</title>
    <desc>Created with Sketch.</desc>
    <defs></defs>
    <g id="Content-density-exploration" stroke="none" stroke-width="1" fill="none" fill-rule="evenodd">
        <g id="Icon/button-updates-states" transform="translate(-354.000000, -252.000000)" fill="#34414F">
            <g id="Group" transform="translate(354.000000, 250.000000)">
                <path d="M12.2667962,2.37731201 L15.901458,8.94083878 C15.9793494,9.08149625 16.0096905,9.23703822 15.9973317,9.38710424 C15.9989639,9.40796495 15.9997961,9.42907597 15.9997961,9.45040476 C15.9997961,9.86918344 15.6773488,10.2086706 15.2731944,10.2086706 L14.5452118,10.2086706 L14.5452118,11.3460694 C14.5452118,12.8117948 13.4026379,14 12.0016688,14 L11.270418,14 C9.98909937,14 8.92906684,13.0089623 8.75266299,11.7247646 C8.74433386,11.7250557 7.27160025,11.7252024 7.27160025,11.7252024 C7.06985252,13.0111075 6.0068257,14 4.7287476,14 L3.99749683,14 C2.59273677,14 1.45395375,12.8088124 1.45395375,11.3460694 L1.45395375,10.2086706 L0.891764053,10.2086706 C0.718353853,10.2508086 0.529963506,10.2270483 0.363768444,10.1270091 C0.133038912,9.98812412 0.00380467575,9.73983002 4.71923905e-06,9.48261456 C-0.000630485295,9.26452843 0.0628935072,9.09427298 0.168890765,8.96239037 L3.73312223,2.5260477 C3.85534933,2.30532816 4.06727507,2.17259123 4.29275476,2.14909886 C4.55677882,2.03212471 4.8730275,2.08528305 5.08992612,2.31141889 L6.11944892,3.38478678 C6.40320452,3.68062691 6.40496612,4.15844191 6.11896071,4.45662766 C5.83493547,4.7527489 5.37668287,4.75508774 5.09090254,4.45713666 L4.61697886,3.96302962 L1.9981562,8.69213889 L6.54715852,8.69213889 C6.94763795,8.69213889 7.27229068,9.03224393 7.27229068,9.45262597 L7.27229068,10.2086706 L8.72687491,10.2086706 L8.72687491,9.45262597 C8.72687491,9.03262055 9.05216131,8.69213889 9.45200707,8.69213889 L14.0841271,8.69213889 L11.4348813,3.90809096 L10.9082631,4.45713666 C10.6224827,4.75508774 10.1642301,4.7527489 9.88020489,4.45662766 C9.59419948,4.15844191 9.59596107,3.68062691 9.87971668,3.38478678 L10.9092395,2.31141889 C11.0082575,2.20818393 11.1279809,2.1409989 11.2539885,2.10959311 C11.6202558,1.88875394 12.0653508,2.01353882 12.2667962,2.37731201 Z M2.90853798,11.3460694 C2.90853798,11.9728121 3.3975743,12.4834683 3.99749683,12.4834683 L4.7287476,12.4834683 C5.32776306,12.4834683 5.81770645,11.9727875 5.81770645,11.3460694 L5.81770645,10.2086706 L2.90853798,10.2086706 L2.90853798,11.3460694 Z M10.1814591,11.3460694 C10.1814591,11.9728121 10.6704955,12.4834683 11.270418,12.4834683 L12.0016688,12.4834683 C12.6006842,12.4834683 13.0906276,11.9727875 13.0906276,11.3460694 L13.0906276,10.2086706 L10.1814591,10.2086706 L10.1814591,11.3460694 Z" id="Combined-Shape"></path>
            </g>
        </g>
    </g>
</svg>