<?xml version="1.0" encoding="UTF-8"?>
<svg width="16px" height="16px" viewBox="0 0 16 16" version="1.1" xmlns="http://www.w3.org/2000/svg" xmlns:xlink="http://www.w3.org/1999/xlink">
    <!-- Generator: Sketch 52.2 (67145) - http://www.bohemiancoding.com/sketch -->
    <title>Combined Shape</title>
    <desc>Created with Sketch.</desc>
    <g id="Settings" stroke="none" stroke-width="1" fill="none" fill-rule="evenodd">
        <g id="All-post-settings" transform="translate(-85.000000, -645.000000)" fill="#898D93">
            <g id="Group-5" transform="translate(68.000000, 93.000000)">
                <g id="Group-8" transform="translate(0.000000, 546.000000)">
                    <g id="Group-7">
                        <path d="M26.1222783,6 C29.9207391,6 33,9.09330537 33,12.9090909 C33,13.9717427 32.7611856,14.9783621 32.3345302,15.8777429 L32.9639827,18.6886554 C33.1390851,19.4706005 32.6483234,19.961003 31.8687234,19.7842015 L29.0753161,19.1506988 C28.3863334,19.4802387 27.6341783,19.6980466 26.8420686,19.7807988 C25.8484818,21.1226449 24.2531797,21.9926249 22.4545455,21.9926249 C21.5326794,21.9926249 20.6642274,21.7640865 19.9028279,21.3606118 L18.0482329,21.9344567 C17.2788424,22.1725199 16.8449634,21.7418091 17.07961,20.9708835 L17.6446155,19.1145723 C17.2332935,18.3482408 17,17.4722298 17,16.541767 C17,14.7098614 17.9042964,13.0890229 19.2911317,12.1007234 C19.6895991,8.6658303 22.5960332,6 26.1222783,6 Z M28.9053347,17.6209989 L31.367967,18.1889909 L30.8119802,15.7061505 L31.0274243,15.2519985 C31.3712885,14.5271398 31.5520586,13.732467 31.5520586,12.9090909 C31.5520586,9.89662864 29.1210632,7.45454545 26.1222783,7.45454545 C23.6786702,7.45454545 21.6120781,9.07610522 20.9306392,11.3064895 C21.4142698,11.166144 21.9256156,11.0909091 22.4545455,11.0909091 C25.4670077,11.0909091 27.9090909,13.5313413 27.9090909,16.541767 C27.9090909,17.097495 27.8258706,17.6337989 27.6712045,18.1389124 C27.9390988,18.0589994 28.9053347,17.6209989 28.9053347,17.6209989 Z M19.212875,18.9656557 L18.8398742,20.1715408 L20.0473801,19.7982841 L20.5866969,20.0837936 C21.1569105,20.3856595 21.7926237,20.5454545 22.4545455,20.5454545 C24.6621897,20.5454545 26.4545455,18.7560715 26.4545455,16.5454545 C26.4545455,14.3348376 24.6621897,12.5454545 22.4545455,12.5454545 C20.2469012,12.5454545 18.4545455,14.3348376 18.4545455,16.5454545 C18.4545455,17.2159015 18.6185064,17.8593797 18.9277156,18.4348991 L19.212875,18.9656557 Z" id="Combined-Shape"></path>
                    </g>
                </g>
            </g>
        </g>
    </g>
</svg>