<?xml version="1.0" encoding="UTF-8"?>
<svg width="24px" height="24px" viewBox="0 0 24 24" version="1.1" xmlns="http://www.w3.org/2000/svg" xmlns:xlink="http://www.w3.org/1999/xlink">
    <!-- Generator: Sketch 52.6 (67491) - http://www.bohemiancoding.com/sketch -->
    <title>Group 14</title>
    <desc>Created with Sketch.</desc>
    <g id="Website-2.0" stroke="none" stroke-width="1" fill="none" fill-rule="evenodd">
        <g id="Home-(July-2)" transform="translate(-605.000000, -3067.000000)">
            <g id="Group-2" transform="translate(391.000000, 3044.000000)">
                <g id="Group-46" transform="translate(214.000000, 23.000000)">
                    <g id="Group-14">
                        <circle id="Oval" fill="#FB5E48" cx="12" cy="12" r="12"></circle>
                        <path d="M6.85714286,15.4726448 L6.85801227,16.0215832 C7.16578578,15.9162774 7.52042122,15.9861691 7.76598994,16.2312585 C8.01262682,16.4774139 8.082193,16.8333722 7.97468849,17.1414695 L8.51904398,17.1428571 L9.42857143,16.235105 L7.76164112,14.5714286 C7.21422118,15.1168585 6.85714286,15.4726448 6.85714286,15.4726448 Z M15.9484568,6.35189606 L17.6483063,8.05240022 C18.1168164,8.52109075 18.1173783,9.28042621 17.649108,9.74887683 L9.61260154,17.7884787 C9.49582652,17.9052987 9.2678321,18 9.09933126,18 L6.60023025,18 C6.26873224,18 6,17.7330462 6,17.3996116 L6,14.8998523 C6,14.7331121 6.09604157,14.5019584 6.21154883,14.3865204 L14.2521966,6.35069577 C14.7205052,5.88266814 15.4798766,5.88313533 15.9484568,6.35189606 Z" id="Combined-Shape" fill="#FFFFFF"></path>
                    </g>
                </g>
            </g>
        </g>
    </g>
</svg>