<?xml version="1.0" encoding="UTF-8"?>
<svg width="24px" height="24px" viewBox="0 0 24 24" version="1.1" xmlns="http://www.w3.org/2000/svg" xmlns:xlink="http://www.w3.org/1999/xlink">
    <!-- Generator: Sketch 52.6 (67491) - http://www.bohemiancoding.com/sketch -->
    <title>Group 14</title>
    <desc>Created with Sketch.</desc>
    <g id="Website-2.0" stroke="none" stroke-width="1" fill="none" fill-rule="evenodd">
        <g id="Home-(July-2)" transform="translate(-639.000000, -6465.000000)">
            <g id="Group-12" transform="translate(202.000000, 5851.000000)">
                <g id="Group-51" transform="translate(203.000000, 592.000000)">
                    <g id="Group-47">
                        <g id="Group-46" transform="translate(234.000000, 22.000000)">
                            <g id="Group-14">
                                <circle id="Oval" fill="#9B67E9" cx="12" cy="12" r="12"></circle>
                                <path d="M6.78938923,7.05935983 L7.88029832,7.61483576 C8.14974114,7.75203234 8.25895442,8.08569175 8.12423301,8.36008492 C7.9895116,8.63447808 7.66187176,8.74569788 7.39242895,8.6085013 L7.09090909,8.45756265 L7.09090909,15.5377348 L7.39242895,15.3914987 C7.66187176,15.2543021 7.9895116,15.3655219 8.12423301,15.6399151 C8.25895442,15.9143082 8.14974114,16.2479677 7.88029832,16.3851642 L6.78938923,16.9406402 C6.42671591,17.1253084 6,16.8567382 6,16.4438074 L6,7.55619261 C6,7.14326179 6.42671591,6.87469156 6.78938923,7.05935983 Z M9.51666196,7.05935983 L10.6075711,7.61483576 C10.8770139,7.75203234 10.9862271,8.08569175 10.8515057,8.36008492 C10.7167843,8.63447808 10.3891445,8.74569788 10.1197017,8.6085013 L9.81818182,8.45756265 L9.81818182,15.5377348 L10.1197017,15.3914987 C10.3891445,15.2543021 10.7167843,15.3655219 10.8515057,15.6399151 C10.9862271,15.9143082 10.8770139,16.2479677 10.6075711,16.3851642 L9.51666196,16.9406402 C9.15398864,17.1253084 8.72727273,16.8567382 8.72727273,16.4438074 L8.72727273,7.55619261 C8.72727273,7.14326179 9.15398864,6.87469156 9.51666196,7.05935983 Z M11.4545455,16.4438074 L11.4545455,7.55619261 C11.4545455,7.20566151 11.7694496,6.94275884 12.1069724,7.01150365 L17.5615179,8.1224555 C17.8164765,8.17438407 18,8.40235962 18,8.66714445 L18,15.3328555 C18,15.5976404 17.8164765,15.8256159 17.5615179,15.8775445 L12.1069724,16.9884964 C11.7694496,17.0572412 11.4545455,16.7943385 11.4545455,16.4438074 Z" id="Combined-Shape" fill="#FFFFFF" transform="translate(12.000000, 12.000000) scale(1, -1) rotate(90.000000) translate(-12.000000, -12.000000) "></path>
                            </g>
                        </g>
                    </g>
                </g>
            </g>
        </g>
    </g>
</svg>