<?xml version="1.0" encoding="UTF-8"?>
<svg width="24px" height="24px" viewBox="0 0 24 24" version="1.1" xmlns="http://www.w3.org/2000/svg" xmlns:xlink="http://www.w3.org/1999/xlink">
    <!-- Generator: Sketch 52.6 (67491) - http://www.bohemiancoding.com/sketch -->
    <title>Group 14</title>
    <desc>Created with Sketch.</desc>
    <g id="Website-2.0" stroke="none" stroke-width="1" fill="none" fill-rule="evenodd">
        <g id="Home-(July-2)" transform="translate(-842.000000, -6465.000000)">
            <g id="Group-12" transform="translate(202.000000, 5851.000000)">
                <g id="Group-51" transform="translate(203.000000, 592.000000)">
                    <g id="Group-47">
                        <g id="Group-46-Copy" transform="translate(437.000000, 22.000000)">
                            <g id="Group-14">
                                <circle id="Oval" fill="#9B67E9" cx="12" cy="12" r="12"></circle>
                                <path d="M14.1644895,7.9777771 L14.6411014,8.23790247 C14.6411014,8.23790247 16.064047,8.00565498 16.146719,7.99858287 C16.5772985,7.94918657 17.0410371,8.16544836 17.2576354,8.5162927 L17.8548815,9.4837073 C18.0723918,9.8360289 18.0411846,10.3215267 17.7895098,10.6287101 C17.7310843,10.7056194 16.8060794,11.7417094 16.8060794,11.7417094 C16.8060794,11.7417094 16.8118597,11.8182267 16.8118597,12 C16.8118597,12.0875966 16.8038284,12.2618815 16.8038284,12.2618815 C16.8038284,12.2618815 17.7310843,13.2943806 17.7789526,13.357795 C18.0399251,13.6818124 18.0714588,14.1654824 17.8548815,14.5162927 L17.2576354,15.4837073 C17.0401048,15.8360618 16.5748363,16.0535009 16.1603758,16.0028504 C16.1569504,16.0025358 14.6334492,15.7613798 14.6334492,15.7613798 L14.1644897,16.019971 C14.1644897,16.019971 13.6668617,17.2888255 13.632093,17.3592567 C13.4625247,17.732626 13.0303916,18 12.597237,18 L11.4027449,18 C10.9676836,18 10.5336911,17.7319003 10.3750749,17.3744139 C10.3331049,17.2886924 9.83410776,16.0152679 9.83410776,16.0152679 L9.35600706,15.7603288 C9.35600706,15.7603288 7.93580391,15.9943993 7.85313135,16.0014617 C7.42259057,16.0508136 6.95892378,15.8345176 6.74234645,15.4837073 L6.14510043,14.5162927 C5.92756976,14.1639382 5.95884573,13.6783995 6.21058606,13.3711936 C6.26901326,13.2943017 7.19493164,12.2573842 7.19493164,12.2573842 C7.19493164,12.2573842 7.18812214,12.1818249 7.18812214,12 C7.18812214,11.9141149 7.19584305,11.7432166 7.19584305,11.7432166 C7.19584305,11.7432166 6.26901326,10.7056983 6.22113623,10.6422892 C5.96010334,10.3182627 5.92850209,9.83455164 6.14510043,9.4837073 L6.74234645,8.5162927 C6.9598568,8.1639711 7.42505295,7.94649677 7.83535594,7.99673551 C7.93580391,8.00560073 9.37006335,8.23924599 9.37006335,8.23924599 L9.84097836,7.97744532 C9.84097836,7.97744532 10.3331049,6.71130765 10.3678643,6.64087206 C10.5374109,6.26744925 10.9695482,6 11.4027449,6 L12.597237,6 C13.0322576,6 13.4662467,6.26802344 13.6248748,6.62544565 C13.6668617,6.7111745 14.1644895,7.9777771 14.1644895,7.9777771 Z M11.9999909,13.8 C10.9369822,13.8 10.0752434,12.9941125 10.0752434,12 C10.0752434,11.0058875 10.9369822,10.2 11.9999909,10.2 C13.0629996,10.2 13.9247385,11.0058875 13.9247385,12 C13.9247385,12.9941125 13.0629996,13.8 11.9999909,13.8 Z M11.9999909,12.6 C12.3543272,12.6 12.6415734,12.3313708 12.6415734,12 C12.6415734,11.6686292 12.3543272,11.4 11.9999909,11.4 C11.6456547,11.4 11.3584084,11.6686292 11.3584084,12 C11.3584084,12.3313708 11.6456547,12.6 11.9999909,12.6 Z" id="Combined-Shape" fill="#FFFFFF"></path>
                            </g>
                        </g>
                    </g>
                </g>
            </g>
        </g>
    </g>
</svg>