<?xml version="1.0" encoding="UTF-8"?>
<svg width="24px" height="24px" viewBox="0 0 24 24" version="1.1" xmlns="http://www.w3.org/2000/svg" xmlns:xlink="http://www.w3.org/1999/xlink">
    <!-- Generator: Sketch 52.6 (67491) - http://www.bohemiancoding.com/sketch -->
    <title>Group 14</title>
    <desc>Created with Sketch.</desc>
    <g id="Website-2.0" stroke="none" stroke-width="1" fill="none" fill-rule="evenodd">
        <g id="Home-(July-2)" transform="translate(-444.000000, -6465.000000)">
            <g id="Group-12" transform="translate(202.000000, 5851.000000)">
                <g id="Group-51" transform="translate(203.000000, 592.000000)">
                    <g id="Group-47">
                        <g id="Group-46" transform="translate(39.000000, 22.000000)">
                            <g id="Group-14">
                                <circle id="Oval" fill="#9B67E9" cx="12" cy="12" r="12"></circle>
                                <path d="M17.038565,15.1263934 C15.6572966,16.2940836 13.906717,17 12,17 C10.093537,17 8.34311583,16.2929924 6.96122677,15.1237568 C5.79164636,14.1341585 5,12.8835871 5,12 C5,11.1162585 5.79039964,9.86563267 6.95876072,8.87638264 C8.33994771,7.70693317 10.0908327,7 12,7 C13.9094215,7 15.6604637,7.70584153 17.0410311,8.87374596 C18.2101197,9.8627479 19,11.1133733 19,12 C19,12.8864718 18.2088733,14.1370437 17.038565,15.1263934 Z M14.5454545,12 C14.5454545,10.6192881 13.4058157,9.5 12,9.5 C10.5941843,9.5 9.45454545,10.6192881 9.45454545,12 C9.45454545,13.3807119 10.5941843,14.5 12,14.5 C13.4058157,14.5 14.5454545,13.3807119 14.5454545,12 Z" id="Combined-Shape" fill="#FFFFFF"></path>
                            </g>
                        </g>
                    </g>
                </g>
            </g>
        </g>
    </g>
</svg>