<?xml version="1.0" encoding="UTF-8"?>
<svg width="24px" height="24px" viewBox="0 0 24 24" version="1.1" xmlns="http://www.w3.org/2000/svg" xmlns:xlink="http://www.w3.org/1999/xlink">
    <!-- Generator: Sketch 52.6 (67491) - http://www.bohemiancoding.com/sketch -->
    <title>Group 14</title>
    <desc>Created with Sketch.</desc>
    <g id="Website-2.0" stroke="none" stroke-width="1" fill="none" fill-rule="evenodd">
        <g id="Home-(July-2)" transform="translate(-396.000000, -3067.000000)">
            <g id="Group-2" transform="translate(391.000000, 3044.000000)">
                <g id="Group-46" transform="translate(5.000000, 23.000000)">
                    <g id="Group-14">
                        <circle id="Oval" fill="#FB5E48" cx="12" cy="12" r="12"></circle>
                        <path d="M6.83547371,11.5951179 L6.32623785,12.6129771 C6.15334727,12.9587582 5.73288074,13.0989138 5.38709958,12.9260232 C5.04131842,12.7531326 4.90116291,12.3326661 5.07405349,11.9868849 L7.87402283,6.38694624 C8.13198699,5.87101792 8.86824302,5.87101792 9.12620718,6.38694624 L11.9261765,11.9868849 C12.0990671,12.3326661 11.9589116,12.7531326 11.6131304,12.9260232 C11.2673493,13.0989138 10.8468827,12.9587582 10.6739922,12.6129771 L10.1661998,11.5973923 L6.83547371,11.5951179 Z M9.46596819,10.1969292 L8.50076889,8.26653055 L7.53564823,10.195611 L9.46596819,10.1969292 Z M13.4000613,12.299931 C13.4000613,11.9133359 13.7131377,11.5999387 14.0979748,11.5999387 L18.3020865,11.5999387 C18.6875335,11.5999387 19,11.9106406 19,12.299931 C19,12.6865261 18.6869236,12.9999233 18.3020865,12.9999233 L14.0979748,12.9999233 C13.7125278,12.9999233 13.4000613,12.6892214 13.4000613,12.299931 Z M5.00015334,15.0999003 C5.00015334,14.7133052 5.31218886,14.399908 5.69919775,14.399908 L18.3009556,14.399908 C18.6870272,14.399908 19,14.71061 19,15.0999003 C19,15.4864954 18.6879645,15.7998927 18.3009556,15.7998927 L5.69919775,15.7998927 C5.31312618,15.7998927 5.00015334,15.4891907 5.00015334,15.0999003 Z M5.00015334,17.8998697 C5.00015334,17.5132746 5.31218886,17.1998773 5.69919775,17.1998773 L18.3009556,17.1998773 C18.6870272,17.1998773 19,17.5105793 19,17.8998697 C19,18.2864648 18.6879645,18.599862 18.3009556,18.599862 L5.69919775,18.599862 C5.31312618,18.599862 5.00015334,18.28916 5.00015334,17.8998697 Z M13.4000613,9.49996167 C13.4000613,9.11336657 13.7131377,8.79996933 14.0979748,8.79996933 L18.3020865,8.79996933 C18.6875335,8.79996933 19,9.11067131 19,9.49996167 C19,9.88655676 18.6869236,10.199954 18.3020865,10.199954 L14.0979748,10.199954 C13.7125278,10.199954 13.4000613,9.88925203 13.4000613,9.49996167 Z M13.4000613,6.69999233 C13.4000613,6.31339724 13.7131377,6 14.0979748,6 L18.3020865,6 C18.6875335,6 19,6.31070197 19,6.69999233 C19,7.08658742 18.6869236,7.39998467 18.3020865,7.39998467 L14.0979748,7.39998467 C13.7125278,7.39998467 13.4000613,7.08928269 13.4000613,6.69999233 Z" id="Combined-Shape" fill="#FFFFFF"></path>
                    </g>
                </g>
            </g>
        </g>
    </g>
</svg>