<?xml version="1.0" encoding="UTF-8"?>
<svg width="12px" height="13px" viewBox="0 0 12 13" version="1.1" xmlns="http://www.w3.org/2000/svg" xmlns:xlink="http://www.w3.org/1999/xlink">
    <!-- Generator: Sketch 50.2 (55047) - http://www.bohemiancoding.com/sketch -->
    <title>Combined Shape</title>
    <desc>Created with Sketch.</desc>
    <defs></defs>
    <g id="Content-density-exploration" stroke="none" stroke-width="1" fill="none" fill-rule="evenodd">
        <g id="Condensed:-Grid-(find-&amp;-manage)" transform="translate(-666.000000, -371.000000)" fill="#898D93" fill-rule="nonzero">
            <g id="Group-16" transform="translate(240.000000, 161.000000)">
                <g id="Group-7" transform="translate(246.000000, 0.000000)">
                    <g id="Group-12" transform="translate(180.000000, 209.000000)">
                        <path d="M5.13291392,9.86945338 C4.88713436,10.1089417 4.48617995,10.108945 4.23969053,9.868765 C3.99333965,9.62872 3.99302562,9.2380682 4.23898408,8.99840559 L7.36844499,5.94904995 C7.61529691,5.70851674 7.61529691,5.31853536 7.36844499,5.07800216 C7.12159308,4.83746895 6.72136706,4.83746895 6.47451515,5.07800216 L3.34505423,8.1273578 C2.6050782,8.84839255 2.6060192,10.0190066 3.34576069,10.7398128 C4.08595732,11.4610625 5.28736377,11.4610526 6.02684377,10.7405012 L8.26237484,8.56219332 L11.1672613,5.73166363 C12.277754,4.64959642 12.2772766,2.89279936 11.1676468,1.81157294 C10.0568847,0.729243142 8.25537581,0.729583078 7.14457704,1.81194857 L4.23969053,4.64247826 L1.11093367,7.69114787 C-0.370261918,9.13442907 -0.370361328,11.4740519 1.11093607,12.9174323 C2.59219169,14.360772 4.99308803,14.3609391 6.47451274,12.9174346 L10.4971995,8.99771721 C10.7440514,8.75718401 10.7440514,8.36720263 10.4971995,8.12666942 C10.2503475,7.88613622 9.85012152,7.88613622 9.60326961,8.12666942 L5.58058289,12.0463868 C4.59289059,13.008797 2.9924463,13.0086856 2.00486592,12.0463845 C1.01728891,11.0840866 1.01735518,9.5244266 2.00486351,8.56219566 L5.13362038,5.51352605 L8.03850688,2.68299636 C8.65567933,2.08162177 9.65673619,2.08143288 10.273717,2.68262073 C10.8897489,3.28288396 10.8900143,4.25971833 10.2733315,4.86061584 L7.36844499,7.69114553 L5.13291392,9.86945338 Z" id="Combined-Shape"></path>
                    </g>
                </g>
            </g>
        </g>
    </g>
</svg>