<?xml version="1.0" encoding="UTF-8"?>
<svg width="24px" height="24px" viewBox="0 0 24 24" version="1.1" xmlns="http://www.w3.org/2000/svg" xmlns:xlink="http://www.w3.org/1999/xlink">
    <!-- Generator: Sketch 51.1 (57501) - http://www.bohemiancoding.com/sketch -->
    <title>Group</title>
    <desc>Created with Sketch.</desc>
    <defs></defs>
    <g id="Video" stroke="none" stroke-width="1" fill="none" fill-rule="evenodd">
        <g id="June-29:-Processing-video" transform="translate(-403.000000, -266.000000)" fill="#FFFFFF">
            <g id="Group-3" transform="translate(403.000000, 266.000000)">
                <g id="Group-2">
                    <g id="Group">
                        <path d="M7.51841158,2.15633632 C7.04884555,1.66303746 7.04885329,0.86325012 7.51842888,0.369961296 C7.98800447,-0.123327528 8.74932918,-0.123319393 9.21889522,0.369979468 L12.826129,4.15953025 C13.2956951,4.65282911 13.2956873,5.45261645 12.8261118,5.94590528 L9.21887792,9.73530186 C8.74930233,10.2285907 7.98797762,10.2285826 7.51841158,9.73528369 C7.04884555,9.24198483 7.04885329,8.44219749 7.51842888,7.94890866 L9.06548301,6.31578947 L7.81374912,6.31578947 C4.82909385,6.31578947 2.40482255,8.86220171 2.40482255,12 C2.40482255,14.9454827 4.9216702,17.6842105 7.21121727,17.6842105 C7.87529068,17.6842105 8.41362855,18.2497456 8.41362855,18.9473684 C8.41362855,19.6449913 7.87529068,20.2105263 7.21121727,20.2105263 C3.57421331,20.2105263 -8.52651283e-14,16.3212176 -8.52651283e-14,12 C-8.52651283e-14,7.46688165 3.50101782,3.78947368 7.81374912,3.78947368 L9.06548297,3.78947368 L7.51841158,2.15633632 Z M16.4333629,21.8436637 C16.9029289,22.3369625 16.9029212,23.1367499 16.4333456,23.6300387 C15.96377,24.1233275 15.2024453,24.1233194 14.7328792,23.6300205 L11.1256454,19.8404698 C10.6560794,19.3471709 10.6560871,18.5473835 11.1256627,18.0540947 L14.7328965,14.2646981 C15.2024721,13.7714093 15.9637968,13.7714174 16.4333629,14.2647163 C16.9029289,14.7580152 16.9029212,15.5578025 16.4333456,16.0510913 L14.8862915,17.6842105 L16.1862509,17.6842105 C19.1709061,17.6842105 21.5951774,15.1377983 21.5951774,12 C21.5951774,9.05451732 19.0783298,6.31578947 16.7887827,6.31578947 C16.1247093,6.31578947 15.5863715,5.75025442 15.5863715,5.05263158 C15.5863715,4.35500874 16.1247093,3.78947368 16.7887827,3.78947368 C20.4257867,3.78947368 24,7.67878241 24,12 C24,16.5331183 20.4989822,20.2105263 16.1862509,20.2105263 L14.8862915,20.2105263 L16.4333629,21.8436637 Z" id="Combined-Shape"></path>
                    </g>
                </g>
            </g>
        </g>
    </g>
</svg>