<?xml version="1.0" encoding="UTF-8"?>
<svg width="22px" height="19px" viewBox="0 0 22 19" version="1.1" xmlns="http://www.w3.org/2000/svg" xmlns:xlink="http://www.w3.org/1999/xlink">
    <!-- Generator: Sketch 50.2 (55047) - http://www.bohemiancoding.com/sketch -->
    <title>Combined Shape</title>
    <desc>Created with Sketch.</desc>
    <defs></defs>
    <g id="Page-1" stroke="none" stroke-width="1" fill="none" fill-rule="evenodd">
        <g id="Logo-uploader" transform="translate(-290.000000, -128.000000)" fill="#C4C6C9">
            <g id="Group-6" transform="translate(141.000000, 80.000000)">
                <g id="Group-2" transform="translate(88.000000, 0.000000)">
                    <g id="Group" transform="translate(23.000000, 0.000000)">
                        <path d="M49,55.5 C47.3431458,55.5 46,56.8431458 46,58.5 C46,60.1568542 47.3431458,61.5 49,61.5 C50.6568542,61.5 52,60.1568542 52,58.5 C52,58.1925344 51.9537462,57.895872 51.8678172,57.6165914 C51.6326383,58.1374853 51.1086541,58.5 50.5,58.5 C49.6715729,58.5 49,57.8284271 49,57 C49,56.3913459 49.3625147,55.8673617 49.8834086,55.6321828 C49.604128,55.5462538 49.3074656,55.5 49,55.5 Z M42.8,51 L43.6285025,48.9287437 C43.8336749,48.4158127 44.4491062,48 44.9953976,48 L53.0046024,48 C53.5543453,48 54.1670789,48.4176972 54.3714975,48.9287437 L55.2,51 L57.999095,51 C59.1041643,51 60,51.8945138 60,53.0021289 L60,64.9978711 C60,66.1036164 59.1034544,67 57.999095,67 L40.000905,67 C38.8958357,67 38,66.1054862 38,64.9978711 L38,53.0021289 C38,51.8963836 38.8965456,51 40.000905,51 L42.8,51 Z M40.000905,53 L40,64.9978711 L57.999095,65 L58,53.0021289 L54.3470115,52.9999934 C54.0702741,52.9999971 53.7630128,52.7937979 53.6600767,52.5378246 L52.6395264,50 L45.3541533,49.9997816 L44.3415796,52.5312159 C44.2380186,52.7901182 43.930774,53 43.6530977,53 L40.000905,53 Z M44,58.5 C44,55.7385763 46.2385763,53.5 49,53.5 C51.7614237,53.5 54,55.7385763 54,58.5 C54,61.2614237 51.7614237,63.5 49,63.5 C46.2385763,63.5 44,61.2614237 44,58.5 Z" id="Combined-Shape"></path>
                    </g>
                </g>
            </g>
        </g>
    </g>
</svg>