<?xml version="1.0" encoding="UTF-8"?>
<svg width="4px" height="20px" viewBox="0 0 4 20" version="1.1" xmlns="http://www.w3.org/2000/svg" xmlns:xlink="http://www.w3.org/1999/xlink">
    <!-- Generator: Sketch 49 (51002) - http://www.bohemiancoding.com/sketch -->
    <title>Combined Shape</title>
    <desc>Created with Sketch.</desc>
    <defs></defs>
    <g id="➡️-Boards-&amp;-Posts" stroke="none" stroke-width="1" fill="none" fill-rule="evenodd">
        <g id="Full-screen-Post" transform="translate(-1252.000000, -22.000000)" fill="#000000">
            <path d="M1254,26 C1252.89543,26 1252,25.1045695 1252,24 C1252,22.8954305 1252.89543,22 1254,22 C1255.10457,22 1256,22.8954305 1256,24 C1256,25.1045695 1255.10457,26 1254,26 Z M1254,34 C1252.89543,34 1252,33.1045695 1252,32 C1252,30.8954305 1252.89543,30 1254,30 C1255.10457,30 1256,30.8954305 1256,32 C1256,33.1045695 1255.10457,34 1254,34 Z M1254,42 C1252.89543,42 1252,41.1045695 1252,40 C1252,38.8954305 1252.89543,38 1254,38 C1255.10457,38 1256,38.8954305 1256,40 C1256,41.1045695 1255.10457,42 1254,42 Z" id="Combined-Shape"></path>
        </g>
    </g>
</svg>