<?xml version="1.0" encoding="UTF-8"?>
<svg width="20px" height="24px" viewBox="0 0 20 24" version="1.1" xmlns="http://www.w3.org/2000/svg" xmlns:xlink="http://www.w3.org/1999/xlink">
    <!-- Generator: Sketch 52.1 (67048) - http://www.bohemiancoding.com/sketch -->
    <title>Spinner icon</title>
    <desc>Created with Sketch.</desc>
    <g id="Video-flow" stroke="none" stroke-width="1" fill="none" fill-rule="evenodd" fill-opacity="0.75">
        <g id="Video-in-stream" transform="translate(-630.000000, -750.000000)" fill="#FFFFFF">
            <g id="Group-3-Copy-2" transform="translate(548.000000, 710.000000)">
                <g id="Spinner-icon" transform="translate(80.000000, 40.000000)">
                    <path d="M15.6143912,3.64078477 C15.6143912,2.35013 16.6580458,1.30384758 17.5862222,1.30384758 L15.6143912,1.30384758 C16.7034034,1.30384758 17.5862222,2.34896782 17.5862222,3.64078477 L17.5862222,4.96691039 C17.5862222,6.25756516 16.5425676,7.30384758 15.6143912,7.30384758 L17.5862222,7.30384758 C16.49721,7.30384758 15.6143912,6.25872734 15.6143912,4.96691039 L15.6143912,3.64078477 Z" id="Path" opacity="0.4"></path>
                    <path d="M11.1830986,0.990777969 C11.1830986,0.443586406 11.6207118,0 12.1690141,0 L12.1690141,0 C12.7135202,0 13.1549296,0.431505203 13.1549296,0.990777969 L13.1549296,5.00922203 C13.1549296,5.55641359 12.7173164,6 12.1690141,6 L12.1690141,6 C11.624508,6 11.1830986,5.5684948 11.1830986,5.00922203 L11.1830986,0.990777969 Z" id="Path" opacity="0.5"></path>
                    <path d="M18.9079062,6.92309856 C18.9079062,5.61343322 19.9630931,4.55173969 20.8797372,4.55173969 L18.9079062,4.55173969 C19.9969184,4.55173969 20.8797372,5.61060777 20.8797372,6.92309856 L20.8797372,8.18038082 C20.8797372,9.49004616 19.8245503,10.5517397 18.9079062,10.5517397 L20.8797372,10.5517397 C19.790725,10.5517397 18.9079062,9.49287161 18.9079062,8.18038082 L18.9079062,6.92309856 Z" id="Path" opacity="0.3"></path>
                    <path d="M20,10.0479208 C20,9.50072926 20.4573338,9.05714286 21.009021,9.05714286 L20.96281,9.05714286 C21.5200769,9.05714286 21.971831,9.50811804 21.971831,10.0479208 L21.971831,14.0663649 C21.971831,14.6135565 21.5144971,15.0571429 20.96281,15.0571429 L21.009021,15.0571429 C20.4517541,15.0571429 20,14.6061677 20,14.0663649 L20,10.0479208 Z" id="Path" opacity="0.2"></path>
                    <path d="M18.9079062,15.9230986 C18.9079062,14.6134332 19.9630931,13.5517397 20.8797372,13.5517397 L18.9079062,13.5517397 C19.9969184,13.5517397 20.8797372,14.6106078 20.8797372,15.9230986 L20.8797372,17.1803808 C20.8797372,18.4900462 19.8245503,19.5517397 18.9079062,19.5517397 L20.8797372,19.5517397 C19.790725,19.5517397 18.9079062,18.4928716 18.9079062,17.1803808 L18.9079062,15.9230986 Z" id="Path" opacity="0.1"></path>
                    <path d="M15.6143912,19.229242 C15.6143912,17.9385873 16.6580458,16.8923048 17.5862222,16.8923048 L15.6143912,16.8923048 C16.7034034,16.8923048 17.5862222,17.9374251 17.5862222,19.229242 L17.5862222,20.5553677 C17.5862222,21.8460224 16.5425676,22.8923048 15.6143912,22.8923048 L17.5862222,22.8923048 C16.49721,22.8923048 15.6143912,21.8471846 15.6143912,20.5553677 L15.6143912,19.229242 Z" id="Path" opacity="0"></path>
                    <path d="M11.1830986,18.990778 C11.1830986,18.4435864 11.6207118,18 12.1690141,18 L12.1690141,18 C12.7135202,18 13.1549296,18.4315052 13.1549296,18.990778 L13.1549296,23.009222 C13.1549296,23.5564136 12.7173164,24 12.1690141,24 L12.1690141,24 C11.624508,24 11.1830986,23.5684948 11.1830986,23.009222 L11.1830986,18.990778 Z" id="Path"></path>
                    <path d="M6.74115181,19.229242 C6.74115181,17.9385873 7.7848064,16.8923048 8.71298279,16.8923048 L6.74115181,16.8923048 C7.83016399,16.8923048 8.71298279,17.9374251 8.71298279,19.229242 L8.71298279,20.5553677 C8.71298279,21.8460224 7.6693282,22.8923048 6.74115181,22.8923048 L8.71298279,22.8923048 C7.62397061,22.8923048 6.74115181,21.8471846 6.74115181,20.5553677 L6.74115181,19.229242 Z" id="Path"></path>
                    <path d="M3.53900465,15.9230986 C3.53900465,14.6134332 4.59419156,13.5517397 5.51083564,13.5517397 L3.53900465,13.5517397 C4.62801684,13.5517397 5.51083564,14.6106078 5.51083564,15.9230986 L5.51083564,17.1803808 C5.51083564,18.4900462 4.45564874,19.5517397 3.53900465,19.5517397 L5.51083564,19.5517397 C4.42182346,19.5517397 3.53900465,18.4928716 3.53900465,17.1803808 L3.53900465,15.9230986 Z" id="Path" opacity="0.899999976"></path>
                    <path d="M2.25352113,10.0479208 C2.25352113,9.50072926 2.71085497,9.05714286 3.26254213,9.05714286 L3.21633111,9.05714286 C3.77359802,9.05714286 4.22535211,9.50811804 4.22535211,10.0479208 L4.22535211,14.0663649 C4.22535211,14.6135565 3.76801827,15.0571429 3.21633111,15.0571429 L3.26254213,15.0571429 C2.70527522,15.0571429 2.25352113,14.6061677 2.25352113,14.0663649 L2.25352113,10.0479208 Z" id="Path" opacity="0.800000012"></path>
                    <path d="M3.53900465,6.92309856 C3.53900465,5.61343322 4.59419156,4.55173969 5.51083564,4.55173969 L3.53900465,4.55173969 C4.62801684,4.55173969 5.51083564,5.61060777 5.51083564,6.92309856 L5.51083564,8.18038082 C5.51083564,9.49004616 4.45564874,10.5517397 3.53900465,10.5517397 L5.51083564,10.5517397 C4.42182346,10.5517397 3.53900465,9.49287161 3.53900465,8.18038082 L3.53900465,6.92309856 Z" id="Path" opacity="0.7"></path>
                    <path d="M6.74115181,3.64078477 C6.74115181,2.35013 7.7848064,1.30384758 8.71298279,1.30384758 L6.74115181,1.30384758 C7.83016399,1.30384758 8.71298279,2.34896782 8.71298279,3.64078477 L8.71298279,4.96691039 C8.71298279,6.25756516 7.6693282,7.30384758 6.74115181,7.30384758 L8.71298279,7.30384758 C7.62397061,7.30384758 6.74115181,6.25872734 6.74115181,4.96691039 L6.74115181,3.64078477 Z" id="Path" opacity="0.6"></path>
                </g>
            </g>
        </g>
    </g>
</svg>