<?xml version="1.0" encoding="UTF-8"?>
<svg width="18px" height="12px" viewBox="0 0 18 12" version="1.1" xmlns="http://www.w3.org/2000/svg" xmlns:xlink="http://www.w3.org/1999/xlink">
    <!-- Generator: Sketch 50.2 (55047) - http://www.bohemiancoding.com/sketch -->
    <title>Combined Shape</title>
    <desc>Created with Sketch.</desc>
    <defs></defs>
    <g id="Video-/-GA" stroke="none" stroke-width="1" fill="none" fill-rule="evenodd">
        <g id="New-post-(/w-video-button)" transform="translate(-352.000000, -416.000000)" fill="#C4C6C9">
            <g id="Group-10" transform="translate(352.000000, 413.000000)">
                <path d="M14.8054679,4.72059716 C14.9882166,4.59876471 15.3154969,4.5 15.5466529,4.5 L17.1793968,4.5 C17.6326034,4.5 18,4.83638483 18,5.25185497 L18,12.748145 C18,13.1633831 17.6373185,13.5 17.1793968,13.5 L15.5466529,13.5 C15.3200564,13.5 14.9866406,13.4001846 14.8054679,13.2794028 L12.2727273,11.5909091 L12.2727273,13.4984034 C12.2727273,14.3277123 11.5417658,15 10.6366603,15 L1.63606697,15 C0.732492131,15 0,14.3291147 0,13.4984034 L0,4.50159664 C0,3.67228771 0.730961453,3 1.63606697,3 L10.6366603,3 C11.5402351,3 12.2727273,3.67088532 12.2727273,4.50159664 L12.2727273,6.40909091 L14.8054679,4.72059716 Z" id="Combined-Shape"></path>
            </g>
        </g>
    </g>
</svg>