<?xml version="1.0" encoding="UTF-8"?>
<svg width="16px" height="10px" viewBox="0 0 16 10" version="1.1" xmlns="http://www.w3.org/2000/svg" xmlns:xlink="http://www.w3.org/1999/xlink">
    <!-- Generator: Sketch 51.1 (57501) - http://www.bohemiancoding.com/sketch -->
    <title>Group 9</title>
    <desc>Created with Sketch.</desc>
    <defs></defs>
    <g id="Video" stroke="none" stroke-width="1" fill="none" fill-rule="evenodd">
        <g id="June-29:-New-menu" transform="translate(-925.000000, -202.000000)" fill="#3FBD7C">
            <g id="Group-4" transform="translate(908.000000, 136.000000)">
                <g id="Group-9" transform="translate(17.000000, 66.000000)">
                    <path d="M10.9090909,2.84090909 L13.1604159,1.43383097 C13.3228592,1.33230393 13.613775,1.25 13.819247,1.25 L15.2705749,1.25 C15.6734253,1.25 16,1.5303207 16,1.87654581 L16,8.12345419 C16,8.46948589 15.6776164,8.75 15.2705749,8.75 L13.819247,8.75 C13.6178279,8.75 13.3214583,8.66682053 13.1604159,8.56616903 L10.9090909,7.15909091 L10.9090909,8.74866947 C10.9090909,9.43976024 10.2593474,10 9.45480916,10 L1.45428175,10 C0.651104116,10 0,9.4409289 0,8.74866947 L0,1.25133053 C0,0.560239762 0.649743514,0 1.45428175,0 L9.45480916,0 C10.2579868,0 10.9090909,0.559071098 10.9090909,1.25133053 L10.9090909,2.84090909 L10.9090909,2.84090909 Z" id="Combined-Shape"></path>
                </g>
            </g>
        </g>
    </g>
</svg>