<?xml version="1.0" encoding="UTF-8"?>
<svg width="225px" height="18px" viewBox="0 0 225 18" version="1.1" xmlns="http://www.w3.org/2000/svg" xmlns:xlink="http://www.w3.org/1999/xlink">
    <!-- Generator: Sketch 52.5 (67469) - http://www.bohemiancoding.com/sketch -->
    <title>Group 5</title>
    <desc>Created with Sketch.</desc>
    <g id="Website" stroke="none" stroke-width="1" fill="none" fill-rule="evenodd">
        <g id="Home-(Dec.-20)" transform="translate(-555.000000, -488.000000)" fill="#2BB46D">
            <g id="Group-4" transform="translate(508.000000, 465.000000)">
                <g id="Group-13">
                    <g id="Group-3">
                        <g id="Group-2" transform="translate(47.000000, 19.000000)">
                            <g id="Group-5">
                                <path d="M3.99492555,4.28287412 C3.99492555,4.28287412 6.75,4 12,4 C17.25,4 20.0108508,4.28323747 20.0108508,4.28323747 C21.6617123,4.40295211 23.2497627,5.81650069 23.5161108,7.45114246 C23.5161108,7.45114246 24,9.25 24,13 C24,16.75 23.5146466,18.558673 23.5146466,18.558673 C23.2304151,20.1831231 21.6650443,21.6011825 20.0080289,21.7116826 C20.0080289,21.7116826 17,22 12,22 C7,22 3.98614999,21.7113203 3.98614999,21.7113203 C2.33694489,21.5946113 0.750237331,20.1834993 0.483889198,18.5488575 C0.483889198,18.5488575 0,16.75 0,13 C0,9.25 0.485353425,7.44132699 0.485353425,7.44132699 C0.76958488,5.81687695 2.34006134,4.39518362 3.99492555,4.28287412 Z M2.22553935,9.07567153 C2.08530562,10.1399995 2,11.4465403 2,13 C2,14.5535481 2.08504279,15.8582797 2.22481918,16.9195114 C2.304053,17.5210825 2.45785705,18.2272197 2.45785705,18.2272197 C2.5725998,18.9314232 3.38769446,19.6639678 4.17684593,19.7204323 C4.25751127,19.7281588 5.63478454,19.8276181 6.22264254,19.8583956 C7.91171298,19.9468275 9.84827911,20 12,20 C14.1517381,20 16.0872178,19.9468947 17.7744677,19.8585757 C18.3616708,19.8278386 19.7367523,19.7285182 19.8172049,19.7208069 C20.6068803,19.6673053 21.4182256,18.9360902 21.5445759,18.213968 C21.5445759,18.213968 21.6949069,17.5281156 21.7744606,16.9243285 C21.9146944,15.8600005 22,14.5534597 22,13 C22,11.4464519 21.9149572,10.1417203 21.7751808,9.08048856 C21.695947,8.47891749 21.5421429,7.7727803 21.5421429,7.7727803 C21.4272513,7.06766271 20.6092691,6.33188439 19.8661977,6.27799948 C19.7366462,6.26560393 18.4413803,6.16895237 17.8691422,6.13885884 C16.2208123,6.05217452 14.2616067,6 12,6 C9.7383762,6 7.78024687,6.05210726 6.13372394,6.13867832 C5.56213861,6.16873119 4.13034663,6.27828413 4.13034663,6.27828413 C3.39838694,6.32795952 2.58171142,7.06427006 2.4554241,7.78603199 C2.4554241,7.78603199 2.30509314,8.47188441 2.22553935,9.07567153 Z M9.50714735,10.6584975 C9.50849226,10.1035894 9.90315516,9.87290806 10.3818033,10.1394428 L14.6357748,12.5082623 C15.1174891,12.7765044 15.1133557,13.2151444 14.6334096,13.4841435 L10.3679026,15.8748653 C9.88488212,16.1455875 9.49440916,15.9142825 9.49575182,15.3603013 L9.50714735,10.6584975 Z" id="Combined-Shape" fill-rule="nonzero"></path>
                                <text id="Button-Label" font-family="Avenir-Heavy, Avenir" font-size="20" font-weight="600">
                                    <tspan x="32.37" y="20">Carrot in 60 seconds</tspan>
                                </text>
                            </g>
                        </g>
                    </g>
                </g>
            </g>
        </g>
    </g>
</svg>