<?xml version="1.0" encoding="UTF-8"?>
<svg width="286px" height="18px" viewBox="0 0 286 18" version="1.1" xmlns="http://www.w3.org/2000/svg" xmlns:xlink="http://www.w3.org/1999/xlink">
    <!-- Generator: Sketch 51.3 (57544) - http://www.bohemiancoding.com/sketch -->
    <title>Group 29</title>
    <desc>Created with Sketch.</desc>
    <defs></defs>
    <g id="Website" stroke="none" stroke-width="1" fill="none" fill-rule="evenodd">
        <g id="Home-/-grid-v2-(mobile)" transform="translate(-44.000000, -811.000000)" fill="#32C97B">
            <g id="Group-29" transform="translate(44.000000, 811.000000)">
                <g id="Group">
                    <g id="Group-2">
                        <path d="M3.99492555,0.282874118 C3.99492555,0.282874118 6.75,0 12,0 C17.25,0 20.0108508,0.283237468 20.0108508,0.283237468 C21.6617123,0.402952109 23.2497627,1.81650069 23.5161108,3.45114246 C23.5161108,3.45114246 24,5.25 24,9 C24,12.75 23.5146466,14.558673 23.5146466,14.558673 C23.2304151,16.1831231 21.6650443,17.6011825 20.0080289,17.7116826 C20.0080289,17.7116826 17,18 12,18 C7,18 3.98614999,17.7113203 3.98614999,17.7113203 C2.33694489,17.5946113 0.750237331,16.1834993 0.483889198,14.5488575 C0.483889198,14.5488575 0,12.75 0,9 C0,5.25 0.485353425,3.44132699 0.485353425,3.44132699 C0.76958488,1.81687695 2.34006134,0.395183615 3.99492555,0.282874118 Z M2.22553935,5.07567153 C2.08530562,6.13999947 2,7.44654032 2,9 C2,10.5535481 2.08504279,11.8582797 2.22481918,12.9195114 C2.304053,13.5210825 2.45785705,14.2272197 2.45785705,14.2272197 C2.5725998,14.9314232 3.38769446,15.6639678 4.17684593,15.7204323 C4.25751127,15.7281588 5.63478454,15.8276181 6.22264254,15.8583956 C7.91171298,15.9468275 9.84827911,16 12,16 C14.1517381,16 16.0872178,15.9468947 17.7744677,15.8585757 C18.3616708,15.8278386 19.7367523,15.7285182 19.8172049,15.7208069 C20.6068803,15.6673053 21.4182256,14.9360902 21.5445759,14.213968 C21.5445759,14.213968 21.6949069,13.5281156 21.7744606,12.9243285 C21.9146944,11.8600005 22,10.5534597 22,9 C22,7.44645191 21.9149572,6.1417203 21.7751808,5.08048856 C21.695947,4.47891749 21.5421429,3.7727803 21.5421429,3.7727803 C21.4272513,3.06766271 20.6092691,2.33188439 19.8661977,2.27799948 C19.7366462,2.26560393 18.4413803,2.16895237 17.8691422,2.13885884 C16.2208123,2.05217452 14.2616067,2 12,2 C9.7383762,2 7.78024687,2.05210726 6.13372394,2.13867832 C5.56213861,2.16873119 4.13034663,2.27828413 4.13034663,2.27828413 C3.39838694,2.32795952 2.58171142,3.06427006 2.4554241,3.78603199 C2.4554241,3.78603199 2.30509314,4.47188441 2.22553935,5.07567153 Z M9.50714735,6.65849753 C9.50849226,6.10358945 9.90315516,5.87290806 10.3818033,6.13944276 L14.6357748,8.50826231 C15.1174891,8.77650437 15.1133557,9.2151444 14.6334096,9.48414349 L10.3679026,11.8748653 C9.88488212,12.1455875 9.49440916,11.9142825 9.49575182,11.3603013 L9.50714735,6.65849753 Z" id="Combined-Shape" fill-rule="nonzero"></path>
                        <text id="Button-Label" font-family="Avenir-Black, Avenir" font-size="14" font-weight="700" letter-spacing="0.4999999">
                            <tspan x="32.3940014" y="14">WATCH “CARROT IN 60 SECONDS”</tspan>
                        </text>
                    </g>
                </g>
            </g>
        </g>
    </g>
</svg>