<?xml version="1.0" encoding="UTF-8"?>
<svg width="14px" height="14px" viewBox="0 0 14 14" version="1.1" xmlns="http://www.w3.org/2000/svg" xmlns:xlink="http://www.w3.org/1999/xlink">
    <!-- Generator: Sketch 50.2 (55047) - http://www.bohemiancoding.com/sketch -->
    <title>Combined Shape</title>
    <desc>Created with Sketch.</desc>
    <defs></defs>
    <g id="New-post-dev-assets" stroke="none" stroke-width="1" fill="none" fill-rule="evenodd" opacity="0.800000012">
        <g id="Mobile:-post-options" transform="translate(-16.000000, -21.000000)" fill="#FFFFFF" fill-rule="nonzero">
            <path d="M29.7437076,22.4937292 C30.0854224,22.1520264 30.085432,21.5980071 29.7437292,21.2562924 C29.4020264,20.9145776 28.8480071,20.914568 28.5062924,21.2562708 L23,26.7623711 L17.4937076,21.2562708 C17.1519929,20.914568 16.5979736,20.9145776 16.2562708,21.2562924 C15.914568,21.5980071 15.9145776,22.1520264 16.2562924,22.4937292 L21.7625416,27.9997864 L16.2562924,33.5058435 C15.9145776,33.8475463 15.914568,34.4015657 16.2562708,34.7432804 C16.5979736,35.0849951 17.1519929,35.0850048 17.4937076,34.743302 L23,29.2372017 L28.5062924,34.743302 C28.8480071,35.0850048 29.4020264,35.0849951 29.7437292,34.7432804 C30.085432,34.4015657 30.0854224,33.8475463 29.7437076,33.5058435 L24.2374584,27.9997864 L29.7437076,22.4937292 Z" id="Combined-Shape"></path>
        </g>
    </g>
</svg>