<svg width="13" height="13" viewBox="0 0 13 13" fill="none" xmlns="http://www.w3.org/2000/svg">
<path fill-rule="evenodd" clip-rule="evenodd" d="M11.2892 7.25803C11.5244 7.13498 11.7989 7.1105 12.0522 7.19C12.5774 7.35695 12.8685 7.91731 12.7032 8.443C11.706 11.6264 8.46076 13.5381 5.19298 12.8672C1.92519 12.1962 -0.304125 9.16034 0.0338122 5.84154C0.371749 2.52274 3.16722 -0.00143605 6.50318 6.12962e-07C7.05546 6.12962e-07 7.50318 0.447717 7.50318 1C7.50318 1.55229 7.05546 2 6.50318 2C4.19416 2.00052 2.26022 3.74858 2.02717 6.04581C1.79412 8.34304 3.33759 10.4439 5.59946 10.9081C7.86133 11.3723 10.1075 10.0493 10.7982 7.846C10.8773 7.59261 11.054 7.38108 11.2892 7.25803ZM12.4079 1.467C12.5487 1.49248 12.679 1.55851 12.7829 1.657C12.9457 1.82299 13.0203 2.05633 12.9839 2.286C13.0176 2.58032 12.917 2.87418 12.7099 3.086L7.69586 8.1C7.03634 8.75731 5.96938 8.75731 5.30986 8.1L3.73286 6.519C3.35389 6.12662 3.35931 5.50292 3.74504 5.11719C4.13078 4.73145 4.75448 4.72603 5.14686 5.105L6.32586 6.284C6.42377 6.38138 6.58195 6.38138 6.67986 6.284L11.2959 1.667C11.5897 1.37727 12.0314 1.29783 12.4079 1.467Z" fill="#242D42"/>
</svg>
