<svg xmlns="http://www.w3.org/2000/svg" xmlns:xlink="http://www.w3.org/1999/xlink" version="1.1" x="0px" y="0px" viewBox="0 0 98.442 98.698" enable-background="new 0 0 98.442 98.698" xml:space="preserve"><path fill="#000000" d="M70.381,41H67c0-3,0-8.267,0-8.292c0-9.399-8.083-17.34-17.5-17.34c-9.427,0-16.5,8.129-17.5,17.542  c0,0.015,0,4.09,0,8.09h-3.442C27.292,41,26,41.937,26,43.203V79.87c0,1.265,1.292,2.13,2.558,2.13h41.824  C71.647,82,73,81.135,73,79.87V43.203C73,41.937,71.647,41,70.381,41z M38,32.714c0-6.252,5.232-12.001,11.5-12.001  c6.255,0,11.5,5.852,11.5,11.981C61,32.722,61,38,61,41H38C38,37,38,32.73,38,32.714z"></path></svg>