<svg xmlns="http://www.w3.org/2000/svg" xmlns:xlink="http://www.w3.org/1999/xlink" version="1.1" x="0px" y="0px" viewBox="0 0 100 100" enable-background="new 0 0 100 100" xml:space="preserve"><path d="M49.983,11.811c21.064,0,38.177,17.133,38.177,38.206c0,21.039-17.112,38.173-38.177,38.173  c-21.031,0-38.177-17.134-38.177-38.173C11.806,28.944,28.953,11.811,49.983,11.811 M49.983,5C25.135,5,5,25.144,5,50.017  C5,74.846,25.135,95,49.983,95C74.854,95,95,74.846,95,50.017C95,25.144,74.854,5,49.983,5L49.983,5z M25.369,48.787h-8.582v2.292  h8.582V48.787z M83.18,48.787h-8.593v2.292h8.593V48.787z M51.113,74.562h-2.26v8.58h2.26V74.562z M45.264,15.283h2.743l2.443,4.134  c0.902,1.591,1.163,2.104,1.703,3.077l-0.139-7.211h2.722v11.263h-2.777l-2.126-3.584c-1.013-1.669-1.208-1.992-1.976-3.511  l0.073,7.095h-2.666V15.283z M55.649,46.739L34.701,23.563l9.606,29.698l20.947,23.198L55.649,46.739z M49.983,53.044  c-1.692,0-3.083-1.386-3.083-3.083c0-1.736,1.392-3.077,3.083-3.077c1.702,0,3.083,1.341,3.083,3.077  C53.066,51.658,51.686,53.044,49.983,53.044z"></path></svg>