<svg xmlns="http://www.w3.org/2000/svg" xmlns:xlink="http://www.w3.org/1999/xlink" version="1.1" x="0px" y="0px" viewBox="0 0 100 100" enable-background="new 0 0 100 100" xml:space="preserve"><path d="M44.7,71.6c-1.4,0-2.5,1.1-2.5,2.5c0,1.4,1.1,2.5,2.5,2.5c1.4,0,2.5-1.1,2.5-2.5C47.2,72.7,46.1,71.6,44.7,71.6z M52.4,71.6  c-1.4,0-2.5,1.1-2.5,2.5c0,1.4,1.1,2.5,2.5,2.5c1.4,0,2.5-1.1,2.5-2.5C54.9,72.7,53.8,71.6,52.4,71.6z M51.9,57.4  c0.2-0.5,0.3-1,0.3-1.5c0-2.1-1.7-3.8-3.8-3.8c-2.1,0-3.8,1.7-3.8,3.8c0,0.6,0.1,1.1,0.4,1.6c-7.9,1.7-13.9,8.7-13.9,17.2  c0,8,5.4,14.8,12.8,16.9c1,2.5,4.4,5.9,4.4,5.9s2.9-3.1,4-5.6c8-1.6,14-8.7,14-17.2C66.3,66,60.1,58.9,51.9,57.4z M51.4,87.3  c-0.9-0.8-2-1.3-3.3-1.3c-1.1,0-2.1,0.4-2.9,1c-5.4-1.5-9.3-6.5-9.3-12.4c0-2.5,0.7-4.8,1.9-6.7c9.4,1.2,17.8,0.5,22,0  c1.2,1.9,1.9,4.2,1.9,6.7C61.6,80.9,57.2,86,51.4,87.3z M48.5,24.3c0-0.2,6.1-0.2,6.3-0.4c0.1-0.4-2.7-1.5-6.4-1.5  c-3.7,0-6.5,1.2-6.4,1.5C42.1,24,48.5,24.1,48.5,24.3z M44.7,21.3c1.4,0,2.5-1.1,2.5-2.5s-1.1-2.5-2.5-2.5c-1.4,0-2.5,1.1-2.5,2.5  S43.4,21.3,44.7,21.3z M52.4,21.3c1.4,0,2.5-1.1,2.5-2.5s-1.1-2.5-2.5-2.5c-1.4,0-2.5,1.1-2.5,2.5S51.1,21.3,52.4,21.3z M48.4,37.7  c9.7,0,17.6-7.9,17.6-17.6S58.1,2.5,48.4,2.5c-9.7,0-17.6,7.9-17.6,17.6S38.7,37.7,48.4,37.7z M48.4,7.2c7.1,0,12.9,5.8,12.9,12.9  S55.5,33,48.4,33c-7.1,0-12.9-5.8-12.9-12.9S41.3,7.2,48.4,7.2z M16.3,43.5c-1.4,0-2.5,1.1-2.5,2.5c0,1.4,1.1,2.5,2.5,2.5  c1.4,0,2.5-1.1,2.5-2.5C18.8,44.6,17.7,43.5,16.3,43.5z M37.9,46.6c0-6.4-3.5-12.1-8.6-15.1c0-2-0.9-4.3-3.2-7c0,0-0.8,1-1.7,2.5  c-1-1.3-2.5-2.6-4.8-3.8c0,0-0.5,1.5-0.7,3.7c-1.9-1.5-4.8-2.2-9.3-0.7c0,0,0.6,1.1,1.7,2.5c-2,0-4.4,0.9-7.1,3.3  c0,0,1.4,1.2,3.7,2.3c-3.1,3.2-5,7.5-5,12.3c0,9.7,7.9,17.6,17.6,17.6S37.9,56.3,37.9,46.6z M20.4,59.5c-7.1,0-12.9-5.8-12.9-12.9  c0-7.1,5.8-12.9,12.9-12.9c0.6,0,1.1,0,1.6,0.1c-0.2,1.8-0.1,3.7,0.6,5.7c0,0,3-1.1,5-3.5c3.4,2.3,5.6,6.2,5.6,10.6  C33.2,53.7,27.5,59.5,20.4,59.5z M24.1,43.5c-1.4,0-2.5,1.1-2.5,2.5c0,1.4,1.1,2.5,2.5,2.5c1.4,0,2.5-1.1,2.5-2.5  C26.5,44.6,25.4,43.5,24.1,43.5z M96.6,62c-1-1.6-2.8-2.3-4.2-1.6c-0.3-1-0.7-2.5-1.2-4.1c1.6-2.7,2.6-5.8,2.6-9.2  c0-9.7-7.9-17.6-17.6-17.6c-1.3,0-2.7,0.2-3.9,0.4c-0.1,0-0.1,0-0.1,0c0,0,0,0,0,0.1c-7.8,1.8-13.6,8.8-13.6,17.1  c0,9.7,7.9,17.6,17.6,17.6c4.9,0,9.4-2,12.6-5.3c1.2,0.7,2.2,1.2,3,1.6c-0.8,1-0.9,2.6,0,4c1,1.7,5.5,3.6,5.5,3.6S97.6,63.7,96.6,62  z M76.2,60.1c-7.1,0-12.9-5.8-12.9-12.9c0-1.5,0.3-2.9,0.7-4.3c0.9-0.5,2.7-1.7,4-3.6c0,0.6,0.1,1.3,0.3,2c0,0,1.5-0.7,3-2.1  c0.5,1.2,1.3,2.4,2.5,3.5c0,0,0.8-1.3,1.3-3.2c1.3,1.1,2.4,1.6,2.4,1.6c0.2-0.7,0.3-1.4,0.3-2.1c1,1.7,2.7,3.3,5.6,4.2  c0,0,0.1-1.6-0.3-3.6c2.1,0.9,4,1,4,1c0,0,0-0.1,0-0.1c1.2,2,1.9,4.3,1.9,6.7C89.1,54.3,83.3,60.1,76.2,60.1z M72.5,44.1  c-1.4,0-2.5,1.1-2.5,2.5c0,1.4,1.1,2.5,2.5,2.5c1.4,0,2.5-1.1,2.5-2.5C74.9,45.2,73.8,44.1,72.5,44.1z M80.2,44.1  c-1.4,0-2.5,1.1-2.5,2.5c0,1.4,1.1,2.5,2.5,2.5c1.4,0,2.5-1.1,2.5-2.5C82.7,45.2,81.6,44.1,80.2,44.1z"></path></svg>