<svg xmlns="http://www.w3.org/2000/svg" xmlns:xlink="http://www.w3.org/1999/xlink" version="1.1" x="0px" y="0px" viewBox="0 0 85 85" enable-background="new 0 0 85 85" xml:space="preserve"><g display="none"><g display="inline"><path d="M42.5,24.407c-9.973,0-18.142,8.168-18.142,18.142c0,9.973,8.168,18.133,18.142,18.133c9.965,0,18.143-8.16,18.143-18.133    C60.643,32.575,52.465,24.407,42.5,24.407z M42.5,50.619c-4.46,0-8.071-3.61-8.071-8.07c0-4.372,3.61-8.168,8.071-8.168    c4.371,0,8.168,3.796,8.168,8.168C50.668,47.009,46.871,50.619,42.5,50.619z"></path><path d="M42.5,0C19.024,0,0,19.028,0,42.496C0,65.977,19.024,85,42.5,85C65.977,85,85,65.977,85,42.496C85,19.028,65.977,0,42.5,0    z M42.5,68.283c-22.132,0-37.036-25.734-37.036-25.734S20.368,16.717,42.5,16.717c22.125,0,37.036,25.832,37.036,25.832    S64.625,68.283,42.5,68.283z"></path></g></g><g><g><path d="M42.916,20.032c0.021,1.266,0.042,2.605,0.063,4.001c0.014,1.341,0.029,2.735,0.046,4.168l0,0    c7.563,0.258,13.648,6.422,13.783,14.015c-0.549-0.005-1.102-0.013-1.662-0.02c-0.717-0.003-1.445-0.01-2.18-0.016    c-0.148-5.448-4.488-9.867-9.906-10.139c0.012,1.326,0.021,2.671,0.023,4.033c0.003,1.18,0.006,2.374,0.009,3.569    c-0.181-0.036-0.366-0.056-0.559-0.056c-0.131,0-0.259,0.013-0.386,0.029c0.004-1.187,0.006-2.37,0.01-3.542    c0.001-1.365,0.014-2.711,0.024-4.038c0.006-0.735,0.013-1.464,0.017-2.185c0.006-0.559,0.012-1.109,0.018-1.656    c0.016-1.432,0.031-2.824,0.047-4.164c0.021-1.396,0.043-2.735,0.063-4.004c-12.231,0.114-22.155,10.057-22.234,22.294    c1.249-0.02,2.566-0.042,3.94-0.063c1.358-0.015,2.771-0.031,4.224-0.046l0,0c0.137-7.652,6.316-13.85,13.96-14.017    c-0.005,0.546-0.012,1.097-0.019,1.655c-0.004,0.72-0.01,1.45-0.017,2.186c-5.497,0.183-9.929,4.635-10.083,10.141    c1.309-0.011,2.634-0.021,3.977-0.023c1.19-0.004,2.392-0.006,3.597-0.01c-0.012,0.107-0.02,0.215-0.02,0.323c0,0,0,0,0,0.001    c0-0.108,0.008-0.215,0.02-0.322c0.146-1.311,1.173-2.354,2.476-2.529c0.127-0.016,0.256-0.029,0.387-0.029    c0.19,0,0.377,0.02,0.559,0.056c1.221,0.239,2.162,1.25,2.303,2.502l0,0c1.185,0.003,2.361,0.006,3.529,0.01    c1.365,0,2.715,0.011,4.043,0.023c0.733,0.005,1.461,0.012,2.18,0.017c0.562,0.006,1.113,0.013,1.662,0.019    c1.431,0.015,2.82,0.03,4.158,0.045c1.398,0.016,2.737,0.038,4.008,0.061C64.896,30.143,55.066,20.236,42.916,20.032z"></path><path d="M42.534,45.354c-0.133,0-0.259-0.015-0.386-0.029C42.274,45.339,42.401,45.354,42.534,45.354L42.534,45.354z"></path><path d="M42.5,0C19.028,0,0,19.027,0,42.499C0,65.973,19.028,85,42.5,85C65.973,85,85,65.973,85,42.499C85,19.027,65.973,0,42.5,0    z M73.984,42.715c-0.906,0.024-2.002,0.05-3.252,0.082l0,0C70.559,58.109,58.119,70.529,42.798,70.67    c0.001-0.027,0.002-0.056,0.002-0.083c0.035-1.312,0.072-2.791,0.097-4.405c0.009-0.416,0.016-0.841,0.024-1.273    c12.047-0.203,21.813-9.948,22.052-21.987h-0.002c-1.268,0.024-2.605,0.045-4.003,0.061c-1.341,0.013-2.733,0.029-4.166,0.045l0,0    c-0.288,7.455-6.313,13.459-13.776,13.713c0.008-0.52,0.014-1.042,0.02-1.572c-0.008,0.529-0.014,1.053-0.02,1.572    c-0.017,1.453-0.029,2.869-0.045,4.229c-0.016,1.373-0.037,2.689-0.061,3.939c-0.008,0.434-0.015,0.857-0.023,1.273    c-0.025,1.613-0.062,3.094-0.098,4.405c0,0.027-0.001,0.056-0.002,0.083c-0.031,1.277-0.059,2.395-0.083,3.314    c-0.021,0.94-0.052,1.682-0.067,2.187c-0.018,0.505-0.025,0.772-0.025,0.772s-0.011-0.269-0.027-0.772    c-0.016-0.504-0.047-1.245-0.067-2.187c-0.022-0.922-0.051-2.035-0.083-3.313l0,0c-15.4-0.05-27.932-12.505-28.108-27.875    c1.332,0.035,2.839,0.07,4.486,0.097c0.417,0.007,0.843,0.014,1.276,0.021c0.236,12.099,10.095,21.881,22.224,21.996    c-0.022-1.251-0.044-2.568-0.06-3.943c-0.015-1.356-0.031-2.771-0.047-4.223l0,0c-7.544-0.168-13.659-6.208-13.948-13.722    c0.524,0.006,1.053,0.014,1.587,0.02c0.743,0.002,1.498,0.01,2.257,0.016c0.301,5.368,4.671,9.662,10.07,9.844    c-0.011-1.307-0.024-2.633-0.024-3.978c-0.002-1.19-0.006-2.396-0.008-3.602c-1.201-0.162-2.167-1.063-2.425-2.229    c0-0.001,0-0.001,0-0.002c-1.224-0.004-2.441-0.006-3.647-0.009c-1.339-0.003-2.662-0.013-3.966-0.026    c-0.76-0.005-1.515-0.012-2.258-0.016c-0.534-0.004-1.063-0.012-1.587-0.018c-1.456-0.017-2.872-0.031-4.231-0.046    c-1.373-0.023-2.689-0.043-3.938-0.062c-0.434-0.007-0.859-0.014-1.276-0.021c-1.647-0.027-3.154-0.063-4.485-0.097    c-1.278-0.033-2.396-0.063-3.318-0.083c-0.942-0.02-1.682-0.051-2.187-0.067c-0.505-0.017-0.773-0.026-0.773-0.026    s0.269-0.009,0.771-0.028c0.505-0.016,1.246-0.047,2.188-0.067c0.922-0.02,2.037-0.05,3.314-0.083c0,0,0,0,0.001,0    c0.016-15.509,12.614-28.126,28.116-28.173c-0.001,0.033-0.002,0.068-0.002,0.101c0-0.033,0.001-0.068,0.002-0.101    c0.031-1.251,0.063-2.346,0.08-3.252c0.021-0.941,0.053-1.682,0.068-2.187c0.017-0.504,0.026-0.773,0.026-0.773    s0.009,0.269,0.027,0.772c0.015,0.504,0.048,1.245,0.067,2.187c0.02,0.908,0.05,2.004,0.082,3.254c0,0,0,0,0,0.001    c15.421,0.143,27.925,12.724,27.938,28.175c1.248,0.032,2.343,0.059,3.248,0.082c0.941,0.021,1.683,0.053,2.187,0.067    c0.505,0.017,0.772,0.028,0.772,0.028s-0.269,0.009-0.772,0.026C75.667,42.664,74.927,42.696,73.984,42.715z"></path><path d="M43.094,45.296L43.094,45.296c-0.005,1.218-0.007,2.431-0.011,3.629c0,1.343-0.011,2.668-0.022,3.976    c-0.006,0.75-0.013,1.496-0.017,2.23c0.004-0.734,0.011-1.48,0.019-2.232c5.315-0.266,9.597-4.526,9.896-9.838    c-1.326,0.013-2.671,0.025-4.033,0.025c-1.185,0.002-2.379,0.004-3.579,0.008l0,0C45.1,44.203,44.214,45.075,43.094,45.296z"></path></g></g></svg>