<svg xmlns="http://www.w3.org/2000/svg" xmlns:xlink="http://www.w3.org/1999/xlink" version="1.1" x="0px" y="0px" viewBox="0 0 156.383 164.894" enable-background="new 0 0 156.383 164.894" xml:space="preserve"><g><path fill="#000000" d="M102.627,46.473H55.196C31.947,69.529,3.033,105.765,17.892,132.2   c11.742,20.892,38.288,26.294,64.043,25.935c25.755-0.359,50.718-6.484,59.29-25.935   C152.186,107.332,124.227,70.099,102.627,46.473z M83.249,127.275v7.447h-7.154v-6.938c-4.891-0.217-9.635-1.533-12.41-3.139   l2.189-8.539c3.067,1.678,7.374,3.21,12.119,3.21c4.16,0,7.008-1.604,7.008-4.526c0-2.771-2.336-4.525-7.738-6.351   c-7.812-2.628-13.139-6.279-13.139-13.359c0-6.425,4.525-11.462,12.337-12.995v-6.934h7.153v6.423   c4.891,0.22,8.178,1.243,10.586,2.411l-2.117,8.248c-1.898-0.804-5.257-2.482-10.512-2.482c-4.745,0-6.279,2.043-6.279,4.089   c0,2.409,2.555,3.942,8.76,6.277c8.687,3.067,12.19,7.082,12.19,13.652C96.243,120.267,91.645,125.816,83.249,127.275z"></path><path fill="#000000" d="M116.649,10.713c-6.508-3.945-14.517,10.281-20.234,10.061c-5.719-0.22-10.23-14.257-16.759-14.028   c-6.529,0.229-9.112,13.004-14.351,14.201c-5.239,1.197-18.298-15.075-23.537-9.36c-4.244,4.631,8.742,23.137,13.825,29.998h4.644   h37.835h4.35C107.749,34.317,121.98,13.944,116.649,10.713z"></path></g></svg>