<svg xmlns="http://www.w3.org/2000/svg" xmlns:xlink="http://www.w3.org/1999/xlink" version="1.1" x="0px" y="0px" viewBox="0 0 72 72" enable-background="new 0 0 72 72" xml:space="preserve"><g><path fill="#000000" d="M42,32.3h1.6c0.1,0,0.2-0.1,0.2-0.2V30c0-0.1,0.1-0.2,0.2-0.2c1.4-0.2,2.6-0.7,3.4-1.5   c0.9-0.9,1.3-2,1.3-3.5c0-1.5-0.4-2.6-1.3-3.4c-0.9-0.8-2.2-1.6-4.1-2.3c-1-0.4-1.7-0.8-2-1.2c-0.4-0.4-0.6-0.9-0.6-1.6   c0-0.7,0.2-1.2,0.5-1.6s0.9-0.6,1.6-0.6c0.7,0,1.2,0.3,1.6,0.8c0.4,0.5,0.6,1.2,0.6,2c0,0.1,0.1,0.3,0.3,0.3h3   c0.2,0,0.3-0.1,0.3-0.3c0,0,0,0,0-0.1c0-1.5-0.4-2.7-1.2-3.6c-0.8-1-1.9-1.6-3.2-1.8c-0.1,0-0.2-0.1-0.2-0.2V8.8   c0-0.1-0.1-0.2-0.2-0.2h-1.6c-0.1,0-0.2,0.1-0.2,0.2v2.3c0,0.1-0.1,0.2-0.2,0.2c-1.4,0.2-2.6,0.7-3.4,1.6c-0.9,0.9-1.3,2-1.3,3.4   c0,1.5,0.4,2.7,1.3,3.5c0.9,0.8,2.3,1.6,4.1,2.2c0.9,0.4,1.6,0.8,2,1.2c0.4,0.4,0.6,1,0.6,1.6c0,0.7-0.2,1.2-0.6,1.6   c-0.4,0.4-1,0.6-1.7,0.6c-0.8,0-1.4-0.2-1.9-0.7c-0.5-0.5-0.7-1.2-0.8-2.2c0-0.1-0.1-0.2-0.2-0.2h-3.2c-0.1,0-0.2,0.1-0.2,0.2   c0,0.2,0,0.4,0,0.5c0.1,1.5,0.6,2.7,1.5,3.5c1,0.9,2.2,1.5,3.7,1.6c0.1,0,0.2,0.1,0.2,0.2v2.1C41.8,32.2,41.9,32.3,42,32.3z"></path><path fill="#000000" d="M36.4,51.1l-2.2-0.2c-0.5,0-0.8-0.4-0.9-0.8c-0.2-1.2-0.6-2.3-1.1-3.4c-0.2-0.4-0.1-0.9,0.3-1.2l1.7-1.4   c0.4-0.4,0.5-1,0.1-1.4l-2.9-3.4c-0.4-0.4-1-0.5-1.4-0.1l-1.7,1.4c-0.3,0.3-0.8,0.3-1.2,0c-1-0.7-2-1.2-3.1-1.6   c-0.4-0.2-0.7-0.6-0.7-1l0.2-2.2c0-0.5-0.4-1-0.9-1.1l-4.4-0.4c-0.5,0-1,0.4-1.1,0.9L17,37.4c0,0.5-0.4,0.8-0.8,0.9   c-1.2,0.2-2.3,0.6-3.4,1.1c-0.4,0.2-0.9,0.1-1.2-0.3l-1.4-1.7c-0.4-0.4-1-0.5-1.4-0.1l-3.4,2.9c-0.4,0.4-0.5,1-0.1,1.4l1.4,1.7   c0.3,0.3,0.3,0.8,0,1.2c-0.7,1-1.2,2-1.6,3.1c-0.2,0.4-0.6,0.7-1,0.7L2,48.1c-0.5,0-1,0.4-1.1,0.9l-0.4,4.4c0,0.5,0.4,1,0.9,1.1   l2.2,0.2c0.5,0,0.8,0.4,0.9,0.8c0.2,1.2,0.6,2.3,1.1,3.4c0.2,0.4,0.1,0.9-0.3,1.2l-1.7,1.4c-0.4,0.4-0.5,1-0.1,1.4l2.9,3.4   c0.4,0.4,1,0.5,1.4,0.1L9.4,65c0.3-0.3,0.8-0.3,1.2,0c1,0.7,2,1.2,3.1,1.6c0.4,0.2,0.7,0.6,0.7,1l-0.2,2.2c0,0.5,0.4,1,0.9,1.1   l4.4,0.4c0.5,0,1-0.4,1.1-0.9l0.2-2.2c0-0.5,0.4-0.8,0.8-0.9c1.2-0.2,2.3-0.6,3.4-1.1c0.4-0.2,0.9-0.1,1.2,0.3l1.4,1.7   c0.4,0.4,1,0.5,1.4,0.1l3.4-2.9c0.4-0.4,0.5-1,0.1-1.4l-1.4-1.7c-0.3-0.3-0.3-0.8,0-1.2c0.7-1,1.2-2,1.6-3.1c0.2-0.4,0.6-0.7,1-0.7   l2.2,0.2c0.5,0,1-0.4,1.1-0.9l0.4-4.4C37.4,51.6,37,51.1,36.4,51.1z M18.1,62C13,61.5,9.3,57,9.7,52c0.4-5.1,4.9-8.8,10-8.4   c5.1,0.4,8.8,4.9,8.4,10C27.7,58.6,23.2,62.4,18.1,62z"></path><path fill="#000000" d="M42.7,0.7c-10.9,0-19.8,8.9-19.8,19.8c0,10.9,8.9,19.8,19.8,19.8c10.9,0,19.8-8.9,19.8-19.8   C62.5,9.5,53.6,0.7,42.7,0.7z M42.7,35c-8,0-14.5-6.5-14.5-14.5c0-8,6.5-14.5,14.5-14.5c8,0,14.5,6.5,14.5,14.5   C57.2,28.5,50.7,35,42.7,35z"></path><g><path fill="#000000" d="M56.3,41c-8.4,0-15.2,6.8-15.2,15.2c0,8.4,6.8,15.2,15.2,15.2c8.4,0,15.2-6.8,15.2-15.2    C71.5,47.8,64.7,41,56.3,41z M56.3,67.3c-6.1,0-11.1-5-11.1-11.1c0-6.1,5-11.1,11.1-11.1c6.1,0,11.1,5,11.1,11.1    C67.5,62.3,62.5,67.3,56.3,67.3z"></path><g><path fill="#000000" d="M60.3,61.9c-0.5,0-1-0.2-1.4-0.5l-4-3.8c-0.4-0.4-0.6-0.9-0.6-1.4v-6.9c0-1,0.7-1.9,1.6-2     c1.2-0.2,2.3,0.7,2.3,1.9v5.9c0,0.2,0.1,0.3,0.2,0.4l3.1,3c0.8,0.7,0.9,2,0.2,2.8C61.4,61.7,60.9,61.9,60.3,61.9z"></path></g></g></g></svg>