<svg xmlns="http://www.w3.org/2000/svg" xmlns:xlink="http://www.w3.org/1999/xlink" version="1.1" x="0px" y="0px" viewBox="0 0 100 100" enable-background="new 0 0 100 100" xml:space="preserve"><g><path d="M81.783,36.531l-18.694,5.394l1.43,4.947l18.692-5.394L81.783,36.531z M81.392,37.24l1.11,3.847l-17.594,5.076   l-1.111-3.847L81.392,37.24z M63.111,34.078l-0.158-0.55l15.785-4.555l0.159,0.55L63.111,34.078L63.111,34.078z M62.407,48.066   l-0.158-0.55l-19.844,5.726l-1.321-4.583l19.842-5.725l-0.158-0.55L40.925,48.11l-1.507-5.223l-0.55,0.159l1.507,5.223   l-9.714,2.803l-1.507-5.223l-0.55,0.159l1.507,5.223L17.74,54.8l0.159,0.55l12.371-3.568l1.321,4.582l-12.37,3.568l0.158,0.551   l12.371-3.569l0.979,3.39l0.55-0.158l-0.979-3.391l9.714-2.802l0.978,3.389l0.55-0.157l-0.978-3.39L62.407,48.066z M32.142,56.202   l-1.322-4.581l9.714-2.803l1.321,4.583L32.142,56.202z M82.677,49.119l-0.047,0.204c-0.075,0.337-0.153,0.683-0.33,0.919   c-0.357-0.369-0.515-0.933-0.68-1.525c-0.123-0.438-0.251-0.892-0.47-1.268l-0.208-0.356l-0.259,0.319   c-0.565,0.69-0.719,1.636-0.851,2.473c-0.021-0.021-0.038-0.039-0.056-0.058c-0.854-0.884-1.737-1.799-1.72-2.984l-0.569-0.048   c-0.104,0.669-0.345,1.404-0.6,2.182c-0.269,0.826-0.543,1.667-0.678,2.487c-0.333-0.465-0.767-0.944-1.212-1.434   c-0.146-0.162-0.295-0.325-0.439-0.488c0.208-1.336,0.083-2.707-0.9-3.593l-0.188-0.168l-0.189,0.163   c-0.4,0.343-0.619,0.744-0.646,1.191c-0.054,0.837,0.563,1.71,1.312,2.573c-0.184,0.968-0.53,1.884-0.771,2.444l0.525,0.225   c0.253-0.587,0.53-1.336,0.72-2.133c0.053,0.057,0.104,0.113,0.154,0.17c0.64,0.703,1.292,1.422,1.556,2.036   c0.003,0.286,0.031,0.569,0.093,0.848l0.557,0.013c0.085-0.314,0.047-0.639-0.076-0.97c0.02-1.005,0.378-2.11,0.731-3.186   c0.113-0.351,0.226-0.694,0.323-1.028c0.357,0.805,1.009,1.479,1.604,2.097c0.152,0.158,0.304,0.313,0.445,0.467l0.389,0.422   l0.104-0.563c0.034-0.183,0.063-0.37,0.093-0.561c0.101-0.628,0.201-1.274,0.465-1.801c0.076,0.212,0.142,0.444,0.208,0.682   c0.21,0.749,0.425,1.523,1.078,1.991l0.17,0.123l0.167-0.125c0.465-0.344,0.6-0.936,0.707-1.413l0.044-0.194L82.677,49.119z    M74.051,48.94c-0.507-0.633-0.878-1.244-0.845-1.77c0.015-0.217,0.1-0.417,0.26-0.605C73.995,47.183,74.12,48.051,74.051,48.94z    M33.309,64.928l-1.355,0.393l-0.623-2.139l1.356-0.396L33.309,64.928z M34.558,64.564l-0.75,0.217l-0.622-2.139l0.749-0.22   L34.558,64.564z M36.15,64.1l-0.938,0.272l-0.623-2.14l0.938-0.271L36.15,64.1z M37.577,63.686l-0.938,0.272l-0.623-2.14   l0.938-0.273L37.577,63.686z M39.3,63.184l-1.355,0.396l-0.622-2.14l1.356-0.396L39.3,63.184z M40.548,62.82l-0.749,0.219   l-0.623-2.141l0.75-0.219L40.548,62.82z M42.141,62.357l-0.938,0.271l-0.623-2.139l0.938-0.273L42.141,62.357z M43.567,61.941   l-0.938,0.273l-0.623-2.14l0.938-0.272L43.567,61.941z M47.795,58.395l1.355-0.396l0.622,2.143l-1.356,0.394L47.795,58.395z    M46.546,58.756l0.75-0.218l0.622,2.14l-0.75,0.219L46.546,58.756z M44.954,59.219l0.938-0.273l0.623,2.143l-0.938,0.271   L44.954,59.219z M43.527,59.634l0.937-0.272l0.623,2.14l-0.937,0.272L43.527,59.634z M89.322,51.486L80.491,20.88l-22.259,6.423   c-1.796-1.837-4.288-2.992-7.037-3.017c2.758-1.079,4.717-3.757,4.717-6.899c0-4.093-3.316-7.412-7.411-7.412   c-4.093,0-7.411,3.318-7.411,7.412c0,3.142,1.958,5.82,4.718,6.899c-5.27,0.05-9.584,4.234-9.862,9.447l-5.009,1.445   c-0.651-1.15-1.872-1.936-3.287-1.936c-2.094,0-3.792,1.698-3.792,3.792c0,0.062,0.015,0.12,0.019,0.18L10.484,41.08l8.832,30.605   l20.696-5.972v21.978c0,1.224,1.213,2.223,2.697,2.223h2.128c1.484,0,2.698-0.999,2.698-2.223V66.165h1.931v21.526   c0,1.224,1.215,2.223,2.698,2.223h2.128c1.484,0,2.698-0.999,2.698-2.223V64.216c1.502-1.106,2.683-2.622,3.382-4.377l6.442-1.858   c0.614,1.27,1.901,2.151,3.406,2.151c2.093,0,3.791-1.698,3.791-3.792c0-0.146-0.026-0.281-0.042-0.424L89.322,51.486z    M27.649,40.828c1.531,0,2.843-0.913,3.44-2.22l1.31-0.377l1.11,3.849l-17.594,5.076l-1.109-3.849l10.772-3.109   C26.174,40.592,26.881,40.828,27.649,40.828z M70.222,52.548c-2.095,0-3.793,1.699-3.793,3.792c0,0.188,0.028,0.365,0.056,0.545   L20.099,70.27l-8.197-28.407l12.2-3.52c0.199,0.542,0.519,1.026,0.924,1.42l-10.929,3.153l1.427,4.948l18.693-5.393l-1.428-4.949   l-1.472,0.425c0.073-0.293,0.123-0.595,0.123-0.911c0-0.27-0.03-0.533-0.084-0.787L79.71,22.298l8.196,28.406l-14.221,4.104   C73.095,53.479,71.769,52.548,70.222,52.548z"></path></g></svg>