<svg xmlns="http://www.w3.org/2000/svg" xmlns:xlink="http://www.w3.org/1999/xlink" version="1.1" x="0px" y="0px" viewBox="0 0 100 100" enable-background="new 0 0 100 100" xml:space="preserve"><g><path d="M80.4,72.3H79c0,0.1,0,0.2-0.1,0.3c-0.1,0.1-0.2,0.1-0.3,0.1H56.3c-0.1,0-0.2,0-0.3-0.1c-0.1-0.1-0.1-0.2-0.1-0.3V30.1   c0-0.1,0-0.2,0.1-0.3c0.1-0.1,0.2-0.1,0.3-0.1h22.3c0.1,0,0.2,0,0.3,0.1c0.1,0.1,0.1,0.2,0.1,0.3v42.1H80.4h1.4V30.1   c0-1.8-1.5-3.3-3.3-3.3H56.3c-1.8,0-3.3,1.5-3.3,3.3v42.1c0,1.8,1.5,3.3,3.3,3.3h22.3c1.8,0,3.3-1.5,3.3-3.3H80.4z"></path></g><g><g><path d="M48.3,44.7c0,0.5-0.6,1-1.4,1H18.4c-0.8,0-1.4-0.5-1.4-1c0-0.6,0.6-1,1.4-1H47C47.7,43.7,48.3,44.1,48.3,44.7z"></path></g><g><path d="M48.3,53.6c0,0.6-0.6,1-1.4,1H18.4c-0.8,0-1.4-0.4-1.4-1c0-0.5,0.6-1,1.4-1H47C47.7,52.6,48.3,53.1,48.3,53.6z"></path></g><g><path d="M48.3,62.6c0,0.5-0.6,1-1.4,1H18.4c-0.8,0-1.4-0.5-1.4-1s0.6-1,1.4-1H47C47.7,61.6,48.3,62,48.3,62.6z"></path></g><g><path d="M48.3,71.5c0,0.6-0.6,1-1.4,1H18.4c-0.8,0-1.4-0.4-1.4-1s0.6-1,1.4-1H47C47.7,70.5,48.3,71,48.3,71.5z"></path></g></g><g><polygon fill="#000000" points="4.9,87.7 4.9,87.7 4.9,87.7  "></polygon><path fill="#000000" d="M95.2,16.3c0-0.7-0.1-1.4-0.2-2.1l0,0v0c-0.1-0.4-0.2-0.8-0.3-1.2l0,0l0,0c-0.1-0.2-0.2-0.4-0.3-0.7l0,0   l0,0c-0.1-0.1-0.2-0.3-0.3-0.4l0,0l0,0c-0.2-0.2-0.4-0.3-0.7-0.5l0,0l0,0c-0.4-0.2-0.6-0.2-0.9-0.3l0,0l0,0   c-0.8-0.2-1.8-0.3-2.7-0.3h0l-79.2-0.1h0h0c-0.6,0-1.3,0-1.9,0.1l0,0h0c-0.3,0-0.6,0.1-0.9,0.2l0,0l0,0c-0.3,0.1-0.5,0.1-0.9,0.3   l0,0l0,0c-0.3,0.2-0.5,0.3-0.7,0.5l0,0l0,0c-0.3,0.3-0.4,0.5-0.5,0.7l0,0l0,0c-0.2,0.4-0.3,0.7-0.4,1l0,0l0,0c-0.3,1-0.4,2-0.4,2.9   v0L4.8,85.8v0c0,0.6,0,1.3,0.1,1.9l0,0c0,0.3,0.1,0.6,0.1,0.8l0,0l0,0c0.1,0.3,0.1,0.5,0.2,0.9l0,0l0.1,0.3l0,0   c0.2,0.4,0.5,0.6,0.7,0.8l0,0l0,0c0.4,0.3,0.8,0.5,1.1,0.6l0,0l0,0c0.5,0.2,1,0.3,1.6,0.4l0,0c0.5,0.1,1.1,0.1,1.6,0.1l79.2,0.1h0   h0c0.6,0,1.3,0,1.9-0.1l0,0l0,0l0,0c0.3,0,0.6-0.1,0.9-0.2l0,0l0,0c0.3-0.1,0.5-0.1,0.9-0.3l0,0l0,0c0.3-0.2,0.5-0.3,0.7-0.5l0,0   l0,0c0.3-0.3,0.4-0.5,0.5-0.7l0,0l0,0c0.2-0.4,0.3-0.7,0.4-1l0,0l0,0c0.3-1,0.4-2,0.4-2.9v0l0.1-69.3v0v0v0L95.2,16.3L95.2,16.3z    M90.8,16.6L90.8,16.6L90.8,16.6l-0.1,69.3v0l0,0c0,0.3-0.1,0.8-0.1,1.3c-0.3,0-0.7,0.1-1,0.1l0,0h0l-79.2-0.1h0l0,0   c-0.2,0-0.7-0.1-1.1-0.1c0-0.4-0.1-0.8-0.1-1.2v0v0v0l0.1-69.3v0l0,0c0-0.3,0.1-0.8,0.1-1.3c0.3,0,0.7-0.1,1-0.1h0h0l79.2,0.1h0h0   c0.3,0,0.7,0,1,0.1C90.8,15.7,90.8,16.3,90.8,16.6L90.8,16.6z"></path></g></svg>