<svg xmlns="http://www.w3.org/2000/svg" xmlns:xlink="http://www.w3.org/1999/xlink" version="1.0" x="0px" y="0px" viewBox="0 0 50 50" enable-background="new 0 0 50 50" xml:space="preserve"><g><g><path fill="#000000" d="M4.163,30.571c5,4.417,11.824,5.444,17.668,3.263l13.223,11.682c3.393,2.998,8.57,2.676,11.566-0.716    c2.998-3.392,2.678-8.57-0.715-11.567L32.683,21.551c1.445-6.069-0.414-12.715-5.414-17.133    c-4.756-4.201-13.483-1.484-19.864,5.738C1.026,17.377-0.792,26.195,4.163,30.571z M33.292,29.232    c1.588,1.402,2.035,3.494,0.994,4.669c-1.039,1.177-3.168,0.993-4.756-0.409c-1.588-1.403-2.033-3.494-0.992-4.67    C29.575,27.646,31.706,27.83,33.292,29.232z M24.456,8.64c3.065,2.706,1.866,9.069-2.678,14.212    c-4.545,5.142-10.711,7.117-13.773,4.41c-3.064-2.707-1.865-9.069,2.678-14.212C15.227,7.907,21.393,5.933,24.456,8.64z"></path><ellipse transform="matrix(-0.662 0.7495 -0.7495 -0.662 44.4292 18.9074)" fill="#000000" cx="17.952" cy="19.471" rx="3.817" ry="2.704"></ellipse></g><ellipse transform="matrix(-0.7496 -0.6619 0.6619 -0.7496 34.3493 75.3512)" fill="#000000" cx="31.428" cy="31.178" rx="1.854" ry="1.507"></ellipse></g></svg>