<svg xmlns="http://www.w3.org/2000/svg" xmlns:xlink="http://www.w3.org/1999/xlink" version="1.1" x="0px" y="0px" viewBox="0 0 90 90" enable-background="new 0 0 90 90" xml:space="preserve"><g><path fill="#000000" d="M70.678,46.706v-7.508c0-14.167-11.485-25.653-25.653-25.653S19.372,25.032,19.372,39.198v7.508   c0,14.171,11.485,25.655,25.653,25.655C59.192,72.361,70.678,60.877,70.678,46.706z"></path><path fill="#000000" d="M79.45,31.974h-0.163C76.299,16.326,62.076,4.432,45.024,4.432S13.749,16.325,10.762,31.974H10.55   c-1.759,0-3.184,1.425-3.184,3.184v15.592c0,1.759,1.425,3.184,3.184,3.184h4.742V31.974h-0.265   c2.937-13.327,15.27-23.358,29.996-23.358s27.06,10.033,29.997,23.358h-0.314v21.961h0.105   C73.414,67.574,63.366,78.607,50.41,81.162c-0.484-0.54-1.18-0.886-1.961-0.886h-6.848c-1.46,0-2.646,1.184-2.646,2.646   c0,1.46,1.184,2.646,2.646,2.646h6.847c1.112,0,2.06-0.688,2.452-1.66c14.259-2.79,25.3-14.962,26.713-29.975h1.837   c1.759,0,3.184-1.425,3.184-3.184V35.157C82.632,33.4,81.207,31.974,79.45,31.974z"></path></g></svg>