<svg xmlns="http://www.w3.org/2000/svg" xmlns:xlink="http://www.w3.org/1999/xlink" version="1.1" x="0px" y="0px" viewBox="0 0 100 100" enable-background="new 0 0 100 100" xml:space="preserve"><path d="M69.7,31.7C69.7,31.6,69.7,31.7,69.7,31.7C69.7,31.7,69.7,31.7,69.7,31.7z M25.8,33.6c1.3,4.5,2.5,5.8,3.4,5.9  c1,6.5,4.6,14.9,15.8,15.8c11.1-0.4,14.5-8.7,15.7-15c0.9,0.6,2.4,0.3,4.1-5.6c1.4-4.8,0.5-6.4-0.6-6.8c3.8-18.3-4.9-19-4.9-19  s-1.3-2.5-4.8-4.5c-2.3-1.4-5.6-2.5-9.9-2.1c-1.4,0.1-2.7,0.3-3.9,0.7l0,0c-1.6,0.5-3,1.3-4.3,2.2c-1.6,1-3.1,2.3-4.4,3.7  c-2.1,2.2-4,4.9-4.8,8.4c-0.8,3-0.8,6.1,0.4,9.4C25.9,26.5,24.1,27.5,25.8,33.6z M45.5,89.4h18.9c0-1,0.2-1.9,0.4-2.4  c0.3-1.2,0.6-2.3,1-3.4c0.2-0.7,0.5-1.5,1.1-2.3c0.9-1.2,2.3-2,3.7-2.2c-5.2-3.8-6.1-8.5-5.9-12c0.2-3.1,1.2-5.8,2.9-8  c-5.7-2.6-8.9-4.7-8.9-4.7L51.6,77l-1,3.1L47.4,71c7.3-10.2-0.6-10.7-1.9-10.7v0c0,0,0,0,0,0c0,0,0,0,0,0c0,0,0,0,0,0c0,0,0,0,0,0v0  c-1.4,0-9.3,0.5-1.9,10.7l-3.2,9.1l-1-3.1l-7.1-22.6c0,0-5.5,3.6-14.8,7.2C7.1,65.3,7.8,73.7,7.6,89.4H45.5L45.5,89.4z M84.8,91.8  c2.2-0.6,4-1.8,5.5-3.5c3.9-4.8,2.4-11.8-3.2-14.9c-1.8-1-3.6-1.7-5.5-2.5c-1.1-0.4-2.1-1-3-1.7c-1.8-1.4-1.4-3.7,0.7-4.6  c0.6-0.3,1.2-0.3,1.8-0.4c2.4-0.1,4.7,0.3,6.9,1.4c1.1,0.5,1.5,0.4,1.8-0.8c0.4-1.2,0.7-2.4,1.1-3.6c0.2-0.8-0.1-1.4-0.8-1.7  c-1.4-0.6-2.8-1.1-4.4-1.3c-2-0.3-2-0.3-2-2.3c0-2.8,0-2.8-2.8-2.8c-0.4,0-0.8,0-1.2,0c-1.3,0-1.5,0.3-1.6,1.6c0,0.6,0,1.2,0,1.8  c0,1.8,0,1.7-1.7,2.3c-4.1,1.5-6.6,4.3-6.9,8.7c-0.2,3.9,1.8,6.6,5,8.5c2,1.2,4.2,1.9,6.3,2.8c0.8,0.4,1.6,0.8,2.3,1.3  c2,1.7,1.7,4.5-0.7,5.5c-1.3,0.6-2.6,0.7-4,0.5c-2.2-0.3-4.2-0.8-6.2-1.8c-1.1-0.6-1.5-0.4-1.9,0.8c-0.3,1.1-0.6,2.1-0.9,3.2  c-0.4,1.4-0.3,1.8,1.1,2.5c1.8,0.8,3.6,1.3,5.5,1.6c1.5,0.2,1.5,0.3,1.6,1.9c0,0.7,0,1.4,0,2.1c0,0.9,0.4,1.4,1.3,1.4  c1,0,2.1,0,3.1,0c0.8,0,1.3-0.5,1.3-1.3c0-1,0-1.9,0-2.9C83.4,92.6,83.8,92.1,84.8,91.8z"></path></svg>