<svg xmlns="http://www.w3.org/2000/svg" xmlns:xlink="http://www.w3.org/1999/xlink" version="1.1" x="0px" y="0px" viewBox="0 0 100 100" enable-background="new 0 0 100 100" xml:space="preserve"><g><g><path d="M23.149,57.792c1.032,1.032,1.032,2.708,0,3.74c-0.512,0.511-1.191,0.776-1.87,0.776s-1.358-0.265-1.87-0.776    l-4.948-4.948l-4.948,4.948c-0.512,0.511-1.191,0.776-1.87,0.776s-1.358-0.265-1.87-0.776c-1.032-1.032-1.032-2.708,0-3.74    l4.948-4.948l-4.948-4.948c-1.032-1.032-1.032-2.708,0-3.74c1.032-1.041,2.708-1.041,3.74,0l4.948,4.948l4.948-4.948    c1.032-1.041,2.708-1.041,3.74,0c1.032,1.032,1.032,2.708,0,3.74l-4.948,4.948L23.149,57.792z"></path></g></g><g><g><path d="M48.435,36.184c1.032,1.032,1.032,2.708,0,3.74c-0.52,0.511-1.199,0.776-1.87,0.776c-0.679,0-1.358-0.265-1.878-0.776    l-4.939-4.948l-4.948,4.948c-0.52,0.511-1.2,0.776-1.87,0.776c-0.679,0-1.358-0.265-1.87-0.776c-1.041-1.032-1.041-2.708,0-3.74    l4.948-4.948l-4.948-4.948c-1.041-1.032-1.041-2.708,0-3.74c1.032-1.041,2.708-1.041,3.74,0l4.948,4.948l4.939-4.948    c1.041-1.041,2.717-1.041,3.748,0c1.032,1.032,1.032,2.708,0,3.74l-4.948,4.948L48.435,36.184z"></path></g></g><g><g><path d="M94.226,68.737c1.032,1.032,1.032,2.708,0,3.74c-0.52,0.52-1.199,0.776-1.87,0.776c-0.679,0-1.358-0.256-1.87-0.776    l-4.948-4.948l-4.948,4.948c-0.52,0.52-1.199,0.776-1.87,0.776c-0.679,0-1.358-0.256-1.87-0.776c-1.041-1.032-1.041-2.708,0-3.74    l4.948-4.948l-4.948-4.948c-1.041-1.032-1.041-2.708,0-3.74c1.032-1.032,2.708-1.032,3.74,0l4.948,4.948l4.948-4.948    c1.032-1.032,2.708-1.032,3.74,0c1.032,1.032,1.032,2.708,0,3.74l-4.948,4.948L94.226,68.737z"></path></g></g><g><g><path d="M79.356,18.633l-16.008-3.96c-1.42-0.353-2.849,0.512-3.201,1.932l-3.96,15.999c-0.353,1.42,0.512,2.858,1.931,3.21    c0.212,0.053,0.423,0.071,0.635,0.071c1.191,0,2.267-0.803,2.566-2.011l2.425-9.807l0.697,1.155    c8.123,13.476,3.775,31.054-9.702,39.186c-0.944,0.564-1.923,1.076-2.919,1.526c-0.079-0.15-0.168-0.291-0.264-0.441    c-1.879-2.884-4.763-4.86-8.132-5.565c-0.873-0.185-1.773-0.282-2.664-0.282c-6.05,0-11.342,4.304-12.594,10.231    c-0.706,3.369-0.062,6.809,1.826,9.693c1.879,2.884,4.772,4.86,8.132,5.565c0.882,0.185,1.773,0.273,2.664,0.273    c6.05,0,11.342-4.304,12.594-10.231c0.291-1.411,0.353-2.831,0.185-4.216c1.34-0.582,2.646-1.261,3.907-2.02    c15.972-9.64,21.132-30.472,11.501-46.453l-0.697-1.147l9.808,2.425c1.411,0.353,2.849-0.512,3.201-1.931    C81.64,20.414,80.776,18.985,79.356,18.633z M48.196,74.091c-0.732,3.493-3.845,6.024-7.408,6.024    c-0.529,0-1.059-0.053-1.57-0.159c-1.984-0.423-3.687-1.588-4.798-3.281c-1.102-1.702-1.49-3.722-1.067-5.706    c0.732-3.493,3.845-6.033,7.409-6.033c0.529,0,1.058,0.053,1.579,0.168c1.976,0.414,3.678,1.579,4.789,3.272    C48.241,70.078,48.62,72.106,48.196,74.091z"></path></g></g></svg>