<svg xmlns:x="http://ns.adobe.com/Extensibility/1.0/" xmlns:i="http://ns.adobe.com/AdobeIllustrator/10.0/" xmlns:graph="http://ns.adobe.com/Graphs/1.0/" xmlns="http://www.w3.org/2000/svg" xmlns:xlink="http://www.w3.org/1999/xlink" version="1.1" x="0px" y="0px" viewBox="0 0 100 100" enable-background="new 0 0 100 100" xml:space="preserve"><metadata><sfw xmlns="http://ns.adobe.com/SaveForWeb/1.0/"><slices></slices><sliceSourceBounds height="16383" width="16383" x="-8141" y="-8142" bottomLeftOrigin="true"></sliceSourceBounds></sfw></metadata><g><g><path d="M25,50H15c-2.761,0-5,2.238-5,5v17.5c0,2.762,2.239,5,5,5v15h10v-15c2.761,0,5-2.238,5-5V55C30,52.238,27.761,50,25,50z"></path><circle cx="20" cy="42.5" r="5"></circle><path d="M55,50H45c-2.761,0-5,2.238-5,5v17.5c0,2.762,2.239,5,5,5v15h10v-15c2.762,0,5-2.238,5-5V55C60,52.238,57.762,50,55,50z"></path><circle cx="50" cy="42.5" r="5"></circle><path d="M85,50H75c-2.762,0-5,2.238-5,5v17.5c0,2.762,2.238,5,5,5v15h10v-15c2.762,0,5-2.238,5-5V55C90,52.238,87.762,50,85,50z"></path><circle cx="80" cy="42.5" r="5"></circle><circle cx="50" cy="12.5" r="5"></circle><circle cx="35" cy="27.5" r="5"></circle><circle cx="67.5" cy="27.5" r="5"></circle></g></g></svg>