<svg xmlns="http://www.w3.org/2000/svg" xmlns:xlink="http://www.w3.org/1999/xlink" version="1.1" x="0px" y="0px" viewBox="0 0 100 100" enable-background="new 0 0 100 100" xml:space="preserve"><g><path d="M61.489,31.026c1.9,0.91,4.119,1.434,6.48,1.471c-0.13,0.711-0.286,1.412-0.47,2.084l1.737,0.471   c0.211-0.772,0.39-1.578,0.534-2.396l-0.931-0.167c0.613-0.021,1.235-0.075,1.862-0.164c7.667-1.081,13.219-6.904,12.403-13.005   c-0.816-6.101-7.695-10.169-15.363-9.087c-7.666,1.082-13.22,6.905-12.402,13.006c0.286,2.134,1.315,4.017,2.859,5.521   c-3.107,2.005-6.133,2.606-6.133,2.606C55.912,32.112,59.004,31.902,61.489,31.026z"></path><path d="M40.084,46.363c4.751-1.982,7.979-6.233,9.233-11.349c-5.055,1.819-12.552,3.392-14.841-2.095   c-0.03-0.074-0.374-0.898-0.403-0.97c8.403-1.323,12.979-4.371,15.105-7.472c-0.275-1.065-0.63-2.127-1.069-3.181   C43.848,11.079,33.346,5.735,24.652,9.36s-12.287,14.848-8.024,25.067C20.889,44.645,31.391,49.988,40.084,46.363z"></path><path d="M41.671,71.27c0.305-5.31-4.118-10.052-10.311-11.563c0.146-0.21,0.299-0.415,0.459-0.617l-1.409-1.12   c-0.354,0.445-0.678,0.908-0.969,1.382c-0.37-0.047-0.745-0.084-1.124-0.108c-7.727-0.498-14.277,4.078-14.629,10.225   c-0.353,6.145,5.625,11.53,13.352,12.028c3.401,0.219,6.572-0.545,9.089-1.993c2.546,0.685,5.644,0.658,9.421-0.377   c0,0-3.063-0.369-6.312-2.134C40.664,75.376,41.548,73.42,41.671,71.27z"></path><path d="M71.222,55.106c-8.944-2.956-19.012,3.168-22.486,13.68c-0.357,1.083-0.631,2.17-0.826,3.252   c2.355,2.932,7.149,5.624,15.628,6.307c-0.024,0.073-0.305,0.921-0.329,0.997c-1.866,5.645-9.46,4.645-14.64,3.215   c1.639,5.004,5.18,8.999,10.067,10.616c8.943,2.956,19.009-3.169,22.485-13.681C84.596,68.98,80.164,58.063,71.222,55.106z"></path><path d="M68.979,35.939l-1.718-0.533c-0.23,0.738-0.493,1.46-0.787,2.142l1.656,0.708C68.446,37.517,68.733,36.737,68.979,35.939z"></path><path d="M67.747,39.103l-1.623-0.777c-0.33,0.69-0.699,1.357-1.096,1.984l1.519,0.965C66.982,40.587,67.387,39.857,67.747,39.103z"></path><path d="M63.815,44.661l-1.263-1.283c-0.532,0.522-1.106,1.017-1.708,1.469l1.083,1.438C62.592,45.784,63.227,45.239,63.815,44.661   z"></path><path d="M66.027,42.049l-1.472-1.036c-0.435,0.618-0.909,1.208-1.414,1.756l1.323,1.219C65.022,43.383,65.548,42.73,66.027,42.049z   "></path><path d="M55.907,49.411c0.792-0.268,1.562-0.573,2.293-0.911l-0.755-1.634c-0.672,0.311-1.383,0.593-2.116,0.841L55.907,49.411z"></path><path d="M58.211,46.493l0.823,1.601c0.743-0.383,1.46-0.808,2.135-1.266l-1.013-1.488C59.543,45.756,58.891,46.144,58.211,46.493z"></path><path d="M43.167,52.329c0.717-0.221,1.472-0.431,2.243-0.626l-0.441-1.745c-0.8,0.202-1.584,0.422-2.33,0.65L43.167,52.329z"></path><path d="M52.65,50.289c0.815-0.168,1.616-0.369,2.378-0.597l-0.516-1.724c-0.711,0.212-1.46,0.4-2.224,0.557L52.65,50.289z"></path><path d="M48.206,49.241c-0.805,0.155-1.598,0.324-2.356,0.503l0.412,1.752c0.735-0.173,1.504-0.338,2.285-0.488L48.206,49.241z"></path><path d="M31.023,57.248l1.336,1.206c0.481-0.534,1.028-1.053,1.622-1.543l-1.144-1.389C32.175,56.068,31.564,56.648,31.023,57.248z   "></path><path d="M39.363,53.72l-0.717-1.65c-0.771,0.336-1.512,0.694-2.204,1.066l0.853,1.585C37.942,54.372,38.638,54.036,39.363,53.72z"></path><path d="M49.41,50.848c0.548-0.099,1.115-0.192,1.684-0.28c0.22-0.033,0.44-0.069,0.657-0.107l-0.311-1.773   c-0.205,0.036-0.413,0.07-0.619,0.101c-0.585,0.09-1.165,0.188-1.728,0.287L49.41,50.848z"></path><path d="M36.545,55.14l-0.908-1.552c-0.733,0.428-1.428,0.885-2.064,1.359l1.076,1.443C35.231,55.956,35.87,55.534,36.545,55.14z"></path><path d="M40.162,53.386c0.691-0.276,1.422-0.544,2.175-0.793l-0.564-1.709c-0.79,0.261-1.557,0.541-2.284,0.833L40.162,53.386z"></path></g></svg>