<svg xmlns="http://www.w3.org/2000/svg" xmlns:xlink="http://www.w3.org/1999/xlink" version="1.1" x="0px" y="0px" viewBox="0 0 100 64.844" enable-background="new 0 0 100 64.844" xml:space="preserve"><path d="M24.948,11.445c0,6.328-5.13,11.445-11.432,11.445c-6.341,0-11.458-5.117-11.458-11.445C2.057,5.13,7.174,0,13.516,0  C19.818,0,24.948,5.13,24.948,11.445z"></path><path d="M75.052,11.445c0,6.328,5.131,11.445,11.433,11.445c6.341,0,11.472-5.117,11.472-11.445C97.956,5.13,92.825,0,86.484,0  C80.183,0,75.052,5.13,75.052,11.445z"></path><path d="M43.672,50.781c-0.26-2.435,0.677-4.688,2.266-6.328c-9.688-1.849-13.659-6.575-17.109-10.847  c-1.68-2.096-3.281-4.088-5.404-5.495c-0.065-0.039-0.143-0.039-0.195-0.091c-1.81-1.498-4.102-2.448-6.627-2.448h-6.185  C4.688,25.573,0,30.248,0,35.977v28.867h27.018V46.185c3.945,3.451,9.519,6.732,18.086,8.164  C44.388,53.308,43.828,52.136,43.672,50.781z"></path><path d="M89.597,25.573h-6.198c-2.513,0-4.817,0.951-6.614,2.448c-0.065,0.052-0.144,0.052-0.195,0.091  c-2.123,1.406-3.725,3.386-5.417,5.495c-3.789,4.688-8.086,10.039-20.104,11.367c-2.721,0.312-4.674,2.761-4.375,5.482  c0.273,2.539,2.422,4.414,4.921,4.414c0.183,0,0.365-0.014,0.561-0.026c10.182-1.133,16.484-4.753,20.82-8.594v18.594H100V35.977  C100,30.248,95.312,25.573,89.597,25.573z"></path></svg>