<?xml version="1.0" encoding="utf-8"?><!DOCTYPE svg PUBLIC "-//W3C//DTD SVG 1.1//EN" "http://www.w3.org/Graphics/SVG/1.1/DTD/svg11.dtd"><svg version="1.1" xmlns="http://www.w3.org/2000/svg" xmlns:xlink="http://www.w3.org/1999/xlink" x="0px" y="0px" viewBox="-13.05 3.309 100 77.447" enable-background="new -13.05 3.309 100 77.447" xml:space="preserve"><g><path d="M86.951,3.309v65.842c0,6.129-5.345,11.604-10.952,11.604H1.159c-9.257,0-14.208-4.825-14.208-16.559V16.088h13.82V3.309
		H86.951L86.951,3.309z M0.771,23.127h-6.782v41.07c0,5.998,1.432,8.866,3.257,8.866c2.219,0,3.524-2.868,3.524-8.866V23.127z
		 M79.912,10.35H7.81v53.847c0,4.173-0.782,7.17-1.957,9.517h70.146c2.345,0,3.913-2.737,3.913-4.562V10.35z M35.581,35.122H19.023
		v-2.347h16.558V35.122z M35.581,42.814H19.023v-2.347h16.558V42.814z M35.581,50.246H19.023v-2.347h16.558V50.246z M35.581,57.418
		H19.023v-2.347h16.558V57.418z M35.581,64.848H19.023v-2.345h16.558V64.848z M21.499,20.651h43.418v4.563H21.499V20.651z
		 M42.101,32.775h27.767v26.468H42.101V32.775z"></path></g></svg>