<svg xmlns="http://www.w3.org/2000/svg" xmlns:xlink="http://www.w3.org/1999/xlink" version="1.1" x="0px" y="0px" viewBox="0 0 100 100" enable-background="new 0 0 100 100" xml:space="preserve"><path d="M83.422,32.666c-1.639-5.632-5.479-11.338-10.535-15.649c-4.302-3.669-11.535-8.042-21.561-8.042  c-8.412,0-17.009,3.516-23.584,9.644c-6.645,6.194-10.455,14.351-10.455,22.38c0,7.512,2.377,14.963,6.873,21.541  c2.367,3.467,4.74,5.85,6.008,7.012v13.904c0,1.204,0.867,2.234,2.053,2.439L61.6,90.989c0.143,0.024,0.283,0.037,0.426,0.037  c0.576,0,1.143-0.203,1.594-0.581c0.559-0.471,0.881-1.165,0.881-1.895V76.106l14.654-0.879c1.318-0.078,2.338-1.174,2.328-2.495  l-0.146-16.096h5.82c0.781,0,1.52-0.369,1.985-0.996c0.466-0.625,0.612-1.433,0.391-2.183C89.498,53.34,86.107,41.892,83.422,32.666  z M64.347,34.939c-1.819,2.078-3.633,4.163-5.444,6.252c-4.822,5.547-9.647,11.094-14.467,16.641  c-0.104,0.117-0.203,0.244-0.311,0.349c-0.521,0.574-1.139,0.688-1.656,0.32c-0.625-0.459-0.524-1.003-0.191-1.582  c1.801-3.149,3.594-6.296,5.393-9.443c1.406-2.476,2.803-4.951,4.229-7.407c0.277-0.483,0.231-0.588-0.335-0.605  c-2.973-0.083-5.938-0.203-8.911-0.308c-0.207-0.01-0.415-0.01-0.625-0.032c-1.035-0.12-1.404-0.854-0.888-1.768  c2.269-3.992,4.538-7.983,6.813-11.968c1.042-1.838,2.109-3.655,3.127-5.503c0.398-0.725,0.926-0.935,1.685-0.718  c1.204,0.354,2.409,0.688,3.616,1.038c1.205,0.342,2.412,0.671,3.61,1.04c1.12,0.342,1.331,0.981,0.647,1.917  c-2.158,2.944-4.322,5.881-6.471,8.828c-0.137,0.19-0.456,0.378-0.303,0.652c0.117,0.21,0.426,0.12,0.657,0.125  c2.815,0.103,5.63,0.208,8.44,0.305c0.207,0.015,0.414,0.017,0.625,0.034c0.479,0.034,0.85,0.249,1.045,0.698  C64.828,34.243,64.643,34.602,64.347,34.939z"></path></svg>