<svg xmlns="http://www.w3.org/2000/svg" xmlns:xlink="http://www.w3.org/1999/xlink" version="1.1" x="0px" y="0px" viewBox="0 0 100 100" enable-background="new 0 0 100 100" xml:space="preserve"><path d="M55.09,5.101C31.033,3.658,7.951,8.838,3.524,16.658c-0.968,1.723-0.968,3.484,0,5.207l31.317,39.071  c1.326,1.658,2.054,3.725,2.054,5.85v27.171c0,2.139,4.556,3.874,10.185,3.874c5.623,0,10.186-1.735,10.186-3.874V66.785  c0-2.125,0.722-4.191,2.054-5.85l31.311-39.071C95.051,14.045,79.14,6.538,55.09,5.101z M47.081,28.195  c-23.281,0-37.576-5.376-37.576-9.23c0-3.852,14.295-9.224,37.576-9.224c23.276,0,37.569,5.372,37.569,9.224  C84.65,22.819,70.357,28.195,47.081,28.195z"></path></svg>