<?xml version="1.0" encoding="utf-8"?><!DOCTYPE svg PUBLIC "-//W3C//DTD SVG 1.1//EN" "http://www.w3.org/Graphics/SVG/1.1/DTD/svg11.dtd"><svg version="1.1" xmlns="http://www.w3.org/2000/svg" xmlns:xlink="http://www.w3.org/1999/xlink" x="0px" y="0px" viewBox="0 0 100 62" enable-background="new 0 0 100 62" xml:space="preserve"><path d="M8,16H0v30h8v-7l17,4.25V55c0,3.859,3.141,7,7,7h28c3.859,0,7-3.141,7-7v-1.25L84,58V4L8,23V16z M31,44.75l30,7.5V55
	c0,0.551-0.448,1-1,1H32c-0.552,0-1-0.449-1-1V44.75z"></path><polygon points="90,2.5 90,59.5 100,62 100,31 100,0 "></polygon></svg>