<?xml version="1.0" encoding="utf-8"?><svg width="100%" height="100%" version="1.1" viewBox="-426 -507 1659.695 1551.55" style="background-color:#FFFFFF" xmlns:xlink="http://www.w3.org/1999/xlink" xmlns="http://www.w3.org/2000/svg"><defs /><g id="layer1"><g><path d="M206.064 234.936 L601.9189 234.936 C672.8401 234.936 730.5842 177.1919 730.5842 106.2708 C730.5842 35.42212 672.8401 -22.31982 601.7036 -22.31982 L205.7036 -22.31982 C134.7847 -22.31982 77.04053 35.42212 77.04053 106.2708 C77.04053 177.1919 134.7122 234.936 206.064 234.936 Z M205.6311 36.71851 L601.8486 36.71851 C640.2239 36.71851 671.4009 67.96802 671.4009 106.2708 C671.4009 144.646 640.2239 175.8955 601.8486 175.8955 L205.6311 175.8955 C167.2559 175.8955 136.0085 144.646 136.0085 106.2708 C136.0085 67.96802 167.2559 36.71851 205.6311 36.71851 Z " fill-rule="evenodd" opacity="1" fill="#2371CF" fill-opacity="1" /><path d="M1230.695 -375.4094 C1230.695 -446.0405 1173.096 -503.7122 1102.032 -504 L-294.6951 -504 C-365.3284 -503.7122 -423 -446.113 -423 -375.4094 L-423 -246.7441 L-369 -246.7441 L-369 1041.55 L1176.768 1041.55 L1176.768 -246.7441 L1230.695 -246.7441 L1230.695 -375.4094 Z M-363.887 -375.4094 C-363.887 -413.6418 -332.7122 -444.8892 -294.5522 -445.032 L1101.959 -445.032 C1140.407 -444.9617 1171.727 -413.6418 1171.727 -375.4094 L1171.727 -305.7847 L-363.9595 -305.7847 L-363.9595 -375.4094 Z M1117.727 982.5117 L-310.1045 982.5117 L-310.1045 -246.8167 L1117.727 -246.8167 L1117.727 982.5117 Z " fill-rule="evenodd" opacity="1" fill="#2371CF" fill-opacity="1" /></g></g></svg>