<?xml version="1.0" encoding="utf-8"?><svg width="100%" height="100%" version="1.1" viewBox="22.2 10.66053 56.1 84.93947" style="background-color:#FFFFFF" xmlns:xlink="http://www.w3.org/1999/xlink" xmlns="http://www.w3.org/2000/svg"><defs /><g id="layer1"><g><g><path d="M54.2 63.6 C53.3 63.6 52.5 63.1 51.7 62.6 C51.2 62.3 50.6 61.9 50.2 61.9 C49.8 61.9 49.2 62.3 48.7 62.6 C47.8 63.1 46.8 63.7 45.8 63.5 C44.7 63.3 44 62.4 43.4 61.6 C43 61.1 42.6 60.6 42.3 60.5 C42 60.4 41.3 60.5 40.7 60.6 C39.6 60.8 38.4 60.9 37.7 60.5 C36.7 59.9 36.4 58.9 36.1 57.9 C35.9 57.3 35.7 56.7 35.4 56.4 C35.1 56.2 34.4 56.1 33.8 56 C32.8 55.9 31.7 55.7 31 54.8 C30.3 54 30.3 52.8 30.4 51.8 C30.4 51.2 30.4 50.5 30.3 50.2 C30.1 49.9 29.5 49.6 29 49.3 C28.1 48.8 27.1 48.3 26.7 47.2 C26.3 46.2 26.7 45.1 27.1 44.2 C27.3 43.6 27.6 43 27.5 42.6 C27.4 42.3 27 41.8 26.6 41.3 C25.9 40.5 25.2 39.7 25.2 38.6 C25.2 37.5 26 36.6 26.6 35.9 C27 35.5 27.4 34.9 27.5 34.6 C27.6 34.2 27.3 33.6 27.1 33 C26.7 32.1 26.3 31 26.7 30 C27.1 29 28.1 28.4 29 27.9 C29.5 27.6 30.1 27.3 30.3 27 C30.5 26.7 30.5 26 30.4 25.4 C30.4 24.4 30.3 23.2 31 22.4 C31.7 21.6 32.8 21.4 33.8 21.2 C34.4 21.1 35.1 21 35.4 20.8 C35.7 20.6 35.9 19.9 36.1 19.3 C36.4 18.3 36.8 17.2 37.7 16.7 C38.5 16.2 39.7 16.4 40.8 16.6 C41.5 16.7 42.1 16.8 42.4 16.7 C42.7 16.6 43.1 16 43.5 15.6 C44.09999 14.8 44.9 13.9 45.9 13.7 C46.9 13.5 47.9 14.1 48.8 14.6 C49.3 14.9 49.9 15.3 50.3 15.3 C50.7 15.3 51.3 14.9 51.8 14.6 C52.7 14.1 53.6 13.5 54.7 13.7 C55.8 13.9 56.5 14.8 57.1 15.6 C57.5 16.1 57.9 16.6 58.2 16.7 C58.5 16.8 59.2 16.7 59.8 16.6 C60.9 16.4 62.1 16.3 62.8 16.7 C63.8 17.3 64.1 18.3 64.4 19.3 C64.6 19.9 64.8 20.5 65.1 20.8 C65.4 21 66.1 21.1 66.7 21.2 C67.7 21.3 68.8 21.5 69.5 22.4 C70.2 23.2 70.2 24.4 70.1 25.4 C70.1 26 70.1 26.7 70.2 27 C70.39999 27.3 71 27.6 71.5 27.9 C72.4 28.4 73.4 28.9 73.8 30 C74.2 31 73.8 32.1 73.4 33 C73.2 33.6 72.9 34.2 73 34.6 C73.1 34.9 73.5 35.4 73.9 35.9 C74.6 36.7 75.3 37.5 75.3 38.6 C75.3 39.7 74.5 40.6 73.9 41.3 C73.5 41.7 73.1 42.3 73 42.6 C72.9 43 73.2 43.6 73.4 44.2 C73.8 45.1 74.2 46.2 73.8 47.2 C73.4 48.2 72.4 48.8 71.5 49.3 C71 49.6 70.4 49.9 70.2 50.2 C70 50.5 70 51.2 70.1 51.8 C70.1 52.8 70.2 54 69.5 54.8 C68.8 55.6 67.7 55.8 66.7 56 C66.1 56.1 65.39999 56.2 65.1 56.4 C64.8 56.6 64.6 57.3 64.4 57.9 C64.1 58.9 63.7 60 62.8 60.5 C62 61 60.8 60.8 59.7 60.6 C59 60.5 58.40001 60.4 58.10001 60.5 C57.80001 60.6 57.40001 61.2 57.00001 61.6 C56.40001 62.4 55.60001 63.3 54.60001 63.5 C54.5 63.6 54.3 63.6 54.2 63.6 Z M50.2 59.9 C51.1 59.9 52 60.4 52.7 60.9 C53.2 61.2 53.8 61.6 54.1 61.6 L54.2 61.6 C54.5 61.5 55 60.9 55.4 60.4 C56 59.7 56.6 59 57.4 58.6 C58.2 58.3 59.2 58.5 60.1 58.7 C60.8 58.8 61.5 58.9 61.8 58.8 C62.1 58.6 62.3 57.9 62.5 57.3 C62.8 56.4 63.1 55.5 63.8 54.9 C64.5 54.3 65.4 54.2 66.3 54 C66.9 53.9 67.7 53.8 67.9 53.5 C68.1 53.2 68.1 52.5 68.1 51.8 C68.1 50.89999 68.1 49.89999 68.5 49.09999 C69 48.3 69.8 47.89999 70.6 47.39999 C71.2 47.09999 71.8 46.69999 72 46.39999 C72.1 46.09999 71.8 45.39999 71.6 44.8 C71.3 44 70.9 43.09999 71.1 42.09999 C71.3 41.19999 71.9 40.5 72.5 39.8 C72.9 39.3 73.4 38.7 73.4 38.39999 C73.4 37.99999 72.9 37.49999 72.5 36.99999 C71.9 36.29999 71.3 35.59999 71.1 34.69999 C70.9 33.79999 71.3 32.89999 71.6 31.99999 C71.8 31.39999 72.1 30.69999 72 30.39999 C71.9 30.09999 71.2 29.69999 70.6 29.39999 C69.8 28.99999 69 28.49999 68.5 27.69999 C68 26.89999 68.1 25.89999 68.1 24.99999 C68.1 24.39999 68.1 23.59999 67.9 23.29999 C67.7 22.99999 66.9 22.89999 66.3 22.79999 C65.4 22.69999 64.5 22.49999 63.8 21.89999 C63.1 21.29999 62.8 20.39999 62.5 19.49999 C62.3 18.89999 62.1 18.19999 61.8 17.99999 C61.6 17.89999 60.9 17.99999 60.1 18.09999 C59.2 18.29999 58.2 18.39999 57.4 18.19999 C56.5 17.89999 56 17.19999 55.4 16.39999 C55 15.89999 54.5 15.29999 54.2 15.19999 C53.8 15.19999 53.2 15.59999 52.7 15.89999 C51.9 16.39999 51.1 16.89999 50.2 16.89999 C49.3 16.89999 48.4 16.39999 47.7 15.89999 C47.2 15.59999 46.6 15.19999 46.3 15.19999 C45.9 15.29999 45.4 15.89999 45 16.39999 C44.4 17.09999 43.8 17.79999 43 18.19999 C42.2 18.49999 41.2 18.29999 40.3 18.09999 C39.6 17.99999 38.9 17.89999 38.6 17.99999 C38.3 18.19999 38.1 18.89999 37.9 19.49999 C37.6 20.39999 37.3 21.29999 36.6 21.89999 C35.9 22.49999 35 22.59999 34.1 22.79999 C33.5 22.89999 32.7 22.99999 32.5 23.29999 C32.3 23.59999 32.3 24.29999 32.3 24.99999 C32.3 25.89999 32.3 26.89999 31.9 27.69999 C31.4 28.49999 30.6 28.89999 29.8 29.39999 C29.2 29.69999 28.6 30.09999 28.4 30.39999 C28.3 30.69999 28.6 31.39999 28.8 31.99999 C29.1 32.79999 29.5 33.69999 29.3 34.69999 C29.1 35.59999 28.5 36.29999 27.9 36.99999 C27.5 37.49999 27 38.09999 27 38.39999 C27 38.8 27.5 39.3 27.9 39.8 C28.5 40.5 29.1 41.2 29.3 42.09999 C29.5 43 29.1 43.89999 28.8 44.8 C28.6 45.39999 28.3 46.09999 28.4 46.39999 C28.5 46.69999 29.2 47.09999 29.8 47.39999 C30.6 47.8 31.4 48.3 31.9 49.09999 C32.4 49.89999 32.3 50.89999 32.3 51.8 C32.3 52.39999 32.3 53.2 32.5 53.5 C32.7 53.8 33.5 53.9 34.1 54 C35 54.09999 35.9 54.3 36.6 54.9 C37.3 55.5 37.6 56.4 37.9 57.3 C38.1 57.9 38.3 58.6 38.6 58.8 C38.8 58.9 39.5 58.8 40.3 58.7 C41.2 58.5 42.2 58.4 43 58.6 C43.9 58.9 44.4 59.9 45 60.6 C45.4 61.1 45.9 62 46.2 62 C46.2 62 46.2 62 46.2 62 C46.6 62 47.2 61.40001 47.7 61.1 C48.4 60.7 49.3 59.9 50.2 59.9 Z " fill-rule="evenodd" opacity="1" fill="#4183D7" fill-opacity="1" /></g><g><path d="M43.7 85.6 C43.3 85.6 42.9 85.5 42.5 85.2 L37.5 81.7 L31.4 82.6 C30.7 82.7 30 82.5 29.5 81.9 C29 81.3 28.8 80.7 29 80 L33.7 59.8 C33.8 59.3 34.4 58.9 34.9 59.1 C35.4 59.2 35.8 59.8 35.6 60.3 L30.9 80.5 C30.9 80.5 30.9 80.6 30.9 80.6 C30.9 80.6 31 80.6 31 80.6 L37.1 79.7 C37.6 79.6 38.2 79.7 38.6 80.1 L43.6 83.6 C43.6 83.6 43.6 83.6 43.7 83.6 C43.8 83.6 43.8 83.5 43.8 83.5 L48 65.5 C48.1 65 48.7 64.6 49.2 64.8 C49.7 64.9 50.1 65.5 49.9 66 L45.7 84 C45.5 84.7 45.1 85.2 44.4 85.5 C44.2 85.6 44 85.6 43.7 85.6 Z " opacity="1" fill="#4183D7" fill-opacity="1" /></g><g><path d="M55.8 92.6 C55.5 92.6 55.3 92.6 55 92.5 C54.3 92.2 53.9 91.7 53.7 91 L48 66.3 C47.9 65.8 48.2 65.2 48.7 65.10001 C49.2 65.00001 49.8 65.3 49.9 65.8 L55.6 90.5 C55.6 90.5 55.6 90.6 55.7 90.6 C55.8 90.6 55.8 90.6 55.8 90.6 L60.8 87.1 C61.2 86.8 61.8 86.7 62.3 86.8 L68.4 87.7 C68.4 87.7 68.5 87.7 68.5 87.7 C68.5 87.7 68.5 87.6 68.5 87.6 L63 63.9 C62.9 63.4 63.2 62.8 63.7 62.7 C64.2 62.6 64.8 62.9 64.9 63.4 L70.4 87.1 C70.6 87.8 70.4 88.5 69.9 89 C69.4 89.5 68.7 89.8 68 89.7 L61.9 88.8 L57 92.3 C56.7 92.5 56.3 92.6 55.8 92.6 Z " opacity="1" fill="#4183D7" fill-opacity="1" /></g></g><g><path d="M48.7 45.1 L41.3 37.6 L42.7 36.2 L48.7 42.2 L60 31 L61.4 32.4 Z " opacity="1" fill="#4183D7" fill-opacity="1" /></g></g></svg>