<?xml version="1.0" encoding="utf-8"?><svg width="100%" height="100%" version="1.1" viewBox="-417 -579 1632.768 1692.456" style="background-color:#FFFFFF" xmlns:xlink="http://www.w3.org/1999/xlink" xmlns="http://www.w3.org/2000/svg"><defs /><g id="layer1"><g><g><g><g><g><path d="M933.3369 1110.456 L655.8486 832.8955 C572.3284 857.8081 486.2878 870.4797 399.0959 870.4797 C-49.24731 870.4797 -414 546.0469 -414 147.1685 C-414 -251.4968 -49.24731 -576 399.0959 -576 C847.7996 -576 1212.768 -251.4968 1212.768 147.1685 C1212.768 356.6865 1111.104 554.6865 933.3369 692.4243 L933.3369 1110.456 Z M672.1919 765.936 L874.4414 968.0405 L874.4414 663.0469 L886.1045 654.1194 C1056.241 527.2559 1153.729 342.5032 1153.729 147.1685 C1153.729 -219.0256 815.2559 -516.9595 399.1685 -516.9595 C-16.48828 -516.9595 -354.887 -219.0256 -354.887 147.1685 C-354.887 513.4395 -16.55859 811.5117 399.1685 811.5117 C486.2153 811.5117 572.113 797.9744 655.2729 771.3347 L672.1919 765.936 Z " fill-rule="evenodd" opacity="1" fill="#2371CF" fill-opacity="1" /></g></g></g></g><g><g><g><g><path d="M796.032 187.5586 L2.880615 187.5586 C-13.31982 187.5586 -26.49463 174.3113 -26.49463 158.0405 C-26.49463 141.7676 -13.24731 128.5203 2.880615 128.5203 L796.032 128.5203 C812.2324 128.5203 825.4072 141.7676 825.4072 158.0405 C825.4072 174.3113 812.2324 187.5586 796.032 187.5586 Z " opacity="1" fill="#2371CF" fill-opacity="1" /></g></g></g><g><g><g><path d="M796.032 385.9915 L2.880615 385.9915 C-13.31982 385.9915 -26.49463 372.6716 -26.49463 356.4712 C-26.49463 340.2004 -13.24731 326.8784 2.880615 326.8784 L796.032 326.8784 C812.2324 326.8784 825.4072 340.2004 825.4072 356.4712 C825.4797 372.7441 812.2324 385.9915 796.032 385.9915 Z " opacity="1" fill="#2371CF" fill-opacity="1" /></g></g></g><g><g><g><path d="M796.032 -10.44141 L2.880615 -10.44141 C-13.31982 -10.44141 -26.49463 -23.68872 -26.49463 -39.95947 C-26.49463 -56.23242 -13.24731 -69.47974 2.880615 -69.47974 L796.032 -69.47974 C812.2324 -69.47974 825.4072 -56.23242 825.4072 -39.95947 C825.4797 -23.68872 812.2324 -10.44141 796.032 -10.44141 Z " opacity="1" fill="#2371CF" fill-opacity="1" /></g></g></g></g></g></g></svg>