<?xml version="1.0" encoding="utf-8"?><svg width="100%" height="100%" version="1.1" viewBox="-417 -561 1645.692 1658.818" style="background-color:#FFFFFF" xmlns:xlink="http://www.w3.org/1999/xlink" xmlns="http://www.w3.org/2000/svg"><defs /><g id="layer1"><g><path d="M1136.971 -40.19238 C1255.267 -158.4141 1255.267 -350.8726 1136.971 -469.3843 C1018.674 -587.606 826.218 -587.4653 707.8513 -469.3843 C698.9941 -460.3843 699.0667 -447.9258 703.8193 -437.1284 C612.3054 -476.2969 511.6509 -498.1816 405.9536 -498.1816 C300.186 -498.1816 199.459 -476.2969 107.8022 -437.1284 C112.6274 -447.9258 112.6978 -460.314 103.8428 -469.1689 C-14.45361 -587.4653 -206.8374 -587.3906 -325.2766 -469.1689 C-443.573 -350.7275 -443.573 -158.2734 -325.2766 -39.97705 C-319.5176 -34.21582 -312.0293 -31.3374 -304.4707 -31.3374 C-300.509 -31.3374 -297.0527 -34.28613 -293.3811 -35.87256 C-332.4771 55.56885 -354.2937 156.2256 -354.2937 261.8481 C-354.2937 508.5923 -235.5667 727.5454 -52.97388 866.5752 C-76.0144 876.3662 -96.96533 891.2725 -109.637 913.4473 C-125.7649 941.2383 -130.1572 973.7139 -121.9504 1004.889 C-113.5986 1036.138 -93.50903 1062.272 -65.42139 1078.545 C-47.06323 1089.057 -26.25513 1094.744 -5.08667 1094.744 C38.04126 1094.744 78.21826 1071.558 99.67456 1034.191 C112.489 1011.801 115.2246 987.1743 112.9944 963.2021 C203.2031 1001.074 302.2031 1022.098 406.0327 1022.098 C509.7854 1022.098 608.6426 1001.074 698.7854 963.4175 C696.553 987.249 699.3611 1011.946 712.2502 1034.328 C733.8494 1071.699 773.8813 1094.818 816.7939 1094.818 C837.8899 1094.818 858.8408 1089.127 877.1287 1078.545 C905.1372 1062.417 925.2246 1036.494 933.5061 1005.249 C941.9304 973.9951 937.7534 941.3789 921.553 913.522 C908.7385 891.3428 887.6426 876.5112 864.6746 866.6499 C1047.41 727.686 1166.065 508.5835 1166.065 261.8394 C1166.065 156.1465 1144.105 55.41504 1105.009 -36.1582 C1108.681 -34.64648 1112.065 -31.63184 1116.242 -31.63184 C1123.651 -31.62305 1131.209 -34.43115 1136.971 -40.19238 Z M-283.6626 -427.478 C-188.1892 -522.5186 -33.10181 -522.5186 62.15405 -427.478 C65.89819 -423.6636 71.01123 -423.0176 75.90674 -421.7212 C-78.31714 -347.0537 -203.3086 -222.1348 -277.9739 -67.83838 C-279.2703 -72.73389 -279.8459 -77.91943 -283.7329 -81.66357 C-378.9185 -176.7744 -378.9185 -332.0068 -283.6626 -427.478 Z M48.40137 1004.889 C32.20313 1033.255 -7.325684 1044.202 -35.90991 1027.424 C-50.30859 1019.074 -60.67749 1005.609 -64.85449 989.6968 C-69.10181 973.8545 -66.86938 957.2959 -58.59009 942.9697 C-47.64551 923.959 -27.12524 912.0103 -5.093262 912.0103 C5.706299 912.0103 16.29053 914.959 25.86621 920.4302 C55.24146 937.3535 65.46533 975.2959 48.40137 1004.889 Z M870.2095 943.04 C878.5635 957.2256 880.7234 974.0742 876.4739 989.8418 C872.2266 1005.75 862.0027 1019.074 847.6018 1027.354 C818.8022 1044.057 779.7063 1033.185 763.218 1004.818 C746.2991 975.3047 756.4504 937.3535 785.8982 920.3687 C795.1135 914.959 805.8428 912.0103 816.5698 912.0103 C838.6743 912.0806 859.1946 924.0337 870.2095 943.04 Z M1106.875 261.7778 C1106.875 648.4878 792.4504 963.0571 405.9536 963.0571 C19.31396 963.0571 -295.2532 648.4878 -295.2532 261.7778 C-295.2532 -124.6465 19.38647 -439.1455 405.9536 -439.1455 C792.5229 -439.1455 1106.875 -124.6465 1106.875 261.7778 Z M1095.354 -81.95361 C1091.395 -78.06445 1090.89 -72.95361 1089.595 -68.12842 C1014.787 -222.2095 889.7937 -347.1284 735.6423 -421.7915 C740.4653 -423.1582 745.6509 -423.7339 749.395 -427.623 C844.8025 -522.7339 999.9624 -522.7339 1095.282 -427.623 C1190.395 -332.2969 1190.395 -177.0645 1095.354 -81.95361 Z " fill-rule="evenodd" opacity="1" fill="#2371CF" fill-opacity="1" /><path d="M405.9536 -305.6572 C90.1626 -305.6572 -166.5901 -48.97705 -166.5901 266.7437 C-166.5901 582.4644 90.1626 839.2148 405.9536 839.2148 C721.5293 839.2148 978.282 582.4644 978.282 266.7437 C978.282 -48.97705 721.5293 -305.6572 405.9536 -305.6572 Z M405.9536 780.249 C122.7063 780.249 -107.6221 549.8481 -107.6221 266.7437 C-107.6221 -16.36084 122.7063 -246.687 405.9536 -246.687 C688.9856 -246.687 919.314 -16.36084 919.314 266.7437 C919.314 549.8481 688.9856 780.249 405.9536 780.249 Z " fill-rule="evenodd" opacity="1" fill="#2371CF" fill-opacity="1" /><path d="M435.4739 256.8076 L435.4739 -93.54199 C435.4739 -109.8896 422.2991 -123.0645 405.9536 -123.0645 C389.6104 -123.0645 376.4333 -109.8149 376.4333 -93.54199 L376.4333 269.0464 C376.4333 276.75 379.5293 284.3833 385.1455 289.7842 L555.9302 460.7139 C561.6189 466.4004 569.25 469.2788 576.8108 469.2788 C584.3694 469.2788 591.8577 466.4092 597.6914 460.7139 C609.1392 449.2002 609.1392 430.4004 597.6914 418.9526 L435.4739 256.8076 Z " opacity="1" fill="#2371CF" fill-opacity="1" /></g></g></svg>