<?xml version="1.0" encoding="utf-8"?><svg width="100%" height="100%" version="1.1" viewBox="-3 -1.652 54 51.304" style="background-color:#FFFFFF" xmlns:xlink="http://www.w3.org/1999/xlink" xmlns="http://www.w3.org/2000/svg"><defs /><g id="layer1"><g><path d="M11.979 20.272 C7.867 20.272 4.522 16.927 4.522 12.815 C4.522 8.702999 7.867001 5.358 11.979 5.358 C16.091 5.358 19.436 8.703 19.436 12.815 C19.436 16.927 16.091 20.272 11.979 20.272 Z M11.979 7.358 C8.97 7.358 6.522 9.806 6.522 12.815 C6.522 15.824 8.97 18.272 11.979 18.272 C14.988 18.272 17.436 15.824 17.436 12.815 C17.436 9.806 14.988 7.358 11.979 7.358 Z " fill-rule="evenodd" opacity="1" fill="#4183D7" fill-opacity="1" /><path d="M45.264 16.344 L29.299 16.344 C28.746 16.344 28.299 15.896 28.299 15.344 C28.299 10.391 32.328 6.362 37.281 6.362 C42.234 6.362 46.263 10.391 46.263 15.344 C46.264 15.896 45.816 16.344 45.264 16.344 Z M30.37 14.344 L44.192 14.344 C43.706 10.966 40.792 8.362 37.281 8.362 C33.77 8.362 30.856 10.966 30.37 14.344 Z " fill-rule="evenodd" opacity="1" fill="#4183D7" fill-opacity="1" /><path d="M47 20.283 L27.563 20.283 C27.01 20.283 26.563 19.835 26.563 19.283 C26.563 18.731 27.01 18.283 27.563 18.283 L47 18.283 C47.553 18.283 48 18.731 48 19.283 C48 19.835 47.553 20.283 47 20.283 Z " opacity="1" fill="#4183D7" fill-opacity="1" /><path d="M39.499 5.566 C38.946 5.566 38.499 5.118 38.499 4.566 C38.499 3.895 37.953 3.348 37.282 3.348 C36.609 3.348 36.062 3.894 36.062 4.566 C36.062 5.118 35.615 5.566 35.062 5.566 C34.509 5.566 34.062 5.118 34.062 4.566 C34.062 2.792 35.506 1.348 37.282 1.348 C39.055 1.348 40.499 2.791 40.499 4.566 C40.499 5.118 40.052 5.566 39.499 5.566 Z " opacity="1" fill="#4183D7" fill-opacity="1" /><path d="M22.957 46.652 L1 46.652 C0.448 46.652 0 46.205 0 45.652 L0 30.229 C0 25.288 4.021 21.266 8.963 21.265 L14.994 21.265 C16.302 21.265 19.375 22.223 19.93 22.645 L29.463 29.919 L34.975 22.408 C35.613 21.54 36.636 21.022 37.714 21.022 C38.44 21.022 39.133 21.25 39.719 21.68 C40.45 22.217 40.928 23.006 41.066 23.902 C41.204 24.798 40.984 25.694 40.447 26.425 L32.891 36.723 C32.352 37.453 31.532 37.946 30.637 38.075 C29.678 38.197 28.813 37.959 28.096 37.414 L23.958 34.256 L23.958 45.643 C23.958 45.669 23.957 45.7 23.955 45.728 C23.917 46.243 23.485 46.652 22.957 46.652 Z M2 44.652 L21.958 44.652 L21.958 32.232 C21.958 31.852 22.174 31.504 22.515 31.336 C22.856 31.168 23.262 31.206 23.565 31.438 L29.308 35.822 C29.609 36.051 29.997 36.141 30.367 36.092 C30.72 36.041 31.058 35.838 31.28 35.537 L38.835 25.24 C39.057 24.94 39.147 24.572 39.09 24.205 C39.033 23.837 38.837 23.513 38.536 23.292 C37.932 22.848 37.03 22.991 36.588 23.592 L30.474 31.924 C30.315 32.14 30.076 32.283 29.81 32.322 C29.54 32.359 29.274 32.29 29.061 32.127 L18.719 24.236 C18.404 24.07 15.93 23.265 14.995 23.265 L8.963 23.265 C5.124 23.265 2 26.39 2 30.229 L2 44.652 Z " fill-rule="evenodd" opacity="1" fill="#4183D7" fill-opacity="1" /></g></g></svg>