<?xml version="1.0" encoding="utf-8"?><svg width="100%" height="100%" version="1.1" viewBox="125.16 -12 532.4677 384" style="background-color:#FFFFFF" xmlns:xlink="http://www.w3.org/1999/xlink" xmlns="http://www.w3.org/2000/svg"><defs /><g id="layer1"><path d="M262.08 144 L324.4338 108 L386.7877 144 L386.7877 216 L324.4339 252 L262.08 216 L262.08 144" opacity="1" stroke="#4183D7" stroke-opacity="1" stroke-width="1" stroke-linecap="butt" stroke-linejoin="miter" stroke-dasharray="none" fill="#4183D7" fill-opacity="1" /><path d="M396 144 L458.3538 108 L520.7076 144 L520.7076 216 L458.3538 252 L396 216 L396 144" opacity="1" stroke="#4183D7" stroke-opacity="1" stroke-width="1" stroke-linecap="butt" stroke-linejoin="miter" stroke-dasharray="none" fill="#4183D7" fill-opacity="1" /><path d="M529.92 144 L592.2738 108 L654.6276 144 L654.6276 216 L592.2738 252 L529.92 216 L529.92 144" opacity="1" stroke="#65C6BB" stroke-opacity="1" stroke-width="1" stroke-linecap="butt" stroke-linejoin="miter" stroke-dasharray="none" fill="#65C6BB" fill-opacity="1" /><path d="M331.2 27 L393.5538 -9 L455.9076 27 L455.9077 99 L393.5538 135 L331.2 99 L331.2 27" opacity="1" stroke="#4183D7" stroke-opacity="1" stroke-width="1" stroke-linecap="butt" stroke-linejoin="miter" stroke-dasharray="none" fill="#4183D7" fill-opacity="1" /><path d="M462.96 27 L525.3138 -9 L587.6675 27 L587.6676 99 L525.3138 135 L462.96 99 L462.96 27" opacity="1" stroke="#65C6BB" stroke-opacity="1" stroke-width="1" stroke-linecap="butt" stroke-linejoin="miter" stroke-dasharray="none" fill="#65C6BB" fill-opacity="1" /><path d="M331.2 261 L393.5538 225 L455.9076 261 L455.9077 333 L393.5538 369 L331.2 333 L331.2 261" opacity="1" stroke="#4183D7" stroke-opacity="1" stroke-width="1" stroke-linecap="butt" stroke-linejoin="miter" stroke-dasharray="none" fill="#4183D7" fill-opacity="1" /><path d="M462.96 261 L525.3138 225 L587.6676 261 L587.6676 333 L525.3138 369 L462.96 333 L462.96 261" opacity="1" stroke="#65C6BB" stroke-opacity="1" stroke-width="1" stroke-linecap="butt" stroke-linejoin="miter" stroke-dasharray="none" fill="#65C6BB" fill-opacity="1" /><text x="173.8851" y="187.62" font-size="22" fill="#FFFFFF" fill-opacity="1" font-family="Open Sans" font-weight="normal" font-style="normal">VCs</text><text x="282.808" y="187.62" font-size="22" fill="#FFFFFF" fill-opacity="1" font-family="Open Sans" font-weight="normal" font-style="normal">Advisors</text><text x="229.4921" y="70.62003" font-size="22" fill="#FFFFFF" fill-opacity="1" font-family="Open Sans" font-weight="normal" font-style="normal">Angels</text><text x="214.684" y="289.62" font-size="22" fill="#FFFFFF" fill-opacity="1" font-family="Open Sans" font-weight="normal" font-style="normal">Friends &amp;</text><text x="230.2977" y="319.62" font-size="22" fill="#FFFFFF" fill-opacity="1" font-family="Open Sans" font-weight="normal" font-style="normal">Family</text><text x="404.9223" y="187.62" font-size="22" fill="#FFFFFF" fill-opacity="1" font-family="Open Sans" font-weight="normal" font-style="normal">Employees</text><text x="346.804" y="289.62" font-size="22" fill="#FFFFFF" fill-opacity="1" font-family="Open Sans" font-weight="normal" font-style="normal">Friends &amp;</text><text x="362.4177" y="319.62" font-size="22" fill="#FFFFFF" fill-opacity="1" font-family="Open Sans" font-weight="normal" font-style="normal">Family</text><text x="548.6338" y="172.62" font-size="22" fill="#FFFFFF" fill-opacity="1" font-family="Open Sans" font-weight="normal" font-style="normal">Potential</text><text x="538.8423" y="202.62" font-size="22" fill="#FFFFFF" fill-opacity="1" font-family="Open Sans" font-weight="normal" font-style="normal">Employees</text><text x="481.6738" y="55.62002" font-size="22" fill="#FFFFFF" fill-opacity="1" font-family="Open Sans" font-weight="normal" font-style="normal">Potential</text><text x="480.2988" y="85.62003" font-size="22" fill="#FFFFFF" fill-opacity="1" font-family="Open Sans" font-weight="normal" font-style="normal">Investors</text><text x="471.7051" y="304.62" font-size="22" fill="#FFFFFF" fill-opacity="1" font-family="Open Sans" font-weight="normal" font-style="normal">Customers</text><text x="348.5388" y="70.62003" font-size="22" fill="#FFFFFF" fill-opacity="1" font-family="Open Sans" font-weight="normal" font-style="normal">Investors</text></g></svg>