<svg xmlns:x="http://ns.adobe.com/Extensibility/1.0/" xmlns:i="http://ns.adobe.com/AdobeIllustrator/10.0/" xmlns:graph="http://ns.adobe.com/Graphs/1.0/" xmlns="http://www.w3.org/2000/svg" xmlns:xlink="http://www.w3.org/1999/xlink" xmlns:a="http://ns.adobe.com/AdobeSVGViewerExtensions/3.0/" version="1.1" x="0px" y="0px" viewBox="0 0 100 100" enable-background="new 0 0 100 100" xml:space="preserve"><g><path d="M44.348,93.142H3.429C1.535,93.142,0,94.677,0,96.57C0,98.465,1.535,100,3.429,100h40.919c1.895,0,3.431-1.535,3.431-3.43   C47.779,94.677,46.243,93.142,44.348,93.142z"></path><path d="M98.486,49.139l-19.75-12.848c-1.587-1.033-3.71-0.584-4.743,1.005l-22.8,35.044c-0.346,0.534-0.539,1.156-0.553,1.795   l-0.494,22.36c-0.025,1.187,0.563,2.303,1.561,2.95c0.563,0.367,1.214,0.555,1.868,0.555c0.497,0,0.994-0.107,1.457-0.325   l20.243-9.515c0.578-0.27,1.068-0.697,1.418-1.232l22.798-35.045c0.494-0.762,0.668-1.689,0.479-2.579   C99.784,50.413,99.247,49.634,98.486,49.139z M71.478,84.369l-14.353,6.743l0.351-15.852L77.871,43.91l14.001,9.107L71.478,84.369z   "></path><path d="M46.911,58.245H6.859V6.829h57.042v26.178c0,1.895,1.535,3.43,3.428,3.43c1.895,0,3.431-1.535,3.431-3.43V3.4   c0-1.894-1.536-3.429-3.431-3.429H3.43C1.536-0.029,0,1.506,0,3.4v58.276c0,1.895,1.536,3.429,3.43,3.429h43.48   c1.894,0,3.428-1.534,3.428-3.429S48.804,58.245,46.911,58.245z"></path><path d="M3.429,88.368h39.742c1.896,0,3.43-1.535,3.43-3.43c0-1.894-1.535-3.429-3.43-3.429H3.429C1.535,81.51,0,83.045,0,84.938   C0,86.833,1.535,88.368,3.429,88.368z"></path><path d="M3.429,76.736h39.742c1.896,0,3.43-1.535,3.43-3.428c0-1.896-1.535-3.431-3.43-3.431H3.429C1.535,69.878,0,71.413,0,73.309   C0,75.201,1.535,76.736,3.429,76.736z"></path></g></svg>