<?xml version="1.0" encoding="utf-8"?><svg width="100%" height="100%" version="1.1" viewBox="-3 2.365 444.546 433.8185" xmlns:xlink="http://www.w3.org/1999/xlink" xmlns="http://www.w3.org/2000/svg"><defs /><g id="layer1"><g><path d="M409.132 114.573 C389.524 80.977 362.927 54.379 329.334 34.77299 C295.736 15.166 259.057 5.365 219.271 5.365 C179.49 5.365 142.799 15.169 109.208 34.773 C75.61199 54.378 49.01599 80.97701 29.40799 114.573 C9.803 148.168 0 184.854 0 224.63 C0 272.41 13.94 315.375 41.827 353.536 C69.711 391.7 105.733 418.108 149.89 432.763 C155.03 433.717 158.835 433.046 161.309 430.767 C163.784 428.485 165.02 425.627 165.02 422.205 C165.02 421.634 164.971 416.497 164.876 406.788 C164.778 397.079 164.732 388.609 164.732 381.382 L158.165 382.518 C153.978 383.285 148.696 383.61 142.319 383.518 C135.945 383.429 129.328 382.761 122.477 381.519 C115.623 380.288 109.248 377.433 103.347 372.96 C97.44902 368.487 93.26202 362.632 90.78703 355.404 L87.93202 348.834 C86.02902 344.46 83.03302 339.601 78.94003 334.275 C74.84702 328.944 70.70802 325.33 66.52103 323.427 L64.52203 321.996 C63.19003 321.045 61.95403 319.898 60.81103 318.567 C59.66903 317.236 58.81403 315.904 58.24303 314.57 C57.67103 313.235 58.14503 312.14 59.67003 311.281 C61.19503 310.422 63.95103 310.005 67.95003 310.005 L73.65803 310.858 C77.46503 311.621 82.17403 313.9 87.79103 317.709 C93.40503 321.515 98.02003 326.463 101.637 332.551 C106.017 340.357 111.294 346.305 117.483 350.398 C123.667 354.491 129.902 356.534 136.182 356.534 C142.462 356.534 147.886 356.058 152.456 355.111 C157.021 354.159 161.304 352.728 165.303 350.826 C167.016 338.068 171.68 328.267 179.291 321.416 C168.4431 320.276 158.69 318.559 150.027 316.276 C141.369 313.99 132.422 310.28 123.192 305.136 C113.957 299.999 106.296 293.62 100.207 286.0099 C94.11703 278.3959 89.11904 268.4 85.22004 256.0309 C81.31904 243.657 79.36804 229.3829 79.36804 213.2049 C79.36804 190.1699 86.88804 170.5679 101.925 154.3879 C94.88104 137.0699 95.54604 117.6559 103.922 96.14793 C109.442 94.43294 117.628 95.71993 128.476 100.0009 C139.326 104.2839 147.2701 107.9529 152.316 110.9949 C157.362 114.0359 161.405 116.6129 164.451 118.7029 C182.156 113.7559 200.427 111.2819 219.269 111.2819 C238.1111 111.2819 256.386 113.7559 274.092 118.7029 L284.941 111.8539 C292.36 107.2839 301.121 103.0959 311.203 99.28893 C321.291 95.48393 329.005 94.43594 334.337 96.15093 C342.899 117.6599 343.662 137.0729 336.616 154.3909 C351.652 170.5709 359.175 190.1779 359.175 213.2079 C359.175 229.3859 357.217 243.7049 353.322 256.1739 C349.422 268.6449 344.381 278.6309 338.197 286.1529 C332.006 293.6739 324.296 300.0029 315.066 305.1389 C305.834 310.2789 296.884 313.9889 288.226 316.2749 C279.564 318.5609 269.811 320.2789 258.963 321.4209 C268.857 329.9829 273.805 343.4979 273.805 361.9599 L273.805 422.1969 C273.805 425.6189 274.995 428.4759 277.377 430.7589 C279.756 433.0379 283.513 433.7089 288.653 432.7539 C332.816 418.1009 368.838 391.6919 396.721 353.5279 C424.601 315.3669 438.546 272.4019 438.546 224.6219 C438.536 184.851 428.728 148.168 409.132 114.573 Z " opacity="0.5" fill="#4D5969" fill-opacity="1" /></g></g></svg>