<svg style="display: none;" xmlns="http://www.w3.org/2000/svg" xmlns:xlink="http://www.w3.org/1999/xlink"><symbol id="nc-icon-cloud-upload-94" viewBox="0 0 48 48"><title>cloud upload 94</title><g ><line data-cap="butt" fill="none" stroke-miterlimit="10" x1="24" y1="45" x2="24" y2="17"/><polyline fill="none" stroke-linecap="square" stroke-miterlimit="10" points="17,24 24,17 &#10;&#9;31,24 "/><path data-color="color-2" fill="none" stroke="currentColor" stroke-linecap="square" stroke-miterlimit="10" d="M32,33h6&#10;&#9;c4.418,0,8-3.582,8-8c0-4.418-3.582-8-8-8c-0.017,0-0.033,0.005-0.05,0.005C37.435,9.187,30.948,3,23,3&#10;&#9;C14.962,3,8.419,9.328,8.037,17.271C4.573,18.151,2,21.263,2,25c0,4.418,3.582,8,8,8h6"/></g></symbol><symbol id="nc-icon-award-48" viewBox="0 0 48 48"><title>award 48</title><g ><polyline data-cap="butt" data-color="color-2" fill="none" stroke="currentColor" stroke-miterlimit="10" points="12.3,23.6 6,36.9 &#10;&#9;13.1,35.8 16.9,42 22.6,29.8 "/><polyline data-cap="butt" data-color="color-2" fill="none" stroke="currentColor" stroke-miterlimit="10" points="35.7,23.5 42,36.9 &#10;&#9;34.9,35.8 31.1,42 25.4,29.8 "/><circle fill="none" stroke-linecap="square" stroke-miterlimit="10" cx="24" cy="16" r="14"/><circle fill="none" stroke-linecap="square" stroke-miterlimit="10" cx="24" cy="16" r="4"/></g></symbol><symbol id="nc-icon-bulb-63" viewBox="0 0 48 48"><title>bulb 63</title><g ><line data-color="color-2" fill="none" stroke="currentColor" stroke-linecap="square" stroke-miterlimit="10" x1="2" y1="24" x2="6" y2="24"/><line data-color="color-2" fill="none" stroke="currentColor" stroke-linecap="square" stroke-miterlimit="10" x1="8.4" y1="8.4" x2="11.3" y2="11.3"/><line data-color="color-2" fill="none" stroke="currentColor" stroke-linecap="square" stroke-miterlimit="10" x1="24" y1="2" x2="24" y2="6"/><line data-color="color-2" fill="none" stroke="currentColor" stroke-linecap="square" stroke-miterlimit="10" x1="39.6" y1="8.4" x2="36.7" y2="11.3"/><line data-color="color-2" fill="none" stroke="currentColor" stroke-linecap="square" stroke-miterlimit="10" x1="46" y1="24" x2="42" y2="24"/><path fill="none" stroke-linecap="square" stroke-miterlimit="10" d="M36,24c0-6.6-5.4-12-12-12&#10;&#9;s-12,5.4-12,12c0,5.2,3.3,9.7,8,11.3V40h8v-4.7C32.7,33.7,36,29.2,36,24z"/><line data-color="color-2" fill="none" stroke="currentColor" stroke-linecap="square" stroke-miterlimit="10" x1="20" y1="46" x2="28" y2="46"/></g></symbol><symbol id="nc-icon-chart-growth" viewBox="0 0 48 48"><title>chart growth</title><g ><rect data-color="color-2" x="16" y="24" fill="none" stroke="currentColor" stroke-linecap="square" stroke-miterlimit="10" width="8" height="18"/><rect data-color="color-2" x="2" y="32" fill="none" stroke="currentColor" stroke-linecap="square" stroke-miterlimit="10" width="8" height="10"/><polygon fill="none" stroke-linecap="square" stroke-miterlimit="10" points="34,6 26,16 30,16 &#10;&#9;30,42 38,42 38,16 42,16 "/></g></symbol><symbol id="nc-icon-chart-pie-35" viewBox="0 0 48 48"><title>chart pie 35</title><g ><polyline data-cap="butt" fill="none" stroke-miterlimit="10" points="24,2 24,24 46,24 "/><line data-cap="butt" fill="none" stroke-miterlimit="10" x1="24" y1="24" x2="7.8" y2="39.1"/><circle data-color="color-2" fill="none" stroke="currentColor" stroke-linecap="square" stroke-miterlimit="10" cx="24" cy="24" r="22"/></g></symbol><symbol id="nc-icon-cheque" viewBox="0 0 48 48"><title>cheque</title><g ><polyline data-color="color-2" fill="none" stroke="currentColor" stroke-linecap="square" stroke-miterlimit="10" points="&#10;&#9;34,22 46,22 46,44 2,44 2,22 12,22 "/><polygon fill="none" stroke-linecap="square" stroke-miterlimit="10" points="18,28 12,28 12,22 &#10;&#9;30,4 36,10 "/><line fill="none" stroke-linecap="square" stroke-miterlimit="10" x1="12" y1="36" x2="36" y2="36"/></g></symbol><symbol id="nc-icon-goal-64" viewBox="0 0 48 48"><title>goal 64</title><g ><circle data-color="color-2" fill="none" stroke="currentColor" stroke-linecap="square" stroke-miterlimit="10" cx="20" cy="28" r="18"/><circle data-color="color-2" fill="none" stroke="currentColor" stroke-linecap="square" stroke-miterlimit="10" cx="20" cy="28" r="10"/><line fill="none" stroke-linecap="square" stroke-miterlimit="10" x1="20" y1="28" x2="42" y2="6"/><polygon fill="none" stroke-linecap="square" stroke-miterlimit="10" points="36,4 38,10 32,16 &#10;&#9;30,10 "/><polygon fill="none" stroke-linecap="square" stroke-miterlimit="10" points="44,12 38,10 32,16 &#10;&#9;38,18 "/></g></symbol><symbol id="nc-icon-handout" viewBox="0 0 48 48"><title>handout</title><g ><path data-cap="butt" fill="none" stroke-miterlimit="10" d="M8,26h2c3.3,0,6.3,1.5,8,4h6&#10;&#9;c2.9,0,6,3.1,6,6H16"/><path data-cap="butt" fill="none" stroke-miterlimit="10" d="M28.2,32H38c4.8,0,6,4,6,4l-21.2,7.7&#10;&#9;c-1.6,0.4-3.4,0.3-5-0.2L8,38.9"/><circle data-color="color-2" fill="none" stroke="currentColor" stroke-linecap="square" stroke-miterlimit="10" cx="33" cy="19" r="5"/><circle data-color="color-2" fill="none" stroke="currentColor" stroke-linecap="square" stroke-miterlimit="10" cx="19" cy="9" r="5"/><rect x="2" y="24" fill="none" stroke-linecap="square" stroke-miterlimit="10" width="6" height="16"/></g></symbol><symbol id="nc-icon-handshake" viewBox="0 0 48 48"><title>handshake</title><g ><path data-cap="butt" fill="none" stroke-miterlimit="10" d="M6,25.1C2.3,19.6,2.8,12,7.7,7.1&#10;&#9;c4.4-4.4,10.9-5.3,16.1-2.7"/><path fill="none" stroke-linecap="square" stroke-miterlimit="10" d="M40.3,27.2&#10;&#9;c5.5-5.5,5.5-14.5,0-20s-14.5-5.5-20,0l-10,10c0,0,4.8,3.2,10-2c0,0,8.9,5,13.9,0"/><path data-cap="butt" fill="none" stroke-miterlimit="10" d="M33.1,28.6l3.6,3.6&#10;&#9;c1.1,1.1,2.9,1.1,4,0l0.1-0.1c1.1-1.1,1.1-2.8,0.1-3.9l-10.4-11"/><path fill="none" stroke-linecap="square" stroke-miterlimit="10" d="M27.7,7.1"/><path data-cap="butt" fill="none" stroke-miterlimit="10" d="M21.9,41.3l2.8,2.8&#10;&#9;c1.1,1.1,2.9,1.1,4,0l0,0c1.1-1.1,1.1-2.9,0-4l-3.6-3.6"/><path data-cap="butt" fill="none" stroke-miterlimit="10" d="M24.6,36.1l4.1,4.1&#10;&#9;c1.1,1.1,2.9,1.1,4,0l0,0c1.1-1.1,1.1-2.9,0-4l-3.6-3.6"/><path fill="none" stroke-linecap="square" stroke-miterlimit="10" d="M29.1,32.6l3.6,3.6&#10;&#9;c1.1,1.1,2.9,1.1,4,0l0,0c1.1-1.1,1.1-2.9,0-4l-3.6-3.6"/><path fill="none" stroke-linecap="square" stroke-miterlimit="10" d="M24,35.2L24,35.2&#10;&#9;c1.1,1.1,1.1,2.9,0,4l-3,3c-1.1,1.1-2.9,1.1-4,0l0,0c-1.1-1.1-1.1-2.9,0-4l3-3C21.1,34.1,22.9,34.1,24,35.2z"/><path fill="none" stroke-linecap="square" stroke-miterlimit="10" d="M16,27.2L16,27.2&#10;&#9;c1.1,1.1,1.1,2.9,0,4l-3,3c-1.1,1.1-2.9,1.1-4,0l0,0c-1.1-1.1-1.1-2.9,0-4l3-3C13.1,26.1,14.9,26.1,16,27.2z"/><path fill="none" stroke-linecap="square" stroke-miterlimit="10" d="M12,23.2L12,23.2&#10;&#9;c1.1,1.1,1.1,2.9,0,4l-3,3c-1.1,1.1-2.9,1.1-4,0l0,0c-1.1-1.1-1.1-2.9,0-4l3-3C9.1,22.1,10.9,22.1,12,23.2z"/><path fill="none" stroke-linecap="square" stroke-miterlimit="10" d="M20,31.2L20,31.2&#10;&#9;c1.1,1.1,1.1,2.9,0,4l-3,3c-1.1,1.1-2.9,1.1-4,0l0,0c-1.1-1.1-1.1-2.9,0-4l3-3C17.1,30.1,18.9,30.1,20,31.2z"/></g></symbol><symbol id="nc-icon-money-bag" viewBox="0 0 48 48"><title>money bag</title><g ><path data-cap="butt" fill="none" stroke-miterlimit="10" d="M30,14l9,20.3&#10;&#9;c2.3,5.5-1.7,11.7-7.7,11.7H16.8c-6,0-10.1-6.1-7.7-11.7L18,14"/><polygon fill="none" stroke-linecap="square" stroke-miterlimit="10" points="34,2 14,2 18,14 &#10;&#9;30,14 "/><line fill="none" stroke-linecap="square" stroke-miterlimit="10" x1="24" y1="14" x2="24" y2="10"/><path data-cap="butt" data-color="color-2" fill="none" stroke="currentColor" stroke-miterlimit="10" d="M21,33.5L21,33.5&#10;&#9;c0,1.4,1.1,2.5,2.5,2.5h1c1.4,0,2.5-1.1,2.5-2.5v0c0-3.5-6-1.5-6-5v0c0-1.4,1.1-2.5,2.5-2.5h1c1.4,0,2.5,1.1,2.5,2.5"/><line data-cap="butt" data-color="color-2" fill="none" stroke="currentColor" stroke-miterlimit="10" x1="24" y1="36" x2="24" y2="40"/><line data-cap="butt" data-color="color-2" fill="none" stroke="currentColor" stroke-miterlimit="10" x1="24" y1="22" x2="24" y2="26"/></g></symbol><symbol id="nc-icon-pig" viewBox="0 0 48 48"><title>pig</title><g ><line data-color="color-2" fill="none" stroke="currentColor" stroke-linecap="square" stroke-miterlimit="10" x1="22" y1="24" x2="30" y2="24"/><circle data-color="color-2" fill="none" stroke="currentColor" stroke-linecap="square" stroke-miterlimit="10" cx="26" cy="6" r="4"/><path data-cap="butt" fill="none" stroke-miterlimit="10" d="M42,30.1c2.4,0,4-1.4,4-4s-2-3-2-3"/><path fill="none" stroke-linecap="square" stroke-miterlimit="10" d="M30,18H18c-2.5-5.9-8-4-8-4&#10;&#9;l1.9,5.7c-2.4,1.4-4.3,3.6-5.2,6.3H2v10h5.6c1.4,2.4,3.7,4.3,6.4,5.3V46h6v-4h8v4h6v-4.7c4.7-1.6,8-6.1,8-11.3&#10;&#9;C42,23.4,36.6,18,30,18z"/><circle fill="none" stroke-linecap="square" stroke-miterlimit="10" cx="14" cy="26" r="1"/></g></symbol><symbol id="nc-icon-scale" viewBox="0 0 48 48"><title>scale</title><g ><path data-cap="butt" fill="none" stroke-miterlimit="10" d="M12,8l6,14c0,3.3-3,6-8,6s-8-2.7-8-6&#10;&#9;L12,8h24l10,14c0,3.3-3,6-8,6s-8-2.7-8-6l6-14"/><line fill="none" stroke-linecap="square" stroke-miterlimit="10" x1="24" y1="8" x2="24" y2="42"/><line fill="none" stroke-linecap="square" stroke-miterlimit="10" x1="14" y1="42" x2="34" y2="42"/><line data-cap="butt" fill="none" stroke-miterlimit="10" x1="2" y1="22" x2="18" y2="22"/><line data-cap="butt" fill="none" stroke-miterlimit="10" x1="30" y1="22" x2="46" y2="22"/></g></symbol><symbol id="nc-icon-divider" viewBox="0 0 48 48"><title>divider</title><g ><rect x="6" y="2" fill="none" stroke-linecap="square" stroke-miterlimit="10" width="36" height="14"/><rect x="6" y="32" fill="none" stroke-linecap="square" stroke-miterlimit="10" width="36" height="14"/><line data-color="color-2" fill="none" stroke="currentColor" stroke-linecap="square" stroke-miterlimit="10" x1="2" y1="24" x2="46" y2="24"/></g></symbol><symbol id="nc-icon-atom" viewBox="0 0 48 48"><title>atom</title><g ><circle data-color="color-2" fill="none" stroke="currentColor" stroke-linecap="square" stroke-miterlimit="10" cx="24" cy="24" r="2"/><ellipse fill="none" stroke-miterlimit="10" cx="24" cy="24" rx="8" ry="22"/><ellipse transform="matrix(0.5 -0.866 0.866 0.5 -8.7846 32.7846)" fill="none" stroke-miterlimit="10" cx="24" cy="24" rx="8" ry="22"/><ellipse transform="matrix(0.5 0.866 -0.866 0.5 32.7846 -8.7846)" fill="none" stroke-miterlimit="10" cx="24" cy="24" rx="8" ry="22"/></g></symbol><symbol id="nc-icon-board-51" viewBox="0 0 48 48"><title>board 51</title><g ><line fill="none" stroke-linecap="square" stroke-miterlimit="10" x1="24" y1="36" x2="24" y2="44"/><line data-cap="butt" fill="none" stroke-miterlimit="10" x1="20" y1="36" x2="12" y2="46"/><line data-cap="butt" fill="none" stroke-miterlimit="10" x1="28" y1="36" x2="36" y2="46"/><polyline fill="none" stroke-linecap="square" stroke-miterlimit="10" points="42,36 42,8 6,8 &#10;&#9;6,36 "/><polyline fill="none" stroke-linecap="square" stroke-miterlimit="10" points="22,8 22,4 26,4 &#10;&#9;26,8 "/><line fill="none" stroke-linecap="square" stroke-miterlimit="10" x1="2" y1="36" x2="46" y2="36"/><line fill="none" stroke-linecap="square" stroke-miterlimit="10" x1="46" y1="2" x2="30" y2="18"/><line data-color="color-2" fill="none" stroke="currentColor" stroke-linecap="square" stroke-miterlimit="10" x1="14" y1="18" x2="22" y2="18"/><line data-color="color-2" fill="none" stroke="currentColor" stroke-linecap="square" stroke-miterlimit="10" x1="14" y1="26" x2="34" y2="26"/></g></symbol><symbol id="nc-icon-like" viewBox="0 0 48 48"><title>like</title><g ><polyline data-color="color-2" fill="none" stroke="currentColor" stroke-linecap="square" stroke-miterlimit="10" points="&#10;&#9;12,46 2,46 2,24 12,24 "/><path fill="none" stroke-linecap="square" stroke-miterlimit="10" d="M12,24l6-22l0,0&#10;&#9;c3.3,0,6,2.7,6,6v12h15c3.7,0,6.5,3.3,5.9,6.9l-2.2,14c-0.5,2.9-3,5.1-5.9,5.1H12V24z"/></g></symbol><symbol id="nc-icon-single-paragraph" viewBox="0 0 48 48"><title>single paragraph</title><g ><rect x="6" y="2" fill="none" stroke-linecap="square" stroke-miterlimit="10" width="36" height="44"/><line data-color="color-2" fill="none" stroke="currentColor" stroke-linecap="square" stroke-miterlimit="10" x1="30" y1="12" x2="34" y2="12"/><line data-color="color-2" fill="none" stroke="currentColor" stroke-linecap="square" stroke-miterlimit="10" x1="30" y1="20" x2="34" y2="20"/><line data-color="color-2" fill="none" stroke="currentColor" stroke-linecap="square" stroke-miterlimit="10" x1="14" y1="28" x2="34" y2="28"/><line data-color="color-2" fill="none" stroke="currentColor" stroke-linecap="square" stroke-miterlimit="10" x1="14" y1="36" x2="34" y2="36"/><rect data-color="color-2" x="14" y="12" fill="none" stroke="currentColor" stroke-linecap="square" stroke-miterlimit="10" width="8" height="8"/></g></symbol><symbol id="nc-icon-world" viewBox="0 0 48 48"><title>world</title><g ><path data-cap="butt" fill="none" stroke-miterlimit="10" d="M11.4,5.9c1.4,1,2.5,2.3,3.5,4.1&#10;&#9;c0.9,1.5,2.9,5.7,1.1,8c-2.1,2.7-8,3.6-8,6c0,1.8,2.6,3.9,4,6c2.1,3.1,1.1,6.1,0,8c-0.6,1-1.5,1.8-2.5,2.4"/><path data-cap="butt" fill="none" stroke-miterlimit="10" d="M41.3,10.5C37,12.6,31.1,13.9,30,14&#10;&#9;c-2.1,0.1-1.4-2.6-3-5c-1.2-1.8-5-3.1-5-5c0-0.7,0.1-1.3,0.2-1.9"/><circle fill="none" stroke-linecap="square" stroke-miterlimit="10" cx="24" cy="24" r="22"/><path data-cap="butt" fill="none" stroke-miterlimit="10" d="M38,25.8C38.1,32,29.7,40.4,26,38&#10;&#9;c-3-2,0.5-4.7-2-12.2c-1-3.1,3.1-6,7-6S38,22.5,38,25.8z"/>,/g&gt;</g></symbol><symbol id="nc-icon-light" viewBox="0 0 48 48"><title>light</title><g ><line data-cap="butt" data-color="color-2" fill="none" stroke="currentColor" stroke-miterlimit="10" x1="20.6" y1="10.6" x2="37.4" y2="27.4"/><line data-color="color-2" fill="none" stroke="currentColor" stroke-linecap="square" stroke-miterlimit="10" x1="7.7" y1="34.6" x2="13.4" y2="40.3"/><line data-color="color-2" fill="none" stroke="currentColor" stroke-linecap="square" stroke-miterlimit="10" x1="40" y1="8" x2="42" y2="6"/><line data-color="color-2" fill="none" stroke="currentColor" stroke-linecap="square" stroke-miterlimit="10" x1="32" y1="2" x2="32" y2="4"/><line data-color="color-2" fill="none" stroke="currentColor" stroke-linecap="square" stroke-miterlimit="10" x1="44" y1="16" x2="46" y2="16"/><polyline data-cap="butt" fill="none" stroke-miterlimit="10" points="19.1,23.3 3.5,38.8 9.2,44.5 &#10;&#9;24.7,28.9 "/><path fill="none" stroke-linecap="square" stroke-miterlimit="10" d="M24.7,28.9l-5.7-5.7&#10;&#9;c-3.1-3.1-3.1-8.2,0-11.3l5.7-5.7l17,17L36,28.9C32.9,32.1,27.8,32.1,24.7,28.9z"/></g></symbol><symbol id="nc-icon-tactic" viewBox="0 0 48 48"><title>tactic</title><g ><line data-cap="butt" fill="none" stroke-miterlimit="10" x1="15.6566133" y1="32.3433876" x2="42" y2="6"/><line data-color="color-2" fill="none" stroke="currentColor" stroke-linecap="square" stroke-miterlimit="10" x1="4" y1="4" x2="16" y2="16"/><line data-color="color-2" fill="none" stroke="currentColor" stroke-linecap="square" stroke-miterlimit="10" x1="4" y1="16" x2="16" y2="4"/><line data-color="color-2" fill="none" stroke="currentColor" stroke-linecap="square" stroke-miterlimit="10" x1="32" y1="32" x2="44" y2="44"/><line data-color="color-2" fill="none" stroke="currentColor" stroke-linecap="square" stroke-miterlimit="10" x1="32" y1="44" x2="44" y2="32"/><circle fill="none" stroke-linecap="square" stroke-miterlimit="10" cx="10" cy="38" r="8"/><polyline fill="none" stroke-linecap="square" stroke-miterlimit="10" points="30,6 42,6 42,18 &#10;&#9;"/></g></symbol><symbol id="nc-icon-shark" viewBox="0 0 48 48"><title>shark</title><g ><path data-color="color-2" fill="none" stroke="currentColor" stroke-linecap="square" stroke-miterlimit="10" d="M2,36&#10;&#9;c0,4.4,3.6,8,8,8c3,0,5.6-1.7,7-4.2c1.4,2.5,4,4.2,7,4.2c3,0,5.6-1.7,7-4.2c1.4,2.5,4,4.2,7,4.2c4.4,0,8-3.6,8-8"/><path fill="none" stroke-linecap="square" stroke-miterlimit="10" d="M38,32C38,16.5,25.5,4,10,4&#10;&#9;c0,0,8,20,0,28"/></g></symbol><symbol id="nc-icon-check-circle-08" viewBox="0 0 48 48"><title>check circle 08</title><g ><polyline data-color="color-2" fill="none" stroke="currentColor" stroke-linecap="square" stroke-miterlimit="10" points="&#10;&#9;12,24 20,32 36,16 "/><circle fill="none" stroke-linecap="square" stroke-miterlimit="10" cx="24" cy="24" r="22"/></g></symbol><symbol id="nc-icon-check-square-09" viewBox="0 0 48 48"><title>check square 09</title><g ><polyline data-color="color-2" fill="none" stroke="currentColor" stroke-linecap="square" stroke-miterlimit="10" points="&#10;&#9;12,24 20,32 36,16 "/><rect x="2" y="2" fill="none" stroke-linecap="square" stroke-miterlimit="10" width="44" height="44"/></g></symbol><symbol id="nc-icon-circle-add" viewBox="0 0 48 48"><title>circle add</title><g ><line data-color="color-2" fill="none" stroke="currentColor" stroke-linecap="square" stroke-miterlimit="10" x1="24" y1="14" x2="24" y2="34"/><line data-color="color-2" fill="none" stroke="currentColor" stroke-linecap="square" stroke-miterlimit="10" x1="34" y1="24" x2="14" y2="24"/><circle fill="none" stroke-linecap="square" stroke-miterlimit="10" cx="24" cy="24" r="22"/></g></symbol><symbol id="nc-icon-circle-remove" viewBox="0 0 48 48"><title>circle remove</title><g ><line data-color="color-2" fill="none" stroke="currentColor" stroke-linecap="square" stroke-miterlimit="10" x1="32" y1="16" x2="16" y2="32"/><line data-color="color-2" fill="none" stroke="currentColor" stroke-linecap="square" stroke-miterlimit="10" x1="32" y1="32" x2="16" y2="16"/><circle fill="none" stroke-linecap="square" stroke-miterlimit="10" cx="24" cy="24" r="22"/></g></symbol><symbol id="nc-icon-lock" viewBox="0 0 48 48"><title>lock</title><g ><path fill="none" stroke-linecap="square" stroke-miterlimit="10" d="M24,2L24,2&#10;&#9;c-5.5,0-10,4.5-10,10v6h20v-6C34,6.5,29.5,2,24,2z"/><rect x="8" y="18" fill="none" stroke-linecap="square" stroke-miterlimit="10" width="32" height="28"/><circle data-color="color-2" fill="none" stroke="currentColor" stroke-linecap="square" stroke-miterlimit="10" cx="24" cy="30" r="4"/><line data-color="color-2" fill="none" stroke="currentColor" stroke-linecap="square" stroke-miterlimit="10" x1="24" y1="34" x2="24" y2="38"/></g></symbol><symbol id="nc-icon-notification-69" viewBox="0 0 48 48"><title>notification 69</title><g ><path data-cap="butt" data-color="color-2" fill="none" stroke="currentColor" stroke-miterlimit="10" d="M20,30l6,9&#10;&#9;c1.1,1.6,0.6,3.8-1,4.9l0,0c-1.7,1.1-3.9,0.6-5-1.1L12,30"/><path data-color="color-2" fill="none" stroke="currentColor" stroke-linecap="square" stroke-miterlimit="10" d="M10,28&#10;&#9;c-3.3,0-6-2.7-6-6s2.7-6,6-6"/><polyline data-cap="butt" fill="none" stroke-miterlimit="10" points="26,14 44,4 44,40 26,30 "/><rect x="10" y="14" fill="none" stroke-linecap="square" stroke-miterlimit="10" width="16" height="16"/></g></symbol><symbol id="nc-icon-pencil" viewBox="0 0 48 48"><title>pencil</title><g ><line data-cap="butt" data-color="color-2" fill="none" stroke="currentColor" stroke-miterlimit="10" x1="6" y1="32" x2="16" y2="42"/><line data-cap="butt" data-color="color-2" fill="none" stroke="currentColor" stroke-miterlimit="10" x1="11" y1="37" x2="31" y2="17"/><line data-color="color-2" fill="none" stroke="currentColor" stroke-linecap="square" stroke-miterlimit="10" x1="30" y1="8" x2="40" y2="18"/><line data-color="color-2" fill="none" stroke="currentColor" stroke-linecap="square" stroke-miterlimit="10" x1="26" y1="12" x2="36" y2="22"/><path fill="none" stroke-linecap="square" stroke-miterlimit="10" d="M16,42L4,44l2-12L33.2,4.8&#10;&#9;c1.6-1.6,4.1-1.6,5.7,0l4.3,4.3c1.6,1.6,1.6,4.1,0,5.7L16,42z"/></g></symbol><symbol id="nc-icon-send" viewBox="0 0 48 48"><title>send</title><g ><polyline data-cap="butt" fill="none" stroke-miterlimit="10" points="44,4 14,28 14,42 21.2,33.5 &#10;&#9;"/><polygon fill="none" stroke-linecap="square" stroke-miterlimit="10" points="4,20 44,4 36,44 &#10;&#9;"/></g></symbol><symbol id="nc-icon-simple-remove" viewBox="0 0 48 48"><title>simple remove</title><g ><line fill="none" stroke-linecap="square" stroke-miterlimit="10" x1="38" y1="10" x2="10" y2="38"/><line fill="none" stroke-linecap="square" stroke-miterlimit="10" x1="38" y1="38" x2="10" y2="10"/></g></symbol><symbol id="nc-icon-menu-34" viewBox="0 0 48 48"><title>menu 34</title><g ><line data-color="color-2" fill="none" stroke="currentColor" stroke-linecap="square" stroke-miterlimit="10" x1="2" y1="24" x2="46" y2="24"/><line fill="none" stroke-linecap="square" stroke-miterlimit="10" x1="2" y1="10" x2="46" y2="10"/><line fill="none" stroke-linecap="square" stroke-miterlimit="10" x1="2" y1="38" x2="46" y2="38"/></g></symbol><symbol id="nc-icon-menu-dots" viewBox="0 0 48 48"><title>menu dots</title><g ><circle data-color="color-2" fill="none" stroke="currentColor" stroke-linecap="square" stroke-miterlimit="10" cx="24" cy="24" r="4"/><circle fill="none" stroke-linecap="square" stroke-miterlimit="10" cx="6" cy="24" r="4"/><circle fill="none" stroke-linecap="square" stroke-miterlimit="10" cx="42" cy="24" r="4"/></g></symbol><symbol id="nc-icon-square-add-08" viewBox="0 0 48 48"><title>square add 08</title><g ><rect x="2" y="2" fill="none" stroke-linecap="square" stroke-miterlimit="10" width="44" height="44"/><line data-color="color-2" fill="none" stroke="currentColor" stroke-linecap="square" stroke-miterlimit="10" x1="24" y1="14" x2="24" y2="34"/><line data-color="color-2" fill="none" stroke="currentColor" stroke-linecap="square" stroke-miterlimit="10" x1="34" y1="24" x2="14" y2="24"/></g></symbol><symbol id="nc-icon-square-remove-09" viewBox="0 0 48 48"><title>square remove 09</title><g ><rect x="2" y="2" fill="none" stroke-linecap="square" stroke-miterlimit="10" width="44" height="44"/><line data-color="color-2" fill="none" stroke="currentColor" stroke-linecap="square" stroke-miterlimit="10" x1="32" y1="16" x2="16" y2="32"/><line data-color="color-2" fill="none" stroke="currentColor" stroke-linecap="square" stroke-miterlimit="10" x1="32" y1="32" x2="16" y2="16"/></g></symbol><symbol id="nc-icon-funnel-41" viewBox="0 0 48 48"><title>funnel 41</title><g ><polyline data-cap="butt" data-color="color-2" fill="none" stroke="currentColor" stroke-miterlimit="10" points="45.377,9.423 28,32 28,46 &#10;&#9;20,46 20,32 2.623,9.423 "/><ellipse fill="none" stroke-linecap="square" stroke-miterlimit="10" cx="24" cy="8" rx="22" ry="6"/></g></symbol><symbol id="nc-icon-multiple-19" viewBox="0 0 48 48"><title>multiple 19</title><g ><path data-cap="butt" data-color="color-2" fill="none" stroke="currentColor" stroke-miterlimit="10" d="M33.2,30H46v-7.9&#10;&#9;c0-1.4-0.7-2.6-1.9-3.3l-5.7-3.4"/><path data-cap="butt" data-color="color-2" fill="none" stroke="currentColor" stroke-miterlimit="10" d="M26.5,6.4C27.5,3.8,30.1,2,33,2&#10;&#9;h0c3.9,0,7,3.1,7,7v2c0,3.9-3.1,7-7,7h0c-1.1,0-2.1-0.3-3.1-0.7"/><path data-cap="butt" fill="none" stroke-miterlimit="10" d="M13.7,25.8l-9.1,5.5&#10;&#9;C3,32.2,2,34,2,35.9V44h36v-8.1c0-1.9-1-3.7-2.6-4.6l-9.1-5.5"/><path fill="none" stroke-linecap="square" stroke-miterlimit="10" d="M20,28L20,28&#10;&#9;c-5.5,0-10-4.5-10-10v-4c0-5.5,4.5-10,10-10h0c5.5,0,10,4.5,10,10v4C30,23.5,25.5,28,20,28z"/></g></symbol></svg>