<svg xmlns="http://www.w3.org/2000/svg" xmlns:xlink="http://www.w3.org/1999/xlink" width="141px" height="102px" viewBox="0 0 141 102" version="1.1">
    <!-- Generator: Sketch 3.8.3 (29802) - http://www.bohemiancoding.com/sketch -->
    <title>symbol (on white)</title>
    <desc>Created with Sketch.</desc>
    <defs/>
    <g id="Product" stroke="none" stroke-width="1" fill="none" fill-rule="evenodd">
        <g id="Login-Screen-(Limited)-v1-2016-06-21" transform="translate(-1230.000000, -746.000000)">
            <g id="symbol-(on-white)" transform="translate(1230.000000, 746.000000)">
                <g id="Group">
                    <path d="M66.4077,94.8354 C59.5577,90.4224 53.8347,84.1134 49.8297,76.5594 C46.0267,69.3854 43.7827,61.0894 43.5857,52.2314 L0.6747,52.2314 C0.8717,61.0894 3.1167,69.3854 6.9197,76.5594 C6.9247,76.5684 6.9287,76.5774 6.9337,76.5874 C10.9277,84.1094 16.6247,90.3944 23.4427,94.8004 C23.4607,94.8124 23.4797,94.8234 23.4987,94.8354 C30.3017,99.2174 38.2137,101.7314 46.6597,101.7314 L89.5707,101.7314 C81.1247,101.7314 73.2107,99.2174 66.4077,94.8354" id="Fill-4" fill="#F9D748"/>
                    <path d="M49.8751,25.2832 C53.8671,17.7862 59.5531,11.5202 66.3541,7.1262 C66.9881,6.7152 67.6341,6.3242 68.2881,5.9472 C64.1161,3.6832 56.2401,0.3092 46.2371,0.1982 C37.9271,0.2812 30.1441,2.7952 23.4431,7.1262 L23.4431,7.1262 C16.6421,11.5202 10.9561,17.7862 6.9641,25.2832 C6.9541,25.3022 6.9441,25.3212 6.9341,25.3402 C3.1221,32.5192 0.8731,40.8252 0.6761,49.6932 L43.5871,49.6932 C43.7851,40.8012 46.0451,32.4752 49.8751,25.2832" id="Fill-5" fill="#D8B935"/>
                    <path d="M94.9074,0.1941 L58.1604,0.1941 C62.0194,1.0021 65.3424,2.1851 67.9874,3.3491 C70.0144,4.1791 71.9744,5.1631 73.8564,6.2861 L116.7594,6.2861 C110.2584,2.4061 102.8184,0.1941 94.9074,0.1941" id="Fill-6" fill="#F9D748"/>
                    <path d="M75.0708,94.8354 L117.9818,94.8354 C124.5078,90.6314 130.0018,84.6994 133.9708,77.6154 L91.0598,77.6154 C87.0908,84.6994 81.5968,90.6314 75.0708,94.8354" id="Fill-7" fill="#D8B935"/>
                    <path d="M92.1404,75.5846 L135.0514,75.5846 C138.5514,68.6376 140.6154,60.6926 140.8044,52.2316 L97.8934,52.2316 C97.7044,60.6926 95.6404,68.6376 92.1404,75.5846" id="Fill-8" fill="#D8B935"/>
                    <path d="M119.7722,8.317 L76.8612,8.317 C82.6022,12.416 87.4602,17.886 91.0592,24.309 L133.9702,24.309 C130.3712,17.886 125.5132,12.416 119.7722,8.317" id="Fill-9" fill="#F9D748"/>
                    <path d="M135.0494,26.3396 L92.1384,26.3396 C95.6384,33.2866 97.7044,41.2306 97.8934,49.6926 L140.8034,49.6926 C140.6154,41.2306 138.5494,33.2866 135.0494,26.3396" id="Fill-10" fill="#F9D748"/>
                    <path d="M97.9187,50.9719 L97.9187,50.9639 L97.9187,50.9559 L97.9187,50.9719 Z" id="Fill-11" fill="#171717"/>
                    <path d="M140.8299,50.9956 L140.8299,50.9636 C140.8299,50.9746 140.8289,50.9846 140.8289,50.9956 L140.8299,50.9956 Z" id="Fill-12" fill="#171717"/>
                    <path d="M140.8299,50.9638 L140.8299,50.9318 L140.8289,50.9318 C140.8289,50.9428 140.8299,50.9528 140.8299,50.9638" id="Fill-13" fill="#171717"/>
                </g>
            </g>
        </g>
    </g>
</svg>