<svg xmlns:xlink="http://www.w3.org/1999/xlink" xmlns="http://www.w3.org/2000/svg" width="100%" height="100%" version="1.1" viewBox="-2.1234 -2.2532 253.7642 44.8184"><defs/><g id="layer1"><g><g><path d="M177.6582 28.7119 C175.1232 28.7119 173.5782 27.3259 173.3012 24.2759 L173.3012 15.3629 C174.4102 14.4919 175.7172 14.4119 176.5092 14.4119 C180.0352 14.4119 182.8872 16.9469 182.8872 22.2949 C182.8872 25.8999 180.8672 28.7119 177.6582 28.7119M179.1632 10.8869 C176.9452 10.8869 174.4102 11.7979 173.0632 13.8579 L172.1122 10.3319 L168.5472 12.7089 L168.5472 12.7489 L168.5472 16.3929 L168.5472 20.6909 L168.5472 36.2779 L165.6952 39.0899 L176.3902 39.0899 L173.3012 36.2779 L173.3012 30.0589 C174.4502 30.4949 175.7172 30.6929 176.8262 30.6929 C183.3222 30.6929 187.7982 25.7809 187.7982 20.4729 C187.7982 13.8969 183.4022 10.8869 179.1632 10.8869 Z " fill-rule="evenodd" opacity="1" fill="#FFF" fill-opacity="1"/><path d="M199.4835 24.7904 L199.5625 19.9974 C198.6125 21.2254 197.1465 21.9784 195.8395 22.4934 C193.7005 23.4434 192.9085 24.3544 192.9085 25.8594 C192.9085 27.0484 193.8985 27.7614 194.9285 27.7614 C196.3545 27.7614 198.6125 26.8894 199.4835 24.7904 L199.4835 24.7904 Z M199.6025 16.6704 C199.4435 13.9764 197.7005 12.5114 195.7205 12.5114 C194.5325 12.5114 192.6705 12.7484 192.1155 13.5404 C193.8195 14.2144 194.2545 15.2044 194.2545 16.5514 C194.2545 18.0964 192.9475 19.3244 191.5215 19.3244 C189.7785 19.3244 188.8285 17.9374 188.8285 16.1154 C188.8285 13.7784 192.3135 10.6094 196.3935 10.6094 L197.0275 10.6094 C200.4735 10.6094 204.1185 12.1944 204.1185 17.5024 C204.1185 19.1264 204.0785 25.2264 204.0785 27.0484 L207.0885 30.1774 L200.5925 30.1774 L199.6025 27.1274 C198.3745 29.2664 195.6415 30.7324 193.0265 30.7324 C189.3435 30.7324 188.1945 27.9984 188.1945 26.2164 C188.1945 23.4434 190.5315 21.8194 192.9875 21.2254 C195.8395 20.5524 199.6025 20.1164 199.5625 16.6704 L199.6025 16.6704 Z " fill-rule="evenodd" opacity="1" fill="#FFF" fill-opacity="1"/><path d="M244.3228 14.4122 L236.0438 32.9902 C234.5788 36.4752 232.6768 39.5652 229.3898 39.5652 C226.7358 39.5652 225.1908 38.4962 224.1608 36.3962 L228.5968 31.2862 C228.2008 34.2182 229.7458 35.0102 231.0138 35.0102 C232.6768 35.0102 233.6678 32.6332 234.1828 31.7622 L235.1328 29.6232 L228.1218 14.2932 L224.0418 11.2032 L235.9248 11.2032 L232.9148 13.6592 L237.6288 24.0772 L242.1048 14.0162 L239.5298 11.2032 L243.3328 11.2032 L243.3328 11.2832 L243.3718 11.2032 L248.6408 11.2032 L244.3228 14.4122 Z " opacity="1" fill="#FFF" fill-opacity="1"/><path d="M166.4489 27.4047 L166.4579 27.4157 L166.4579 25.2537 Z " opacity="1" fill="#FFF" fill-opacity="1"/><path d="M166.4489 27.4047 L166.4579 25.2537 L166.4579 22.4017 L166.4689 22.4017 L166.4889 17.6997 C166.4889 13.1847 163.9929 10.8077 160.4679 10.8077 C157.3379 10.8077 155.5559 12.2337 154.3679 14.6497 C153.4569 12.1147 151.4359 10.8077 148.8219 10.8077 C145.9299 10.8077 144.1479 12.0357 142.9599 14.1347 L142.0879 10.3327 L138.5229 12.7087 L138.5229 12.7487 L138.5229 16.3927 L138.5229 22.4017 L138.5229 27.4047 L135.6709 30.1777 L146.3659 30.1777 L143.2759 27.4047 L143.2759 16.9077 C143.4749 15.8387 144.1479 13.7387 146.7229 13.7387 C149.3369 13.7387 150.0499 15.7987 150.0899 19.1257 L150.0499 27.4047 L147.1979 30.1777 L157.8929 30.1777 L154.8029 27.4047 L154.8429 17.6997 L154.8429 17.5417 C154.8429 17.5417 154.9619 13.7387 158.3679 13.7387 C160.9829 13.7387 161.6959 15.7987 161.7349 19.1257 L161.6959 27.4047 L158.8439 30.1777 L166.4579 30.1777 L166.4579 27.4157 L166.4489 27.4047 Z " opacity="1" fill="#FFF" fill-opacity="1"/><path d="M168.6671 30.1775 L168.3591 29.7925 L168.3591 30.1775 Z " opacity="1" fill="#FFF" fill-opacity="1"/><path d="M166.4577 25.2534 L166.4697 22.4024 L166.4577 22.4024 Z " opacity="1" fill="#FFF" fill-opacity="1"/><path d="M79.9392 30.1775 L90.6342 30.1775 L87.5442 27.4045 L87.5842 17.6995 C87.5842 13.1845 84.9302 10.8075 81.1672 10.8075 C78.0772 10.8075 76.2162 12.0755 74.9482 14.2145 L74.0372 10.3325 L70.4722 12.7085 L70.4722 12.7485 L70.4722 16.3925 L70.4722 20.6905 L70.4722 27.4045 L67.6202 30.1775 L78.3152 30.1775 L75.2252 27.4045 L75.2252 16.9865 C75.4232 15.8775 76.2552 13.6595 79.1472 13.6595 C80.5732 13.6595 81.5632 14.0955 82.1182 14.9665 C82.7122 15.8775 82.8312 16.7885 82.8312 18.8885 L82.7912 27.4045 L79.9392 30.1775 Z " opacity="1" fill="#FFF" fill-opacity="1"/><path d="M40.0914 28.7119 C37.5564 28.7119 36.0114 27.3259 35.7344 24.2759 L35.7344 15.3629 C36.8434 14.4919 38.1504 14.4119 38.9424 14.4119 C42.4684 14.4119 45.3204 16.9469 45.3204 22.2949 C45.3204 25.8999 43.3004 28.7119 40.0914 28.7119M41.5964 10.8869 C39.3784 10.8869 36.8434 11.7979 35.4964 13.8579 L34.5454 10.3319 L30.9804 12.7089 L30.9804 12.7489 L30.9804 16.3929 L30.9804 21.5619 L30.9804 36.2779 L28.1284 39.0899 L38.8234 39.0899 L35.7344 36.2779 L35.7344 30.0589 C36.8834 30.4949 38.1504 30.6929 39.2594 30.6929 C45.7554 30.6929 50.2314 25.7809 50.2314 20.4729 C50.2314 13.8969 45.8354 10.8869 41.5964 10.8869 Z " fill-rule="evenodd" opacity="1" fill="#FFF" fill-opacity="1"/><path d="M7.0956 15.9967 C7.0956 22.4537 9.2346 28.7517 15.1366 28.7517 C20.9996 28.7517 23.1776 22.4137 23.1776 15.9967 C23.1776 9.6197 20.9996 3.2817 15.1366 3.2417 C9.2746 3.2027 7.0956 9.5797 7.0956 15.9967M15.1366 31.0887 C6.4616 30.9697 0.8766 25.2657 0.8766 16.0367 C0.8766 7.0837 6.5806 0.9047 15.1366 0.9047 C24.1676 0.9047 29.3566 7.4807 29.3966 15.9567 C29.4366 25.1867 23.8516 30.9297 15.1366 31.0887 Z " fill-rule="evenodd" opacity="1" fill="#FFF" fill-opacity="1"/><path d="M55.6184 17.9376 L63.8974 17.9376 C63.8974 14.8086 62.5904 12.6696 60.0944 12.6696 C57.9554 12.6696 55.6584 14.5706 55.6184 17.9376M51.1424 21.0666 C51.1424 15.5216 54.9054 10.8076 60.6884 10.8076 C63.9764 10.8076 68.5314 12.4316 68.9274 17.9376 L68.9674 17.9376 L68.9674 18.2946 L68.9674 18.7296 L68.9674 19.9186 L55.6184 19.9186 C55.7764 23.9186 58.2724 26.5726 62.1934 26.5726 C64.9664 26.5726 67.2644 25.3846 68.8094 22.8886 C68.8094 27.3646 64.6104 30.5736 60.4514 30.5736 C54.3114 30.5736 51.1424 25.9386 51.1424 21.0666 Z " fill-rule="evenodd" opacity="1" fill="#FFF" fill-opacity="1"/><path d="M115.7865 31.3658 L111.6275 28.1178 C109.4485 30.1778 106.9535 30.8908 104.3385 30.8908 C96.1395 30.8908 90.8715 24.8298 90.8715 16.8288 C90.8715 6.8468 96.6545 1.1028 105.3295 1.1028 C107.3095 1.1028 109.8445 2.0138 111.8255 3.8358 L115.7865 0.7467999 L115.7865 13.6198 C112.3005 8.2328 110.2405 3.8358 105.1315 3.8358 C100.3775 3.8358 97.0905 8.787801 97.0905 15.6008 C97.0905 22.4138 99.5455 28.2758 105.2105 28.2758 C110.7955 28.2758 113.7265 21.4628 115.7865 18.4918 L115.7865 31.3658 Z " opacity="1" fill="#FFF" fill-opacity="1"/><path d="M122.6389 20.7104 C122.6389 24.9484 123.5899 28.6724 127.1149 28.6724 C130.6009 28.6724 131.5909 24.9484 131.5909 20.7104 C131.5909 16.5114 130.6009 12.7094 127.1149 12.6694 C123.5899 12.6294 122.6389 16.4724 122.6389 20.7104M127.1149 30.5734 C121.1339 30.4944 117.1329 26.8504 117.1329 20.7504 C117.1329 14.8084 121.2129 10.8074 127.1149 10.8074 C133.3339 10.8074 137.0569 15.0854 137.0969 20.6704 C137.0969 26.8104 133.0959 30.4544 127.1149 30.5734 Z " fill-rule="evenodd" opacity="1" fill="#FFF" fill-opacity="1"/><path d="M215.9218 30.1775 L212.8318 27.4045 L212.8318 16.9865 C213.0298 15.8775 213.8618 13.6595 216.7538 13.6595 C218.1798 13.6595 219.1698 14.0955 219.7248 14.9665 C220.3188 15.8775 220.4378 16.7885 220.4378 18.8885 L220.3978 27.4045 L217.5458 30.1775 L228.2408 30.1775 L225.1508 27.4045 L225.1908 17.6995 C225.1908 13.1845 222.5368 10.8075 218.7738 10.8075 C215.6838 10.8075 213.8228 12.0755 212.5548 14.2145 L211.6438 10.3325 L208.0788 12.7085 L208.0788 12.7485 L208.0788 16.3925 L208.0788 22.4025 L208.0788 27.4045 L206.6958 28.7495 L208.0788 30.1775 L215.9218 30.1775 Z " opacity="1" fill="#FFF" fill-opacity="1"/></g></g></g></svg>