<?xml version="1.0" encoding="utf-8"?><svg width="100%" height="100%" version="1.1" viewBox="-3.000996 39.259 455.957 371.439" xmlns:xlink="http://www.w3.org/1999/xlink" xmlns="http://www.w3.org/2000/svg"><defs /><g id="layer1"><g><path d="M449.956 85.657 C432.254 93.271 414.548 98.026 396.854 99.936 C416.839 87.945 430.357 71.005 437.4 49.117 C419.119 59.964 399.613 67.38499 378.868 71.384 C360.594 51.96999 338.138 42.259 311.485 42.259 C285.983 42.259 264.239 51.251 246.245 69.239 C228.261 87.226 219.268 108.97 219.268 134.474 C219.268 141.325 220.028 148.37 221.552 155.602 C183.864 153.699 148.51 144.23 115.484 127.195 C82.46 110.158 54.433 87.46 31.403 59.101 C23.028 73.373 18.839 88.888 18.839 105.637 C18.839 121.435 22.55 136.093 29.977 149.607 C37.399 163.119 47.394 174.062 59.957 182.438 C45.108 181.866 31.214 177.963 18.273 170.73 L18.273 171.872 C18.273 194.143 25.268 213.696 39.256 230.546 C53.246 247.394 70.901 257.999 92.217 262.379 C84.222 264.47 76.131 265.517 67.94801 265.517 C62.618 265.517 56.812 265.042 50.53201 264.097 C56.43201 282.556 67.28201 297.7299 83.078 309.632 C98.877 321.528 116.769 327.66 136.755 328.05 C103.257 354.312 65.095 367.443 22.269 367.443 C14.083 367.443 6.662004 367.07 -0.000995636 366.304 C42.826 393.9 90.02901 407.698 141.611 407.698 C174.349 407.698 205.089 402.517 233.821 392.141 C262.567 381.772 287.118 367.874 307.486 350.455 C327.848 333.0399 345.411 313.007 360.16 290.358 C374.91 267.707 385.898 244.06 393.137 219.412 C400.367 194.759 403.985 170.068 403.985 145.32 C403.985 139.99 403.889 135.995 403.698 133.329 C421.785 120.202 437.202 104.306 449.956 85.657 Z " opacity="1" fill="#4D596A" fill-opacity="0.5001616" /></g></g></svg>